<svg width="1653" height="939" viewBox="0 0 1653 939" fill="none" xmlns="http://www.w3.org/2000/svg">
<rect width="1667" height="939" fill="white"/>
<path d="M526.07 566.311C526.445 630.36 527.034 677.165 528.748 732.271C753.67 729.272 899.816 731.95 1116.33 730.022C1117.29 669.293 1116.17 631.806 1115.74 566.525C931.68 571.077 532.55 561.705 526.07 566.311Z" fill="#F2F4F7"/>
<path d="M1147.93 759.69H526.017V778.594H555.524V824.757H573.84V778.594H1087.89V818.652H1106.21V778.594H1147.93V759.69Z" fill="#F2F4F7"/>
<path d="M537.584 702.871C527.302 711.439 517.073 716.794 510.701 724.292C738.3 722.043 905.492 721.025 1124.58 718.936C1112.69 710.957 1120.61 711.76 1108.4 699.55C922.04 701.692 544.171 702.228 537.584 702.871Z" fill="#F2F4F7"/>
<path d="M528.962 721.882C528.909 739.447 529.123 752.246 530.515 767.295C764.702 764.831 916.846 764.51 1142.3 762.368C1143.8 745.713 1142.84 735.484 1142.95 717.598C951.226 720.222 535.763 720.597 528.962 721.882Z" fill="#F2F4F7"/>
<path d="M513.486 782.236C499.187 782.236 490.136 763.385 489.494 748.39C488.209 717.865 486.87 687.233 489.494 656.815C489.815 653.066 490.244 649.211 491.636 645.783C501.008 623.559 533.568 634.537 533.568 658.529C533.568 658.636 533.568 758.298 533.568 758.298C533.675 771.579 524.625 782.236 513.486 782.236Z" fill="#F2F4F7"/>
<path d="M1135.93 782.236C1121.63 782.236 1112.58 763.385 1111.94 748.39C1110.65 717.865 1109.31 687.233 1111.94 656.815C1112.26 653.066 1112.69 649.211 1114.08 645.783C1123.45 623.559 1156.01 634.537 1156.01 658.529C1156.01 658.636 1156.01 758.298 1156.01 758.298C1156.12 771.579 1147.07 782.236 1135.93 782.236Z" fill="#F2F4F7"/>
<path d="M403.589 660.321C400.109 660.189 386.626 660.145 382.661 660.145H237.922C231.093 660.233 222.104 660.233 215.187 660.277C211.001 660.277 212.147 660.321 211.265 661.863C210.428 663.317 210.516 664.771 210.384 666.225C210.252 667.679 210.296 669.133 210.516 670.587C210.604 671.292 210.737 671.997 210.913 672.702C211.045 673.187 209.988 673.804 210.957 674.244C210.737 674.509 210.957 674.729 213.689 674.861C216.156 674.993 220.21 674.993 224.572 675.037C224.748 675.037 224.968 675.037 225.144 675.037C225.233 675.037 225.321 675.037 225.453 675.037C231.401 675.037 237.878 674.993 241.711 674.993C249.598 674.993 257.441 674.993 265.328 674.993C301.633 674.993 346.267 674.993 382.573 674.993C386.45 674.993 399.844 674.993 403.369 674.773C404.338 674.729 405.087 674.641 405.528 674.553C407.555 674.112 406.321 673.451 406.497 672.967H406.321H406.145C406.277 672.306 405.837 671.557 405.969 671.028C406.145 670.059 406.233 669.089 406.233 668.12C406.233 666.974 406.057 665.829 405.748 664.683C405.484 663.67 406.674 662.128 407.114 661.026C407.246 660.453 407.246 660.453 403.589 660.321Z" fill="#F2F4F7"/>
<path d="M409.494 656.532C368.562 655.21 311.063 656.84 270.174 656.268C248.144 655.959 226.158 656.84 204.128 657.105C200.603 657.325 202.409 661.158 202.894 663.141C266.121 663.053 346.708 663.097 409.846 662.392C410.683 660.585 410.507 658.559 409.494 656.532Z" fill="#F2F4F7"/>
<path d="M216.333 798.407C218.8 798.803 220.827 798.759 223.074 798.274C223.514 797.305 223.779 796.159 223.735 794.97C222.853 769.591 226.29 696.583 223.867 671.336C222.413 669.397 219.02 670.146 217.61 672.173C216.2 674.2 216.2 676.8 216.244 679.267C216.553 695.041 216.597 710.858 216.509 726.632C216.509 734.21 215.495 790.828 216.333 798.407Z" fill="#F2F4F7"/>
<path d="M390.856 669.882C390.856 669.265 390.9 668.56 391.341 668.164C391.737 667.811 392.354 667.811 392.927 667.811C394.91 667.855 396.937 667.899 398.919 667.943C397.686 678.077 397.201 688.299 397.465 698.477C397.774 709.096 398.919 719.758 397.994 730.377C397.333 737.867 396.452 792.326 397.597 799.772C397.641 799.993 392.442 799.64 391.649 797.613C390.548 794.881 390.856 742.538 390.856 739.586C390.856 731.787 390.856 723.988 390.856 716.234C390.856 700.724 390.856 685.303 390.856 669.882Z" fill="#F2F4F7"/>
<path d="M281.3 616.7C276.4 607.5 267.7 600 260.8 592.3C260.7 592.2 260.5 592.2 260.4 592.3C260 591.9 259.4 592.5 259.8 592.9C266.8 600.7 272.3 609.1 277 618.5C277.4 619.3 278.6 618.6 278.2 617.8C278.2 617.7 278.1 617.6 278.1 617.5C278.3 617.5 278.5 617.5 278.6 617.4C279.1 617.5 279.6 617.7 280.1 618C280.8 618.4 281.7 617.4 281.3 616.7Z" fill="#F2F4F7"/>
<path d="M287.3 601.1C289.7 593.9 294.1 587.5 299.9 582.6C298.3 585 296.6 587.4 295.4 590C291.4 598.2 291.2 607.6 290.4 616.6C290.3 618.2 286.9 617.6 285.9 616.9C284.8 616.1 284.8 615 284.8 613.7C285 609.5 286 605.1 287.3 601.1Z" fill="#F2F4F7"/>
<path d="M271.8 613.3C269.9 611.5 267.9 609.9 265.5 608.8C260.5 606.3 254.6 606.1 249 606.5C250.8 604.9 253.4 604.7 255.8 604.9C264.1 605.4 271.7 609.4 279 613.3C279.5 613.5 279.9 613.8 280.2 614.2C281.3 615.8 279.7 619.7 277.5 619.1C275.5 618.3 273.4 614.7 271.8 613.3Z" fill="#F2F4F7"/>
<path d="M281.7 599.1C282.3 592.4 284 585.7 287.6 580C286.1 591.3 284.7 603 287.3 614.1C287.8 616.4 287.1 617.9 284.6 618C282.7 618.1 281.9 617.3 281.7 615.5C281 610.1 281.2 604.4 281.7 599.1Z" fill="#F2F4F7"/>
<path d="M303.2 602.8C307 599.8 311.6 597.8 316.4 597C312.5 598.1 309.2 600.6 306.2 603.4C301.9 607.3 298 612.3 298 618.1C298 617.5 292.6 617.3 292.2 616.5C291.8 615.5 294.5 612.5 295.1 611.7C297.4 608.5 300 605.3 303.2 602.8Z" fill="#F2F4F7"/>
<path d="M297.1 593.6C299.5 590.5 302.6 587.5 306.5 587.4C300.8 591.7 297.7 598.6 295.6 605.4C294.8 607.9 294.2 610.5 294.3 613C294.4 614.6 294.9 616.3 294.7 617.9C292.9 617.9 287.9 619 287.3 616.8C286.7 614.7 288.4 610.8 289 608.8C290.9 603.3 293.6 598.1 297.1 593.6Z" fill="#F2F4F7"/>
<path d="M283.1 610.3C278.9 602.5 274.2 594.7 267.1 589.5C273.8 597.5 278.1 607.5 279.2 617.9C279.3 618.9 284.4 618 285 616.9C286 615 284 611.8 283.1 610.3Z" fill="#F2F4F7"/>
<path d="M270.4 609.8C266 604.5 261.3 599.2 254.9 596.5C255.9 596.7 256.9 597.2 257.9 597.7C261.8 599.5 265.7 601.4 269.3 603.8C272.1 605.7 274.7 607.9 277.6 609.7C279.8 611.1 282.3 612.3 284 614.4C284.2 614.6 284.3 614.9 284.3 615.2C284.3 615.6 283.8 615.9 283.4 616C281.5 616.8 276.9 619.8 275.3 617.8C274.4 616.8 274.1 615.1 273.4 614C272.6 612.5 271.5 611.1 270.4 609.8Z" fill="#F2F4F7"/>
<path d="M274.8 591.8C273.9 589.4 272.9 587 272.8 584.5C276.5 587.6 278.8 592 280.9 596.4C283.6 602.1 286.1 607.9 288.3 613.8C288.8 615.1 289.5 616.7 289.5 618.1C283.3 619.8 282.7 615 281.3 610.3C279.2 604 277.2 597.9 274.8 591.8Z" fill="#F2F4F7"/>
<path d="M306 595.1C300.4 597.4 296.6 602.4 293.1 607.3C290.7 610.6 288.4 614 287 617.8C288.3 618.3 292.6 620.3 293.9 619.4C295 618.7 295.5 614.7 295.9 613.4C297.3 609 299 604.7 301.4 600.8C302.4 599.3 304.3 595.8 306 595.1Z" fill="#F2F4F7"/>
<path d="M272.2 644.9C272.2 646.1 272.3 647.3 272.8 648.4C273.9 650.7 276.7 651.9 279.5 652.4C283.7 653.3 288.1 653.2 292.4 653C294.4 652.9 296.6 652.8 298.2 651.6C298.8 651.2 299.2 650.7 299.5 650.1C299.8 649.5 299.9 649 300.1 648.4C300.3 647.4 300.6 646.4 300.8 645.4C301.2 643.7 301.1 641.8 301.2 640C301.3 637.9 301.5 635.9 301.5 633.8C301.4 632 301.5 630.2 301.6 628.4C301.9 623.8 301.5 618.8 301.7 614.2C293 612.4 284.6 612.7 275.7 613.8C274.2 614 271.6 614.4 271.2 616C271 616.8 271.3 617.9 271.3 618.7C271.3 619.9 271.4 621 271.4 622.2C271.6 627 271.7 631.8 271.9 636.7C272 639.4 272.1 642.2 272.2 644.9Z" fill="#F2F4F7"/>
<path d="M271.4 650.9C272.2 650.5 273.2 650.4 274.1 650.5C282.2 650.6 290.4 651.4 298.5 650.7C299.9 650.6 301.6 650.5 302.4 651.7C303.1 652.8 302.6 654.3 301.5 655.1C300.5 655.9 299.2 656.1 297.9 656.2C293 656.6 288.2 656.3 283.3 656.1C280.8 656 278.2 656 275.7 656.1C274.3 656.2 272.5 656.7 271.2 655.9C269.7 654.6 269.6 651.9 271.4 650.9Z" fill="#F2F4F7"/>
<path d="M626.446 224.605C606.734 235.74 587.621 247.027 568.252 258.213C567.909 258.416 568.766 258.62 569.109 258.416C588.65 247.281 608.448 236.147 627.732 224.91C628.246 224.554 626.96 224.249 626.446 224.605Z" fill="#F2F4F7"/>
<path d="M632.703 211.131C621.818 216.876 611.962 222.978 601.334 228.825C589.85 235.078 578.194 241.281 566.281 247.383C565.938 247.586 566.538 247.84 566.966 247.637C578.794 241.688 590.45 235.638 601.849 229.486C612.819 223.588 624.304 217.741 634.074 211.538C634.588 211.233 633.303 210.826 632.703 211.131Z" fill="#F2F4F7"/>
<path d="M769.146 100.953C752.434 111.172 735.464 121.239 718.237 131.256C717.466 131.713 719.18 132.069 719.951 131.662C737.778 121.849 754.662 111.63 770.432 101.258C770.946 100.953 769.746 100.647 769.146 100.953Z" fill="#F2F4F7"/>
<path d="M767.775 115.951C757.576 123.832 745.663 131.205 732.036 138.17C731.265 138.526 732.636 139.085 733.322 138.73C746.692 131.662 758.519 124.137 768.718 116.257C769.061 115.901 768.118 115.697 767.775 115.951Z" fill="#F2F4F7"/>
<path d="M747.978 191.404C737.436 198.827 726.894 206.301 716.352 213.724C715.666 214.182 717.466 214.589 718.066 214.131C728.437 206.657 738.893 199.183 749.263 191.709C749.777 191.353 748.406 191.048 747.978 191.404Z" fill="#F2F4F7"/>
<path d="M761.433 198.267C752.348 205.639 742.15 212.656 731.351 219.571C730.579 220.079 732.465 220.537 733.322 220.028C744.206 213.164 753.891 205.944 762.89 198.572C763.319 198.216 761.948 197.911 761.433 198.267Z" fill="#F2F4F7"/>
<path d="M770.518 81.0725C749.605 80.8691 728.693 81.2758 707.781 81.1742C686.183 81.0725 664.499 81.0725 642.902 81.0725C621.904 81.0725 600.906 81.0216 579.908 81.1742C558.996 81.3267 534.998 80.8182 514.171 81.0725L514 94.1902C536.541 93.8343 559.081 94.4444 581.622 94.1394C587.793 94.241 593.964 93.9868 600.134 94.0885C618.904 94.3427 637.759 94.1902 656.529 94.1902C692.182 94.1902 726.208 93.936 763.49 94.1394C782.602 94.3936 801.629 93.936 820.741 94.1394L833.34 94.0885V81.2758C812.514 80.8691 791.516 81.2758 770.518 81.0725Z" fill="#F2F4F7"/>
<path d="M770.518 273.67C749.605 273.467 728.693 273.873 707.781 273.772C686.183 273.67 664.499 273.67 642.902 273.67C621.904 273.67 600.906 273.619 579.908 273.772C558.996 273.924 534.998 273.416 514.171 273.67L514 286.788C536.541 286.432 559.081 287.042 581.622 286.737C587.793 286.839 593.964 286.584 600.134 286.686C618.904 286.94 637.759 286.788 656.529 286.788C692.182 286.788 726.208 286.534 763.49 286.737C782.602 286.991 801.629 286.534 820.741 286.737L833.34 286.686V273.873C812.514 273.467 791.516 273.873 770.518 273.67Z" fill="#F2F4F7"/>
<path d="M817.056 239.146C817.227 226.943 816.884 214.69 816.97 202.436C817.056 189.776 817.056 177.116 817.056 164.507C817.056 152.202 817.056 139.949 816.97 127.645C816.799 115.442 817.313 101.358 817.056 89.1559L803.172 89.0542C803.514 102.223 802.914 115.442 803.257 128.611C803.086 132.221 803.429 135.831 803.343 139.441C803.086 150.423 803.257 161.456 803.257 172.438C803.257 193.284 803.514 213.215 803.343 235.027C803.086 246.213 803.6 257.348 803.343 268.533L803.429 275.906H817.056C817.313 263.703 816.885 251.45 817.056 239.146Z" fill="#F2F4F7"/>
<path d="M679.327 239.146C679.498 226.943 679.155 214.69 679.241 202.436C679.327 189.776 679.327 177.116 679.327 164.507C679.327 152.202 679.327 139.949 679.241 127.645C679.069 115.442 679.584 101.358 679.327 89.1559L665.442 89.0542C665.785 102.223 665.185 115.442 665.528 128.611C665.357 132.221 665.699 135.831 665.614 139.441C665.357 150.423 665.528 161.456 665.528 172.438C665.528 193.284 665.785 213.215 665.614 235.027C665.357 246.213 665.871 257.348 665.614 268.533L665.699 275.906H679.241C679.584 263.703 679.155 251.45 679.327 239.146Z" fill="#F2F4F7"/>
<path d="M593.363 186.676C610.933 186.778 628.417 186.574 645.987 186.625C664.156 186.676 682.326 186.676 700.41 186.676C718.065 186.676 735.635 186.676 753.29 186.625C770.86 186.523 791.001 186.828 808.485 186.676L808.656 178.439C789.715 178.643 770.86 178.287 751.919 178.49C746.777 178.388 741.549 178.592 736.406 178.541C720.636 178.388 704.867 178.49 689.011 178.49C659.1 178.49 630.56 178.643 599.191 178.541C583.164 178.388 567.137 178.693 551.11 178.541L540.483 178.592V186.676C558.052 186.778 575.708 186.523 593.363 186.676Z" fill="#F2F4F7"/>
<path d="M542.368 239.146C542.54 226.943 542.197 214.69 542.282 202.436C542.368 189.776 542.368 177.116 542.368 164.507C542.368 152.202 542.368 139.949 542.282 127.645C542.111 115.442 542.625 101.358 542.368 89.1559L528.484 89.0542C528.827 102.223 528.227 115.442 528.569 128.611C528.398 132.221 528.741 135.831 528.655 139.441C528.398 150.423 528.569 161.456 528.569 172.438C528.569 193.284 528.827 213.215 528.655 235.027C528.398 246.213 528.912 257.348 528.655 268.533L528.741 275.906H542.368C542.54 263.703 542.111 251.45 542.368 239.146Z" fill="#F2F4F7"/>
<path d="M905.786 224.605C886.074 235.74 866.961 247.027 847.592 258.213C847.249 258.416 848.106 258.62 848.449 258.416C867.99 247.281 887.788 236.147 907.072 224.91C907.586 224.554 906.3 224.249 905.786 224.605Z" fill="#F2F4F7"/>
<path d="M912.043 211.131C901.158 216.876 891.302 222.978 880.675 228.825C869.19 235.078 857.534 241.281 845.621 247.383C845.278 247.586 845.878 247.84 846.307 247.637C858.134 241.688 869.79 235.638 881.189 229.486C892.159 223.588 903.644 217.741 913.414 211.538C913.928 211.233 912.643 210.826 912.043 211.131Z" fill="#F2F4F7"/>
<path d="M1048.49 100.953C1031.77 111.172 1014.8 121.239 997.577 131.256C996.806 131.713 998.52 132.069 999.291 131.662C1017.12 121.849 1034 111.63 1049.77 101.258C1050.29 100.953 1049.09 100.647 1048.49 100.953Z" fill="#F2F4F7"/>
<path d="M1047.12 115.951C1036.92 123.832 1025 131.205 1011.38 138.17C1010.6 138.526 1011.98 139.085 1012.66 138.73C1026.03 131.662 1037.86 124.137 1048.06 116.257C1048.4 115.901 1047.46 115.697 1047.12 115.951Z" fill="#F2F4F7"/>
<path d="M1027.32 191.404C1016.78 198.827 1006.23 206.301 995.692 213.724C995.007 214.182 996.807 214.589 997.407 214.131C1007.78 206.657 1018.23 199.183 1028.6 191.709C1029.12 191.353 1027.75 191.048 1027.32 191.404Z" fill="#F2F4F7"/>
<path d="M1040.77 198.267C1031.69 205.639 1021.49 212.656 1010.69 219.571C1009.92 220.079 1011.8 220.537 1012.66 220.028C1023.55 213.164 1033.23 205.944 1042.23 198.572C1042.66 198.216 1041.29 197.911 1040.77 198.267Z" fill="#F2F4F7"/>
<path d="M1049.86 81.0725C1028.95 80.8691 1008.03 81.2758 987.121 81.1742C965.523 81.0725 943.84 81.0725 922.242 81.0725C901.244 81.0725 880.246 81.0216 859.248 81.1742C838.336 81.3267 814.338 80.8182 793.512 81.0725L793.34 94.1902C815.881 93.8343 838.422 94.4444 860.962 94.1394C867.133 94.241 873.304 93.9868 879.475 94.0885C898.244 94.3427 917.1 94.1902 935.869 94.1902C971.523 94.1902 1005.55 93.936 1042.83 94.1394C1061.94 94.3936 1080.97 93.936 1100.08 94.1394L1112.68 94.0885V81.2758C1091.85 80.8691 1070.86 81.2758 1049.86 81.0725Z" fill="#F2F4F7"/>
<path d="M1049.86 273.67C1028.95 273.467 1008.03 273.873 987.121 273.772C965.523 273.67 943.84 273.67 922.242 273.67C901.244 273.67 880.246 273.619 859.248 273.772C838.336 273.924 814.338 273.416 793.512 273.67L793.34 286.788C815.881 286.432 838.421 287.042 860.962 286.737C867.133 286.839 873.304 286.584 879.474 286.686C898.244 286.94 917.099 286.788 935.869 286.788C971.523 286.788 1005.55 286.534 1042.83 286.737C1061.94 286.991 1080.97 286.534 1100.08 286.737L1112.68 286.686V273.873C1091.85 273.467 1070.86 273.873 1049.86 273.67Z" fill="#F2F4F7"/>
<path d="M1096.4 239.146C1096.57 226.943 1096.22 214.69 1096.31 202.436C1096.4 189.776 1096.4 177.116 1096.4 164.507C1096.4 152.202 1096.4 139.949 1096.31 127.645C1096.14 115.442 1096.65 101.358 1096.4 89.1559L1082.51 89.0542C1082.85 102.223 1082.25 115.442 1082.6 128.611C1082.43 132.221 1082.77 135.831 1082.68 139.441C1082.43 150.423 1082.6 161.456 1082.6 172.438C1082.6 193.284 1082.85 213.215 1082.68 235.027C1082.43 246.213 1082.94 257.348 1082.68 268.533L1082.77 275.906H1096.4C1096.65 263.703 1096.22 251.45 1096.4 239.146Z" fill="#F2F4F7"/>
<path d="M958.667 239.146C958.838 226.943 958.495 214.69 958.581 202.436C958.667 189.776 958.667 177.116 958.667 164.507C958.667 152.202 958.667 139.949 958.581 127.645C958.41 115.442 958.924 101.358 958.667 89.1559L944.782 89.0542C945.125 102.223 944.525 115.442 944.868 128.611C944.697 132.221 945.039 135.831 944.954 139.441C944.697 150.423 944.868 161.456 944.868 172.438C944.868 193.284 945.125 213.215 944.954 235.027C944.697 246.213 945.211 257.348 944.954 268.533L945.039 275.906H958.581C958.924 263.703 958.495 251.45 958.667 239.146Z" fill="#F2F4F7"/>
<path d="M872.703 186.676C890.273 186.778 907.757 186.574 925.327 186.625C943.496 186.676 961.666 186.676 979.75 186.676C997.405 186.676 1014.98 186.676 1032.63 186.625C1050.2 186.523 1070.34 186.828 1087.83 186.676L1088 178.439C1069.06 178.643 1050.2 178.287 1031.26 178.49C1026.12 178.388 1020.89 178.592 1015.75 178.541C999.976 178.388 984.207 178.49 968.351 178.49C938.44 178.49 909.9 178.643 878.531 178.541C862.504 178.388 846.477 178.693 830.45 178.541L819.823 178.592V186.676C837.392 186.778 855.048 186.523 872.703 186.676Z" fill="#F2F4F7"/>
<path d="M821.708 239.146C821.88 226.943 821.537 214.69 821.622 202.436C821.708 189.776 821.708 177.116 821.708 164.507C821.708 152.202 821.708 139.949 821.622 127.645C821.451 115.442 821.965 101.358 821.708 89.1559L807.824 89.0542C808.167 102.223 807.567 115.442 807.91 128.611C807.738 132.221 808.081 135.831 807.995 139.441C807.738 150.423 807.91 161.456 807.91 172.438C807.91 193.284 808.167 213.215 807.995 235.027C807.738 246.213 808.252 257.348 807.995 268.533L808.081 275.906H821.708C821.88 263.703 821.451 251.45 821.708 239.146Z" fill="#F2F4F7"/>
<path d="M1354.79 126.199C1332.95 125.934 1311.11 125.934 1289.27 126.199C1288.61 126.199 1288.08 126.728 1288.08 127.39C1289 155.857 1287.68 184.323 1288.08 212.79C1288.08 213.055 1288.21 213.32 1288.34 213.452C1288.34 213.452 1288.34 213.584 1288.47 213.584C1288.61 213.717 1288.87 213.849 1289.27 213.849C1311.37 213.982 1333.48 214.246 1355.59 213.452C1356.25 213.452 1356.78 212.922 1356.78 212.26C1357.57 183.926 1355.98 155.592 1355.98 127.258C1355.98 126.728 1355.45 126.199 1354.79 126.199Z" fill="#F2F4F7"/>
<path d="M338.505 231.386C339.163 231.386 339.727 230.875 339.727 230.279C340.666 200.647 338.881 170.93 338.881 141.299C338.881 140.702 338.318 140.192 337.66 140.192C313.514 139.936 289.461 139.936 265.315 140.192C264.657 140.192 264.094 140.702 264.094 141.299C265.127 171.101 263.624 200.903 264.094 230.705C264.094 231.046 264.188 231.301 264.376 231.471C264.563 231.727 264.845 231.812 265.315 231.897C289.743 231.982 314.171 232.238 338.505 231.386Z" fill="#F2F4F7"/>
<path d="M377.4 237.425C404 237.625 433.3 237.925 458.5 236.925C459.6 201.025 457.5 165.025 457.6 130.625C430.9 130.325 404.2 130.325 377.5 130.625C378.6 166.525 376.8 201.525 377.4 237.425Z" fill="white"/>
<path d="M377.4 238.825C404.4 239.025 431.4 239.325 458.5 238.325C459.3 238.325 459.9 237.725 459.9 236.925C460.9 201.525 458.9 166.025 459 130.625C459 129.825 458.4 129.225 457.6 129.225C430.9 128.925 404.2 128.925 377.5 129.225C376.7 129.225 376.1 129.925 376.1 130.625C377.2 166.225 375.6 201.825 376.1 237.425C376.1 239.325 379 239.325 378.9 237.425C378.4 201.825 380 166.225 378.9 130.625C378.4 131.125 378 131.625 377.5 132.025C404.2 131.725 430.9 131.725 457.6 132.025C457.1 131.525 456.7 131.025 456.2 130.625C456.2 166.025 458.2 201.525 457.1 236.925C457.6 236.425 458 235.925 458.5 235.525C431.5 236.525 404.5 236.225 377.4 236.025C375.6 235.925 375.6 238.825 377.4 238.825Z" fill="#F2F4F7"/>
<path d="M390.9 222.825C408.7 223.025 428.3 223.125 445.1 222.525C445.8 197.325 444.4 172.125 444.5 148.025C426.6 147.825 408.8 147.825 390.9 148.025C391.7 173.025 390.6 197.625 390.9 222.825Z" fill="#F2F4F7"/>
<path d="M426.7 162.325C426.4 161.925 426.1 161.625 425.6 161.625C425.6 161.525 425.5 161.425 425.4 161.325C425.1 161.325 425 161.325 424.8 161.525C424.2 162.225 423.8 163.125 423.3 163.925C422.6 164.925 422 166.025 422.4 167.225C422.4 167.325 422.5 167.325 422.6 167.325C424.3 167.325 425.8 166.125 426.5 164.625C426.8 164.025 427.2 163.025 426.7 162.325ZM426.3 164.125C426.1 164.525 425.9 164.925 425.6 165.225C425.1 165.925 424.4 166.525 423.5 166.825C422.7 167.025 422.7 166.025 422.9 165.525C423.1 165.025 423.4 164.625 423.6 164.225C423.8 163.925 424.4 162.625 424.9 162.025C424.9 162.125 425 162.125 425.1 162.125C426.6 161.725 426.5 163.425 426.3 164.125Z" fill="white"/>
<path d="M426.1 162.025C424.9 163.525 423.7 165.025 422.6 166.525C422.4 166.725 422.8 167.025 423 166.825C424.1 165.225 425.2 163.725 426.5 162.325C426.7 162.025 426.3 161.725 426.1 162.025Z" fill="white"/>
<path d="M426.6 163.125C425.8 164.825 424.4 166.025 422.6 166.425C422.3 166.525 422.4 166.925 422.7 166.825C424.6 166.325 426.2 165.025 427 163.225C427.1 163.025 426.7 162.925 426.6 163.125Z" fill="white"/>
<path d="M425.5 161.625C425.3 161.025 425.3 160.425 425.4 159.725C425.5 159.425 425 159.425 424.9 159.725C424.8 160.425 424.8 161.125 425.1 161.825C425.2 162.125 425.6 161.925 425.5 161.625Z" fill="white"/>
<path d="M426.7 159.425C426 159.825 425.7 160.625 425.9 161.425C426 161.725 426.4 161.625 426.3 161.325C426.1 160.725 426.3 160.125 426.8 159.825C427.1 159.725 426.9 159.325 426.7 159.425Z" fill="white"/>
<path d="M427.5 159.925C427.1 160.625 426.6 161.125 425.9 161.625C425.7 161.825 426 162.125 426.2 161.925C426.9 161.425 427.4 160.825 427.9 160.125C428 159.925 427.6 159.725 427.5 159.925Z" fill="white"/>
<path d="M428.6 161.025C428 161.525 427.2 161.725 426.4 161.725C426.1 161.725 426.1 162.125 426.4 162.225C427.3 162.325 428.2 162.025 428.9 161.425C429.2 161.225 428.9 160.825 428.6 161.025Z" fill="white"/>
<path d="M428.5 162.425C427.9 162.725 427.3 162.825 426.6 162.725C426.3 162.725 426.3 163.125 426.6 163.225C427.3 163.325 428.1 163.125 428.7 162.825C428.9 162.625 428.7 162.225 428.5 162.425Z" fill="white"/>
<path d="M428.5 163.025C428 163.425 427.4 163.625 426.7 163.425C426.4 163.325 426.3 163.725 426.5 163.825C427.3 164.125 428.1 163.925 428.7 163.325C429 163.125 428.7 162.825 428.5 163.025Z" fill="white"/>
<path d="M429.2 163.925C428.5 163.925 427.8 163.925 427.1 163.925C426.8 163.925 426.8 164.425 427.1 164.425C427.8 164.425 428.5 164.425 429.2 164.425C429.5 164.425 429.5 163.925 429.2 163.925Z" fill="white"/>
<path d="M425.1 161.125C422.6 162.125 421.5 164.825 422.4 167.325C422.5 167.625 422.9 167.425 422.8 167.125C421.9 164.825 423 162.425 425.3 161.525C425.6 161.425 425.4 161.025 425.1 161.125Z" fill="white"/>
<path d="M428 162.125C427.7 162.225 427.5 162.425 427.2 162.525C426.9 162.625 427.1 163.025 427.4 162.925C427.7 162.825 427.9 162.625 428.2 162.525C428.5 162.425 428.3 162.025 428 162.125Z" fill="white"/>
<path d="M416.8 160.325C416.3 160.425 415.9 160.625 415.7 161.025C415.6 160.925 415.5 161.025 415.4 161.125C415.3 161.325 415.2 161.525 415.3 161.725C415.7 162.525 416.3 163.325 416.8 164.125C417.5 165.125 418.1 166.225 419.4 166.325C419.5 166.325 419.6 166.225 419.6 166.225C420.4 164.625 419.9 162.825 418.8 161.525C418.4 160.925 417.6 160.125 416.8 160.325ZM418.2 161.525C418.5 161.825 418.7 162.225 418.9 162.625C419.3 163.425 419.5 164.325 419.4 165.225C419.3 166.025 418.3 165.525 417.9 165.125C417.6 164.725 417.3 164.325 417 163.925C416.8 163.625 415.9 162.425 415.6 161.725C415.7 161.725 415.7 161.625 415.8 161.525C416.2 160.125 417.7 160.925 418.2 161.525Z" fill="white"/>
<path d="M416.2 160.725C417 162.425 417.799 164.125 418.799 165.825C418.899 166.125 419.3 165.825 419.2 165.625C418.3 163.925 417.399 162.225 416.599 160.525C416.499 160.225 416.1 160.425 416.2 160.725Z" fill="white"/>
<path d="M417.5 160.825C418.7 162.225 419.1 164.025 418.7 165.825C418.6 166.125 419.1 166.225 419.1 165.925C419.5 163.925 419 162.025 417.7 160.425C417.6 160.225 417.3 160.525 417.5 160.825Z" fill="white"/>
<path d="M415.6 161.125C415 161.025 414.4 160.825 413.9 160.425C413.7 160.225 413.4 160.625 413.7 160.825C414.3 161.225 414.9 161.525 415.7 161.525C415.9 161.625 415.9 161.125 415.6 161.125Z" fill="white"/>
<path d="M414.2 159.125C414.3 159.925 414.9 160.625 415.7 160.725C416 160.725 416.1 160.325 415.8 160.325C415.2 160.225 414.7 159.825 414.7 159.125C414.6 158.825 414.2 158.825 414.2 159.125Z" fill="white"/>
<path d="M415 158.625C415.4 159.325 415.7 160.025 415.8 160.725C415.9 161.025 416.3 160.925 416.2 160.625C416.1 159.825 415.8 159.025 415.3 158.325C415.2 158.125 414.8 158.325 415 158.625Z" fill="white"/>
<path d="M416.5 158.025C416.7 158.825 416.6 159.625 416.1 160.225C415.9 160.425 416.3 160.725 416.5 160.425C417 159.625 417.1 158.725 416.9 157.825C416.9 157.625 416.4 157.725 416.5 158.025Z" fill="white"/>
<path d="M417.6 158.725C417.6 159.425 417.4 160.025 417.1 160.625C416.9 160.825 417.3 161.125 417.5 160.825C417.9 160.225 418.1 159.525 418.1 158.725C418.1 158.425 417.6 158.525 417.6 158.725Z" fill="white"/>
<path d="M418.2 159.025C418.4 159.625 418.2 160.325 417.8 160.825C417.6 161.025 417.9 161.325 418.1 161.125C418.7 160.525 418.9 159.725 418.6 158.925C418.5 158.625 418.1 158.725 418.2 159.025Z" fill="white"/>
<path d="M419.3 158.725C419 159.325 418.7 160.025 418.4 160.625C418.3 160.925 418.7 161.125 418.8 160.825C419.1 160.225 419.4 159.525 419.7 158.925C419.9 158.725 419.5 158.525 419.3 158.725Z" fill="white"/>
<path d="M415 161.225C414.8 163.925 416.7 166.025 419.4 166.325C419.7 166.325 419.7 165.925 419.4 165.825C417 165.625 415.3 163.625 415.5 161.225C415.5 160.925 415 160.925 415 161.225Z" fill="white"/>
<path d="M417.2 159.125C417.2 159.425 417.2 159.725 417.2 160.025C417.2 160.325 417.7 160.325 417.7 160.025C417.7 159.725 417.7 159.425 417.7 159.125C417.7 158.825 417.2 158.825 417.2 159.125Z" fill="white"/>
<path d="M411.1 164.825C410.7 165.125 410.4 165.525 410.4 165.925C410.3 165.925 410.2 166.025 410.2 166.125C410.2 166.425 410.2 166.525 410.4 166.725C411.1 167.325 412 167.725 412.8 168.225C413.9 168.825 414.9 169.525 416.1 169.025C416.2 169.025 416.2 168.925 416.2 168.825C416.2 167.125 414.9 165.725 413.4 165.025C412.7 164.725 411.7 164.425 411.1 164.825ZM412.9 165.325C413.3 165.425 413.7 165.725 414 165.925C414.7 166.425 415.3 167.125 415.6 168.025C415.9 168.825 414.8 168.825 414.3 168.625C413.8 168.425 413.4 168.125 413 167.925C412.7 167.725 411.3 167.125 410.8 166.625C410.9 166.625 410.9 166.525 410.9 166.425C410.4 165.025 412.1 165.025 412.9 165.325Z" fill="white"/>
<path d="M410.7 165.425C412.2 166.625 413.7 167.725 415.3 168.825C415.5 169.025 415.8 168.625 415.5 168.425C413.9 167.325 412.4 166.225 410.9 165.025C410.7 164.925 410.5 165.325 410.7 165.425Z" fill="white"/>
<path d="M411.9 165.025C413.6 165.725 414.8 167.125 415.3 168.925C415.4 169.225 415.8 169.125 415.7 168.825C415.2 166.925 413.8 165.325 412 164.625C411.8 164.425 411.6 164.925 411.9 165.025Z" fill="white"/>
<path d="M410.4 166.125C409.8 166.325 409.2 166.425 408.5 166.325C408.2 166.325 408.2 166.725 408.5 166.825C409.2 166.925 409.9 166.825 410.6 166.625C410.9 166.425 410.6 166.025 410.4 166.125Z" fill="white"/>
<path d="M408.2 165.025C408.6 165.725 409.5 166.025 410.2 165.725C410.5 165.625 410.4 165.225 410.1 165.325C409.5 165.525 408.9 165.325 408.6 164.825C408.5 164.525 408 164.725 408.2 165.025Z" fill="white"/>
<path d="M408.6 164.226C409.3 164.626 409.8 165.126 410.3 165.726C410.5 165.926 410.8 165.626 410.6 165.426C410.1 164.726 409.5 164.226 408.8 163.826C408.6 163.726 408.4 164.026 408.6 164.226Z" fill="white"/>
<path d="M409.7 163.025C410.2 163.625 410.5 164.425 410.4 165.225C410.4 165.525 410.8 165.525 410.9 165.225C411 164.325 410.7 163.425 410.1 162.725C409.9 162.425 409.5 162.725 409.7 163.025Z" fill="white"/>
<path d="M411.1 163.125C411.4 163.725 411.5 164.325 411.5 165.025C411.5 165.325 411.9 165.325 412 165.025C412.1 164.325 411.9 163.525 411.6 162.925C411.4 162.725 411 162.925 411.1 163.125Z" fill="white"/>
<path d="M411.7 163.125C412.2 163.625 412.3 164.225 412.1 164.925C412 165.225 412.4 165.325 412.5 165.025C412.7 164.225 412.5 163.425 412 162.825C411.8 162.525 411.5 162.925 411.7 163.125Z" fill="white"/>
<path d="M412.6 162.325C412.6 163.025 412.6 163.725 412.6 164.425C412.6 164.725 413.1 164.725 413.1 164.425C413.1 163.725 413.1 163.025 413.1 162.325C413.1 162.125 412.6 162.125 412.6 162.325Z" fill="white"/>
<path d="M409.9 166.525C411 169.025 413.6 170.025 416.1 169.025C416.4 168.925 416.2 168.525 415.9 168.625C413.6 169.525 411.2 168.525 410.3 166.325C410.1 166.025 409.7 166.225 409.9 166.525Z" fill="white"/>
<path d="M410.9 163.625C411 163.925 411.2 164.125 411.3 164.425C411.4 164.725 411.8 164.425 411.7 164.225C411.6 163.925 411.4 163.725 411.3 163.425C411.1 163.125 410.7 163.325 410.9 163.625Z" fill="white"/>
<path d="M419.4 165.925C419.2 165.725 418.9 166.025 419.1 166.225C420.6 168.425 421.5 170.925 421.8 173.625C421.8 173.925 422.3 173.825 422.2 173.525C421.9 170.825 420.9 168.225 419.4 165.925Z" fill="white"/>
<path d="M422.3 166.925C422.2 169.225 421.9 171.425 421.3 173.625C421.2 173.925 421.7 174.025 421.7 173.825C422.3 171.625 422.6 169.325 422.7 167.025C422.8 166.725 422.4 166.625 422.3 166.925Z" fill="white"/>
<path d="M429.3 172.125C426.9 173.625 424.1 173.925 421.4 172.925C421.1 172.825 421 173.225 421.2 173.325C423.9 174.325 427 174.025 429.4 172.525C429.7 172.325 429.5 171.925 429.3 172.125Z" fill="white"/>
<path d="M431.8 169.525C431.4 168.625 430.7 169.325 430.1 169.725C429.4 170.225 428.5 170.725 428.5 171.625C428.5 171.925 428.7 172.225 428.9 172.425C428.9 172.425 428.9 172.425 428.9 172.525C428.8 172.625 429 172.825 429.1 172.825C430.1 173.025 431.1 172.925 432.1 172.825C432.2 172.825 432.3 172.725 432.3 172.625C432.4 171.425 432.3 170.425 431.8 169.525ZM429.8 172.325C429.9 172.225 429.8 172.025 429.6 172.025C430 171.325 430.7 170.825 431.4 170.525C431.7 170.425 431.5 170.025 431.2 170.125C430.3 170.425 429.5 171.125 429.1 171.925C428.9 171.725 429 171.125 429.1 171.025C429.2 170.825 429.4 170.725 429.6 170.525C430 170.225 430.4 169.925 430.8 169.725C431.7 169.025 431.8 171.525 431.8 172.225C431.2 172.325 430.5 172.425 429.8 172.325Z" fill="white"/>
<path d="M431.5 170.925C431 171.225 430.4 171.425 429.8 171.525C429.5 171.525 429.6 172.025 429.9 171.925C430.5 171.825 431.1 171.625 431.7 171.325C431.9 171.125 431.7 170.725 431.5 170.925Z" fill="white"/>
<path d="M433 170.325C433.1 170.125 432.9 169.825 432.7 170.025H432.6C432.8 169.825 432.9 169.625 433 169.425C433.1 169.225 432.9 169.025 432.7 169.125C432.5 169.225 432.3 169.325 432.1 169.325L432.4 168.825C432.5 168.625 432.4 168.425 432.2 168.525C431.8 168.525 431.5 168.825 431.3 169.225C431.2 169.425 431.3 169.525 431.5 169.525C431.4 169.625 431.5 169.825 431.7 169.825C431.9 169.825 432.1 169.825 432.2 169.825C432.1 169.925 432 169.925 431.8 170.025C431.6 170.125 431.6 170.325 431.8 170.425C431.9 170.525 432 170.525 432.1 170.625C432.1 170.625 432 170.625 431.9 170.625C431.8 170.625 431.7 170.825 431.7 170.925C431.8 171.225 431.9 171.325 432.1 171.425C432 171.525 432 171.625 431.9 171.725C431.8 171.825 431.7 172.025 431.9 172.125C432 172.125 432 172.225 432 172.225C431.9 172.325 431.8 172.425 431.7 172.525C431.5 172.725 431.8 173.025 432 172.825C432.2 172.625 432.4 172.525 432.6 172.325C432.7 172.225 432.7 172.025 432.5 171.925H432.4C432.6 171.725 432.7 171.525 432.7 171.225C432.7 171.125 432.6 170.925 432.4 171.025H432.3C432.7 170.725 432.9 170.625 433 170.325Z" fill="white"/>
<path d="M421.9 173.325C419.2 173.125 416.9 171.325 416 168.725C415.9 168.425 415.5 168.525 415.6 168.825C416.5 171.625 419 173.525 421.9 173.825C422.1 173.825 422.2 173.325 421.9 173.325Z" fill="white"/>
<path d="M418.1 172.225C416.3 173.425 414 173.525 412.2 172.425C411.9 172.325 411.7 172.625 411.9 172.825C413.9 174.025 416.4 173.925 418.4 172.625C418.7 172.425 418.4 172.025 418.1 172.225Z" fill="white"/>
<path d="M412.5 171.925C412.2 170.725 409.8 171.125 409.1 171.625C408.7 172.025 408.6 172.525 408.8 173.025C409.1 173.725 409.9 173.825 410.5 173.725C411.1 173.725 411.9 173.425 412.3 172.925C412.5 172.725 412.5 172.425 412.4 172.225C412.7 172.125 412.7 172.025 412.5 171.925ZM412 172.225C412 172.325 411.9 172.425 411.8 172.425C411.2 172.625 410.4 172.325 409.8 172.125C410.2 171.725 411.3 172.025 412 172.225ZM410.6 173.325C410 173.425 409.1 173.125 409.3 172.325C409.3 172.225 409.4 172.125 409.4 172.025C409.4 172.125 409.4 172.125 409.3 172.225C409.3 172.325 409.3 172.425 409.4 172.525C409.8 172.725 410.9 173.025 411.7 172.925C411.3 173.125 410.7 173.325 410.6 173.325Z" fill="white"/>
<path d="M421.6 172.825C421.2 177.725 420.1 182.425 418.3 186.925C416.6 191.325 414.4 195.625 413.2 200.225C411.8 205.425 411 210.825 409.7 216.025C409.8 216.125 409.9 216.325 410 216.525C411.4 211.325 412.1 205.925 413.5 200.725C414.7 195.925 416.9 191.625 418.7 187.125C420.5 182.525 421.6 177.725 422 172.825C422 172.525 421.6 172.525 421.6 172.825Z" fill="white"/>
<path d="M427.9 195.425C426.3 196.525 424.6 197.225 422.8 197.825C421.3 198.325 419.7 198.525 418.1 199.025C415.1 199.825 413.5 202.125 412 204.725C411.9 205.025 412.2 205.225 412.4 205.025C413.2 203.725 413.9 202.425 415 201.325C416.3 200.025 417.9 199.525 419.7 199.125C422.8 198.425 425.6 197.525 428.3 195.825C428.5 195.525 428.2 195.225 427.9 195.425Z" fill="white"/>
<path d="M425.6 192.525C425.3 192.425 425.2 192.825 425.4 192.925C426.1 193.225 425.4 194.525 425.2 194.825C425 195.125 424.8 195.325 424.5 195.525C425 194.825 425.7 193.825 425.5 193.125C425.3 192.625 424.8 192.425 424.4 192.725C423.7 193.125 423.7 195.125 423.8 195.925C423.4 196.725 422.8 197.425 422.1 197.925C421.9 198.125 422.1 198.525 422.3 198.325C423.1 197.825 423.6 197.125 424.1 196.325C424.1 196.325 424.1 196.325 424.2 196.325C425.1 195.925 427.4 193.325 425.6 192.525ZM424.2 194.525C424.3 194.125 424.4 193.825 424.5 193.425C424.6 193.625 424.7 193.925 424.7 194.125C424.6 194.325 424.4 194.525 424.3 194.825C424.2 194.925 424.2 195.025 424.1 195.125C424.2 194.925 424.2 194.725 424.2 194.525Z" fill="white"/>
<path d="M430.7 194.925C430.6 194.625 430.4 194.525 430.2 194.425C430.2 194.325 430.2 194.225 430.3 194.125C430.3 193.925 430.1 193.825 430 193.925C428.7 194.425 427.6 195.325 426.9 196.625C426.8 196.725 426.9 196.925 427 196.925C428.1 197.325 429.4 197.125 430.3 196.225C430.5 195.925 430.9 195.325 430.7 194.925ZM429.5 194.525C429.5 194.625 429.5 194.625 429.6 194.725C429.3 195.325 428.7 195.625 428 195.625C428.5 195.225 429 194.825 429.5 194.525ZM430 195.725C429.9 195.825 429.8 195.925 429.6 196.025C429.4 196.225 429 196.425 428.7 196.525C428.2 196.725 427.7 196.625 427.3 196.525C427.4 196.325 427.5 196.225 427.6 196.125C428.6 196.325 429.5 195.825 429.9 194.925C430.2 195.225 430.2 195.525 430 195.725Z" fill="white"/>
<path d="M428.4 200.625C428.1 199.825 426.4 199.525 425.8 199.325C425.6 199.225 425.3 199.225 425.1 199.325C425 199.225 424.9 199.225 424.9 199.225C424.2 198.825 423.5 198.425 422.8 198.025C422.5 197.925 422.3 198.225 422.5 198.425C423.2 198.825 423.9 199.225 424.6 199.625C424.5 199.725 424.5 199.725 424.4 199.825C424.3 199.825 424.3 199.825 424.2 199.825C424.1 199.825 424.1 199.925 424 199.925L423.8 200.625C423.8 200.725 423.8 200.825 423.9 200.925C424.6 201.125 429.1 202.525 428.4 200.625ZM424.4 200.525C424.5 200.425 424.6 200.425 424.7 200.325C425 200.125 425.4 200.125 425.8 200.225C426.4 200.525 427 201.125 427.7 200.925C427.6 201.025 427.6 201.125 427.4 201.225C426.3 201.125 425.3 200.825 424.4 200.525Z" fill="white"/>
<path d="M413.8 197.925C411.7 195.925 411.8 192.925 411.3 190.225C411.1 189.025 410.7 187.925 410.3 186.725C410.1 186.125 409.8 185.525 409.5 184.925C409.1 184.125 408.3 183.325 408.3 182.425C408.3 182.125 407.8 182.125 407.8 182.425C407.8 183.625 408.7 184.525 409.2 185.525C410 187.025 410.5 188.625 410.8 190.325C411.3 193.125 411.2 196.125 413.4 198.225C413.6 198.425 414 198.225 413.8 197.925Z" fill="white"/>
<path d="M413.2 190.825C413.2 189.425 412.9 188.025 412.3 186.825C412 186.025 408.9 181.225 407.9 182.325C407.8 182.325 407.8 182.425 407.7 182.425C407.3 183.525 407.2 184.625 407.3 185.825C407.5 187.325 408.3 188.425 409.1 189.625C410.4 191.725 409.7 194.825 412.1 196.325C412.2 196.425 412.4 196.325 412.5 196.125C412.5 194.325 413.1 192.625 413.2 190.825ZM409.7 189.725C409.2 188.525 408.3 187.625 407.9 186.425C407.5 185.225 407.7 183.825 408.1 182.625C408.1 182.625 408.2 182.625 408.2 182.525C408.4 182.225 410.5 184.725 410.7 184.925C411.5 186.025 412.1 187.225 412.4 188.425C413.1 190.825 412.2 193.125 412 195.525C410.3 194.225 410.5 191.625 409.7 189.725Z" fill="white"/>
<path d="M411.3 186.225H411.1C410.8 186.225 410.8 186.625 411.1 186.725H411.3C411.5 186.725 411.6 186.225 411.3 186.225Z" fill="white"/>
<path d="M411.9 188.725C411.6 188.725 411.6 189.125 411.9 189.225C412.1 189.125 412.2 188.725 411.9 188.725Z" fill="white"/>
<path d="M409.5 187.425C409.2 187.425 409.2 187.825 409.5 187.925C409.8 187.925 409.8 187.525 409.5 187.425Z" fill="white"/>
<path d="M412.2 206.825C411.3 204.425 409 202.825 407.5 200.825C405.7 198.325 404.6 195.225 404.4 192.025C404.4 191.725 403.9 191.725 403.9 192.025C404.1 194.925 404.9 197.625 406.4 200.125C407.9 202.625 410.6 204.325 411.6 207.025C411.9 207.325 412.3 207.125 412.2 206.825Z" fill="white"/>
<path d="M408.8 200.725C407.5 199.125 407.2 197.225 407 195.225C406.8 193.625 406.7 191.925 406 190.425C405.7 189.825 404.5 188.125 403.6 188.625C402.5 189.125 402.3 191.425 402.2 192.525C402 194.225 402.2 196.025 402.8 197.525C403.9 200.325 405.9 202.525 408.5 203.825C408.4 203.925 408.5 204.125 408.7 204.225C409 204.225 409.2 204.325 409.5 204.325C409.6 204.325 409.7 204.325 409.7 204.225C410.3 202.925 409.6 201.725 408.8 200.725ZM409.2 203.625C403.8 201.225 401.2 195.025 403.3 189.525C403.9 187.925 405.3 190.125 405.5 190.525C405.8 191.125 405.9 191.725 406.1 192.425C406.4 193.725 406.4 195.025 406.6 196.425C406.8 197.625 407 198.725 407.6 199.825C407.8 200.225 408.1 200.625 408.4 201.025C408.8 201.525 410 203.225 409.2 203.625Z" fill="white"/>
<path d="M403.4 195.925V196.125C403.4 196.425 403.8 196.425 403.9 196.125V195.925C403.9 195.625 403.4 195.625 403.4 195.925Z" fill="white"/>
<path d="M405.1 198.825C404.8 198.825 404.8 199.225 405.1 199.325C405.4 199.225 405.4 198.825 405.1 198.825Z" fill="white"/>
<path d="M406.2 193.725C405.9 193.725 405.9 194.125 406.2 194.225C406.5 194.225 406.5 193.725 406.2 193.725Z" fill="white"/>
<path d="M404.7 190.025C404.4 190.025 404.4 190.425 404.7 190.525C405 190.625 405 190.025 404.7 190.025Z" fill="white"/>
<path d="M416.2 185.825C416.3 185.525 415.9 185.425 415.8 185.625C415 187.925 414.2 190.325 413.4 192.625C412.8 194.425 412.7 196.125 413.5 197.825C413.6 198.125 414 197.925 413.9 197.625C413 195.525 413.5 193.625 414.2 191.525C414.9 189.725 415.6 187.725 416.2 185.825Z" fill="white"/>
<path d="M416.7 179.525C416.6 179.325 416.4 179.325 416.3 179.525C414.9 183.625 413.8 187.825 413 192.125C412.9 192.425 413.4 192.425 413.5 192.125C414.2 188.025 415.3 184.025 416.6 180.125C417.8 182.125 418 184.425 417.3 186.625C416.6 188.725 415.1 190.625 413.7 192.325C413.5 192.525 413.9 192.825 414.1 192.625C415.7 190.625 417.3 188.625 418 186.125C418.5 183.825 418 181.425 416.7 179.525Z" fill="white"/>
<path d="M416.6 183.525C416.3 183.525 416.3 183.925 416.6 184.025C416.9 184.025 416.9 183.625 416.6 183.525Z" fill="white"/>
<path d="M416.9 186.125C416.6 186.125 416.6 186.525 416.9 186.625C417.1 186.625 417.2 186.225 416.9 186.125Z" fill="white"/>
<path d="M415.6 189.525C415.3 189.525 415.3 189.925 415.6 190.025C415.9 190.025 415.9 189.525 415.6 189.525Z" fill="white"/>
<path d="M431.7 177.525C430.3 180.325 427.7 182.325 425 183.725C423.5 184.525 422 185.125 420.5 185.725C419.6 186.125 418.4 186.325 418 187.325C417.9 187.625 418.3 187.725 418.4 187.525C418.7 186.825 419.7 186.625 420.3 186.325C421.1 186.025 421.8 185.725 422.6 185.425C424.1 184.825 425.6 184.125 427 183.225C429.2 181.925 431 180.025 432.2 177.725C432.2 177.325 431.8 177.225 431.7 177.525Z" fill="white"/>
<path d="M433.5 176.525C433.5 175.525 432.3 175.425 431.6 175.725C430.9 176.025 430.4 176.825 430 177.325C429.3 178.125 428.6 178.825 427.8 179.425C426.3 180.725 424.6 181.825 422.9 182.825C421.8 183.425 420.9 184.325 421 185.725C421 185.925 421.1 185.925 421.3 185.925C423 188.225 426.6 185.325 428.1 184.125C429.4 183.125 430.6 181.825 431.6 180.525C432.4 179.425 433.6 177.925 433.5 176.525ZM433 177.325C432.7 178.325 431.8 179.425 431.2 180.225C430.4 181.225 429.5 182.225 428.6 183.125C427.3 184.325 422.9 188.025 421.5 185.425C421.6 183.925 423.3 183.225 424.4 182.625C425.3 182.125 426.1 181.525 427 180.825C427.9 180.125 428.8 179.325 429.6 178.525C430 178.125 430.3 177.725 430.7 177.325C430.9 177.025 431.2 176.825 431.4 176.525C432 175.725 433.3 176.225 433 177.325Z" fill="white"/>
<path d="M425.2 182.625C424.9 182.625 424.9 183.025 425.2 183.125C425.4 183.125 425.4 182.725 425.2 182.625Z" fill="white"/>
<path d="M427.9 180.625C427.6 180.625 427.6 181.025 427.9 181.125C428.1 181.025 428.2 180.625 427.9 180.625Z" fill="white"/>
<path d="M427.2 183.225C426.9 183.225 426.9 183.625 427.2 183.725C427.5 183.725 427.5 183.325 427.2 183.225Z" fill="white"/>
<path d="M431.9 178.925C431.6 178.925 431.6 179.325 431.9 179.425C432.2 179.325 432.2 178.925 431.9 178.925Z" fill="white"/>
<path d="M1163.75 248.003C1194.65 248.274 1228.8 248.545 1258.07 247.461C1259.33 204.641 1256.89 161.911 1256.98 120.897C1225.91 120.536 1194.83 120.536 1163.75 120.897C1165.11 163.537 1163.12 205.273 1163.75 248.003Z" fill="white"/>
<path d="M1163.75 249.629C1195.19 249.9 1226.63 250.262 1258.07 249.087C1258.97 249.087 1259.6 248.364 1259.69 247.461C1260.87 205.273 1258.52 163.085 1258.61 120.897C1258.61 119.994 1257.89 119.361 1256.98 119.271C1225.91 118.91 1194.83 118.91 1163.75 119.271C1162.94 119.271 1162.13 119.994 1162.13 120.897C1163.48 163.266 1161.5 205.634 1162.13 248.003C1162.13 250.081 1165.38 250.081 1165.29 248.003C1164.66 205.634 1166.64 163.266 1165.29 120.897C1164.75 121.439 1164.21 121.981 1163.66 122.523C1194.74 122.162 1225.82 122.162 1256.89 122.523C1256.35 121.981 1255.81 121.439 1255.27 120.897C1255.18 163.085 1257.62 205.273 1256.35 247.461C1256.89 246.919 1257.43 246.377 1257.98 245.835C1226.54 247.009 1195.1 246.648 1163.66 246.377C1161.68 246.377 1161.68 249.539 1163.75 249.629Z" fill="#F2F4F7"/>
<path d="M1174.78 238.427C1198.44 238.608 1224.64 238.879 1247.14 237.976C1248.13 202.292 1246.23 166.699 1246.32 132.46C1222.47 132.099 1198.62 132.099 1174.87 132.46C1175.86 168.054 1174.23 202.834 1174.78 238.427Z" fill="#F2F4F7"/>
<path d="M1179.29 183.592C1180.74 180.972 1182.36 178.443 1184.26 176.094C1186.25 178.443 1187.87 181.062 1189.05 183.773C1185.8 183.682 1182.54 183.592 1179.29 183.592Z" fill="white"/>
<path d="M1191.85 183.592C1193.3 180.972 1194.92 178.443 1196.82 176.094C1198.81 178.443 1200.43 181.062 1201.61 183.773C1198.35 183.682 1195.1 183.592 1191.85 183.592Z" fill="white"/>
<path d="M1205.76 183.592C1207.21 180.972 1208.83 178.443 1210.73 176.094C1212.72 178.443 1214.34 181.062 1215.52 183.773C1212.27 183.682 1209.01 183.592 1205.76 183.592Z" fill="white"/>
<path d="M1205.76 183.592C1207.21 180.972 1208.83 178.443 1210.73 176.094C1212.72 178.443 1214.34 181.062 1215.52 183.773C1212.27 183.682 1209.01 183.592 1205.76 183.592Z" fill="white"/>
<path d="M1219.13 183.592C1220.58 180.972 1222.2 178.443 1224.1 176.094C1226.09 178.443 1227.71 181.062 1228.89 183.773C1225.64 183.682 1222.38 183.592 1219.13 183.592Z" fill="white"/>
<path d="M1232.59 183.592C1234.04 180.972 1235.66 178.443 1237.56 176.094C1239.55 178.443 1241.17 181.062 1242.35 183.773C1239.01 183.682 1235.75 183.592 1232.59 183.592Z" fill="white"/>
<path d="M1179.38 204.821C1180.83 202.202 1182.45 199.672 1184.35 197.323C1186.34 199.672 1187.97 202.292 1189.14 205.002C1185.89 204.912 1182.64 204.821 1179.38 204.821Z" fill="white"/>
<path d="M1180.11 227.044C1181.55 224.425 1183.18 221.895 1185.07 219.546C1187.06 221.895 1188.69 224.515 1189.86 227.225C1186.61 227.135 1183.36 227.044 1180.11 227.044Z" fill="white"/>
<path d="M1191.94 204.821C1193.39 202.202 1195.01 199.672 1196.91 197.323C1198.9 199.672 1200.52 202.292 1201.7 205.002C1198.44 204.912 1195.19 204.821 1191.94 204.821Z" fill="white"/>
<path d="M1192.39 227.587C1193.84 224.967 1195.46 222.438 1197.36 220.089C1199.35 222.438 1200.97 225.057 1202.15 227.768C1198.9 227.768 1195.64 227.677 1192.39 227.587Z" fill="white"/>
<path d="M1205.85 204.821C1207.3 202.202 1208.92 199.672 1210.82 197.323C1212.81 199.672 1214.43 202.292 1215.61 205.002C1212.36 204.912 1209.1 204.821 1205.85 204.821Z" fill="white"/>
<path d="M1205.31 227.587C1206.76 224.967 1208.38 222.438 1210.28 220.089C1212.27 222.438 1213.89 225.057 1215.07 227.768C1211.81 227.768 1208.56 227.677 1205.31 227.587Z" fill="white"/>
<path d="M1221.48 227.044C1222.93 224.425 1224.55 221.895 1226.45 219.546C1228.44 221.895 1230.06 224.515 1231.24 227.225C1227.99 227.135 1224.73 227.044 1221.48 227.044Z" fill="white"/>
<path d="M1234.04 227.044C1235.48 224.425 1237.11 221.895 1239.01 219.546C1240.99 221.895 1242.62 224.515 1243.79 227.225C1240.45 227.135 1237.2 227.044 1234.04 227.044Z" fill="white"/>
<path d="M1219.22 204.821C1220.67 202.202 1222.29 199.672 1224.19 197.323C1226.18 199.672 1227.8 202.292 1228.98 205.002C1225.73 204.912 1222.47 204.821 1219.22 204.821Z" fill="white"/>
<path d="M1232.68 204.821C1234.13 202.202 1235.75 199.672 1237.65 197.323C1239.64 199.672 1241.26 202.292 1242.44 205.002C1239.19 204.912 1235.93 204.821 1232.68 204.821Z" fill="white"/>
<path d="M1185.62 217.469C1187.06 214.849 1188.69 212.319 1190.58 209.971C1192.57 212.319 1194.2 214.939 1195.37 217.649C1192.12 217.559 1188.87 217.559 1185.62 217.469Z" fill="white"/>
<path d="M1198.17 217.469C1199.62 214.849 1201.24 212.319 1203.14 209.971C1205.13 212.319 1206.76 214.939 1207.93 217.649C1204.68 217.559 1201.43 217.559 1198.17 217.469Z" fill="white"/>
<path d="M1212.09 217.469C1213.53 214.849 1215.16 212.319 1217.05 209.971C1219.04 212.319 1220.67 214.939 1221.84 217.649C1218.5 217.559 1215.34 217.559 1212.09 217.469Z" fill="white"/>
<path d="M1225.46 217.469C1226.9 214.849 1228.53 212.319 1230.42 209.971C1232.41 212.319 1234.04 214.939 1235.21 217.649C1231.96 217.559 1228.71 217.559 1225.46 217.469Z" fill="white"/>
<path d="M1246.14 215.301C1246.14 214.578 1246.05 213.765 1246.05 213.042C1245.33 211.958 1244.61 210.964 1243.79 209.971C1241.99 212.319 1240.27 214.849 1238.83 217.469C1241.17 217.559 1243.61 217.559 1245.96 217.649C1246.14 216.836 1246.14 216.023 1246.14 215.301Z" fill="white"/>
<path d="M1186.52 194.884C1187.96 192.264 1189.59 189.735 1191.49 187.386C1193.48 189.735 1195.1 192.355 1196.28 195.065C1193.02 194.975 1189.77 194.884 1186.52 194.884Z" fill="white"/>
<path d="M1198.99 194.884C1200.43 192.264 1202.06 189.735 1203.96 187.386C1205.94 189.735 1207.57 192.355 1208.74 195.065C1205.49 194.975 1202.24 194.884 1198.99 194.884Z" fill="white"/>
<path d="M1212.9 194.884C1214.34 192.264 1215.97 189.735 1217.87 187.386C1219.85 189.735 1221.48 192.355 1222.65 195.065C1219.4 194.975 1216.15 194.884 1212.9 194.884Z" fill="white"/>
<path d="M1226.36 194.884C1227.8 192.264 1229.43 189.735 1231.33 187.386C1233.31 189.735 1234.94 192.355 1236.12 195.065C1232.86 194.975 1229.61 194.884 1226.36 194.884Z" fill="white"/>
<path d="M1245.96 189.464C1245.96 189.283 1245.96 189.102 1245.96 188.922C1245.6 188.379 1245.15 187.837 1244.7 187.295C1242.89 189.644 1241.17 192.174 1239.73 194.793C1241.81 194.884 1243.79 194.884 1245.87 194.974C1245.96 193.167 1245.87 191.27 1245.96 189.464Z" fill="white"/>
<path d="M1175.77 189.554C1175.77 189.374 1175.77 189.193 1175.77 189.012C1176.13 188.47 1176.58 187.928 1177.03 187.386C1178.84 189.735 1180.56 192.264 1182 194.884C1179.93 194.975 1177.94 194.975 1175.86 195.065C1175.77 193.168 1175.86 191.361 1175.77 189.554Z" fill="white"/>
<path d="M1176.76 212.139C1176.76 211.958 1176.76 211.777 1176.67 211.597C1177.03 211.055 1177.4 210.422 1177.76 209.88C1179.83 212.048 1181.73 214.307 1183.45 216.746C1181.46 217.017 1179.38 217.288 1177.4 217.559C1177.21 215.843 1177.03 213.946 1176.76 212.139Z" fill="white"/>
<path d="M1366.87 737.796C1365.89 737.796 1365.23 737.14 1365.56 736.157C1365.89 724.684 1365.23 712.884 1364.91 701.412C1364.58 697.806 1364.58 694.201 1364.58 690.595C1363.92 673.878 1363.92 657.162 1364.25 640.445C1364.25 639.789 1364.91 639.134 1365.56 639.134C1366.22 639.134 1366.87 639.789 1366.87 640.773C1366.54 657.162 1366.54 674.206 1367.2 690.595C1367.2 694.201 1367.53 697.806 1367.53 701.412C1368.18 712.884 1368.51 724.684 1368.18 736.157C1368.51 737.14 1367.86 737.796 1366.87 737.796Z" fill="#F2F4F7"/>
<path d="M1354.42 733.208C1353.76 733.208 1353.11 732.552 1353.11 731.897L1348.19 680.107C1347.86 675.846 1347.53 671.585 1346.22 667.324C1345.89 666.668 1346.55 665.685 1347.21 665.357C1347.86 665.029 1348.84 665.685 1349.17 666.341C1350.48 670.602 1350.81 675.191 1351.14 679.452L1356.06 731.241C1356.06 732.224 1355.4 732.88 1354.42 733.208Z" fill="#F2F4F7"/>
<path d="M1357.37 730.257C1356.71 730.257 1356.06 729.929 1356.06 728.946C1355.73 728.29 1356.06 727.307 1356.06 726.979C1357.04 715.179 1360.32 702.395 1366.54 687.973C1370.15 679.451 1374.74 670.929 1379 662.734C1380.97 659.128 1382.61 655.851 1384.57 652.245C1384.9 651.59 1385.88 651.262 1386.54 651.59C1387.19 651.917 1387.52 652.901 1387.19 653.556C1385.56 657.162 1383.59 660.767 1381.62 664.045C1377.36 672.24 1373.1 680.762 1369.17 689.284C1362.94 703.379 1359.66 715.834 1358.68 727.307C1358.68 727.635 1358.68 728.29 1358.68 728.618C1359.01 729.273 1358.68 729.929 1357.37 730.257C1357.69 730.257 1357.69 730.257 1357.37 730.257Z" fill="#F2F4F7"/>
<path d="M1367.53 729.602C1367.2 729.602 1367.2 729.602 1366.87 729.602C1366.22 729.275 1365.89 728.619 1365.89 727.636C1370.81 714.197 1378.67 702.724 1387.85 689.941C1389.16 687.974 1390.8 686.008 1392.44 684.041C1395.72 680.435 1399.65 677.485 1403.91 674.535C1405.22 673.552 1407.19 672.241 1409.16 671.585C1409.81 671.258 1410.8 671.585 1411.12 672.569C1411.45 673.224 1411.12 674.208 1410.14 674.535C1408.5 675.191 1406.86 676.174 1405.55 677.158C1401.29 680.108 1397.68 683.058 1394.73 686.335C1393.1 688.302 1391.78 690.269 1390.47 691.908C1381.62 704.363 1373.76 715.836 1368.84 728.947C1368.84 729.275 1368.18 729.602 1367.53 729.602Z" fill="#F2F4F7"/>
<path d="M1369.5 730.585C1368.84 730.585 1368.18 729.93 1368.18 729.274C1367.86 712.885 1367.86 696.496 1368.51 680.107C1368.51 679.451 1369.17 678.796 1370.15 678.796C1370.81 678.796 1371.46 679.451 1371.46 680.435C1370.81 696.496 1370.81 713.213 1371.13 729.274C1370.81 729.93 1370.15 730.585 1369.5 730.585Z" fill="#F2F4F7"/>
<path d="M1345.57 733.207C1344.91 733.207 1344.26 732.551 1344.26 731.896C1344.26 728.946 1343.6 725.996 1342.62 722.718C1339.67 711.245 1335.41 696.495 1328.52 682.729C1321.64 668.962 1312.79 657.817 1302.63 650.278C1301.97 649.951 1301.97 648.967 1302.3 648.312C1302.96 647.656 1303.61 647.656 1304.27 647.984C1315.08 656.178 1323.93 667.323 1331.14 681.417C1338.03 695.184 1342.29 710.262 1345.24 722.062C1346.22 725.668 1346.88 728.618 1346.88 732.223C1346.88 732.551 1346.22 733.207 1345.57 733.207Z" fill="#F2F4F7"/>
<path d="M1353.76 731.896C1353.11 731.896 1352.45 731.568 1352.45 730.913C1351.47 728.291 1350.81 725.996 1350.16 723.374C1346.22 710.59 1341.96 697.479 1334.75 686.335L1334.42 686.007C1332.13 682.729 1329.83 679.123 1327.21 676.501C1323.93 673.551 1320 671.585 1316.07 669.946C1315.41 669.618 1315.08 668.635 1315.41 667.979C1315.74 667.323 1316.72 666.996 1317.38 667.323C1321.31 669.29 1325.57 671.257 1329.18 674.535C1332.46 677.157 1335.08 681.09 1337.04 684.696L1337.37 685.024C1344.91 696.496 1349.17 709.935 1353.11 722.718C1353.76 725.34 1354.74 727.635 1355.4 730.257C1355.73 730.913 1355.07 731.896 1354.42 732.224C1354.09 731.896 1353.76 731.896 1353.76 731.896Z" fill="#F2F4F7"/>
<path d="M1350.48 642.412C1346.88 639.79 1342.29 639.79 1338.03 640.445C1334.75 640.773 1330.49 640.773 1327.54 643.068C1326.23 644.051 1325.9 646.018 1327.21 647.001C1330.16 649.295 1333.11 650.934 1335.41 653.884C1338.68 657.818 1341.31 662.407 1343.6 666.995C1344.26 668.634 1345.57 670.273 1347.21 669.945C1348.19 669.618 1348.85 668.634 1349.5 667.979C1351.8 664.045 1354.09 659.784 1354.75 655.195C1355.73 650.279 1354.42 645.362 1350.48 642.412Z" fill="#F2F4F7"/>
<path d="M1324.92 642.084C1325.9 641.101 1327.54 640.773 1328.85 640.445C1333.11 639.462 1337.7 638.806 1342.29 639.134C1344.91 639.134 1347.53 639.79 1348.85 641.756C1346.88 640.773 1344.58 641.756 1342.95 642.74C1339.01 644.706 1335.41 647.656 1333.44 651.59C1331.47 655.851 1331.8 660.768 1330.82 665.357C1328.52 661.423 1326.23 657.162 1324.59 652.901C1323.93 651.262 1323.28 649.623 1323.28 647.656C1322.95 645.034 1323.61 643.395 1324.92 642.084Z" fill="#F2F4F7"/>
<path d="M1379.33 626.023C1379.33 625.04 1379.66 624.057 1379 623.401C1378.67 622.746 1377.69 622.418 1377.03 622.418C1370.15 620.451 1362.61 620.779 1355.73 622.418C1354.42 622.746 1352.78 623.401 1351.47 624.057C1351.14 624.057 1351.14 624.385 1350.81 624.385C1350.81 624.712 1350.81 625.04 1351.14 625.368C1353.76 630.612 1357.37 635.529 1361.63 639.79C1362.28 640.774 1363.27 641.429 1364.58 641.757C1366.87 642.412 1369.17 640.446 1371.13 638.807C1374.41 635.529 1378.35 631.268 1379.33 626.023Z" fill="#F2F4F7"/>
<path d="M1369.49 620.123C1365.56 619.795 1361.3 620.123 1357.37 621.106C1356.06 621.434 1350.16 623.073 1350.48 625.04C1350.48 625.695 1352.45 626.679 1352.78 627.006C1354.09 627.99 1355.07 629.301 1356.38 630.284C1358.68 632.906 1360.97 635.529 1362.61 638.479C1365.56 632.251 1371.46 627.334 1378.34 625.695C1378.67 625.695 1379.33 625.367 1379.66 625.04C1379.66 624.712 1379.66 624.384 1379.33 624.056C1377.03 621.106 1373.1 620.123 1369.49 620.123Z" fill="#F2F4F7"/>
<path d="M1286.89 678.468C1286.57 679.451 1286.89 680.762 1287.88 680.762C1288.21 680.762 1288.53 680.434 1288.86 680.434C1293.78 676.829 1298.04 672.24 1303.61 670.273C1310.82 667.651 1319.35 669.945 1325.57 674.207C1326.56 674.862 1327.87 675.845 1329.18 675.518C1325.57 670.929 1320.33 667.979 1314.43 666.668C1308.86 665.684 1302.63 666.34 1297.38 668.306C1292.47 670.273 1287.88 673.551 1286.89 678.468Z" fill="#F2F4F7"/>
<path d="M1288.21 674.535C1289.84 671.585 1292.47 669.618 1295.42 667.98C1301.97 664.702 1309.84 664.374 1316.72 666.996C1310.82 666.341 1304.92 667.98 1300.01 671.257C1298.37 672.568 1296.73 674.207 1295.42 675.846C1291.81 679.78 1288.53 684.369 1287.22 689.613C1286.24 684.696 1285.58 679.124 1288.21 674.535Z" fill="#F2F4F7"/>
<path d="M1374.41 670.273C1367.86 668.307 1360.65 669.618 1355.4 673.879C1355.07 674.207 1355.07 674.207 1354.75 674.535C1354.75 674.862 1354.75 674.862 1354.75 675.19C1355.4 676.829 1356.71 678.14 1357.7 679.451C1361.63 684.04 1363.92 689.94 1367.2 694.857C1367.86 695.84 1368.51 696.824 1369.82 696.824C1370.81 696.824 1371.79 695.84 1372.12 694.857C1375.4 688.957 1378.35 683.057 1380.31 676.829C1380.64 676.173 1380.64 675.518 1380.64 675.19C1380.64 674.535 1379.99 674.207 1379.66 673.551C1378.67 671.912 1376.38 670.929 1374.41 670.273Z" fill="#F2F4F7"/>
<path d="M1386.54 647C1387.2 646.344 1387.85 645.689 1388.83 645.361C1391.46 644.05 1394.73 643.722 1397.68 644.05C1398.01 644.05 1398.01 644.05 1398.01 644.05C1398.34 644.378 1398.01 644.705 1398.01 645.033C1397.36 645.689 1396.7 646.344 1395.72 646.672C1391.13 649.294 1387.52 653.228 1383.92 657.161C1383.92 654.211 1384.25 651.261 1385.56 648.311C1385.88 647.983 1386.21 647.655 1386.54 647Z" fill="#F2F4F7"/>
<path d="M1396.7 643.395C1403.58 643.068 1411.12 646.345 1414.4 652.573C1416.7 656.834 1416.7 661.751 1416.37 666.34C1413.75 659.457 1407.19 654.868 1400.63 650.934C1398.67 649.623 1396.7 648.312 1394.41 647.984C1390.47 647.001 1386.21 648.968 1383.92 652.246C1383.92 649.623 1385.88 647.001 1388.18 645.362C1391.13 644.051 1394.08 643.723 1396.7 643.395Z" fill="#F2F4F7"/>
<path d="M1437.67 668.962C1434.07 667.651 1430.13 666.667 1426.2 666.995C1423.25 667.323 1420.3 668.306 1417.35 669.289C1413.09 670.928 1408.83 672.24 1404.9 673.878C1409.16 670.273 1413.75 667.978 1418.66 665.684C1421.28 664.373 1423.91 663.389 1426.53 662.734C1433.08 661.423 1439.97 663.062 1445.87 666.339C1449.8 668.634 1453.08 671.584 1455.05 675.517C1449.47 673.223 1443.57 670.928 1437.67 668.962Z" fill="#F2F4F7"/>
<path d="M1437.02 668.306C1432.1 666.012 1426.53 666.012 1421.28 667.323C1416.04 668.634 1411.45 671.256 1406.53 673.879C1408.17 674.206 1409.81 674.206 1411.45 673.879C1419.97 672.24 1428.17 668.306 1437.02 668.306Z" fill="#F2F4F7"/>
<path d="M1274.44 643.724C1280.01 639.79 1287.55 638.151 1294.43 640.118C1301.32 642.085 1306.89 647.329 1308.86 654.213C1299.35 646.018 1286.57 642.085 1274.44 643.724Z" fill="#F2F4F7"/>
<path d="M1274.11 644.379C1275.75 643.068 1277.72 642.085 1279.68 641.429C1281.98 640.774 1284.27 640.774 1286.24 640.446C1290.83 640.118 1295.74 640.118 1299.68 642.413C1296.4 640.118 1292.47 639.463 1288.53 639.135C1282.63 638.479 1276.73 638.151 1271.49 640.774C1264.93 644.051 1261.33 651.918 1261 659.457C1263.95 653.557 1268.54 648.313 1274.11 644.379Z" fill="#F2F4F7"/>
<path d="M1333.77 789.914C1333.77 788.603 1333.77 787.292 1333.44 786.637C1332.78 782.048 1331.8 777.786 1331.15 773.198C1327.87 757.792 1323.61 743.37 1321.97 727.636C1321.64 725.014 1354.75 724.358 1357.37 724.358C1365.56 724.03 1374.08 723.703 1382.28 723.703C1389.49 723.703 1400.64 719.114 1399.32 729.931C1396.37 752.22 1392.44 774.181 1387.52 796.142C1385.23 807.287 1363.92 802.37 1355.07 802.698C1350.16 802.698 1339.01 805.32 1335.73 800.403C1334.1 797.781 1333.77 793.52 1333.77 789.914Z" fill="#F2F4F7"/>
</svg>
