<svg width="423" height="248" viewBox="0 0 423 248" fill="none" xmlns="http://www.w3.org/2000/svg">
<path d="M320.993 151.035C323.551 150.445 326.7 148.871 326.306 146.313C326.11 145.132 325.126 144.345 324.142 143.754C320.403 141.196 315.68 140.409 311.154 139.819C299.15 138.244 287.146 137.26 274.945 136.867C252.905 136.08 230.865 137.064 209.022 139.819C203.119 140.606 191.115 142.377 194.46 151.035C197.609 159.3 209.416 160.678 216.697 161.268C246.608 163.433 276.52 158.513 306.234 153.79C311.154 153.003 316.073 152.216 320.993 151.035Z" fill="#F2F4F7"/>
<path d="M182.653 153.594C157.268 154.578 132.079 155.562 106.694 156.546C94.2964 156.939 81.7021 157.529 69.3047 157.923C57.8911 158.317 45.2968 157.333 33.8833 159.301C29.9476 159.891 27.783 161.268 26.2087 165.007C25.028 167.566 22.0762 177.798 27.3894 177.798C42.7386 183.112 59.4654 180.553 75.6018 178.979C108.465 175.83 141.722 176.224 174.388 172.092C178.324 171.698 182.259 171.108 185.802 169.14C189.344 167.172 192.099 163.827 192.099 159.891C192.099 158.12 191.508 156.349 190.131 154.971C188.163 153.594 185.211 153.594 182.653 153.594Z" fill="#F2F4F7"/>
<path d="M413.089 202.986C407.382 199.838 400.888 198.263 394.394 196.886C380.816 194.131 366.844 193.147 352.872 192.36C332.604 191.179 312.335 190.589 291.869 190.392C275.733 190.195 255.857 188.818 246.608 203.97C242.673 210.267 243.263 219.123 248.97 224.239C253.693 228.372 260.777 229.552 267.271 230.536C281.636 232.504 295.805 234.472 310.17 236.44C328.471 238.998 346.969 241.556 365.467 240.375C383.964 239.392 402.659 234.275 416.631 223.452C418.795 221.878 420.763 219.91 421.747 217.548C423.912 211.842 418.795 206.135 413.089 202.986Z" fill="#F2F4F7"/>
<path d="M223.979 206.137C226.34 206.727 228.898 207.317 231.456 207.317C232.047 207.317 232.44 207.317 233.031 206.924C233.424 206.53 233.818 206.137 234.015 205.546C238.147 196.101 242.476 186.655 246.609 177.209C237.754 176.028 229.095 173.864 220.83 170.912C220.043 170.715 219.256 170.322 218.665 170.518C217.091 170.715 216.304 172.29 215.714 173.667C213.942 177.8 211.975 181.932 210.204 186.065C208.826 189.41 205.481 194.329 205.481 197.872C205.481 201.02 209.023 201.807 211.384 202.398C215.32 203.972 219.649 205.153 223.979 206.137Z" fill="#03A678"/>
<path d="M160.416 174.257C161.597 173.667 162.778 173.077 164.155 172.88C165.533 172.683 166.91 172.88 168.288 173.273C176.356 175.438 183.834 180.358 192.099 181.735C193.673 181.932 195.641 182.326 196.231 183.9C196.625 184.884 196.231 186.065 195.838 187.048C193.87 191.968 191.902 196.888 189.737 201.807C175.372 198.265 160.416 197.281 146.838 191.968C142.902 190.394 133.457 185.474 140.934 181.735C147.035 178.783 153.922 177.209 160.416 174.257Z" fill="#F2F4F7"/>
<path d="M248.577 218.14C245.231 218.534 241.886 218.927 238.737 218.14C237.557 217.943 236.179 217.156 236.179 215.975C236.179 214.992 237.163 214.401 238.147 213.811C239.525 213.22 241.099 212.63 242.476 212.04C246.806 210.466 251.135 209.088 255.464 207.514C257.432 206.923 259.597 206.333 261.171 207.514C263.729 209.482 265.303 215.188 261.761 216.959C260.581 217.55 258.416 217.156 257.038 217.353C254.283 217.353 251.528 217.943 248.577 218.14Z" fill="#231717"/>
<path d="M71.2732 47.7241C83.6706 45.1659 97.2488 45.953 108.269 52.4469C128.734 64.4508 134.048 91.804 151.168 108.334C158.843 115.615 168.485 120.731 175.963 128.209C183.441 135.884 188.164 147.888 182.85 156.94C178.128 165.205 167.698 167.763 158.252 168.55C141.329 169.928 123.815 168.157 107.088 171.699C100.988 173.076 95.281 175.044 89.1806 176.028C72.4539 178.783 55.7271 173.47 39.7875 168.157C36.6389 167.173 33.4904 165.992 31.5225 163.434C29.9482 161.269 17.5508 135.49 17.1572 132.932C14.4022 110.499 23.8479 110.302 28.1772 87.8683C29.7515 79.8001 31.9161 66.4187 38.2132 60.5151C45.2975 53.8244 61.8275 49.6919 71.2732 47.7241Z" fill="#ABBCC4"/>
<path d="M142.313 141.788C141.526 137.852 137.787 135.294 134.048 133.916C133.064 133.523 132.08 133.326 131.096 132.932C134.442 132.145 137.787 129.981 140.148 128.209C140.935 127.619 140.148 126.438 139.361 127.029C137.59 128.209 135.819 129.39 133.654 129.981C131.687 130.571 129.719 130.768 127.948 131.555C127.751 131.752 127.554 131.948 127.357 132.145C125.783 131.752 124.209 131.358 122.634 130.571C117.321 128.209 113.189 123.683 107.875 121.519C105.908 120.732 103.546 120.141 101.775 118.961C98.4298 116.599 97.2491 112.27 95.2812 108.531C90.9519 100.463 81.3095 95.3463 72.2573 96.3302L66.3538 92.001C60.0567 98.1013 55.5306 105.973 53.366 114.435C53.366 114.631 53.1692 114.828 53.1692 115.025C51.9885 114.041 51.0045 112.86 49.8238 111.876C49.4302 111.68 49.0367 112.073 49.2335 112.467C50.611 113.647 51.9885 115.025 52.7756 116.599C52.5788 117.78 52.5788 119.157 52.5788 120.338C50.4142 118.37 47.856 116.796 45.2978 115.222C44.7074 114.828 44.117 115.812 44.7074 116.206C47.856 118.173 50.8078 120.535 53.366 123.29C53.5627 123.683 53.7595 124.274 53.9563 124.667C55.137 126.438 56.9081 127.816 57.892 129.587C58.2856 130.374 58.4824 131.161 58.6792 131.948C53.366 129.784 47.856 128.8 42.1492 128.997C41.3621 128.997 41.3621 130.177 42.1492 130.177C47.856 130.374 53.5627 131.948 58.6792 134.507C58.4824 137.655 57.3017 141.001 57.892 143.952C55.3338 145.133 52.7756 146.314 50.0206 146.904C49.627 147.101 49.8238 147.494 50.2174 147.494C52.9724 147.101 55.7274 146.314 58.4824 145.33C58.6792 145.92 59.0727 146.511 59.4663 147.101C60.647 148.478 62.4181 149.069 63.9924 149.462C67.1409 150.446 70.2895 151.233 73.4381 151.824C72.4541 153.988 71.0766 155.956 69.3056 157.727C68.7152 158.318 69.5024 159.105 70.0927 158.514C72.2574 156.743 73.8316 154.579 75.0123 152.217C82.2934 153.398 89.968 153.595 97.2491 152.808C98.4298 152.611 99.6105 152.414 100.988 152.414C101.578 153.398 102.169 154.382 102.759 155.563C103.153 156.35 104.137 155.563 103.743 154.972C103.349 154.185 102.759 153.201 102.366 152.217C104.53 152.02 106.498 151.627 108.663 151.627C112.205 154.185 116.337 156.153 120.273 157.53C121.06 157.924 121.454 156.547 120.667 156.153C117.518 154.972 114.96 153.398 112.205 151.43C116.337 151.627 120.47 152.611 124.405 153.201C128.538 153.792 132.867 153.595 136.606 151.627C140.542 150.053 143.297 145.723 142.313 141.788Z" fill="#282828"/>
<path d="M182.85 40.6401C181.866 40.0498 180.489 40.2466 179.505 40.8369C178.521 41.4273 177.734 42.4112 176.947 43.3951C176.553 43.9855 175.766 44.9694 174.979 46.1501C174.979 45.363 174.782 44.7726 174.585 43.9855C174.389 43.1984 173.995 42.2144 173.208 42.4112C172.421 42.608 172.421 43.7887 172.618 44.5759C173.011 45.9533 173.208 47.1341 173.601 48.5116C171.437 52.2505 167.501 55.399 164.156 57.9573C165.533 59.7283 167.108 61.1058 169.075 62.0897C169.272 62.2865 169.469 62.2865 169.863 62.2865C170.256 62.2865 170.65 62.0897 170.846 61.6962C173.601 59.3348 176.16 56.5798 178.324 53.628L178.521 53.4312C180.095 51.6601 181.473 49.6923 182.85 47.7244C183.638 46.5437 184.425 45.363 184.621 43.9855C184.621 42.8048 184.031 41.2305 182.85 40.6401Z" fill="#CAAE7A"/>
<path d="M105.12 109.121C107.285 109.121 109.646 109.712 111.024 111.483C111.221 111.68 111.221 111.876 111.221 112.073C111.221 112.663 110.433 113.057 109.843 113.057C106.104 113.647 102.168 114.041 98.4295 114.631C97.4456 114.828 96.4617 114.828 95.4777 114.631C92.3292 113.844 93.5099 111.089 95.4777 109.909C97.4456 108.531 102.759 109.121 105.12 109.121Z" fill="#CAAE7A"/>
<path d="M166.714 60.318C166.714 60.1212 166.714 60.1212 166.714 59.9244C166.517 59.9244 166.124 59.9244 165.927 60.1212C164.156 60.5147 162.975 59.5308 162.582 58.1533C154.12 63.2697 144.477 66.0247 134.638 66.0247C129.325 66.0247 122.437 63.073 117.518 64.4505C110.827 66.2215 109.45 73.6994 109.646 79.4061C109.646 81.374 110.04 83.7354 112.008 84.5225C112.992 84.9161 114.369 84.7193 115.55 84.5225C121.847 83.145 128.144 81.5708 134.638 80.1933C139.951 79.0126 145.461 77.6351 150.381 75.4704C157.465 72.5186 163.762 67.7958 169.666 62.6794C168.092 62.4826 166.911 61.6955 166.714 60.318Z" fill="#DDDDDD"/>
<path d="M90.7548 39.4589C89.1805 30.8003 89.5741 20.3707 96.4616 15.0575C97.8391 14.0736 99.4134 13.0896 101.184 12.6961C106.301 11.5153 111.417 14.8607 113.975 19.3868C116.534 23.9128 116.73 29.226 116.337 34.3424C116.14 37.8846 115.55 41.6235 114.566 45.1656C113.582 49.1013 112.008 53.4306 108.662 55.792C98.2327 63.4667 92.1323 46.5431 90.7548 39.4589Z" fill="#CAAE7A"/>
<path d="M93.7065 60.908C89.7708 59.924 86.0319 57.5626 81.8994 57.3658C76.3894 57.169 71.4698 61.4983 69.3051 66.6147C67.1405 71.7312 66.9437 77.4379 66.7469 82.9479C66.5501 92.7872 66.7469 104.004 73.6344 111.088C77.7669 115.221 83.4737 117.189 88.1965 120.534C89.574 121.518 91.1483 122.699 92.9194 122.895C94.1001 123.092 95.4776 122.502 96.4615 122.108C100.988 120.337 105.317 118.172 109.646 115.811C111.024 115.024 112.401 114.237 113.385 112.859C114.172 111.679 114.566 110.104 114.959 108.53C117.124 98.2972 119.485 87.8676 121.65 77.6347C126.373 54.8076 107.088 64.0565 93.7065 60.908Z" fill="#E8E8E8"/>
<path d="M137.787 150.643C139.164 150.643 140.935 150.053 140.935 148.872C140.935 148.085 140.345 147.298 139.558 146.904C136.015 143.953 116.731 127.62 114.959 138.639C113.976 145.921 132.473 150.447 137.787 150.643Z" fill="#56514C"/>
<path d="M65.566 143.362C65.1724 143.558 64.7789 143.755 64.3853 143.952C63.0078 145.133 63.795 147.494 65.1725 148.281C66.55 149.265 68.5178 149.265 70.0921 149.068C74.0278 148.675 99.0195 142.181 89.7706 136.081C86.6221 133.916 83.8671 136.474 80.7185 137.655C75.6021 139.82 70.4857 141.197 65.566 143.362Z" fill="#56514C"/>
<path d="M104.53 116.993C106.301 115.025 108.269 113.057 110.63 111.876C112.992 110.696 115.944 110.302 118.699 110.105C123.421 109.515 128.144 109.121 133.064 108.531C138.574 107.941 145.068 107.744 148.61 112.073C149.594 113.254 150.184 114.828 149.987 116.402C149.594 118.961 147.036 120.535 144.871 121.912C139.558 125.061 134.245 128.209 128.538 130.768C123.618 132.932 118.502 134.507 113.385 136.278C108.269 138.049 93.1165 145.92 88.1968 141.394C82.0965 135.687 100.398 121.322 104.53 116.993Z" fill="#333333"/>
<path d="M57.4982 120.141C55.7271 117.976 53.956 114.827 55.3335 112.269C55.9239 111.285 56.9078 110.498 57.8917 109.908C61.4339 108.137 65.7631 108.53 69.5021 109.711C73.241 110.892 76.7831 113.056 80.522 114.434C89.9677 118.173 97.2488 118.96 105.12 125.651C108.662 128.602 126.373 135.883 120.273 141.197C118.895 142.574 116.731 142.968 114.959 143.164C94.6906 146.51 70.6828 135.293 57.4982 120.141Z" fill="#333333"/>
<path d="M85.6388 113.253C85.8356 112.073 86.6227 109.908 86.0324 108.727C85.6388 107.94 85.6388 107.153 85.8356 106.366C81.7031 105.776 77.7674 104.988 73.8317 104.005C72.651 103.808 71.4703 103.414 70.6831 102.43C69.3056 100.856 69.896 98.4946 70.4863 96.5267C73.4381 85.9003 77.177 75.4707 81.5063 65.2378C81.8999 64.0571 82.4902 62.8764 82.2935 61.6957C82.0967 60.1214 81.1127 58.9407 79.7353 58.3503C77.3738 57.1696 74.6188 57.76 72.4542 59.1375C66.1571 63.0732 61.631 73.5028 59.6631 80.5871C57.4985 88.0649 54.7435 99.6753 58.2856 106.956C61.0406 112.663 67.9281 114.631 73.8317 115.418C77.5706 116.008 81.3095 116.205 85.2452 116.402C85.2452 115.221 85.442 114.237 85.6388 113.253Z" fill="#DDDDDD"/>
<path d="M125.586 10.1381C125.586 9.94129 125.389 9.54772 125.389 9.35094C125.389 9.15415 125.192 9.15415 125.192 8.95737C124.995 8.76058 124.995 8.5638 124.995 8.36701C124.602 7.77665 124.405 7.38308 123.815 6.98951C123.815 6.98951 123.815 6.98951 123.618 6.98951C123.224 6.59594 122.634 6.20237 122.044 5.8088C120.273 4.82488 117.911 5.02166 115.943 5.41523C112.401 6.20237 109.449 8.36701 105.907 9.54772C101.972 10.7284 98.2326 12.1059 94.2969 13.2866C90.3612 14.6641 85.6384 16.632 84.8512 21.1581C84.6545 22.9291 85.048 24.897 85.6384 26.668C88.1966 35.5234 90.7548 44.3787 93.313 53.2341C93.9034 55.0051 95.0841 57.3666 96.8551 56.5794C98.6262 55.9891 98.2326 53.2341 97.4455 51.463C95.8712 47.5273 92.9194 42.8044 92.1323 38.4752C91.5419 35.3266 93.313 31.7845 95.6744 36.1137C96.2648 33.7523 96.6584 31.3909 97.0519 28.8327C97.2487 28.0455 97.4455 27.2584 97.8391 26.8648C98.2326 26.4713 99.0198 26.2745 99.6101 26.0777C105.514 25.0938 111.811 27.2584 117.124 24.5034C117.714 24.3066 118.108 23.9131 118.698 23.5195C119.879 23.1259 121.06 22.5356 122.044 21.5516C123.815 19.7806 124.799 17.4191 125.192 15.0577C125.389 14.2706 125.389 13.2866 125.389 12.4995C125.389 12.3027 125.389 12.3027 125.586 12.1059C125.783 11.3188 125.783 10.7284 125.586 10.1381Z" fill="#444045"/>
<path d="M94.4936 112.467C95.4775 113.254 96.855 113.254 98.2325 113.254C116.14 112.861 134.047 112.27 151.758 111.877C154.12 111.877 156.678 111.68 158.646 110.499C160.417 109.515 161.597 107.941 162.778 106.367C168.682 98.4955 173.995 90.2305 178.718 81.572C179.111 80.7848 179.505 79.8009 179.111 79.2105C178.718 78.4234 177.734 78.4234 176.947 78.2266C164.943 77.4395 153.136 77.0459 141.132 77.0459C139.557 77.0459 137.983 77.0459 136.606 77.833C135.228 78.6202 134.244 79.9977 133.457 81.3752C128.144 90.2305 123.618 99.4794 119.879 109.122C114.369 108.532 108.662 108.335 103.152 108.728C102.168 108.925 89.9675 109.122 94.4936 112.467Z" fill="#3C444C"/>
<path d="M170.256 61.6961C170.453 61.8929 170.65 62.0897 170.65 62.4832C170.65 62.68 170.453 62.8768 170.453 62.8768C170.059 63.4671 169.469 64.0575 169.076 64.6479C168.879 64.8446 168.879 64.8447 168.682 65.0414C168.485 65.0414 168.288 65.0414 168.092 65.0414C166.517 64.4511 158.252 60.3186 160.811 57.9572C163.172 55.9893 168.682 60.1218 170.256 61.6961Z" fill="#DDDDDD"/>
<path d="M109.45 113.254C110.237 113.254 111.024 113.057 111.615 112.663C113.189 111.68 113.189 109.121 111.811 108.137C111.418 107.941 111.024 107.744 110.631 107.744C109.647 107.744 108.663 108.728 107.679 108.137C108.466 106.76 109.056 105.186 109.45 103.611C108.269 103.415 106.695 103.218 105.908 104.202C105.317 104.792 105.121 105.776 104.53 106.563C103.546 107.941 101.579 108.137 99.8074 108.531C96.8557 109.121 94.8878 112.073 98.0364 113.844C100.398 115.025 106.695 113.647 109.45 113.254Z" fill="#CAAE7A"/>
<path d="M89.1807 115.025C90.755 115.221 93.3132 114.828 94.8875 114.828C96.8553 114.828 99.4135 114.631 101.381 114.041C101.381 114.041 101.381 114.041 101.578 114.041C101.578 114.041 101.578 114.041 101.578 113.844C101.775 112.86 101.775 111.876 101.775 110.892C101.775 109.908 101.578 108.924 101.381 108.137C96.4618 108.728 91.5421 108.728 86.8193 108.728H86.6225C86.4257 108.728 86.4257 108.924 86.4257 109.121C86.2289 109.908 86.0321 110.695 85.8353 111.483C85.6386 112.073 84.0643 114.238 84.8514 114.631C85.245 114.828 85.4418 114.631 85.8353 114.828C86.4257 114.828 87.0161 114.828 87.6064 115.025C87.8032 114.828 88.5903 115.025 89.1807 115.025Z" fill="#CAAE7A"/>
<path d="M87.4097 105.972C86.229 106.366 84.6547 105.185 83.474 105.776C82.6868 106.169 82.2933 107.153 82.0965 107.94C81.5061 110.498 81.3093 113.253 81.3093 115.812C81.3093 116.205 81.3093 116.796 81.7029 116.992C81.8997 117.189 82.2933 117.189 82.6868 117.189C83.6708 117.189 84.4579 117.189 85.4418 117.189C85.8354 117.189 86.229 117.189 86.6225 116.992C86.8193 116.796 87.0161 116.402 87.0161 116.008C87.6065 112.86 87.8032 109.908 88 106.759L87.4097 105.972Z" fill="#DDDDDD"/>
<path d="M153.333 94.9524C153.333 93.7717 153.333 92.3942 153.136 91.2135C152.743 89.4424 151.365 91.0167 150.578 91.607C149.201 92.9845 148.217 94.9524 146.642 96.1331C146.249 96.1331 146.249 96.3299 146.052 96.7234C146.052 96.7234 146.052 96.7234 146.052 96.9202C146.052 97.117 146.249 97.3138 146.446 97.3138C147.823 97.3138 149.201 97.117 150.381 97.3138C150.972 97.3138 152.152 97.9042 152.743 97.3138C153.727 96.7234 153.333 95.5427 153.333 94.9524ZM151.759 96.3299C150.381 96.1331 149.004 95.9363 147.429 95.9363C148.02 95.346 148.807 94.7556 149.201 94.1652C149.594 93.5749 149.988 93.1813 150.578 92.591C150.775 92.1974 151.168 92.0006 151.365 91.8038C151.562 91.607 151.759 91.2135 151.956 91.4102C152.349 91.8038 152.152 93.5749 152.152 93.9685C152.152 94.362 152.152 94.7556 152.152 95.3459C152.546 96.3299 152.743 96.5267 151.759 96.3299Z" fill="white"/>
<path d="M99.61 74.2896C100.2 75.2736 100.791 76.0607 100.987 77.0446C103.349 72.7153 102.562 67.4021 104.726 62.8761C104.726 62.6793 104.923 62.4825 104.923 62.2857C104.923 61.8922 104.136 61.6954 103.742 61.6954C101.578 61.6954 99.61 61.4986 97.4453 61.6954C95.2807 61.6954 95.6742 62.8761 96.2646 64.6471C97.4453 67.7957 98.0357 71.3379 99.61 74.2896Z" fill="#CAAE7A"/>
<path d="M97.2491 67.7963C97.2491 67.9931 97.2491 68.1899 97.0523 68.1899C96.8555 68.3867 96.6587 68.1899 96.4619 68.1899C94.2973 67.7963 92.723 65.6317 91.5423 63.6638C91.1487 62.8767 90.5584 61.8928 90.7552 61.1056C90.7552 60.7121 90.9519 60.3185 91.3455 60.1217C91.5423 59.9249 91.9359 59.9249 92.3294 60.1217C93.9037 60.3185 97.0523 61.1056 98.0362 62.4831C99.0201 63.6638 97.4458 66.2221 97.2491 67.7963Z" fill="#DDDDDD"/>
<path d="M102.365 63.27C102.365 63.0732 102.365 62.8764 102.365 62.6796C102.562 62.4828 102.759 62.2861 102.956 62.2861C104.333 61.6957 105.711 61.1054 107.285 60.7118C107.875 60.515 108.662 60.515 109.253 60.9086C109.646 61.3021 109.843 61.8925 109.843 62.4829C109.843 63.6636 109.253 64.6475 108.466 65.4346C107.678 66.2218 106.695 66.8121 105.711 67.4025C104.53 68.1896 103.94 68.9768 103.152 67.5993C102.365 66.4186 102.562 64.4507 102.365 63.27Z" fill="#DDDDDD"/>
<path d="M194.067 118.567C196.231 113.844 200.954 110.695 204.3 106.563C212.368 97.314 214.139 84.3262 220.829 74.0934C227.52 64.0573 238.147 57.5634 247.002 49.4952C252.118 44.7724 256.644 39.4592 260.58 33.5556C263.925 28.636 267.074 22.9292 272.387 20.371C275.733 18.7967 279.472 18.5999 283.21 18.4031C288.917 18.0096 295.018 17.8128 299.937 20.9613C302.495 22.5356 304.66 25.0938 306.234 27.8488C313.712 39.6559 314.696 54.2181 319.025 67.4027C321.584 75.4709 325.519 82.9487 327.881 91.0169C331.226 102.234 331.62 114.238 328.865 125.651C328.274 127.816 327.684 130.177 326.503 131.948C324.732 134.9 321.78 136.868 318.829 138.836C309.186 145.33 299.15 152.02 287.736 153.988C278.291 155.562 268.648 153.988 259.006 154.185C247.789 154.185 236.769 156.546 225.552 156.546C216.107 156.35 202.332 153.988 196.428 145.526C192.099 139.426 191.115 124.864 194.067 118.567Z" fill="#ABBCC4"/>
<path d="M300.724 105.382C294.427 104.792 288.13 105.382 282.226 107.744C281.833 107.547 281.636 107.35 281.242 107.35C279.865 106.76 278.684 105.972 277.7 104.989C276.716 104.005 276.323 102.824 275.929 101.643C281.636 91.6072 289.507 83.539 299.937 78.2258C300.527 78.029 299.937 77.2418 299.543 77.4386C289.901 82.1615 281.046 89.8361 275.339 99.2818C275.339 99.085 275.142 98.6914 275.142 98.4946C278.487 89.4425 282.226 80.9807 287.539 72.9126C287.736 72.519 287.146 72.1254 286.949 72.519C281.636 79.4065 276.913 87.2779 273.961 95.5429C273.371 94.3622 272.781 93.1814 271.993 92.1975C270.419 90.0329 268.255 88.065 265.696 88.065C264.122 88.065 262.745 88.8522 261.564 89.6393C261.367 88.2618 260.973 86.8843 260.383 85.7036C259.99 84.9165 259.006 85.5068 259.202 86.294C259.793 87.6714 260.186 89.0489 260.383 90.6232C259.793 91.2136 259.006 91.8039 258.415 92.3943C258.022 89.2457 257.038 86.2939 255.463 83.539C255.07 82.9486 254.283 83.539 254.676 84.1293C256.447 87.2779 256.841 90.4264 257.235 93.7718C256.447 94.5589 255.66 95.3461 255.07 96.1332C253.299 88.4586 249.757 81.1775 246.411 74.0933C246.215 73.5029 245.427 74.0933 245.624 74.4868C248.97 81.9647 252.118 89.4425 253.692 97.5107C252.118 99.085 250.347 100.462 248.379 101.446C246.411 102.43 244.05 103.021 242.082 104.005C241.492 104.201 240.901 104.595 240.311 104.989C236.179 103.414 232.243 101.053 229.291 97.5107C229.094 97.3139 228.701 97.7075 228.897 97.9043C231.652 101.25 234.801 104.398 238.737 106.169C238.146 106.956 237.556 107.744 237.162 108.531C236.966 108.924 236.966 109.121 236.966 109.515C232.046 109.515 227.323 108.924 222.404 107.744C222.207 107.744 222.01 108.137 222.207 108.137C226.733 110.105 231.849 111.089 236.769 111.089C236.966 114.828 242.082 113.844 245.034 113.45C245.231 113.45 245.427 113.45 245.624 113.45C241.098 116.009 237.556 119.747 235.195 124.274C234.998 124.864 235.785 125.257 235.982 124.667C238.934 119.157 243.853 115.221 249.56 113.254C253.692 113.45 257.628 114.434 261.564 115.025C263.335 115.418 264.909 115.615 266.68 115.812C268.255 118.567 269.042 121.715 268.648 125.061C268.648 125.454 269.238 125.651 269.435 125.257C270.026 122.109 269.632 118.96 268.451 116.205C272.19 116.599 275.732 116.796 279.471 116.992C282.226 119.747 284.588 122.699 286.359 126.438C286.556 127.029 287.736 126.635 287.343 126.045C286.162 122.896 284.391 119.944 282.226 117.189C283.013 117.189 283.801 117.189 284.588 117.189C285.965 117.189 287.539 117.189 288.72 116.599C290.098 116.009 291.082 114.434 290.491 113.057C290.098 111.876 288.917 111.286 287.736 110.695C286.752 110.302 285.768 109.711 284.981 109.318C290.098 107.547 295.411 106.563 301.118 106.956C301.511 106.956 301.511 105.579 300.724 105.382Z" fill="#566E8C"/>
<path d="M252.906 36.705C252.709 35.9178 252.709 35.1307 252.315 34.3435C251.922 33.1628 251.134 31.9821 250.347 30.9982C249.954 30.4078 249.363 29.8175 248.773 29.2271C248.183 28.8335 247.199 28.6368 246.608 28.8335L245.821 29.6207C245.428 31.195 246.018 32.7693 246.608 34.1468C247.199 35.5242 247.789 37.0985 247.789 38.6728C247.986 38.2792 248.38 37.8857 248.576 37.4921C249.954 39.8535 252.709 41.231 255.464 41.0342C254.283 39.46 253.299 38.2792 252.906 36.705Z" fill="#333333"/>
<path d="M275.733 37.6886C274.946 37.4918 274.355 37.295 273.765 36.9014C272.978 39.2629 271.207 41.2307 268.845 42.2147C270.026 40.8372 269.829 38.8693 270.223 37.0982C270.42 36.1143 271.01 35.3272 271.403 34.3432C271.797 33.5561 272.387 32.5722 272.781 31.785C272.978 31.1947 273.371 30.8011 273.765 30.2107C273.962 29.8172 274.355 29.03 274.749 28.8332C275.733 28.4397 274.946 30.6043 274.946 30.9979C274.355 33.3593 274.749 35.7207 275.733 37.6886Z" fill="#333333"/>
<path d="M273.371 20.9614C273.371 14.4675 267.861 9.35107 260.777 9.35107C253.889 9.35107 248.183 14.4675 248.183 20.9614C248.183 21.9453 248.379 23.126 248.576 24.11C248.576 24.3068 248.576 24.7003 248.576 24.8971C248.576 27.2585 248.576 29.62 249.167 31.7846C249.954 36.3107 252.315 40.4432 256.644 42.8046C258.022 43.5917 259.793 44.3789 261.564 44.1821C263.925 44.1821 266.09 43.0014 267.664 41.4271C272.978 36.5074 273.568 29.0296 273.174 22.1421C273.174 21.9453 273.371 21.5518 273.371 20.9614Z" fill="#D1AC9D"/>
<path d="M276.716 17.4195C276.716 15.8452 277.7 14.4677 278.291 12.8934C278.881 11.3191 278.684 9.35129 277.11 8.76093C276.52 8.56415 275.929 8.76093 275.339 8.76093C273.174 8.76093 271.403 6.98987 270.222 5.2188C268.845 3.44773 267.467 1.67666 265.303 1.08631C263.728 0.692735 261.761 1.08631 260.186 0.692736C259.596 0.49595 259.006 0.102379 258.218 0.102379C256.447 -0.291191 254.676 0.49595 253.299 1.67666C251.921 2.85737 250.544 4.03809 248.97 4.82523C247.789 5.41558 246.608 5.61237 245.427 6.20272C244.247 6.79308 243.066 7.38344 242.672 8.56415C242.279 9.74486 242.476 10.9256 242.279 12.3031C242.082 13.6806 241.295 15.0581 240.901 16.4356C240.311 17.8131 240.114 19.3873 240.705 20.7648C241.098 21.552 241.885 22.1423 242.476 22.9295C244.05 25.4877 242.279 29.4234 244.444 31.3912C245.034 31.9816 246.018 32.1784 246.805 32.7687C248.379 33.5559 249.953 35.3269 251.134 36.7044C250.15 33.7527 249.757 30.2105 249.166 27.062C248.97 25.6845 248.773 24.307 249.166 22.9295C249.56 21.7488 250.15 20.7648 251.528 20.7648C251.921 20.7648 252.315 20.7648 252.708 20.5681C253.889 20.1745 253.299 18.4034 253.692 17.2227C254.086 16.042 255.66 15.6484 256.841 15.8452C258.218 15.8452 259.596 16.2388 260.777 15.4516C261.761 14.6645 261.761 13.8774 263.138 14.0741C265.106 14.2709 268.648 15.6484 269.238 17.6163C269.435 18.4034 269.632 19.1906 270.222 19.5841C270.616 19.7809 271.206 19.7809 271.6 20.1745C271.993 20.5681 272.19 21.1584 272.19 21.7488C272.781 27.062 272.19 32.1784 271.01 37.4916C273.765 35.327 273.961 31.3912 275.732 28.4395C276.323 27.4555 277.11 26.6684 277.7 25.4877C278.291 24.1102 278.487 22.5359 278.094 21.1584C277.503 19.9777 276.716 18.797 276.716 17.4195Z" fill="#333333"/>
<path d="M233.817 91.2147C235.982 81.1786 233.227 72.3233 235.391 62.484C236.375 57.7612 241.098 51.6609 245.231 49.2994C246.805 48.5123 253.496 47.3316 255.267 47.1348C260.58 46.3476 266.287 46.3476 271.6 47.1348C274.748 47.7251 277.897 48.5123 280.652 50.2834C284.981 53.4319 287.146 58.7451 288.72 63.6648C293.64 79.2108 296.395 95.3472 295.608 111.68C295.411 116.403 294.624 121.52 290.885 124.471C288.917 126.046 286.162 126.636 283.801 127.226C269.829 129.981 255.267 129.588 241.492 125.849C238.146 124.865 229.094 122.7 228.897 118.174C228.897 115.616 231.062 112.468 231.849 110.303C232.833 107.351 233.817 104.399 234.604 101.251C235.391 97.9054 233.03 94.7568 233.817 91.2147Z" fill="#161616"/>
<path d="M244.837 67.7964C245.231 66.0253 245.821 64.451 246.215 62.6799C246.608 60.5153 246.608 58.1539 246.215 55.7925C246.018 54.8085 245.821 53.8246 245.231 53.0375C244.444 51.66 242.869 51.0696 241.492 50.2825C240.508 49.6921 239.131 49.2985 238.147 49.6921C237.556 49.8889 237.163 50.4793 236.769 51.0696C234.605 54.8085 235.195 59.5314 234.998 63.8607C234.998 65.4349 234.801 66.8124 234.408 68.3867C237.753 67.5996 241.295 67.206 244.837 67.7964Z" fill="#070707"/>
<path d="M224.174 146.313C222.797 146.313 221.026 145.723 221.026 144.542C221.026 143.755 221.616 142.968 222.403 142.574C225.946 139.623 245.23 123.289 247.002 134.309C247.985 141.787 229.488 146.313 224.174 146.313Z" fill="#56514C"/>
<path d="M296.395 139.229C296.788 139.426 297.182 139.623 297.575 139.82C298.953 141 298.166 143.362 296.788 144.149C295.411 145.133 293.443 145.133 291.868 144.936C287.933 144.543 262.941 138.049 272.19 131.948C275.338 129.784 278.093 132.342 281.242 133.523C286.162 135.687 291.475 137.065 296.395 139.229Z" fill="#56514C"/>
<path d="M257.431 112.663C255.66 110.695 253.692 108.727 251.331 107.547C248.97 106.366 246.018 105.972 243.263 105.776C238.54 105.185 233.817 104.792 228.898 104.201C223.388 103.611 216.894 103.414 213.351 107.743C212.368 108.924 211.777 110.498 211.974 112.073C212.368 114.631 214.926 116.205 217.09 117.583C222.404 120.731 227.717 123.88 233.424 126.438C238.343 128.603 243.46 130.177 248.576 131.948C253.692 133.719 268.845 141.591 273.765 137.064C279.865 131.358 261.564 117.189 257.431 112.663Z" fill="#2A2F38"/>
<path d="M304.463 115.811C306.235 113.647 308.006 110.498 306.628 107.94C306.038 106.956 305.054 106.169 304.07 105.579C300.528 103.808 296.198 104.201 292.46 105.382C288.721 106.563 285.178 108.727 281.44 110.105C271.994 113.844 264.713 114.631 256.841 121.321C253.299 124.273 235.589 131.554 241.689 136.867C243.066 138.245 245.231 138.639 247.002 138.835C267.271 142.181 291.279 131.161 304.463 115.811Z" fill="#2A2F38"/>
<path d="M273.567 91.411C276.912 87.8689 280.651 84.13 281.045 79.2103C281.242 77.636 281.045 76.0618 280.848 74.4875C280.258 69.7646 279.471 64.845 278.29 60.3189C277.896 58.7446 277.306 56.9736 277.306 55.2025C277.306 53.4314 277.7 51.6604 278.88 50.4797C280.848 48.315 284.587 48.7086 286.949 50.6764C289.31 52.4475 290.491 55.3993 291.278 58.1543C292.655 62.4836 293.442 67.2064 292.852 71.7325C292.655 73.7003 292.065 75.6682 291.278 77.636C288.129 86.2946 282.226 94.166 273.961 98.1017C272.977 98.6921 271.599 99.0856 270.615 98.6921C269.238 98.1017 267.86 96.1339 269.041 94.9532C270.419 93.5757 272.19 92.7885 273.567 91.411Z" fill="#070707"/>
<path d="M264.516 70.945C263.532 68.19 262.941 65.2382 262.548 62.2864C262.351 60.7122 262.154 59.3347 261.957 57.7604C261.957 57.3668 261.957 56.5797 261.957 55.9893C262.154 55.7925 262.351 55.5957 262.548 55.399C263.138 54.2183 263.728 53.2343 264.319 52.0536C264.516 51.8568 264.516 51.4633 264.516 51.2665C264.319 51.0697 263.925 50.8729 263.728 51.0697C262.548 51.0697 259.793 50.4793 259.006 51.4633C258.218 52.4472 259.596 54.2183 260.186 55.2022C260.383 55.399 260.58 55.7925 260.973 55.9893C259.202 60.909 257.825 66.0254 256.251 70.945C255.857 72.1257 255.463 73.3064 255.66 74.4871C255.857 75.4711 256.251 76.2582 256.644 77.0453C257.628 78.8164 258.612 80.7843 259.793 82.5553C260.777 79.8003 262.351 77.2421 264.122 75.0775C264.516 74.4871 265.106 73.8968 265.303 73.3064C265.106 72.7161 264.712 71.7321 264.516 70.945Z" fill="white"/>
<path d="M278.29 65.0411C278.29 65.0411 278.29 64.8443 278.29 65.0411C278.093 64.8443 277.897 64.6475 277.897 64.6475C277.7 64.4507 277.306 64.4507 277.11 64.2539C277.11 64.2539 276.913 64.2539 276.913 64.0571C261.564 65.2378 247.001 65.4346 231.259 65.8282H231.062C230.865 66.025 230.668 66.2218 230.471 66.4186L230.275 66.6153C230.275 66.8121 230.275 67.0089 230.275 67.0089C230.668 70.551 231.062 80.3903 231.062 81.7678C231.455 87.2778 231.259 92.9846 231.849 98.2978C232.243 101.053 232.833 102.824 235.391 102.824C238.146 102.824 240.901 102.627 243.656 102.43C254.873 101.84 267.27 103.021 278.29 101.84C279.865 90.8199 278.684 76.2578 278.094 64.8443C278.29 65.2378 278.29 65.2378 278.29 65.0411Z" fill="#3C444C"/>
<path d="M259.399 86.6877C257.825 84.1295 257.235 80.9809 255.07 78.6195C254.873 78.4227 254.283 78.4227 254.086 78.8163C252.708 81.3745 251.528 83.9327 250.544 86.4909C249.757 86.6877 249.953 88.0652 250.741 88.0652C253.299 88.0652 256.054 87.8684 258.612 87.6716C259.399 87.6716 259.793 87.0813 259.399 86.6877ZM251.528 86.4909C252.512 84.3263 253.692 82.3584 254.676 80.1938C255.857 81.9648 256.447 84.3263 257.431 86.2941C255.66 86.4909 253.692 86.4909 251.528 86.4909Z" fill="white"/>
<path d="M249.756 104.792C250.544 105.186 251.331 105.383 252.315 105.383C253.495 105.579 254.873 105.776 255.857 105.186C257.038 104.399 257.628 102.824 258.415 101.84C258.809 101.25 259.399 100.857 259.793 100.266C260.383 99.2822 260.383 97.9048 259.596 96.9208C258.809 95.9369 257.628 95.5433 256.447 95.7401C255.66 95.9369 255.07 96.3305 254.283 96.724C252.511 97.9048 250.74 99.0855 248.969 100.266C248.576 100.66 247.985 100.857 247.789 101.447C247.395 102.628 248.773 104.202 249.756 104.792Z" fill="#D1AC9D"/>
<path d="M299.346 152.807C299.15 152.611 299.15 152.611 299.346 152.807C299.15 152.807 298.954 152.807 299.346 152.807C299.15 153.004 299.15 152.807 299.346 152.807C299.346 152.807 299.15 153.004 299.346 152.807Z" fill="#9E9E9E"/>
<path d="M399.314 102.628C398.134 100.661 396.953 98.6927 394.788 97.7088C393.017 96.7249 391.049 96.7249 389.081 96.9217C384.359 97.1185 379.833 98.496 375.503 100.661C374.519 108.335 372.748 116.01 370.387 123.488C368.222 130.178 365.467 136.869 362.515 143.363C361.728 146.118 361.138 148.873 359.957 151.431C358.383 155.564 356.612 159.696 354.644 163.632C350.905 171.503 344.018 178.391 335.556 180.752C330.636 182.13 324.733 181.933 319.813 180.162C316.664 178.981 313.713 177.407 310.761 176.029C309.974 175.833 309.383 175.636 308.596 175.439C307.809 175.439 307.219 175.439 306.432 175.439C306.038 175.242 305.644 175.045 305.251 175.045C300.725 174.258 295.412 175.833 291.279 177.21C286.95 178.588 282.817 180.359 278.882 182.523C275.93 184.294 272.978 186.459 271.01 189.411C269.436 190.985 268.058 192.559 267.075 194.527C264.713 199.447 264.91 207.318 270.42 210.27C277.111 219.322 293.247 224.045 302.102 226.21C329.849 233.294 359.17 240.181 386.917 232.507C397.74 229.555 408.563 223.651 413.876 213.812C417.812 206.531 418.206 197.873 418.402 189.608C418.206 159.303 414.467 128.407 399.314 102.628Z" fill="#858585"/>
<path d="M380.423 148.479C375.11 150.447 369.796 153.595 365.861 157.728C366.845 154.973 367.828 152.021 368.812 149.266C369.206 148.085 369.6 146.904 369.993 145.724C372.158 143.362 374.322 141.001 376.684 139.033C377.274 138.639 376.487 137.852 375.897 138.246C374.126 139.623 372.551 141.198 370.977 142.575C371.764 139.623 372.551 136.672 372.748 133.72C371.764 133.326 370.78 134.507 370.19 135.491C366.648 142.575 364.09 150.25 360.351 157.334C356.808 164.418 351.889 171.306 345.001 175.438C337.72 179.768 328.275 180.358 320.403 177.013C316.074 175.241 314.5 177.603 317.845 180.555C319.813 182.326 320.01 185.474 319.419 188.229C318.829 190.984 317.648 193.543 317.451 196.101C318.435 192.165 319.419 188.426 320.6 184.49C320.797 183.9 320.994 183.31 321.387 183.113C321.977 182.719 322.568 182.719 323.158 182.916C327.487 183.31 332.014 183.9 335.359 186.458C337.523 188.033 338.901 190.197 340.475 192.362C342.246 195.117 344.017 197.872 345.788 200.824C344.805 196.101 342.05 192.165 339.295 188.229C339.098 187.836 338.704 187.442 338.704 186.852C338.704 185.474 340.869 185.278 342.246 185.081C344.214 184.687 345.788 182.916 347.756 182.326C351.495 180.948 355.431 183.506 358.973 185.081C363.302 187.049 368.222 187.836 373.142 187.442C367.041 184.687 360.941 181.735 355.037 178.587C357.399 177.013 358.973 174.258 360.154 171.699C360.744 170.519 361.138 169.338 361.728 167.96C363.696 166.583 365.861 165.599 368.025 164.615C371.764 162.844 376.093 162.057 379.832 160.483C380.423 160.286 380.029 159.499 379.439 159.499C375.306 160.286 370.977 162.057 367.238 163.828C365.664 164.615 363.893 165.402 362.515 166.386C363.302 164.615 363.893 162.844 364.483 160.876C368.812 155.76 373.929 151.627 380.423 149.069C381.013 148.872 380.816 148.282 380.423 148.479Z" fill="#282828"/>
<path d="M315.68 179.57C315.09 185.277 311.351 189.409 307.612 193.345C307.218 193.739 307.809 194.132 308.005 193.739C312.138 189.803 316.467 185.474 316.664 179.373C316.664 178.98 315.68 178.98 315.68 179.57Z" fill="#282828"/>
<path d="M303.409 118.785C302.819 118.195 302.425 117.211 301.441 117.211C301.244 117.211 301.048 117.211 300.851 117.211C300.654 117.211 300.457 117.014 300.26 116.817C299.473 116.227 298.686 115.636 297.702 115.243C296.915 115.046 295.931 114.849 295.144 115.243C294.16 115.636 293.766 116.817 293.963 117.801C294.16 118.785 294.947 119.572 295.931 120.162C296.915 120.753 297.899 121.146 298.883 121.54C300.064 122.13 301.048 122.721 302.228 123.311C303.212 123.705 304.393 123.901 305.18 123.311C305.77 122.917 306.164 121.54 305.77 120.753C305.574 120.359 304.983 120.162 304.59 119.966C304.196 119.769 303.803 119.179 303.409 118.785Z" fill="#EDD5BE"/>
<path d="M328.598 130.002C338.24 127.641 345.325 120.753 352.409 114.653C354.573 112.685 356.935 110.717 358.509 108.356C360.083 105.994 361.067 103.436 361.854 100.878C362.248 99.3037 362.642 97.7295 362.445 95.9584C362.051 94.3841 360.871 92.8098 359.1 92.2195C357.722 91.8259 356.148 92.2195 354.967 92.8098C353.786 93.4002 352.802 94.3841 351.818 95.368C346.308 100.681 340.602 105.798 335.092 111.111C332.533 113.472 329.778 116.03 326.827 117.998C323.678 119.966 320.136 121.54 316.397 121.737C312.461 122.131 308.526 121.147 305.377 118.982C305.574 118.982 303.212 122.328 303.016 122.721C302.819 123.705 303.016 124.295 303.606 125.083C305.18 126.854 308.526 128.231 311.084 129.018C316.594 131.183 322.891 131.577 328.598 130.002Z" fill="#E2E2E2"/>
<path d="M314.233 149.877C313.249 149.68 312.462 149.483 311.478 149.483C310.887 149.286 310.297 149.089 310.1 148.696C310.1 148.302 310.297 147.909 310.69 147.515C312.265 146.334 314.429 145.941 316.397 145.744C317.381 145.744 318.365 145.547 319.152 145.941C319.939 146.334 320.727 147.122 320.727 147.909C320.727 150.86 316.004 150.27 314.233 149.877Z" fill="#EDD5BE"/>
<path d="M361.461 69.5886C361.461 69.195 361.067 68.8014 360.87 68.4079C358.312 64.2754 355.951 60.3397 353.392 56.2072C351.621 53.2554 349.457 50.1068 346.111 49.3197C341.585 48.139 337.453 51.4843 333.517 53.8457C334.698 59.3557 335.682 65.0625 336.075 70.7693C336.272 73.9179 336.469 77.2632 337.453 80.215C338.437 83.1668 340.405 86.1185 343.553 87.2993C348.67 89.2671 354.376 85.725 357.328 81.3957C359.493 78.4439 360.87 74.9018 361.264 71.1629C361.461 70.3757 361.657 69.9821 361.461 69.5886Z" fill="#EDD5BE"/>
<path d="M354.573 68.211C354.573 67.0303 355.36 65.6528 356.541 65.2592C357.722 64.8656 359.099 65.2592 359.69 66.4399C360.28 67.8174 359.493 69.3917 358.903 70.7692C357.328 75.2953 360.28 80.2149 363.035 84.1506C364.216 80.8052 365.987 77.6567 368.151 74.9017C369.923 72.737 372.284 70.5724 372.284 67.8174C372.284 66.2431 371.497 64.8656 371.497 63.2914C371.497 61.1267 372.874 59.1589 372.678 57.191C372.481 54.8296 370.71 53.0585 368.939 51.681C364.806 48.3357 360.083 45.5807 355.164 43.6128C353.786 43.0225 352.212 42.4321 351.425 41.0546C351.031 40.2675 351.031 39.4803 350.441 38.89C349.654 37.906 348.079 37.906 346.702 38.1028C342.569 38.4964 338.437 39.0868 334.698 41.0546C333.714 41.645 332.927 42.2353 331.943 42.4321C329.975 42.8257 327.81 41.645 325.843 41.8417C323.678 42.2353 321.907 44.2032 321.317 46.5646C320.726 48.7292 321.317 51.0907 321.907 53.2553C323.481 53.6489 324.859 53.8457 326.433 54.2392C325.646 56.4039 326.039 58.7653 327.417 60.5364C330.172 60.3396 332.927 59.3556 335.092 57.5846C336.666 56.4039 338.043 54.8296 340.011 54.8296C341.979 54.8296 343.553 56.2071 345.128 57.191C346.702 58.1749 349.26 58.7653 350.441 57.191C352.999 60.5364 354.18 64.4721 354.573 68.211Z" fill="#685347"/>
<path d="M371.496 127.641C369.922 142.99 363.035 157.946 352.408 169.162C342.766 162.078 328.794 164.046 319.152 156.962C318.758 156.568 318.364 156.371 318.168 155.781C317.774 154.797 318.561 154.01 319.152 153.223C329.581 140.235 336.272 124.295 338.437 107.765C338.83 105.01 339.027 102.255 340.798 100.091C341.585 98.91 342.963 98.1228 344.143 97.3357C348.669 94.1871 353.786 89.2675 358.902 87.2996C364.215 85.3318 365.396 89.2675 367.167 93.7935C370.906 104.42 372.677 116.227 371.496 127.641Z" fill="#E8E8E8"/>
<path d="M304.983 174.868C303.803 175.065 302.622 175.262 301.638 175.262C302.622 175.065 303.803 174.868 304.983 174.868Z" fill="#353535"/>
<path d="M294.61 109.129C295.2 108.932 295.79 108.932 296.381 109.326C296.774 109.523 296.971 110.113 296.971 110.507C299.529 119.756 301.891 129.005 303.072 138.45C303.072 138.844 303.072 139.237 303.072 139.631C302.875 140.025 302.678 140.221 302.481 140.418C298.742 144.747 295.2 148.88 291.461 153.209C291.068 153.8 290.28 154.39 289.493 153.996C289.1 153.8 289.1 153.406 288.903 153.012C287.132 146.912 285.361 140.812 283.59 134.711C283.196 133.531 282.803 132.35 282.606 131.169C281.819 128.414 281.032 125.462 280.244 122.707C279.851 121.33 279.457 119.952 279.064 118.378C278.867 117.591 277.686 114.836 278.08 114.246C278.473 113.459 281.032 113.065 281.819 112.671C283.196 112.278 284.574 111.687 285.951 111.294C288.706 110.507 291.658 109.72 294.61 109.129Z" fill="#3C444C"/>
<path d="M288.51 148.487C288.903 150.455 289.69 152.817 290.871 152.817C291.265 152.817 291.658 152.423 292.052 152.03C295.2 148.487 298.349 144.945 301.694 141.403C302.285 140.813 302.875 140.222 302.875 139.042C303.072 138.255 302.875 137.074 302.678 136.287C301.104 127.431 299.136 118.773 296.578 110.114C293.232 110.901 289.887 111.885 286.542 112.672C284.377 113.263 279.654 112.672 280.048 116.805C280.441 121.134 283.393 127.825 284.574 132.154C285.951 137.467 287.329 142.977 288.51 148.487Z" fill="white"/>
<path d="M327.276 142.189C327.473 139.238 327.473 136.089 327.67 133.137C320.192 135.302 312.714 137.466 305.236 139.631C304.252 139.828 303.268 140.221 302.284 140.812C301.104 141.599 300.317 142.78 299.53 143.764C297.365 146.125 293.036 147.896 291.855 150.651C289.69 154.98 298.152 151.438 300.317 150.848C309.172 147.896 318.224 145.141 327.276 142.189Z" fill="#3C444C"/>
<path d="M305.236 150.651C310.353 149.274 315.272 147.503 320.192 145.732C322.16 145.141 324.128 144.354 325.899 143.764C326.095 143.764 326.292 143.567 326.292 143.567C327.079 142.977 326.489 141.993 325.899 141.206C314.288 144.748 302.678 148.29 291.068 152.226C290.084 152.619 288.903 153.603 290.477 153.997C291.658 154.39 294.216 153.406 295.594 153.013C298.939 152.422 302.088 151.635 305.236 150.651Z" fill="#3C444C"/>
<path d="M338.633 130.199C343.159 123.508 346.505 116.03 349.85 108.749C351.424 105.404 353.195 101.861 356.344 100.09C356.934 99.6968 357.722 99.5 358.312 99.5C359.886 99.6968 360.477 101.665 360.673 103.239C361.854 112.488 358.902 122.13 353.589 129.805C348.276 137.48 340.601 143.383 332.139 147.516C327.613 149.68 322.694 151.451 317.577 151.255C316.987 151.255 319.348 145.941 320.136 145.548C322.103 144.17 324.662 143.383 326.826 142.006C331.746 139.054 335.485 134.725 338.633 130.199Z" fill="#E2E2E2"/>
<path d="M352.409 168.374C352.212 167.783 351.622 167.587 351.031 167.39C345.915 165.422 340.602 163.848 335.485 162.077C330.762 160.502 325.056 157.944 319.939 158.141C309.51 158.338 299.277 155.779 289.044 153.024C286.092 152.237 283.14 151.45 280.189 151.45C277.237 151.45 274.088 152.237 271.924 154.402C270.349 155.976 269.562 158.338 268.775 160.502C263.265 175.852 258.542 191.594 255 207.534C257.755 208.715 260.707 209.699 263.462 210.879C267.397 199.072 274.088 188.052 283.14 179.591C281.763 180.968 290.028 180.378 291.209 180.378C295.341 180.378 297.309 182.345 301.638 182.739C308.526 183.133 315.02 186.281 321.71 186.872C333.911 188.052 346.505 181.165 352.015 169.948C352.409 169.358 352.606 168.964 352.409 168.374Z" fill="#282828"/>
<path d="M296.325 115.833C295.341 116.03 294.357 116.423 293.373 116.62C292.979 116.817 292.782 116.817 292.389 117.014C292.192 117.211 291.995 117.211 291.798 117.407C291.798 117.407 291.011 117.998 291.011 117.604C291.011 117.604 291.011 117.604 290.815 117.604C290.618 117.801 290.618 117.801 290.421 117.998C290.224 118.194 290.224 118.194 290.027 117.998C289.634 118.391 289.043 118.588 288.65 118.785C288.06 118.982 287.469 119.375 286.879 118.982C286.485 119.375 285.895 119.769 285.305 119.769C285.305 119.965 285.305 119.965 285.108 119.965C284.911 120.162 284.911 120.162 284.714 120.162C284.517 120.359 284.517 120.359 284.321 120.359C284.321 120.359 284.124 120.162 284.124 120.359C284.124 120.359 284.124 120.359 284.124 120.556C284.124 120.753 283.927 120.753 283.73 120.556C283.73 120.556 283.73 120.556 283.533 120.556C283.533 120.753 283.533 120.949 283.337 121.146L283.14 121.343C282.943 121.54 282.943 121.343 282.746 121.146C282.746 120.949 282.746 120.949 282.55 120.949C282.55 120.949 282.55 120.949 282.55 120.753C282.353 120.949 282.353 121.146 282.353 121.146C282.353 121.146 282.353 121.146 282.55 121.343C282.943 121.54 283.337 120.949 283.337 120.753H283.533H283.73C283.927 120.556 283.927 120.359 284.124 120.556C284.321 120.556 284.321 120.359 284.321 120.359C284.517 120.359 284.517 120.359 284.714 120.162C284.911 120.162 284.911 119.965 285.108 119.769C285.108 119.769 285.305 119.769 285.305 119.572C285.501 119.572 285.698 119.375 285.698 119.375C285.895 119.178 286.288 118.785 286.682 118.785C286.879 118.785 287.076 118.982 287.272 118.785C287.469 118.785 287.863 118.588 288.06 118.588C288.453 118.391 288.65 118.194 289.043 118.194C289.24 118.194 289.437 117.998 289.634 117.801C289.831 117.604 289.831 117.604 290.027 117.801C290.224 117.604 290.421 117.604 290.618 117.407C290.618 117.604 290.815 117.604 291.011 117.407C291.208 117.407 291.405 117.014 291.798 117.014C291.995 116.817 292.192 116.817 292.389 116.62C292.979 116.423 293.57 116.227 294.16 116.03C294.947 116.423 295.734 116.227 296.325 115.833C296.325 115.833 296.325 116.03 296.325 115.833Z" fill="#999999"/>
<path d="M295.537 117.406C294.947 117.406 294.553 117.603 294.16 117.8C293.57 117.997 292.979 118.39 292.389 118.587C291.798 118.784 291.405 118.981 290.815 119.374C290.618 119.571 290.421 119.571 290.224 119.768C290.027 119.964 289.634 120.358 289.437 120.161C289.437 120.161 289.437 120.161 289.24 120.161C288.847 120.358 288.65 120.555 288.256 120.752C288.06 120.752 287.863 120.948 287.863 120.948L287.666 121.145H287.469H287.272V120.948C287.272 120.948 287.272 120.948 287.076 120.948C286.879 120.948 286.879 121.145 286.879 121.145L286.682 121.342C286.682 121.342 286.485 121.342 286.485 121.539C286.288 121.539 286.288 121.539 286.092 121.736C285.895 121.932 285.698 122.129 285.305 122.129C285.108 122.129 284.911 122.129 284.714 122.326C284.517 122.523 283.927 123.113 283.73 122.719C283.73 122.719 283.73 122.719 283.533 122.719C283.337 122.916 283.14 123.113 282.943 123.113C282.943 123.113 282.746 123.113 282.746 123.31C282.746 123.31 282.746 123.507 282.746 123.31C282.943 123.31 282.943 123.113 283.14 123.113C283.337 123.113 283.337 123.113 283.337 123.31C283.337 123.113 283.337 123.113 283.337 122.916L283.533 122.719C283.73 122.916 283.927 122.916 284.124 122.719C284.321 122.719 284.517 122.523 284.714 122.326C284.911 122.129 285.108 122.326 285.501 122.129C285.698 122.129 285.698 122.129 285.895 121.932L286.092 121.736C286.288 121.539 286.485 121.539 286.682 121.539C286.879 121.539 286.879 121.342 287.076 121.342C287.272 121.539 287.469 121.539 287.469 121.342C287.863 121.145 288.256 120.948 288.65 120.752C288.847 120.752 289.043 120.358 289.24 120.358C289.437 120.358 289.437 120.358 289.634 120.358C290.027 120.358 290.224 119.964 290.618 119.768C291.011 119.374 291.602 119.177 291.995 118.981C292.586 118.784 292.979 118.587 293.57 118.193C294.357 117.8 294.947 117.603 295.537 117.406C295.537 117.406 295.537 117.603 295.537 117.406Z" fill="#999999"/>
<path d="M296.915 118.981C296.915 118.784 296.718 118.587 296.718 118.391H296.522C296.325 118.587 296.325 118.784 296.128 118.784C295.931 118.784 295.931 118.784 295.734 118.784C295.341 118.981 294.947 119.571 294.554 119.178C294.554 119.178 294.554 119.178 294.357 119.178C294.16 119.375 293.963 119.571 293.57 119.571C293.373 119.571 292.979 119.571 292.783 119.571C292.389 119.571 291.995 120.555 291.602 120.162C291.602 120.162 291.602 120.162 291.405 120.162C291.012 120.555 290.421 120.949 290.028 121.342C289.831 121.539 289.634 121.539 289.24 121.736C289.044 121.736 289.044 121.933 288.847 121.933C288.847 121.933 288.06 122.326 288.257 122.13C288.257 122.13 288.257 121.933 288.06 122.13C287.469 122.72 286.879 123.113 286.289 123.507C286.289 123.507 286.289 123.31 286.092 123.31C286.092 123.31 286.092 123.31 285.895 123.31C285.698 123.507 285.305 123.901 285.108 124.097V123.901C285.108 123.901 285.108 123.704 284.911 123.901C284.714 124.097 284.321 124.294 284.124 124.294L283.927 124.097C283.73 124.294 283.534 124.294 283.534 124.491C283.534 124.491 283.534 124.688 283.73 124.491C283.927 124.491 284.124 124.294 284.321 124.294C284.518 124.097 284.714 124.097 284.911 123.901C284.911 123.901 284.911 123.901 285.108 123.901V124.097C285.108 124.097 285.108 124.294 285.305 124.097C285.698 123.901 285.895 123.704 286.289 123.31V123.507C286.289 123.507 286.289 123.507 286.485 123.507C287.076 123.113 287.863 122.72 288.257 122.326C288.453 122.523 289.437 122.13 289.437 121.933C290.224 121.539 291.012 120.949 291.602 120.358C291.995 120.555 292.389 120.162 292.586 119.965C292.783 119.768 292.979 119.768 293.373 119.768C293.57 119.768 293.57 119.768 293.767 119.768C293.963 119.768 294.357 119.571 294.554 119.375C295.144 119.768 295.734 118.784 296.325 118.784C296.325 118.784 296.325 118.784 296.522 118.784C296.522 118.587 296.718 118.587 296.718 118.391C296.522 118.784 296.718 118.981 296.915 118.981C296.915 119.178 296.718 119.178 296.915 118.981ZM284.321 124.294C284.321 124.294 284.124 124.294 284.124 124.491C284.124 124.294 284.124 124.294 284.321 124.294Z" fill="#999999"/>
<path d="M295.931 120.358C295.734 120.555 295.34 120.751 294.947 120.948C294.75 120.948 294.356 120.948 294.16 120.948C293.963 120.948 293.766 121.145 293.569 121.145C293.372 121.342 293.176 121.539 292.979 121.539C292.782 121.539 292.782 121.539 292.585 121.539C292.388 121.539 292.192 121.539 291.995 121.735C291.798 121.932 291.601 121.932 291.405 122.129C291.208 122.129 291.208 122.129 291.011 122.326C290.617 122.326 290.224 122.719 290.224 122.916C289.83 122.916 289.437 122.916 289.24 123.113C289.24 123.113 289.24 123.31 289.043 123.31V123.506C288.846 123.703 288.846 123.703 288.65 123.703C288.256 123.9 288.059 123.9 287.666 124.097C287.075 124.294 286.485 124.49 285.895 124.687C285.698 124.687 285.501 124.884 285.304 125.081C285.107 125.278 284.911 125.671 284.714 125.868V126.065C285.107 125.868 285.107 125.474 285.501 125.081C285.698 124.884 286.091 124.687 286.485 124.687C286.878 124.49 287.075 124.49 287.469 124.294C287.666 124.097 288.059 124.097 288.256 123.9C288.453 123.9 288.65 123.703 288.846 123.703C289.043 123.506 289.043 123.506 289.043 123.31C289.24 122.916 289.633 122.916 290.027 123.113H290.224C290.027 122.523 290.814 122.523 291.208 122.326C291.405 122.326 291.601 122.129 291.601 122.129C291.798 121.932 291.995 121.932 292.192 121.932C292.389 121.932 292.388 121.932 292.585 121.932C292.782 121.932 292.979 121.932 292.979 121.735C293.176 121.539 293.176 121.342 293.569 121.145C293.766 121.145 294.16 121.145 294.356 121.145C295.34 120.948 295.734 120.751 295.931 120.358C295.931 120.358 296.127 120.358 295.931 120.358Z" fill="#999999"/>
<path d="M292.979 123.114C292.389 123.311 291.602 123.705 291.011 123.901C290.421 124.098 289.831 124.295 289.24 124.689C288.65 125.082 288.256 125.476 287.666 125.672C287.076 126.066 286.485 126.263 285.698 126.656C285.698 126.656 285.698 126.853 285.698 126.656C286.289 126.46 286.879 126.263 287.469 125.869C288.06 125.476 288.65 125.082 289.044 124.689C289.634 124.295 290.421 124.098 291.011 123.901C291.799 123.705 292.389 123.508 292.979 123.114C293.176 123.114 293.176 123.114 292.979 123.114Z" fill="#999999"/>
<path d="M293.176 141.021C292.979 139.446 292.585 138.069 292.389 136.495C292.389 136.495 292.389 136.298 292.192 136.495C291.798 136.691 291.405 136.691 291.011 137.085C290.814 137.085 291.011 137.282 291.011 137.282C291.405 139.25 291.601 141.218 291.995 143.185C291.995 143.382 292.192 143.382 292.192 143.185C292.389 142.792 292.585 142.595 292.979 142.398C292.979 142.398 293.176 142.398 293.176 142.201C293.569 142.005 293.372 141.414 293.176 141.021ZM292.979 142.201C292.782 142.398 292.585 142.398 292.389 142.595L292.192 142.792C291.798 141.021 291.405 139.053 291.011 137.282C291.208 137.085 291.798 136.691 291.995 137.085C292.192 137.282 292.192 138.069 292.192 138.266C292.389 139.053 292.389 139.643 292.585 140.43C292.782 140.627 293.372 141.808 292.979 142.201Z" fill="#999999"/>
<path d="M295.144 139.84C295.144 139.447 294.947 138.856 294.947 138.463C294.554 136.495 294.16 134.724 293.57 132.756C293.57 132.559 293.373 132.559 293.373 132.756C291.996 133.346 292.586 134.724 292.783 135.905C293.176 137.676 293.57 139.25 293.963 141.021C293.963 141.218 293.963 141.415 294.16 141.218C294.554 141.021 295.144 141.021 295.341 140.627C295.341 140.431 295.144 140.234 295.144 139.84ZM293.963 140.824C293.767 139.643 293.373 138.266 293.176 137.085C292.98 136.495 292.98 135.708 292.783 135.117C292.586 134.33 292.389 133.543 293.176 132.953C293.57 134.33 293.963 135.708 294.16 137.085C294.357 137.676 294.357 138.463 294.554 139.053C294.554 139.447 294.751 139.84 294.751 140.037C294.947 140.824 294.357 140.824 293.963 140.824Z" fill="#999999"/>
<path d="M297.505 138.463C297.505 137.872 297.308 137.282 297.308 136.692C296.915 134.33 296.521 132.166 295.537 130.001L295.341 129.804C294.947 130.001 294.16 130.001 294.16 130.395C294.16 130.788 294.357 131.378 294.357 131.969C294.357 132.362 294.553 132.756 294.553 133.346C294.947 135.314 295.341 137.479 295.931 139.447C295.931 139.643 296.128 139.447 296.128 139.447C295.734 137.872 295.341 136.298 295.144 134.724C294.947 133.937 294.947 133.15 294.75 132.362C294.75 131.969 294.553 131.575 294.553 131.182C294.553 130.591 294.947 130.591 295.341 130.395C295.931 131.969 296.325 133.543 296.718 135.117C296.915 135.905 296.915 136.692 297.112 137.479C297.112 137.872 297.308 138.463 297.308 138.856C297.308 139.643 296.915 139.84 296.128 139.84C295.931 139.84 295.931 140.234 296.128 140.234C296.718 140.234 297.505 140.234 297.702 139.643C297.702 139.25 297.505 138.856 297.505 138.463Z" fill="#999999"/>
<path d="M299.866 136.495C299.67 135.905 299.473 135.315 299.473 134.724C298.882 132.56 298.292 130.395 297.702 128.23C297.702 128.23 297.702 128.034 297.505 128.034H296.718C296.521 128.034 296.521 128.23 296.521 128.23C297.111 131.182 297.702 134.134 298.095 137.086C298.095 137.283 298.292 137.086 298.292 137.086C297.702 134.134 297.308 131.379 296.718 128.427C297.111 128.427 297.308 128.624 297.505 129.214C297.702 129.608 297.702 130.002 297.898 130.395C298.095 131.379 298.292 132.166 298.686 133.15C298.882 133.937 299.079 134.921 299.276 135.708C299.276 135.905 299.67 136.889 299.67 137.086C299.473 137.479 298.489 137.479 298.292 137.479C298.095 137.479 298.095 137.873 298.292 137.873C298.686 137.873 299.866 137.873 300.063 137.283C300.063 137.086 299.866 136.692 299.866 136.495Z" fill="#999999"/>
<path d="M295.144 126.852C294.16 130.197 291.799 132.559 289.437 135.117C289.24 135.314 289.437 135.314 289.634 135.314C291.995 132.952 294.554 130.394 295.538 127.049C295.538 126.655 295.144 126.655 295.144 126.852Z" fill="#999999"/>
<path d="M296.128 127.837C295.931 127.443 295.931 127.049 295.734 126.459C295.734 126.262 295.537 125.869 295.341 125.869C295.144 125.869 294.75 126.262 294.75 126.459C294.357 126.853 293.963 127.246 293.57 127.64C293.57 127.64 293.57 127.837 293.766 127.837C293.963 127.64 294.357 127.246 294.554 127.049C294.75 126.853 295.144 126.262 295.341 126.262C295.537 126.262 295.537 126.853 295.537 127.049C295.537 127.246 295.734 127.64 295.734 127.837C295.931 128.23 296.325 128.033 296.128 127.837Z" fill="#999999"/>
<path d="M297.969 147.494C297.969 147.494 298.166 147.297 297.969 147.494C298.166 147.297 298.166 147.494 298.363 147.494C298.56 147.691 298.756 147.691 298.953 147.691C298.953 148.085 298.756 148.675 298.56 149.068C298.166 149.068 297.182 149.265 297.182 148.872C296.985 148.478 297.773 147.888 297.969 147.494Z" fill="#9E9E9E"/>
<path d="M299.937 145.92C299.937 145.724 299.74 145.724 299.543 145.724C299.15 145.724 298.756 146.117 298.56 146.314V146.511C298.56 146.511 298.56 146.708 298.756 146.708C299.15 146.904 299.74 146.904 299.937 146.314C299.937 146.314 300.134 146.117 299.937 145.92Z" fill="#9E9E9E"/>
<path d="M301.315 144.347C301.315 144.15 301.118 144.15 300.921 144.15C300.725 144.15 300.528 144.15 300.528 144.15C300.331 144.347 300.331 144.543 300.134 144.74C300.134 144.937 299.938 144.937 299.938 145.134C299.938 145.134 299.938 145.134 299.938 145.331C299.938 145.331 299.938 145.527 300.134 145.331C300.528 145.527 300.725 145.527 301.118 145.331C301.118 145.134 301.512 144.543 301.315 144.347Z" fill="#9E9E9E"/>
<path d="M302.101 142.969C302.101 142.772 301.905 142.772 301.905 142.772C301.708 142.772 301.708 142.772 301.511 142.772C301.314 142.772 301.314 142.969 301.314 143.166C301.314 143.362 301.117 143.559 301.117 143.756C301.117 143.756 301.117 143.756 301.117 143.953C301.314 144.149 301.708 143.953 301.905 143.756C301.905 143.559 302.101 143.166 302.101 142.969Z" fill="#9E9E9E"/>
<path d="M300.331 146.708C300.528 146.708 300.528 146.511 300.331 146.708C300.528 146.511 300.528 146.708 300.724 146.708C300.921 146.904 301.118 146.904 301.315 146.904C301.315 147.298 301.118 147.888 300.921 148.282C300.528 148.282 299.544 148.479 299.544 148.085C299.544 147.692 300.134 146.904 300.331 146.708Z" fill="#9E9E9E"/>
<path d="M302.495 145.133C302.495 144.937 302.298 144.937 302.101 144.937C301.708 144.937 301.314 145.33 301.117 145.527V145.724C301.117 145.724 301.117 145.92 301.314 145.92C301.708 146.117 302.298 146.117 302.495 145.527C302.298 145.527 302.495 145.33 302.495 145.133Z" fill="#9E9E9E"/>
<path d="M303.676 143.363C303.676 143.166 303.479 143.166 303.283 143.166C303.086 143.166 302.889 143.166 302.889 143.166C302.692 143.363 302.692 143.56 302.495 143.756C302.495 143.953 302.299 143.953 302.299 144.15C302.299 144.15 302.299 144.15 302.299 144.347C302.299 144.347 302.299 144.544 302.495 144.347C302.889 144.544 303.086 144.544 303.479 144.347C303.479 144.15 303.873 143.756 303.676 143.363Z" fill="#9E9E9E"/>
<path d="M304.463 141.985C304.463 141.789 304.266 141.789 304.266 141.789C304.069 141.789 304.069 141.789 303.873 141.789C303.676 141.789 303.676 141.985 303.676 142.182C303.676 142.379 303.479 142.576 303.479 142.773C303.479 142.773 303.479 142.773 303.479 142.969C303.676 143.166 304.069 142.969 304.266 142.773C304.463 142.576 304.66 142.182 304.463 141.985Z" fill="#9E9E9E"/>
<path d="M303.479 146.709C303.479 146.512 303.676 146.512 303.479 146.709C303.676 146.512 303.676 146.709 303.873 146.709C304.07 146.905 304.266 146.905 304.463 146.905C304.463 147.299 304.266 147.889 304.07 148.283C303.676 148.283 302.692 148.48 302.692 148.086C302.495 147.693 303.283 146.905 303.479 146.709Z" fill="#9E9E9E"/>
<path d="M305.448 145.133C305.448 144.937 305.251 144.937 305.054 144.937C304.66 144.937 304.267 145.33 304.07 145.527V145.724C304.07 145.724 304.07 145.92 304.267 145.92C304.66 146.117 305.251 146.117 305.448 145.527C305.448 145.527 305.644 145.33 305.448 145.133Z" fill="#9E9E9E"/>
<path d="M306.825 143.363C306.825 143.166 306.628 143.166 306.431 143.166C306.234 143.166 306.038 143.166 306.038 143.166C305.841 143.363 305.841 143.56 305.644 143.756C305.644 143.953 305.447 143.953 305.447 144.15C305.447 144.15 305.447 144.15 305.447 144.347C305.447 144.347 305.447 144.544 305.644 144.347C306.038 144.544 306.234 144.544 306.628 144.347C306.628 144.15 307.022 143.756 306.825 143.363Z" fill="#9E9E9E"/>
<path d="M307.612 141.985C307.612 141.789 307.415 141.789 307.415 141.789C307.218 141.789 307.218 141.789 307.021 141.789C306.825 141.789 306.825 141.985 306.825 142.182C306.825 142.379 306.628 142.576 306.628 142.773C306.628 142.773 306.628 142.773 306.628 142.969C306.825 143.166 307.218 142.969 307.415 142.773C307.415 142.576 307.612 142.182 307.612 141.985Z" fill="#9E9E9E"/>
<path d="M305.841 145.724C306.038 145.724 306.038 145.724 305.841 145.724C306.038 145.527 306.038 145.724 306.234 145.724C306.431 145.92 306.628 145.92 306.825 145.92C306.825 146.314 306.628 146.904 306.431 147.298C306.038 147.298 305.054 147.495 305.054 147.101C305.054 146.708 305.841 146.117 305.841 145.724Z" fill="#9E9E9E"/>
<path d="M308.005 144.347C308.005 144.15 307.809 144.15 307.612 144.15C307.218 144.15 306.825 144.543 306.628 144.74V144.937C306.628 144.937 306.628 145.134 306.825 145.134C307.218 145.331 307.809 145.331 308.005 144.74C307.809 144.74 308.005 144.347 308.005 144.347Z" fill="#9E9E9E"/>
<path d="M309.186 142.576C309.186 142.379 308.99 142.379 308.793 142.379C308.596 142.379 308.399 142.379 308.399 142.379C308.202 142.576 308.202 142.772 308.006 142.969C308.006 143.166 307.809 143.166 307.809 143.363C307.809 143.363 307.809 143.363 307.809 143.56C307.809 143.56 307.809 143.756 308.006 143.56C308.399 143.756 308.596 143.756 308.99 143.56C308.99 143.363 309.383 142.772 309.186 142.576Z" fill="#9E9E9E"/>
<path d="M309.973 141.198C309.973 141.001 309.776 141.001 309.776 141.001C309.58 141.001 309.58 141.001 309.383 141.001C309.186 141.001 309.186 141.198 309.186 141.395C309.186 141.591 308.989 141.788 308.989 141.985C308.989 141.985 308.989 141.985 308.989 142.182C309.186 142.378 309.58 142.182 309.776 141.985C309.973 141.788 310.17 141.395 309.973 141.198Z" fill="#9E9E9E"/>
<path d="M35.5262 205.118C43.004 208.857 51.0722 211.415 58.9436 214.76C66.815 218.105 74.2929 222.435 81.5739 226.567C82.3611 226.961 83.1482 227.354 83.5418 228.142C84.7225 230.109 83.1482 232.471 81.5739 234.242C79.8029 236.013 78.0318 237.981 75.4736 238.178C73.3089 238.374 71.3411 237.39 69.57 236.407C48.9076 224.796 28.0483 213.186 7.18908 201.379C-0.0919813 197.246 -4.61804 186.423 7.58265 188.194C17.8155 189.965 26.6708 200.592 35.5262 205.118Z" fill="#F2F4F7"/>
<path d="M78.2289 228.928C75.8675 230.109 73.8997 233.258 73.7029 235.816C73.7029 236.013 74.0964 236.21 74.2932 235.816C74.49 234.438 75.4739 233.258 76.2611 232.077C76.8514 231.29 77.4418 230.7 78.0322 230.109C78.4257 229.912 78.8193 229.716 79.2129 229.519C80 229.322 80.1968 229.322 80.7871 229.912C81.3775 230.503 81.1807 231.093 80.7871 231.88C80.5904 232.274 80.1968 232.667 80 232.864C79.6064 233.455 79.0161 233.848 78.4257 234.242C78.2289 234.438 77.8354 234.832 77.4418 234.832C77.0482 234.832 77.4418 234.635 77.6386 234.242C78.0322 233.455 78.6225 232.864 79.4096 232.471C80 232.274 79.4097 231.29 78.8193 231.487C77.8354 231.88 77.0482 232.667 76.4579 233.848C76.2611 234.438 75.8675 235.619 76.8514 235.816C77.6386 236.013 78.8193 234.832 79.6064 234.242C80.5904 233.455 81.9679 232.077 82.1646 230.7C82.5582 228.732 80 227.945 78.2289 228.928Z" fill="#F2F4F7"/>
<path d="M108.269 223.65C108.662 223.847 109.253 223.847 109.449 224.241C109.843 224.634 109.843 225.421 109.843 226.012C109.646 227.783 109.253 229.947 107.482 230.341C106.694 230.538 105.907 230.341 105.12 230.144C81.8995 223.65 60.0563 213.614 38.2131 203.381C36.2453 203.381 30.3417 200.233 28.9642 199.052C27.5867 197.871 26.9964 195.707 27.9803 193.936C30.5385 190.197 41.3617 197.871 44.3135 199.446C57.4981 205.94 70.8795 211.646 84.6545 216.566C92.3291 219.321 100.201 221.682 108.269 223.65Z" fill="#F2F4F7"/>
<path d="M120.863 178.587C121.256 178.39 121.65 178.193 122.043 178.39C122.437 178.39 122.831 178.784 123.027 179.177C129.324 186.852 135.031 195.117 142.312 201.611C142.903 202.004 143.493 202.595 143.296 203.382C143.099 203.972 142.706 204.169 142.116 204.563C132.67 209.482 122.043 212.237 111.417 214.008C108.662 208.301 106.104 202.398 103.349 196.691C102.365 194.723 100.003 191.771 99.8067 189.804C99.6099 187.245 102.758 186.655 104.53 185.868C110.039 183.31 115.353 180.948 120.863 178.587Z" fill="#03A678"/>
<path d="M187.819 225.042C188.803 225.042 189.787 225.238 190.378 226.026C190.968 226.813 191.165 227.797 191.165 228.781C191.558 235.078 191.362 241.572 190.968 247.869C175.619 246.885 160.466 246.491 145.117 246.294C145.117 241.375 145.117 236.258 145.117 231.339C145.117 227.993 144.133 223.861 147.872 223.271C151.808 222.483 156.334 223.664 160.269 223.664C164.599 223.861 168.731 224.058 173.061 224.255C177.783 224.648 182.703 224.845 187.819 225.042Z" fill="#F2F4F7"/>
<path d="M267.861 237.425C267.861 238.409 268.058 239.196 268.452 239.983C269.239 241.164 270.616 241.755 271.994 241.755C273.371 241.755 274.749 241.164 275.93 240.771C276.52 240.574 277.11 240.377 277.307 239.787C277.701 239.393 277.701 238.803 277.701 238.212C278.291 234.277 278.685 230.144 279.275 226.208C279.275 225.815 279.275 225.421 279.275 225.028C279.078 223.65 277.307 223.257 276.126 223.257C273.962 223.06 267.861 222.863 266.484 225.028C265.697 226.405 266.681 229.16 266.877 230.538C267.468 232.899 267.665 235.064 267.861 237.425Z" fill="#282828"/>
<path d="M277.307 225.028C278.094 225.028 278.881 225.225 279.472 225.028C280.259 224.831 280.849 224.241 280.849 223.454C280.849 222.667 280.259 222.076 279.668 221.683C279.078 221.289 278.291 221.289 277.504 221.289C275.142 221.289 266.09 220.108 265.5 223.454C265.106 225.618 268.452 224.831 269.829 224.831C272.387 224.831 274.749 224.831 277.307 225.028Z" fill="#E2E2E2"/>
<path d="M216.697 213.614C218.272 213.614 220.043 213.811 221.223 214.992C222.011 215.779 222.207 216.959 222.404 217.943C223.782 224.437 224.175 230.931 223.978 237.425C223.978 238.016 223.978 238.409 223.585 238.803C223.191 239.393 222.207 239.59 221.42 239.59C207.055 239.393 192.69 238.606 178.324 237.622C177.537 237.622 176.553 237.425 176.16 236.835C175.766 236.441 175.766 235.851 175.766 235.261C175.766 230.931 175.569 226.799 175.766 222.469C175.766 220.108 174.782 213.417 177.144 212.433C178.521 211.843 181.866 212.63 183.441 212.63C185.605 212.63 187.77 212.827 190.131 212.827C194.461 213.024 198.593 213.024 202.922 213.221C207.448 213.221 211.975 213.417 216.697 213.614Z" fill="#03A678"/>
<path d="M216.697 217.747C216.697 218.141 216.5 218.534 216.5 218.928C216.697 218.928 216.697 219.125 216.894 219.125C216.697 219.321 216.5 219.518 216.304 219.912C216.304 220.109 216.304 220.109 216.107 220.305C216.107 220.502 215.91 220.502 215.91 220.699C215.713 221.093 215.91 221.683 216.304 221.88C215.91 221.88 215.713 222.273 215.91 222.667C215.91 223.06 216.5 223.06 216.107 223.454C215.91 223.651 215.91 223.848 215.91 224.044C215.91 224.241 216.107 224.438 216.107 224.831C216.304 225.225 215.91 225.619 215.713 226.012C215.32 226.603 215.516 227.193 215.516 227.783C215.516 227.98 215.516 228.177 215.516 228.374C215.516 228.57 215.32 228.767 215.32 228.964C215.32 229.161 215.32 229.358 215.32 229.358C215.32 229.358 215.32 229.358 215.32 229.554L215.123 229.751C215.32 229.751 215.32 229.948 215.32 230.145C215.32 230.341 215.32 230.735 214.926 230.538C215.123 230.735 215.32 230.735 215.32 230.932C215.32 231.129 215.32 230.932 215.32 231.129H215.123C215.516 231.129 215.516 231.916 214.926 231.719C215.123 231.719 215.32 231.916 215.32 232.309C215.32 232.506 214.926 232.703 214.729 232.703C214.926 232.9 215.123 233.096 215.123 233.49C215.123 234.08 214.532 233.884 214.336 233.884C214.336 234.08 214.532 234.08 214.532 234.277L214.336 234.08C214.532 234.08 214.926 234.08 215.123 233.884C215.32 233.49 214.926 233.096 214.729 232.9C214.926 232.9 215.123 232.703 215.32 232.506C215.32 232.309 215.32 232.113 215.123 231.916C215.32 231.916 215.32 231.719 215.516 231.522C215.516 231.325 215.516 231.129 215.32 231.129H215.516C215.516 230.932 215.32 230.735 215.123 230.538C215.32 230.538 215.32 230.341 215.516 230.145C215.516 229.948 215.516 229.948 215.32 229.751L215.123 229.554L215.32 229.358C214.926 228.964 215.32 228.374 215.32 227.98C215.32 227.586 215.32 227.39 215.32 226.996C215.32 226.603 215.32 226.209 215.516 225.815C215.713 225.422 216.107 225.225 216.107 224.831C216.107 224.635 215.91 224.241 215.91 224.044C215.91 223.848 215.91 223.848 215.91 223.651C215.91 223.454 216.107 223.257 216.107 223.06C216.304 222.667 216.107 222.667 215.91 222.47C215.713 222.273 215.91 221.486 216.304 221.683C215.91 221.486 215.713 220.896 215.91 220.305L216.107 220.109V219.912C216.304 219.518 216.5 219.321 216.697 219.125L216.5 218.928C216.304 218.731 216.304 218.928 216.304 218.534C216.697 218.338 216.697 218.141 216.697 217.747C216.697 217.55 216.894 217.55 216.697 217.747Z" fill="#03A678"/>
<path d="M218.862 219.321C219.059 219.321 218.665 219.715 218.665 219.911C218.665 220.108 218.665 220.108 218.862 220.305C219.059 220.698 218.665 221.092 218.665 221.682C218.468 222.076 218.665 222.666 218.468 223.257C218.468 223.847 218.468 224.437 218.468 225.028C218.468 225.618 218.468 226.208 218.468 226.602C218.468 226.996 218.468 227.586 218.665 227.979C218.665 228.57 218.665 228.963 218.468 229.554C218.272 230.144 218.075 230.538 217.878 231.128C217.878 231.325 217.681 231.718 217.681 231.915C217.681 232.112 217.681 232.506 217.681 232.702C217.681 233.096 217.484 233.489 217.681 233.686C217.681 233.686 217.681 233.686 217.484 233.686C217.484 233.686 217.288 233.686 217.484 233.686C217.681 233.883 217.681 233.686 217.878 233.686C217.681 233.489 217.878 233.096 217.878 232.899C217.878 232.702 217.878 232.506 217.878 232.309C217.878 232.112 217.878 231.718 218.075 231.522C218.075 231.325 218.272 230.931 218.272 230.734C218.468 230.144 218.665 229.751 218.862 229.16C219.059 228.767 219.059 228.373 218.862 227.783C218.665 226.799 218.665 225.618 218.665 224.437C218.665 223.847 218.665 223.257 218.665 222.666C218.665 222.076 218.665 221.682 218.862 221.092C218.862 220.895 219.059 220.698 219.059 220.502C219.059 220.305 219.059 220.108 218.862 219.911C218.862 219.715 219.059 219.714 218.862 219.321C219.059 219.124 219.059 219.321 218.862 219.321C218.862 219.124 218.862 219.124 218.862 219.321Z" fill="#03A678"/>
<path d="M213.155 227.587C213.155 228.177 213.155 228.571 213.155 229.161C213.155 229.751 213.352 230.145 213.352 230.735C213.352 231.719 212.761 232.703 212.958 233.49C212.761 232.703 213.352 231.719 213.352 230.735C213.352 230.342 213.352 229.751 213.352 229.358C213.352 228.768 213.352 228.177 213.155 227.587C213.155 226.603 213.352 225.619 213.352 224.438C213.548 223.258 213.548 222.274 213.548 221.29C213.548 220.699 213.745 220.109 213.942 219.519C214.139 219.125 214.336 218.731 214.139 218.535C214.139 218.535 213.942 218.535 214.139 218.535C214.336 218.928 213.942 219.322 213.745 219.715C213.548 220.109 213.352 220.699 213.352 221.093C213.352 222.077 213.155 223.258 213.155 224.241C213.352 225.422 213.155 226.406 213.155 227.587Z" fill="#03A678"/>
<path d="M212.171 231.325C212.171 230.735 212.171 230.341 211.975 229.751C211.975 228.767 211.778 227.586 211.778 226.602C211.778 225.618 211.975 224.634 212.171 223.651C212.368 222.667 212.565 221.486 212.368 220.502C212.565 221.486 212.368 222.47 212.368 223.257C212.171 224.241 211.975 225.225 211.975 226.209C211.975 227.193 211.975 228.177 211.975 229.161C211.975 229.751 211.975 230.144 212.171 230.735C211.975 230.735 211.975 230.932 212.171 231.325C212.171 231.522 212.171 231.916 211.778 232.112C211.384 232.506 211.188 232.506 210.991 233.096C210.794 233.49 210.991 234.08 210.794 234.474C210.794 234.474 210.794 234.671 210.794 234.474C210.991 234.08 210.991 233.883 210.991 233.49C210.991 233.293 210.991 233.096 211.188 232.899C211.384 232.703 211.581 232.506 211.778 232.309C212.171 231.916 212.171 231.719 212.171 231.325Z" fill="#03A678"/>
<path d="M210.203 226.405C210.203 227.98 209.81 229.357 209.613 230.932C209.613 231.719 209.613 232.506 209.81 233.293C209.416 231.915 209.81 230.341 210.007 228.767C210.203 227.98 210.203 227.193 210.203 226.602C210.203 225.815 210.203 225.028 210.007 224.241C209.81 223.257 209.81 222.273 210.007 221.092C210.007 221.092 210.007 221.092 209.81 221.092C209.613 221.879 209.613 222.863 209.81 223.651C210.007 224.634 210.203 225.422 210.203 226.405Z" fill="#03A678"/>
<path d="M208.432 224.044C208.629 223.06 208.629 222.076 208.629 221.092C208.629 222.863 208.432 224.438 208.038 226.209C207.842 227.98 207.645 229.751 207.448 231.522C207.448 232.506 207.251 233.687 207.251 234.67H207.448C207.645 232.899 207.645 230.932 207.842 229.16C207.842 227.586 208.235 225.815 208.432 224.044Z" fill="#03A678"/>
<path d="M206.661 222.273C206.465 223.06 206.465 223.847 206.465 224.634C206.465 225.422 206.268 226.209 206.071 226.996C205.874 228.57 205.481 230.144 205.284 231.915C205.284 232.899 205.087 233.687 205.087 234.67C205.087 231.522 205.874 228.177 206.268 225.028C206.661 224.044 206.661 223.06 206.661 222.273Z" fill="#03A678"/>
<path d="M204.497 223.257C204.497 223.257 204.3 223.257 204.497 223.257C204.103 226.603 203.71 229.948 203.119 233.293C202.922 234.277 202.726 235.261 202.529 236.048H202.726C203.513 232.703 203.906 229.358 204.3 226.012C204.3 225.225 204.3 224.241 204.497 223.257Z" fill="#03A678"/>
</svg>
