<svg width="165" height="274" viewBox="0 0 165 274" fill="none" xmlns="http://www.w3.org/2000/svg">
<path d="M83.344 45.818C90.992 52.771 93.276 63.697 97.448 73.133C99.137 76.907 101.123 80.483 103.209 84.059C104.103 85.549 104.997 87.1379 106.387 88.2299C107.679 89.2239 109.268 89.8199 110.956 90.2169C115.823 91.5079 114.929 91.011 119.995 91.409C126.55 91.806 121.683 91.409 128.239 91.806C129.034 91.905 129.729 91.905 130.424 92.203C131.616 92.799 132.212 94.091 132.411 95.481C132.51 96.772 131.219 100.447 130.921 101.739C130.821 102.335 130.623 102.831 130.126 103.228C129.729 103.526 129.232 103.626 128.736 103.626C126.054 103.924 123.372 103.824 120.69 103.725C104.897 103.129 106.586 103.03 91.091 100.249C89.999 100.05 89.8 97.468 88.807 96.872C87.615 96.077 86.92 94.885 86.324 93.693C82.847 86.84 82.053 78.993 80.265 71.544C79.172 66.677 77.5831 62.008 76.0931 57.241C75.2991 54.758 72.6171 49.8909 74.0071 47.2089C75.4971 44.3289 81.159 43.832 83.344 45.818Z" fill="#757575"/>
<path d="M43.4149 260.561C43.4149 260.66 43.4149 260.859 43.3159 260.958C43.2159 261.058 43.0179 261.157 42.8189 261.157C40.9319 261.356 39.144 261.157 37.356 260.66C37.257 260.66 37.0579 260.561 36.9589 260.462C36.8599 260.362 36.86 260.164 36.76 260.065C36.462 258.674 36.462 257.283 36.661 255.794C36.661 255.694 36.661 255.496 36.76 255.496C36.86 255.396 37.058 255.396 37.158 255.396C38.548 255.297 41.6269 254.9 42.8189 255.694C44.1099 256.29 43.5139 259.469 43.4149 260.561Z" fill="#EEDDD0"/>
<path d="M72.12 260.759C72.12 260.858 72.12 261.057 72.021 261.156C71.921 261.256 71.7229 261.256 71.6229 261.256C69.8359 261.256 67.9479 261.355 66.1599 261.256C65.9619 261.256 65.862 261.256 65.763 261.156C65.564 261.057 65.564 260.858 65.564 260.66C65.366 259.269 65.267 257.879 65.366 256.389C67.054 256.389 68.842 256.488 70.531 256.488C71.723 256.488 72.1199 256.389 72.3189 257.481C72.4179 258.475 72.219 259.766 72.12 260.759Z" fill="#EEDDD0"/>
<path d="M47.785 241.391C47.289 245.96 46.792 250.429 45.6 254.8C45.402 255.594 45.104 256.389 44.508 256.885C44.011 257.283 43.316 257.283 42.72 257.283C41.131 257.283 39.5411 257.283 37.9521 257.183C37.3561 257.183 36.76 257.183 36.264 256.885C35.27 256.289 35.0721 254.8 35.0721 253.608C32.7871 223.115 29.013 192.523 21.365 163.222C19.875 157.56 18.286 151.899 17.888 146.038C17.491 140.178 18.385 133.921 21.563 129.352C25.934 122.896 33.6811 120.711 40.8331 120.214C44.5081 120.015 48.183 120.115 51.758 121.008C55.93 122.101 55.433 123.889 55.235 128.458C54.937 137.596 54.6391 146.734 54.2411 155.772C53.3481 173.949 52.1561 192.225 50.6661 210.401C49.8711 220.731 48.878 231.061 47.785 241.391Z" fill="#4C4C4C"/>
<path d="M63.6769 254.8C63.7769 255.495 63.9749 256.19 64.3729 256.587C64.7699 256.985 65.2669 257.183 65.8629 257.283C68.3459 257.879 70.8289 258.077 73.3119 257.779C75.6959 227.783 79.1719 197.787 83.8409 168.089C85.0319 160.739 86.2239 153.388 86.2239 145.939C86.2239 138.49 84.9329 130.842 81.3569 124.584C78.4769 119.618 74.3049 115.744 69.5379 113.261C64.7699 110.778 52.3539 108.394 51.5599 117.035C50.4669 127.862 50.3679 138.887 50.6659 149.813C51.1619 172.459 53.9439 194.906 57.4199 217.255C59.3069 229.869 61.4919 242.285 63.6769 254.8Z" fill="#4C4C4C"/>
<path d="M33.5819 42.1447C32.5889 42.4427 31.7939 43.1377 30.9989 43.8327C29.8069 44.9257 28.5159 46.1178 27.3239 47.2098C24.3449 49.9908 21.4639 52.6727 19.1799 56.0497C17.6899 58.3347 16.4979 60.8177 15.1069 63.1017C12.2269 67.6707 8.15487 71.3457 5.27387 76.0147C3.98287 78.0997 2.9899 80.2857 2.0959 82.4707C0.605895 86.2447 -0.685131 90.3167 0.406869 94.2897C0.903869 96.1777 2.19486 98.0647 4.08186 98.5607C5.37286 98.8587 6.86288 98.4618 8.05488 97.9648C11.4319 96.3758 14.1139 93.5947 16.3989 90.6147C26.1319 78.2987 31.1979 63.1017 38.0509 49.1968C38.8459 47.7067 40.0379 46.1177 38.9449 44.5287C37.8529 42.8397 35.4689 41.5487 33.5819 42.1447Z" fill="#757575"/>
<path d="M42.6199 43.0382C41.6269 42.5412 40.4349 41.9452 39.5409 42.6412C39.1439 42.9392 38.9448 43.4352 38.6468 43.9322C24.0468 72.5382 30.5029 68.7632 22.6559 87.5362C20.9679 91.5092 18.1869 110.678 17.1929 114.85C15.3059 122.597 15.7029 127.166 16.1009 135.212C16.1999 136.503 16.1999 137.894 16.7959 138.986C17.3919 140.277 18.5839 141.171 19.7759 141.966C26.5299 146.436 27.6219 148.223 35.6679 148.323C43.8119 148.521 51.8579 150.806 59.8039 149.415C63.9749 148.72 68.2459 148.025 72.4179 147.329C78.3779 146.336 84.8338 145.045 88.5088 140.277C90.1968 138.092 91.0909 135.41 91.7859 132.729C95.4619 117.631 91.8859 101.839 87.6149 86.9402C83.7409 73.2332 79.6689 59.2282 74.1069 46.1172C71.0279 38.9662 66.6569 44.3292 60.6979 45.5212C54.7379 46.7132 48.1829 45.9182 42.6199 43.0382Z" fill="#9A9C9F"/>
<path d="M71.6229 54.3609C70.9279 56.3469 70.3319 58.4329 69.9349 60.5189C69.6369 62.7039 69.538 64.9889 69.637 67.1739C69.736 77.6029 70.431 87.9329 71.723 98.1629C72.219 102.136 72.2189 106.01 72.3189 109.983C72.4179 112.466 72.915 114.949 73.213 117.333C73.61 120.015 73.0139 124.584 73.6099 127.265C75.2979 134.417 74.9009 141.072 76.3909 148.322C78.1789 146.833 79.669 146.435 80.96 146.336C82.251 146.237 83.6419 145.343 84.9329 145.343C88.1109 145.243 91.19 142.76 92.78 138.887C94.27 135.211 94.2699 130.841 94.1699 126.769C93.9719 116.638 93.276 106.506 91.588 96.6729C90.793 92.1039 89.7999 87.6349 88.7069 83.1649C86.2239 72.5369 83.8399 61.9089 81.3569 51.2819C80.8609 48.9969 79.0729 38.8659 76.3909 40.3559C75.2979 40.9519 74.404 45.6199 74.007 47.0109C73.213 49.3939 72.4179 51.8779 71.6229 54.3609Z" fill="#757575"/>
<path d="M70.7299 13.042C73.0139 17.909 73.014 23.571 72.518 28.934C72.319 30.623 72.12 32.312 71.524 33.901C69.438 39.264 63.181 41.946 57.321 42.343C54.54 42.542 51.759 42.443 49.176 41.449C45.501 40.158 42.422 37.278 40.435 34C38.449 30.623 37.356 26.849 36.86 22.975C36.462 20.095 36.363 17.015 37.257 14.234C38.648 9.96299 42.323 6.78496 46.594 5.19596C55.334 1.91796 66.4589 4.10297 70.7299 13.042Z" fill="#EEDDD0"/>
<path d="M70.928 52.1763C70.233 54.0633 69.6371 55.9503 69.2391 57.9373C68.8421 60.1223 68.743 62.5063 68.743 64.7903C68.445 90.0193 72.319 124.087 75.1 149.018C75.795 148.323 76.49 148.819 77.583 147.627C77.781 143.555 75.3981 130.742 74.6031 126.769C71.8221 112.466 73.8081 97.0713 71.3251 82.5693C71.0271 80.6823 70.63 78.6963 70.531 76.7093C70.531 74.7233 70.928 72.7363 70.928 70.6503C70.928 67.9693 70.133 65.2873 70.332 62.6053C70.531 59.9233 71.7231 57.5393 72.6161 55.1563C73.7091 52.2753 75.9941 44.9253 74.7021 41.9453C73.1131 45.0243 72.12 48.8983 70.928 52.1763Z" fill="#E9EEEA"/>
<path d="M79.47 52.574C77.98 53.07 76.49 53.6661 75 54.1631C75.099 57.3411 75.6951 60.4201 76.6891 63.2021C76.7881 63.4001 76.8871 63.698 76.7881 63.996C76.7881 64.294 76.589 64.493 76.49 64.691C74.603 67.87 72.6161 70.9491 70.7291 74.1271C70.3321 68.3661 69.9351 62.407 71.2261 56.845C71.8221 54.461 72.6161 52.2761 73.5101 50.0911C74.1061 48.5011 74.6031 44.9261 75.4971 43.8331C78.4771 39.7611 78.179 52.971 79.47 52.574Z" fill="#838383"/>
<path d="M38.6469 40.1582C35.7668 49.0972 27.8209 58.1362 26.8279 67.3732C26.6289 69.0622 25.2389 71.0482 24.6429 72.6382C23.9469 74.5252 23.9469 75.8162 22.6559 77.5042C18.4839 83.0672 17.6899 89.6222 15.5049 95.6812C14.3129 99.0582 12.6239 102.435 11.4319 105.812C9.14788 112.467 8.74988 119.42 8.45288 126.273C8.35288 129.849 8.25391 133.524 8.25391 137.1C8.25391 138.192 8.25385 139.285 8.84985 140.179C9.34585 141.172 10.4389 141.867 11.4319 142.563C21.0669 149.217 34.9719 152.594 48.3809 151.601C48.4809 149.813 48.6789 148.025 49.2749 146.238C49.7719 144.748 50.4669 143.357 50.9639 141.867C51.6589 139.682 51.7578 137.497 51.9568 135.312C52.3538 128.16 52.7519 120.91 53.2479 113.758C53.7449 105.316 54.2409 96.8732 55.9299 88.5302C56.4269 86.1462 57.0229 83.7622 56.9229 81.3782C56.8239 79.4912 56.3269 77.5042 56.1289 75.6172C55.6319 71.9422 56.2279 68.1682 55.3339 64.5922C54.2409 59.9242 50.9638 55.5542 49.8708 50.8852C48.7789 46.7142 44.9049 42.2442 38.6469 40.1582Z" fill="#757575"/>
<path d="M57.3209 57.1435C59.6049 62.4075 61.9889 67.8705 61.7899 73.4325C61.6909 76.2135 60.996 78.8955 60.4 81.6765C59.009 88.6295 58.5129 95.6815 58.0159 102.733C57.1219 115.149 56.3269 127.664 55.4329 140.079C55.3339 141.768 53.3479 149.118 52.1559 150.508C50.9639 151.899 49.4739 151.502 47.3879 150.707C49.6729 137.795 51.56 120.512 52.851 107.501C53.844 96.4765 54.9369 85.4505 55.9299 74.4255C56.1289 72.7375 56.2279 70.9495 55.9299 69.1615C55.5329 66.9765 54.341 64.8905 53.348 62.7055C50.567 56.9445 47.984 50.3895 47.189 44.2305C54.44 46.7145 55.1349 52.1765 57.3209 57.1435Z" fill="#E9EEEA"/>
<path d="M40.8331 58.2354C43.8121 60.6194 47.09 62.7054 50.566 64.6914C48.679 65.4864 46.593 66.2814 44.508 66.8764C47.189 68.8634 49.7721 70.9494 52.0561 73.0354C54.2411 75.1204 53.943 78.9944 55.235 81.2794C56.228 78.3984 57.916 74.6244 58.612 71.8434C59.903 66.5784 55.2351 61.7124 52.8511 56.6464C51.9571 54.7594 51.063 45.9194 47.289 46.7134C46.097 47.1114 40.3361 57.8384 40.8331 58.2354Z" fill="#838383"/>
<path d="M79.073 118.822C78.676 119.12 78.378 119.518 78.179 120.114C78.08 120.709 78.278 121.405 78.775 121.405C82.251 119.12 85.331 115.942 88.41 112.863C89.105 112.168 91.787 110.38 90.893 108.89C90.197 107.698 88.112 110.38 87.516 110.976C84.735 113.558 81.854 116.141 79.073 118.822Z" fill="#838383"/>
<path d="M26.132 112.566C24.742 111.772 23.351 111.076 22.06 110.182C20.67 109.189 19.279 107.898 17.193 107.699C17.491 108.295 16.697 108.99 16.697 109.586C16.697 110.282 17.59 110.778 18.385 111.275C24.841 114.851 31.297 118.327 37.654 121.903C38.747 122.499 39.641 122.896 41.031 122.896C43.415 119.618 29.41 114.354 26.132 112.566Z" fill="#838383"/>
<path d="M0.70498 91.21C1.59898 89.721 3.38695 89.125 5.07595 88.827C9.24695 88.131 13.618 88.926 17.591 90.615C21.564 92.204 25.139 94.588 28.715 96.971C32.49 99.454 36.165 101.838 39.939 104.321L42.323 105.911C43.217 106.109 43.813 107.003 43.813 107.897C43.813 108.791 43.5149 109.685 43.2169 110.48C42.3229 112.665 41.4289 114.949 40.4359 117.134C35.4689 115.843 30.4039 114.651 25.636 112.764C20.2729 110.678 15.207 107.798 10.241 104.719C7.16199 102.832 4.08294 100.845 1.89694 98.064C0.506936 95.978 -0.58602 93.296 0.70498 91.21Z" fill="#757575"/>
<path d="M50.1691 108.99C50.9641 109.089 51.7581 109.188 52.3541 109.685C52.9501 110.182 53.2482 111.175 52.7522 111.771C54.1422 112.466 55.8312 112.566 57.0232 113.559C57.9172 114.353 58.3141 115.645 58.2141 116.837C58.1151 118.028 57.5191 119.121 56.7251 120.015C56.1291 120.71 55.2352 121.405 54.2412 121.505C53.2482 121.703 52.1562 121.306 51.2622 120.909C48.7792 119.916 46.2952 118.922 43.8122 117.929C42.3222 117.333 40.5351 116.439 40.4351 114.85C40.3361 114.155 40.6341 113.459 40.8331 112.864C41.3291 111.572 41.8261 108.593 43.3161 108.096C45.1041 107.401 48.2821 108.99 50.1691 108.99Z" fill="#EEDDD0"/>
<path d="M83.741 265.229C81.854 264.534 79.6689 264.733 77.5829 264.733C76.3909 264.733 74.9999 264.633 74.2059 263.64C73.5099 262.845 73.5099 261.753 73.6099 260.66C73.6099 260.362 73.6099 260.064 73.5099 259.866C73.3119 259.667 73.0139 259.568 72.7159 259.568C70.2329 259.369 67.7499 259.17 65.2659 258.972C65.0679 258.972 64.7699 258.972 64.5709 259.071C64.2729 259.27 64.2729 259.568 64.2729 259.965C64.2729 262.845 64.2729 265.825 64.2729 268.706C64.2729 269.004 64.2729 269.401 64.3729 269.699C64.6709 270.394 65.5639 270.493 66.2599 270.593C71.8219 271.288 77.483 271.884 83.145 272.381C85.131 272.579 88.4089 272.778 87.8129 269.997C87.2169 268.01 85.827 266.024 83.741 265.229Z" fill="#272826"/>
<path d="M37.4561 258.674C36.8601 258.674 36.1642 258.674 35.8661 259.17C35.6681 259.468 35.6681 259.766 35.5681 260.164C35.4691 261.157 35.3701 262.051 35.2701 263.044C35.1711 263.64 35.1711 264.236 34.7741 264.733C34.4761 265.229 33.8801 265.428 33.2841 265.626C31.6951 266.024 30.1051 265.924 28.5161 266.123C26.9271 266.222 25.2391 266.62 24.1461 267.812C23.3511 268.706 23.0531 269.897 22.9541 270.99C22.9541 271.189 22.9541 271.487 23.0531 271.685C23.2521 272.083 23.7491 272.182 24.1461 272.182C25.4371 272.381 26.7281 272.281 28.0201 272.281C30.7011 272.182 33.2841 272.083 35.9661 272.083C38.5481 271.983 41.1311 271.884 43.7131 271.387C44.0111 271.288 44.3091 271.288 44.4081 270.99C44.5081 270.791 44.5081 270.593 44.6071 270.394C44.8061 268.408 45.1041 266.52 45.3021 264.534C45.4021 263.243 45.9981 261.455 45.3021 260.263C44.0111 258.177 39.4421 258.674 37.4561 258.674Z" fill="#272826"/>
<path d="M129.232 101.839C129.232 102.038 129.133 102.336 129.331 102.435C129.431 102.634 129.629 102.633 129.828 102.732C134.794 104.023 139.86 104.52 144.925 104.123C146.117 104.023 147.309 103.826 148.104 102.932C148.501 102.435 148.7 101.937 148.899 101.342C149.296 99.9515 149.693 98.3625 148.799 97.1705C148.203 96.3755 147.111 95.9785 146.117 95.8795C145.124 95.7795 144.032 95.7795 143.038 95.3825C142.74 95.2835 142.542 95.1835 142.343 94.8855C142.244 94.6875 142.244 94.4885 142.144 94.2895C141.846 93.5945 140.952 93.4955 140.257 93.4955C137.973 93.4955 135.589 93.3965 133.304 93.3965C131.219 93.3965 131.318 94.4885 130.821 95.9785C130.126 97.9645 129.53 99.8525 129.232 101.839Z" fill="#FFCBC5"/>
<path d="M45.1041 13.4391C45.3021 12.4461 45.6001 11.3531 46.2951 10.5591C47.4871 8.96913 49.6721 8.4731 51.6591 8.0761C53.8441 7.6781 56.2281 7.2811 58.2141 8.2741C58.5121 8.3731 58.7111 8.57213 59.0091 8.57213C59.4061 8.57213 59.7041 8.47313 60.1021 8.37413C64.2731 6.88413 68.8421 9.86313 71.6231 15.0281C71.6231 13.8361 72.9151 10.8571 70.9281 8.37413C68.9421 5.89013 66.3592 3.80509 63.1812 2.71209C60.1022 1.61909 56.7251 1.22212 53.4471 1.02312C51.2621 0.825122 49.0771 0.725097 46.8911 1.1231C43.8121 1.7191 41.0311 3.50713 38.9451 5.69213C36.8601 7.87713 35.4691 10.7571 34.4761 13.6381C33.9791 15.0281 33.6812 16.5181 33.6812 17.9091C33.6812 19.3991 33.9791 20.8881 34.3761 22.2791C35.0721 24.8611 36.0651 27.3451 37.3561 29.6291C37.4561 29.8281 37.6541 30.1261 37.8531 30.2251C38.1511 30.4241 38.5481 30.4241 38.8461 30.4241C40.6341 30.4241 42.6201 30.3241 43.8121 29.0331C44.0111 28.7351 44.2101 28.4371 44.2101 28.1391C44.0111 26.9471 41.9251 27.1461 41.8261 25.5571C41.7271 24.1661 42.9181 24.0671 43.7131 23.3721C44.7061 22.3781 44.3091 20.6901 44.3091 19.3991C44.4081 17.3131 44.6071 15.3261 45.1041 13.4391Z" fill="#7A6356"/>
<path d="M70.4312 33.8998C69.9352 34.7938 69.1401 35.4898 68.2461 35.8868C67.7501 36.1848 67.1541 36.2837 66.6571 36.5817C66.6571 36.0847 66.6571 35.5887 66.5581 34.9927C66.4581 34.1977 66.3591 33.3037 65.8631 32.6087C65.5651 32.1117 65.0681 31.8138 64.5711 31.5168C62.9821 30.7218 61.1941 30.8207 59.5061 31.2187C58.3141 31.4167 57.0231 31.8147 56.2281 32.8077C55.8312 33.3037 55.6321 33.8007 55.4331 34.3967C55.1351 35.0917 54.9371 35.8868 54.7381 36.6808C54.6391 37.3768 54.6391 38.0717 54.6391 38.8667C52.2551 38.3697 49.8711 37.5747 47.6861 36.5817C46.8911 36.1847 45.9981 35.7877 45.5011 35.0917C45.0041 34.4957 44.8061 33.7017 44.5081 33.0057C44.2101 32.3107 43.9121 31.6158 43.5141 30.9208C43.3161 30.6228 43.1171 30.2247 42.8191 30.0267C42.0241 29.3307 41.0311 29.4308 40.0381 29.4308C38.9451 29.5298 38.5481 29.6287 38.7471 30.8207C39.0451 32.7077 40.5351 34.1978 41.3291 35.7878C42.5211 38.0718 44.5081 39.9587 46.7921 41.1507C49.0771 42.3427 51.7581 42.7397 54.3411 42.6407C54.5391 42.6407 54.6391 42.6407 54.8371 42.5417C55.1351 43.2367 56.1291 43.5347 56.8241 43.6337C57.6191 43.7337 58.5121 43.6337 59.3071 43.5347C60.3001 43.4357 61.3931 43.3357 62.3861 43.2367C63.3791 43.1377 64.3731 43.0378 65.0681 42.4418C65.8631 41.9458 66.2601 41.0518 66.4581 40.1578C66.9551 39.8598 67.3521 39.4627 67.7501 39.2637C68.4451 38.7667 69.1401 38.3697 69.8361 37.7737C71.3251 36.3827 71.9211 34.1977 71.9211 32.1117C71.2261 32.5097 70.8292 33.3038 70.4312 33.8998ZM60.4991 37.9728C59.9031 38.0718 59.2081 38.0717 58.6121 37.8727C58.0161 37.6747 57.4201 37.2768 57.2211 36.6808C57.0231 36.1848 57.1221 35.3897 57.7181 35.0917C58.3141 34.8937 59.2081 35.3898 59.8041 35.3898C60.8961 35.4898 61.8901 35.1917 62.8831 34.8937C63.2801 34.6947 63.7771 34.5957 64.1741 34.5957C64.5711 34.5957 65.1672 34.6947 65.3661 35.0917C65.7631 35.5887 65.4651 36.3827 64.9691 36.7807C64.4721 37.1777 63.8762 37.3768 63.1812 37.4758C62.3862 37.6748 61.4921 37.8728 60.4991 37.9728Z" fill="#D8D0CB"/>
<path d="M104.699 261.851C104.301 262.447 103.805 262.845 103.209 263.242C101.62 264.335 99.7321 265.03 98.0441 265.824C96.3551 266.619 94.7661 267.513 93.1771 268.407C92.6801 268.705 92.1841 269.003 91.8861 269.499C91.5881 270.095 91.5881 270.791 91.6871 271.486C91.6871 271.784 91.7861 272.082 91.8861 272.38C92.1841 272.777 92.6801 272.877 93.1771 272.976C95.1631 273.174 97.1501 272.38 99.1361 271.983C103.308 270.989 107.579 271.089 111.751 270.393C112.347 270.294 112.943 270.195 113.34 269.698C113.638 269.301 113.737 268.705 113.737 268.208C113.936 264.136 113.638 260.064 112.843 255.991C111.552 256.19 110.261 256.389 108.97 256.587C108.175 256.686 107.182 256.686 106.487 257.084C104.997 258.077 105.593 260.461 104.699 261.851Z" fill="#7A6356"/>
<path d="M131.417 255.495C131.119 255.495 130.821 255.495 130.523 255.693C130.027 255.991 129.828 256.488 129.729 257.084C129.232 259.468 130.126 262.249 128.934 264.335C128.04 266.023 123.571 267.116 121.783 267.91C119.995 268.705 118.108 269.798 117.71 271.685C117.71 271.883 117.611 272.082 117.71 272.281C117.909 272.678 118.306 272.777 118.704 272.777C120.293 272.976 124.465 272.479 126.054 272.38C129.331 272.181 132.51 271.983 135.788 271.685C136.582 271.585 137.377 271.585 137.973 270.989C138.668 270.394 138.767 269.301 138.767 268.407C138.867 265.129 138.668 261.752 138.072 258.474C137.873 257.183 138.072 255.197 136.483 255.197C134.794 255.097 133.106 255.395 131.417 255.495Z" fill="#7A6356"/>
<path d="M141.35 151.898C137.278 180.504 137.476 209.507 138.469 238.41C138.569 242.185 139.065 245.363 139.165 249.833C139.165 250.826 138.767 251.819 137.774 251.918L130.027 252.117C129.133 252.216 128.14 252.216 127.544 251.521C127.047 251.025 126.948 250.329 126.848 249.634C123.571 223.809 123.67 197.687 117.412 172.26C115.327 163.916 113.837 155.374 113.142 146.832C112.844 143.555 112.744 140.277 113.539 137.198C114.929 131.834 119.002 127.265 124.266 125.378C128.934 123.69 138.072 123.789 141.151 128.557C145.025 134.317 142.244 145.74 141.35 151.898Z" fill="#272826"/>
<path d="M95.9581 137.297C96.2561 174.941 97.3491 212.586 102.414 249.932C102.514 250.826 102.712 251.819 103.507 252.316C104.004 252.614 104.599 252.614 105.096 252.614C106.387 252.614 110.261 252.614 111.552 252.614C112.148 252.614 112.744 252.614 113.34 252.415C115.128 251.72 115.525 249.435 115.625 247.548C117.114 220.631 119.3 193.813 123.968 167.194C124.862 162.129 125.855 157.162 127.047 152.196C128.537 145.839 130.424 139.482 130.424 133.026C130.424 131.437 130.325 129.848 129.629 128.358C129.033 127.067 127.941 125.974 126.848 124.981C122.975 121.802 117.909 120.313 112.943 119.816C109.566 119.518 100.13 118.326 97.7461 121.107C94.8661 124.484 95.8591 133.424 95.9581 137.297Z" fill="#272826"/>
<path d="M92.979 134.615C92.979 134.814 92.978 134.913 93.078 135.112C93.177 135.211 93.376 135.31 93.574 135.41C94.965 135.807 96.455 136.105 97.845 136.502C100.13 137.098 102.414 137.694 104.798 137.496C105.593 137.396 106.288 137.297 106.983 136.9C107.579 136.502 108.076 135.807 107.877 135.112C107.679 134.317 106.884 133.821 106.089 133.622C105.295 133.423 104.401 133.423 103.507 133.324C101.818 133.125 100.229 132.331 98.541 131.834C97.349 131.437 95.958 131.238 94.667 131.536C93.177 131.933 93.078 133.324 92.979 134.615Z" fill="#4C4C4C"/>
<path d="M104.004 137.298C105.195 138.192 106.288 139.284 107.182 140.377C107.679 140.973 108.175 141.668 108.771 142.165C109.963 143.257 111.751 143.655 113.439 143.357C114.631 143.158 115.724 142.562 116.221 141.569C117.015 139.98 115.923 138.291 114.631 137C112.347 134.715 109.268 133.027 105.891 132.232C105.493 132.133 105.195 132.034 104.798 132.133C103.606 132.232 102.315 133.424 102.017 134.517C101.818 135.609 103.11 136.603 104.004 137.298Z" fill="#4C4C4C"/>
<path d="M111.254 60.1218C109.168 66.0808 105.99 71.7428 102.017 76.7088C100.825 78.1988 99.4339 79.8878 99.6329 81.8738C99.8319 84.3568 102.613 85.9458 105.096 85.6478C107.48 85.3508 109.566 83.5628 110.956 81.5758C113.638 77.9998 115.028 73.6298 116.32 69.2598C116.916 67.3728 117.412 65.5848 118.008 63.6978C118.505 62.0088 119.001 60.3208 118.703 58.6318C118.406 56.8438 116.717 54.7578 114.73 55.1558C112.843 55.5528 111.85 58.5328 111.254 60.1218Z" fill="#EEDDD0"/>
<path d="M139.661 53.0701C139.264 55.1551 141.151 57.0431 143.038 57.9371C144.925 58.8301 147.111 59.3271 148.799 60.6181C150.885 62.3071 151.779 64.9891 152.077 67.5711C152.673 72.5371 151.58 77.6031 150.388 82.4701C146.912 96.6731 142.343 110.976 143.734 125.478C143.833 126.173 143.833 126.868 143.634 127.464C143.436 127.862 143.138 128.259 142.74 128.557C139.463 131.437 134.695 131.437 130.325 131.239C124.365 130.941 118.406 130.643 112.545 130.345C107.083 130.047 101.62 129.649 96.4551 127.961C94.9651 127.464 93.4751 126.769 92.7801 125.378C92.0841 124.087 92.4821 122.498 92.8791 121.008C95.6601 110.678 99.931 100.746 105.493 91.6081C107.281 88.7271 109.168 85.9461 110.559 82.8671C114.433 74.9211 115.128 65.6841 114.035 56.9431C113.936 56.2481 113.837 55.4531 114.135 54.7581C114.433 54.2621 114.83 53.8641 115.327 53.5661C118.704 51.2821 122.478 50.7851 126.252 52.0761C127.544 52.3741 139.264 55.1551 139.661 53.0701Z" fill="#F2D292"/>
<path d="M103.507 131.139C103.01 132.431 102.414 133.821 101.123 134.318C100.229 134.616 99.2359 134.516 98.2429 134.318C96.7529 134.119 95.1639 133.821 93.6739 133.622C92.6799 133.424 91.4889 133.225 91.0909 132.331C90.4949 131.239 91.4889 130.047 92.2829 129.054C94.4679 126.173 95.2629 122.697 96.0569 119.22C96.9509 114.949 97.9449 110.678 97.7459 106.407C97.6469 103.626 97.0509 100.646 98.2429 98.0639C99.2359 95.8789 101.421 94.2899 103.805 93.1969C105.295 92.6009 107.977 91.5089 109.665 91.6079C111.95 91.7069 111.552 92.6009 111.652 94.5879C111.85 98.6599 111.453 102.732 110.758 106.705C109.069 115.148 106.288 123.193 103.507 131.139Z" fill="#417183"/>
<path d="M86.8201 105.315C89.0051 107.6 92.0841 109.09 94.0711 111.573C95.2631 113.063 95.9581 114.751 96.6531 116.44C99.0371 122.3 101.52 128.458 100.726 134.616C100.626 135.113 100.626 135.709 101.024 136.007C101.322 136.205 101.719 136.305 102.116 136.305C104.5 136.503 107.083 136.702 109.069 135.709C111.85 134.219 112.744 130.941 112.744 128.061C112.744 126.571 112.446 125.18 112.148 123.79C110.46 117.433 105.295 111.871 105.295 105.315C105.295 102.236 106.387 98.6599 104.202 96.3759C103.209 95.2829 101.62 94.7869 100.13 94.2899C96.9511 93.3959 87.6151 91.211 84.9331 93.794C82.1521 96.575 84.7341 103.031 86.8201 105.315Z" fill="#3A6576"/>
<path d="M146.018 19.3C147.111 21.683 147.309 24.365 147.409 26.948C147.607 33.106 147.011 39.3631 143.634 44.9261C141.747 48.0051 138.569 50.9841 134.298 51.4811C130.424 51.9781 126.451 50.3881 123.869 47.9051C121.286 45.4221 119.995 42.343 119.2 39.264C117.71 34.099 117.412 28.537 119.598 23.471C123.67 14.135 140.357 6.98302 146.018 19.3Z" fill="#EEDDD0"/>
<path d="M103.904 57.639C105.096 55.156 105.891 52.375 105.593 49.594C104.997 44.429 99.832 39.8601 94.17 39.5621C93.177 39.4631 92.184 39.562 91.389 39.959C89.8 40.655 89.006 42.3431 88.31 43.8331C86.622 47.8061 84.834 52.3751 86.92 56.2491C88.211 58.8311 92.184 62.109 95.263 62.904C99.236 63.897 102.414 60.619 103.904 57.639Z" fill="#EEDDD0"/>
<path d="M99.236 63.3002C100.924 62.8042 102.712 62.0093 104.401 62.4063C106.785 63.0023 107.579 65.4862 108.076 67.5712C109.566 74.5242 110.559 81.5762 111.155 88.6282C111.254 89.8202 111.354 90.9132 111.056 92.1052C110.758 93.3962 109.963 94.5882 109.168 95.6802C108.374 96.7732 107.48 97.7663 106.288 98.4613C104.103 99.6533 101.222 99.3553 98.64 98.9583C94.071 98.2633 89.601 97.2703 85.231 96.0783C84.635 95.8793 84.039 95.7803 83.741 95.2833C83.344 94.7863 83.443 94.0912 83.443 93.3962C83.443 91.6082 82.3509 89.9203 82.0529 88.1323C81.7549 86.4433 82.053 84.6552 82.45 82.9672C83.741 77.5042 85.33 71.9423 87.714 66.6773C90.098 61.5123 94.27 64.6912 99.236 63.3002Z" fill="#03A678"/>
<path d="M92.382 104.222C93.177 105.414 93.376 107.003 92.482 108.095C91.588 109.287 89.999 109.685 88.608 109.883C87.515 109.983 86.324 109.983 85.43 109.287C84.734 108.691 84.536 107.698 84.238 106.804C83.344 104.42 82.549 102.136 85.628 101.838C87.913 101.639 90.992 102.235 92.382 104.222Z" fill="#EEDDD0"/>
<path d="M137.575 75.0199C138.568 71.4439 139.562 67.8689 141.35 64.6899C141.946 63.5979 142.641 62.6049 143.634 61.9089C146.217 60.2209 149.991 62.0089 151.381 64.7899C152.772 67.5709 152.474 70.8489 151.878 73.9279C149.991 84.5549 146.018 94.8849 140.257 104.023C139.86 104.718 139.363 105.414 138.767 105.811C137.873 106.506 136.781 106.705 135.688 106.904C127.245 108.493 118.803 109.883 110.36 111.175C107.48 111.572 104.699 111.969 101.818 111.87C98.2419 111.77 94.5669 110.877 91.3889 109.188C89.9979 108.493 88.5089 107.4 88.5089 105.811C88.4089 104.321 89.8989 103.03 91.3889 102.931C92.8789 102.831 94.3689 103.527 95.5609 104.42C96.1569 104.917 96.7529 105.414 97.5469 105.712C98.5399 106.01 99.732 105.712 100.726 105.414C109.665 102.633 118.703 99.8509 127.643 97.1699C129.232 96.6729 131.218 96.4739 132.212 95.0839C133.205 93.4949 133.503 90.5149 134 88.6279C134.993 84.0589 136.284 79.4899 137.575 75.0199Z" fill="#EEDDD0"/>
<path d="M103.706 255.196C104.004 255.991 104.699 256.885 105.692 257.083C106.189 257.183 106.685 257.183 107.182 257.183C108.771 257.183 110.261 256.984 111.85 256.785C112.248 256.686 112.645 256.686 112.844 256.388C113.042 256.189 113.142 255.891 113.142 255.593C113.34 254.501 113.34 253.508 113.34 252.415C113.34 252.316 113.34 252.216 113.241 252.117C113.042 251.819 112.546 251.72 112.049 251.72C109.764 251.72 107.281 251.72 104.997 252.018C103.209 252.415 103.308 253.905 103.706 255.196Z" fill="#9A9C9F"/>
<path d="M128.636 254.501C128.735 254.899 128.934 255.395 129.331 255.693C129.729 255.991 130.324 256.09 130.821 256.09C132.708 256.289 134.695 256.388 136.582 256.09C137.178 255.991 137.873 255.892 138.171 255.494C138.37 255.296 138.37 254.998 138.469 254.799C138.568 253.905 138.568 252.912 138.271 252.018C138.171 251.819 138.171 251.621 137.973 251.521C137.774 251.323 137.377 251.323 136.979 251.224C134.695 251.025 132.013 250.826 129.828 251.224C127.841 251.621 128.338 253.309 128.636 254.501Z" fill="#9A9C9F"/>
<path d="M106.487 253.906C106.387 253.608 105.791 253.608 105.791 253.906C105.891 254.502 105.891 255.098 105.99 255.595C106.089 255.893 106.785 255.793 106.685 255.495C106.685 254.999 106.586 254.502 106.487 253.906Z" fill="white"/>
<path d="M109.069 254.104C108.97 253.607 107.976 253.607 107.976 254.104C107.976 254.7 107.976 255.395 108.076 255.991C108.175 256.488 109.168 256.388 109.168 255.892C109.268 255.296 109.069 254.7 109.069 254.104Z" fill="white"/>
<path d="M111.85 254.799C111.652 254.104 111.552 253.508 111.453 252.813C111.354 252.415 110.658 252.415 110.658 252.813C110.758 253.508 110.758 254.203 110.758 254.898C110.758 255.594 112.049 255.494 111.85 254.799Z" fill="white"/>
<path d="M131.318 252.118C131.318 251.721 130.424 251.721 130.424 252.118C130.424 252.814 130.424 253.41 130.424 254.105C130.424 254.601 131.516 254.601 131.417 254.105C131.417 253.41 131.417 252.814 131.318 252.118Z" fill="white"/>
<path d="M134.496 252.018C134.397 251.521 133.404 251.521 133.503 252.018C133.602 252.813 133.702 253.607 133.801 254.501C133.9 255.097 134.993 254.998 134.894 254.402C134.695 253.607 134.596 252.813 134.496 252.018Z" fill="white"/>
<path d="M137.476 252.515C137.377 252.018 136.384 252.018 136.483 252.515C136.483 253.21 136.582 253.806 136.781 254.502C136.98 255.098 137.973 254.8 137.874 254.303C137.774 253.707 137.576 253.111 137.476 252.515Z" fill="white"/>
<path d="M105.99 44.2301C105.493 41.8461 104.798 39.1641 102.712 37.8731C101.918 37.3761 101.024 37.1781 100.13 36.9791C97.8451 36.4821 95.4621 36.2841 93.0781 36.4821C90.4951 36.5821 87.7141 37.2771 86.0261 39.2631C85.1321 40.3561 84.6351 41.8461 84.4361 43.3361C84.2381 44.8261 84.3371 46.3161 84.4361 47.7061C84.5361 48.4011 84.6351 49.2951 85.3301 49.4941C86.0261 49.6931 86.6221 48.9971 87.0191 48.5011C87.7141 47.6071 88.3101 46.7131 89.0051 45.8191L89.3031 45.0241C89.3031 45.5211 89.4031 46.0181 89.5021 46.4151C89.7011 47.5071 89.8991 48.7991 89.0051 49.4941C89.9991 49.2951 90.2971 48.1031 90.3961 47.1101C90.4951 46.2161 90.5951 45.4221 90.6941 44.5281C90.9921 45.5211 91.4891 46.4151 92.0851 47.2101C92.1841 46.6141 91.9851 46.0181 92.1841 45.4221C92.3831 44.5281 93.3761 43.9321 94.2701 44.1301C95.0641 44.3291 95.6601 45.0241 96.4551 45.4221C97.3491 45.8191 98.5411 45.6201 99.4351 46.0181C100.627 46.5141 101.123 47.9051 101.222 49.1961C101.322 50.4871 101.123 51.7781 101.421 53.0701C101.719 52.7721 102.116 52.4741 102.514 52.3741C102.911 52.2751 103.408 52.2751 103.706 52.6721C104.103 53.2681 103.706 54.0631 103.805 54.7581C103.805 55.1561 104.004 55.4531 104.103 55.7511C104.401 57.1421 102.911 58.6321 103.507 60.0221C103.606 59.3271 103.904 58.6321 104.401 57.9371C104.699 57.5391 104.997 57.2411 105.295 56.8441C105.593 56.3471 105.692 55.8511 105.891 55.3541C106.487 53.2681 106.884 51.0831 106.785 48.8981C106.586 47.2091 106.288 45.7201 105.99 44.2301Z" fill="#F2DDB0"/>
<path d="M76.8881 61.3141C79.1721 65.3861 81.7551 70.0541 86.1251 71.3461C86.5221 71.4451 87.0191 71.5441 87.4161 71.4451C87.9131 71.2461 88.211 70.9481 88.608 70.7501C89.701 70.1541 91.29 68.1671 91.389 66.3791C91.389 65.9821 91.389 65.684 91.389 65.287C91.29 64.492 90.495 64.0951 89.701 63.6981C83.741 61.0161 80.1651 54.6591 78.9731 48.3021C78.8741 47.8051 78.7751 47.21 78.3771 47.011C78.1791 46.912 77.8811 46.8121 77.6821 46.8121C76.5901 46.7131 74.6031 46.514 73.8091 47.508C73.0141 48.501 73.6101 50.3881 73.8091 51.4811C74.4051 54.8581 75.1991 58.2351 76.8881 61.3141Z" fill="#03A678"/>
<path d="M108.871 58.7325C110.36 56.7455 111.552 54.5605 112.546 52.2765C113.539 49.7935 114.333 47.1115 114.036 44.4295C115.426 44.2305 116.916 44.2305 118.306 44.2305C118.604 44.2305 118.803 44.2305 119.002 44.4295C119.101 44.5285 119.2 44.7275 119.2 44.9265C119.498 46.0185 119.399 47.2105 119.2 48.4025C119.101 49.4955 118.902 50.5875 118.803 51.6805C118.604 52.9715 118.505 54.2625 118.207 55.5545C117.611 58.2355 116.32 60.6195 114.731 62.8045C113.142 64.9895 111.354 66.9765 109.467 68.9625C108.97 69.4595 108.374 70.0555 107.679 69.8565C107.381 69.7575 107.083 69.5585 106.884 69.3605C105.99 68.5655 105.096 67.6715 104.401 66.6785C103.904 65.8835 103.408 64.9895 103.308 63.9965C103.209 63.1025 103.904 63.0035 104.6 62.6065C106.288 61.6125 107.679 60.2225 108.871 58.7325Z" fill="#03A678"/>
<path d="M77.186 45.4231C77.98 44.6281 78.3781 43.5351 78.3781 42.4431C78.3781 42.0461 78.278 41.5491 77.881 41.4501C77.782 41.4501 77.6821 41.4501 77.5831 41.3501C77.3841 41.2511 77.384 40.9531 77.285 40.7541C77.186 40.4561 77.1861 40.1581 77.0861 39.7611C76.9871 39.3641 76.7881 38.9671 76.4901 38.6691C76.1921 38.4701 75.8941 38.3711 75.5961 38.2711C75.1001 38.1721 74.5041 37.9731 73.9081 38.1721C73.3121 38.3711 72.9151 39.0661 72.7161 39.7611C72.6171 40.0591 72.5171 40.4561 72.5171 40.8541C72.5171 41.2511 72.5171 41.7481 72.6171 42.1451C72.7161 43.2371 72.9151 44.4291 73.4111 45.4231C73.6101 45.8201 73.8091 46.2171 74.2061 46.3171C74.6031 46.4161 75.1991 46.3171 75.5961 46.2171C76.1921 46.1181 76.788 45.8201 77.186 45.4231Z" fill="#EEDDD0"/>
<path d="M115.724 43.9305C115.227 43.9305 114.731 44.0305 114.333 43.7325C114.035 43.5335 113.837 43.1365 113.638 42.8385C113.241 41.9445 112.943 40.9515 112.844 39.8585C112.844 39.6595 112.844 39.3625 113.042 39.2625C113.141 39.2625 113.241 39.2625 113.34 39.2625C113.737 39.2625 113.936 38.7665 114.035 38.4685C114.234 37.7725 114.135 36.9785 114.631 36.3825C115.029 35.8855 115.625 35.6875 116.221 35.6875C116.816 35.6875 117.412 35.8855 118.008 36.0845C118.108 36.0845 118.207 36.1835 118.306 36.2825C118.406 36.3825 118.406 36.4815 118.406 36.5805C118.803 37.8725 119.002 39.2625 118.902 40.6535C118.902 41.5475 119.002 43.2355 118.008 43.5335C117.313 43.7325 116.519 43.8315 115.724 43.9305Z" fill="#EEDDD0"/>
<path d="M142.443 35.3896C142.343 35.4886 142.343 35.5876 142.343 35.7866C142.443 35.5876 142.443 35.4886 142.443 35.3896Z" fill="#A08675"/>
<path d="M161.314 53.7647C161.016 53.4667 160.818 53.0697 160.818 52.6727C160.818 51.3807 162.903 51.2817 163.797 50.1887C164.393 49.4937 164.195 48.3017 163.698 47.6067C163.201 46.8117 162.407 46.3157 161.712 45.6197C159.328 43.4347 157.937 40.3557 157.242 37.2767C156.646 34.0987 156.646 30.9197 156.845 27.6427C157.043 24.4637 157.341 21.2857 156.547 18.2067C155.454 13.8357 152.077 10.0617 147.905 8.57172C144.33 7.28072 140.357 7.47971 136.483 7.77771C132.51 8.17471 128.338 8.57168 124.763 10.3597C120.889 12.2467 117.611 16.1207 117.81 20.4907C117.81 21.2857 118.009 22.0797 118.505 22.6757C119.002 23.2717 119.697 23.5697 120.392 23.7687C123.869 25.0597 127.742 25.2587 131.318 24.3647C132.311 25.5567 133.702 26.4507 135.291 26.6487C137.079 26.9467 138.966 26.4507 140.555 27.2447C141.946 27.9407 142.74 29.5297 142.939 31.0197C143.138 32.4097 142.84 33.8997 142.542 35.2907C142.84 34.7937 143.734 34.5947 144.131 35.0917C144.727 35.6877 144.528 36.5817 144.131 37.2767C143.734 37.9717 143.038 38.3697 142.442 38.8657C141.847 39.3627 141.251 40.0577 141.251 40.7537C141.251 41.3487 141.449 41.8457 141.549 42.4417C141.946 44.0307 141.648 45.9177 140.754 47.2097C139.562 48.8977 137.576 49.7917 136.185 51.2817C134.695 52.6727 133.801 55.2547 135.291 56.7447C136.284 57.7377 137.874 57.7377 139.264 57.4397C140.655 57.1417 142.045 56.6457 143.436 56.7447C144.826 56.9437 146.018 57.7377 147.111 58.6317C148.203 59.5257 149.296 60.4197 150.587 60.9167C151.878 61.4127 153.567 61.3137 154.461 60.2207C154.759 59.8237 154.957 59.4267 155.355 59.1287C156.149 58.5327 157.242 58.8307 158.136 59.2277C159.03 59.7247 159.824 60.3207 160.718 60.4197C161.91 60.5187 163.102 59.8237 163.897 58.9297C164.493 58.3337 165.089 57.4397 164.989 56.5457C164.592 55.2547 162.407 54.9567 161.314 53.7647Z" fill="#CCB696"/>
</svg>
