<svg width="1651" height="940" viewBox="0 0 1651 940" fill="none" xmlns="http://www.w3.org/2000/svg">
<rect width="1667" height="939" fill="white"/>
<path d="M856.282 145.641C857.541 130.882 857.121 128.783 857.121 128.783C857.121 128.783 864.466 125.845 867.824 126.265C867.824 126.265 872.86 106.469 873.49 103.951C874.119 101.433 875.168 99.9641 875.588 102.692C875.588 102.692 894.334 111.646 910.283 119.76C921.825 107.029 917.068 99.1947 913.78 96.047C913.361 96.6065 912.731 96.9563 912.032 96.9563C910.843 96.9563 909.863 95.977 909.863 94.7879C909.863 94.7179 909.863 94.648 909.863 94.578C908.744 93.5288 907.205 92.1298 905.736 91.5002C903.358 90.5209 897.972 82.127 898.881 82.5467C899.79 83.0364 900.7 84.7151 900.77 84.9949C900.84 85.2747 907.485 90.1712 907.485 90.1712C907.485 90.1712 906.576 89.3318 905.806 88.4924C905.037 87.5831 904.547 86.6737 904.197 85.7644C903.848 84.855 902.099 83.5959 900.98 82.9664C899.86 82.3369 899.93 80.3083 899.93 80.3083C900.28 80.4482 901.749 81.4975 902.379 82.0571C903.008 82.6866 903.918 83.5959 904.337 84.0156C904.757 84.4353 906.156 85.2048 906.156 85.2048C905.316 84.4353 905.456 84.2954 903.708 82.2669C901.959 80.2384 900.98 80.0985 900.98 79.8886C901.05 79.6788 902.169 78 902.169 78C902.169 78 903.708 78.0699 904.267 78.4197C904.827 78.7694 904.827 80.0985 905.456 81.0078C906.016 81.9172 908.115 84.5752 908.115 84.5752C908.045 84.0856 908.604 82.7566 907.695 82.3369C906.785 81.9172 905.596 78.4896 905.596 78.4896C905.596 78.4896 908.184 81.4975 908.814 82.4768C909.444 83.526 909.653 85.2747 909.933 86.8136C910.213 88.3525 911.052 89.8914 912.032 91.0106C912.451 91.5002 912.731 92.1298 912.871 92.7593C913.71 93.0391 914.34 93.8785 914.34 94.7879C914.34 94.9977 914.27 95.2076 914.27 95.4174C918.187 97.7957 918.677 103.042 919.027 106.399C919.236 108.568 915.599 114.444 911.472 120.319C922.384 125.845 931.757 130.882 932.457 132.071C934.136 135.009 932.877 135.848 932.877 135.848L930.568 144.872C930.568 144.872 916.229 199.782 915.179 203.209C915.179 203.209 914.76 204.888 911.612 202.58C908.464 200.272 880.065 187.191 875.378 184.043C870.761 180.896 856.842 174.81 856.842 174.81L858.52 167.465C858.38 167.325 855.023 160.4 856.282 145.641Z" fill="#F2F4F7"/>
<path d="M590.365 187.156C589.386 185.058 589.596 183.939 589.596 181.91C589.596 179.882 588.687 177.503 588.896 175.335C589.176 173.166 587.987 166.241 587.987 166.241C588.826 167.081 589.736 169.109 590.156 170.368C590.575 171.628 591.275 174.006 590.995 175.964C590.715 177.923 592.114 183.939 592.114 183.939C591.345 181.001 592.114 178.902 592.044 177.014C591.974 175.125 591.624 170.998 590.925 169.459C590.225 167.85 589.386 166.311 589.386 166.311L591.694 165.052C591.694 165.052 593.443 165.122 593.863 165.402C594.283 165.682 594.632 167.71 594.702 168.76C594.772 169.879 596.311 174.495 596.311 174.495C596.311 174.495 595.961 172.397 595.542 170.508C595.122 168.62 594.632 165.332 594.632 165.332C594.632 165.332 596.171 164.842 596.031 165.052C595.961 165.332 597.57 168.48 597.71 170.089C597.85 171.697 599.878 173.446 600.718 176.314C601.557 179.182 600.438 186.876 600.438 186.876C601.557 185.338 602.397 179.112 602.397 179.112C602.327 180.301 602.537 184.568 601.277 187.016C600.018 189.465 600.368 192.402 600.998 194.991C601.417 196.599 601.417 199.048 601.347 200.657C602.746 201.006 603.796 202.265 603.796 203.734C603.796 204.784 603.236 205.763 602.467 206.322V206.392C604.285 210.24 611.98 218.424 620.234 224.299C626.11 228.566 630.446 235.701 632.755 239.828C634.154 233.253 638.91 209.75 639.47 207.931L651.851 211.848L650.102 213.737L648.563 222.83C648.563 222.83 662.064 224.369 663.323 224.719C664.582 225.069 667.24 226.748 668.219 227.097C669.198 227.447 676.823 232.553 675.704 232.903C674.584 233.253 672.416 234.442 672.136 234.792C671.856 235.142 671.996 239.339 671.157 241.367C670.248 243.396 669.758 247.663 669.268 249.341C668.779 250.95 667.24 254.028 666.75 254.937C666.26 255.847 664.372 259.134 664.092 260.393C663.812 261.652 662.483 265.57 662.553 267.108C662.693 268.647 662.903 274.033 661.924 274.943C660.944 275.852 659.266 275.223 659.266 275.223L658.006 277.111C658.006 277.111 652.69 275.992 650.802 275.712C648.913 275.432 638.141 273.194 638.141 273.194C638.141 273.194 637.162 278.86 637.162 280.049C637.162 281.238 637.301 283.337 637.301 283.337L625.06 283.057C625.06 283.057 624.431 278.79 625.06 276.482C625.69 274.313 631.426 245.704 632.265 241.857C631.286 239.688 629.747 236.261 626.529 232.064C621.703 225.768 615.407 221.432 611.63 218.913C608.133 216.605 602.257 208.071 601.417 206.672C601.208 206.742 600.928 206.742 600.648 206.742C598.969 206.742 597.57 205.413 597.5 203.804C596.171 202.405 594.422 200.377 594.353 199.817C594.283 198.978 593.653 195.2 592.954 192.892C592.184 190.584 584 182.19 584 182.19C587.288 183.939 591.415 189.255 590.365 187.156Z" fill="#F2F4F7"/>
<path d="M281 309.204C281 309.204 281.979 308.365 283.029 307.875C284.148 307.315 284.148 303.538 282.749 298.222C281.35 292.906 286.806 285.631 286.806 285.631L304.153 277.377L300.236 241.283L324.019 264.856C324.229 259.05 323.11 253.664 319.402 250.866C311.848 245.2 309.26 240.863 308.21 237.995C308.07 237.995 307.931 238.065 307.791 238.065C306.112 238.065 304.713 236.666 304.713 234.988C304.713 234.218 304.993 233.519 305.412 233.029C305.063 231.49 304.713 228.482 304.713 227.503C304.713 226.314 303.104 223.306 301.635 220.998C300.236 218.689 300.026 216.941 298.977 214.213C297.928 211.485 297.578 210.365 297.928 208.197C298.347 206.029 297.298 204 297.298 204C298.627 204.699 299.117 204.839 299.257 206.938C299.327 209.106 303.104 215.472 303.104 215.472C303.034 215.192 301.705 211.904 301.285 210.785C300.866 209.666 300.236 204.909 300.236 204.909L303.314 204.699L303.734 209.176C303.734 209.106 303.734 208.896 303.734 208.687C303.734 207.567 304.223 204.63 304.573 204.63C304.923 204.63 305.972 204.21 305.972 204.909C305.972 205.609 306.042 211.624 306.042 211.624C306.042 211.624 306.322 213.583 306.252 211.205C306.182 208.896 307.301 204.28 307.301 204.28L307.231 209.386C306.741 212.674 309.679 219.249 311.218 224.915C312.337 229.182 311.218 232.26 310.589 233.589C310.798 234.008 310.938 234.428 310.938 234.918C310.938 236.177 310.169 237.226 309.12 237.716C310.379 240.863 313.247 246.11 318.563 248.488C324.369 251.076 325.558 257.511 325.068 265.765L347.382 287.869L346.193 337.603C346.193 337.603 323.809 322.284 323.529 321.865C323.529 321.865 314.576 326.621 309.679 327.391C304.783 328.23 296.809 325.082 294.081 323.753C291.353 322.424 285.827 316.269 284.567 314.8C283.378 313.331 281.42 311.792 281.42 311.792L283.168 310.463L281 309.204Z" fill="#F2F4F7"/>
<path d="M210.763 371.185C209.924 368.317 207.336 369.226 207.336 369.226C207.336 369.226 183.693 376.012 161.169 382.447C164.247 373.773 168.724 366.289 171.732 361.812C172.361 362.162 173.061 362.371 173.9 362.371C176.418 362.371 178.377 360.343 178.377 357.895C178.377 357.265 178.237 356.636 177.957 356.076C179.426 354.957 181.245 353.418 182.994 351.739C186.071 348.801 182.854 345.234 184.532 342.995C186.211 340.687 188.03 339.288 189.919 336.49C191.807 333.762 194.185 330.754 196.424 326.977C198.592 323.13 197.543 316.974 197.543 316.974C196.144 323.759 192.856 326.417 192.856 326.417C194.745 324.319 196.494 316.415 196.494 316.415L194.815 314.736C191.947 316.624 186.141 330.335 186.701 328.446C187.26 326.557 189.359 321.101 190.548 319.562C191.737 318.023 193.696 313.757 193.696 313.757L190.828 311.588L188.729 314.876C188.729 314.876 189.919 311.448 189.499 310.679C189.079 309.909 187.82 309.49 187.82 309.49C187.82 309.49 188.38 308.72 186.911 310.469C185.512 312.218 184.393 319.562 184.393 319.562C183.203 315.505 184.812 309 184.812 309C183.273 312.428 182.504 315.715 182.714 319.562C182.924 323.41 179.426 329.635 179.426 329.635C178.517 333.272 176.768 337.609 176.139 339.638C175.509 341.596 175.789 343.485 175.929 344.884C176.069 346.283 175.789 347.192 174.6 349.151C173.9 350.34 173.411 352.159 173.131 353.418C170.962 353.768 169.353 355.586 169.353 357.825C169.353 359.434 170.193 360.763 171.382 361.602C165.296 369.436 161.589 376.641 159.421 382.937C143.332 387.483 128.153 391.75 123.117 393.079C110.946 396.227 105 399.305 105 399.305C108.987 432.741 123.467 490.309 123.467 490.309C126.335 487.791 152.076 481.495 153.545 481.495C154.944 481.495 160.89 482.894 162.079 482.614C163.198 482.335 164.317 484.013 179.076 480.936C193.836 477.788 199.781 467.925 199.781 467.925C203.769 466.806 229.58 458.832 229.58 458.832C229.58 458.832 211.603 374.053 210.763 371.185Z" fill="#F2F4F7"/>
<path d="M533.363 147.807C531.755 128.921 532.314 126.263 532.314 126.263C532.314 126.263 522.871 122.486 518.534 123.045C518.534 123.045 512.029 97.7234 511.259 94.4358C510.42 91.2181 509.091 89.3295 508.531 92.827C508.531 92.827 484.539 104.299 464.114 114.651C449.284 98.353 455.44 88.3502 459.637 84.2232C460.126 84.9227 460.966 85.3424 461.875 85.3424C463.414 85.3424 464.673 84.0833 464.673 82.5444C464.673 82.4045 464.673 82.3346 464.673 82.2646C466.142 80.8656 468.031 79.1169 469.989 78.3475C473.067 77.1583 479.922 66.3162 478.803 66.9457C477.684 67.5752 476.495 69.7437 476.425 70.0934C476.355 70.4432 467.891 76.7386 467.891 76.7386C467.891 76.7386 469.01 75.6894 470.059 74.5702C471.039 73.451 471.738 72.1919 472.088 71.0727C472.507 69.9535 474.816 68.2747 476.215 67.5053C477.614 66.7359 477.544 64.0778 477.544 64.0778C477.124 64.2177 475.236 65.5467 474.396 66.3162C473.557 67.0856 472.438 68.3447 471.948 68.8343C471.458 69.324 469.64 70.3033 469.64 70.3033C470.689 69.324 470.549 69.1841 472.787 66.526C475.026 63.9379 476.355 63.728 476.215 63.4482C476.145 63.1684 474.676 61 474.676 61C474.676 61 472.717 61.0699 471.948 61.4896C471.178 61.9093 471.178 63.6581 470.479 64.7773C469.709 65.8965 467.121 69.324 467.121 69.324C467.191 68.6944 466.492 66.9457 467.611 66.4561C468.73 65.9664 470.339 61.4896 470.339 61.4896C470.339 61.4896 467.051 65.3369 466.212 66.6659C465.373 67.9949 465.163 70.2333 464.813 72.2619C464.463 74.2904 463.414 76.179 462.085 77.648C461.525 78.2775 461.246 79.1169 461.036 79.8164C459.987 80.2361 459.217 81.2154 459.217 82.4745C459.217 82.7543 459.287 83.0341 459.357 83.2439C454.321 86.3217 453.761 92.9669 453.271 97.3037C452.992 100.032 457.608 107.586 462.994 115.141C449.004 122.206 437.043 128.641 436.134 130.18C433.965 133.957 435.574 135.006 435.574 135.006L438.512 146.618C438.512 146.618 456.839 216.987 458.168 221.324C458.168 221.324 458.727 223.492 462.785 220.485C466.842 217.547 503.215 200.829 509.161 196.772C515.107 192.715 532.874 184.88 532.874 184.88L530.705 175.437C530.705 175.577 534.972 166.694 533.363 147.807Z" fill="#F2F4F7"/>
<path d="M1168.65 148.464C1170.26 145.107 1169.84 143.288 1169.84 140.07C1169.84 136.853 1171.31 133.006 1170.96 129.508C1170.54 126.011 1172.43 114.889 1172.43 114.889C1171.1 116.218 1169.56 119.505 1168.93 121.534C1168.23 123.562 1167.18 127.34 1167.6 130.487C1168.02 133.635 1165.85 143.358 1165.85 143.358C1167.04 138.601 1165.85 135.244 1165.99 132.236C1166.13 129.228 1166.69 122.583 1167.74 120.065C1168.79 117.477 1170.19 115.029 1170.19 115.029L1166.55 113C1166.55 113 1163.68 113.14 1163.05 113.56C1162.35 113.979 1161.86 117.197 1161.72 119.016C1161.58 120.764 1159.13 128.249 1159.13 128.249C1159.13 128.249 1159.69 124.891 1160.32 121.884C1161.02 118.876 1161.79 113.63 1161.79 113.63C1161.79 113.63 1159.34 112.79 1159.48 113.21C1159.62 113.63 1157.04 118.736 1156.76 121.324C1156.48 123.912 1153.26 126.78 1151.86 131.327C1150.53 135.943 1152.28 148.255 1152.28 148.255C1150.53 145.806 1149.13 135.804 1149.13 135.804C1149.27 137.692 1148.85 144.617 1150.88 148.534C1152.91 152.451 1152.35 157.208 1151.3 161.405C1150.6 163.993 1150.6 167.91 1150.74 170.568C1148.5 171.128 1146.82 173.156 1146.82 175.535C1146.82 177.284 1147.66 178.822 1148.99 179.732C1148.99 179.802 1148.99 179.802 1148.92 179.872C1146.05 186.027 1133.6 199.178 1120.38 208.691C1110.94 215.546 1103.94 227.018 1100.24 233.733C1098 223.24 1090.37 185.328 1089.47 182.53L1069.53 188.825L1072.4 191.903L1074.85 206.522C1074.85 206.522 1053.09 208.971 1051.06 209.6C1049.03 210.23 1044.77 212.888 1043.16 213.447C1041.55 214.077 1029.31 222.191 1031.2 222.821C1033.02 223.45 1036.51 225.269 1036.86 225.898C1037.28 226.528 1037.07 233.243 1038.47 236.461C1039.87 239.748 1040.71 246.603 1041.55 249.261C1042.39 251.92 1044.84 256.816 1045.61 258.215C1046.45 259.614 1049.45 264.93 1049.87 266.959C1050.29 268.987 1052.53 275.283 1052.32 277.731C1052.11 280.179 1051.69 288.923 1053.37 290.322C1054.98 291.721 1057.64 290.741 1057.64 290.741L1059.67 293.819C1059.67 293.819 1068.2 292.001 1071.28 291.581C1074.36 291.161 1091.63 287.524 1091.63 287.524C1091.63 287.524 1093.24 296.687 1093.24 298.506C1093.24 300.325 1093.03 303.822 1093.03 303.822L1112.76 303.402C1112.76 303.402 1113.81 296.477 1112.76 292.84C1111.78 289.342 1102.55 243.386 1101.15 237.16C1102.69 233.663 1105.2 228.207 1110.31 221.492C1118 211.349 1128.22 204.424 1134.3 200.367C1139.9 196.59 1149.34 182.879 1150.81 180.711C1151.23 180.781 1151.58 180.851 1152 180.851C1154.73 180.851 1156.9 178.752 1157.11 176.094C1159.27 173.856 1162.07 170.638 1162.21 169.659C1162.35 168.33 1163.33 162.174 1164.52 158.537C1165.71 154.9 1178.86 141.33 1178.86 141.33C1173.68 143.358 1167.04 151.892 1168.65 148.464Z" fill="#F2F4F7"/>
<path d="M1356.63 235.397L1348.65 217L1285 250.436C1285 250.436 1297.45 278.905 1304.17 294.504C1300.11 301.289 1297.66 309.123 1299.69 317.307C1304.1 335.005 1308.36 351.932 1309.69 360.886C1308.64 361.166 1307.66 361.655 1306.82 362.495C1304.73 364.593 1304.52 367.741 1306.05 370.119C1305.22 374.316 1304.87 381.941 1310.46 387.677C1318.51 395.931 1334.17 402.506 1340.89 411.25C1347.6 419.993 1354.88 426.009 1357.47 427.198C1357.47 427.198 1347.46 415.377 1344.53 411.949C1344.53 411.949 1357.33 425.519 1362.15 422.791L1365.09 418.244C1365.09 418.244 1358.17 413.768 1353.34 410.55C1353.34 410.55 1362.78 414.677 1366.28 415.726L1369.08 410.27C1369.08 410.27 1367.96 406.423 1361.94 403.695C1360.97 403.275 1359.85 402.856 1358.59 402.436C1349.49 399.778 1340.75 397.959 1338.3 395.861C1338.3 395.861 1358.52 399.288 1364.11 402.436C1364.11 402.436 1352.5 394.112 1344.25 392.503C1335.99 390.964 1330.68 386.417 1329.56 385.368C1328.51 384.319 1325.78 378.163 1323.26 375.645C1321.65 374.106 1319.14 371.169 1317.04 368.86C1317.81 366.692 1317.32 364.174 1315.57 362.425C1314.38 361.236 1312.84 360.676 1311.23 360.676C1311.09 359.627 1310.88 358.648 1310.53 357.738C1309.2 354.311 1300.81 312.761 1302.14 306.116C1302.7 303.457 1303.96 300.59 1305.64 297.792C1306.4 299.47 1307.03 300.939 1307.45 302.059C1312 312.551 1321.02 333.116 1321.3 333.746C1321.58 334.375 1333.27 328.919 1339.07 326.051C1344.88 323.183 1385.24 303.877 1385.24 303.877L1378.73 288.208C1378.73 288.208 1383.35 278.136 1381.67 268.133C1379.99 258.13 1369.64 237.915 1365.86 235.677L1356.63 235.397Z" fill="#F2F4F7"/>
<path d="M705.968 154.39C703.38 152.082 701.911 150.753 701.911 150.753C702.33 151.452 703.799 152.712 705.968 154.39Z" fill="#F2F4F7"/>
<path d="M801.165 279.667C801.515 274.421 798.018 272.042 796.199 270.853C794.38 269.664 785.217 262.669 784.447 261.41C783.888 260.501 778.921 258.262 776.263 256.583C776.683 255.604 776.893 254.555 776.893 253.506C776.893 250.008 774.584 247.07 771.437 246.161C771.437 245.391 771.437 244.622 771.297 243.783C770.178 234.06 761.994 221.049 753.04 214.684C743.597 208.039 744.996 202.443 745.555 200.974C748.074 202.373 750.662 203.702 753.25 205.101C795.779 226.855 818.233 232.941 818.233 232.941L784.657 216.502L782.839 205.101L800.326 172.574L782.839 161.172L775.704 167.258L776.053 157.955C776.053 157.955 758.566 142.216 740.309 145.434C740.309 145.434 722.472 173.274 723.521 183.976C723.521 183.976 694.912 166.069 684 157.605C692.604 165.229 714.428 183.416 742.897 199.435C742.128 201.183 740.379 207.479 751.851 215.593C760.944 221.958 768.149 236.508 769.058 244.342C769.128 244.832 769.128 245.252 769.058 245.671C764.792 245.671 761.364 249.099 761.364 253.366C761.364 255.954 762.693 258.332 764.652 259.661C765.071 261.48 765.841 263.438 767.45 265.467C771.996 271.273 779.901 278.268 784.307 283.374C788.714 288.41 785.776 292.188 784.447 294.846C784.447 294.846 786.406 293.237 787.105 290.229C787.735 287.221 786.756 282.675 786.546 282.675C786.546 282.675 790.183 286.732 788.924 292.537C787.735 298.343 788.994 296.315 790.393 298.763C790.393 298.763 788.784 295.615 789.694 293.377C790.603 291.138 790.743 286.102 789.833 283.514C788.854 280.926 787.525 277.218 787.455 277.009C787.385 276.799 796.339 281.695 797.178 287.571C798.018 293.447 799.836 294.146 800.816 294.846C800.816 294.846 797.178 286.452 797.248 282.745C797.318 279.037 796.549 277.079 794.31 274.84C794.31 274.84 799.347 275.75 799.976 280.646C800.536 285.333 802.354 285.193 803.054 285.403C802.774 285.333 800.816 284.213 801.165 279.667Z" fill="#F2F4F7"/>
<path d="M1435.64 425.977C1436.27 423.949 1438.09 424.509 1438.09 424.509C1438.09 424.509 1455.23 429.405 1471.45 434.022C1469.22 427.726 1466 422.34 1463.83 419.122C1463.34 419.402 1462.85 419.542 1462.29 419.542C1460.47 419.542 1459.07 418.073 1459.07 416.324C1459.07 415.835 1459.21 415.415 1459.35 414.995C1458.3 414.156 1456.97 413.107 1455.72 411.848C1453.48 409.679 1455.79 407.161 1454.6 405.482C1453.41 403.804 1452.08 402.754 1450.68 400.796C1449.35 398.837 1447.6 396.669 1445.99 393.871C1444.38 391.073 1445.22 386.666 1445.22 386.666C1446.27 391.562 1448.65 393.521 1448.65 393.521C1447.32 391.982 1446.06 386.316 1446.06 386.316L1447.25 385.127C1449.28 386.456 1453.55 396.389 1453.13 395.06C1452.71 393.731 1451.24 389.744 1450.33 388.624C1449.49 387.505 1448.02 384.428 1448.02 384.428L1450.05 382.819L1451.59 385.197C1451.59 385.197 1450.75 382.749 1451.03 382.189C1451.38 381.63 1452.22 381.35 1452.22 381.35C1452.22 381.35 1451.8 380.79 1452.85 382.049C1453.9 383.308 1454.67 388.624 1454.67 388.624C1455.51 385.687 1454.32 381 1454.32 381C1455.44 383.448 1456 385.827 1455.86 388.624C1455.72 391.422 1458.23 395.899 1458.23 395.899C1458.86 398.487 1460.12 401.705 1460.61 403.104C1461.1 404.503 1460.82 405.902 1460.75 406.881C1460.68 407.931 1460.82 408.56 1461.73 409.959C1462.29 410.798 1462.64 412.127 1462.78 413.037C1464.32 413.317 1465.51 414.646 1465.51 416.255C1465.51 417.374 1464.95 418.423 1464.04 418.983C1468.45 424.648 1471.1 429.825 1472.71 434.371C1484.39 437.659 1495.38 440.737 1498.94 441.716C1507.76 443.954 1512.09 446.193 1512.09 446.193C1509.23 470.395 1498.73 512.015 1498.73 512.015C1496.71 510.197 1478.03 505.65 1476.98 505.65C1475.93 505.65 1471.66 506.699 1470.82 506.489C1469.99 506.279 1469.22 507.538 1458.51 505.23C1447.88 502.992 1443.54 495.787 1443.54 495.787C1440.68 494.948 1422 489.212 1422 489.212C1422 489.212 1435.08 428.076 1435.64 425.977Z" fill="#F2F4F7"/>
</svg>
