<svg width="357" height="272" viewBox="0 0 357 272" fill="none" xmlns="http://www.w3.org/2000/svg">
<path d="M78.708 79.963L76.0592 76.5189L77.234 70.9266L82.5984 68.1271L83.4304 72.231L78.5663 76.5928L78.708 79.963Z" fill="#EACDB0"/>
<path d="M31.2077 262.795L30.7195 265.816L35.9678 269.905L39.3242 267.464L36.9442 263.893L31.6959 259.805L31.2077 262.795Z" fill="#514943"/>
<path d="M36.914 170.34L35.4188 179.463L41.7656 211.533L31.0554 261.788L36.5478 264.077L54.3676 215.439L57.602 201.189L59.3413 170.675L36.914 170.34Z" fill="#CAB5A1"/>
<path d="M72.1261 179.647L69.563 265.573L64.2232 266.152L57.3577 211.991L43.4436 174.979L72.1261 179.647Z" fill="#CAB5A1"/>
<path d="M64.1624 265.481L64.498 268.532L70.6312 270.912L73.1943 267.586L69.9599 264.84L64.1624 265.481Z" fill="#514943"/>
<path d="M35.9373 91.6165C35.9373 91.6165 43.2605 85.4833 53.0247 91.6165C62.789 97.7497 85.3689 154.108 89.6407 189.961C91.2885 203.783 93.1192 218.918 93.2108 232.985C93.3023 243.909 66.8473 243.786 57.5407 243.176C40.1786 242.047 13.632 244.183 14.2423 233.778C14.8525 223.373 29.1938 185.048 31.0246 152.277C32.8554 119.506 24.9525 98.3599 35.9373 91.6165Z" fill="#565656"/>
<path d="M35.0222 64.8539C38.2261 65.7998 41.9487 69.0342 42.3759 72.5737C42.5895 74.2825 41.8572 75.7471 42.1623 77.5474C42.7116 81.1175 37.9515 85.786 41.8572 88.6543C43.8711 90.1189 46.5868 90.0274 49.0583 89.8443C49.3635 89.8138 49.6686 89.7832 49.9432 89.6307C50.3704 89.3561 50.4925 88.7763 50.4009 88.2881C50.3094 87.7999 50.0348 87.3727 49.8212 86.915C47.4411 82.3075 48.7837 76.2048 48.204 71.1701C47.6242 66.1659 45.1832 61.0092 40.5451 58.4766C37.9515 59.7886 36.4258 61.3448 35.5409 64.091L35.0222 64.8539Z" fill="#A8946A"/>
<path d="M44.115 68.3325C39.477 58.5988 28.0345 65.2201 26.9055 75.1065C26.2647 80.7514 30.1704 86.7626 34.9915 88.5323C34.9 89.5087 35.1136 90.5462 34.961 91.5532C36.5172 91.8278 38.0429 91.7973 39.538 91.6752C40.4229 91.5837 41.0027 90.7293 40.7585 89.8749C40.606 89.3562 40.4839 88.868 40.3924 88.5323C41.2468 88.1967 42.0706 87.7085 42.864 87.0372C45.3661 84.9012 46.6171 81.2702 46.6171 77.8832C46.6171 74.4657 45.5186 71.2618 44.115 68.3325Z" fill="#EACDB0"/>
<path d="M43.5354 129.392C42.1928 125.395 38.9889 122.374 36.5478 118.895C35.6324 117.583 34.7475 116.149 33.9847 114.685C30.3536 107.361 32.1844 101.503 34.2898 95.9188C36.4258 90.3044 37.0665 90.0908 32.0013 85.8494C27.2718 81.9132 29.8044 72.7287 30.201 71.4471C30.9639 69.0061 32.1234 66.8701 33.6185 65.6191C35.0832 64.368 36.7309 64.185 38.5922 64.2155C39.8433 64.246 39.8738 64.7037 40.9722 64.0629C41.7961 63.5747 42.5589 62.049 42.7725 61.1641C43.1387 59.6385 42.5895 58.0213 41.613 56.8007C35.9375 49.6606 27.5464 55.4581 22.9999 60.7064C19.2468 65.0393 16.0734 70.0435 14.5477 75.5969C13.1136 80.8147 12.5033 88.5041 12.9305 93.8744C13.3272 98.9702 16.1649 103.944 14.9749 108.918C13.9069 113.433 9.87917 116.485 6.37013 119.536C2.8611 122.587 -0.586907 126.676 0.0843862 131.253C0.511573 134.091 2.52546 136.502 5.02755 137.936C7.52964 139.339 10.4284 139.827 13.2967 139.889C15.5852 139.95 17.9042 139.736 20.1316 140.285C22.3591 140.834 24.5256 142.33 25.0443 144.557C25.3189 145.778 25.1969 147.334 26.2343 148.036C26.7225 148.371 27.3633 148.402 27.9431 148.432C29.7434 148.524 31.8183 148.524 33.0693 147.212C34.9916 145.167 33.9847 140.987 36.5783 139.858C37.3412 139.522 38.1955 139.614 39.0194 139.492C43.1387 138.882 44.878 133.389 43.5354 129.392Z" fill="#A8946A"/>
<path d="M60.672 29.2015C61.1297 30.5746 62.2282 31.5205 63.5403 31.6426C66.1644 31.8561 71.0771 31.5815 77.3018 28.5607C83.5265 25.5094 86.7304 21.7867 88.1645 19.5898C88.8664 18.4913 88.8053 17.0572 87.9815 15.8367L80.8414 5.1875L56.6138 17.0572L60.672 29.2015Z" fill="#44403D"/>
<path d="M58.2617 21.9691L56.6445 17.0564L80.8721 5.15625L83.7404 9.45863L74.5558 23.1286L58.2617 21.9691Z" fill="#383533"/>
<path d="M49.6265 20.4744L63.388 0L87.8597 1.73925L74.1287 22.2137L49.6265 20.4744Z" fill="#565656"/>
<path d="M65.8291 30.4831C66.1647 30.4526 66.5004 30.3305 66.775 30.178C67.3547 29.8423 66.897 29.4151 66.6834 28.9574C66.5004 28.5913 66.3173 28.1946 66.1342 27.8284C65.6765 26.913 65.2493 26.0281 64.7916 25.1127C64.456 24.4109 64.1813 23.7702 63.6321 23.2209C63.4185 22.9768 63.2049 22.7632 63.0524 22.5191C62.5947 21.8173 62.8388 21.1155 63.4185 20.078C63.9677 19.0711 64.6085 18.0947 65.1883 17.2708C66.4088 15.44 67.7514 13.5482 69.2771 11.5038C69.4907 11.2292 69.4296 10.802 69.155 10.5884C68.8804 10.3748 68.4532 10.4358 68.2396 10.7105C66.6834 12.7854 65.3409 14.7077 64.1203 16.5385C63.5406 17.3929 62.8998 18.3998 62.32 19.4373C61.7708 20.4442 61.2826 21.6037 61.7708 22.7327C62.0759 23.4955 62.6252 24.1668 62.9608 24.9297C63.2049 25.5094 63.449 25.9976 63.5711 26.6079C63.7542 27.5843 63.9067 28.5302 64.0898 29.5067C64.1813 29.9644 64.2424 30.239 64.7306 30.3916C65.0662 30.4831 65.4629 30.5136 65.8291 30.4831Z" fill="#F2D292"/>
<path d="M64.5074 26.4082C65.4909 25.9259 65.8973 24.7376 65.415 23.754C64.9327 22.7705 63.7444 22.3642 62.7608 22.8465C61.7773 23.3287 61.371 24.517 61.8533 25.5006C62.3356 26.4841 63.5239 26.8905 64.5074 26.4082Z" fill="#F2D292"/>
<path d="M54.6064 96.8256C54.8221 96.8276 51.3574 92.3272 51.3574 92.3272L63.1869 85.6911L73.2041 76.2205L88.2887 77.9014L69.5344 90.3075L54.6064 96.8256Z" fill="#565656"/>
<path d="M62.1789 129.482L73.4688 113.615C73.4688 113.615 77.4356 113.615 79.8766 116.056C82.3177 118.497 79.8766 120.023 79.8766 120.023L66.7559 134.059L60.3481 147.18C60.3481 147.18 53.0249 148.095 53.0249 141.993L62.1789 129.482Z" fill="#03A678"/>
<path d="M80.1512 119.81C80.1512 119.81 73.774 117.277 75.9099 115.446L74.6894 115.751L56.3814 141.077L54.7642 145.929C56.9306 147.607 60.3481 147.18 60.3481 147.18L66.7559 134.059L79.8766 120.023C79.8766 120.023 79.9987 119.962 80.1512 119.81Z" fill="#03A678"/>
<path d="M58.3954 129.392L62.179 129.483L63.7047 132.229L67.6714 133.145L66.2068 137.752L58.9141 142.512L55.7712 141.109L54.0015 138.118L54.9169 133.48L58.3954 129.392Z" fill="#EACDB0"/>
<path d="M57.541 131.009C57.1443 128.995 56.8086 127.561 56.534 127.164C56.412 126.981 56.1373 126.859 55.7712 126.798C39.4465 128.812 9.39092 139.247 9.39092 139.247L4.50879 152.368C4.50879 152.368 35.846 163.749 50.3398 166.892C50.8585 161.888 53.7573 156.304 56.3814 149.317C59.1276 141.993 57.541 131.009 57.541 131.009Z" fill="#5C5C5C"/>
<path d="M62.1787 129.483L63.4297 127.713C63.4297 127.713 64.9249 129.788 65.23 130.093C65.5352 130.398 69.2883 131.344 69.2883 131.344L67.427 133.327L63.6739 132.229L62.1787 129.483Z" fill="#3C444C"/>
<path d="M204.064 40.9946L208.641 29.7047L206.2 20.2456L211.692 16.584L218.1 22.9918L215.049 28.7893L211.997 46.7922L204.064 40.9946Z" fill="#EACDB0"/>
<path d="M203.454 93.1716L219.9 92.5613C220.267 89.9982 220.633 87.4656 220.999 84.9025C222.036 77.5793 222.342 69.1576 221.304 61.7429C221.06 60.0341 220.724 58.3559 220.267 56.7082C218.619 50.7581 217.093 42.2754 212.76 37.6068C208.794 33.335 204.766 34.647 204.766 34.647L203.972 36.966L192.469 62.9634L169.584 76.3893C169.584 76.3893 180.66 92.3783 183.315 97.4435L203.454 93.1716Z" fill="#565656"/>
<path d="M157.318 77.0918L148.53 82.7978L134.616 99.275L147.92 100.496L157.318 77.0918Z" fill="#565656"/>
<path d="M202.112 262.492L202.966 266.397L196.192 271.981L191.523 268.899L194.483 264.139L201.257 258.586L202.112 262.492Z" fill="#3A3029"/>
<path d="M178.464 142.086L186.001 159.509L186.702 208.483L202.234 261.149L195.002 264.353L163.329 203.174L159.729 183.798L158.294 143.001L178.464 142.086Z" fill="#8C9498"/>
<path d="M141.909 145.993L141.329 197.317L150.971 263.5H158.417L163.116 202.443L173.307 141.386L141.909 145.993Z" fill="#8C9498"/>
<path d="M158.386 262.614V266.612L150.33 270.639L146.303 266.612L150.33 262.614H158.386Z" fill="#3A3029"/>
<path d="M162.566 75.8114C162.566 75.8114 146.699 70.4105 137.24 130.095C127.781 189.779 129.307 237.379 137.24 241.194C145.174 245.008 161.62 238.325 178.128 239.912C194.605 241.499 209.557 235.457 209.557 235.457C209.557 220.597 205.468 205.401 203.393 190.725C200.189 167.931 198.175 144.894 193.568 122.344C190.669 108.094 186.458 77.6727 168.516 75.2621C166.533 74.9875 164.519 75.2316 162.566 75.8114Z" fill="#565656"/>
<path d="M163.635 78.5259C165.954 78.3123 168.242 78.0682 170.561 77.8546C170.592 75.9933 170.47 74.1625 170.195 72.3317C172.117 71.6604 174.345 70.6535 174.68 68.6396C174.772 67.9988 174.68 67.358 174.558 66.7172C174.101 64.0931 173.674 61.4995 173.216 58.8753C173.063 57.9599 172.911 57.0445 172.392 56.2512C171.538 54.8781 169.859 54.2983 168.273 54.0237C164.214 53.3219 159.82 54.1763 156.678 56.8309C155.854 57.5327 155.091 58.3871 154.725 59.4246C154.145 61.0113 154.572 62.7505 154.999 64.3982C155.396 65.8934 155.793 67.4191 156.189 68.9142C156.647 70.6535 157.288 72.6063 158.966 73.2776C159.851 73.6133 160.888 73.5217 161.712 74.0404C163.085 74.9253 162.902 77.0308 163.635 78.5259Z" fill="#EACDB0"/>
<path d="M141.085 52.3756C141.055 50.5753 141.299 48.775 141.665 47.1273C142.275 44.3201 145.601 43.069 148.469 42.8554C154.664 42.4283 160.644 39.621 166.686 41.7875C170.134 43.0385 174.802 43.3131 177.915 45.0829C179.227 45.8152 180.264 46.9442 181.088 48.1953C183.895 52.5587 183.895 58.5698 181.119 62.9332C180.478 63.9096 179.745 64.7945 178.952 65.6489C177.304 67.4187 175.352 69.6156 173.124 70.2564C173.063 68.2425 174.924 61.9263 173.368 60.2786C170.927 57.6544 165.374 58.5698 162.353 59.2106C159.027 59.9124 156.098 62.2619 152.802 62.7501C150.453 63.1163 147.432 61.9568 145.418 60.7057C142.214 58.8139 141.177 55.6405 141.085 52.3756Z" fill="#3A3029"/>
<path d="M181.882 47.2479C181.79 48.6821 180.936 49.9026 179.715 50.2993C177.213 51.1537 172.392 52.1301 165.618 50.7265C158.844 49.3229 154.816 46.5156 152.863 44.7459C151.887 43.861 151.612 42.4268 152.101 41.0843L156.342 29.001L182.767 34.4629L181.882 47.2479Z" fill="#44403D"/>
<path d="M182.4 39.6206L182.766 34.4638L156.311 29.002L154.603 33.8841L166.899 44.8079L182.4 39.6206Z" fill="#383533"/>
<path d="M190.395 36.0194L171.965 19.6338L148.683 27.4452L167.113 43.8309L190.395 36.0194Z" fill="#565656"/>
<path d="M177.213 49.7507C176.877 49.7812 176.541 49.7812 176.206 49.6897C175.565 49.5371 175.901 48.9573 175.992 48.4996C176.084 48.103 176.175 47.6758 176.236 47.2791C176.45 46.3027 176.663 45.3263 176.846 44.3193C176.999 43.5565 177.121 42.8852 177.487 42.1834C177.64 41.9088 177.792 41.6341 177.884 41.3595C178.158 40.5662 177.762 39.9559 176.938 39.1015C176.145 38.2777 175.29 37.4843 174.527 36.813C172.88 35.3484 171.11 33.8532 169.127 32.236C168.852 32.0224 168.791 31.5953 169.035 31.3206C169.249 31.046 169.676 30.985 169.95 31.2291C171.964 32.8463 173.765 34.372 175.412 35.8366C176.175 36.5384 177.06 37.3318 177.884 38.1861C178.677 39.01 179.41 40.0169 179.257 41.2375C179.135 42.0613 178.769 42.8547 178.647 43.6785C178.555 44.2888 178.433 44.838 178.464 45.4483C178.525 46.4247 178.616 47.4012 178.677 48.3776C178.708 48.8353 178.708 49.1404 178.281 49.3845C177.945 49.5981 177.579 49.7202 177.213 49.7507Z" fill="#F2D292"/>
<path d="M179.801 43.9672C180.023 42.8944 179.332 41.8453 178.259 41.624C177.187 41.4028 176.138 42.0931 175.916 43.1659C175.695 44.2387 176.385 45.2878 177.458 45.509C178.531 45.7303 179.58 45.04 179.801 43.9672Z" fill="#F2D292"/>
<path d="M205.774 24.4256L190.426 12.4644C190.426 12.4644 190.609 8.49763 193.142 6.17862C195.675 3.8596 197.109 6.3617 197.109 6.3617L210.565 20.0927L223.381 27.0802C223.381 27.0802 223.96 34.434 217.888 34.1593L205.774 24.4256Z" fill="#03A678"/>
<path d="M196.895 6.05664C196.895 6.05664 194.088 12.3119 192.349 10.0844L192.593 11.3049L217.095 30.7114L221.855 32.5422C223.625 30.4673 223.35 27.0193 223.35 27.0193L210.535 20.0317L197.078 6.30075C197.078 6.33126 197.017 6.20921 196.895 6.05664Z" fill="#03A678"/>
<path d="M205.62 24.4253L203.911 23.0827C203.911 23.0827 206.047 21.6791 206.352 21.4045C206.658 21.0993 207.787 17.4072 207.787 17.4072L209.678 19.3601L208.427 23.0522L205.62 24.4253Z" fill="#3C444C"/>
<path d="M211.692 16.584L208.793 18.3538L209.556 22.0764L215.354 25.738L218.1 22.9918L211.692 16.584Z" fill="#EACDB0"/>
<path d="M142.824 98.0534L140.596 95.6123L134.494 96.2226L133.578 101.715L138.155 102.02L141.207 98.0534H142.824Z" fill="#EACDB0"/>
<path d="M330.551 95.7354L334.914 100.19L356.884 131.619L347.12 150.537H330.642L322.709 98.0544L330.551 95.7354Z" fill="#565656"/>
<path d="M328.751 263.741L328.995 266.792L323.381 270.515L320.177 267.769L322.862 264.382L328.476 260.659L328.751 263.741Z" fill="#514943"/>
<path d="M330.154 170.157L330.917 179.463L322.068 211.258L328.964 262.703L323.228 264.565L309.039 214.218L306.873 199.632L307.483 168.753L330.154 170.157Z" fill="#CAB5A1"/>
<path d="M286.154 179.799L296.711 265.969L302.143 266.06L304.035 210.984L314.592 172.445L286.154 179.799Z" fill="#CAB5A1"/>
<path d="M302.143 265.388L302.082 268.47L296.132 271.461L293.233 268.318L296.254 265.297L302.143 265.388Z" fill="#514943"/>
<path d="M308.886 89.4804C308.886 89.4804 300.038 89.0227 293.935 108.551C287.802 128.08 271.538 226.973 273.491 236.982C275.474 246.99 295.43 239.606 308.215 240.46C321 241.315 340.163 246.777 344.618 234.937C344.618 234.937 330.246 143.916 327.194 124.876C324.143 105.836 326.279 89.4499 308.886 89.4804Z" fill="#565656"/>
<path d="M307.33 67.1732C303.363 68.1801 300.19 71.7807 299.702 75.839C297.566 73.7946 296.528 70.6822 296.986 67.7835C297.444 64.8847 299.366 62.23 301.99 60.918C304.401 62.2606 306.262 64.5796 307.055 67.2342L307.33 67.1732Z" fill="#9E6652"/>
<path d="M298.908 70.8672C301.136 60.1265 314.531 62.2319 318.254 70.9893C320.359 75.9935 317.949 82.9505 313.494 86.3375C313.372 87.2834 313.219 89.9075 312.487 90.5483C311.693 91.2196 309.222 90.5178 308.245 90.2737C307.971 90.2127 307.696 90.1211 307.513 89.938C307.269 89.6939 307.238 89.0226 307.238 88.2903C306.537 88.2293 305.804 88.0767 305.041 87.8326C301.929 86.7647 299.702 83.8354 298.817 80.662C297.962 77.4581 298.237 74.0711 298.908 70.8672Z" fill="#EACDB0"/>
<path d="M317.919 108.399C315.356 108.308 312.823 107.972 310.29 107.453C311.999 107.819 312.884 89.3284 312.976 88.0468C313.372 82.1273 314.013 77.2146 310.046 72.6986C309.039 71.5391 301.289 66.5349 300.984 65.0093C300.679 63.3616 301.35 61.6223 302.479 60.3407C304.188 58.3879 306.202 57.442 308.734 57.4115C313.86 57.3809 319.261 59.5169 322.648 63.4226C326.737 68.1522 327.805 74.9871 327.897 81.0593C327.927 82.6765 327.866 84.3242 328.08 85.9414C328.324 87.6807 328.903 89.3284 329.422 90.9761C330.185 93.4477 330.795 95.9803 330.673 98.5434C330.582 101.107 329.666 103.731 327.805 105.5C325.211 107.972 321.367 108.521 317.919 108.399Z" fill="#9E6652"/>
<path d="M328.934 69.2197C328.598 70.5623 327.622 71.5387 326.401 71.7523C323.93 72.149 319.231 72.271 313.098 69.8299C306.964 67.3889 303.638 64.0629 302.082 62.0796C301.319 61.1031 301.289 59.6995 301.96 58.5095L307.941 47.8604L331.894 57.3805L328.934 69.2197Z" fill="#44403D"/>
<path d="M330.704 62.1416L331.894 57.351L307.941 47.8613L305.53 52.1332L315.295 64.4606L330.704 62.1416Z" fill="#383533"/>
<path d="M338.789 60.0963L324.204 41.6357L301.044 45.1143L315.63 63.5748L338.789 60.0963Z" fill="#565656"/>
<path d="M324.143 70.806C323.807 70.7755 323.502 70.7145 323.228 70.5924C322.648 70.3178 323.045 69.8601 323.228 69.4329C323.38 69.0668 323.533 68.7006 323.685 68.3344C324.052 67.4495 324.387 66.5647 324.753 65.6798C325.028 64.978 325.242 64.3677 325.699 63.788C325.882 63.5438 326.065 63.2997 326.218 63.0556C326.584 62.3538 326.34 61.713 325.699 60.7671C325.089 59.8517 324.418 58.9668 323.807 58.2345C322.526 56.5868 321.092 54.8781 319.475 53.0473C319.261 52.8031 319.261 52.4065 319.536 52.1624C319.78 51.9488 320.176 51.9793 320.42 52.2234C322.038 54.0847 323.472 55.7935 324.784 57.4717C325.394 58.2345 326.096 59.1499 326.737 60.0958C327.347 61.0112 327.866 62.0792 327.5 63.1777C327.255 63.9405 326.767 64.6118 326.523 65.3746C326.34 65.9239 326.126 66.4121 326.065 66.9918C325.974 67.9072 325.882 68.8532 325.791 69.7686C325.76 70.1957 325.699 70.4704 325.242 70.6535C324.875 70.7755 324.509 70.8365 324.143 70.806Z" fill="#F2D292"/>
<path d="M327.548 65.7877C327.933 64.8166 327.459 63.7168 326.488 63.3312C325.517 62.9455 324.417 63.4201 324.031 64.3911C323.646 65.3622 324.12 66.462 325.091 66.8477C326.062 67.2333 327.162 66.7588 327.548 65.7877Z" fill="#F2D292"/>
<path d="M306.842 89.8164L294.942 91.6472L258.936 104.768L305.926 108.43L306.842 89.8164Z" fill="#565656"/>
<path d="M279.502 94.8498L289.999 96.9552L292.806 117.399L275.901 120.054C275.901 120.054 254.939 101.746 255.61 101.746C256.281 101.746 265.924 92.7139 265.924 92.7139L279.502 94.8498Z" fill="#5C5C5C"/>
<path d="M287.802 118.192L288.381 125.851L286.673 130.733L280.906 128.75L279.105 119.565L287.802 118.192Z" fill="#EACDB0"/>
<path d="M302.784 102.661L300.19 84.7805C300.19 84.7805 296.925 83.1023 293.874 84.0787C290.822 85.0551 292.196 87.3436 292.196 87.3436L297.078 104.492L296.803 118.04C296.803 118.04 302.448 121.885 305.042 116.85L302.784 102.661Z" fill="#03A678"/>
<path d="M292.073 87.0681C292.073 87.0681 298.39 87.6784 297.413 85.2373L298.298 86.0001L302.661 114.652L301.96 119.351C299.457 119.839 296.803 118.009 296.803 118.009L297.077 104.461L292.195 87.3122C292.195 87.3732 292.134 87.2512 292.073 87.0681Z" fill="#03A678"/>
<path d="M302.783 102.662L302.509 100.679C302.509 100.679 300.403 101.747 300.007 101.869C299.64 101.991 296.131 101.167 296.131 101.167L296.833 103.577L300.373 104.249L302.783 102.662Z" fill="#3C444C"/>
<path d="M305.896 110.229L302.875 102.021L296.772 103.241L294.026 107.818L299.213 114.531L303.21 115.935L305.896 110.229Z" fill="#EACDB0"/>
<path d="M356.884 131.619L318.742 111.48L306.842 108.429C306.842 108.429 300.434 119.719 301.349 123.991C302.265 128.262 313.86 150.537 313.86 150.537H347.119L356.884 131.619Z" fill="#5C5C5C"/>
</svg>
