<svg width="215" height="183" viewBox="0 0 215 183" fill="none" xmlns="http://www.w3.org/2000/svg">
<path d="M74.37 143.742C73.8925 142.201 73.1762 140.77 72.2211 139.559C70.0723 136.807 66.8489 135.486 63.6256 134.605C57.4178 133.064 50.8517 133.174 44.6438 134.936C40.3461 136.146 35.9289 138.458 33.3025 142.531C30.4374 147.155 30.318 153.429 32.3475 158.493C33.3025 161.025 34.8545 163.337 36.6452 165.318C38.6747 167.41 41.0624 168.951 43.5694 170.051C51.2099 173.464 60.4023 172.914 67.0877 167.63C73.7731 162.566 77.2352 152.328 74.37 143.742ZM65.4164 157.062C64.1032 159.594 61.5961 161.245 58.9697 161.905C56.3433 162.566 53.5975 162.566 50.9711 162.456C49.4191 162.456 47.8672 162.346 46.5539 161.795C43.6888 160.584 42.0174 157.172 41.1817 153.98C40.4655 151.117 40.3461 147.705 42.2562 145.613C43.45 144.403 45.1214 143.962 46.6733 143.632C52.0455 142.861 57.5371 143.852 62.9093 144.953C64.2225 145.173 65.6551 145.613 66.3714 146.824C66.7296 147.595 66.7295 148.476 66.7295 149.356C66.8489 151.998 66.6102 154.75 65.4164 157.062Z" fill="#333233"/>
<path d="M59.8053 148.365C58.2533 147.154 56.2238 146.934 54.3137 146.934C52.5229 146.934 50.8516 147.154 49.0608 147.484C48.7027 147.595 48.2252 147.705 47.867 147.925C46.7926 148.695 46.6732 150.347 47.0313 151.667C47.7476 154.199 49.7771 156.291 52.0454 157.172C54.3137 157.942 56.9401 157.612 59.089 156.401C60.044 155.851 60.9991 155.08 61.3572 153.979C62.3123 151.998 61.3572 149.576 59.8053 148.365Z" fill="#333233"/>
<path d="M199.483 142.201C199.005 140.66 198.289 139.229 197.334 138.018C195.185 135.266 191.961 133.945 188.738 133.064C182.53 131.523 175.964 131.633 169.756 133.395C165.459 134.605 161.041 136.917 158.415 140.99C155.55 145.614 155.431 151.888 157.46 156.952C158.415 159.484 159.967 161.795 161.758 163.777C163.787 165.868 166.175 167.41 168.682 168.51C176.322 171.923 185.515 171.372 192.2 166.089C198.886 160.915 202.348 150.677 199.483 142.201ZM190.529 155.411C189.216 157.943 186.709 159.594 184.082 160.254C181.456 160.915 178.71 160.915 176.084 160.805C174.532 160.805 172.98 160.695 171.667 160.144C168.801 158.933 167.13 155.521 166.294 152.328C165.578 149.466 165.459 146.054 167.369 143.962C168.563 142.751 170.234 142.311 171.786 141.981C177.158 141.21 182.65 142.201 188.022 143.302C189.335 143.522 190.768 143.962 191.484 145.173C191.842 145.944 191.842 146.824 191.842 147.705C191.961 150.457 191.723 153.209 190.529 155.411Z" fill="#333233"/>
<path d="M184.917 146.715C183.365 145.504 181.336 145.284 179.425 145.284C177.635 145.284 175.963 145.504 174.173 145.834C173.814 145.944 173.337 146.054 172.979 146.274C171.904 147.045 171.785 148.696 172.143 150.017C172.859 152.549 174.889 154.64 177.157 155.521C179.425 156.292 182.052 155.961 184.201 154.75C185.156 154.2 186.111 153.429 186.469 152.329C187.424 150.347 186.469 147.926 184.917 146.715Z" fill="#333233"/>
<path d="M118.422 107.966C118.422 104.883 115.437 103.893 113.169 103.893C104.693 103.893 96.2169 103.893 87.7408 104.003C81.891 104.003 75.6832 104.113 70.6691 108.296C65.2969 112.699 61.9542 121.616 62.5511 130.312C63.148 139.008 67.6846 146.934 73.5343 149.576C76.5188 151.007 79.7421 151.117 82.8461 151.227C102.664 151.778 122.481 151.007 142.298 149.026C144.447 148.806 146.716 148.585 148.864 147.815C158.057 144.402 164.145 131.193 165.459 117.983C166.772 104.773 164.265 91.4534 161.4 78.684C160.086 72.7396 157.938 65.9146 153.64 65.144C157.102 76.2622 159.728 88.3711 159.012 100.48C158.534 108.186 156.744 115.781 153.759 122.386C152.685 124.698 151.491 126.899 149.7 128.331C147.432 130.202 144.805 130.312 142.179 130.422C133.822 130.752 125.346 130.752 116.989 130.422C115.199 124.258 115.437 116.992 117.467 111.048C118.064 110.057 118.541 109.066 118.422 107.966Z" fill="#03A678"/>
<path d="M166.175 58.9802C161.877 59.5306 157.818 61.512 154.475 64.7044C154.834 65.3648 154.953 66.0254 154.834 66.7959C155.192 67.2362 155.431 67.7866 155.55 68.337C158.773 77.2536 162.116 86.1701 163.549 95.527C165.101 104.994 164.623 115.011 160.803 123.598C158.535 128.661 155.072 133.065 151.133 136.587C147.909 139.449 143.97 142.862 144.806 147.265C155.192 149.026 164.623 139.559 169.398 129.212C179.188 107.416 175.367 80.9963 166.175 58.9802Z" fill="#3EC29D"/>
<path d="M162.832 125.249C157.34 133.175 151.729 141.101 146.238 148.916C157.221 148.586 168.085 147.706 178.949 146.385C185.156 145.614 191.842 144.513 196.259 139.45C200.199 135.046 201.631 128.441 200.915 122.277C200.318 116.333 197.572 110.388 192.677 108.186C189.454 106.755 185.873 107.196 182.53 108.186C177.874 109.618 173.696 112.37 170.114 116.002C167.368 118.754 165.1 121.947 162.832 125.249Z" fill="#03A678"/>
<path d="M172.144 55.5674C174.173 61.4017 172.741 68.557 168.682 72.9603C167.607 74.1712 166.294 75.1619 164.742 75.3821C162.354 75.8224 159.967 74.1712 158.176 72.2998C155.788 69.768 153.759 66.6856 153.042 63.053C152.087 58.2094 153.998 52.5952 157.818 49.9533C161.638 47.3113 167.249 47.9718 170.233 51.7146C170.95 52.9255 171.666 54.2464 172.144 55.5674Z" fill="#768994"/>
<path d="M157.938 65.9145C158.654 67.0153 159.609 68.006 160.564 68.8867C161.877 70.0976 163.429 71.1984 165.1 71.4185C167.727 71.8589 170.353 70.0976 171.786 67.7859C173.338 65.3641 173.815 62.502 174.174 59.5298C174.293 57.8786 174.412 56.2274 173.815 54.6863C173.457 53.5855 172.741 52.5947 171.905 51.8242C168.443 48.4116 162.593 48.4116 159.131 51.8242C155.789 55.2367 155.192 61.7314 157.938 65.9145Z" fill="#D6E1E4"/>
<path d="M138.717 97.0682C138 96.4077 137.045 95.9673 136.09 95.6371C129.285 93.2153 121.048 94.2061 115.556 89.9129C113.766 88.4819 119.973 85.7298 121.048 85.3996C125.584 84.1887 131.792 85.5097 136.329 85.95C140.388 86.3903 149.938 88.702 152.207 92.2246C153.401 94.206 152.684 96.7379 151.849 98.9395C148.745 106.755 145.163 114.351 141.582 121.946C140.507 124.148 139.791 127.23 141.94 128.661C142.775 129.212 143.85 129.212 144.566 129.872C145.283 130.423 145.402 131.854 144.447 131.964C144.208 131.964 143.85 131.854 143.611 131.854C140.865 130.863 138.12 129.872 135.374 128.992C134.896 128.882 134.419 128.661 134.18 128.221C133.941 127.781 134.061 127.34 134.18 126.9C135.971 119.304 137.761 111.709 139.672 104.223C140.03 101.692 140.507 98.8295 138.717 97.0682Z" fill="#3B3B40"/>
<path d="M142.537 63.713C143.015 64.1533 143.851 64.0432 144.567 63.9332C148.984 63.0525 153.163 60.6307 156.028 57.3283C156.147 57.1082 156.386 56.888 156.505 56.6678C156.744 56.0073 156.625 55.2368 156.028 54.7964C155.192 54.136 153.998 54.2461 153.043 54.6864C149.939 55.8973 147.91 58.6493 144.925 60.1904C144.209 60.6307 143.373 60.8509 142.776 61.5114C142.06 62.1718 141.821 63.2727 142.537 63.713Z" fill="#768994"/>
<path d="M96.6941 29.1478C97.5298 28.5974 98.6042 28.9276 99.9174 29.2579C101.469 29.5881 102.902 30.2486 104.335 30.9091C107.08 32.3401 109.587 34.3216 111.975 36.1929C115.556 39.1651 119.257 42.2474 121.406 46.2103C122.719 48.6321 123.316 51.3841 123.913 54.1362C126.301 64.9241 128.569 75.6019 130.957 86.3899C121.048 85.7294 110.901 89.0318 103.738 95.4165C102.424 96.5173 101.111 97.8383 99.3205 97.7282C95.8584 97.7282 93.9483 91.5637 92.9932 89.1419C91.5606 85.3992 90.8443 81.3261 90.6056 77.3632C90.1281 70.8685 90.725 64.2636 90.8444 57.7688C90.8444 55.0168 90.8444 52.2648 91.0831 49.6228C91.3219 46.2103 92.0382 42.7978 92.9932 39.4954C93.4708 37.8442 93.9483 36.1929 94.5452 34.5417C95.0227 33.1107 95.3809 30.9091 96.336 29.6982C96.336 29.478 96.5747 29.2579 96.6941 29.1478Z" fill="#90959A"/>
<path d="M100.515 24.7447C100.754 25.9556 100.992 27.1665 101.828 28.0472C102.664 28.9278 103.858 29.3681 105.171 29.6984C106.842 30.1387 108.514 30.579 110.185 30.3589C114.005 30.0286 117.109 27.1665 118.303 23.8641C119.497 20.5617 119.019 16.929 117.825 13.6266C116.99 11.3149 115.676 8.89317 113.408 7.79237C112.214 7.24196 110.782 7.02179 109.469 7.02179C107.797 7.02179 106.126 7.24195 104.813 8.12259C103.619 9.00324 102.903 10.3242 102.186 11.6452C101.231 13.5165 100.276 15.498 99.918 17.4794C99.5599 20.0113 100.037 22.323 100.515 24.7447Z" fill="#D1AC9D"/>
<path d="M150.535 60.1903C150.893 60.8508 151.252 61.5112 151.013 62.1717C150.655 63.0524 149.222 63.2725 148.267 62.8322C147.312 62.3919 146.596 61.6213 145.76 61.0709C143.253 59.4197 139.91 59.9701 136.926 60.4104C132.15 61.181 127.256 61.6213 122.361 61.0709C117.586 60.6306 112.691 59.1995 108.871 56.5576C104.573 53.6955 101.589 49.5124 99.0815 45.1092C98.7234 44.4487 98.3652 43.7882 98.2458 43.0177C98.2458 42.2471 98.604 41.4765 99.3203 41.1463C100.275 40.816 101.23 41.2564 102.066 41.8068C104.573 43.3479 113.049 50.5031 115.556 52.0443C123.316 56.7778 125.346 55.8971 134.538 57.2181C137.164 57.6584 139.91 57.6584 142.656 57.4383C144.924 57.2181 147.551 56.9979 149.222 58.429C149.819 58.9794 150.177 59.5298 150.535 60.1903Z" fill="#D1AC9D"/>
<path d="M124.391 27.1666C124.391 26.6162 124.152 26.0658 123.675 25.8456C123.436 25.7355 123.078 25.7355 122.839 25.7355C120.213 25.7355 117.467 25.6254 114.84 25.6254C112.453 25.6254 110.065 25.5154 107.677 24.965C105.887 24.5246 104.096 23.644 102.544 22.323C102.544 20.8919 102.544 19.3508 103.618 18.3601C104.932 16.9291 106.961 16.2686 108.871 15.9383C112.811 15.1678 116.989 15.1678 121.048 15.2778C122.123 15.2778 122.72 14.3972 123.078 13.4065C123.436 12.3057 123.555 11.0948 123.436 10.4343C123.197 8.67299 122.242 7.13188 121.168 5.70083C117.706 1.62784 111.736 -0.463703 106.125 0.0867008C101.111 0.637105 94.6647 3.4992 92.9934 8.23267C92.5159 9.44356 92.5159 10.6544 92.3965 11.9754C92.2771 15.498 92.6353 19.2407 93.8291 22.5432C94.6648 24.5246 95.2617 25.9557 96.933 26.7262C97.6493 28.5976 99.9176 29.4782 101.828 30.0286C107.439 31.3496 113.169 31.9 118.899 31.5698C120.213 31.4597 121.406 31.3496 122.6 30.6891C123.675 29.8085 124.51 28.4875 124.391 27.1666Z" fill="#3B3B40"/>
<path opacity="0.35" d="M103.141 21.2228C102.544 20.122 103.021 18.801 103.976 17.9203C104.932 17.0397 106.245 16.4893 107.677 16.159C110.304 15.4986 113.169 15.1683 115.915 15.0582C118.064 14.9481 121.764 14.2876 122.958 16.4893C123.316 17.1498 123.436 17.8102 123.555 18.4707C124.033 20.6724 123.913 23.9748 121.645 25.2958C120.571 25.9563 119.257 25.9563 117.944 25.9563C113.885 25.8462 109.826 25.1857 106.125 23.8648C104.693 23.4244 103.141 22.7639 102.425 21.553C101.708 20.4522 101.589 21.4429 103.141 21.2228Z" fill="#97AECC"/>
<path d="M96.9324 37.6238C99.0813 36.8532 101.588 37.1834 103.618 38.2842C105.289 39.2749 106.483 40.706 107.677 42.027C110.303 44.9992 113.288 47.531 116.392 50.173C118.302 51.8242 120.212 53.4754 122.719 54.246C124.39 54.7964 126.062 54.7964 127.852 54.9064C133.583 55.1266 139.194 55.3468 144.924 55.5669C143.611 56.998 142.775 58.7593 142.417 60.6307C135.374 60.7407 129.404 61.2911 122.361 61.4012C120.331 61.4012 117.347 61.071 115.317 60.6307C113.288 60.1903 111.378 59.1996 109.706 58.0988C105.05 55.0165 101.588 50.7234 98.1263 46.5403C96.6937 44.779 95.1417 42.9076 94.9029 40.706C94.7835 39.9354 94.9029 38.9447 95.4998 38.3943C95.9774 38.0641 96.4549 37.8439 96.9324 37.6238Z" fill="#525A62"/>
<path d="M124.869 63.0535C119.854 64.8148 114.721 65.6954 109.349 66.2458C104.574 66.6862 98.6044 67.3466 93.9485 66.0257C93.471 65.9156 93.2322 66.5761 93.7098 66.6862C98.3657 68.4475 104.335 67.787 109.229 67.4567C114.363 67.1265 119.496 66.1358 124.391 64.5946H124.51C124.749 64.4846 124.869 64.4845 125.107 64.3745C126.182 64.0442 125.824 62.7232 124.869 63.0535Z" fill="#525A62"/>
<path d="M126.182 68.7774C116.034 73.0707 106.006 73.4009 95.1423 72.3001C94.7841 72.3001 94.6647 72.8505 95.0229 72.9606C105.29 75.3824 117.347 74.5018 126.779 69.8782C127.614 69.4379 127.017 68.4471 126.182 68.7774Z" fill="#525A62"/>
<path d="M74.8471 115.562C79.2643 115.782 84.5171 115.342 87.3822 119.194C89.8893 122.717 88.8148 127.781 87.5016 132.074C86.3078 136.257 84.8752 140.66 82.01 143.743C78.0704 147.926 72.2207 148.696 66.8485 149.247C56.4622 150.237 46.076 150.898 35.6897 151.228C33.0633 151.338 30.3175 151.338 27.8105 150.568C20.0507 148.146 16.111 137.578 18.2599 129.102C20.4088 120.626 27.333 114.241 34.9734 111.379C39.9875 109.507 45.3597 108.847 50.7319 109.617C58.8499 110.828 66.6097 115.121 74.8471 115.562Z" fill="#179572"/>
<path d="M32.4664 105.214C31.9888 104.223 31.5113 103.233 31.1532 102.132C29.6012 96.848 31.8695 90.0229 34.854 87.8213C37.8386 85.6197 41.1813 86.6104 44.2852 87.6012C67.326 94.6464 90.7249 96.6278 114.004 93.4355C115.318 93.2153 116.75 93.1052 117.944 94.3161C119.496 95.8573 120.093 99.4899 119.974 102.682C119.615 107.856 117.347 112.149 114.84 114.241C112.333 116.332 109.468 116.773 106.603 117.103C92.3962 118.974 78.3091 120.956 64.1027 122.827C59.9243 123.378 55.7459 123.928 51.5675 122.937C44.4046 121.286 37.5998 114.901 32.4664 105.214Z" fill="#3B3B40"/>
<path d="M96.8132 96.9579C109.707 101.031 123.913 96.6276 137.403 98.499C130.718 109.727 124.152 121.066 117.466 132.294C116.989 133.175 116.511 134.495 117.347 135.156C117.825 135.486 118.421 135.486 119.018 135.486C123.794 135.266 128.688 135.046 133.464 134.936C132.509 132.404 129.166 130.753 126.301 131.413C133.822 122.607 140.507 113.25 146.357 103.343C147.789 100.811 149.341 97.8385 148.028 95.1966C147.431 93.9857 146.357 92.995 145.163 92.1143C139.075 87.7111 130.837 85.9498 123.316 87.3808C123.316 86.8304 122.719 87.0506 122.242 86.9405C118.063 86.1699 113.646 87.0506 109.707 88.5917C105.767 90.2429 102.305 92.5546 98.8427 94.9764C97.4102 95.747 97.5295 95.5268 96.8132 96.9579Z" fill="#46464A"/>
<path d="M73.974 76.8204C71.2282 79.9027 67.1692 80.8934 63.2296 81.5539C55.231 82.9849 46.6355 83.8656 38.5175 83.7555C32.3096 83.6454 25.2661 82.4345 21.4458 77.3708C18.1031 73.0777 17.6256 67.3534 17.6256 62.1796C17.6256 57.6663 17.3868 51.1715 22.0427 48.4195C23.8335 47.3187 25.9824 46.8784 28.0119 46.4381C36.1298 45.007 44.4866 45.5574 52.3658 47.649C61.4389 50.0707 74.4516 53.0429 77.4361 62.6199C78.9881 67.3534 77.4361 73.0777 73.974 76.8204Z" fill="#3C444C"/>
<path d="M26.8182 62.071C32.7873 63.8323 38.9951 64.6029 45.203 64.9332C51.769 65.2634 58.3351 65.3735 64.7817 64.3828C67.7663 63.9424 70.6314 63.1719 73.4966 62.4013C74.6904 62.0711 75.8842 61.8509 76.9587 61.5206C73.3772 52.8242 61.0808 49.9621 52.3659 47.7604C44.3673 45.6689 36.13 45.1185 28.012 46.5496C25.8631 46.8798 23.8336 47.4302 22.0429 48.531C18.4614 50.7327 17.8645 55.1359 17.6257 59.0989C20.7297 60.4198 24.5499 61.4105 26.8182 62.071Z" fill="#3C444C"/>
<path d="M78.7491 115.46C78.7491 116.12 78.7491 116.781 78.7491 117.441C78.7491 120.633 56.1859 118.652 52.3657 118.652C44.6058 118.542 34.9358 119.863 27.2954 118.432C23.117 117.661 24.5496 114.689 24.4302 111.056C24.3108 107.644 24.3108 104.121 24.3108 100.709C24.3108 93.5535 24.3108 86.3982 24.4302 79.353C27.7729 79.353 30.7575 78.3623 34.2196 78.2522C37.3235 78.2522 40.4274 78.6925 43.6507 78.6925C53.3207 78.6925 62.9907 78.4724 72.6607 78.8026C75.0483 78.9127 77.5553 78.5824 78.7491 80.5639C80.3011 83.0958 78.8685 89.5906 78.8685 92.4527C78.7491 100.158 78.7491 107.754 78.7491 115.46Z" fill="#525A62"/>
<path d="M82.3306 93.9937C82.3306 94.324 82.3307 94.6542 82.0919 94.9845C81.3756 96.0853 76.8391 95.9752 75.4065 95.9752C72.8995 96.0853 70.2731 95.9752 67.766 95.8651C62.8714 95.8651 57.9767 95.645 52.9626 95.5349C44.3671 95.4248 33.7421 96.0853 25.5047 95.4248C20.9682 94.9845 22.5202 93.5534 22.4008 91.682C22.2814 89.9207 22.2814 88.1594 22.2814 86.3981C22.2814 84.3066 22.2814 82.105 22.2814 80.0134C22.2814 78.4723 21.5651 76.2706 23.3558 75.1698C24.1915 74.6194 25.3853 74.5093 26.4598 74.5093C27.773 74.5093 29.0862 74.6194 30.3994 74.7295C34.6971 75.0597 39.1143 75.1698 43.412 75.1698C55.589 75.1698 67.766 75.39 79.8236 75.0597C80.1818 75.0597 80.5399 75.0598 80.8981 75.1698C81.2562 75.39 81.3756 75.7202 81.495 76.0505C81.9725 77.2614 81.9725 78.5823 81.9725 79.9033C82.0919 82.9856 82.0919 86.178 82.2113 89.2602C82.3307 90.9115 82.3306 92.4526 82.3306 93.9937Z" fill="#F2D292"/>
<path d="M54.3949 91.6813C52.7235 91.7914 51.0522 91.9014 49.3809 92.0115C49.2615 94.7635 49.2615 97.6256 49.1421 100.378C50.9328 100.378 52.7235 100.158 54.3949 99.9374C54.5143 97.1853 54.5143 94.4333 54.3949 91.6813Z" fill="#818181"/>
<path d="M76.8385 61.7401C67.2879 64.382 57.4986 65.1526 47.5898 64.8223C42.4564 64.6022 37.323 63.9417 32.3089 63.1711C27.4142 62.4006 22.4002 61.4098 18.2218 58.7679C17.8637 58.5477 17.5055 59.0981 17.8637 59.3183C25.2654 64.382 36.2485 65.0425 45.2022 65.703C55.9466 66.4736 66.8104 65.703 77.1966 62.8409C77.9129 62.6207 77.5548 61.5199 76.8385 61.7401Z" fill="#525A62"/>
<path d="M70.7505 62.3995C70.7505 62.0692 70.5118 61.8491 70.273 61.6289C69.9148 61.2987 69.5567 61.4087 69.0792 61.1886C68.8404 61.0785 68.6016 61.0785 68.4823 61.1886C68.3629 61.1886 68.1241 61.1886 68.1241 61.4088C68.0047 61.9592 68.2435 62.3995 68.3629 62.8398C68.6016 63.7205 68.6016 64.6011 68.4823 65.4818C68.3629 66.2524 68.8404 66.3625 69.4373 66.3625C69.6761 66.5826 70.0342 66.5826 70.273 66.3625C70.3924 66.3625 70.5117 66.3625 70.6311 66.3625C70.9893 66.3625 71.228 66.0322 71.1087 65.702C71.1087 64.6011 70.8699 63.5003 70.7505 62.3995Z" fill="#1C1C1C"/>
<path opacity="0.13" d="M35.0984 181.685C40.1124 182.676 45.3652 183.556 50.3793 182.566C54.6771 181.685 58.4973 179.263 62.6757 177.832C68.0479 175.961 74.017 175.631 79.7473 175.52C114.129 175.08 148.153 183.887 182.416 181.355C194.115 180.474 206.77 177.612 213.694 168.806C214.291 168.035 214.888 167.154 214.769 166.164C214.649 163.852 211.426 163.191 208.919 163.081C175.969 161.76 142.901 163.962 110.07 161.981C99.2066 161.32 88.4622 160.219 77.5984 160.66C60.288 161.43 43.3357 166.164 26.0253 165.943C21.1306 165.833 16.1166 165.393 11.2219 166.384C6.44663 167.374 1.67135 170.016 0 174.31C11.8188 176.952 23.3989 179.483 35.0984 181.685Z" fill="#070707" fill-opacity="0.32"/>
</svg>
