<svg width="797" height="344" viewBox="0 0 797 344" fill="none" xmlns="http://www.w3.org/2000/svg">
<path d="M697.059 341.557C720.85 339.486 744.699 344.516 768.49 343.806C777.781 343.51 787.072 342.386 796.304 341.261C797.429 336.113 795.121 330.846 795.239 325.579C795.831 292.911 792.99 276.696 795.061 252.077C795.121 251.604 795.121 251.13 794.943 250.716C794.47 249.651 789.084 249.296 787.96 249.355C771.804 250.302 755.647 250.598 739.491 250.243C731.029 250.065 722.507 249.651 714.044 249.71C709.783 249.769 705.522 249.887 701.261 250.243C698.775 250.479 697.651 250.006 697.533 252.669C697.414 254.918 697.473 257.167 697.414 259.415C697.178 276.874 697 294.332 697 311.849C697 321.791 697 331.674 697.059 341.557Z" fill="#F2F4F7"/>
<path opacity="0.71" d="M743.338 283.265C743.338 283.798 743.338 284.449 743.693 284.863C743.989 285.1 744.344 285.218 744.699 285.277C747.717 285.869 750.854 286.047 753.931 285.81C754.227 275.749 754.168 265.689 753.872 255.628C753.813 254.563 753.754 253.32 752.866 252.669C752.393 252.314 751.86 252.255 751.327 252.137C749.315 251.841 747.303 251.782 745.291 251.9C742.214 252.077 742.865 254.09 743.042 256.457C743.22 259.475 743.397 262.493 743.456 265.452C743.575 271.429 743.575 277.347 743.338 283.265Z" fill="#DDE1E7"/>
<path opacity="0.71" d="M794.588 253.083C795.002 251.781 795.12 250.361 794.943 249C773.401 250.243 751.742 251.13 730.2 249.947C721.678 249.473 713.038 248.645 704.516 249.473C702.977 249.592 699.486 249.473 698.243 250.361C696.941 251.308 697.473 252.551 698.835 253.143C700.314 253.794 702.918 253.32 704.457 253.32C706.765 253.32 709.073 253.379 711.381 253.379C729.253 253.557 747.066 253.557 764.939 253.439C769.91 253.379 774.94 253.379 779.911 253.32C781.213 253.261 794.41 253.794 794.588 253.083Z" fill="#DDE1E7"/>
<path d="M275.334 210.653C272.173 208.943 268.96 206.922 267.25 203.761C265.177 199.977 265.643 195.262 266.783 191.064C268.182 185.778 270.514 180.751 272.795 175.724C274.038 172.978 275.438 170.076 277.821 168.21C281.553 165.308 286.839 165.567 291.451 166.655C295.7 167.64 299.95 169.35 302.852 172.615C306.376 176.605 307.257 182.306 307.05 187.644C306.635 196.868 303.267 205.937 297.67 213.244C291.451 221.173 282.796 214.695 275.334 210.653Z" fill="#272826"/>
<path d="M275.075 169.765C274.246 168.366 273.261 166.915 271.81 166.241C270.411 165.567 268.804 165.619 267.301 165.878C260.15 166.966 253.62 171.631 250.252 178.108C248.49 181.477 247.557 185.208 246.624 188.939L228.331 249.883C228.071 250.971 227.812 252.06 227.501 253.2C223.148 270.975 222.267 288.18 219.054 306.215C217.759 313.625 216.204 321.243 215.479 328.809C215.738 328.965 216.049 329.068 216.308 329.172C217.396 328.965 218.432 328.965 219.624 329.224C219.676 329.224 219.676 329.276 219.728 329.276C223.563 323.575 227.553 314.04 229.16 310.568C237.037 293.259 241.805 277.246 250.874 259.989C260.098 242.421 273.52 223.557 277.873 204.279C280.413 192.774 280.983 179.974 275.075 169.765Z" fill="#272826"/>
<path d="M210.711 329.275C206.202 330.571 201.434 329.897 196.77 329.897C195.527 329.897 194.231 330.001 193.298 330.83C192.314 331.711 192.21 333.318 192.676 334.561C193.195 335.805 194.179 336.738 195.267 337.515C196.718 338.5 198.325 339.277 199.931 339.847C201.59 340.469 203.3 340.987 205.062 340.936C206.15 340.884 207.239 340.625 208.327 340.366C213.509 339.018 218.588 337.36 223.563 335.339C224.806 334.821 226.206 334.147 226.517 332.799C226.724 332.022 226.413 331.193 226.102 330.416C225.014 327.928 223.044 324.715 220.039 325.492C216.826 326.373 213.975 328.394 210.711 329.275Z" fill="#494949"/>
<path d="M285.906 267.814C292.435 278.593 297.98 290.823 305.495 300.928C309.641 306.525 313.942 310.878 318.088 316.475C318.554 317.149 319.176 317.823 319.953 317.926C320.679 318.03 321.353 317.615 321.974 317.201C323.529 316.164 327.001 314.195 328.556 313.159C306.739 286.418 297.048 251.23 296.478 216.768C296.322 208.891 296.633 200.858 294.56 193.24C292.487 185.622 287.512 178.315 280.05 175.776C273.727 173.651 266.731 175.465 261.497 179.3C255.486 183.705 257.921 188.887 259.061 195.572C261.808 211.741 266.472 227.599 272.95 242.679C276.681 251.334 281.034 259.729 285.906 267.814Z" fill="#272826"/>
<path d="M319.954 313.47C318.865 314.247 316.119 315.854 315.393 316.994C314.564 318.289 314.253 319.844 313.476 321.191C311.61 324.56 307.516 325.648 303.888 326.685C302.852 326.996 301.66 327.514 301.556 328.55C301.505 328.913 301.66 329.328 301.764 329.69C301.971 330.312 302.126 330.934 302.334 331.504C302.437 331.919 302.593 332.281 302.904 332.592C303.422 333.111 304.303 333.007 305.029 332.852C309.485 331.919 313.838 330.727 318.088 329.224C320.835 328.239 325.136 326.374 327.572 324.767C330.007 323.109 332.132 320.932 333.272 318.186C333.428 317.823 333.583 317.408 333.479 316.994C333.376 316.579 333.013 316.268 332.702 316.009C331.562 315.024 330.525 313.936 329.593 312.796C328.919 311.915 328.142 309.842 327.209 309.324C325.55 308.339 321.405 312.433 319.954 313.47Z" fill="#494949"/>
<path d="M260.72 67.9329C262.016 71.0423 264.037 73.8408 266.576 76.0691C267.716 77.0538 268.96 77.9348 270.411 78.453C274.868 80.0077 279.687 77.4684 283.159 74.2553C287.461 70.2132 290.674 64.979 291.969 59.1749C293.265 53.4225 292.488 47.152 289.637 42.0215C287.15 37.5647 283.004 33.9371 278.081 32.5379C275.697 31.8642 273.209 31.7087 270.722 31.6569C268.338 31.6051 265.902 31.6569 263.778 32.6934C261.705 33.678 258.647 36.321 257.766 38.5494C256.833 40.9332 258.181 45.1309 258.284 47.722C258.492 54.459 258.025 61.5587 260.72 67.9329Z" fill="#99816A"/>
<path d="M271.344 81.3549C268.183 80.8885 264.503 79.7484 262.171 81.5104C261.342 82.1322 260.927 82.9614 260.513 83.7906C252.843 99.3375 253.517 116.957 251.496 133.8C249.889 147.118 246.469 160.229 245.173 173.652C245.121 174.17 245.07 174.74 245.381 175.258C245.691 175.776 246.313 176.139 246.883 176.45C252.636 179.404 259.425 180.492 266.006 181.58C274.712 182.98 283.522 184.431 292.28 184.016C295.131 183.861 297.981 183.55 300.52 182.617C308.449 179.767 311.921 171.993 312.284 164.79C312.595 158.882 311.299 152.974 310.004 147.118C308.138 138.827 306.065 130.587 303.681 122.399C301.505 114.781 299.017 107.163 295.441 99.8557C292.85 94.6216 289.741 89.4911 286.01 84.7234C281.605 79.0747 278.029 82.3914 271.344 81.3549Z" fill="#757575"/>
<path d="M194.076 156.602C192.366 156.447 190.552 156.24 189.36 155.048C188.012 153.7 187.961 151.575 188.012 149.71C188.272 131.727 189.412 113.693 191.381 95.814C212.317 96.7986 233.254 98.3533 254.087 100.426C256.678 119.031 257.403 137.894 256.108 156.654C256.004 158.261 255.693 160.126 254.242 160.748C250.977 162.147 245.691 159.504 242.426 158.882C237.607 157.95 232.632 158.364 227.709 158.312C216.463 158.105 205.218 157.535 194.076 156.602Z" fill="#DDE1E7"/>
<path opacity="0.71" d="M218.795 97.6792C219.832 97.6792 220.92 97.731 221.956 97.731C222.423 97.9902 222.993 98.0938 223.667 98.1456C225.273 98.1456 226.88 98.1974 228.434 98.1974C230.352 99.3375 230.196 100.737 230.3 104.313C230.507 112.501 230.559 120.689 230.352 128.825C226.569 129.032 222.837 128.98 219.054 128.669C218.692 128.617 218.329 128.618 218.07 128.358C217.552 127.892 217.552 127.011 217.552 126.234C217.966 116.75 218.381 107.215 218.795 97.6792Z" fill="#9A9C9F"/>
<path d="M281.967 106.386C282.382 103.017 282.745 99.4932 282.019 96.2284C281.242 92.9635 279.065 89.9578 276.111 89.5951C275.178 89.4914 274.194 89.6987 273.468 90.3724C272.795 90.9943 272.432 91.9789 272.173 92.9117C269.426 101.566 268.701 110.739 267.56 119.808C266.835 125.197 265.954 130.587 264.918 135.925C264.607 137.479 264.296 139.034 263.466 140.33C262.119 142.558 259.735 143.491 257.455 144.165C248.904 146.704 240.043 147.067 231.336 148.518C227.864 149.088 224.392 149.865 220.92 150.642C215.997 151.731 211.074 152.819 206.15 153.855C205.373 154.011 204.596 154.218 204.077 154.892C203.248 155.928 203.507 157.639 204.285 158.623C205.114 159.608 206.306 160.022 207.498 160.281C208.431 160.541 209.415 160.696 210.348 160.541C211.488 160.333 212.473 159.66 213.561 159.141C217.24 157.276 221.283 157.12 225.273 156.965C231.647 156.706 238.021 156.498 244.396 156.239C251.703 155.98 259.113 155.669 266.161 153.182C267.094 152.871 267.975 152.508 268.804 151.886C271.24 150.176 272.484 146.963 273.52 143.905C277.821 131.623 280.464 119.393 281.967 106.386Z" fill="#99816A"/>
<path d="M263.726 121.984C263.363 121.933 262.948 121.829 262.741 121.57C262.43 121.259 262.43 120.741 262.43 120.274C262.741 111.516 264.399 102.862 267.146 94.5701C267.768 92.7044 268.441 90.787 269.633 89.1805C270.773 87.574 272.484 86.2784 274.453 85.9675C277.199 85.5529 279.894 87.263 281.449 89.5432C283.004 91.8234 283.574 94.6219 283.988 97.3685C284.973 104.054 285.025 110.842 284.196 117.579C283.936 119.808 283.833 125.975 282.123 127.529C280.568 128.929 276.111 125.664 274.401 124.99C270.981 123.643 267.353 122.606 263.726 121.984Z" fill="#808080"/>
<path d="M255.278 35.077C256.937 33.9369 258.181 31.9676 259.735 30.4648C261.86 28.4437 264.451 27.5108 267.042 27.2517C267.198 27.2517 267.301 27.1999 267.457 27.1999C273.468 26.3189 279.791 28.3918 284.455 32.5895C285.75 33.7814 288.497 36.1653 288.601 38.3937C288.756 38.601 288.912 38.8083 289.067 39.0155C290.414 39.0155 291.969 40.0002 293.161 41.8658C296.789 47.5663 297.255 55.4952 294.819 61.9213C292.591 67.8291 288.134 72.4932 282.9 75.0325C282.848 75.0843 282.796 75.188 282.693 75.2398C282.019 75.6544 281.294 75.9653 280.516 76.1726C282.019 72.4413 282.589 68.2437 282.175 64.1497C282.9 64.3051 283.677 63.7869 284.04 63.0614C284.455 62.3877 284.558 61.5067 284.714 60.7294C284.869 59.6411 284.818 58.1382 283.833 57.9309C283.211 57.7755 282.589 58.2937 282.226 58.8637C281.864 59.4338 281.553 60.1075 280.983 60.4702C281.656 58.0864 280.775 55.288 278.91 53.8369C278.702 54.1478 278.495 54.4588 278.236 54.7697C278.029 53.1632 277.303 51.6603 276.267 50.5202C275.852 50.1056 275.386 49.6911 274.816 49.5874C274.246 49.4838 273.676 49.6393 273.157 49.432C272.432 49.121 272.069 48.1882 271.344 47.9291C270.411 47.5663 269.478 48.4473 268.856 49.2765C268.752 48.3955 267.923 47.8254 267.146 47.67C266.369 47.5145 265.539 47.7218 264.762 47.7736C263.622 47.8254 262.534 47.67 261.394 47.4627C260.461 47.3072 259.476 46.9963 258.699 46.4262C258.543 46.3744 258.44 46.3744 258.284 46.3226C253.931 45.027 249.941 39.8447 250.096 33.7814C251.184 36.0098 253.62 36.1653 255.278 35.077Z" fill="#494949"/>
<path d="M143.301 308.269C155.315 307.203 167.388 309.807 179.46 309.452C184.195 309.334 188.87 308.742 193.545 308.091C194.137 305.428 192.953 302.706 193.013 299.924C193.308 282.88 191.888 274.477 192.894 261.635C192.894 261.398 192.953 261.161 192.835 260.925C192.598 260.392 189.876 260.214 189.284 260.214C181.117 260.747 172.951 260.865 164.724 260.688C160.404 260.569 156.143 260.392 151.823 260.392C149.634 260.392 147.503 260.51 145.313 260.688C144.071 260.806 143.479 260.569 143.42 261.931C143.36 263.114 143.361 264.298 143.361 265.481C143.242 274.595 143.183 283.709 143.124 292.763C143.301 297.971 143.301 303.12 143.301 308.269Z" fill="#F2F4F7"/>
<path opacity="0.71" d="M166.322 276.43C166.322 276.725 166.322 277.021 166.5 277.258C166.618 277.376 166.855 277.436 167.033 277.495C168.571 277.791 170.169 277.909 171.708 277.791C171.826 272.524 171.826 267.316 171.649 262.049C171.649 261.516 171.589 260.865 171.116 260.51C170.879 260.333 170.583 260.273 170.347 260.273C169.341 260.155 168.335 260.096 167.329 260.155C165.79 260.273 166.086 261.279 166.204 262.522C166.322 264.061 166.382 265.659 166.441 267.197C166.441 270.216 166.441 273.293 166.322 276.43Z" fill="#DDE1E7"/>
<path d="M122.529 304.126C141.763 303.83 161.055 303.475 180.289 303.179C185.97 303.061 191.651 303.001 197.333 303.12C200.469 303.179 203.606 303.356 206.624 304.126C207.038 307.913 207.216 311.701 207.216 315.488C181.828 316.909 156.38 317.855 130.933 318.329C128.151 318.388 123.831 318.743 122.766 315.607C122.352 314.541 122.588 304.126 122.529 304.126Z" fill="#F2F4F7"/>
<path d="M210.589 319.572C210.648 318.98 210.53 318.388 210.293 317.855C209.761 315.902 208.518 314.364 207.038 314.364C192.953 314.541 178.928 314.6 164.843 314.837C150.758 314.6 136.732 314.541 122.647 314.364C121.168 314.364 119.925 315.902 119.393 317.855C119.156 318.388 119.097 318.98 119.097 319.572C119.097 319.808 119.097 320.045 119.097 320.282C119.215 323.418 121.109 325.549 123.121 325.549C129.512 325.49 135.963 325.49 142.354 325.371C149.87 325.253 157.327 325.016 164.843 324.72C172.3 325.016 179.815 325.253 187.331 325.371C193.723 325.49 200.173 325.549 206.565 325.549C208.636 325.549 210.471 323.359 210.589 320.282C210.589 319.986 210.589 319.808 210.589 319.572Z" fill="#F2F4F7"/>
<path d="M133.477 326.082C132.767 327.384 132.294 328.982 132.531 330.461C132.649 331.23 133.004 332 133.418 332.651C135.371 335.906 139.218 337.622 142.65 336.852C144.722 336.379 146.615 335.018 147.74 333.065C148.864 331.112 149.16 328.508 148.332 326.318C147.917 325.194 147.207 324.188 146.32 323.419C142.236 319.454 136.141 320.992 133.477 326.082Z" fill="#F2F4F7"/>
<path d="M139.395 326.378C138.449 326.969 137.798 328.094 137.798 329.218C137.798 330.343 138.449 331.467 139.455 331.941C140.461 332.473 141.763 332.296 142.591 331.526C142.887 331.23 143.124 330.875 143.361 330.52C143.893 329.633 144.426 328.567 144.071 327.561C143.301 325.904 140.875 325.49 139.395 326.378Z" fill="#F2F4F7"/>
<path d="M140.106 328.745C139.928 329.041 140.046 329.396 140.283 329.573C140.401 329.632 140.579 329.692 140.697 329.692C140.934 329.692 141.112 329.692 141.289 329.573C142.177 328.863 140.697 327.679 140.106 328.745Z" fill="#F2F4F7"/>
<path d="M186.621 321.347C185.142 321.288 183.484 321.466 182.242 322.353C181.591 322.827 181.058 323.419 180.644 324.07C178.513 327.265 178.573 331.408 180.762 334.189C182.064 335.846 184.076 336.971 186.384 337.208C188.633 337.385 191.119 336.557 192.776 334.899C193.604 334.012 194.196 332.947 194.61 331.881C196.327 326.437 192.361 321.584 186.621 321.347Z" fill="#F2F4F7"/>
<path d="M188.811 326.792C187.864 326.141 186.562 326.082 185.556 326.555C184.55 327.029 183.839 328.094 183.78 329.218C183.721 330.343 184.431 331.467 185.497 331.881C185.911 332.059 186.325 332.118 186.739 332.118C187.805 332.237 188.988 332.296 189.698 331.467C190.941 330.106 190.29 327.798 188.811 326.792Z" fill="#F2F4F7"/>
<path d="M186.976 328.449C186.68 328.449 186.325 328.685 186.266 328.981C186.266 329.159 186.266 329.277 186.325 329.455C186.384 329.632 186.503 329.869 186.68 329.928C187.805 330.402 188.219 328.567 186.976 328.449Z" fill="#F2F4F7"/>
<path d="M122.174 317.145C118.505 312.648 115.546 307.499 112.35 302.646C109.095 297.675 105.84 292.704 102.526 287.733C96.0757 277.909 89.6251 268.026 83.352 258.084C82.4051 256.545 79.8604 258.084 80.8073 259.622C87.1395 269.565 93.3534 279.566 99.6857 289.508C102.822 294.42 105.959 299.332 109.155 304.244C112.35 309.215 115.96 314.068 118.742 319.276C119.866 321.525 123.713 319.039 122.174 317.145Z" fill="#F2F4F7"/>
<path d="M76.1408 325.712C77.0285 324.588 77.857 323.522 78.7447 322.398C75.4307 318.906 73.5961 314.29 70.8146 310.384C69.8086 308.964 68.625 307.662 67.0271 306.952C65.4292 306.242 63.4171 306.419 62.2335 307.662C61.3458 308.609 61.1683 310.029 61.405 311.272C61.9376 314.409 64.7783 316.125 66.9679 318.137C69.8086 320.978 72.8859 323.463 76.1408 325.712Z" fill="#B09071"/>
<path d="M17.4342 332.636C17.375 332.872 17.3158 333.168 17.4934 333.405C17.6709 333.642 17.9668 333.701 18.2627 333.819C19.3279 334.056 20.5115 334.234 21.636 334.234C25.4235 326.659 29.211 319.084 32.9985 311.508C34.1821 309.082 35.4249 306.597 35.4249 304.052C35.4249 302.04 34.5372 300.146 33.0577 298.666C31.2231 296.832 27.554 295.885 25.7786 298.548C23.7664 301.625 23.4706 306.301 22.5828 309.615C20.5707 317.249 18.8545 324.883 17.4342 332.636Z" fill="#B09071"/>
<path d="M27.6725 230.965C28.9744 230.195 29.6846 228.597 29.5071 227.118C29.3295 225.638 28.2051 224.277 26.7848 223.863C26.0746 223.626 25.3053 223.626 24.5951 223.567C20.8076 223.153 17.4343 221.082 14.4753 218.714C11.5163 216.288 8.85321 213.566 5.77585 211.317C4.29635 210.252 2.52095 209.305 0.686368 209.364C-0.142153 210.429 -0.142151 211.968 0.272109 213.27C0.68637 214.572 1.57407 215.696 2.40259 216.761C4.00045 218.892 5.65749 221.022 7.61044 222.798C11.2796 226.23 15.9548 228.361 20.5709 230.373C22.7605 231.32 25.542 232.267 27.6725 230.965Z" fill="#B09071"/>
<path d="M20.926 235.995C29.3296 236.883 37.2005 242.031 41.4023 249.31C42.7043 239.013 44.0654 228.775 45.3674 218.478C37.7332 219.72 29.8622 219.898 22.1688 219.069C21.4586 224.751 21.0444 230.373 20.926 235.995Z" fill="#537082"/>
<path d="M41.6982 215.46C40.1595 215.696 38.5025 215.755 37.0822 215.223C35.6618 214.69 34.4782 213.625 33.5314 212.382C30.5132 208.476 29.803 203.328 29.9214 198.416C30.0397 194.332 30.6315 190.19 32.6437 186.639C36.6087 179.478 46.3734 175.986 52.1731 183.147C54.8362 186.402 54.8953 190.959 54.8953 195.102C54.777 204.748 52.7057 213.862 41.6982 215.46Z" fill="#B09071"/>
<path d="M36.6677 188.533C33.7679 189.716 30.513 191.136 27.6724 189.834C28.3233 181.253 36.6677 174.803 44.8938 174.803C46.9651 174.803 49.0955 175.158 51.1668 174.803C53.2381 174.448 55.3686 173.264 56.0788 171.252C56.8481 172.317 57.2032 173.797 56.9073 175.099C57.6767 174.803 58.446 174.507 59.1561 174.211C63.0028 182.319 62.5294 186.935 63.0028 194.095C63.1212 196.108 60.8724 199.658 60.3989 201.611C59.0378 207.293 53.2381 210.252 48.0303 212.5C47.8528 207.884 49.0364 203.209 51.3444 199.244C51.6995 198.652 52.1137 198.001 52.1137 197.291C52.1729 195.812 50.1608 194.865 49.1547 195.812C49.2731 195.693 45.3672 189.006 44.7162 188.414C42.5266 186.52 39.2717 187.467 36.6677 188.533Z" fill="#494949"/>
<path d="M58.6828 283.102C58.3277 284.641 57.3808 285.943 55.9013 286.002C49.214 286.18 31.9334 286.476 30.0988 284.996C27.3766 282.688 27.9684 272.45 28.0275 268.781C28.1459 260.081 30.0396 251.441 30.0396 242.86C30.0396 242.682 30.0396 242.505 30.0396 242.327C29.9805 237.119 30.7498 231.912 32.2885 227.296C33.0578 224.988 34.1823 222.739 35.1291 220.608C36.1352 218.359 38.2657 218.004 39.9819 218.004C41.8165 217.945 43.5919 218.3 45.3673 217.827C46.906 217.413 48.3263 216.288 49.9241 215.933C52.4097 215.341 55.8422 216.821 57.2033 220.194C58.5053 223.39 61.701 226.23 62.4703 229.781C62.4111 229.604 66.5537 249.192 58.6828 283.102Z" fill="#4B6676"/>
<path d="M73.1819 307.247C70.4596 304.999 68.3883 302.395 66.5537 299.376C64.3641 295.944 63.7131 292.097 63.4764 288.132C63.4764 286.12 63.4764 284.167 63.4764 282.155C63.5355 279.374 63.6539 276.592 63.4764 273.811C63.4764 265.17 63.4764 256.471 63.4172 247.831C63.4172 239.664 63.358 231.379 61.4642 223.448C60.9316 221.377 60.2806 219.188 58.8603 217.59C57.44 215.992 55.0728 214.986 53.0607 215.696C59.8664 224.04 59.748 235.876 59.2746 246.647C59.1562 248.778 58.9787 251.145 57.44 252.624C55.8421 254.163 53.4157 254.281 51.1669 254.281C48.2079 254.281 45.1897 254.281 42.3491 253.334C39.5084 252.388 36.9637 250.316 36.1944 247.416C35.7801 245.878 35.9576 244.221 36.1352 242.623C36.8453 236.409 37.733 230.195 38.8575 224.04C39.1534 222.265 40.9288 217.945 39.1534 216.939C37.378 215.873 34.4781 218.3 33.6496 219.602C32.3477 221.614 31.9926 224.04 31.6967 226.407C30.0396 239.25 28.3826 252.151 26.7256 264.993C26.2521 268.484 25.8379 272.035 25.542 275.527C22.7013 289.198 19.8607 302.868 17.02 316.539C22.0503 319.557 27.7316 321.51 33.5313 322.338C36.4903 316.006 39.5084 309.674 42.4674 303.342C48.2079 308.431 54.0075 313.521 59.748 318.61C60.4582 319.202 61.2867 319.853 62.1744 319.734C62.8846 319.675 63.4172 319.143 63.9498 318.669C67.0272 315.71 70.1637 312.81 73.2411 309.851C73.5961 309.496 74.0104 309.082 74.0104 308.549C74.1879 308.076 73.6553 307.602 73.1819 307.247Z" fill="#ABBCC4"/>
<path d="M17.6709 335.063C17.4934 335.063 17.3158 335.062 17.1975 335.122C17.0791 335.181 16.9608 335.358 16.9016 335.477C15.9547 336.897 14.0018 337.075 12.2855 337.015C10.5693 337.015 8.67556 337.075 7.55114 338.317C6.54508 339.442 6.60426 341.158 6.7818 342.638C6.7818 342.756 6.84098 342.874 6.90016 342.993C7.01852 343.111 7.13688 343.111 7.25524 343.17C11.3387 343.762 15.5404 343.762 19.5647 343.052C20.1565 342.933 20.8075 342.815 21.3401 342.401C21.8135 341.987 22.1094 341.395 22.287 340.803C22.642 339.738 23.5297 336.779 22.642 335.773C21.8135 334.826 18.8545 335.181 17.6709 335.063Z" fill="#736357"/>
<path d="M76.3186 326.659C75.8451 327.191 75.3125 327.842 75.4901 328.552C75.7268 329.381 76.7328 329.677 77.0287 330.505C77.2655 331.097 76.9696 331.807 76.6737 332.399C76.141 333.464 75.5492 334.589 74.484 335.121C73.8922 335.417 73.1229 335.476 72.7086 336.068C72.4127 336.423 72.4127 336.956 72.3535 337.429C72.3535 338.14 72.3535 338.909 72.827 339.441C73.2412 339.797 73.7738 339.915 74.3065 339.974C75.5492 340.092 76.792 340.211 78.0348 340.211C78.3307 340.211 78.6858 340.211 78.9225 340.092C79.2184 339.915 79.3959 339.678 79.5735 339.382C81.1713 336.719 82.5325 333.879 83.5977 330.92C84.1895 329.322 84.6038 327.428 83.5977 326.067C83.0059 325.238 80.8754 323.936 79.8102 323.818C78.2715 323.64 77.2655 325.593 76.3186 326.659Z" fill="#736357"/>
<path d="M63.5355 237.829C62.8253 237.238 62.056 236.468 62.2927 235.581C62.3519 235.285 62.5886 234.989 62.7662 234.752C64.0089 233.154 65.4293 231.734 67.0271 230.55C73.1227 237.001 78.4489 244.221 82.8874 251.855C83.9526 253.749 85.0179 255.761 84.8403 257.951C84.6628 260.14 82.4731 262.567 80.2243 261.383C78.0938 260.259 77.1469 255.524 76.0817 253.512C72.9451 247.594 68.6842 242.209 63.5355 237.829Z" fill="#B09071"/>
<path d="M71.8801 227.65C67.5599 225.106 62.9439 223.153 58.0911 221.732C55.1321 220.845 51.9956 220.253 48.9182 220.845C45.9 221.436 43.0002 223.567 42.29 226.585C41.7574 228.716 42.4676 231.083 43.7695 232.858C45.0715 234.634 46.9061 235.995 48.9182 237.001C52.5874 238.895 58.0911 241.084 61.6419 238.303C65.0152 235.699 70.4006 231.793 71.8801 227.65Z" fill="#537082"/>
<path d="M584.017 1.84262C583.749 34.1276 583.428 69.7856 584.606 100.357C628.295 101.696 671.931 99.1259 713.8 99.233C714.174 66.7874 714.174 34.2882 713.8 1.84262C670.217 3.28822 627.653 1.14659 584.017 1.84262Z" fill="white"/>
<path d="M582.25 1.84255C581.983 34.6629 581.662 67.5369 582.839 100.357C582.893 101.321 583.589 102.071 584.606 102.071C627.706 103.302 670.753 100.893 713.8 100.946C714.763 100.946 715.567 100.143 715.567 99.2329C715.941 66.7873 715.941 34.2882 715.567 1.84255C715.567 0.932364 714.763 0.0757081 713.8 0.129249C670.539 1.5213 627.278 -0.513239 584.017 0.129249C581.769 0.182789 581.769 3.60938 584.017 3.55584C627.278 2.91336 670.539 4.9479 713.8 3.55584C713.211 2.9669 712.622 2.4315 712.033 1.84255C712.408 34.2882 712.408 66.7873 712.033 99.2329C712.622 98.644 713.211 98.1086 713.8 97.5196C670.7 97.4661 627.653 99.8754 584.606 98.644C585.195 99.2329 585.784 99.7683 586.373 100.357C585.195 67.5369 585.516 34.6629 585.784 1.84255C585.784 -0.406151 582.304 -0.406151 582.25 1.84255Z" fill="#03A678"/>
<path d="M601.793 18.2796C601.579 39.91 601.418 63.7356 602.168 84.1881C632.793 85.0983 663.418 83.385 692.758 83.4385C693.026 61.701 693.026 39.9635 692.758 18.2796C662.24 19.2433 632.418 17.7977 601.793 18.2796Z" fill="#03A678"/>
<path d="M612.983 202.084C612.929 200.799 612.876 199.514 612.822 198.176L610.627 180.186C610.092 176.492 607.04 173.065 605.326 170.013C597.402 176.973 586.855 178.473 577.699 174.136C576.736 173.707 575.504 173.226 574.862 174.189C574.648 174.511 569.026 174.778 568.919 175.153C567.313 181.471 566.724 186.343 567.42 192.982C568.009 212.203 571.864 233.352 571.917 252.466C571.971 273.239 573.523 293.638 573.149 314.412C573.63 316.768 579.092 317.785 580.269 316.179C581.447 314.573 581.769 312.003 582.036 309.594C584.874 282.288 587.712 234.53 590.549 207.224C591.245 207.117 591.941 207.01 592.691 206.849C594.725 214.987 595.368 244.22 595.903 252.84C597.188 273.347 598.527 293.853 599.812 314.359C599.919 316.447 608.271 314.573 608.699 314.412C608.699 313.984 608.699 313.555 608.753 313.127C608.967 302.526 609.342 291.925 609.717 281.378C610.092 271.473 609.663 260.979 611.055 251.288C611.591 247.326 611.376 243.096 611.269 239.081C611.109 234.208 611.43 229.336 611.858 224.464C612.287 217.022 613.143 209.58 612.983 202.084Z" fill="#544142"/>
<path d="M613.304 152.345C613.036 148.437 612.608 144.475 611.591 140.674C610.681 137.3 609.288 134.088 608.271 130.769C606.826 126.271 605.969 121.667 604.898 117.062C603.292 110.048 601.311 103.195 598.902 96.3954C598.366 94.8428 597.349 93.0224 595.689 93.183C595.047 93.2365 594.511 93.6113 594.029 93.9326C590.817 95.9671 587.016 97.1985 583.268 96.8773C579.52 96.556 575.772 94.468 574.005 91.1484L573.791 94.575C571.703 106.086 571.382 117.919 569.508 129.484C567.527 141.691 563.725 153.737 564.261 166.052C564.314 166.908 564.368 167.765 564.85 168.461C565.76 169.8 567.634 169.853 569.294 169.8C582.839 169.264 596.385 168.675 609.877 167.712C611.055 167.604 612.394 167.444 613.09 166.48C613.518 165.891 613.518 165.088 613.572 164.392C613.625 160.323 613.518 156.307 613.304 152.345Z" fill="#F2D292"/>
<path d="M597.67 314.413C597.724 314.145 597.777 313.931 597.831 313.663C598.366 310.451 598.366 307.238 597.938 304.079C597.724 302.634 597.456 301.188 597.67 299.742C599.812 299.475 605.862 298.297 608.057 298.083C608.218 298.083 608.432 298.029 608.593 298.136C608.753 298.243 608.86 298.404 608.914 298.565C610.467 302.794 607.897 308.041 609.663 312.217C610.359 313.877 612.394 314.252 614.214 314.894C615.821 315.483 619.087 316.983 620.907 316.715C621.978 316.929 623.156 317.143 624.012 317.732C624.869 318.321 625.351 319.445 624.708 320.302C624.173 321.052 623.049 321.266 622.085 321.373C614.536 322.444 606.879 322.926 599.277 322.765C598.795 322.765 598.313 322.711 597.992 322.497C597.724 322.337 597.563 322.015 597.403 321.748C596.171 319.071 597.135 316.929 597.67 314.413Z" fill="#494949"/>
<path d="M573.149 316.661C573.256 315.965 573.63 315.269 573.791 314.573C573.952 313.877 573.684 313.021 573.523 312.324C572.988 309.005 572.399 305.739 571.864 302.419C571.703 301.402 571.596 300.224 572.453 299.582C573.042 299.153 573.845 299.1 574.594 299.1C576.789 299.1 578.985 299.046 581.18 299.046C581.769 299.046 582.411 299.046 582.786 299.421C583.161 299.796 583.161 300.385 583.161 300.867C583.054 304.133 583.375 307.399 584.017 310.611C584.232 311.521 584.446 312.432 584.499 313.395C587.283 314.894 590.282 316.072 593.387 316.875C594.297 317.09 595.261 317.304 595.957 317.893C596.653 318.482 597.028 319.499 596.492 320.195C596.01 320.837 595.1 320.998 594.244 321.105C587.872 321.801 581.447 321.962 575.076 321.587C574.701 321.587 574.273 321.533 574.005 321.319C573.791 321.159 573.63 320.891 573.523 320.623C573.042 319.338 572.934 318 573.149 316.661Z" fill="#494949"/>
<path d="M626.368 130.233C628.349 132.481 631.615 133.017 634.56 132.749C640.395 132.267 645.696 129.215 650.729 126.271C658.117 121.934 665.506 117.651 672.895 113.314C673.216 113.1 673.591 112.886 673.751 112.564C673.965 112.136 673.858 111.601 673.698 111.172C673.109 109.405 672.145 107.746 670.914 106.3C670.646 105.979 670.325 105.658 669.95 105.551C669.361 105.39 668.772 105.711 668.29 106.032C658.278 112.297 646.767 116.045 635.041 117.008C633.167 117.169 631.24 117.222 629.527 117.918C624.655 119.739 622.888 126.271 626.368 130.233Z" fill="#F2D292"/>
<path d="M674.394 102.927C674.929 102.392 675.411 101.749 676.054 101.268C676.643 100.786 677.499 100.518 678.249 100.786C679.266 101.161 679.534 102.392 679.748 103.463C679.909 104.266 680.016 105.123 680.176 105.926C680.337 106.943 680.498 108.121 679.802 108.977C679.266 109.62 678.41 109.834 677.606 109.995C676.536 110.209 675.465 110.423 674.394 110.691C673.698 110.851 672.948 110.958 672.306 110.691C671.128 110.155 669.95 107.585 670.378 106.247C670.807 104.694 673.323 104.105 674.394 102.927Z" fill="#B09071"/>
<path d="M570.311 72.3019C570.793 79.4764 573.041 86.4902 574.112 93.6111C574.648 97.0377 574.915 100.678 573.63 103.944C572.345 107.157 569.079 109.887 565.653 109.513C562.547 109.191 560.138 106.461 559.121 103.516C558.104 100.571 558.264 97.3589 558.371 94.2536C558.853 84.5092 557.622 76.0498 558.104 66.2518C558.8 51.5281 563.136 34.4487 571.435 22.295C573.523 19.1896 576.361 15.0134 578.556 20.0998C580.376 24.276 577.325 32.4677 576.361 36.5903C573.523 48.3157 569.454 60.0411 570.311 72.3019Z" fill="#F2D292"/>
<path d="M599.651 63.6817C599.49 60.6834 599.062 57.471 597.295 55.0616C596.385 53.8302 595.154 52.8129 593.869 51.9563C588.515 48.4761 581.501 47.673 575.451 49.8147C567.955 58.9701 566.724 72.73 572.506 83.0633C574.005 85.6868 575.933 88.1497 578.449 89.863C580.965 91.5763 584.071 92.4865 587.069 91.9511C590.335 91.3621 593.173 89.1134 595.047 86.3829C596.92 83.5988 597.884 80.3328 598.58 77.0668C599.544 72.6765 599.865 68.1791 599.651 63.6817Z" fill="#B09071"/>
<path d="M600.829 56.775C600.829 56.6679 600.883 56.5608 600.883 56.4538C600.883 54.0444 598.955 52.1705 597.188 50.5643C594.244 47.9408 591.085 45.3173 587.23 44.7284C584.178 44.2465 581.126 45.1567 578.128 45.585C576.093 45.8527 574.059 45.9598 572.185 46.7094C570.525 47.3519 569.026 48.5297 568.009 49.9753C567.259 51.0462 566.724 52.2776 566.188 53.509C564.957 56.4538 563.672 59.452 563.404 62.6109C563.297 64.2707 563.404 65.9304 563.565 67.5367C563.779 70.0531 564.1 72.6766 565.332 74.9253C565.706 75.5678 566.135 76.1567 566.563 76.7456C566.884 79.3156 567.795 81.7785 569.026 84.0272C569.561 84.9374 570.097 85.794 570.846 86.5436C571.757 87.4538 572.934 88.1498 574.059 88.7923C576.04 89.8631 578.128 90.8804 580.216 91.737C581.501 92.2724 582.786 92.7543 584.124 92.9149C585.463 93.0755 586.909 92.9684 588.193 92.5401C588.408 92.4866 588.675 92.3795 588.836 92.1653C588.997 91.8976 588.997 91.5764 588.943 91.2551C588.622 89.2206 588.033 87.2396 587.658 85.2051C587.283 83.1705 587.23 81.0289 587.979 79.1014C588.247 78.4589 588.568 77.8164 588.461 77.174C588.301 76.4244 587.551 75.9425 587.069 75.4071C586.48 74.7646 586.105 73.9615 586.212 73.1049C586.32 72.2482 587.069 71.4987 587.926 71.4987C589.157 71.5522 589.8 72.9978 590.121 74.1757C589.586 71.7664 589.371 69.3035 589.532 66.8406C589.532 66.4123 589.639 66.0375 589.693 65.6627C590.924 65.8769 592.263 65.5021 593.119 64.5919C593.494 64.2171 593.762 63.6817 593.976 63.1999C594.458 64.3778 594.993 65.5557 595.475 66.7871C595.689 67.269 595.85 67.7508 596.225 68.1256C597.349 69.357 599.544 68.9287 600.615 67.5902C601.686 66.3052 601.846 64.4848 601.846 62.8251C601.793 60.8441 601.525 58.6489 600.829 56.775Z" fill="#494949"/>
<path d="M580.002 62.397C578.342 58.6491 572.292 54.6336 568.276 57.3642C565.117 59.5058 568.223 64.6992 571.275 62.4505C571.649 62.1828 572.131 62.2364 572.613 62.5576C573.148 63.4142 573.577 64.4315 573.737 64.7528C574.005 65.3953 574.541 66.4661 574.433 67.2156C573.684 68.1258 572.292 68.6612 571.275 69.0896C568.276 70.4816 570.418 75.1396 573.47 74.3365C576.04 73.694 578.503 72.3555 579.466 69.7856V69.732C580.858 67.6975 581.233 65.2346 580.002 62.397Z" fill="#F2F2F2"/>
<path d="M622.245 194.803C617.748 171.191 616.57 147.045 612.501 123.326C611.858 119.525 611.109 115.723 609.663 112.19C609.021 110.691 608.218 109.138 606.933 108.174C605.648 107.157 603.72 106.782 602.328 107.639C603.024 107.21 606.29 128.198 606.237 130.179C606.183 132.856 606.504 137.3 605.594 140.245C604.898 137.675 604.041 135.105 603.238 132.589C602.007 128.466 601.043 124.29 600.026 120.06C598.259 112.618 596.492 105.122 595.85 97.4125C595.689 95.5921 595.529 93.6647 594.511 92.3262C593.708 91.2553 592.102 91.0412 591.245 91.8443C591.245 91.8978 591.245 91.8978 591.245 91.9514C591.245 92.6474 591.245 93.3434 591.245 94.0394C591.299 98.6439 591.941 103.248 591.995 107.906C591.995 109.299 591.995 110.691 591.888 112.136C592.102 115.402 592.209 118.722 592.102 122.041C591.995 128.466 591.888 134.891 591.727 141.316C589.907 142.065 588.033 142.708 586.159 143.35C585.302 143.618 584.392 143.886 583.482 143.832C582.679 143.779 581.822 143.511 581.073 143.19C579.466 143.19 576.307 140.191 574.059 139.656C574.005 134.356 574.005 129.055 574.166 123.754C574.273 120.007 574.701 116.259 574.915 112.511C574.808 110.958 574.648 109.459 574.487 108.067C573.898 103.516 574.273 99.0723 574.326 94.5749C574.326 93.9324 574.326 93.3434 574.326 92.7009C573.47 91.9514 572.345 91.7372 571.114 92.5939C569.187 93.8788 569.829 97.2519 569.883 99.3935C570.204 108.228 568.705 116.848 567.098 125.361C561.959 153.523 556.712 181.9 556.23 210.758C556.23 211.989 556.23 213.328 556.819 214.292C557.729 215.844 559.549 216.005 561.155 215.951C564.85 215.898 568.544 215.898 572.238 215.844C572.292 215.416 572.345 214.988 572.453 214.559C572.56 214.185 573.095 211.079 573.041 211.561C573.149 210.49 573.202 209.419 573.256 208.402C573.363 205.725 573.363 203.102 573.363 200.425C573.416 195.392 573.577 190.305 573.577 185.273C573.63 175.849 573.952 166.426 574.326 157.003C574.326 156.789 574.326 156.575 574.326 156.307C574.326 154.754 574.273 153.148 574.273 151.596C576.04 150.418 577.807 149.293 579.573 148.115C579.681 148.062 579.788 147.955 579.895 147.901C578.77 150.578 577.592 153.309 576.468 155.986C576.307 156.361 576.415 156.95 576.843 157.057C578.074 157.378 580.055 158.128 581.34 157.432C581.233 162.036 580.858 166.641 580.216 171.245C580.055 172.262 581.394 172.691 581.501 171.673C582.036 167.337 582.411 163 582.572 158.663C583 162.357 583.535 166.052 584.446 169.639C584.66 170.549 585.784 170.174 585.624 169.264C584.82 164.178 583.643 159.145 582.893 154.058C583.91 156.2 585.356 157.432 587.497 155.879C587.819 155.665 587.872 155.236 587.712 154.862C586.694 151.97 585.356 149.4 583.643 147.098C583.857 147.152 584.071 147.205 584.285 147.205C586.694 147.741 589.157 148.276 591.567 148.811C591.513 150.685 591.459 152.559 591.352 154.38C591.299 155.29 591.299 156.147 591.245 157.057C591.352 167.283 591.352 177.509 591.085 187.735C590.924 192.608 590.71 197.48 590.549 202.352C590.496 204.547 590.442 206.742 590.442 208.938C590.442 210.223 590.496 211.454 590.603 212.739C590.603 212.792 590.603 212.792 590.603 212.792C590.71 213.435 590.817 214.077 590.924 214.72C590.978 215.041 591.031 215.309 591.031 215.63C595.154 215.577 599.276 215.577 603.453 215.523C604.898 215.523 606.451 215.47 607.682 214.559C608.164 214.238 608.592 213.756 608.914 213.274C610.413 212.9 611.805 212.311 613.09 211.561C616.088 209.741 618.497 207.01 620.532 204.119C621.335 202.941 622.085 201.763 622.459 200.371C622.941 198.551 622.567 196.623 622.245 194.803ZM575.183 148.651C574.862 148.758 574.594 148.865 574.273 149.026C574.219 147.045 574.219 145.064 574.166 143.083C576.254 144.368 579.306 145.438 580.109 145.653C578.61 146.884 576.95 147.955 575.183 148.651ZM581.019 154.326C580.377 156.361 579.145 156.093 577.86 155.772C578.877 153.041 579.841 150.257 580.858 147.527C580.966 148.972 581.019 150.471 581.019 151.917C581.073 152.613 581.233 153.737 581.019 154.326ZM586.266 154.54C585.731 154.54 585.195 154.54 584.713 154.54C584.553 154.219 584.446 153.898 584.285 153.577C583.643 152.827 583.375 151.274 583.107 150.311C582.946 149.775 582.786 149.24 582.679 148.704C582.679 148.383 582.625 148.062 582.625 147.741C584.071 149.829 585.302 152.077 586.266 154.54ZM591.674 146.242C591.62 146.242 591.567 146.242 591.459 146.242C589.05 145.92 586.641 145.599 584.231 145.278C586.694 144.796 589.211 144.368 591.674 143.886C591.674 144.635 591.674 145.438 591.674 146.242Z" fill="#537082"/>
<path d="M596.92 101.481C597.831 103.73 599.651 105.497 601.471 107.103C606.879 111.868 612.983 115.83 617.855 121.131C621.174 124.771 624.012 129.108 628.349 131.518C628.831 131.785 629.313 131.999 629.848 131.999C630.437 131.999 630.972 131.625 631.454 131.25C634.238 129.162 636.38 126.164 637.344 122.844C637.504 122.255 637.665 121.559 637.504 120.97C637.344 120.381 636.915 119.953 636.487 119.525C633.596 116.633 630.116 114.438 626.85 111.868C623.37 109.138 620.157 105.979 617.427 102.499C615.66 100.25 614 97.8406 611.698 96.0737C606.558 92.1117 592.958 91.737 596.92 101.481Z" fill="#F2D292"/>
<path d="M577.164 16.0844C577.11 15.3884 577.325 14.7459 577.592 14.1034C578.235 12.3901 578.984 10.6768 579.68 8.96353C580.002 8.2675 580.323 7.51794 580.858 6.92899C581.394 6.39359 582.25 6.0188 583 6.34004C583.75 6.60775 584.124 7.41086 584.231 8.21396C584.338 9.01707 584.178 9.76664 584.124 10.5697C584.124 10.7304 584.124 10.9445 584.178 11.1052C584.285 11.2658 584.446 11.3193 584.553 11.4264C585.142 11.9618 584.981 12.8185 584.767 13.568C584.446 14.9065 584.071 16.2451 583.321 17.3694C582.625 18.4938 581.287 19.7787 579.948 19.3504C578.717 18.9756 577.271 17.3159 577.164 16.0844Z" fill="#B09071"/>
<path d="M573.684 113.368C574.38 112.458 575.023 111.547 575.719 110.637C572.988 108.121 573.363 103.838 572.827 100.197C572.185 95.6994 569.883 91.6303 568.062 87.4541C567.902 86.3833 567.741 85.3125 567.687 84.2417C567.42 80.2797 568.169 76.1035 570.686 73.1053C572.72 70.6959 575.237 69.0897 575.611 65.7167C575.879 62.9861 574.701 60.5768 572.024 59.7201C564.903 57.4714 558.425 64.4317 556.23 70.4282C553.66 71.8738 553.071 76.9066 554.409 79.316C552.803 79.8514 551.143 80.3868 549.966 81.5647C548.788 82.7426 548.199 84.7236 549.162 86.1156C550.019 87.4006 552 88.4714 551.251 89.8099C550.769 90.6666 549.216 91.0949 549.591 92.0051C549.805 92.487 550.447 92.594 550.876 92.8617C552.214 93.7719 550.876 95.9136 549.537 96.7702C548.145 97.6804 546.485 99.2866 547.449 100.625C547.931 101.268 548.841 101.482 549.216 102.178C549.698 103.034 549.055 104.105 548.306 104.694C547.556 105.337 546.646 105.819 546.218 106.675C545.789 107.585 546.485 108.924 547.396 108.71C545.361 109.513 544.558 112.511 545.896 114.224C544.076 113.582 542.47 116.098 543.166 117.919C543.862 119.686 545.843 120.596 547.663 121.131C547.877 121.988 548.038 122.844 548.252 123.701C551.197 124.986 554.249 126.271 557.461 126.699C560.674 127.128 564.154 126.646 566.67 124.611C567.42 124.022 568.062 123.326 568.865 122.952C569.561 122.63 570.365 122.47 571.007 122.095C572.292 121.292 572.72 119.471 571.971 118.186C572.988 117.705 574.059 117.169 574.594 116.152C575.13 115.135 574.808 113.635 573.684 113.368Z" fill="#494949"/>
</svg>
