<svg width="1666" height="939" viewBox="0 0 1666 939" fill="none" xmlns="http://www.w3.org/2000/svg">
<rect x="-1" width="1667" height="939" fill="white"/>
<path d="M529.997 879.955C529.639 879.955 529.37 879.955 529.012 879.955C529.997 870.941 529.37 864.873 529.46 854.967C529.46 854.967 529.46 854.967 529.549 854.967C529.549 854.877 529.549 854.877 529.46 854.788C529.46 854.699 529.46 854.61 529.46 854.52H529.37C520.056 828.818 513.339 815.342 494.801 790.8C493.368 790.8 491.845 790.889 490.413 790.889C491.129 760.279 490.413 740.645 490.233 707C359.121 709.767 74.865 705.661 70.208 708.071C70.3871 741.894 70.6558 766.704 71.82 795.798C72.5365 795.798 73.1634 795.798 73.8799 795.798C66.7153 819.626 59.8193 835.868 55.431 858.001C56.0579 858.001 56.6848 858.001 57.3117 858.001C56.237 858.001 55.5205 858.09 55.3414 858.09C55.2518 868.175 55.431 875.582 56.3266 884.149C55.6101 884.149 55.1623 884.149 55.0728 884.149C54.8937 886.737 54.9832 888.612 56.0579 890.843C65.6406 890.753 75.0441 890.664 84.2685 890.575C84.0894 893.252 83.9103 895.84 83.7312 898.518C83.4625 901.998 82.5669 904.497 86.9553 904.943C88.4778 905.122 90.0002 904.854 91.4332 904.497C92.1496 904.318 92.866 904.14 93.4034 903.694C94.4781 902.712 93.8513 897.714 93.9408 896.197C94.1199 894.234 94.2094 892.36 94.299 890.396C239.203 889.058 345.598 888.165 484.323 886.916C484.233 890.307 484.144 893.609 483.964 897C483.785 900.481 482.979 902.98 487.368 903.337C488.89 903.426 490.412 903.158 491.845 902.712C492.562 902.534 493.278 902.355 493.726 901.909C494.801 900.927 493.995 895.93 494.084 894.412C494.174 891.914 494.264 889.325 494.353 886.827C505.727 886.737 517.369 886.648 529.191 886.47C530.445 884.149 529.818 882.632 529.997 879.955ZM340.045 856.216C248.159 856.751 154.661 857.198 101.016 857.644C186.991 856.751 262.846 856.484 340.045 856.216Z" fill="#F2F4F7"/>
<path d="M1104.06 930.557C1127.85 928.486 1151.7 933.516 1175.49 932.806C1184.78 932.51 1194.07 931.386 1203.3 930.261C1204.43 925.113 1202.12 919.846 1202.24 914.579C1202.83 881.911 1199.99 865.696 1202.06 841.077C1202.12 840.604 1202.12 840.13 1201.94 839.716C1201.47 838.651 1196.08 838.296 1194.96 838.355C1178.8 839.302 1162.65 839.598 1146.49 839.243C1138.03 839.065 1129.51 838.651 1121.04 838.71C1116.78 838.769 1112.52 838.887 1108.26 839.243C1105.78 839.479 1104.65 839.006 1104.53 841.669C1104.41 843.918 1104.47 846.167 1104.41 848.415C1104.18 865.874 1104 883.332 1104 900.849C1104 910.791 1104 920.674 1104.06 930.557Z" fill="#F2F4F7"/>
<path opacity="0.71" d="M1150.34 872.265C1150.34 872.798 1150.34 873.449 1150.69 873.863C1150.99 874.1 1151.34 874.218 1151.7 874.277C1154.72 874.869 1157.85 875.047 1160.93 874.81C1161.23 864.749 1161.17 854.689 1160.87 844.628C1160.81 843.563 1160.75 842.32 1159.87 841.669C1159.39 841.314 1158.86 841.255 1158.33 841.137C1156.32 840.841 1154.3 840.782 1152.29 840.9C1149.21 841.077 1149.86 843.09 1150.04 845.457C1150.22 848.475 1150.4 851.493 1150.46 854.452C1150.57 860.429 1150.57 866.347 1150.34 872.265Z" fill="#DDE1E7"/>
<path opacity="0.71" d="M1201.59 842.083C1202 840.781 1202.12 839.361 1201.94 838C1180.4 839.243 1158.74 840.13 1137.2 838.947C1128.68 838.473 1120.04 837.645 1111.52 838.473C1109.98 838.592 1106.49 838.473 1105.24 839.361C1103.94 840.308 1104.47 841.551 1105.83 842.143C1107.31 842.794 1109.92 842.32 1111.46 842.32C1113.76 842.32 1116.07 842.379 1118.38 842.379C1136.25 842.557 1154.07 842.557 1171.94 842.439C1176.91 842.379 1181.94 842.379 1186.91 842.32C1188.21 842.261 1201.41 842.794 1201.59 842.083Z" fill="#DDE1E7"/>
<path d="M682.334 799.653C679.173 797.943 675.96 795.922 674.25 792.761C672.177 788.977 672.643 784.262 673.783 780.064C675.182 774.778 677.514 769.751 679.795 764.724C681.038 761.978 682.438 759.076 684.821 757.21C688.553 754.308 693.839 754.567 698.451 755.655C702.7 756.64 706.95 758.35 709.852 761.615C713.376 765.605 714.257 771.306 714.05 776.644C713.635 785.868 710.267 794.937 704.67 802.244C698.451 810.173 689.796 803.695 682.334 799.653Z" fill="#272826"/>
<path d="M682.075 758.765C681.246 757.366 680.261 755.915 678.81 755.241C677.411 754.567 675.804 754.619 674.301 754.878C667.15 755.966 660.62 760.631 657.252 767.108C655.49 770.477 654.557 774.208 653.624 777.939L635.331 838.883C635.071 839.971 634.812 841.06 634.501 842.2C630.148 859.975 629.267 877.18 626.054 895.215C624.759 902.625 623.204 910.243 622.479 917.809C622.738 917.965 623.049 918.068 623.308 918.172C624.396 917.965 625.432 917.965 626.624 918.224C626.676 918.224 626.676 918.276 626.728 918.276C630.563 912.575 634.553 903.04 636.16 899.568C644.037 882.259 648.805 866.246 657.874 848.989C667.098 831.421 680.52 812.557 684.873 793.279C687.413 781.774 687.983 768.974 682.075 758.765Z" fill="#272826"/>
<path d="M617.711 918.275C613.202 919.571 608.434 918.897 603.77 918.897C602.527 918.897 601.231 919.001 600.298 919.83C599.314 920.711 599.21 922.318 599.676 923.561C600.195 924.805 601.179 925.738 602.267 926.515C603.718 927.5 605.325 928.277 606.931 928.847C608.59 929.469 610.3 929.987 612.062 929.936C613.15 929.884 614.239 929.625 615.327 929.366C620.509 928.018 625.588 926.36 630.563 924.339C631.806 923.821 633.206 923.147 633.517 921.799C633.724 921.022 633.413 920.193 633.102 919.416C632.014 916.928 630.044 913.715 627.039 914.492C623.826 915.373 620.975 917.394 617.711 918.275Z" fill="#494949"/>
<path d="M692.906 856.814C699.435 867.593 704.98 879.823 712.495 889.928C716.641 895.525 720.942 899.878 725.088 905.475C725.554 906.149 726.176 906.823 726.953 906.926C727.679 907.03 728.353 906.615 728.974 906.201C730.529 905.164 734.001 903.195 735.556 902.159C713.739 875.418 704.048 840.23 703.478 805.768C703.322 797.891 703.633 789.858 701.56 782.24C699.487 774.622 694.512 767.315 687.05 764.776C680.727 762.651 673.731 764.465 668.497 768.3C662.486 772.705 664.921 777.887 666.061 784.572C668.808 800.741 673.472 816.599 679.95 831.679C683.681 840.334 688.034 848.729 692.906 856.814Z" fill="#272826"/>
<path d="M726.954 902.47C725.865 903.247 723.119 904.854 722.393 905.994C721.564 907.289 721.253 908.844 720.476 910.191C718.61 913.56 714.516 914.648 710.888 915.685C709.852 915.996 708.66 916.514 708.556 917.55C708.505 917.913 708.66 918.328 708.764 918.69C708.971 919.312 709.126 919.934 709.334 920.504C709.437 920.919 709.593 921.281 709.904 921.592C710.422 922.111 711.303 922.007 712.029 921.852C716.485 920.919 720.838 919.727 725.088 918.224C727.835 917.239 732.136 915.374 734.572 913.767C737.007 912.109 739.132 909.932 740.272 907.186C740.428 906.823 740.583 906.408 740.479 905.994C740.376 905.579 740.013 905.268 739.702 905.009C738.562 904.024 737.525 902.936 736.593 901.796C735.919 900.915 735.142 898.842 734.209 898.324C732.55 897.339 728.405 901.433 726.954 902.47Z" fill="#494949"/>
<path d="M667.72 656.933C669.016 660.042 671.037 662.841 673.576 665.069C674.716 666.054 675.96 666.935 677.411 667.453C681.868 669.008 686.687 666.468 690.159 663.255C694.461 659.213 697.674 653.979 698.969 648.175C700.265 642.423 699.488 636.152 696.637 631.021C694.15 626.565 690.004 622.937 685.081 621.538C682.697 620.864 680.209 620.709 677.722 620.657C675.338 620.605 672.902 620.657 670.778 621.693C668.705 622.678 665.647 625.321 664.766 627.549C663.833 629.933 665.181 634.131 665.284 636.722C665.492 643.459 665.025 650.559 667.72 656.933Z" fill="#99816A"/>
<path d="M678.344 670.355C675.183 669.888 671.503 668.748 669.171 670.51C668.342 671.132 667.927 671.961 667.513 672.791C659.843 688.337 660.517 705.957 658.496 722.8C656.889 736.118 653.469 749.229 652.173 762.652C652.121 763.17 652.07 763.74 652.381 764.258C652.691 764.776 653.313 765.139 653.883 765.45C659.636 768.404 666.425 769.492 673.006 770.58C681.712 771.98 690.522 773.431 699.28 773.016C702.131 772.861 704.981 772.55 707.52 771.617C715.449 768.767 718.921 760.993 719.284 753.79C719.595 747.882 718.299 741.974 717.004 736.118C715.138 727.827 713.065 719.587 710.681 711.399C708.505 703.781 706.017 696.163 702.441 688.856C699.85 683.622 696.741 678.491 693.01 673.723C688.605 668.075 685.029 671.391 678.344 670.355Z" fill="#757575"/>
<path d="M601.076 745.602C599.366 745.447 597.552 745.24 596.36 744.048C595.012 742.7 594.961 740.575 595.012 738.71C595.272 720.727 596.412 702.693 598.381 684.814C619.317 685.799 640.254 687.353 661.087 689.426C663.678 708.031 664.403 726.894 663.108 745.654C663.004 747.261 662.693 749.126 661.242 749.748C657.977 751.147 652.691 748.504 649.426 747.882C644.607 746.95 639.632 747.364 634.709 747.312C623.463 747.105 612.218 746.535 601.076 745.602Z" fill="#DDE1E7"/>
<path opacity="0.71" d="M625.795 686.679C626.832 686.679 627.92 686.731 628.956 686.731C629.423 686.99 629.993 687.094 630.667 687.146C632.273 687.146 633.88 687.197 635.434 687.197C637.352 688.338 637.196 689.737 637.3 693.313C637.507 701.501 637.559 709.689 637.352 717.825C633.569 718.032 629.837 717.98 626.054 717.669C625.692 717.617 625.329 717.618 625.07 717.358C624.552 716.892 624.552 716.011 624.552 715.234C624.966 705.75 625.381 696.215 625.795 686.679Z" fill="#9A9C9F"/>
<path d="M688.967 695.386C689.382 692.017 689.745 688.493 689.019 685.228C688.242 681.964 686.065 678.958 683.111 678.595C682.178 678.491 681.194 678.699 680.468 679.372C679.795 679.994 679.432 680.979 679.173 681.912C676.426 690.566 675.701 699.739 674.56 708.808C673.835 714.197 672.954 719.587 671.918 724.925C671.607 726.479 671.296 728.034 670.466 729.33C669.119 731.558 666.735 732.491 664.455 733.165C655.904 735.704 647.043 736.067 638.336 737.518C634.864 738.088 631.392 738.865 627.92 739.642C622.997 740.731 618.074 741.819 613.15 742.855C612.373 743.011 611.596 743.218 611.077 743.892C610.248 744.928 610.507 746.639 611.285 747.623C612.114 748.608 613.306 749.022 614.498 749.281C615.431 749.541 616.415 749.696 617.348 749.541C618.488 749.333 619.473 748.66 620.561 748.141C624.24 746.276 628.283 746.12 632.273 745.965C638.647 745.706 645.021 745.498 651.396 745.239C658.703 744.98 666.113 744.669 673.161 742.182C674.094 741.871 674.975 741.508 675.804 740.886C678.24 739.176 679.484 735.963 680.52 732.905C684.821 720.623 687.464 708.393 688.967 695.386Z" fill="#99816A"/>
<path d="M670.726 710.984C670.363 710.933 669.948 710.829 669.741 710.57C669.43 710.259 669.43 709.741 669.43 709.274C669.741 700.516 671.399 691.862 674.146 683.57C674.768 681.704 675.441 679.787 676.633 678.18C677.773 676.574 679.484 675.278 681.453 674.967C684.199 674.553 686.894 676.263 688.449 678.543C690.004 680.823 690.574 683.622 690.988 686.369C691.973 693.054 692.025 699.842 691.196 706.579C690.936 708.808 690.833 714.975 689.123 716.529C687.568 717.929 683.111 714.664 681.401 713.99C677.981 712.643 674.353 711.606 670.726 710.984Z" fill="#808080"/>
<path d="M662.278 624.077C663.937 622.937 665.181 620.968 666.735 619.465C668.86 617.444 671.451 616.511 674.042 616.252C674.198 616.252 674.301 616.2 674.457 616.2C680.468 615.319 686.791 617.392 691.455 621.59C692.75 622.781 695.497 625.165 695.601 627.394C695.756 627.601 695.912 627.808 696.067 628.016C697.414 628.016 698.969 629 700.161 630.866C703.789 636.566 704.255 644.495 701.819 650.921C699.591 656.829 695.134 661.493 689.9 664.032C689.848 664.084 689.796 664.188 689.693 664.24C689.019 664.654 688.294 664.965 687.516 665.173C689.019 661.441 689.589 657.244 689.175 653.15C689.9 653.305 690.677 652.787 691.04 652.061C691.455 651.388 691.558 650.507 691.714 649.729C691.869 648.641 691.818 647.138 690.833 646.931C690.211 646.775 689.589 647.294 689.226 647.864C688.864 648.434 688.553 649.107 687.983 649.47C688.656 647.086 687.775 644.288 685.91 642.837C685.702 643.148 685.495 643.459 685.236 643.77C685.029 642.163 684.303 640.66 683.267 639.52C682.852 639.106 682.386 638.691 681.816 638.587C681.246 638.484 680.676 638.639 680.157 638.432C679.432 638.121 679.069 637.188 678.344 636.929C677.411 636.566 676.478 637.447 675.856 638.276C675.752 637.395 674.923 636.825 674.146 636.67C673.369 636.514 672.539 636.722 671.762 636.774C670.622 636.825 669.534 636.67 668.394 636.463C667.461 636.307 666.476 635.996 665.699 635.426C665.543 635.374 665.44 635.374 665.284 635.323C660.931 634.027 656.941 628.845 657.096 622.781C658.184 625.01 660.62 625.165 662.278 624.077Z" fill="#494949"/>
<path d="M550.301 897.269C562.315 896.203 574.388 898.807 586.46 898.452C591.195 898.334 595.87 897.742 600.545 897.091C601.137 894.428 599.953 891.706 600.013 888.924C600.308 871.88 598.888 863.477 599.894 850.635C599.894 850.398 599.953 850.161 599.835 849.925C599.598 849.392 596.876 849.214 596.284 849.214C588.117 849.747 579.951 849.865 571.724 849.688C567.404 849.569 563.143 849.392 558.823 849.392C556.634 849.392 554.503 849.51 552.313 849.688C551.071 849.806 550.479 849.569 550.42 850.931C550.36 852.114 550.361 853.298 550.361 854.481C550.242 863.595 550.183 872.709 550.124 881.763C550.301 886.971 550.301 892.12 550.301 897.269Z" fill="#F2F4F7"/>
<path opacity="0.71" d="M573.322 865.43C573.322 865.725 573.322 866.021 573.5 866.258C573.618 866.376 573.855 866.436 574.033 866.495C575.571 866.791 577.169 866.909 578.708 866.791C578.826 861.524 578.826 856.316 578.649 851.049C578.649 850.516 578.589 849.865 578.116 849.51C577.879 849.333 577.583 849.273 577.347 849.273C576.341 849.155 575.335 849.096 574.329 849.155C572.79 849.273 573.086 850.279 573.204 851.522C573.322 853.061 573.382 854.659 573.441 856.197C573.441 859.216 573.441 862.293 573.322 865.43Z" fill="#DDE1E7"/>
<path d="M529.529 893.126C548.763 892.83 568.055 892.475 587.289 892.179C592.97 892.061 598.651 892.001 604.333 892.12C607.469 892.179 610.606 892.356 613.624 893.126C614.038 896.913 614.216 900.701 614.216 904.488C588.828 905.909 563.38 906.855 537.933 907.329C535.151 907.388 530.831 907.743 529.766 904.607C529.352 903.541 529.588 893.126 529.529 893.126Z" fill="#F2F4F7"/>
<path d="M617.589 908.572C617.648 907.98 617.53 907.388 617.293 906.855C616.761 904.902 615.518 903.364 614.038 903.364C599.953 903.541 585.928 903.6 571.843 903.837C557.758 903.6 543.732 903.541 529.647 903.364C528.168 903.364 526.925 904.902 526.393 906.855C526.156 907.388 526.097 907.98 526.097 908.572C526.097 908.808 526.097 909.045 526.097 909.282C526.215 912.418 528.109 914.549 530.121 914.549C536.512 914.49 542.963 914.49 549.354 914.371C556.87 914.253 564.327 914.016 571.843 913.72C579.3 914.016 586.815 914.253 594.331 914.371C600.723 914.49 607.173 914.549 613.565 914.549C615.636 914.549 617.471 912.359 617.589 909.282C617.589 908.986 617.589 908.808 617.589 908.572Z" fill="#F2F4F7"/>
<path d="M540.477 915.082C539.767 916.384 539.294 917.982 539.531 919.461C539.649 920.23 540.004 921 540.418 921.651C542.371 924.906 546.218 926.622 549.65 925.852C551.722 925.379 553.615 924.018 554.74 922.065C555.864 920.112 556.16 917.508 555.332 915.318C554.917 914.194 554.207 913.188 553.32 912.419C549.236 908.454 543.141 909.992 540.477 915.082Z" fill="#F2F4F7"/>
<path d="M546.395 915.378C545.449 915.969 544.798 917.094 544.798 918.218C544.798 919.343 545.449 920.467 546.455 920.941C547.461 921.473 548.763 921.296 549.591 920.526C549.887 920.23 550.124 919.875 550.361 919.52C550.893 918.633 551.426 917.567 551.071 916.561C550.301 914.904 547.875 914.49 546.395 915.378Z" fill="#F2F4F7"/>
<path d="M547.106 917.745C546.928 918.041 547.046 918.396 547.283 918.573C547.401 918.632 547.579 918.692 547.697 918.692C547.934 918.692 548.112 918.692 548.289 918.573C549.177 917.863 547.697 916.679 547.106 917.745Z" fill="#F2F4F7"/>
<path d="M593.621 910.347C592.142 910.288 590.484 910.466 589.242 911.353C588.591 911.827 588.058 912.419 587.644 913.07C585.513 916.265 585.573 920.408 587.762 923.189C589.064 924.846 591.076 925.971 593.384 926.208C595.633 926.385 598.119 925.557 599.776 923.899C600.604 923.012 601.196 921.947 601.61 920.881C603.327 915.437 599.361 910.584 593.621 910.347Z" fill="#F2F4F7"/>
<path d="M595.811 915.792C594.864 915.141 593.562 915.082 592.556 915.555C591.55 916.029 590.839 917.094 590.78 918.218C590.721 919.343 591.431 920.467 592.497 920.881C592.911 921.059 593.325 921.118 593.739 921.118C594.805 921.237 595.988 921.296 596.698 920.467C597.941 919.106 597.29 916.798 595.811 915.792Z" fill="#F2F4F7"/>
<path d="M593.976 917.449C593.68 917.449 593.325 917.685 593.266 917.981C593.266 918.159 593.266 918.277 593.325 918.455C593.384 918.632 593.503 918.869 593.68 918.928C594.805 919.402 595.219 917.567 593.976 917.449Z" fill="#F2F4F7"/>
<path d="M529.174 906.145C525.505 901.648 522.546 896.499 519.35 891.646C516.095 886.675 512.84 881.704 509.526 876.733C503.076 866.909 496.625 857.026 490.352 847.084C489.405 845.545 486.86 847.084 487.807 848.622C494.14 858.565 500.353 868.566 506.686 878.508C509.822 883.42 512.959 888.332 516.155 893.244C519.35 898.215 522.96 903.068 525.742 908.276C526.866 910.525 530.713 908.039 529.174 906.145Z" fill="#F2F4F7"/>
<path d="M483.141 914.712C484.029 913.588 484.857 912.522 485.745 911.398C482.431 907.906 480.596 903.29 477.815 899.384C476.809 897.964 475.625 896.662 474.027 895.952C472.429 895.242 470.417 895.419 469.234 896.662C468.346 897.609 468.168 899.029 468.405 900.272C468.938 903.409 471.778 905.125 473.968 907.137C476.809 909.978 479.886 912.463 483.141 914.712Z" fill="#B09071"/>
<path d="M424.434 921.636C424.375 921.872 424.316 922.168 424.493 922.405C424.671 922.642 424.967 922.701 425.263 922.819C426.328 923.056 427.512 923.234 428.636 923.234C432.423 915.659 436.211 908.084 439.999 900.508C441.182 898.082 442.425 895.597 442.425 893.052C442.425 891.04 441.537 889.146 440.058 887.666C438.223 885.832 434.554 884.885 432.779 887.548C430.766 890.625 430.471 895.301 429.583 898.615C427.571 906.249 425.854 913.883 424.434 921.636Z" fill="#B09071"/>
<path d="M434.672 819.965C435.974 819.195 436.685 817.597 436.507 816.118C436.33 814.638 435.205 813.277 433.785 812.863C433.075 812.626 432.305 812.626 431.595 812.567C427.808 812.153 424.434 810.082 421.475 807.714C418.516 805.288 415.853 802.566 412.776 800.317C411.296 799.252 409.521 798.305 407.686 798.364C406.858 799.429 406.858 800.968 407.272 802.27C407.686 803.572 408.574 804.696 409.403 805.761C411 807.892 412.657 810.022 414.61 811.798C418.28 815.23 422.955 817.361 427.571 819.373C429.761 820.32 432.542 821.267 434.672 819.965Z" fill="#B09071"/>
<path d="M427.926 824.995C436.33 825.883 444.201 831.031 448.402 838.31C449.704 828.013 451.065 817.775 452.367 807.478C444.733 808.72 436.862 808.898 429.169 808.069C428.459 813.751 428.044 819.373 427.926 824.995Z" fill="#537082"/>
<path d="M448.698 804.46C447.16 804.696 445.502 804.755 444.082 804.223C442.662 803.69 441.478 802.625 440.531 801.382C437.513 797.476 436.803 792.328 436.921 787.416C437.04 783.332 437.632 779.19 439.644 775.639C443.609 768.478 453.373 764.986 459.173 772.147C461.836 775.402 461.895 779.959 461.895 784.102C461.777 793.748 459.706 802.862 448.698 804.46Z" fill="#B09071"/>
<path d="M443.668 777.533C440.768 778.716 437.513 780.136 434.672 778.834C435.323 770.253 443.668 763.803 451.894 763.803C453.965 763.803 456.096 764.158 458.167 763.803C460.238 763.448 462.369 762.264 463.079 760.252C463.848 761.317 464.203 762.797 463.907 764.099C464.677 763.803 465.446 763.507 466.156 763.211C470.003 771.319 469.529 775.935 470.003 783.095C470.121 785.108 467.872 788.658 467.399 790.611C466.038 796.293 460.238 799.252 455.03 801.5C454.853 796.884 456.036 792.209 458.344 788.244C458.699 787.652 459.114 787.001 459.114 786.291C459.173 784.812 457.161 783.865 456.155 784.812C456.273 784.693 452.367 778.006 451.716 777.414C449.527 775.52 446.272 776.467 443.668 777.533Z" fill="#494949"/>
<path d="M465.683 872.102C465.328 873.641 464.381 874.943 462.901 875.002C456.214 875.18 438.933 875.476 437.099 873.996C434.377 871.688 434.968 861.45 435.028 857.781C435.146 849.081 437.04 840.441 437.04 831.86C437.04 831.682 437.04 831.505 437.04 831.327C436.98 826.119 437.75 820.912 439.288 816.296C440.058 813.988 441.182 811.739 442.129 809.608C443.135 807.359 445.266 807.004 446.982 807.004C448.816 806.945 450.592 807.3 452.367 806.827C453.906 806.413 455.326 805.288 456.924 804.933C459.41 804.341 462.842 805.821 464.203 809.194C465.505 812.39 468.701 815.23 469.47 818.781C469.411 818.604 473.554 838.192 465.683 872.102Z" fill="#4B6676"/>
<path d="M480.182 896.247C477.46 893.999 475.388 891.395 473.554 888.376C471.364 884.944 470.713 881.097 470.476 877.132C470.476 875.12 470.476 873.167 470.476 871.155C470.536 868.374 470.654 865.592 470.476 862.811C470.476 854.17 470.476 845.471 470.417 836.831C470.417 828.664 470.358 820.379 468.464 812.448C467.932 810.377 467.281 808.188 465.86 806.59C464.44 804.992 462.073 803.986 460.061 804.696C466.866 813.04 466.748 824.876 466.275 835.647C466.156 837.778 465.979 840.145 464.44 841.624C462.842 843.163 460.416 843.281 458.167 843.281C455.208 843.281 452.19 843.281 449.349 842.334C446.508 841.388 443.964 839.316 443.194 836.416C442.78 834.878 442.958 833.221 443.135 831.623C443.845 825.409 444.733 819.195 445.857 813.04C446.153 811.265 447.929 806.945 446.153 805.939C444.378 804.873 441.478 807.3 440.65 808.602C439.348 810.614 438.993 813.04 438.697 815.407C437.04 828.25 435.383 841.151 433.726 853.993C433.252 857.484 432.838 861.035 432.542 864.527C429.701 878.198 426.861 891.868 424.02 905.539C429.05 908.557 434.732 910.51 440.531 911.338C443.49 905.006 446.508 898.674 449.467 892.342C455.208 897.431 461.008 902.521 466.748 907.61C467.458 908.202 468.287 908.853 469.174 908.734C469.885 908.675 470.417 908.143 470.95 907.669C474.027 904.71 477.164 901.81 480.241 898.851C480.596 898.496 481.01 898.082 481.01 897.549C481.188 897.076 480.655 896.602 480.182 896.247Z" fill="#ABBCC4"/>
<path d="M424.671 924.063C424.493 924.063 424.316 924.062 424.197 924.122C424.079 924.181 423.961 924.358 423.902 924.477C422.955 925.897 421.002 926.075 419.286 926.015C417.569 926.015 415.676 926.075 414.551 927.317C413.545 928.442 413.604 930.158 413.782 931.638C413.782 931.756 413.841 931.874 413.9 931.993C414.019 932.111 414.137 932.111 414.255 932.17C418.339 932.762 422.54 932.762 426.565 932.052C427.156 931.933 427.807 931.815 428.34 931.401C428.814 930.987 429.109 930.395 429.287 929.803C429.642 928.738 430.53 925.779 429.642 924.773C428.814 923.826 425.855 924.181 424.671 924.063Z" fill="#736357"/>
<path d="M483.319 915.659C482.845 916.191 482.313 916.842 482.49 917.552C482.727 918.381 483.733 918.677 484.029 919.505C484.265 920.097 483.97 920.807 483.674 921.399C483.141 922.464 482.549 923.589 481.484 924.121C480.892 924.417 480.123 924.476 479.709 925.068C479.413 925.423 479.413 925.956 479.354 926.429C479.354 927.14 479.354 927.909 479.827 928.441C480.241 928.797 480.774 928.915 481.306 928.974C482.549 929.092 483.792 929.211 485.035 929.211C485.331 929.211 485.686 929.211 485.922 929.092C486.218 928.915 486.396 928.678 486.573 928.382C488.171 925.719 489.532 922.879 490.598 919.92C491.19 918.322 491.604 916.428 490.598 915.067C490.006 914.238 487.875 912.936 486.81 912.818C485.272 912.64 484.265 914.593 483.319 915.659Z" fill="#736357"/>
<path d="M470.536 826.829C469.825 826.238 469.056 825.468 469.293 824.581C469.352 824.285 469.589 823.989 469.766 823.752C471.009 822.154 472.429 820.734 474.027 819.55C480.123 826.001 485.449 833.221 489.887 840.855C490.953 842.749 492.018 844.761 491.84 846.951C491.663 849.14 489.473 851.567 487.224 850.383C485.094 849.259 484.147 844.524 483.082 842.512C479.945 836.594 475.684 831.209 470.536 826.829Z" fill="#B09071"/>
<path d="M478.88 816.65C474.56 814.106 469.944 812.153 465.091 810.732C462.132 809.845 458.996 809.253 455.918 809.845C452.9 810.436 450 812.567 449.29 815.585C448.757 817.716 449.468 820.083 450.77 821.858C452.071 823.634 453.906 824.995 455.918 826.001C459.587 827.895 465.091 830.084 468.642 827.303C472.015 824.699 477.401 820.793 478.88 816.65Z" fill="#537082"/>
<path d="M991.017 590.843C990.75 623.128 990.428 658.786 991.606 689.357C1035.3 690.696 1078.93 688.126 1120.8 688.233C1121.17 655.787 1121.17 623.288 1120.8 590.843C1077.22 592.288 1034.65 590.147 991.017 590.843Z" fill="white"/>
<path d="M989.25 590.843C988.983 623.663 988.662 656.537 989.839 689.357C989.893 690.321 990.589 691.071 991.606 691.071C1034.71 692.302 1077.75 689.893 1120.8 689.946C1121.76 689.946 1122.57 689.143 1122.57 688.233C1122.94 655.787 1122.94 623.288 1122.57 590.843C1122.57 589.932 1121.76 589.076 1120.8 589.129C1077.54 590.521 1034.28 588.487 991.017 589.129C988.769 589.183 988.769 592.609 991.017 592.556C1034.28 591.913 1077.54 593.948 1120.8 592.556C1120.21 591.967 1119.62 591.432 1119.03 590.843C1119.41 623.288 1119.41 655.787 1119.03 688.233C1119.62 687.644 1120.21 687.109 1120.8 686.52C1077.7 686.466 1034.65 688.875 991.606 687.644C992.195 688.233 992.784 688.768 993.373 689.357C992.195 656.537 992.516 623.663 992.784 590.843C992.784 588.594 989.304 588.594 989.25 590.843Z" fill="#03A678"/>
<path d="M1008.79 607.28C1008.58 628.91 1008.42 652.736 1009.17 673.188C1039.79 674.098 1070.42 672.385 1099.76 672.438C1100.03 650.701 1100.03 628.964 1099.76 607.28C1069.24 608.243 1039.42 606.798 1008.79 607.28Z" fill="#03A678"/>
<path d="M1019.98 791.084C1019.93 789.799 1019.88 788.514 1019.82 787.176L1017.63 769.186C1017.09 765.492 1014.04 762.065 1012.33 759.013C1004.4 765.973 993.855 767.473 984.699 763.136C983.736 762.707 982.504 762.226 981.862 763.189C981.648 763.511 976.026 763.778 975.919 764.153C974.313 770.471 973.724 775.343 974.42 781.982C975.009 801.203 978.864 822.352 978.917 841.466C978.971 862.239 980.523 882.638 980.149 903.412C980.63 905.768 986.092 906.785 987.269 905.179C988.447 903.573 988.769 901.003 989.036 898.594C991.874 871.288 994.712 823.53 997.549 796.224C998.245 796.117 998.941 796.01 999.691 795.849C1001.73 803.987 1002.37 833.22 1002.9 841.84C1004.19 862.347 1005.53 882.853 1006.81 903.359C1006.92 905.447 1015.27 903.573 1015.7 903.412C1015.7 902.984 1015.7 902.555 1015.75 902.127C1015.97 891.526 1016.34 880.925 1016.72 870.378C1017.09 860.473 1016.66 849.979 1018.06 840.288C1018.59 836.326 1018.38 832.096 1018.27 828.081C1018.11 823.208 1018.43 818.336 1018.86 813.464C1019.29 806.022 1020.14 798.58 1019.98 791.084Z" fill="#544142"/>
<path d="M1020.3 741.345C1020.04 737.437 1019.61 733.475 1018.59 729.674C1017.68 726.3 1016.29 723.088 1015.27 719.769C1013.83 715.271 1012.97 710.667 1011.9 706.062C1010.29 699.048 1008.31 692.195 1005.9 685.395C1005.37 683.843 1004.35 682.022 1002.69 682.183C1002.05 682.237 1001.51 682.611 1001.03 682.933C997.817 684.967 994.016 686.199 990.268 685.877C986.52 685.556 982.772 683.468 981.005 680.148L980.791 683.575C978.703 695.086 978.382 706.919 976.508 718.484C974.527 730.691 970.725 742.737 971.261 755.052C971.314 755.908 971.368 756.765 971.85 757.461C972.76 758.8 974.634 758.853 976.294 758.8C989.839 758.264 1003.39 757.675 1016.88 756.712C1018.06 756.604 1019.39 756.444 1020.09 755.48C1020.52 754.891 1020.52 754.088 1020.57 753.392C1020.63 749.323 1020.52 745.307 1020.3 741.345Z" fill="#F2D292"/>
<path d="M1004.67 903.413C1004.72 903.145 1004.78 902.931 1004.83 902.663C1005.37 899.451 1005.37 896.238 1004.94 893.079C1004.72 891.634 1004.46 890.188 1004.67 888.742C1006.81 888.475 1012.86 887.297 1015.06 887.083C1015.22 887.083 1015.43 887.029 1015.59 887.136C1015.75 887.243 1015.86 887.404 1015.91 887.565C1017.47 891.794 1014.9 897.041 1016.66 901.217C1017.36 902.877 1019.39 903.252 1021.21 903.894C1022.82 904.483 1026.09 905.983 1027.91 905.715C1028.98 905.929 1030.16 906.143 1031.01 906.732C1031.87 907.321 1032.35 908.445 1031.71 909.302C1031.17 910.052 1030.05 910.266 1029.08 910.373C1021.54 911.444 1013.88 911.926 1006.28 911.765C1005.79 911.765 1005.31 911.711 1004.99 911.497C1004.72 911.337 1004.56 911.015 1004.4 910.748C1003.17 908.071 1004.13 905.929 1004.67 903.413Z" fill="#494949"/>
<path d="M980.149 905.661C980.256 904.965 980.63 904.269 980.791 903.573C980.952 902.877 980.684 902.021 980.523 901.324C979.988 898.005 979.399 894.739 978.864 891.419C978.703 890.402 978.596 889.224 979.453 888.582C980.042 888.153 980.845 888.1 981.594 888.1C983.789 888.1 985.985 888.046 988.18 888.046C988.769 888.046 989.411 888.046 989.786 888.421C990.161 888.796 990.161 889.385 990.161 889.867C990.054 893.133 990.375 896.399 991.017 899.611C991.232 900.521 991.446 901.432 991.499 902.395C994.283 903.894 997.282 905.072 1000.39 905.875C1001.3 906.09 1002.26 906.304 1002.96 906.893C1003.65 907.482 1004.03 908.499 1003.49 909.195C1003.01 909.837 1002.1 909.998 1001.24 910.105C994.872 910.801 988.447 910.962 982.076 910.587C981.701 910.587 981.273 910.533 981.005 910.319C980.791 910.159 980.63 909.891 980.523 909.623C980.042 908.338 979.934 907 980.149 905.661Z" fill="#494949"/>
<path d="M1033.37 719.233C1035.35 721.481 1038.61 722.017 1041.56 721.749C1047.4 721.267 1052.7 718.215 1057.73 715.271C1065.12 710.934 1072.51 706.651 1079.89 702.314C1080.22 702.1 1080.59 701.886 1080.75 701.564C1080.97 701.136 1080.86 700.601 1080.7 700.172C1080.11 698.405 1079.15 696.746 1077.91 695.3C1077.65 694.979 1077.32 694.658 1076.95 694.551C1076.36 694.39 1075.77 694.711 1075.29 695.032C1065.28 701.297 1053.77 705.045 1042.04 706.008C1040.17 706.169 1038.24 706.222 1036.53 706.918C1031.65 708.739 1029.89 715.271 1033.37 719.233Z" fill="#F2D292"/>
<path d="M1081.39 691.927C1081.93 691.392 1082.41 690.749 1083.05 690.268C1083.64 689.786 1084.5 689.518 1085.25 689.786C1086.27 690.161 1086.53 691.392 1086.75 692.463C1086.91 693.266 1087.02 694.123 1087.18 694.926C1087.34 695.943 1087.5 697.121 1086.8 697.977C1086.27 698.62 1085.41 698.834 1084.61 698.995C1083.54 699.209 1082.46 699.423 1081.39 699.691C1080.7 699.851 1079.95 699.958 1079.31 699.691C1078.13 699.155 1076.95 696.585 1077.38 695.247C1077.81 693.694 1080.32 693.105 1081.39 691.927Z" fill="#B09071"/>
<path d="M977.311 661.302C977.793 668.476 980.041 675.49 981.112 682.611C981.648 686.038 981.915 689.678 980.63 692.944C979.345 696.157 976.079 698.887 972.653 698.513C969.547 698.191 967.138 695.461 966.121 692.516C965.104 689.571 965.264 686.359 965.371 683.254C965.853 673.509 964.622 665.05 965.104 655.252C965.8 640.528 970.136 623.449 978.435 611.295C980.523 608.19 983.361 604.013 985.556 609.1C987.376 613.276 984.325 621.468 983.361 625.59C980.523 637.316 976.454 649.041 977.311 661.302Z" fill="#F2D292"/>
<path d="M1006.65 652.682C1006.49 649.683 1006.06 646.471 1004.3 644.062C1003.39 642.83 1002.15 641.813 1000.87 640.956C995.515 637.476 988.501 636.673 982.451 638.815C974.955 647.97 973.724 661.73 979.506 672.063C981.005 674.687 982.933 677.15 985.449 678.863C987.965 680.576 991.071 681.486 994.069 680.951C997.335 680.362 1000.17 678.113 1002.05 675.383C1003.92 672.599 1004.88 669.333 1005.58 666.067C1006.54 661.676 1006.87 657.179 1006.65 652.682Z" fill="#B09071"/>
<path d="M1007.83 645.775C1007.83 645.668 1007.88 645.561 1007.88 645.454C1007.88 643.044 1005.96 641.171 1004.19 639.564C1001.24 636.941 998.085 634.317 994.23 633.728C991.178 633.247 988.126 634.157 985.128 634.585C983.093 634.853 981.059 634.96 979.185 635.709C977.525 636.352 976.026 637.53 975.009 638.975C974.259 640.046 973.724 641.278 973.188 642.509C971.957 645.454 970.672 648.452 970.404 651.611C970.297 653.271 970.404 654.93 970.565 656.537C970.779 659.053 971.1 661.677 972.332 663.925C972.706 664.568 973.135 665.157 973.563 665.746C973.884 668.316 974.795 670.778 976.026 673.027C976.561 673.937 977.097 674.794 977.846 675.544C978.757 676.454 979.934 677.15 981.059 677.792C983.04 678.863 985.128 679.88 987.216 680.737C988.501 681.272 989.786 681.754 991.124 681.915C992.463 682.076 993.909 681.968 995.193 681.54C995.408 681.487 995.675 681.379 995.836 681.165C995.997 680.898 995.997 680.576 995.943 680.255C995.622 678.221 995.033 676.24 994.658 674.205C994.283 672.171 994.23 670.029 994.979 668.101C995.247 667.459 995.568 666.816 995.461 666.174C995.301 665.424 994.551 664.943 994.069 664.407C993.48 663.765 993.105 662.962 993.212 662.105C993.32 661.248 994.069 660.499 994.926 660.499C996.157 660.552 996.8 661.998 997.121 663.176C996.586 660.766 996.371 658.304 996.532 655.841C996.532 655.412 996.639 655.038 996.693 654.663C997.924 654.877 999.263 654.502 1000.12 653.592C1000.49 653.217 1000.76 652.682 1000.98 652.2C1001.46 653.378 1001.99 654.556 1002.48 655.787C1002.69 656.269 1002.85 656.751 1003.22 657.126C1004.35 658.357 1006.54 657.929 1007.61 656.59C1008.69 655.305 1008.85 653.485 1008.85 651.825C1008.79 649.844 1008.53 647.649 1007.83 645.775Z" fill="#494949"/>
<path d="M987.002 651.397C985.342 647.649 979.292 643.634 975.276 646.364C972.117 648.506 975.223 653.699 978.275 651.451C978.649 651.183 979.131 651.236 979.613 651.558C980.148 652.414 980.577 653.432 980.737 653.753C981.005 654.395 981.541 655.466 981.433 656.216C980.684 657.126 979.292 657.661 978.275 658.09C975.276 659.482 977.418 664.14 980.47 663.337C983.04 662.694 985.503 661.356 986.466 658.786V658.732C987.858 656.697 988.233 654.235 987.002 651.397Z" fill="#F2F2F2"/>
<path d="M1029.25 783.803C1024.75 760.191 1023.57 736.045 1019.5 712.326C1018.86 708.525 1018.11 704.723 1016.66 701.19C1016.02 699.691 1015.22 698.138 1013.93 697.174C1012.65 696.157 1010.72 695.782 1009.33 696.639C1010.02 696.21 1013.29 717.198 1013.24 719.179C1013.18 721.856 1013.5 726.3 1012.59 729.245C1011.9 726.675 1011.04 724.105 1010.24 721.589C1009.01 717.466 1008.04 713.29 1007.03 709.06C1005.26 701.618 1003.49 694.122 1002.85 686.413C1002.69 684.592 1002.53 682.665 1001.51 681.326C1000.71 680.255 999.102 680.041 998.245 680.844C998.245 680.898 998.245 680.898 998.245 680.951C998.245 681.647 998.245 682.343 998.245 683.039C998.299 687.644 998.941 692.248 998.995 696.906C998.995 698.299 998.995 699.691 998.888 701.136C999.102 704.402 999.209 707.722 999.102 711.041C998.995 717.466 998.888 723.891 998.727 730.316C996.907 731.065 995.033 731.708 993.159 732.35C992.302 732.618 991.392 732.886 990.482 732.832C989.679 732.779 988.822 732.511 988.073 732.19C986.466 732.19 983.307 729.191 981.059 728.656C981.005 723.356 981.005 718.055 981.166 712.754C981.273 709.007 981.701 705.259 981.915 701.511C981.808 699.958 981.648 698.459 981.487 697.067C980.898 692.516 981.273 688.072 981.326 683.575C981.326 682.932 981.326 682.343 981.326 681.701C980.47 680.951 979.345 680.737 978.114 681.594C976.187 682.879 976.829 686.252 976.883 688.394C977.204 697.228 975.705 705.848 974.098 714.361C968.959 742.523 963.712 770.9 963.23 799.758C963.23 800.989 963.23 802.328 963.819 803.292C964.729 804.844 966.549 805.005 968.155 804.951C971.85 804.898 975.544 804.898 979.238 804.844C979.292 804.416 979.345 803.988 979.453 803.559C979.56 803.185 980.095 800.079 980.041 800.561C980.149 799.49 980.202 798.419 980.256 797.402C980.363 794.725 980.363 792.102 980.363 789.425C980.416 784.392 980.577 779.305 980.577 774.273C980.63 764.849 980.952 755.426 981.326 746.003C981.326 745.789 981.326 745.575 981.326 745.307C981.326 743.754 981.273 742.148 981.273 740.596C983.04 739.418 984.807 738.293 986.573 737.115C986.681 737.062 986.788 736.955 986.895 736.901C985.77 739.578 984.592 742.309 983.468 744.986C983.307 745.361 983.415 745.95 983.843 746.057C985.074 746.378 987.055 747.128 988.34 746.432C988.233 751.036 987.858 755.641 987.216 760.245C987.055 761.262 988.394 761.691 988.501 760.673C989.036 756.337 989.411 752 989.572 747.663C990 751.357 990.535 755.052 991.446 758.639C991.66 759.549 992.784 759.174 992.624 758.264C991.82 753.178 990.643 748.145 989.893 743.058C990.91 745.2 992.356 746.432 994.497 744.879C994.819 744.665 994.872 744.236 994.712 743.862C993.694 740.97 992.356 738.4 990.643 736.098C990.857 736.152 991.071 736.205 991.285 736.205C993.694 736.741 996.157 737.276 998.567 737.811C998.513 739.685 998.459 741.559 998.352 743.38C998.299 744.29 998.299 745.147 998.245 746.057C998.352 756.283 998.352 766.509 998.085 776.735C997.924 781.608 997.71 786.48 997.549 791.352C997.496 793.547 997.442 795.742 997.442 797.938C997.442 799.223 997.496 800.454 997.603 801.739C997.603 801.792 997.603 801.792 997.603 801.792C997.71 802.435 997.817 803.077 997.924 803.72C997.978 804.041 998.031 804.309 998.031 804.63C1002.15 804.577 1006.28 804.577 1010.45 804.523C1011.9 804.523 1013.45 804.47 1014.68 803.559C1015.16 803.238 1015.59 802.756 1015.91 802.274C1017.41 801.9 1018.8 801.311 1020.09 800.561C1023.09 798.741 1025.5 796.01 1027.53 793.119C1028.34 791.941 1029.08 790.763 1029.46 789.371C1029.94 787.551 1029.57 785.623 1029.25 783.803ZM982.183 737.651C981.862 737.758 981.594 737.865 981.273 738.026C981.219 736.045 981.219 734.064 981.166 732.083C983.254 733.368 986.306 734.438 987.109 734.653C985.61 735.884 983.95 736.955 982.183 737.651ZM988.019 743.326C987.377 745.361 986.145 745.093 984.86 744.772C985.877 742.041 986.841 739.257 987.858 736.527C987.966 737.972 988.019 739.471 988.019 740.917C988.073 741.613 988.233 742.737 988.019 743.326ZM993.266 743.54C992.731 743.54 992.195 743.54 991.713 743.54C991.553 743.219 991.446 742.898 991.285 742.577C990.643 741.827 990.375 740.274 990.107 739.311C989.946 738.775 989.786 738.24 989.679 737.704C989.679 737.383 989.625 737.062 989.625 736.741C991.071 738.829 992.302 741.077 993.266 743.54ZM998.674 735.242C998.62 735.242 998.567 735.242 998.459 735.242C996.05 734.92 993.641 734.599 991.231 734.278C993.694 733.796 996.211 733.368 998.674 732.886C998.674 733.635 998.674 734.438 998.674 735.242Z" fill="#537082"/>
<path d="M1003.92 690.481C1004.83 692.73 1006.65 694.497 1008.47 696.103C1013.88 700.868 1019.98 704.83 1024.85 710.131C1028.17 713.772 1031.01 718.108 1035.35 720.518C1035.83 720.785 1036.31 720.999 1036.85 720.999C1037.44 720.999 1037.97 720.625 1038.45 720.25C1041.24 718.162 1043.38 715.164 1044.34 711.844C1044.5 711.255 1044.66 710.559 1044.5 709.97C1044.34 709.381 1043.92 708.953 1043.49 708.525C1040.6 705.633 1037.12 703.438 1033.85 700.868C1030.37 698.138 1027.16 694.979 1024.43 691.499C1022.66 689.25 1021 686.841 1018.7 685.074C1013.56 681.112 999.958 680.737 1003.92 690.481Z" fill="#F2D292"/>
<path d="M984.164 605.084C984.11 604.388 984.325 603.746 984.592 603.103C985.235 601.39 985.984 599.677 986.68 597.964C987.002 597.268 987.323 596.518 987.858 595.929C988.394 595.394 989.25 595.019 990 595.34C990.75 595.608 991.124 596.411 991.231 597.214C991.338 598.017 991.178 598.767 991.124 599.57C991.124 599.73 991.124 599.945 991.178 600.105C991.285 600.266 991.446 600.319 991.553 600.426C992.142 600.962 991.981 601.818 991.767 602.568C991.446 603.907 991.071 605.245 990.321 606.369C989.625 607.494 988.287 608.779 986.948 608.35C985.717 607.976 984.271 606.316 984.164 605.084Z" fill="#B09071"/>
<path d="M980.684 702.368C981.38 701.458 982.023 700.547 982.719 699.637C979.988 697.121 980.363 692.838 979.827 689.197C979.185 684.699 976.883 680.63 975.062 676.454C974.902 675.383 974.741 674.313 974.687 673.242C974.42 669.28 975.169 665.104 977.686 662.105C979.72 659.696 982.237 658.09 982.611 654.717C982.879 651.986 981.701 649.577 979.024 648.72C971.903 646.471 965.425 653.432 963.23 659.428C960.66 660.874 960.071 665.907 961.409 668.316C959.803 668.851 958.143 669.387 956.966 670.565C955.788 671.743 955.199 673.724 956.162 675.116C957.019 676.401 959 677.471 958.251 678.81C957.769 679.667 956.216 680.095 956.591 681.005C956.805 681.487 957.447 681.594 957.876 681.862C959.214 682.772 957.876 684.914 956.537 685.77C955.145 686.68 953.485 688.287 954.449 689.625C954.931 690.268 955.841 690.482 956.216 691.178C956.698 692.034 956.055 693.105 955.306 693.694C954.556 694.337 953.646 694.819 953.218 695.675C952.789 696.585 953.485 697.924 954.396 697.71C952.361 698.513 951.558 701.511 952.896 703.224C951.076 702.582 949.47 705.098 950.166 706.919C950.862 708.686 952.843 709.596 954.663 710.131C954.877 710.988 955.038 711.844 955.252 712.701C958.197 713.986 961.249 715.271 964.461 715.699C967.674 716.128 971.154 715.646 973.67 713.611C974.42 713.022 975.062 712.326 975.865 711.952C976.561 711.63 977.365 711.47 978.007 711.095C979.292 710.292 979.72 708.471 978.971 707.186C979.988 706.705 981.059 706.169 981.594 705.152C982.13 704.135 981.808 702.635 980.684 702.368Z" fill="#494949"/>
<path d="M885.128 847.294C885.779 847.294 886.489 847.353 887.022 847.708C888.028 848.359 888.146 849.72 888.146 850.844C888.442 866.054 888.324 882.447 887.673 897.656C887.614 898.603 887.554 899.609 886.903 900.26C886.371 900.792 885.542 900.911 884.832 900.97C879.743 901.502 874.594 898.188 869.505 897.774C863.587 897.36 857.728 896.946 851.81 896.531C850.922 896.472 850.034 896.413 849.265 895.999C846.898 894.815 846.898 891.501 847.134 888.897C847.785 881.736 848.022 874.516 847.785 867.296C847.667 863.864 847.49 860.432 847.134 856.94C846.898 854.277 845.063 848.714 845.833 846.228C846.72 843.329 849.62 844.512 852.875 844.571C856.544 844.69 860.213 844.749 863.942 844.867C870.984 845.163 878.086 847.116 885.128 847.294Z" fill="#F2F4F7"/>
<path d="M843.228 844.335C843.998 844.098 844.826 843.861 845.596 844.098C847.194 844.512 847.785 846.524 848.022 848.181C850.508 864.278 851.869 880.612 852.046 896.887C834.351 901.148 816.538 905.113 798.666 908.663C795.352 909.314 791.209 909.729 789.197 906.947C787.836 905.053 788.073 902.509 788.428 900.201C789.611 892.034 790.795 883.808 791.979 875.641C792.748 870.315 787.777 860.787 792.748 857.887C799.139 854.159 813.283 853.093 820.385 850.963C827.013 849.069 836.304 844.335 843.228 844.335Z" fill="#DDE1E7"/>
<path d="M885.897 902.331C887.554 901.739 889.389 900.911 890.099 899.017C890.454 898.011 890.454 896.887 890.454 895.821C890.395 880.139 889.685 863.272 888.324 847.649C873.233 855.224 857.55 859.485 841.572 863.805C838.849 864.574 836.009 865.285 833.878 867.474C832.754 868.599 833.286 877.357 833.227 879.192C833.05 883.275 832.99 887.359 832.99 891.442C832.99 898.544 831.807 909.433 833.937 916.12C836.009 922.571 841.986 917.896 845.655 916.002C851.751 912.806 857.964 910.025 864.237 907.48C871.457 904.58 878.677 904.994 885.897 902.331Z" fill="#F2F4F7"/>
<path d="M836.364 919.493C835.535 901.976 834.706 884.399 833.878 866.882C821.095 867.356 804.643 862.207 792.156 859.248C790.972 858.952 789.73 858.715 788.605 859.248C786.948 860.017 786.534 862.089 786.238 863.864C785.054 872.682 788.369 881.5 787.836 890.377C787.54 895.525 784.463 907.894 790.499 909.965C793.695 911.09 798.133 910.32 801.566 910.971C805.294 911.622 808.904 912.688 812.514 913.753C820.385 916.061 828.197 918.842 836.364 919.493Z" fill="#DDE1E7"/>
<path d="M843.524 883.867C858.024 879.014 872.463 874.161 886.963 869.309C890.75 868.066 894.538 866.764 897.97 864.87C897.674 862.029 895.485 859.781 894.123 857.236C892.585 854.395 892.052 851.081 890.454 848.3C890.336 848.122 890.217 847.885 889.981 847.826C889.803 847.767 889.566 847.826 889.389 847.885C879.683 851.377 869.978 854.75 860.154 858.005C855.242 859.662 850.271 861.26 845.359 862.799C842.4 863.746 834.529 864.338 835.772 868.658C836.482 871.143 838.139 873.51 839.323 875.759C840.743 878.482 842.104 881.204 843.524 883.867Z" fill="#DDE1E7"/>
<path d="M776 873.925C791.446 878.186 807.306 880.849 823.107 883.512C823.462 883.571 823.877 883.63 824.232 883.512C824.646 883.334 824.942 882.92 825.179 882.565C828.315 877.476 831.392 872.386 834.411 867.237C822.22 867.593 810.265 864.338 798.488 861.083C795.944 860.373 793.281 859.307 790.677 858.893C788.428 858.597 787.718 860.491 786.357 862.089C782.983 866.113 779.551 870.078 776 873.925Z" fill="#F2F4F7"/>
<path d="M1303.71 606.28C1277.29 620.336 1251.67 634.584 1225.71 648.705C1225.25 648.961 1226.4 649.218 1226.86 648.961C1253.05 634.905 1279.58 620.849 1305.43 606.665C1306.12 606.216 1304.4 605.831 1303.71 606.28Z" fill="#F2F4F7"/>
<path d="M1312.09 589.271C1297.5 596.524 1284.29 604.226 1270.05 611.607C1254.66 619.501 1239.04 627.332 1223.07 635.033C1222.61 635.29 1223.41 635.611 1223.99 635.354C1239.84 627.845 1255.46 620.207 1270.74 612.441C1285.44 604.996 1300.84 597.615 1313.93 589.785C1314.62 589.4 1312.9 588.886 1312.09 589.271Z" fill="#F2F4F7"/>
<path d="M1494.96 450.187C1472.56 463.088 1449.82 475.796 1426.73 488.44C1425.7 489.018 1427.99 489.467 1429.03 488.954C1452.92 476.566 1475.55 463.666 1496.69 450.572C1497.38 450.187 1495.77 449.802 1494.96 450.187Z" fill="#F2F4F7"/>
<path d="M1493.13 469.121C1479.46 479.07 1463.49 488.376 1445.23 497.169C1444.19 497.619 1446.03 498.325 1446.95 497.875C1464.87 488.954 1480.72 479.455 1494.39 469.507C1494.85 469.057 1493.59 468.8 1493.13 469.121Z" fill="#F2F4F7"/>
<path d="M1466.59 564.368C1452.46 573.739 1438.33 583.174 1424.21 592.544C1423.29 593.122 1425.7 593.636 1426.5 593.058C1440.4 583.623 1454.42 574.188 1468.31 564.753C1469 564.304 1467.17 563.919 1466.59 564.368Z" fill="#F2F4F7"/>
<path d="M1484.63 573.032C1472.45 582.339 1458.78 591.196 1444.31 599.925C1443.27 600.567 1445.8 601.144 1446.95 600.503C1461.54 591.838 1474.52 582.724 1486.58 573.417C1487.15 572.968 1485.32 572.583 1484.63 573.032Z" fill="#F2F4F7"/>
<path d="M1496.8 425.091C1468.77 424.835 1440.75 425.348 1412.72 425.22C1383.77 425.091 1354.71 425.091 1325.76 425.091C1297.62 425.091 1269.48 425.027 1241.33 425.22C1213.31 425.412 1181.14 424.771 1153.23 425.091L1153 441.651C1183.21 441.201 1213.42 441.972 1243.63 441.586C1251.9 441.715 1260.17 441.394 1268.44 441.522C1293.6 441.843 1318.87 441.651 1344.03 441.651C1391.81 441.651 1437.41 441.33 1487.38 441.586C1513 441.907 1538.5 441.33 1564.11 441.586L1581 441.522V425.348C1553.09 424.835 1524.94 425.348 1496.8 425.091Z" fill="#F2F4F7"/>
<path d="M1496.8 668.217C1468.77 667.96 1440.75 668.474 1412.72 668.345C1383.77 668.217 1354.71 668.217 1325.76 668.217C1297.62 668.217 1269.48 668.153 1241.33 668.345C1213.31 668.538 1181.14 667.896 1153.23 668.217L1153 684.776C1183.21 684.327 1213.42 685.097 1243.63 684.712C1251.9 684.84 1260.17 684.519 1268.44 684.648C1293.6 684.969 1318.87 684.776 1344.03 684.776C1391.81 684.776 1437.41 684.455 1487.38 684.712C1513 685.033 1538.5 684.455 1564.11 684.712L1581 684.648V668.474C1553.09 667.96 1524.94 668.474 1496.8 668.217Z" fill="#F2F4F7"/>
<path d="M1559.18 624.635C1559.41 609.231 1558.95 593.763 1559.06 578.295C1559.18 562.313 1559.18 546.332 1559.18 530.414C1559.18 514.882 1559.18 499.414 1559.06 483.882C1558.83 468.478 1559.52 450.699 1559.18 435.295L1540.57 435.167C1541.03 451.79 1540.22 468.478 1540.68 485.101C1540.45 489.658 1540.91 494.215 1540.8 498.772C1540.45 512.636 1540.68 526.563 1540.68 540.427C1540.68 566.742 1541.03 591.901 1540.8 619.436C1540.45 633.556 1541.14 647.612 1540.8 661.732L1540.91 671.039H1559.18C1559.52 655.635 1558.95 640.167 1559.18 624.635Z" fill="#F2F4F7"/>
<path d="M1374.58 624.635C1374.81 609.231 1374.35 593.763 1374.47 578.295C1374.58 562.313 1374.58 546.332 1374.58 530.414C1374.58 514.882 1374.58 499.414 1374.47 483.882C1374.24 468.478 1374.93 450.699 1374.58 435.295L1355.97 435.167C1356.43 451.79 1355.63 468.478 1356.09 485.101C1355.86 489.658 1356.32 494.215 1356.2 498.772C1355.86 512.636 1356.09 526.563 1356.09 540.427C1356.09 566.742 1356.43 591.901 1356.2 619.436C1355.86 633.556 1356.55 647.612 1356.2 661.732L1356.32 671.039H1374.47C1374.93 655.635 1374.35 640.167 1374.58 624.635Z" fill="#F2F4F7"/>
<path d="M1259.37 558.4C1282.92 558.528 1306.35 558.271 1329.9 558.336C1354.25 558.4 1378.6 558.4 1402.84 558.4C1426.5 558.4 1450.05 558.4 1473.71 558.336C1497.26 558.207 1524.25 558.592 1547.69 558.4L1547.92 548.002C1522.53 548.259 1497.26 547.81 1471.87 548.066C1464.98 547.938 1457.98 548.195 1451.08 548.13C1429.95 547.938 1408.81 548.066 1387.56 548.066C1347.47 548.066 1309.22 548.259 1267.18 548.13C1245.7 547.938 1224.22 548.323 1202.74 548.13L1188.49 548.195V558.4C1212.04 558.528 1235.7 558.207 1259.37 558.4Z" fill="#F2F4F7"/>
<path d="M1191.02 624.635C1191.25 609.231 1190.79 593.763 1190.91 578.295C1191.02 562.313 1191.02 546.332 1191.02 530.414C1191.02 514.882 1191.02 499.414 1190.91 483.882C1190.68 468.478 1191.37 450.699 1191.02 435.295L1172.41 435.167C1172.87 451.79 1172.07 468.478 1172.53 485.101C1172.3 489.658 1172.76 494.215 1172.64 498.772C1172.3 512.636 1172.53 526.563 1172.53 540.427C1172.53 566.742 1172.87 591.901 1172.64 619.436C1172.3 633.556 1172.99 647.612 1172.64 661.732L1172.76 671.039H1191.02C1191.25 655.635 1190.68 640.167 1191.02 624.635Z" fill="#F2F4F7"/>
<path d="M419.288 195.228C382.569 194.924 345.85 194.924 309.132 195.228C308.019 195.228 307.129 195.836 307.129 196.596C308.686 229.267 306.461 261.939 307.129 294.611C307.129 294.915 307.351 295.219 307.574 295.371C307.574 295.371 307.574 295.523 307.796 295.523C308.019 295.675 308.464 295.827 309.132 295.827C346.295 295.979 383.459 296.283 420.623 295.371C421.736 295.371 422.626 294.763 422.626 294.003C423.961 261.483 421.291 228.964 421.291 196.444C421.068 195.836 420.178 195.228 419.288 195.228Z" fill="#F2F4F7"/>
<path d="M600.624 167.323C547.445 166.892 494.266 166.892 441.087 167.323C439.475 167.323 438.186 168.183 438.186 169.259C440.442 215.517 437.219 261.776 438.186 308.034C438.186 308.464 438.508 308.894 438.831 309.11C438.831 309.11 438.831 309.325 439.153 309.325C439.475 309.54 440.12 309.755 441.087 309.755C494.91 309.97 548.734 310.4 602.558 309.11C604.17 309.11 605.459 308.249 605.459 307.173C607.392 261.13 603.525 215.087 603.525 169.044C603.525 168.183 602.236 167.323 600.624 167.323Z" fill="#F2F4F7"/>
<path d="M1212.05 931.802C1233.34 929.949 1254.67 934.449 1275.95 933.814C1284.27 933.549 1292.58 932.543 1300.84 931.537C1301.84 926.931 1299.78 922.219 1299.88 917.507C1300.41 888.283 1297.87 873.777 1299.73 851.753C1299.78 851.329 1299.78 850.906 1299.62 850.535C1299.2 849.582 1294.38 849.265 1293.37 849.318C1278.92 850.165 1264.47 850.429 1250.01 850.112C1242.44 849.953 1234.82 849.582 1227.25 849.635C1223.44 849.688 1219.62 849.794 1215.81 850.112C1213.59 850.323 1212.58 849.9 1212.48 852.282C1212.37 854.294 1212.42 856.306 1212.37 858.318C1212.16 873.936 1212 889.554 1212 905.225C1212 914.119 1212 922.96 1212.05 931.802Z" fill="#F2F4F7"/>
<path opacity="0.71" d="M1253.45 879.654C1253.45 880.13 1253.45 880.712 1253.77 881.083C1254.04 881.295 1254.35 881.401 1254.67 881.454C1257.37 881.983 1260.18 882.142 1262.93 881.93C1263.2 872.93 1263.14 863.93 1262.88 854.929C1262.82 853.977 1262.77 852.865 1261.98 852.282C1261.55 851.965 1261.08 851.912 1260.6 851.806C1258.8 851.541 1257 851.488 1255.2 851.594C1252.45 851.753 1253.03 853.553 1253.19 855.671C1253.35 858.371 1253.51 861.071 1253.56 863.718C1253.67 869.065 1253.67 874.359 1253.45 879.654Z" fill="#DDE1E7"/>
<path opacity="0.71" d="M1299.3 852.653C1299.67 851.488 1299.78 850.218 1299.62 849C1280.35 850.112 1260.97 850.906 1241.7 849.847C1234.08 849.424 1226.35 848.682 1218.72 849.424C1217.35 849.529 1214.22 849.424 1213.11 850.218C1211.95 851.065 1212.42 852.177 1213.64 852.706C1214.96 853.288 1217.29 852.865 1218.67 852.865C1220.74 852.865 1222.8 852.918 1224.87 852.918C1240.85 853.077 1256.79 853.077 1272.78 852.971C1277.23 852.918 1281.73 852.918 1286.17 852.865C1287.34 852.812 1299.14 853.288 1299.3 852.653Z" fill="#DDE1E7"/>
<path d="M1317.13 919.349C1317.13 921.242 1315.23 926.805 1316.36 928.344C1317.9 930.474 1320.85 930.829 1323.46 931.007C1337.96 932.072 1354.47 929.291 1369.03 929.646C1373.88 929.764 1379.32 929.646 1382.88 926.273C1386.07 923.195 1386.72 918.402 1387.02 913.963C1387.67 904.198 1387.61 894.375 1386.78 884.61C1386.6 882.302 1386.37 879.875 1385.12 877.922C1382.64 873.898 1377.25 873.07 1372.52 872.774C1357.9 871.827 1343.28 871.886 1328.61 872.004C1325.29 872.004 1318.72 872.182 1316.89 875.733C1315.71 878.041 1317.07 883.84 1317.13 886.444C1317.13 897.393 1317.13 908.4 1317.13 919.349Z" fill="#F2F4F7"/>
<path opacity="0.71" d="M1345.47 888.989C1346.12 889.049 1346.72 889.64 1346.83 890.41C1349.08 890.587 1351.33 890.765 1353.58 890.942C1354 891.001 1354.47 891.001 1354.88 890.824C1356.18 890.291 1356.48 888.279 1356.48 886.622C1356.54 882.48 1356.48 878.396 1356.36 874.254C1356.3 873.425 1356.24 872.537 1355.71 872.064C1355.42 871.768 1355 871.709 1354.59 871.65C1351.51 871.235 1346.42 869.637 1345.35 873.78C1345 875.2 1345.71 878.1 1345.77 879.639C1345.77 882.775 1345.53 885.912 1345.47 888.989Z" fill="#DDE1E7"/>
<path d="M1504.13 919.349C1504.13 921.242 1502.23 926.805 1503.36 928.344C1504.9 930.474 1507.85 930.829 1510.46 931.007C1524.96 932.072 1541.47 929.291 1556.03 929.646C1560.88 929.764 1566.32 929.646 1569.88 926.273C1573.07 923.195 1573.72 918.402 1574.02 913.963C1574.67 904.198 1574.61 894.375 1573.78 884.61C1573.6 882.302 1573.37 879.875 1572.12 877.922C1569.64 873.898 1564.25 873.07 1559.52 872.774C1544.9 871.827 1530.28 871.886 1515.61 872.004C1512.29 872.004 1505.72 872.182 1503.89 875.733C1502.71 878.041 1504.07 883.84 1504.13 886.444C1504.13 897.393 1504.13 908.4 1504.13 919.349Z" fill="#F2F4F7"/>
<path opacity="0.71" d="M1532.47 888.989C1533.12 889.049 1533.72 889.64 1533.83 890.41C1536.08 890.587 1538.33 890.765 1540.58 890.942C1541 891.001 1541.47 891.001 1541.88 890.824C1543.18 890.291 1543.48 888.279 1543.48 886.622C1543.54 882.48 1543.48 878.396 1543.36 874.254C1543.3 873.425 1543.24 872.537 1542.71 872.064C1542.42 871.768 1542 871.709 1541.59 871.65C1538.51 871.235 1533.42 869.637 1532.35 873.78C1532 875.2 1532.71 878.1 1532.77 879.639C1532.77 882.775 1532.53 885.912 1532.47 888.989Z" fill="#DDE1E7"/>
<path d="M1356.07 931.971C1385.88 929.376 1415.77 935.679 1445.57 934.789C1457.22 934.418 1468.86 933.009 1480.42 931.6C1481.83 925.149 1478.94 918.55 1479.09 911.95C1479.83 871.019 1476.27 850.702 1478.87 819.856C1478.94 819.263 1478.94 818.669 1478.72 818.15C1478.13 816.816 1471.38 816.371 1469.97 816.445C1449.73 817.631 1429.48 818.002 1409.24 817.557C1398.64 817.335 1387.96 816.816 1377.36 816.89C1372.02 816.964 1366.68 817.112 1361.34 817.557C1358.22 817.854 1356.82 817.261 1356.67 820.597C1356.52 823.415 1356.59 826.233 1356.52 829.05C1356.22 850.925 1356 872.799 1356 894.748C1356 907.205 1356 919.588 1356.07 931.971Z" fill="#F2F4F7"/>
<path opacity="0.71" d="M1414.06 858.933C1414.06 859.601 1414.06 860.416 1414.5 860.935C1414.88 861.232 1415.32 861.38 1415.77 861.454C1419.55 862.196 1423.48 862.418 1427.33 862.122C1427.7 849.516 1427.63 836.911 1427.26 824.305C1427.18 822.97 1427.11 821.413 1426 820.598C1425.4 820.153 1424.74 820.079 1424.07 819.93C1421.55 819.559 1419.03 819.485 1416.51 819.634C1412.65 819.856 1413.47 822.377 1413.69 825.343C1413.91 829.125 1414.13 832.907 1414.21 836.614C1414.36 844.103 1414.36 851.518 1414.06 858.933Z" fill="#DDE1E7"/>
<path opacity="0.71" d="M1478.27 821.116C1478.79 819.485 1478.94 817.705 1478.72 816C1451.73 817.557 1424.59 818.669 1397.6 817.186C1386.92 816.593 1376.09 815.555 1365.42 816.593C1363.49 816.741 1359.11 816.593 1357.56 817.705C1355.93 818.892 1356.59 820.449 1358.3 821.191C1360.15 822.006 1363.41 821.413 1365.34 821.413C1368.23 821.413 1371.13 821.487 1374.02 821.487C1396.41 821.71 1418.73 821.71 1441.12 821.561C1447.35 821.487 1453.66 821.487 1459.88 821.413C1461.52 821.339 1478.05 822.006 1478.27 821.116Z" fill="#DDE1E7"/>
</svg>
