<svg width="1654" height="939" viewBox="0 0 1654 939" fill="none" xmlns="http://www.w3.org/2000/svg">
<rect width="1667" height="939" fill="white"/>
<path d="M530.997 879.955C530.639 879.955 530.37 879.955 530.012 879.955C530.997 870.941 530.37 864.873 530.46 854.967C530.46 854.967 530.46 854.967 530.549 854.967C530.549 854.877 530.549 854.877 530.46 854.788C530.46 854.699 530.46 854.61 530.46 854.52H530.37C521.056 828.818 514.339 815.342 495.801 790.8C494.368 790.8 492.845 790.889 491.413 790.889C492.129 760.279 491.413 740.645 491.233 707C360.121 709.767 75.865 705.661 71.208 708.071C71.3871 741.894 71.6558 766.704 72.82 795.798C73.5365 795.798 74.1634 795.798 74.8799 795.798C67.7153 819.626 60.8193 835.868 56.431 858.001C57.0579 858.001 57.6848 858.001 58.3117 858.001C57.237 858.001 56.5205 858.09 56.3414 858.09C56.2518 868.175 56.431 875.582 57.3266 884.149C56.6101 884.149 56.1623 884.149 56.0728 884.149C55.8937 886.737 55.9832 888.612 57.0579 890.843C66.6406 890.753 76.0441 890.664 85.2685 890.575C85.0894 893.252 84.9103 895.84 84.7312 898.518C84.4625 901.998 83.5669 904.497 87.9553 904.943C89.4778 905.122 91.0002 904.854 92.4332 904.497C93.1496 904.318 93.866 904.14 94.4034 903.694C95.4781 902.712 94.8513 897.714 94.9408 896.197C95.1199 894.234 95.2094 892.36 95.299 890.396C240.203 889.058 346.598 888.165 485.323 886.916C485.233 890.307 485.144 893.609 484.964 897C484.785 900.481 483.979 902.98 488.368 903.337C489.89 903.426 491.412 903.158 492.845 902.712C493.562 902.534 494.278 902.355 494.726 901.909C495.801 900.927 494.995 895.93 495.084 894.412C495.174 891.914 495.263 889.325 495.353 886.827C506.727 886.737 518.369 886.648 530.191 886.47C531.445 884.149 530.818 882.632 530.997 879.955ZM341.045 856.216C249.159 856.751 155.661 857.198 102.016 857.644C187.991 856.751 263.846 856.484 341.045 856.216Z" fill="#F2F4F7"/>
<path d="M886.128 847.294C886.779 847.294 887.489 847.353 888.022 847.708C889.028 848.359 889.146 849.72 889.146 850.844C889.442 866.054 889.324 882.447 888.673 897.656C888.614 898.603 888.554 899.609 887.903 900.26C887.371 900.792 886.542 900.911 885.832 900.97C880.743 901.502 875.594 898.188 870.505 897.774C864.587 897.36 858.728 896.946 852.81 896.531C851.922 896.472 851.034 896.413 850.265 895.999C847.898 894.815 847.898 891.501 848.134 888.897C848.785 881.736 849.022 874.516 848.785 867.296C848.667 863.864 848.49 860.432 848.134 856.94C847.898 854.277 846.063 848.714 846.833 846.228C847.72 843.329 850.62 844.512 853.875 844.571C857.544 844.69 861.213 844.749 864.942 844.867C871.984 845.163 879.086 847.116 886.128 847.294Z" fill="#F2F4F7"/>
<path d="M844.228 844.335C844.998 844.098 845.826 843.861 846.596 844.098C848.194 844.512 848.785 846.524 849.022 848.181C851.508 864.278 852.869 880.612 853.046 896.887C835.351 901.148 817.538 905.113 799.666 908.663C796.352 909.314 792.209 909.729 790.197 906.947C788.836 905.053 789.073 902.509 789.428 900.201C790.611 892.034 791.795 883.808 792.979 875.641C793.748 870.315 788.777 860.787 793.748 857.887C800.139 854.159 814.283 853.093 821.385 850.963C828.013 849.069 837.304 844.335 844.228 844.335Z" fill="#DDE1E7"/>
<path d="M886.897 902.331C888.554 901.739 890.389 900.911 891.099 899.017C891.454 898.011 891.454 896.887 891.454 895.821C891.395 880.139 890.685 863.272 889.324 847.649C874.233 855.224 858.55 859.485 842.572 863.805C839.849 864.574 837.009 865.285 834.878 867.474C833.754 868.599 834.286 877.357 834.227 879.192C834.05 883.275 833.99 887.359 833.99 891.442C833.99 898.544 832.807 909.433 834.937 916.12C837.009 922.571 842.986 917.896 846.655 916.002C852.751 912.806 858.964 910.025 865.237 907.48C872.457 904.58 879.677 904.994 886.897 902.331Z" fill="#F2F4F7"/>
<path d="M837.364 919.493C836.535 901.976 835.706 884.399 834.878 866.882C822.095 867.356 805.643 862.207 793.156 859.248C791.972 858.952 790.73 858.715 789.605 859.248C787.948 860.017 787.534 862.089 787.238 863.864C786.054 872.682 789.369 881.5 788.836 890.377C788.54 895.525 785.463 907.894 791.499 909.965C794.695 911.09 799.133 910.32 802.566 910.971C806.294 911.622 809.904 912.688 813.514 913.753C821.385 916.061 829.197 918.842 837.364 919.493Z" fill="#DDE1E7"/>
<path d="M844.524 883.867C859.024 879.014 873.463 874.161 887.963 869.309C891.75 868.066 895.538 866.764 898.97 864.87C898.674 862.029 896.485 859.781 895.123 857.236C893.585 854.395 893.052 851.081 891.454 848.3C891.336 848.122 891.217 847.885 890.981 847.826C890.803 847.767 890.566 847.826 890.389 847.885C880.683 851.377 870.978 854.75 861.154 858.005C856.242 859.662 851.271 861.26 846.359 862.799C843.4 863.746 835.529 864.338 836.772 868.658C837.482 871.143 839.139 873.51 840.323 875.759C841.743 878.482 843.104 881.204 844.524 883.867Z" fill="#DDE1E7"/>
<path d="M777 873.925C792.446 878.186 808.306 880.849 824.107 883.512C824.462 883.571 824.877 883.63 825.232 883.512C825.646 883.334 825.942 882.92 826.179 882.565C829.315 877.476 832.392 872.386 835.411 867.237C823.22 867.593 811.265 864.338 799.488 861.083C796.944 860.373 794.281 859.307 791.677 858.893C789.428 858.597 788.718 860.491 787.357 862.089C783.983 866.113 780.551 870.078 777 873.925Z" fill="#F2F4F7"/>
<path d="M1304.71 606.28C1278.29 620.336 1252.67 634.584 1226.71 648.705C1226.25 648.961 1227.4 649.218 1227.86 648.961C1254.05 634.905 1280.58 620.849 1306.43 606.665C1307.12 606.216 1305.4 605.831 1304.71 606.28Z" fill="#F2F4F7"/>
<path d="M1313.09 589.271C1298.5 596.524 1285.29 604.226 1271.05 611.607C1255.66 619.501 1240.04 627.332 1224.07 635.033C1223.61 635.29 1224.41 635.611 1224.99 635.354C1240.84 627.845 1256.46 620.207 1271.74 612.441C1286.44 604.996 1301.84 597.615 1314.93 589.785C1315.62 589.4 1313.9 588.886 1313.09 589.271Z" fill="#F2F4F7"/>
<path d="M1495.96 450.187C1473.56 463.088 1450.82 475.796 1427.73 488.44C1426.7 489.018 1428.99 489.467 1430.03 488.954C1453.92 476.566 1476.55 463.666 1497.69 450.572C1498.38 450.187 1496.77 449.802 1495.96 450.187Z" fill="#F2F4F7"/>
<path d="M1494.13 469.121C1480.46 479.07 1464.49 488.376 1446.23 497.169C1445.19 497.619 1447.03 498.325 1447.95 497.875C1465.87 488.954 1481.72 479.455 1495.39 469.507C1495.85 469.057 1494.59 468.8 1494.13 469.121Z" fill="#F2F4F7"/>
<path d="M1467.59 564.368C1453.46 573.739 1439.33 583.174 1425.21 592.544C1424.29 593.122 1426.7 593.636 1427.5 593.058C1441.4 583.623 1455.42 574.188 1469.31 564.753C1470 564.304 1468.17 563.919 1467.59 564.368Z" fill="#F2F4F7"/>
<path d="M1485.63 573.032C1473.45 582.339 1459.78 591.196 1445.31 599.925C1444.27 600.567 1446.8 601.144 1447.95 600.503C1462.54 591.838 1475.52 582.724 1487.58 573.417C1488.15 572.968 1486.32 572.583 1485.63 573.032Z" fill="#F2F4F7"/>
<path d="M1497.8 425.091C1469.77 424.835 1441.75 425.348 1413.72 425.22C1384.77 425.091 1355.71 425.091 1326.76 425.091C1298.62 425.091 1270.48 425.027 1242.33 425.22C1214.31 425.412 1182.14 424.771 1154.23 425.091L1154 441.651C1184.21 441.201 1214.42 441.972 1244.63 441.586C1252.9 441.715 1261.17 441.394 1269.44 441.522C1294.6 441.843 1319.87 441.651 1345.03 441.651C1392.81 441.651 1438.41 441.33 1488.38 441.586C1514 441.907 1539.5 441.33 1565.11 441.586L1582 441.522V425.348C1554.09 424.835 1525.94 425.348 1497.8 425.091Z" fill="#F2F4F7"/>
<path d="M1497.8 668.217C1469.77 667.96 1441.75 668.474 1413.72 668.345C1384.77 668.217 1355.71 668.217 1326.76 668.217C1298.62 668.217 1270.48 668.153 1242.33 668.345C1214.31 668.538 1182.14 667.896 1154.23 668.217L1154 684.776C1184.21 684.327 1214.42 685.097 1244.63 684.712C1252.9 684.84 1261.17 684.519 1269.44 684.648C1294.6 684.969 1319.87 684.776 1345.03 684.776C1392.81 684.776 1438.41 684.455 1488.38 684.712C1514 685.033 1539.5 684.455 1565.11 684.712L1582 684.648V668.474C1554.09 667.96 1525.94 668.474 1497.8 668.217Z" fill="#F2F4F7"/>
<path d="M1560.18 624.635C1560.41 609.231 1559.95 593.763 1560.06 578.295C1560.18 562.313 1560.18 546.332 1560.18 530.414C1560.18 514.882 1560.18 499.414 1560.06 483.882C1559.83 468.478 1560.52 450.699 1560.18 435.295L1541.57 435.167C1542.03 451.79 1541.22 468.478 1541.68 485.101C1541.45 489.658 1541.91 494.215 1541.8 498.772C1541.45 512.636 1541.68 526.563 1541.68 540.427C1541.68 566.742 1542.03 591.901 1541.8 619.436C1541.45 633.556 1542.14 647.612 1541.8 661.732L1541.91 671.039H1560.18C1560.52 655.635 1559.95 640.167 1560.18 624.635Z" fill="#F2F4F7"/>
<path d="M1375.58 624.635C1375.81 609.231 1375.35 593.763 1375.47 578.295C1375.58 562.313 1375.58 546.332 1375.58 530.414C1375.58 514.882 1375.58 499.414 1375.47 483.882C1375.24 468.478 1375.93 450.699 1375.58 435.295L1356.97 435.167C1357.43 451.79 1356.63 468.478 1357.09 485.101C1356.86 489.658 1357.32 494.215 1357.2 498.772C1356.86 512.636 1357.09 526.563 1357.09 540.427C1357.09 566.742 1357.43 591.901 1357.2 619.436C1356.86 633.556 1357.55 647.612 1357.2 661.732L1357.32 671.039H1375.47C1375.93 655.635 1375.35 640.167 1375.58 624.635Z" fill="#F2F4F7"/>
<path d="M1260.37 558.4C1283.92 558.528 1307.35 558.271 1330.9 558.336C1355.25 558.4 1379.6 558.4 1403.84 558.4C1427.5 558.4 1451.05 558.4 1474.71 558.336C1498.26 558.207 1525.25 558.592 1548.69 558.4L1548.92 548.002C1523.53 548.259 1498.26 547.81 1472.87 548.066C1465.98 547.938 1458.98 548.195 1452.08 548.13C1430.95 547.938 1409.81 548.066 1388.56 548.066C1348.47 548.066 1310.22 548.259 1268.18 548.13C1246.7 547.938 1225.22 548.323 1203.74 548.13L1189.49 548.195V558.4C1213.04 558.528 1236.7 558.207 1260.37 558.4Z" fill="#F2F4F7"/>
<path d="M1192.02 624.635C1192.25 609.231 1191.79 593.763 1191.91 578.295C1192.02 562.313 1192.02 546.332 1192.02 530.414C1192.02 514.882 1192.02 499.414 1191.91 483.882C1191.68 468.478 1192.37 450.699 1192.02 435.295L1173.41 435.167C1173.87 451.79 1173.07 468.478 1173.53 485.101C1173.3 489.658 1173.76 494.215 1173.64 498.772C1173.3 512.636 1173.53 526.563 1173.53 540.427C1173.53 566.742 1173.87 591.901 1173.64 619.436C1173.3 633.556 1173.99 647.612 1173.64 661.732L1173.76 671.039H1192.02C1192.25 655.635 1191.68 640.167 1192.02 624.635Z" fill="#F2F4F7"/>
<path d="M420.288 195.228C383.569 194.924 346.85 194.924 310.132 195.228C309.019 195.228 308.129 195.836 308.129 196.596C309.686 229.267 307.461 261.939 308.129 294.611C308.129 294.915 308.351 295.219 308.574 295.371C308.574 295.371 308.574 295.523 308.796 295.523C309.019 295.675 309.464 295.827 310.132 295.827C347.295 295.979 384.459 296.283 421.623 295.371C422.736 295.371 423.626 294.763 423.626 294.003C424.961 261.483 422.291 228.964 422.291 196.444C422.068 195.836 421.178 195.228 420.288 195.228Z" fill="#F2F4F7"/>
<path d="M601.624 167.323C548.445 166.892 495.266 166.892 442.087 167.323C440.475 167.323 439.186 168.183 439.186 169.259C441.442 215.517 438.219 261.776 439.186 308.034C439.186 308.464 439.508 308.894 439.831 309.11C439.831 309.11 439.831 309.325 440.153 309.325C440.475 309.54 441.12 309.755 442.087 309.755C495.91 309.97 549.734 310.4 603.558 309.11C605.17 309.11 606.459 308.249 606.459 307.173C608.392 261.13 604.525 215.087 604.525 169.044C604.525 168.183 603.236 167.323 601.624 167.323Z" fill="#F2F4F7"/>
<path d="M1213.05 931.802C1234.34 929.949 1255.67 934.449 1276.95 933.814C1285.27 933.549 1293.58 932.543 1301.84 931.537C1302.84 926.931 1300.78 922.219 1300.88 917.507C1301.41 888.283 1298.87 873.777 1300.73 851.753C1300.78 851.329 1300.78 850.906 1300.62 850.535C1300.2 849.582 1295.38 849.265 1294.37 849.318C1279.92 850.165 1265.47 850.429 1251.01 850.112C1243.44 849.953 1235.82 849.582 1228.25 849.635C1224.44 849.688 1220.62 849.794 1216.81 850.112C1214.59 850.323 1213.58 849.9 1213.48 852.282C1213.37 854.294 1213.42 856.306 1213.37 858.318C1213.16 873.936 1213 889.554 1213 905.225C1213 914.119 1213 922.96 1213.05 931.802Z" fill="#F2F4F7"/>
<path opacity="0.71" d="M1254.45 879.654C1254.45 880.13 1254.45 880.712 1254.77 881.083C1255.04 881.295 1255.35 881.401 1255.67 881.454C1258.37 881.983 1261.18 882.142 1263.93 881.93C1264.2 872.93 1264.14 863.93 1263.88 854.929C1263.82 853.977 1263.77 852.865 1262.98 852.282C1262.55 851.965 1262.08 851.912 1261.6 851.806C1259.8 851.541 1258 851.488 1256.2 851.594C1253.45 851.753 1254.03 853.553 1254.19 855.671C1254.35 858.371 1254.51 861.071 1254.56 863.718C1254.67 869.065 1254.67 874.359 1254.45 879.654Z" fill="#DDE1E7"/>
<path opacity="0.71" d="M1300.3 852.653C1300.67 851.488 1300.78 850.218 1300.62 849C1281.35 850.112 1261.97 850.906 1242.7 849.847C1235.08 849.424 1227.35 848.682 1219.72 849.424C1218.35 849.529 1215.22 849.424 1214.11 850.218C1212.95 851.065 1213.42 852.177 1214.64 852.706C1215.96 853.288 1218.29 852.865 1219.67 852.865C1221.74 852.865 1223.8 852.918 1225.87 852.918C1241.85 853.077 1257.79 853.077 1273.78 852.971C1278.23 852.918 1282.73 852.918 1287.17 852.865C1288.34 852.812 1300.14 853.288 1300.3 852.653Z" fill="#DDE1E7"/>
<path d="M1318.13 919.349C1318.13 921.242 1316.23 926.805 1317.36 928.344C1318.9 930.474 1321.85 930.829 1324.46 931.007C1338.96 932.072 1355.47 929.291 1370.03 929.646C1374.88 929.764 1380.32 929.646 1383.88 926.273C1387.07 923.195 1387.72 918.402 1388.02 913.963C1388.67 904.198 1388.61 894.375 1387.78 884.61C1387.6 882.302 1387.37 879.875 1386.12 877.922C1383.64 873.898 1378.25 873.07 1373.52 872.774C1358.9 871.827 1344.28 871.886 1329.61 872.004C1326.29 872.004 1319.72 872.182 1317.89 875.733C1316.71 878.041 1318.07 883.84 1318.13 886.444C1318.13 897.393 1318.13 908.4 1318.13 919.349Z" fill="#F2F4F7"/>
<path opacity="0.71" d="M1346.47 888.989C1347.12 889.049 1347.72 889.64 1347.83 890.41C1350.08 890.587 1352.33 890.765 1354.58 890.942C1355 891.001 1355.47 891.001 1355.88 890.824C1357.18 890.291 1357.48 888.279 1357.48 886.622C1357.54 882.48 1357.48 878.396 1357.36 874.254C1357.3 873.425 1357.24 872.537 1356.71 872.064C1356.42 871.768 1356 871.709 1355.59 871.65C1352.51 871.235 1347.42 869.637 1346.35 873.78C1346 875.2 1346.71 878.1 1346.77 879.639C1346.77 882.775 1346.53 885.912 1346.47 888.989Z" fill="#DDE1E7"/>
<path d="M1505.13 919.349C1505.13 921.242 1503.23 926.805 1504.36 928.344C1505.9 930.474 1508.85 930.829 1511.46 931.007C1525.96 932.072 1542.47 929.291 1557.03 929.646C1561.88 929.764 1567.32 929.646 1570.88 926.273C1574.07 923.195 1574.72 918.402 1575.02 913.963C1575.67 904.198 1575.61 894.375 1574.78 884.61C1574.6 882.302 1574.37 879.875 1573.12 877.922C1570.64 873.898 1565.25 873.07 1560.52 872.774C1545.9 871.827 1531.28 871.886 1516.61 872.004C1513.29 872.004 1506.72 872.182 1504.89 875.733C1503.71 878.041 1505.07 883.84 1505.13 886.444C1505.13 897.393 1505.13 908.4 1505.13 919.349Z" fill="#F2F4F7"/>
<path opacity="0.71" d="M1533.47 888.989C1534.12 889.049 1534.72 889.64 1534.83 890.41C1537.08 890.587 1539.33 890.765 1541.58 890.942C1542 891.001 1542.47 891.001 1542.88 890.824C1544.18 890.291 1544.48 888.279 1544.48 886.622C1544.54 882.48 1544.48 878.396 1544.36 874.254C1544.3 873.425 1544.24 872.537 1543.71 872.064C1543.42 871.768 1543 871.709 1542.59 871.65C1539.51 871.235 1534.42 869.637 1533.35 873.78C1533 875.2 1533.71 878.1 1533.77 879.639C1533.77 882.775 1533.53 885.912 1533.47 888.989Z" fill="#DDE1E7"/>
<path d="M1357.07 931.971C1386.88 929.376 1416.77 935.679 1446.57 934.789C1458.22 934.418 1469.86 933.009 1481.42 931.6C1482.83 925.149 1479.94 918.55 1480.09 911.95C1480.83 871.019 1477.27 850.702 1479.87 819.856C1479.94 819.263 1479.94 818.669 1479.72 818.15C1479.13 816.816 1472.38 816.371 1470.97 816.445C1450.73 817.631 1430.48 818.002 1410.24 817.557C1399.64 817.335 1388.96 816.816 1378.36 816.89C1373.02 816.964 1367.68 817.112 1362.34 817.557C1359.22 817.854 1357.82 817.261 1357.67 820.597C1357.52 823.415 1357.59 826.233 1357.52 829.05C1357.22 850.925 1357 872.799 1357 894.748C1357 907.205 1357 919.588 1357.07 931.971Z" fill="#F2F4F7"/>
<path opacity="0.71" d="M1415.06 858.933C1415.06 859.601 1415.06 860.416 1415.5 860.935C1415.88 861.232 1416.32 861.38 1416.77 861.454C1420.55 862.196 1424.48 862.418 1428.33 862.122C1428.7 849.516 1428.63 836.911 1428.26 824.305C1428.18 822.97 1428.11 821.413 1427 820.598C1426.4 820.153 1425.74 820.079 1425.07 819.93C1422.55 819.559 1420.03 819.485 1417.51 819.634C1413.65 819.856 1414.47 822.377 1414.69 825.343C1414.91 829.125 1415.13 832.907 1415.21 836.614C1415.36 844.103 1415.36 851.518 1415.06 858.933Z" fill="#DDE1E7"/>
<path opacity="0.71" d="M1479.27 821.116C1479.79 819.485 1479.94 817.705 1479.72 816C1452.73 817.557 1425.59 818.669 1398.6 817.186C1387.92 816.593 1377.09 815.555 1366.42 816.593C1364.49 816.741 1360.11 816.593 1358.56 817.705C1356.93 818.892 1357.59 820.449 1359.3 821.191C1361.15 822.006 1364.41 821.413 1366.34 821.413C1369.23 821.413 1372.13 821.487 1375.02 821.487C1397.41 821.71 1419.73 821.71 1442.12 821.561C1448.35 821.487 1454.66 821.487 1460.88 821.413C1462.52 821.339 1479.05 822.006 1479.27 821.116Z" fill="#DDE1E7"/>
</svg>
