<svg width="341" height="294" viewBox="0 0 341 294" fill="none" xmlns="http://www.w3.org/2000/svg">
<path d="M220.32 271.801C218.83 252.633 137.809 264.556 125.554 268.407C123.318 269.11 120.834 270.228 120.503 272.257C120.006 275.445 124.933 276.77 128.576 277.515C135.614 278.922 141.907 282.4 148.821 284.18C157.35 286.374 221.355 284.884 220.32 271.801Z" fill="#F2F4F7"/>
<path d="M184.178 124.125C178.878 123.628 166.499 125.243 161.945 127.603C162.401 135.345 164.388 142.921 166.168 150.498C175.69 191.195 181.569 225.474 178.299 266.875C183.639 268.241 189.684 270.601 189.849 265.923L190.719 262.031C191.464 253.089 192.541 237.812 193.451 228.869C196.888 195.169 198.254 161.386 199.579 127.603C194.569 126.154 189.477 124.622 184.178 124.125Z" fill="#424A5D"/>
<path d="M148.821 219.347C147.786 216.904 144.888 211.025 144.805 208.458C144.681 205.146 141.079 200.22 142.487 197.156C153.582 172.44 170.888 153.395 178.298 127.727C178.423 127.271 178.547 126.774 178.381 126.319C178.174 125.739 177.553 125.367 176.974 125.077C173.123 122.966 161.738 119.157 157.308 118.163C156.356 117.956 155.362 117.749 154.41 117.915C152.506 118.246 148.738 117.418 147.786 118.825C133.089 140.023 129.694 167.016 125.016 191.277C124.477 194.051 123.939 196.907 124.353 199.723C124.726 202.455 125.968 205.022 127.21 207.547C135.324 224.025 144.019 244.104 153.334 260.127C153.789 260.913 154.327 261.783 155.321 262.114C159.502 263.48 165.133 260.375 164.76 259.505C163.187 255.821 157.557 242.945 155.983 239.302C152.837 231.891 151.926 226.675 148.821 219.347Z" fill="#424A5D"/>
<path d="M148.531 262.031C149.359 262.155 150.187 262.321 150.974 262.155C151.802 262.031 152.589 261.534 152.672 260.872C151.926 260.582 151.181 260.292 150.436 260.003C150.187 259.92 149.939 259.796 149.815 259.63C149.442 259.133 150.229 258.553 150.891 258.305C155.114 256.732 159.585 255.655 164.14 255.076C165.009 254.952 166.085 254.993 166.458 255.614C166.665 255.904 166.624 256.276 166.541 256.649C165.961 260.706 165.423 264.805 164.843 268.862C164.678 270.022 140.624 271.926 138.471 270.932C135.656 269.649 135.904 266.627 137.56 264.639C139.961 261.741 144.681 261.493 148.531 262.031Z" fill="black"/>
<path d="M146.13 116.922C145.178 120.607 144.267 124.333 143.315 128.017C142.942 129.549 142.57 131.04 142.156 132.571C142.073 132.82 142.031 133.11 142.156 133.358C142.321 133.731 142.777 133.813 143.191 133.855C145.426 134.02 147.703 133.565 149.897 133.068C156.315 131.661 162.815 129.88 169.356 130.46C178.381 131.247 186.703 136.463 195.77 136.587C196.68 136.587 197.674 136.505 198.336 135.884C198.833 135.428 199.04 134.766 199.247 134.145C200.158 131.288 201.069 128.431 201.98 125.575C202.559 123.753 203.139 121.931 203.139 120.027C203.139 118.33 202.642 116.591 201.69 115.142C200.572 113.403 198.957 112.119 197.633 110.546C196.225 108.849 195.149 106.861 193.575 105.288C190.595 102.349 186.206 101.479 182.066 100.941C175.193 100.03 168.155 99.7819 161.241 100.941C156.853 101.645 152.382 101.893 149.939 106.033C148.034 109.346 147.082 113.154 146.13 116.922Z" fill="#424A5D"/>
<path d="M136.07 123.835C135.49 125.698 135.076 127.685 134.538 129.589C134.496 129.755 134.455 129.921 134.372 130.045C134.248 130.21 134.082 130.21 133.917 130.21C132.84 130.086 131.805 130.003 130.729 129.879C130.563 129.879 130.356 129.838 130.232 129.631C130.067 129.341 130.108 128.844 130.149 128.389C130.481 125.367 130.853 122.303 131.309 119.281C131.35 119.074 131.391 118.825 131.474 118.66C131.598 118.453 131.764 118.37 131.971 118.328C132.882 118.08 133.793 117.914 134.703 117.873C135.49 117.832 136.691 117.583 137.394 118.08C138.636 118.991 136.484 122.427 136.07 123.835Z" fill="#F2E7D6"/>
<path d="M131.971 71.2559C131.888 66.3706 131.764 61.3611 132.923 56.6001C134.082 51.839 136.649 47.2021 140.872 44.6766C141.949 44.0556 143.191 43.5174 144.391 43.8072C145.633 44.097 146.544 45.0906 147.206 46.167C150.891 51.9632 149.401 59.4981 147.869 66.2051C145.84 75.1062 146.544 83.8832 144.805 92.8258C143.066 101.851 141.7 109.262 139.133 118.08C135.449 118.619 129.528 119.405 128.824 116.797C127.624 112.408 130.108 105.536 130.191 101.727C130.522 91.5838 132.137 81.3992 131.971 71.2559Z" fill="#E8E8E8"/>
<path d="M164.057 39.6255C170.722 38.7975 185.088 38.7147 189.808 43.0204C191.34 44.428 192.582 46.0426 193.741 47.6986C196.142 51.0521 191.919 52.4183 193.327 56.1858C194.9 60.3673 195.231 64.8386 195.935 69.2271C198.212 83.0964 204.505 96.3032 205.913 110.255C206.12 112.367 206.037 114.851 204.133 116.134C203.18 116.755 201.98 116.921 200.82 117.086C183.225 119.363 170.391 114.478 152.671 113.153C151.264 113.029 149.773 112.905 148.614 112.201C146.834 111.125 146.254 109.013 146.461 107.109C146.71 105.204 147.62 103.466 148.324 101.685C149.649 98.3733 150.27 94.937 150.932 91.4593C152.133 84.918 148.366 83.676 147.827 77.0933C147.413 71.9181 145.716 67.2812 142.818 62.7685C140.168 58.5871 140.003 56.1858 142.197 51.6731C146.089 43.5586 154.203 40.8675 164.057 39.6255Z" fill="#EFEFEF"/>
<path d="M126.051 128.555C127.086 128.348 128.121 128.472 129.156 128.472C130.067 128.472 131.019 128.348 131.93 128.431C132.84 128.472 133.793 128.721 134.538 129.3C135.283 129.88 135.738 130.832 135.49 131.743C135.407 132.033 135.242 132.364 134.952 132.488C134.496 132.736 133.958 132.447 133.461 132.322C132.468 132.074 131.433 132.364 130.439 132.612C128.659 133.109 126.796 133.523 125.016 133.233C124.436 133.15 123.815 132.985 123.36 132.571C121.248 130.832 124.477 128.845 126.051 128.555Z" fill="#F2E7D6"/>
<path d="M138.719 112.781C139.506 113.03 140.375 113.361 140.872 114.023C141.121 114.355 141.245 114.769 141.328 115.183C141.535 116.425 141.162 117.749 140.541 118.867C140.168 119.53 139.713 120.151 139.009 120.482C138.512 120.689 137.933 120.73 137.353 120.689C134.041 120.606 130.729 120.027 127.624 118.867C127.168 118.702 126.754 118.536 126.423 118.205C126.092 117.874 125.926 117.377 125.802 116.921C125.305 114.893 125.305 110.173 128.286 110.297C131.723 110.422 135.49 111.746 138.719 112.781Z" fill="#E8E8E8"/>
<path d="M179.954 131.991C179.996 132.033 180.037 132.033 180.079 132.033C180.12 131.95 180.161 131.867 180.203 131.784C180.244 131.743 180.286 131.66 180.286 131.619C180.244 131.619 180.203 131.577 180.161 131.577C180.12 131.619 180.12 131.701 180.079 131.743C180.037 131.743 179.954 131.991 179.954 131.991Z" fill="#F2F2F2"/>
<path d="M179.996 131.163C179.996 131.287 180.037 131.453 180.037 131.66C180.078 131.66 180.161 131.701 180.203 131.701C180.368 131.577 180.534 131.329 180.699 131.122C180.865 130.873 180.989 130.666 181.196 130.211C180.948 130.087 180.658 129.921 180.368 129.921C180.078 129.921 180.12 130.087 180.078 130.294C180.037 130.625 179.996 130.915 179.996 131.163Z" fill="#E8E8E8"/>
<path d="M187.904 108.103C188.111 107.813 188.276 107.523 188.359 107.151V107.109L188.318 107.068C188.193 106.985 187.986 106.944 187.862 106.819C187.779 106.737 187.697 106.612 187.572 106.612C187.49 106.612 187.448 106.654 187.407 106.695C187.365 106.737 187.365 106.819 187.324 106.861C187.241 107.151 187.2 107.482 187.075 107.772C186.993 107.979 187.738 108.103 187.904 108.103Z" fill="#E8E8E8"/>
<path d="M182.728 125.242C183.308 123.379 183.888 121.475 184.467 119.612C185.668 115.761 186.868 111.911 188.193 108.102C188.276 107.895 188.152 107.688 187.945 107.605L187.407 107.357C187.241 107.274 186.951 107.398 186.91 107.605C186.165 111.373 184.509 114.975 183.474 118.659C182.439 122.344 181.445 126.029 180.244 129.713C180.162 129.796 180.162 129.879 180.162 130.003C180.12 130.127 180.162 130.21 180.244 130.252C180.327 130.376 180.451 130.459 180.576 130.5C180.617 130.5 180.7 130.5 180.741 130.5C180.865 130.5 181.031 130.459 181.114 130.334C181.983 128.927 182.232 126.857 182.728 125.242Z" fill="#3F4854"/>
<path d="M189.021 105.909C188.939 105.66 188.607 105.577 188.4 105.453C188.193 105.329 187.986 105.205 187.738 105.288C187.531 105.37 187.407 105.536 187.324 105.743C187.2 106.033 187.076 106.323 186.951 106.612C186.869 106.778 186.993 107.026 187.2 107.109C187.283 107.109 187.365 107.151 187.407 107.109C187.572 107.192 187.779 107.275 187.945 107.399C188.152 107.523 188.359 107.523 188.566 107.399C188.773 107.233 188.814 106.902 188.897 106.695C188.939 106.447 189.104 106.157 189.021 105.909Z" fill="#3F4854"/>
<path d="M188.4 108.185C188.442 108.185 188.483 108.226 188.525 108.268C188.525 108.309 188.525 108.309 188.525 108.351C188.111 109.8 187.697 111.207 187.158 112.615C187.117 112.615 187.076 112.573 187.034 112.573C187.2 112.159 187.365 111.745 187.49 111.331C187.738 110.545 187.862 109.675 188.235 108.93C187.904 108.806 187.572 108.682 187.241 108.558C187.2 108.558 187.2 108.558 187.2 108.516C187.2 108.516 187.2 108.475 187.2 108.433C187.241 108.268 187.283 107.73 187.531 107.812C187.655 107.854 187.821 107.978 187.945 108.019C188.069 108.102 188.235 108.144 188.4 108.185Z" fill="#E8E8E8"/>
<path d="M203.097 106.157C203.015 105.95 202.808 105.826 202.642 105.743C201.152 104.791 199.496 104.046 197.757 103.632C197.84 103.632 195.314 108.559 194.983 109.014C193.824 110.711 192.499 112.285 191.422 114.023C190.636 115.265 190.098 117.501 188.856 118.329C188.4 117.915 187.945 117.543 187.489 117.17C187.241 116.963 186.951 116.797 186.661 116.673C186.289 116.549 185.875 116.507 185.461 116.507C184.508 116.507 183.473 116.59 182.687 117.129C182.066 117.543 181.652 118.164 181.238 118.785C180.782 119.488 180.368 120.192 179.954 120.896C179.582 121.144 179.209 121.393 178.961 121.807C178.381 122.718 178.464 123.877 178.671 124.953C178.795 125.574 178.961 126.237 179.416 126.692C179.872 127.148 180.534 127.272 181.155 127.355C184.384 127.81 187.696 127.52 190.801 126.568C191.381 126.402 192.002 126.154 192.375 125.657C192.706 125.202 192.789 124.622 192.913 124.084C194.32 117.543 201.234 113.444 203.056 106.985C203.139 106.695 203.222 106.406 203.097 106.157Z" fill="#F2E7D6"/>
<path d="M182.935 41.5721C185.709 39.9988 189.228 39.8746 192.126 41.1995C196.266 43.1039 198.543 47.4924 200.53 51.5911C204.132 59.0018 207.569 66.4954 210.881 74.0717C211.75 76.0176 212.578 78.0048 212.744 80.1163C212.909 82.2691 212.288 84.4219 211.667 86.492C209.183 95.0206 206.741 103.591 204.256 112.119C201.358 112.285 198.419 112.036 195.562 111.415C194.403 111.167 193.037 110.67 192.706 109.511C192.457 108.683 192.788 107.855 193.12 107.068C196.059 99.9473 198.253 92.5365 199.661 85.0016C200.075 82.6417 200.448 80.2405 199.951 77.8806C199.371 74.9826 197.55 72.5399 195.769 70.2215C191.546 64.7979 187.034 59.5814 182.314 54.6133C178.133 50.1006 176.228 45.381 182.935 41.5721Z" fill="#E8E8E8"/>
<path d="M203.677 110.131C204.215 110.297 204.795 110.504 205.168 110.918C205.664 111.456 205.664 112.326 205.457 112.988C205.25 113.692 204.836 114.313 204.505 114.975C204.091 115.845 203.843 116.797 203.098 117.418C202.352 117.998 201.359 118.08 200.406 117.998C199.123 117.873 197.881 117.501 196.639 117.17C195.149 116.714 193.617 116.3 192.126 115.845C191.422 115.638 190.677 115.431 190.098 114.975C189.849 114.768 189.601 114.479 189.518 114.189C189.435 113.94 189.477 113.692 189.518 113.444C189.684 112.16 189.973 110.877 190.47 109.676C190.801 108.848 191.215 107.73 192.002 107.233C192.83 106.695 193.865 107.151 194.735 107.44C196.142 107.854 197.55 108.31 198.916 108.724C200.531 109.179 202.104 109.635 203.677 110.131Z" fill="#E8E8E8"/>
<path d="M176.725 268.242C175.483 270.85 173.91 273.375 171.881 275.611C170.598 277.019 169.149 278.426 168.776 280.165C168.735 280.331 168.735 280.538 168.776 280.703C168.942 281.076 169.439 281.283 169.936 281.366C172.213 281.904 174.573 282.194 176.932 282.194C178.257 282.194 179.623 282.111 180.824 281.655C182.728 280.91 184.012 279.337 185.006 277.764C186.827 274.866 190.636 268.366 187.241 265.385C183.557 262.197 178.299 264.93 176.725 268.242Z" fill="black"/>
<path d="M159.999 93.8199C159.917 94.2339 159.875 94.7307 160.041 95.1033C160.206 95.3931 160.496 95.6001 160.745 95.8071C162.856 97.2561 164.719 99.0364 166.375 101.024C167.659 98.3326 169.439 95.8899 171.592 93.8199C171.964 93.4473 172.378 93.0746 172.503 92.5778C172.585 92.2052 172.461 91.8326 172.378 91.5014C171.757 89.4728 170.846 87.4855 170.267 85.4569C169.604 83.0556 169.48 80.5716 168.983 78.129C168.404 75.3137 167.41 72.6226 166.706 69.8074C165.506 65.1291 165.175 60.2438 164.843 55.4413C163.643 55.4413 161.78 54.9031 161.78 56.4349C161.78 57.3871 162.152 58.3807 162.194 59.333C162.318 62.1482 162.401 65.0049 162.359 67.8201C162.318 73.4092 161.945 78.9984 161.324 84.5461C160.993 87.6512 160.538 90.7562 159.999 93.8199Z" fill="#03A678"/>
<path d="M177.305 24.8451C176.974 22.4439 176.518 20.0426 175.69 17.7656C172.875 9.77521 163.063 -1.32021 153.541 3.19247C151.347 4.2275 149.525 5.96633 147.827 7.74656C146.089 9.5682 144.433 11.4726 143.066 13.5841C140.5 17.5586 138.885 22.5267 139.009 27.2878C139.133 31.7176 140.831 36.2717 142.487 40.329C144.64 45.7111 148.076 50.5964 152.878 53.8257C164.181 61.4434 168.776 53.5773 173.165 47.2016C177.636 40.8258 178.34 32.5457 177.305 24.8451Z" fill="#F2E7D6"/>
<path d="M176.849 10.9766C176.559 10.2728 176.311 9.52754 175.773 8.94792C174.903 7.9129 173.496 7.58171 172.254 7.00209C168.9 5.47026 166.623 2.1996 163.311 0.584966C162.69 0.29516 162.028 0.0467573 161.365 0.0053565C160.62 -0.0360443 159.875 0.170955 159.13 0.336558C153.623 1.66138 147.413 1.70278 143.149 5.42885C141.824 6.58808 140.748 8.07852 139.713 9.48614C138.553 11.0594 137.353 12.6326 136.442 14.3714C133.627 19.7121 133.668 26.5433 136.732 31.7598C137.146 32.4636 137.601 33.126 137.85 33.9126C138.098 34.6992 138.098 35.6101 137.601 36.2311C137.104 36.8935 136.069 37.1005 135.448 36.5209C134.869 35.9413 135.241 34.6992 136.069 34.7406C134.662 34.6164 133.461 36.0655 133.503 37.4731C133.503 38.8807 134.496 40.1642 135.655 40.9508C138.76 43.0208 143.522 41.8616 145.343 38.6323C146.047 37.3903 146.337 35.9413 146.709 34.575C146.792 34.2438 146.916 33.9126 147.165 33.7056C147.455 33.4572 147.869 33.4572 148.241 33.4572C151.884 33.54 155.693 34.1196 159.005 32.6292C163.311 30.6834 165.505 25.0942 163.684 20.7472L164.098 20.6644C165.588 20.1676 167.41 22.486 168.528 23.5624C169.645 24.6388 170.432 26.0465 171.633 27.0815C172.171 26.5433 172.75 26.0051 173.454 25.7567C174.158 25.5083 175.069 25.6325 175.524 26.2535C175.773 26.5847 175.814 26.9987 175.814 27.4127C175.731 29.3171 173.951 30.8904 174.117 32.7948C174.2 33.6228 174.614 34.4094 175.028 35.1133C176.104 36.9349 177.139 38.7565 178.215 40.6196C178.215 39.0877 179.043 37.6801 179.623 36.2725C181.362 32.2566 181.486 27.7025 180.741 23.3968C179.996 19.1739 178.422 15.0753 176.849 10.9766Z" fill="#443B36"/>
<path d="M175.069 42.5654C172.461 46.6641 169.19 50.3074 165.423 53.371C164.802 53.8679 163.725 54.3233 163.311 53.6195C163.187 53.4125 163.146 53.2054 163.022 53.0398C162.815 52.8328 162.442 52.8742 162.152 52.957C160.993 53.2054 159.834 53.6195 158.757 54.1577C159.42 53.9921 159.834 55.1099 159.337 55.6067C158.509 56.5175 154.741 54.8201 155.611 56.7659C155.942 57.4697 157.846 58.2977 158.509 58.6289C159.544 59.1672 160.662 59.5812 161.862 59.5812C164.553 59.6226 166.872 57.7181 168.693 55.7309C171.219 52.957 173.289 49.7692 174.862 46.3329C175.4 45.1323 175.856 43.6005 175.069 42.5654Z" fill="#03A678"/>
<path d="M13.3988 291.922C17.0421 292.46 20.1057 292.378 23.4178 291.715C24.0802 290.39 24.4528 288.858 24.37 287.202C23.0866 252.716 28.1375 185.315 24.577 150.952C22.3828 148.303 17.3733 149.338 15.3032 152.07C13.2332 154.803 13.2332 158.363 13.316 161.717C13.7714 183.162 13.8128 204.649 13.73 226.095C13.6472 236.528 12.1982 281.572 13.3988 291.922Z" fill="#4C4C4C"/>
<path d="M319.103 149.006C319.103 148.178 319.144 147.226 319.848 146.646C320.469 146.149 321.38 146.149 322.167 146.149C325.148 146.191 328.087 146.274 331.068 146.315C329.205 160.06 328.501 173.971 328.915 187.799C329.37 202.248 331.068 216.738 329.702 231.145C328.749 241.371 326.141 282.772 327.88 292.915C327.921 293.205 320.221 295.234 319.02 292.501C317.406 288.817 319.103 247.706 319.103 243.69C319.103 233.091 319.103 222.534 319.103 211.935C319.103 190.987 319.103 169.996 319.103 149.006Z" fill="#4C4C4C"/>
<path d="M331.647 136.669C326.969 136.504 308.711 136.421 303.37 136.421H42.2966C33.1057 136.545 20.9338 136.545 11.6186 136.586C5.94671 136.586 7.51994 136.669 6.31932 138.739C5.2015 140.685 5.3257 142.672 5.16009 144.66C4.99449 146.605 5.03589 148.593 5.32569 150.539C5.4499 151.491 5.6569 152.443 5.86391 153.354C6.02951 154.016 4.62188 154.803 5.94671 155.424C5.6569 155.755 5.94671 156.086 9.63138 156.252C12.9435 156.417 18.4084 156.459 24.3287 156.459C24.5771 156.459 24.8255 156.459 25.1153 156.459C25.2395 156.459 25.3637 156.459 25.4879 156.459C33.5611 156.459 42.2552 156.376 47.4303 156.376C58.0704 156.376 68.669 156.376 79.309 156.376C128.286 156.376 254.269 156.376 303.288 156.376C308.545 156.376 326.596 156.376 331.357 156.086C332.641 156.003 333.676 155.921 334.255 155.796C337.029 155.217 335.29 154.265 335.539 153.644H335.29H335.042C335.249 152.733 334.628 151.739 334.794 150.994C335.042 149.669 335.166 148.386 335.166 147.061C335.125 145.488 334.918 143.956 334.504 142.383C334.131 140.975 335.704 138.946 336.325 137.456C336.574 136.835 336.574 136.835 331.647 136.669Z" fill="#3F3E3E"/>
<path d="M339.596 134.723C284.326 133.978 141.079 134.888 85.8504 134.557C56.1246 134.392 32.1121 134.888 2.38628 135.054C-1.09139 135.178 0.0678373 137.331 0.730251 138.449C86.0988 138.408 254.807 138.449 340.052 138.035C341.211 137 340.962 135.882 339.596 134.723Z" fill="#CECECE"/>
<path d="M206.327 132.281C191.05 132.405 175.732 132.53 160.455 132.571C146.875 132.612 133.296 132.654 119.716 132.654C112.885 132.654 106.054 132.654 99.2229 132.612C99.2643 133.399 99.1815 134.186 99.0159 134.972C103.57 135.386 110.484 135.055 114.293 135.138C121.041 135.221 127.789 135.262 134.538 135.303C147.91 135.345 161.241 135.262 174.614 135.014C185.626 134.848 196.639 134.558 207.652 134.807C207.155 133.979 206.741 133.109 206.327 132.281Z" fill="#E8E8E8"/>
<path d="M79.0193 110.96C79.3091 106.571 79.6403 102.183 80.0129 97.7945C80.1371 97.7945 80.2199 97.8359 80.3441 97.8359C80.1371 98.9951 80.2199 100.196 80.1371 101.355C80.0957 101.976 80.0129 102.597 79.9301 103.218C79.9715 103.218 80.0543 103.218 80.0957 103.218C80.3441 101.107 80.4683 99.0365 80.5511 96.9251C80.5511 96.8837 80.5511 96.8423 80.5511 96.8009C80.5097 96.7595 80.4269 96.7595 80.3855 96.7595C80.3027 96.7595 80.2199 96.7595 80.1371 96.7595C80.1371 96.5525 80.0543 96.3869 79.8887 96.2627C79.9301 96.1385 79.9715 95.9729 79.9715 95.8487C80.0957 95.8073 80.2613 95.7658 80.3441 95.6002C80.5511 95.3104 80.5097 94.855 80.5511 94.5238C80.5925 94.1926 80.7167 93.7372 80.5097 93.406C80.3027 93.0748 79.8059 93.0748 79.4747 92.992C79.1434 92.9092 78.8122 92.785 78.5224 92.9506C78.2326 93.1162 78.1498 93.406 78.067 93.7372C77.9842 94.1926 77.9014 94.648 77.86 95.062C77.8186 95.3518 78.067 95.6417 78.3568 95.6417C78.3982 95.6417 78.481 95.6417 78.5224 95.6417C78.5224 95.7659 78.5224 95.9315 78.5224 96.0557C78.3568 96.1385 78.2326 96.3455 78.2326 96.5111C78.3568 99.3677 78.1084 102.224 77.8186 105.122C77.8186 101.976 77.7358 98.8295 77.5702 95.6831C77.4874 94.2754 77.4046 92.9092 77.1562 91.543C75.0862 91.8328 72.9747 91.9156 70.8633 91.8742C71.1945 94.5238 70.9461 97.1321 70.9875 99.7817C70.9875 103.591 70.9875 106.613 70.9875 110.38C70.6563 110.38 70.3665 110.38 70.0353 110.38C69.7455 107.11 69.2073 103.839 69.4557 100.568C69.4557 100.486 69.4143 100.403 69.3315 100.32C69.2901 99.9473 69.2901 99.6161 69.3315 99.2435C69.3315 99.1607 69.3315 99.0779 69.2901 98.9537C69.2487 98.8295 69.1659 98.7881 69.0831 98.7881C68.8761 98.7467 68.462 98.7467 68.255 98.8709C67.9652 98.9951 67.9238 98.9951 67.634 99.0779C67.5926 99.0779 67.5512 99.2435 67.5098 99.2849C67.5098 99.2849 67.5098 99.3263 67.5098 99.3677C67.5098 99.7817 67.5926 100.154 67.7582 100.527C67.6754 100.61 67.634 100.693 67.634 100.817C67.9238 104.005 68.1308 107.234 68.3792 110.463C67.5098 110.463 66.6404 110.505 65.771 110.546C66.185 118.578 66.7646 126.609 67.5512 134.6C71.1531 134.517 74.7964 134.476 78.3982 134.393C78.6052 134.393 78.8123 134.393 78.9779 134.186C79.1435 133.979 79.2263 133.648 79.2677 133.358C80.4269 126.071 81.5861 118.785 82.7453 111.498C81.4205 111.291 80.2199 111.126 79.0193 110.96ZM73.8028 93.2818C73.8856 93.199 73.9683 93.1162 74.0926 93.1162C74.3824 93.0334 74.7136 93.1576 74.8792 93.4474C75.0034 93.6958 74.962 94.1098 74.8378 94.3582C74.548 95.0206 73.6786 94.855 73.4301 94.234C73.3059 93.8614 73.5129 93.4888 73.8028 93.2818Z" fill="#F2F4F7"/>
<path d="M62.7072 100.445C61.7136 99.2025 59.7678 99.0369 58.443 99.6993C57.1595 100.32 56.2901 101.521 55.5035 102.68C55.5035 101.19 55.4621 99.6993 55.2551 98.2089C55.0895 96.8427 54.7997 95.4764 54.1373 94.3172C53.4749 93.1166 52.357 92.1229 50.9908 91.8745C48.7138 91.4605 46.5195 93.2822 45.6915 95.435C44.9049 97.5879 45.1119 99.9891 45.4017 102.308C45.8157 106.075 46.2297 109.801 46.6437 113.569C46.6851 114.107 46.5195 115.39 46.8507 115.804C46.8921 115.846 46.9335 115.887 46.9749 115.928C46.1883 115.928 45.4017 115.928 44.6151 115.928C43.5801 115.928 40.6406 115.804 40.5578 116.384C40.3508 117.46 40.7648 119.53 40.8476 120.524C41.0546 122.097 41.2202 123.67 41.4272 125.244C41.7998 128.266 42.1724 131.288 42.5036 134.352C42.545 134.683 42.5864 134.973 42.7106 135.221C42.9591 135.594 43.3731 135.594 43.7457 135.594C48.8794 135.387 53.9717 135.884 59.064 135.677C59.8506 129.342 60.4302 122.263 60.513 115.887C58.3602 115.887 56.1659 115.887 54.0131 115.887C54.1787 115.639 54.2615 115.307 54.2615 115.018C54.3443 114.355 54.4271 113.734 54.5099 113.072C54.5513 113.03 54.6341 112.989 54.6755 112.948C57.3251 110.629 60.2646 108.393 62.2518 105.413C62.7487 104.709 63.1627 103.922 63.2869 103.053C63.4525 102.183 63.2869 101.19 62.7072 100.445Z" fill="#F2F4F7"/>
<path d="M310.698 131.122C311.154 132.033 311.402 134.351 311.195 135.303C283.622 136.463 255.925 135.593 228.311 135.262C226.075 129.01 233.776 130.832 239.861 131.122C247.852 131.536 255.842 131.784 263.833 131.908C268.055 132.033 310.367 130.459 310.698 131.122Z" fill="#03A678"/>
<path d="M309.912 86.7817C309.87 86.7403 309.87 86.6989 309.829 86.6575C309.829 86.6575 309.829 86.6161 309.787 86.6161C309.663 86.5333 309.498 86.4091 309.415 86.3677C309.125 86.2021 308.794 86.0779 308.504 85.9123C308.421 85.8709 308.297 85.8295 308.214 85.7881C289.335 87.3199 271.368 87.5269 251.951 87.9409C251.868 87.9823 251.826 88.0237 251.744 88.0237C251.537 88.3549 251.288 88.6033 250.998 88.8517C250.957 88.8931 250.874 88.9759 250.791 89.0587C250.75 89.2657 250.75 89.4313 250.708 89.5969C251.288 94.0682 251.619 106.116 251.744 107.731C252.24 114.479 251.951 121.476 252.779 128.141C253.193 131.412 253.855 133.689 257.25 133.813C260.603 133.937 264.122 133.482 267.476 133.316C281.221 132.571 296.581 134.02 310.326 132.695C312.189 119.074 310.905 101.148 310.036 87.1543C309.953 87.0301 309.912 86.9059 309.912 86.7817Z" fill="#03A678"/>
<path d="M286.645 113.402C284.657 110.214 283.871 106.405 281.345 103.507C281.014 103.135 280.352 103.259 280.145 103.673C278.53 106.778 277.081 109.966 275.798 113.236C274.845 113.526 274.969 115.182 276.129 115.182C279.399 115.182 282.629 115.058 285.858 114.768C286.479 114.727 287.017 114.064 286.645 113.402ZM276.957 113.236C278.24 110.628 279.565 108.061 280.931 105.494C282.504 107.771 283.208 110.545 284.409 113.029C281.925 113.195 279.441 113.278 276.957 113.236Z" fill="white"/>
</svg>
