<svg width="1663" height="939" viewBox="0 0 1663 939" fill="none" xmlns="http://www.w3.org/2000/svg">
<rect x="-4" width="1667" height="939" fill="white"/>
<path d="M1320.5 694.69C1319.27 696.281 1318.74 698.755 1318.74 700.876C1318.74 703.704 1319.27 706.532 1320.15 709.183C1320.5 710.243 1321.03 711.304 1321.92 711.657C1322.09 711.657 1322.27 711.834 1322.45 711.834H1322.62C1323.33 715.192 1324.21 718.196 1325.81 720.14C1329.34 724.559 1333.58 729.684 1339.06 729.684C1341 729.684 1343.3 728.8 1345.07 728.27C1351.43 726.326 1354.97 718.903 1355.67 711.127C1355.67 711.127 1355.67 711.304 1355.67 711.48C1355.85 711.834 1356.2 712.364 1356.56 712.187C1356.73 712.187 1356.91 712.011 1356.91 711.834C1358.33 709.183 1358.5 706.001 1358.68 702.82C1358.68 700.876 1358.68 698.755 1358.15 696.811C1357.79 695.397 1356.91 692.57 1355.32 691.863C1355.5 691.509 1355.5 690.979 1355.5 690.625C1355.5 689.035 1353.91 687.621 1352.85 686.737C1350.2 684.44 1346.66 683.202 1343.13 683.379C1338.88 683.556 1334.64 685.147 1331.11 687.798C1330.22 688.505 1329.16 689.211 1328.1 689.565C1327.4 689.742 1326.69 689.565 1326.51 689.035C1326.51 688.681 1326.51 688.505 1326.69 688.151C1327.04 686.737 1326.69 685.147 1325.63 684.086C1325.28 683.556 1324.75 683.202 1324.04 682.849C1322.62 682.142 1320.86 682.849 1319.44 683.556C1318.38 684.086 1317.32 684.97 1316.97 686.03C1316.62 686.737 1316.62 687.444 1316.62 688.151C1316.62 689.388 1316.97 690.625 1317.5 691.863C1318.38 692.746 1319.44 693.807 1320.5 694.69Z" fill="#F2F4F7"/>
<path d="M1459.77 812.75C1456.24 795.43 1452.7 778.11 1448.99 760.79C1449.52 760.436 1449.87 760.083 1450.23 759.552C1450.76 758.669 1450.76 757.432 1450.58 756.371C1450.23 753.19 1448.64 750.362 1447.05 747.711C1447.75 745.237 1448.46 742.586 1448.99 739.935C1448.99 739.404 1449.17 738.874 1449.34 738.167C1449.7 738.167 1449.87 738.167 1450.05 738.167C1453.41 737.991 1456.59 734.279 1452.53 732.335C1452.35 732.335 1452.35 732.335 1452.17 732.335C1453.41 731.275 1453.41 728.977 1453.59 726.856V726.679C1453.76 726.679 1453.76 726.503 1453.76 726.326C1453.94 716.429 1452.53 706.531 1449.87 696.811C1451.64 695.927 1453.06 694.513 1454.12 692.923C1456.77 689.034 1456.94 683.732 1455 679.314C1454.12 677.547 1452.88 675.779 1452 674.012C1448.46 667.473 1447.93 659.696 1446.34 652.45C1445.99 651.036 1445.63 649.445 1444.75 648.208C1443.34 646.087 1440.86 645.027 1438.56 644.32C1435.74 643.26 1432.73 642.376 1429.73 641.846C1426.37 641.316 1423.01 641.492 1419.65 642.199C1415.76 643.083 1411.7 645.027 1409.23 648.208C1407.63 650.152 1406.75 652.627 1405.87 655.101C1402.69 665.529 1403.39 676.84 1407.63 686.914C1405.87 687.621 1404.28 689.034 1403.39 690.625C1402.16 693.276 1401.45 696.457 1400.74 699.285C1400.03 702.113 1399.33 704.764 1398.62 707.592C1398.09 709.536 1397.56 711.657 1397.03 713.601C1396.32 711.303 1395.62 709.006 1394.91 706.708C1393.14 701.936 1391.73 696.988 1390.14 692.216C1390.31 691.332 1389.78 690.448 1389.43 689.741C1388.72 688.504 1388.19 687.267 1388.02 685.677C1387.84 684.97 1387.84 684.263 1387.49 683.732C1387.13 683.202 1386.43 682.672 1385.72 682.849C1385.54 682.849 1385.37 683.025 1385.37 683.025C1385.19 683.025 1385.01 683.025 1384.84 682.849C1383.95 682.319 1383.42 681.612 1382.71 680.905C1382.01 680.198 1381.12 679.491 1380.06 679.667C1378.47 679.844 1377.41 681.435 1377.41 683.025C1377.41 684.616 1378.3 685.853 1379.18 687.09C1380.24 688.504 1381.12 690.095 1382.18 691.509C1382.89 692.569 1383.78 693.806 1385.01 694.337C1385.54 694.513 1386.07 694.513 1386.6 694.513C1386.96 695.927 1387.31 697.164 1387.66 698.578C1388.37 701.229 1388.9 703.88 1389.61 706.708C1390.67 711.303 1391.91 716.075 1393.14 720.67C1392.61 720.847 1392.08 721.201 1391.73 721.554C1391.02 722.438 1391.55 723.321 1391.73 724.205C1392.08 725.972 1392.97 726.679 1394.38 726.503C1394.38 727.917 1395.26 729.507 1395.79 730.744C1396.32 731.805 1396.68 733.042 1397.74 733.572C1399.5 734.456 1402.69 732.865 1403.57 731.098C1404.63 728.977 1403.39 726.679 1402.51 724.559C1402.69 724.205 1402.86 723.675 1403.04 723.498C1405.69 719.08 1405.51 715.015 1407.28 710.42C1408.34 713.778 1409.93 716.782 1411.7 719.787C1412.05 720.494 1412.58 721.201 1412.58 722.084C1412.58 722.791 1412.23 723.321 1411.88 723.852C1405.69 734.279 1400.74 745.59 1397.38 757.255C1397.38 757.078 1401.45 757.078 1405.51 757.432C1403.75 760.436 1403.75 766.268 1403.04 769.626C1401.98 775.282 1401.1 780.938 1400.21 786.593C1400.03 786.593 1399.68 786.593 1399.5 786.593L1399.33 786.416C1397.91 785.356 1396.32 786.063 1394.73 786.063C1393.5 786.063 1392.26 786.063 1390.84 786.063C1391.55 781.468 1391.91 777.049 1392.61 772.454C1393.5 766.975 1394.2 761.673 1395.09 756.194C1395.79 751.599 1395.97 746.827 1395.97 742.232C1395.97 741.702 1395.97 740.995 1395.44 740.465C1394.91 739.935 1394.2 739.935 1393.67 739.935C1391.37 739.758 1389.61 739.581 1387.13 739.581C1386.43 739.581 1385.72 739.581 1385.01 739.758C1384.84 738.874 1384.48 737.991 1383.78 737.284C1383.07 736.753 1382.01 736.577 1381.12 736.577C1374.76 736.046 1369.11 735.516 1363.8 735.163C1363.63 734.633 1363.63 733.926 1363.27 733.395C1362.57 731.805 1360.98 730.568 1359.39 730.921C1359.03 730.921 1358.68 731.098 1358.33 731.275C1358.15 730.568 1357.97 729.684 1357.79 728.977C1357.62 728.447 1357.62 727.917 1357.26 727.74C1356.91 727.386 1356.38 727.386 1355.85 727.386C1351.96 727.386 1348.6 729.33 1345.07 730.744C1341.54 732.158 1339.06 731.275 1335.53 731.451C1333.58 731.628 1332.7 732.335 1331.99 733.749C1331.64 733.572 1331.28 733.219 1330.93 733.219C1328.63 732.512 1326.16 733.395 1324.39 734.809C1324.04 734.986 1323.86 735.339 1323.51 735.516C1322.45 735.516 1321.56 735.693 1320.5 735.693C1320.33 735.516 1320.15 735.34 1319.97 734.986C1314.67 728.8 1313.79 720.14 1310.25 713.071C1306.89 706.178 1301.06 700.699 1296.82 694.337C1295.23 691.862 1293.99 689.211 1292.05 687.09C1289.57 684.263 1284.8 681.612 1281.09 683.202C1280.74 682.849 1280.38 682.495 1279.85 682.318C1278.62 681.612 1277.2 681.612 1275.79 681.612C1275.61 681.612 1275.26 681.612 1275.08 681.612C1275.79 681.435 1276.32 681.081 1276.67 680.551C1277.03 680.198 1277.03 679.667 1277.2 679.314C1277.91 677.193 1279.5 675.249 1280.38 673.128C1281.09 671.361 1281.44 669.593 1281.27 667.826C1283.21 664.291 1285.16 660.933 1287.1 657.399C1288.34 655.101 1289.57 652.803 1289.93 650.329C1290.63 645.381 1287.81 640.255 1283.74 637.251C1279.68 634.246 1274.73 632.655 1269.78 631.418C1267.13 630.711 1264.3 630.181 1261.65 630.181C1258.82 630.181 1252.64 633.716 1250.34 635.307C1247.69 637.074 1246.1 639.902 1245.04 642.906C1243.8 646.618 1244.51 649.799 1246.1 652.803C1245.92 653.334 1245.74 654.041 1245.57 654.571C1245.21 657.752 1248.22 662.171 1249.1 665.352C1249.46 666.412 1250.16 668.886 1251.58 669.063C1251.93 669.063 1252.11 669.063 1252.28 668.887C1254.05 672.598 1258.29 674.896 1259.35 678.784C1259.71 680.021 1259.88 681.612 1261.12 682.318C1261.65 682.672 1262.18 682.672 1262.71 682.672C1258.29 683.379 1253.87 684.616 1250.16 686.383C1249.46 686.737 1248.75 687.09 1248.22 687.621C1243.98 685.5 1240.97 689.741 1239.2 693.806C1228.6 693.63 1218 693.276 1207.39 693.983C1206.69 693.983 1205.98 694.16 1205.09 694.16C1205.27 693.453 1205.8 692.746 1206.51 692.392C1207.22 692.039 1208.1 691.862 1208.98 691.686C1209.51 691.686 1209.87 691.509 1210.22 691.332C1210.57 691.155 1210.75 690.625 1210.4 690.272C1210.22 690.095 1209.87 690.095 1209.51 690.095C1206.51 690.448 1203.68 690.979 1200.85 691.862C1200.5 692.039 1199.97 692.039 1199.62 692.039C1199.26 692.039 1198.91 691.509 1199.09 691.155C1199.97 691.155 1200.68 690.448 1200.5 689.741C1199.44 689.741 1198.38 689.918 1197.49 690.095C1195.55 690.802 1194.84 692.216 1195.2 693.63C1194.67 693.453 1194.14 693.453 1193.61 693.63C1192.72 694.337 1191.84 694.867 1190.96 695.574C1187.42 695.927 1182.47 696.457 1180.7 698.402C1179.82 699.285 1179.64 701.053 1179.64 702.82C1175.4 705.294 1170.81 707.592 1165.86 710.066C1164.62 710.596 1162.68 711.657 1160.91 712.717C1155.61 703.173 1150.31 693.453 1144.83 683.909C1144.12 682.672 1143.41 681.258 1142.18 680.374C1141.82 680.198 1141.47 680.021 1141.12 679.844C1140.23 678.96 1139.17 678.254 1137.76 677.9C1136.34 677.547 1134.75 677.723 1133.16 677.9C1124.5 678.96 1114.08 680.374 1106.3 683.909C1103.82 684.97 1102.59 686.737 1101.88 688.681C1100.64 690.095 1099.76 691.862 1099.05 693.453C1095.69 700.876 1092.69 708.299 1090.22 716.075C1089.16 719.433 1086.68 724.559 1087.03 728.093C1087.03 728.624 1087.21 728.977 1087.56 729.33C1087.56 729.507 1087.56 729.684 1087.74 730.037C1087.92 730.568 1088.45 731.098 1088.98 731.628C1090.39 732.865 1092.16 734.279 1094.1 734.809C1092.87 741.349 1091.98 747.888 1091.81 753.72C1091.63 761.85 1091.45 769.98 1093.04 777.933C1093.22 778.817 1093.57 780.054 1094.46 780.584C1095.16 780.938 1095.87 780.938 1096.58 780.938C1096.58 781.468 1096.58 781.821 1096.58 782.351C1097.11 800.732 1097.99 819.113 1099.23 837.493C1100.29 854.283 1103.29 871.073 1104.88 888.04C1105.59 894.579 1105.95 894.933 1106.48 903.593C1106.48 904.653 1107.54 905.007 1108.07 905.537C1108.07 905.537 1108.24 905.537 1108.24 905.36C1109.13 908.188 1110.89 911.016 1111.95 912.606C1113.19 914.551 1114.61 916.318 1116.9 917.202C1118.32 917.732 1119.91 917.909 1121.5 917.909C1124.33 917.909 1126.98 917.555 1129.8 916.848C1130.33 916.671 1131.04 916.495 1131.22 915.964C1131.22 915.788 1131.22 915.611 1131.22 915.257C1130.86 913.137 1129.1 911.546 1127.51 909.779C1125.21 907.128 1123.27 904.123 1121.85 900.942C1121.32 899.881 1120.44 898.821 1119.38 897.937C1121.67 866.301 1120.79 840.498 1128.04 808.862C1128.39 807.095 1128.74 805.504 1129.27 803.737C1130.16 806.211 1131.04 808.509 1131.75 810.983C1137.76 827.95 1140.59 844.739 1146.42 861.706C1148.54 867.715 1151.01 873.548 1152.78 879.733C1155.08 887.863 1154.9 894.579 1157.55 902.356C1157.02 902.532 1156.67 902.532 1156.14 902.709C1156.85 905.183 1157.55 907.658 1158.26 910.132C1158.44 910.662 1158.61 911.193 1158.97 911.546C1159.5 911.899 1160.03 911.899 1160.73 911.899C1165.33 912.076 1169.75 911.899 1174.34 911.899C1174.34 917.378 1174.34 922.504 1174.7 925.685C1177.88 926.215 1180.7 926.215 1183.71 925.508C1184.24 924.271 1184.59 922.68 1184.59 921.09C1184.42 917.908 1184.42 914.727 1184.42 911.369C1186.54 911.192 1188.48 911.193 1190.6 911.016C1190.6 908.718 1190.6 906.244 1188.66 904.653C1187.6 903.77 1186.01 903.416 1184.42 903.239C1184.77 873.901 1187.07 838.907 1185.12 811.513C1189.72 811.513 1193.96 811.513 1196.96 811.513C1207.39 811.513 1217.82 811.513 1228.25 811.513C1233.37 811.513 1238.85 811.513 1244.68 811.513C1242.21 847.214 1239.2 891.575 1239.2 903.416C1238.85 903.416 1238.67 903.416 1238.32 903.416C1234.43 905.36 1230.01 906.951 1225.6 908.011C1224.36 908.365 1222.94 908.718 1221.88 909.425C1220.82 910.132 1220.47 911.369 1221.18 912.253C1221.88 912.96 1223.3 913.137 1224.36 913.137C1233.55 913.667 1242.74 913.49 1251.75 912.783C1252.28 912.783 1252.81 912.606 1253.34 912.43C1253.7 912.253 1253.87 911.899 1254.05 911.546C1255.11 909.072 1254.76 906.244 1253.17 903.77C1252.81 903.77 1252.46 903.77 1252.11 903.77C1252.99 895.993 1258.82 843.679 1264.65 811.69C1269.07 811.69 1273.49 811.69 1277.91 811.69C1278.09 814.341 1278.26 817.169 1278.44 819.996C1277.91 820.35 1277.56 820.527 1277.03 820.88C1274.55 822.824 1273.14 826.182 1271.72 829.187C1271.02 830.954 1270.31 832.545 1269.78 834.489C1269.43 836.256 1269.43 838.024 1269.43 839.791C1269.43 846.507 1269.78 853.223 1270.49 859.762C1271.55 871.604 1273.85 883.268 1275.44 895.109C1275.79 897.23 1275.61 900.235 1276.32 902.709C1276.14 902.709 1276.14 902.886 1275.97 902.886C1275.79 903.063 1275.97 903.416 1275.97 903.593C1276.5 905.36 1276.67 907.481 1275.61 908.895C1274.91 909.955 1273.67 910.662 1272.43 911.016C1270.66 911.723 1265.89 912.606 1264.3 913.667C1262.71 914.727 1261.47 916.495 1262 918.439L1262.53 920.56C1270.66 920.206 1280.74 917.909 1288.34 915.081C1289.57 914.551 1291.17 913.844 1291.17 912.43C1291.17 912.076 1291.17 911.723 1290.99 911.369C1295.94 911.546 1301.24 911.546 1304.77 911.546C1304.77 911.723 1304.77 911.899 1304.6 912.076C1304.07 913.313 1303.01 914.197 1301.95 914.904C1299.65 916.318 1297.17 917.202 1294.7 918.262C1293.82 918.792 1292.76 919.322 1292.05 920.029C1290.99 921.266 1290.81 923.034 1290.81 924.624C1290.81 925.331 1290.81 926.038 1291.34 926.569C1291.87 926.922 1292.58 926.922 1293.29 926.922C1301.42 926.038 1309.37 924.448 1317.15 922.15C1318.21 922.504 1319.27 922.857 1320.33 922.857C1321.21 922.857 1322.27 922.857 1323.15 922.327C1325.98 920.913 1327.75 914.55 1325.28 912.076C1324.75 911.723 1324.21 911.369 1323.33 911.192C1323.51 907.128 1324.21 903.063 1327.04 900.412C1330.4 897.23 1335.35 897.054 1339.94 897.23C1340.83 897.23 1341.89 897.23 1342.77 897.23C1342.77 897.584 1342.95 897.761 1342.95 898.114C1343.3 901.472 1343.48 904.83 1343.83 908.188C1343.83 908.718 1344.01 909.248 1344.19 909.779C1344.01 909.779 1343.83 909.779 1343.66 909.955C1342.6 910.486 1341.89 911.369 1341.71 912.43C1341 914.727 1342.07 917.202 1343.83 918.615C1345.6 920.029 1348.25 920.206 1350.37 919.499C1351.96 918.969 1353.55 917.732 1354.08 916.141C1354.79 914.02 1353.38 911.369 1351.08 910.662C1351.08 910.662 1351.08 910.662 1350.9 910.662C1351.08 910.309 1351.08 910.132 1351.08 909.779C1351.26 905.714 1351.26 901.472 1350.37 897.584C1351.08 897.584 1351.96 897.584 1352.67 897.584C1356.03 897.584 1359.56 897.761 1362.57 899.174C1366.63 901.119 1369.11 905.36 1370.87 909.602C1368.05 911.192 1366.45 914.904 1368.05 917.732C1368.93 919.322 1370.7 920.383 1372.64 920.913C1374.76 921.443 1377.24 921.266 1379.18 920.206C1385.72 916.671 1382.36 911.016 1377.41 909.425C1375.47 902.886 1372.46 896.347 1366.63 893.165C1362.04 890.691 1356.73 890.691 1351.43 891.398C1351.61 890.691 1351.79 889.807 1351.79 889.1C1352.85 872.841 1354.08 855.167 1352.14 838.907C1353.02 838.907 1354.08 838.73 1354.97 838.73C1354.97 839.614 1354.97 840.321 1355.14 841.205C1355.85 841.735 1357.09 841.205 1357.62 840.498C1357.97 839.968 1358.15 839.261 1358.15 838.554C1358.5 838.554 1359.03 838.554 1359.39 838.377C1365.04 838.2 1371.23 838.024 1378.3 837.67C1380.06 837.67 1382.18 837.493 1383.6 836.256C1385.01 835.019 1385.72 833.252 1386.07 831.484C1388.37 823.178 1384.48 819.643 1385.54 812.22C1389.78 812.22 1394.03 812.22 1398.09 812.22C1397.91 814.164 1397.74 816.108 1397.56 818.052C1397.38 819.996 1397.38 822.294 1398.97 823.354C1399.86 823.885 1400.92 824.061 1401.8 824.238C1402.51 824.238 1403.22 824.415 1403.92 824.415C1402.86 858.878 1401.98 898.291 1401.8 908.895C1401.63 908.895 1401.27 909.072 1401.1 909.248C1400.74 909.602 1400.57 909.955 1400.39 910.309C1400.03 911.369 1399.5 912.43 1399.15 913.313C1398.8 914.374 1398.27 915.434 1397.56 916.318C1396.68 917.378 1395.62 918.262 1394.38 918.792C1393.5 919.322 1392.79 919.676 1391.91 920.029C1391.2 920.383 1390.31 920.56 1389.78 921.09C1388.55 922.504 1391.02 923.034 1391.91 923.034C1395.09 923.034 1398.09 922.504 1401.1 921.797C1401.45 921.797 1401.63 921.62 1401.98 921.443C1402.33 921.09 1402.51 920.736 1402.69 920.206C1403.04 919.322 1403.57 918.439 1404.45 917.732C1404.63 917.555 1404.63 917.555 1404.81 917.555C1404.81 917.555 1404.98 917.555 1404.98 917.732C1404.98 921.797 1405.16 925.155 1405.69 926.392C1406.75 929.043 1413.64 929.573 1413.64 929.22C1412.05 919.322 1414.35 895.109 1415.23 885.035C1416.47 870.897 1414.88 856.758 1414.53 842.795C1414.53 841.735 1414.53 840.851 1414.53 839.791C1415.23 834.842 1415.94 829.894 1416.65 825.298C1420.89 825.652 1425.31 826.005 1429.55 826.005C1430.96 857.465 1432.2 899.881 1431.49 908.541C1430.61 909.602 1430.61 911.016 1430.43 912.253C1429.9 914.02 1428.49 915.788 1426.55 916.848C1424.6 917.909 1422.48 918.262 1420.54 919.322C1419.48 919.853 1418.24 921.267 1418.42 922.327C1418.77 923.564 1420.89 923.387 1422.13 923.211C1424.07 923.034 1426.19 922.68 1428.14 922.504C1429.37 922.327 1430.61 922.15 1431.32 921.443C1431.67 920.913 1431.85 920.383 1432.38 920.029C1432.73 919.499 1433.61 919.322 1434.15 919.676C1434.5 919.853 1434.5 920.206 1434.5 920.56C1434.68 921.267 1434.68 921.797 1434.85 922.504C1435.38 922.327 1436.27 922.504 1436.62 922.15C1436.8 921.973 1436.97 921.62 1436.97 921.267C1437.15 917.202 1436.97 913.137 1436.09 909.072C1436.09 908.895 1436.09 908.895 1435.91 908.718C1436.8 901.649 1441.39 861.883 1444.93 825.475C1447.75 825.122 1450.76 824.768 1453.59 824.061C1456.24 823.531 1459.06 822.471 1460.48 820.173C1460.66 817.699 1460.13 815.048 1459.77 812.75ZM1154.72 808.685C1154.72 807.978 1154.55 807.448 1154.55 806.741C1154.72 807.271 1154.72 807.802 1154.9 808.332C1154.72 808.509 1154.72 808.508 1154.72 808.685ZM1154.02 804.09C1153.66 801.262 1153.31 798.434 1152.96 795.607C1153.49 795.607 1154.02 795.607 1154.55 795.607C1154.19 797.021 1154.19 798.435 1154.02 799.672C1153.84 801.262 1153.84 802.676 1154.02 804.09ZM1304.6 772.984C1304.77 776.342 1304.95 779.7 1305.13 783.058C1303.89 783.058 1302.65 783.058 1301.42 783.058C1301.59 779.877 1301.77 777.049 1301.77 774.398C1302.65 774.045 1303.54 773.515 1304.6 772.984ZM1246.63 766.975C1246.45 770.333 1245.92 775.812 1245.57 782.882C1245.21 782.882 1244.86 782.882 1244.33 782.882C1242.74 783.058 1241.15 783.058 1239.56 782.882C1237.08 782.705 1234.43 781.998 1233.37 779.7C1233.02 778.817 1233.02 777.933 1233.02 777.049C1232.84 773.691 1232.67 770.51 1232.67 767.152C1237.08 767.329 1241.86 767.152 1246.63 766.975ZM1245.21 786.24C1245.21 786.416 1245.21 786.593 1245.21 786.593C1241.68 786.593 1238.14 786.593 1234.79 786.416C1238.14 786.416 1241.68 786.24 1245.21 786.24ZM1445.1 722.968C1444.04 725.265 1443.69 728.093 1443.16 730.568C1442.81 730.568 1442.63 730.568 1442.28 730.568C1440.51 730.921 1439.8 732.688 1439.62 734.456C1439.45 735.87 1440.68 736.753 1442.28 737.284C1442.28 737.46 1442.28 737.814 1442.28 737.991C1442.28 738.521 1442.1 739.051 1442.1 739.581C1440.33 736.753 1438.56 733.749 1436.97 730.744C1436.62 730.037 1436.27 729.33 1436.27 728.624C1436.09 727.74 1436.44 727.033 1436.62 726.149C1438.74 719.256 1440.68 712.187 1442.81 705.294C1443.87 708.476 1444.75 711.48 1445.28 714.838C1445.63 716.782 1445.81 719.08 1446.34 721.201C1445.63 721.907 1445.28 722.438 1445.1 722.968ZM1432.2 684.439C1433.61 684.616 1434.85 684.616 1436.27 684.97C1435.21 685.146 1434.5 686.207 1433.97 687.444C1432.02 686.914 1429.9 686.56 1427.78 686.56C1429.37 686.03 1430.96 685.323 1432.2 684.439ZM1439.45 686.737C1438.74 686.03 1438.21 685.323 1437.86 685.146C1437.86 685.146 1437.68 685.146 1437.68 684.97C1438.03 684.97 1438.39 685.146 1438.74 685.146C1439.27 685.323 1439.8 685.323 1440.15 685.323V685.5C1439.98 686.03 1439.8 686.383 1439.45 686.737ZM1417.18 685.5C1418.24 685.323 1419.3 685.146 1420.36 684.97C1421.77 685.853 1423.36 686.383 1425.13 686.56C1423.19 686.737 1421.42 687.09 1419.65 687.797C1419.65 687.621 1419.48 687.444 1419.48 687.09C1417.71 687.267 1416.12 687.621 1414.35 687.974C1414.17 687.797 1414.17 687.444 1414 687.267C1414.7 686.383 1416.12 685.853 1417.18 685.5ZM1303.18 722.614C1306.72 726.856 1308.84 731.982 1311.67 736.753C1309.19 736.93 1306.54 737.284 1305.13 739.228C1303.89 740.818 1303.89 742.939 1303.89 744.883C1303.89 750.539 1304.07 756.018 1304.24 761.673C1303.54 762.557 1302.65 763.441 1301.77 764.324C1301.77 764.324 1301.77 764.324 1301.77 764.148C1301.77 764.148 1301.95 759.906 1297.88 756.371C1298.76 755.664 1299.3 754.781 1299.47 753.72C1299.65 753.013 1299.47 752.129 1299.47 751.423C1299.12 747.711 1298.76 744.176 1298.41 740.465C1297.53 731.451 1296.64 722.261 1294.35 713.424C1294.88 714.131 1295.58 714.838 1296.29 715.545C1298.41 718.019 1301.06 720.14 1303.18 722.614ZM1155.08 719.787C1155.61 720.494 1156.49 721.201 1158.08 721.908C1160.38 722.968 1163.38 722.614 1165.86 721.731C1168.33 720.67 1170.28 719.08 1172.22 717.489C1174.7 715.545 1176.99 713.601 1179.47 711.657C1179.64 716.075 1179.64 720.67 1179.82 725.089C1180.17 736.753 1180.7 748.418 1181.23 760.083C1181.23 761.497 1181.41 762.91 1182.12 764.148C1183.53 766.622 1186.71 766.975 1189.36 766.975C1197.32 766.975 1205.09 767.152 1212.69 767.329C1212.52 768.213 1212.16 769.096 1211.99 769.98C1210.93 774.045 1210.4 780.584 1211.63 784.472C1211.81 785.003 1211.99 785.709 1212.52 785.886C1212.87 786.063 1213.22 786.063 1213.58 786.24C1214.81 786.416 1215.88 786.416 1217.11 786.593C1195.37 786.593 1173.81 787.3 1152.07 787.654C1151.72 783.942 1151.19 780.054 1149.95 776.342C1150.48 776.166 1151.01 775.989 1151.37 775.635C1152.07 774.929 1151.9 774.045 1151.9 773.161C1151.01 760.083 1150.13 742.939 1149.07 730.037C1148.72 724.559 1148.36 718.903 1147.65 713.424C1149.78 715.368 1151.9 717.312 1154.02 719.256C1154.37 719.256 1154.72 719.433 1155.08 719.787ZM1172.57 902.356C1171.34 902.356 1169.92 902.179 1168.86 901.472C1168.51 901.295 1168.16 900.942 1167.8 900.588C1167.63 900.588 1167.45 900.588 1167.27 900.588C1164.8 887.51 1163.38 875.668 1161.62 862.236C1160.03 849.688 1158.26 836.963 1156.67 824.415C1156.14 819.82 1155.43 815.401 1154.9 810.806C1155.25 810.983 1156.32 811.16 1158.44 811.16C1161.62 811.336 1167.1 811.336 1172.93 811.336C1173.11 811.336 1173.46 811.336 1173.64 811.336C1173.28 813.104 1173.28 815.048 1173.28 816.992C1173.64 838.024 1173.81 858.878 1173.64 879.91C1173.64 884.859 1173.28 893.696 1173.11 902.532C1172.93 902.356 1172.75 902.356 1172.57 902.356ZM1292.93 900.058C1292.93 900.058 1292.05 900.058 1290.63 899.881C1291.52 891.928 1293.29 874.961 1295.23 855.52V855.697C1297.7 872.487 1300.71 889.277 1304.42 905.89C1304.07 905.714 1303.71 905.537 1303.18 905.36C1295.05 902.709 1293.82 902.532 1292.93 900.058ZM1342.95 864.181C1342.95 866.478 1342.95 886.803 1341.89 891.751C1337.47 892.458 1333.05 893.342 1328.63 894.226C1325.28 894.933 1321.74 895.816 1319.62 898.291C1317.68 900.588 1317.32 903.593 1316.97 906.421C1316.97 906.421 1316.97 906.421 1316.97 906.597C1316.79 905.89 1316.62 905.007 1316.44 904.3C1315.91 902.886 1315.38 902.709 1314.32 902.709C1313.08 888.04 1313.26 873.194 1313.43 858.348C1313.43 854.637 1313.61 850.749 1314.49 847.037C1315.2 844.033 1316.44 841.382 1318.21 838.907C1326.69 838.907 1334.82 838.554 1342.95 838.024C1342.95 838.2 1342.95 838.2 1342.95 838.377C1342.42 847.214 1343.13 855.697 1342.95 864.181Z" fill="#F2F4F7"/>
<path d="M1110.89 668.003C1112.13 668.71 1111.95 669.417 1112.48 668.18C1112.66 667.826 1112.48 667.473 1112.48 667.119C1112.48 666.943 1112.48 666.942 1112.48 666.766C1112.84 667.296 1113.19 667.826 1113.54 668.356C1115.67 671.184 1118.32 673.835 1121.85 675.249C1125.56 676.663 1129.98 676.486 1133.52 674.896C1137.05 673.305 1139.7 670.3 1140.59 666.942C1140.94 665.529 1140.94 664.115 1141.12 662.701C1141.29 658.282 1144.12 645.381 1139.52 642.199C1139.52 642.199 1139.52 642.199 1139.35 642.199C1143.41 641.492 1147.65 639.902 1150.13 636.897C1152.6 633.893 1152.78 629.474 1149.78 627C1149.95 628.414 1148.89 629.828 1147.48 630.535C1146.06 631.242 1142.71 630.711 1141.12 630.888C1135.99 631.418 1130.86 630.888 1125.74 630.358C1120.61 630.005 1115.31 629.828 1110.36 630.888C1105.41 632.125 1102.41 635.66 1100.47 639.725C1099.41 642.199 1099.23 644.85 1099.23 647.325C1099.23 651.39 1101.7 654.748 1103.12 658.459C1104.18 662.524 1107.01 666.059 1110.89 668.003Z" fill="#F2F4F7"/>
<path d="M256.727 677.234C257.623 677.383 258.52 677.383 259.416 677.383C259.416 683.66 262.405 689.787 266.888 695.166C269.279 698.006 272.418 700.696 276.602 702.041C280.786 703.385 286.017 703.236 290.051 701.592C294.086 699.948 297.224 696.96 298.121 693.672C298.569 692.327 298.569 690.833 298.719 689.338C298.868 688.143 299.167 686.2 299.317 684.108C299.317 684.556 299.466 685.005 299.466 685.453C301.409 681.119 302.754 676.636 303.949 672.153C305.145 667.221 305.444 661.543 300.512 657.956C296.776 655.266 291.097 654.818 286.017 655.266C278.844 655.864 271.82 658.106 266.291 661.543C264.049 662.888 262.106 664.382 259.566 665.578C257.175 666.773 254.186 667.52 251.347 667.221C248.209 666.773 247.611 664.83 245.369 663.784C244.473 665.279 244.323 667.371 244.622 669.015C245.818 673.348 251.048 676.487 256.727 677.234Z" fill="#F2F4F7"/>
<path d="M396.003 772.874C396.003 772.874 396.003 772.575 396.003 772.127C397.647 750.757 395.107 729.387 388.083 708.466C385.991 701.891 383.749 694.718 375.829 690.234C375.381 689.936 374.932 689.786 374.484 689.637C373.886 689.487 373.139 689.637 372.541 689.936C368.357 691.131 364.023 692.177 359.839 693.373C358.943 693.672 358.195 693.821 357.299 693.97C356.402 694.12 355.505 694.419 354.609 694.568C353.114 694.867 346.838 696.361 346.689 697.856C346.539 699.201 346.39 700.546 346.24 701.741C345.941 701.741 345.643 701.741 345.493 701.741C344.746 701.741 343.999 701.293 343.55 702.19C343.401 702.638 343.55 703.086 343.7 703.535C343.999 704.431 344.596 705.328 345.194 706.224C345.045 706.673 345.045 707.42 345.045 707.719C344.895 709.064 344.596 710.409 344.447 711.604C343.999 714.294 343.7 716.835 343.401 719.524C342.803 724.755 342.205 730.135 341.757 735.365C341.757 736.112 341.608 736.859 341.757 737.457C342.056 738.653 342.953 739.549 343.849 740.296C343.849 744.481 343.7 748.665 343.252 752.7C337.872 751.504 332.791 749.263 328.457 745.975C327.56 745.377 326.514 744.63 325.468 744.78C325.02 743.584 324.572 742.538 324.123 741.492C324.422 740.745 324.572 739.998 324.871 739.25C325.169 738.055 325.618 737.308 325.468 736.56C325.767 736.71 325.917 736.71 326.215 736.71C326.664 736.71 326.813 736.262 326.963 735.963C327.112 735.664 326.963 735.215 326.963 734.767V734.618L326.813 734.468C326.664 734.468 326.514 734.319 326.215 734.319C325.468 734.02 324.572 733.721 323.675 733.572C323.376 733.422 322.928 733.422 322.629 733.273C322.33 730.284 322.031 727.445 320.686 724.755C319.79 722.962 318.594 721.318 317.249 719.823C313.812 716.087 309.628 712.949 305.145 710.558C303.8 709.811 302.305 709.213 300.662 709.213C299.765 709.213 299.018 709.363 298.121 709.811C297.374 709.363 296.477 708.914 295.73 708.615C288.706 705.328 278.246 703.833 270.923 707.42C270.774 707.42 270.774 707.569 270.624 707.569C264.348 705.627 247.76 714.742 244.323 717.432C239.84 720.869 236.104 725.203 232.517 729.686C229.23 733.871 226.092 738.055 224.448 743.136C223.999 744.331 223.701 745.676 223.551 747.021C221.16 747.768 219.367 749.562 217.723 751.355C217.574 751.504 217.275 751.803 217.125 751.953C219.666 740.595 222.356 729.238 225.494 717.881C226.391 717.731 227.138 717.283 227.586 716.685C227.885 716.386 228.034 715.938 228.184 715.49C228.632 714.444 229.08 713.397 229.379 712.351C229.529 711.903 229.828 711.455 229.828 710.857C229.828 710.409 229.678 709.811 229.379 709.512C229.08 709.363 228.782 709.213 228.483 709.213C229.529 708.018 230.724 706.673 231.92 705.477C232.069 705.328 232.219 705.178 232.219 704.879C232.219 704.73 232.069 704.581 231.92 704.431C231.173 703.535 229.23 702.638 227.885 702.787C227.437 702.787 226.988 703.086 226.54 703.385C225.046 704.282 223.85 705.328 222.655 706.673C221.459 707.868 220.562 709.363 219.666 710.708C218.769 712.052 218.022 713.248 217.125 714.593C216.976 714.742 216.976 714.892 216.976 715.041C217.125 715.639 218.62 715.938 219.068 716.237C219.516 716.536 219.815 717.133 220.264 717.283C220.562 717.432 220.861 717.432 221.16 717.283C221.608 717.133 221.907 716.835 222.206 716.536C222.206 716.685 222.206 716.685 222.206 716.685C222.057 716.835 221.907 716.984 221.907 717.133C216.528 725.353 211.297 736.112 207.412 745.078C206.515 747.021 205.768 748.516 205.021 749.86C204.871 749.562 204.871 749.412 204.722 749.113C201.883 742.09 198.894 734.917 196.054 727.893C195.457 726.249 194.71 724.605 193.813 722.812C192.916 719.524 191.87 716.386 190.376 713.397C189.778 712.202 189.031 711.006 187.985 709.96C186.64 708.765 184.847 708.167 183.203 707.868C180.662 707.42 177.972 707.719 175.581 708.466C174.834 706.374 173.938 704.431 174.087 702.339C176.926 704.879 180.662 706.523 184.398 705.926C188.134 705.328 191.422 702.937 193.813 699.948C197.848 695.315 199.94 689.188 200.239 683.061C201.733 683.061 202.63 682.912 202.63 682.613C202.779 678.877 203.078 675.141 202.181 671.405C201.434 667.819 199.342 664.232 196.204 662.439C194.709 661.542 192.916 661.094 191.123 660.646C188.433 660.048 185.743 659.45 183.053 659.301C173.938 659.151 165.569 664.979 160.339 672.451C155.108 679.923 152.568 688.889 150.476 697.856C149.43 702.19 148.384 706.673 146.74 710.857C143.303 719.226 136.578 726.847 127.761 728.491C125.221 728.939 122.68 728.939 120.438 730.284C116.852 732.227 115.358 737.009 116.254 741.044C117.151 745.078 120.14 748.366 123.427 750.907C132.095 757.482 144.349 758.976 154.511 755.24C153.913 764.356 154.062 773.621 154.809 782.737C155.407 790.209 138.819 848.49 146.74 849.984C150.177 850.732 160.787 850.283 170.65 849.835C170.65 859.399 169.305 869.262 166.466 879.125C164.075 887.643 163.925 897.058 162.281 905.576C161.833 907.668 161.982 908.116 161.982 910.208C160.638 910.059 159.591 910.358 159.293 912.001C158.695 914.691 158.545 917.531 158.396 920.221C158.246 922.163 158.097 924.106 157.948 926.049C157.948 926.198 157.948 926.347 157.948 926.497C157.948 926.646 158.247 926.646 158.247 926.796C159.143 927.095 159.89 927.244 160.787 927.244C161.086 924.405 161.534 921.565 161.833 918.726C162.281 918.876 162.879 919.025 163.327 919.174C163.477 919.174 163.776 919.324 163.776 919.473C164.075 919.772 163.925 920.071 163.925 920.519C163.626 922.761 163.327 925.152 163.178 927.394C163.178 927.692 163.178 927.991 163.327 928.141C163.477 928.44 163.776 928.44 164.075 928.44C165.718 928.739 167.512 928.738 169.305 928.888C171.098 928.888 172.742 928.888 174.535 928.738C174.834 928.738 174.984 928.739 175.133 928.589C175.282 928.44 175.282 928.29 175.282 928.141C175.581 926.796 175.731 925.301 175.731 923.956C175.731 923.359 175.731 922.761 175.282 922.313C174.834 921.864 174.236 921.864 173.639 921.864C171.995 921.864 170.202 922.014 168.707 921.416C168.558 921.267 168.259 921.267 168.109 921.117C167.96 920.818 167.96 920.519 167.96 920.221C168.259 917.381 168.408 914.542 168.259 911.702C168.259 911.553 168.259 911.404 168.109 911.404C167.96 911.254 167.811 911.254 167.661 911.105C167.512 911.105 167.362 911.105 167.213 910.955C167.96 904.231 170.5 900.644 173.34 893.322C177.972 881.217 182.605 869.262 186.341 857.157C186.042 860.893 187.088 865.227 187.387 867.768C189.778 882.711 194.411 896.759 196.802 911.553C196.802 911.702 196.652 911.703 196.652 911.852C196.054 912.749 196.503 914.542 196.652 915.588C196.802 916.933 197.101 918.278 197.25 919.772C197.549 921.715 197.549 923.658 197.399 925.6C197.399 925.75 197.399 926.049 197.549 926.049C197.698 926.198 197.698 926.198 197.848 926.198C198.744 926.347 199.641 926.497 200.538 926.348C200.089 924.405 199.94 922.313 200.239 920.37C200.538 920.221 200.986 920.37 201.285 920.669C201.584 920.968 201.584 921.416 201.584 921.715C201.733 922.91 202.032 924.106 202.181 925.152C202.181 925.451 202.331 925.75 202.48 925.75C202.63 925.899 202.929 925.899 203.078 925.75C206.366 925.451 209.653 925.003 212.941 924.704C213.09 924.704 213.24 924.704 213.389 924.554C213.539 924.405 213.539 924.255 213.539 923.956C213.539 922.612 213.389 921.117 213.24 919.772C213.09 919.174 213.09 918.577 212.642 918.128C212.044 917.531 211.148 917.531 210.251 917.531C209.355 917.531 208.458 917.68 207.561 917.68C206.515 917.68 205.32 917.68 204.871 916.933C204.572 916.634 204.572 916.186 204.423 915.737C204.124 913.944 203.825 912.151 203.377 910.507C202.779 910.507 202.032 910.507 201.434 910.507C201.285 892.425 201.733 882.114 201.584 863.882C202.48 858.353 202.032 853.123 201.883 847.743C203.975 847.593 206.067 847.444 208.01 847.294C209.355 847.145 210.998 846.996 211.895 845.95C212.792 844.903 205.469 789.611 205.32 788.266C204.871 783.634 204.274 779.001 203.676 774.518C208.906 772.127 213.389 768.092 217.424 763.908C220.114 761.218 222.655 758.528 225.195 755.838C225.494 756.585 225.942 757.183 226.54 757.93C227.885 759.574 229.529 760.919 231.471 761.816C229.23 766.896 227.138 772.127 225.344 777.507C223.701 782.438 222.356 788.266 225.494 792.6C226.988 794.543 229.08 795.888 231.322 797.083C231.92 797.382 232.517 797.681 233.265 797.98C233.115 800.221 233.414 802.612 233.414 804.854C233.414 815.016 233.862 825.327 235.955 835.339C241.185 861.342 256.278 884.505 261.509 910.507C261.807 912.151 262.106 913.944 263.152 915.438L263.302 915.588C262.555 916.186 261.957 917.082 261.509 917.979C260.313 919.772 258.669 921.267 256.727 922.163C256.129 922.462 255.382 922.761 254.933 923.359C254.186 924.255 254.485 925.6 255.232 926.497C255.979 927.394 257.175 927.692 258.221 927.692C259.416 927.842 260.462 927.692 261.658 927.692C261.957 927.692 262.256 927.692 262.405 927.692C262.704 927.543 262.854 927.394 263.003 927.244C263.601 926.646 264.348 926.049 264.946 925.451C266.141 924.405 267.486 923.209 268.233 921.715C269.13 920.071 269.279 918.128 269.13 916.335C270.475 914.691 270.325 911.702 270.027 909.311C268.831 900.046 269.877 890.781 270.923 881.516C272.567 867.17 274.211 852.674 276.004 838.328C277.2 836.983 279.591 837.282 280.936 838.478C282.281 839.673 283.028 841.466 283.476 843.11C285.867 850.732 286.913 858.801 287.959 866.871C290.051 882.711 291.994 898.552 292.293 914.542C291.695 914.691 291.247 914.841 290.649 914.99C291.097 916.783 291.396 918.427 291.845 920.221C291.994 920.519 291.994 920.968 292.293 921.117C292.592 921.416 292.891 921.416 293.339 921.416C299.317 921.565 305.145 921.416 311.122 920.818C311.122 919.174 311.122 917.381 309.927 916.335C309.03 915.588 307.685 915.438 306.49 915.289C304.696 915.14 302.903 914.99 301.11 914.841C300.363 914.841 299.466 914.691 298.868 914.243C298.569 914.094 298.42 913.795 298.27 913.645C297.822 913.645 297.374 913.645 297.075 913.645C302.754 898.104 307.087 882.263 311.272 866.273C313.364 857.905 315.456 849.536 316.801 841.018C318.594 829.81 319.042 818.453 319.491 807.095C319.491 806.797 319.491 806.348 319.491 806.049C321.732 805.302 323.825 804.256 325.618 802.911C329.952 799.325 332.342 793.795 332.94 788.117C333.538 782.438 332.641 776.909 331.894 771.23C331.147 765.85 330.25 760.62 329.055 755.39C329.653 755.838 330.25 756.137 330.848 756.585C334.584 758.827 338.469 760.769 342.504 762.264C342.355 763.31 342.205 764.505 342.056 765.552C341.907 766.299 341.458 770.035 340.86 773.92C340.86 773.92 340.861 774.07 341.01 774.07C341.608 775.116 342.205 776.162 342.803 777.058C342.803 777.058 342.803 777.208 342.953 777.208C342.953 777.357 342.803 777.357 342.803 777.507C340.861 781.84 341.608 788.565 341.309 793.198C341.01 799.922 341.01 806.797 341.458 813.521C341.608 817.855 342.056 822.189 342.355 826.522C342.803 832.948 343.401 839.524 343.849 845.95C343.999 847.892 344.148 850.134 345.344 851.628C345.792 861.641 346.689 871.653 347.884 881.665C349.08 892.425 349.229 903.334 348.332 914.094C348.183 914.094 348.183 914.243 348.034 914.243C347.436 914.841 347.137 915.438 346.838 916.036C346.689 916.634 346.539 917.232 346.091 917.829C345.642 918.427 344.746 918.726 343.849 919.025C341.608 919.772 339.217 920.37 336.676 920.519C336.078 920.519 335.63 920.669 335.032 920.818C333.687 921.267 333.239 922.612 333.09 923.658C333.09 923.956 333.09 924.405 333.389 924.554C333.538 924.704 333.837 924.704 334.136 924.704C341.159 924.554 344.148 924.554 351.321 924.554C352.517 924.554 353.862 924.554 355.057 924.405C355.057 924.554 355.207 924.704 355.356 924.704C355.505 924.853 355.804 924.853 356.103 924.853C363.127 924.704 366.116 924.704 373.289 924.704C375.082 924.704 376.726 924.554 378.519 924.255C378.818 924.255 378.967 924.106 379.117 924.106C379.266 923.956 379.416 923.807 379.416 923.658C380.312 921.267 380.462 918.577 380.163 916.036C380.163 915.588 380.013 915.14 379.715 914.841C380.611 906.92 397.049 798.876 396.003 772.874ZM244.622 737.308C244.771 737.308 244.771 737.158 244.921 737.158C244.174 738.354 243.277 739.549 242.53 740.745C242.53 740.147 242.38 739.549 242.082 738.951C242.978 738.503 243.725 737.905 244.622 737.308ZM368.357 916.335C368.208 916.933 368.058 917.531 367.61 918.128C367.162 918.726 366.265 919.025 365.368 919.324C363.127 920.071 360.736 920.669 358.195 920.818C358.046 920.818 357.896 920.818 357.598 920.818C357.896 919.174 357.897 917.531 357.747 915.887C357.747 915.289 357.598 914.841 357.149 914.542C360.885 883.757 363.276 852.824 366.863 821.89C367.012 821.89 367.311 821.74 367.461 821.74C368.208 821.591 368.806 821.442 369.553 821.143C370.3 853.272 370.748 905.277 369.553 914.094C369.403 914.094 369.403 914.243 369.254 914.243C368.955 915.14 368.507 915.737 368.357 916.335Z" fill="#F2F4F7"/>
<path d="M337.124 665.129C338.021 674.245 340.86 683.062 345.493 690.833C348.183 691.879 351.022 692.327 354.011 692.327C356.551 691.58 358.942 690.982 361.483 690.385C361.483 690.534 361.483 690.534 361.483 690.683C362.379 690.534 363.276 690.235 364.173 689.787C364.621 689.637 365.069 689.637 365.518 689.488C365.518 689.339 365.518 689.189 365.368 689.04C366.414 688.292 367.311 687.396 368.208 686.499C369.851 684.706 371.346 682.763 372.392 680.671C372.84 679.625 373.288 678.579 373.587 677.533C374.335 675.441 375.082 673.349 375.829 671.256C376.277 670.061 376.576 669.015 376.576 667.67C376.576 665.428 375.381 663.486 374.185 661.692C372.392 658.554 370.897 655.117 368.805 652.278C366.564 649.438 363.426 647.047 359.69 646.898C358.195 646.898 356.701 647.197 355.206 647.645C348.93 649.289 342.654 650.783 336.975 653.922C336.228 654.37 335.48 654.669 335.032 655.416C334.584 656.014 334.584 656.761 334.434 657.508C334.285 658.554 334.136 659.451 333.986 660.497C333.837 661.095 333.837 661.692 333.837 662.44C334.136 663.934 335.63 664.681 337.124 665.129Z" fill="#F2F4F7"/>
<path d="M799.32 916.801C797.83 897.633 716.809 909.556 704.554 913.407C702.318 914.11 699.834 915.228 699.503 917.257C699.006 920.445 703.933 921.77 707.576 922.515C714.614 923.922 720.907 927.4 727.821 929.18C736.35 931.374 800.355 929.884 799.32 916.801Z" fill="#F2F4F7"/>
<path d="M763.178 769.125C757.878 768.628 745.499 770.243 740.945 772.603C741.401 780.345 743.388 787.921 745.168 795.498C754.69 836.195 760.569 870.474 757.299 911.875C762.639 913.241 768.684 915.601 768.849 910.923L769.719 907.031C770.464 898.089 771.541 882.812 772.451 873.869C775.888 840.169 777.254 806.386 778.579 772.603C773.569 771.154 768.477 769.622 763.178 769.125Z" fill="#424A5D"/>
<path d="M727.821 864.347C726.786 861.905 723.888 856.026 723.805 853.459C723.681 850.147 720.079 845.22 721.487 842.156C732.582 817.44 749.888 798.396 757.298 772.727C757.423 772.272 757.547 771.775 757.381 771.32C757.174 770.74 756.553 770.367 755.974 770.077C752.123 767.966 740.738 764.157 736.308 763.164C735.356 762.957 734.362 762.75 733.41 762.915C731.506 763.246 727.738 762.418 726.786 763.826C712.089 785.023 708.694 812.017 704.016 836.277C703.477 839.051 702.939 841.908 703.353 844.723C703.726 847.456 704.968 850.022 706.21 852.548C714.324 869.025 723.019 889.105 732.334 905.127C732.789 905.914 733.327 906.783 734.321 907.114C738.502 908.48 744.133 905.375 743.76 904.506C742.187 900.821 736.557 887.946 734.983 884.302C731.837 876.892 730.926 871.675 727.821 864.347Z" fill="#424A5D"/>
<path d="M727.531 907.031C728.359 907.155 729.187 907.321 729.974 907.155C730.802 907.031 731.589 906.534 731.672 905.872C730.926 905.582 730.181 905.292 729.436 905.003C729.187 904.92 728.939 904.796 728.815 904.63C728.442 904.133 729.229 903.553 729.891 903.305C734.114 901.732 738.585 900.655 743.14 900.076C744.009 899.952 745.085 899.993 745.458 900.614C745.665 900.904 745.624 901.276 745.541 901.649C744.961 905.706 744.423 909.805 743.843 913.862C743.678 915.022 719.624 916.926 717.471 915.932C714.656 914.649 714.904 911.627 716.56 909.639C718.961 906.741 723.681 906.493 727.531 907.031Z" fill="black"/>
<path d="M725.13 761.921C724.178 765.606 723.267 769.332 722.315 773.017C721.942 774.549 721.57 776.039 721.156 777.571C721.073 777.819 721.031 778.109 721.156 778.358C721.321 778.73 721.777 778.813 722.191 778.854C724.426 779.02 726.703 778.565 728.897 778.068C735.315 776.66 741.815 774.88 748.356 775.459C757.381 776.246 765.703 781.463 774.77 781.587C775.68 781.587 776.674 781.504 777.336 780.883C777.833 780.428 778.04 779.765 778.247 779.144C779.158 776.288 780.069 773.431 780.98 770.574C781.559 768.753 782.139 766.931 782.139 765.026C782.139 763.329 781.642 761.59 780.69 760.141C779.572 758.402 777.957 757.119 776.633 755.546C775.225 753.848 774.149 751.861 772.575 750.288C769.595 747.348 765.206 746.479 761.066 745.941C754.193 745.03 747.155 744.781 740.241 745.941C735.853 746.644 731.382 746.893 728.939 751.033C727.034 754.345 726.082 758.154 725.13 761.921Z" fill="#424A5D"/>
<path d="M715.07 768.835C714.49 770.698 714.076 772.686 713.538 774.59C713.496 774.756 713.455 774.921 713.372 775.045C713.248 775.211 713.082 775.211 712.917 775.211C711.84 775.087 710.805 775.004 709.729 774.88C709.563 774.88 709.356 774.838 709.232 774.631C709.067 774.342 709.108 773.845 709.149 773.389C709.481 770.367 709.853 767.303 710.309 764.281C710.35 764.074 710.391 763.826 710.474 763.66C710.598 763.453 710.764 763.37 710.971 763.329C711.882 763.081 712.793 762.915 713.703 762.874C714.49 762.832 715.691 762.584 716.394 763.081C717.636 763.991 715.484 767.428 715.07 768.835Z" fill="#F2E7D6"/>
<path d="M710.971 716.256C710.888 711.371 710.764 706.362 711.923 701.601C713.082 696.839 715.649 692.203 719.872 689.677C720.949 689.056 722.191 688.518 723.391 688.808C724.633 689.097 725.544 690.091 726.206 691.168C729.891 696.964 728.401 704.499 726.869 711.206C724.84 720.107 725.544 728.884 723.805 737.826C722.066 746.852 720.7 754.262 718.133 763.081C714.449 763.619 708.528 764.406 707.824 761.797C706.624 757.409 709.108 750.536 709.191 746.727C709.522 736.584 711.137 726.4 710.971 716.256Z" fill="#E8E8E8"/>
<path d="M743.057 684.626C749.722 683.798 764.088 683.715 768.808 688.021C770.34 689.428 771.582 691.043 772.741 692.699C775.142 696.053 770.919 697.419 772.327 701.186C773.9 705.368 774.231 709.839 774.935 714.228C777.212 728.097 783.505 741.304 784.913 755.256C785.12 757.367 785.037 759.851 783.133 761.135C782.18 761.756 780.98 761.921 779.82 762.087C762.225 764.364 749.391 759.479 731.671 758.154C730.264 758.03 728.773 757.905 727.614 757.202C725.834 756.125 725.254 754.014 725.461 752.109C725.71 750.205 726.62 748.466 727.324 746.686C728.649 743.374 729.27 739.937 729.932 736.46C731.133 729.918 727.366 728.676 726.827 722.094C726.413 716.919 724.716 712.282 721.818 707.769C719.168 703.588 719.003 701.186 721.197 696.674C725.089 688.559 733.203 685.868 743.057 684.626Z" fill="#EFEFEF"/>
<path d="M705.051 773.555C706.086 773.348 707.121 773.472 708.156 773.472C709.067 773.472 710.019 773.348 710.93 773.431C711.84 773.472 712.793 773.721 713.538 774.3C714.283 774.88 714.738 775.832 714.49 776.743C714.407 777.033 714.242 777.364 713.952 777.488C713.496 777.736 712.958 777.447 712.461 777.322C711.468 777.074 710.433 777.364 709.439 777.612C707.659 778.109 705.796 778.523 704.016 778.233C703.436 778.15 702.815 777.985 702.36 777.571C700.248 775.832 703.477 773.845 705.051 773.555Z" fill="#F2E7D6"/>
<path d="M717.719 757.781C718.506 758.029 719.375 758.361 719.872 759.023C720.121 759.354 720.245 759.768 720.328 760.182C720.535 761.424 720.162 762.749 719.541 763.867C719.168 764.529 718.713 765.15 718.009 765.481C717.512 765.688 716.933 765.73 716.353 765.688C713.041 765.606 709.729 765.026 706.624 763.867C706.168 763.701 705.754 763.536 705.423 763.204C705.092 762.873 704.926 762.376 704.802 761.921C704.305 759.892 704.305 755.173 707.286 755.297C710.723 755.421 714.49 756.746 717.719 757.781Z" fill="#E8E8E8"/>
<path d="M758.954 776.991C758.996 777.032 759.037 777.032 759.079 777.032C759.12 776.949 759.161 776.866 759.203 776.784C759.244 776.742 759.286 776.659 759.286 776.618C759.244 776.618 759.203 776.577 759.161 776.577C759.12 776.618 759.12 776.701 759.079 776.742C759.037 776.742 758.954 776.991 758.954 776.991Z" fill="#F2F2F2"/>
<path d="M758.996 776.163C758.996 776.287 759.037 776.453 759.037 776.66C759.078 776.66 759.161 776.701 759.203 776.701C759.368 776.577 759.534 776.329 759.699 776.122C759.865 775.873 759.989 775.666 760.196 775.211C759.948 775.087 759.658 774.921 759.368 774.921C759.078 774.921 759.12 775.087 759.078 775.294C759.037 775.625 758.996 775.915 758.996 776.163Z" fill="#E8E8E8"/>
<path d="M766.904 753.103C767.111 752.813 767.276 752.523 767.359 752.151V752.109L767.318 752.068C767.193 751.985 766.986 751.944 766.862 751.819C766.779 751.737 766.697 751.612 766.572 751.612C766.49 751.612 766.448 751.654 766.407 751.695C766.365 751.737 766.365 751.819 766.324 751.861C766.241 752.151 766.2 752.482 766.075 752.772C765.993 752.979 766.738 753.103 766.904 753.103Z" fill="#E8E8E8"/>
<path d="M761.728 770.243C762.308 768.38 762.888 766.475 763.467 764.612C764.668 760.762 765.868 756.912 767.193 753.103C767.276 752.896 767.152 752.689 766.945 752.606L766.407 752.357C766.241 752.275 765.951 752.399 765.91 752.606C765.165 756.373 763.509 759.975 762.474 763.66C761.439 767.345 760.445 771.029 759.244 774.714C759.162 774.797 759.162 774.88 759.162 775.004C759.12 775.128 759.162 775.211 759.244 775.252C759.327 775.376 759.451 775.459 759.576 775.501C759.617 775.501 759.7 775.501 759.741 775.501C759.865 775.501 760.031 775.459 760.114 775.335C760.983 773.927 761.232 771.857 761.728 770.243Z" fill="#3F4854"/>
<path d="M768.021 750.909C767.939 750.66 767.607 750.577 767.4 750.453C767.193 750.329 766.986 750.205 766.738 750.288C766.531 750.37 766.407 750.536 766.324 750.743C766.2 751.033 766.076 751.323 765.951 751.612C765.869 751.778 765.993 752.026 766.2 752.109C766.283 752.109 766.365 752.151 766.407 752.109C766.572 752.192 766.779 752.275 766.945 752.399C767.152 752.523 767.359 752.523 767.566 752.399C767.773 752.233 767.814 751.902 767.897 751.695C767.939 751.447 768.104 751.157 768.021 750.909Z" fill="#3F4854"/>
<path d="M767.4 753.185C767.442 753.185 767.483 753.226 767.525 753.268C767.525 753.309 767.525 753.309 767.525 753.351C767.111 754.8 766.697 756.207 766.158 757.615C766.117 757.615 766.076 757.573 766.034 757.573C766.2 757.159 766.365 756.745 766.49 756.331C766.738 755.545 766.862 754.675 767.235 753.93C766.904 753.806 766.572 753.682 766.241 753.558C766.2 753.558 766.2 753.558 766.2 753.516C766.2 753.516 766.2 753.475 766.2 753.433C766.241 753.268 766.283 752.73 766.531 752.812C766.655 752.854 766.821 752.978 766.945 753.019C767.069 753.102 767.235 753.144 767.4 753.185Z" fill="#E8E8E8"/>
<path d="M782.097 751.157C782.015 750.95 781.808 750.826 781.642 750.743C780.152 749.791 778.496 749.045 776.757 748.631C776.84 748.631 774.314 753.558 773.983 754.013C772.824 755.711 771.499 757.284 770.422 759.023C769.636 760.265 769.098 762.501 767.856 763.329C767.4 762.915 766.945 762.542 766.489 762.169C766.241 761.962 765.951 761.797 765.661 761.673C765.289 761.548 764.875 761.507 764.461 761.507C763.508 761.507 762.473 761.59 761.687 762.128C761.066 762.542 760.652 763.163 760.238 763.784C759.782 764.488 759.368 765.192 758.954 765.896C758.582 766.144 758.209 766.392 757.961 766.806C757.381 767.717 757.464 768.876 757.671 769.953C757.795 770.574 757.961 771.236 758.416 771.692C758.872 772.147 759.534 772.271 760.155 772.354C763.384 772.809 766.696 772.52 769.801 771.567C770.381 771.402 771.002 771.153 771.375 770.657C771.706 770.201 771.789 769.622 771.913 769.083C773.32 762.542 780.234 758.443 782.056 751.985C782.139 751.695 782.222 751.405 782.097 751.157Z" fill="#F2E7D6"/>
<path d="M761.935 686.572C764.709 684.998 768.228 684.874 771.126 686.199C775.266 688.103 777.543 692.492 779.53 696.591C783.132 704.001 786.569 711.495 789.881 719.071C790.75 721.017 791.578 723.004 791.744 725.116C791.909 727.269 791.288 729.421 790.667 731.491C788.183 740.02 785.741 748.59 783.256 757.119C780.358 757.284 777.419 757.036 774.562 756.415C773.403 756.166 772.037 755.67 771.706 754.51C771.457 753.682 771.788 752.854 772.12 752.068C775.059 744.947 777.253 737.536 778.661 730.001C779.075 727.641 779.448 725.24 778.951 722.88C778.371 719.982 776.55 717.539 774.769 715.221C770.546 709.797 766.034 704.581 761.314 699.613C757.133 695.1 755.228 690.38 761.935 686.572Z" fill="#E8E8E8"/>
<path d="M782.677 755.132C783.215 755.298 783.795 755.505 784.168 755.919C784.664 756.457 784.664 757.326 784.457 757.989C784.25 758.692 783.836 759.313 783.505 759.976C783.091 760.845 782.843 761.797 782.098 762.418C781.352 762.998 780.359 763.081 779.406 762.998C778.123 762.874 776.881 762.501 775.639 762.17C774.149 761.715 772.617 761.301 771.126 760.845C770.422 760.638 769.677 760.431 769.098 759.976C768.849 759.769 768.601 759.479 768.518 759.189C768.435 758.941 768.477 758.692 768.518 758.444C768.684 757.161 768.973 755.877 769.47 754.676C769.801 753.848 770.215 752.731 771.002 752.234C771.83 751.696 772.865 752.151 773.735 752.441C775.142 752.855 776.55 753.31 777.916 753.724C779.531 754.18 781.104 754.635 782.677 755.132Z" fill="#E8E8E8"/>
<path d="M755.725 913.241C754.483 915.849 752.91 918.375 750.881 920.61C749.598 922.018 748.149 923.426 747.776 925.164C747.735 925.33 747.735 925.537 747.776 925.703C747.942 926.075 748.439 926.282 748.936 926.365C751.213 926.903 753.573 927.193 755.932 927.193C757.257 927.193 758.623 927.11 759.824 926.655C761.728 925.91 763.012 924.336 764.006 922.763C765.827 919.865 769.636 913.365 766.241 910.384C762.557 907.197 757.299 909.929 755.725 913.241Z" fill="black"/>
<path d="M738.999 738.82C738.917 739.234 738.875 739.731 739.041 740.103C739.206 740.393 739.496 740.6 739.745 740.807C741.856 742.256 743.719 744.036 745.375 746.024C746.659 743.333 748.439 740.89 750.592 738.82C750.964 738.447 751.378 738.075 751.503 737.578C751.585 737.205 751.461 736.833 751.378 736.501C750.757 734.473 749.846 732.486 749.267 730.457C748.604 728.056 748.48 725.572 747.983 723.129C747.404 720.314 746.41 717.623 745.706 714.807C744.506 710.129 744.175 705.244 743.843 700.441C742.643 700.441 740.78 699.903 740.78 701.435C740.78 702.387 741.152 703.381 741.194 704.333C741.318 707.148 741.401 710.005 741.359 712.82C741.318 718.409 740.945 723.998 740.324 729.546C739.993 732.651 739.538 735.756 738.999 738.82Z" fill="#03A678"/>
<path d="M756.305 669.845C755.974 667.444 755.518 665.043 754.69 662.766C751.875 654.775 742.063 643.68 732.541 648.192C730.347 649.227 728.525 650.966 726.827 652.747C725.089 654.568 723.433 656.473 722.066 658.584C719.5 662.559 717.885 667.527 718.009 672.288C718.133 676.718 719.831 681.272 721.487 685.329C723.64 690.711 727.076 695.596 731.878 698.826C743.181 706.443 747.776 698.577 752.165 692.202C756.636 685.826 757.34 677.546 756.305 669.845Z" fill="#F2E7D6"/>
<path d="M755.849 655.977C755.559 655.273 755.311 654.528 754.773 653.948C753.903 652.913 752.496 652.582 751.254 652.002C747.9 650.47 745.623 647.2 742.311 645.585C741.69 645.295 741.028 645.047 740.365 645.005C739.62 644.964 738.875 645.171 738.13 645.337C732.623 646.661 726.413 646.703 722.149 650.429C720.824 651.588 719.748 653.079 718.713 654.486C717.553 656.059 716.353 657.633 715.442 659.371C712.627 664.712 712.668 671.543 715.732 676.76C716.146 677.464 716.601 678.126 716.85 678.913C717.098 679.699 717.098 680.61 716.601 681.231C716.104 681.893 715.069 682.1 714.448 681.521C713.869 680.941 714.241 679.699 715.069 679.741C713.662 679.616 712.461 681.065 712.503 682.473C712.503 683.881 713.496 685.164 714.655 685.951C717.76 688.021 722.522 686.862 724.343 683.632C725.047 682.39 725.337 680.941 725.709 679.575C725.792 679.244 725.916 678.913 726.165 678.706C726.455 678.457 726.869 678.457 727.241 678.457C730.884 678.54 734.693 679.12 738.005 677.629C742.311 675.683 744.505 670.094 742.684 665.747L743.098 665.664C744.588 665.168 746.41 667.486 747.528 668.562C748.645 669.639 749.432 671.046 750.633 672.081C751.171 671.543 751.751 671.005 752.454 670.757C753.158 670.508 754.069 670.632 754.524 671.253C754.773 671.585 754.814 671.999 754.814 672.413C754.731 674.317 752.951 675.89 753.117 677.795C753.2 678.623 753.614 679.409 754.028 680.113C755.104 681.935 756.139 683.757 757.215 685.62C757.215 684.088 758.043 682.68 758.623 681.272C760.362 677.257 760.486 672.703 759.741 668.397C758.996 664.174 757.422 660.075 755.849 655.977Z" fill="#443B36"/>
<path d="M754.069 687.565C751.461 691.664 748.19 695.307 744.423 698.371C743.802 698.867 742.725 699.323 742.311 698.619C742.187 698.412 742.146 698.205 742.022 698.039C741.815 697.832 741.442 697.874 741.152 697.957C739.993 698.205 738.834 698.619 737.757 699.157C738.42 698.992 738.834 700.109 738.337 700.606C737.509 701.517 733.741 699.82 734.611 701.765C734.942 702.469 736.846 703.297 737.509 703.628C738.544 704.167 739.662 704.581 740.862 704.581C743.553 704.622 745.872 702.718 747.693 700.73C750.219 697.957 752.289 694.769 753.862 691.332C754.4 690.132 754.856 688.6 754.069 687.565Z" fill="#03A678"/>
<path d="M592.399 936.922C596.042 937.46 599.106 937.378 602.418 936.715C603.08 935.39 603.453 933.858 603.37 932.202C602.087 897.716 607.137 830.315 603.577 795.952C601.383 793.303 596.373 794.338 594.303 797.07C592.233 799.803 592.233 803.363 592.316 806.717C592.771 828.162 592.813 849.649 592.73 871.095C592.647 881.528 591.198 926.572 592.399 936.922Z" fill="#4C4C4C"/>
<path d="M898.103 794.007C898.103 793.179 898.144 792.226 898.848 791.647C899.469 791.15 900.38 791.15 901.167 791.15C904.148 791.191 907.087 791.274 910.068 791.315C908.205 805.061 907.501 818.971 907.915 832.799C908.37 847.248 910.068 861.738 908.702 876.146C907.749 886.372 905.141 927.773 906.88 937.916C906.921 938.206 899.221 940.234 898.02 937.502C896.406 933.817 898.103 892.706 898.103 888.69C898.103 878.092 898.103 867.534 898.103 856.936C898.103 835.987 898.103 814.997 898.103 794.007Z" fill="#4C4C4C"/>
<path d="M910.647 781.67C905.969 781.504 887.711 781.421 882.37 781.421H621.297C612.106 781.546 599.934 781.546 590.619 781.587C584.947 781.587 586.52 781.67 585.319 783.74C584.201 785.686 584.326 787.673 584.16 789.66C583.994 791.606 584.036 793.593 584.326 795.539C584.45 796.491 584.657 797.443 584.864 798.354C585.03 799.017 583.622 799.803 584.947 800.424C584.657 800.756 584.947 801.087 588.631 801.252C591.943 801.418 597.408 801.459 603.329 801.459C603.577 801.459 603.825 801.459 604.115 801.459C604.239 801.459 604.364 801.459 604.488 801.459C612.561 801.459 621.255 801.377 626.43 801.377C637.07 801.377 647.669 801.377 658.309 801.377C707.286 801.377 833.269 801.377 882.287 801.377C887.545 801.377 905.596 801.377 910.357 801.087C911.641 801.004 912.676 800.921 913.255 800.797C916.029 800.217 914.29 799.265 914.539 798.644H914.29H914.042C914.249 797.733 913.628 796.74 913.794 795.994C914.042 794.67 914.166 793.386 914.166 792.061C914.125 790.488 913.918 788.956 913.504 787.383C913.131 785.975 914.704 783.947 915.325 782.456C915.574 781.835 915.574 781.835 910.647 781.67Z" fill="#3F3E3E"/>
<path d="M918.596 779.723C863.326 778.978 720.079 779.889 664.85 779.558C635.125 779.392 611.112 779.889 581.386 780.055C577.909 780.179 579.068 782.332 579.73 783.449C665.099 783.408 833.807 783.449 919.052 783.035C920.211 782 919.962 780.883 918.596 779.723Z" fill="#CECECE"/>
<path d="M785.327 777.281C770.05 777.405 754.732 777.529 739.455 777.571C725.875 777.612 712.296 777.653 698.716 777.653C691.885 777.653 685.054 777.653 678.223 777.612C678.264 778.399 678.181 779.185 678.016 779.972C682.57 780.386 689.484 780.055 693.293 780.137C700.041 780.22 706.789 780.262 713.538 780.303C726.91 780.344 740.241 780.262 753.614 780.013C764.626 779.848 775.639 779.558 786.652 779.806C786.155 778.978 785.741 778.109 785.327 777.281Z" fill="#E8E8E8"/>
<path d="M658.019 755.96C658.309 751.571 658.64 747.183 659.013 742.795C659.137 742.795 659.22 742.836 659.344 742.836C659.137 743.995 659.22 745.196 659.137 746.355C659.096 746.976 659.013 747.597 658.93 748.218C658.971 748.218 659.054 748.218 659.096 748.218C659.344 746.107 659.468 744.037 659.551 741.925C659.551 741.884 659.551 741.842 659.551 741.801C659.51 741.759 659.427 741.759 659.385 741.759C659.303 741.759 659.22 741.759 659.137 741.759C659.137 741.552 659.054 741.387 658.889 741.263C658.93 741.138 658.971 740.973 658.971 740.849C659.096 740.807 659.261 740.766 659.344 740.6C659.551 740.31 659.51 739.855 659.551 739.524C659.592 739.193 659.717 738.737 659.51 738.406C659.303 738.075 658.806 738.075 658.475 737.992C658.143 737.909 657.812 737.785 657.522 737.951C657.233 738.116 657.15 738.406 657.067 738.737C656.984 739.193 656.901 739.648 656.86 740.062C656.819 740.352 657.067 740.642 657.357 740.642C657.398 740.642 657.481 740.642 657.522 740.642C657.522 740.766 657.522 740.931 657.522 741.056C657.357 741.138 657.233 741.345 657.233 741.511C657.357 744.368 657.108 747.224 656.819 750.122C656.819 746.976 656.736 743.83 656.57 740.683C656.487 739.275 656.405 737.909 656.156 736.543C654.086 736.833 651.975 736.916 649.863 736.874C650.194 739.524 649.946 742.132 649.987 744.782C649.987 748.591 649.987 751.613 649.987 755.38C649.656 755.38 649.366 755.38 649.035 755.38C648.745 752.11 648.207 748.839 648.456 745.568C648.456 745.486 648.414 745.403 648.331 745.32C648.29 744.947 648.29 744.616 648.331 744.244C648.331 744.161 648.331 744.078 648.29 743.954C648.249 743.83 648.166 743.788 648.083 743.788C647.876 743.747 647.462 743.747 647.255 743.871C646.965 743.995 646.924 743.995 646.634 744.078C646.593 744.078 646.551 744.244 646.51 744.285C646.51 744.285 646.51 744.326 646.51 744.368C646.51 744.782 646.593 745.154 646.758 745.527C646.675 745.61 646.634 745.693 646.634 745.817C646.924 749.005 647.131 752.234 647.379 755.463C646.51 755.463 645.64 755.505 644.771 755.546C645.185 763.578 645.765 771.609 646.551 779.6C650.153 779.517 653.796 779.476 657.398 779.393C657.605 779.393 657.812 779.393 657.978 779.186C658.143 778.979 658.226 778.648 658.268 778.358C659.427 771.071 660.586 763.785 661.745 756.498C660.421 756.291 659.22 756.126 658.019 755.96ZM652.803 738.282C652.886 738.199 652.968 738.116 653.093 738.116C653.382 738.033 653.714 738.158 653.879 738.447C654.003 738.696 653.962 739.11 653.838 739.358C653.548 740.021 652.679 739.855 652.43 739.234C652.306 738.861 652.513 738.489 652.803 738.282Z" fill="#F2F4F7"/>
<path d="M641.707 745.444C640.714 744.202 638.768 744.036 637.443 744.699C636.16 745.32 635.29 746.52 634.504 747.68C634.504 746.189 634.462 744.699 634.255 743.208C634.089 741.842 633.8 740.476 633.137 739.317C632.475 738.116 631.357 737.122 629.991 736.874C627.714 736.46 625.52 738.282 624.692 740.435C623.905 742.587 624.112 744.989 624.402 747.307C624.816 751.075 625.23 754.801 625.644 758.568C625.685 759.106 625.52 760.39 625.851 760.804C625.892 760.845 625.934 760.887 625.975 760.928C625.188 760.928 624.402 760.928 623.615 760.928C622.58 760.928 619.641 760.804 619.558 761.383C619.351 762.46 619.765 764.53 619.848 765.523C620.055 767.097 620.22 768.67 620.427 770.243C620.8 773.265 621.172 776.288 621.504 779.351C621.545 779.683 621.586 779.972 621.711 780.221C621.959 780.593 622.373 780.593 622.746 780.593C627.879 780.386 632.972 780.883 638.064 780.676C638.851 774.342 639.43 767.262 639.513 760.887C637.36 760.887 635.166 760.887 633.013 760.887C633.179 760.638 633.261 760.307 633.261 760.017C633.344 759.355 633.427 758.734 633.51 758.071C633.551 758.03 633.634 757.988 633.675 757.947C636.325 755.629 639.265 753.393 641.252 750.412C641.749 749.708 642.163 748.922 642.287 748.052C642.452 747.183 642.287 746.189 641.707 745.444Z" fill="#F2F4F7"/>
<path d="M889.698 776.121C890.154 777.032 890.402 779.351 890.195 780.303C862.622 781.462 834.925 780.593 807.311 780.261C805.075 774.01 812.776 775.832 818.861 776.121C826.852 776.535 834.842 776.784 842.833 776.908C847.055 777.032 889.367 775.459 889.698 776.121Z" fill="#03A678"/>
<path d="M888.912 731.781C888.87 731.74 888.87 731.698 888.829 731.657C888.829 731.657 888.829 731.616 888.787 731.616C888.663 731.533 888.498 731.409 888.415 731.367C888.125 731.202 887.794 731.077 887.504 730.912C887.421 730.87 887.297 730.829 887.214 730.788C868.335 732.319 850.368 732.526 830.951 732.94C830.868 732.982 830.826 733.023 830.744 733.023C830.537 733.354 830.288 733.603 829.998 733.851C829.957 733.893 829.874 733.975 829.791 734.058C829.75 734.265 829.75 734.431 829.708 734.596C830.288 739.068 830.619 751.115 830.744 752.73C831.24 759.478 830.951 766.475 831.779 773.141C832.193 776.411 832.855 778.688 836.25 778.813C839.603 778.937 843.122 778.481 846.476 778.316C860.221 777.571 875.581 779.02 889.326 777.695C891.189 764.074 889.905 746.147 889.036 732.154C888.953 732.03 888.912 731.905 888.912 731.781Z" fill="#03A678"/>
<path d="M865.645 758.402C863.657 755.214 862.871 751.405 860.345 748.507C860.014 748.135 859.352 748.259 859.145 748.673C857.53 751.778 856.081 754.966 854.798 758.236C853.845 758.526 853.969 760.182 855.129 760.182C858.399 760.182 861.629 760.058 864.858 759.768C865.479 759.727 866.017 759.064 865.645 758.402ZM855.957 758.236C857.24 755.628 858.565 753.061 859.931 750.494C861.504 752.771 862.208 755.545 863.409 758.029C860.925 758.195 858.441 758.278 855.957 758.236Z" fill="white"/>
<path d="M152.25 240.483C152.173 240.56 152.096 240.56 152.019 240.636C152.019 240.483 152.019 240.406 152.019 240.252C152.019 240.176 151.943 240.176 151.866 240.176C151.712 240.329 151.558 240.406 151.405 240.56C151.328 240.636 151.251 240.636 151.174 240.713C151.098 240.79 150.944 240.79 150.867 240.636C150.714 240.483 150.714 240.329 150.714 240.099V239.561C150.714 239.484 150.637 239.408 150.56 239.484C150.253 239.792 149.869 240.176 149.485 240.329C149.254 240.406 149.101 240.406 148.87 240.406C148.563 240.406 148.486 240.252 148.256 240.099C147.718 239.715 147.411 240.483 146.873 240.713C146.873 240.252 146.873 239.715 146.873 239.254C146.873 239.177 146.797 239.177 146.72 239.177C146.489 239.408 146.259 239.638 146.029 239.792C145.875 239.868 145.721 240.022 145.645 240.099C145.491 240.329 145.414 240.329 145.337 240.022C145.337 239.945 145.337 239.868 145.337 239.792C145.414 239.177 145.645 238.486 145.875 237.871C145.952 237.795 145.721 237.718 145.721 237.795C145.491 238.486 145.107 239.1 144.723 239.715C144.493 240.022 144.339 240.329 144.109 240.636C143.955 240.867 143.571 241.328 143.264 241.251C142.88 241.251 142.956 240.636 143.11 240.099C143.494 239.715 143.801 239.331 144.109 238.87C144.339 238.486 144.8 237.948 144.493 237.564C144.493 237.564 144.416 237.564 144.339 237.564C143.725 238.102 143.417 238.87 143.11 239.561C143.033 239.715 143.033 239.868 142.956 240.022C142.649 240.329 142.342 240.636 142.035 240.944C141.497 241.404 140.96 241.788 140.422 242.173C139.808 242.557 138.963 242.864 138.425 242.173C137.964 241.712 137.964 241.02 138.041 240.329C138.655 239.715 139.193 239.1 139.654 238.409C139.961 237.948 140.345 237.487 140.576 236.95C140.806 236.566 140.96 236.105 140.806 235.644C140.806 235.644 140.806 235.567 140.729 235.567C140.192 235.644 139.884 235.951 139.577 236.335C139.193 236.796 138.886 237.334 138.579 237.871C138.271 238.563 137.887 239.408 137.811 240.252C137.657 240.406 137.427 240.636 137.273 240.79C137.196 240.867 137.273 240.944 137.35 240.867C137.503 240.713 137.657 240.56 137.811 240.406C137.811 240.713 137.811 241.02 137.887 241.328C138.118 242.326 139.04 242.787 140.038 242.403C141.113 241.942 142.112 241.02 142.88 240.252C142.88 240.406 142.803 240.483 142.803 240.636C142.803 240.867 142.803 241.251 143.033 241.328C143.264 241.481 143.648 241.251 143.801 241.097C144.109 240.867 144.339 240.483 144.569 240.176C144.8 239.792 145.03 239.408 145.261 239.024C145.261 239.1 145.184 239.254 145.184 239.331C145.107 239.638 145.03 240.022 145.261 240.252H145.337C145.798 239.945 146.259 239.561 146.643 239.177C146.643 239.638 146.643 240.099 146.643 240.56C146.643 240.636 146.72 240.636 146.72 240.636C147.027 240.56 147.257 240.329 147.488 240.099C147.642 239.945 147.718 239.792 148.102 240.022C148.179 240.022 148.179 240.099 148.256 240.099C148.41 240.176 148.563 240.252 148.717 240.252C149.408 240.329 149.946 239.868 150.406 239.408C150.406 239.715 150.406 240.022 150.483 240.252C150.483 240.406 150.56 240.483 150.637 240.56C150.944 240.713 151.405 240.329 151.712 240.099C151.712 240.176 151.712 240.252 151.789 240.329C151.789 240.406 151.866 240.406 151.866 240.406C152.019 240.406 152.096 240.329 152.25 240.252C152.403 240.483 152.327 240.406 152.25 240.483ZM138.041 240.099C138.195 239.408 138.425 238.793 138.732 238.179C139.04 237.564 139.424 236.95 139.884 236.412C140.038 236.259 140.192 236.182 140.345 236.105C140.422 236.028 140.576 235.951 140.729 236.028C140.806 236.105 140.729 236.335 140.729 236.335C140.729 236.719 140.499 237.103 140.268 237.411C139.654 238.409 138.886 239.408 138.041 240.252C138.041 240.252 138.041 240.176 138.041 240.099ZM143.341 239.561C143.571 238.947 143.878 238.332 144.339 237.871C144.493 238.179 144.109 238.563 143.955 238.793C143.725 239.1 143.571 239.408 143.341 239.638C143.341 239.715 143.264 239.715 143.264 239.792C143.341 239.715 143.341 239.561 143.341 239.561Z" fill="#F2F4F7"/>
<path d="M282.125 236.105C280.819 239.484 280.896 243.248 280.973 246.934C281.587 268.823 282.202 290.712 282.816 312.525C300.865 318.131 320.219 312.294 339.113 312.294C336.809 293.247 336.502 273.969 338.038 254.768C338.345 250.774 340.726 241.404 337.577 238.102C334.582 235.03 325.135 238.025 321.295 238.332C314.613 238.793 307.931 238.793 301.249 238.332C299.482 238.332 282.125 236.028 282.125 236.105Z" fill="#F2F4F7"/>
<path d="M351.171 189.408C390.648 187.104 430.279 187.795 469.833 188.563C470.601 188.563 471.446 188.64 472.137 189.101C472.982 189.715 473.212 190.944 473.289 191.943C474.211 199.93 474.672 207.995 474.748 216.136C474.748 225.045 474.287 233.954 473.75 242.864C473.135 253.693 472.521 264.522 471.83 275.428C471.83 275.735 471.753 276.119 471.523 276.35C471.215 276.657 470.755 276.734 470.371 276.734C442.491 278.5 414.534 279.576 386.655 279.883C379.742 279.96 372.83 280.036 365.918 280.036C362.461 280.036 358.928 280.036 355.472 279.96C352.631 279.96 350.48 280.651 350.173 277.425C349.482 270.743 350.326 263.447 350.403 256.688C350.48 249.699 350.557 242.787 350.634 235.798C350.71 231.881 350.787 189.408 351.171 189.408Z" fill="#F2F4F7"/>
<path d="M223.908 184.493C234.814 184.032 252.709 183.494 263.615 183.034C264.613 182.957 265.765 182.957 266.534 183.648C267.225 184.262 267.378 185.338 267.455 186.336C269.606 212.219 269.913 238.332 268.3 264.215C257.701 262.833 247.025 261.988 236.273 261.681C233.047 261.604 225.904 262.986 223.677 260.221C221.757 257.84 224.061 250.237 224.368 247.472C225.06 242.096 222.986 184.57 223.908 184.493Z" fill="#F2F4F7"/>
<path d="M209.853 208.532C208.393 205.614 205.705 205.383 203.401 205.46C183.125 205.921 162.925 206.382 142.649 206.843C135.814 206.996 129.746 205.844 127.826 217.749C125.906 230.037 127.903 245.782 128.133 258.378C128.133 260.452 128.21 262.602 128.901 264.292C130.054 267.21 132.588 267.902 134.739 268.286C159.162 272.663 183.816 273.662 208.316 271.358C209.084 271.281 209.853 271.204 210.467 270.513C211.619 269.284 211.696 266.673 211.696 264.522C211.389 248.163 211.158 231.804 210.851 215.522C210.851 213.141 210.774 210.529 209.853 208.532Z" fill="#F2F4F7"/>
<path d="M307.777 226.351C307.777 227.196 307.854 228.117 308.315 228.808C309.083 229.884 310.696 230.037 312.002 230.037C322.524 230.037 332.969 230.037 343.491 230.114C344.259 230.114 345.027 230.114 345.642 229.653C346.64 228.962 346.794 227.503 346.717 226.274C346.486 215.061 346.256 203.77 346.102 192.557C337.731 191.866 318.376 188.333 311.464 194.477C304.936 200.238 307.701 218.594 307.777 226.351Z" fill="#F2F4F7"/>
<path d="M1403.03 262.656C1407.1 263.04 1411.25 263.501 1415.32 262.656C1419.39 261.811 1423.3 259.507 1424.99 255.743C1426.07 253.362 1426.07 250.674 1426.07 248.063C1426.07 236.773 1425.15 225.406 1423.53 214.269C1389.66 212.81 1356.33 224.331 1322.38 224.1C1316.01 224.023 1308.18 224.331 1305.1 229.937C1303.72 232.472 1303.72 235.467 1303.72 238.386C1303.72 243.608 1300.96 261.196 1306.26 263.577C1309.4 264.96 1318.47 262.349 1322 262.041C1327.61 261.58 1333.21 261.196 1338.82 260.966C1360.25 260.044 1381.6 260.889 1403.03 262.656Z" fill="#F2F4F7"/>
<path d="M326.671 324.89C327.669 324.89 328.821 324.967 329.512 325.735C330.05 326.349 330.127 327.194 330.204 327.962C331.97 346.856 332.354 365.826 331.279 384.797C331.202 386.102 331.125 387.408 330.281 388.406C329.436 389.405 327.976 389.712 326.671 389.866C313.077 391.939 299.098 391.863 285.504 389.789C287.347 390.096 282.509 338.945 282.432 334.567C282.125 323.123 285.811 324.352 296.333 324.506C306.471 324.659 316.609 324.736 326.671 324.89Z" fill="#F2F4F7"/>
<path d="M350.096 343.323C361.54 344.167 373.06 343.476 384.274 341.249C385.119 341.095 386.04 340.865 386.655 340.327C387.73 339.406 387.883 337.716 387.96 336.257C388.344 320.742 387.269 305.151 384.735 289.867C375.364 289.253 350.634 284.645 346.563 296.242C345.104 300.543 346.87 343.092 350.096 343.323Z" fill="#F2F4F7"/>
<path d="M238.27 299.391C247.717 300.082 257.24 299.237 266.38 296.933C267.071 296.78 267.762 296.549 268.223 296.088C268.684 295.628 268.838 295.013 268.991 294.476C270.911 287.333 269.606 279.729 268.146 272.433C268.07 272.126 267.993 271.742 267.762 271.511C267.455 271.127 266.918 271.127 266.457 271.127C261.849 271.051 257.24 271.127 252.709 271.435C248.561 271.742 241.956 271.281 238.193 273.124C235.044 274.583 236.887 281.265 237.118 284.491C237.502 289.407 237.886 294.399 238.27 299.391Z" fill="#F2F4F7"/>
<path d="M1379.55 302.68C1370.64 303.678 1361.5 303.218 1352.74 301.221C1352.13 301.067 1351.44 300.913 1350.98 300.453C1350.59 300.069 1350.36 299.454 1350.21 298.84C1348.14 291.697 1349.13 284.093 1350.21 276.797C1350.29 276.49 1350.29 276.106 1350.52 275.875C1350.82 275.491 1351.28 275.491 1351.75 275.415C1356.12 275.107 1360.5 275.107 1364.8 275.184C1368.72 275.338 1375.02 274.647 1378.63 276.336C1381.62 277.719 1380.16 284.401 1380.09 287.703C1379.93 292.696 1379.78 297.688 1379.55 302.68Z" fill="#F2F4F7"/>
<path d="M1308.9 308.433C1318.34 309.124 1327.87 308.279 1337.01 305.975C1337.7 305.822 1338.39 305.591 1338.85 305.13C1339.31 304.67 1339.46 304.055 1339.62 303.518C1341.54 296.375 1340.23 288.771 1338.77 281.475C1338.7 281.168 1338.62 280.784 1338.39 280.553C1338.08 280.169 1337.54 280.169 1337.08 280.169C1332.48 280.093 1327.87 280.169 1323.34 280.477C1319.19 280.784 1312.58 280.323 1308.82 282.166C1305.67 283.625 1307.51 290.307 1307.74 293.533C1308.13 298.525 1308.44 303.441 1308.9 308.433Z" fill="#F2F4F7"/>
<path d="M265.458 345.858C256.319 346.856 247.026 346.395 237.963 344.398C237.348 344.245 236.657 344.091 236.196 343.63C235.735 343.246 235.582 342.632 235.428 342.017C233.354 334.875 234.353 327.271 235.428 319.975C235.505 319.668 235.505 319.284 235.735 319.053C236.043 318.669 236.58 318.669 236.964 318.592C241.419 318.285 245.873 318.208 250.405 318.362C254.475 318.516 260.85 317.824 264.614 319.514C267.686 320.896 266.15 327.578 266.073 330.881C265.919 335.873 265.689 340.865 265.458 345.858Z" fill="#F2F4F7"/>
</svg>
