<svg width="1657" height="939" viewBox="0 0 1657 939" fill="none" xmlns="http://www.w3.org/2000/svg">
<rect width="1667" height="939" fill="white"/>
<path d="M1324.5 694.691C1323.27 696.281 1322.74 698.756 1322.74 700.877C1322.74 703.704 1323.27 706.532 1324.15 709.183C1324.5 710.244 1325.03 711.304 1325.92 711.658C1326.09 711.658 1326.27 711.834 1326.45 711.834H1326.62C1327.33 715.192 1328.21 718.197 1329.81 720.141C1333.34 724.559 1337.58 729.685 1343.06 729.685C1345 729.685 1347.3 728.801 1349.07 728.271C1355.43 726.327 1358.97 718.904 1359.67 711.127C1359.67 711.127 1359.67 711.304 1359.67 711.481C1359.85 711.834 1360.2 712.365 1360.56 712.188C1360.73 712.188 1360.91 712.011 1360.91 711.834C1362.33 709.183 1362.5 706.002 1362.68 702.821C1362.68 700.877 1362.68 698.756 1362.15 696.812C1361.79 695.398 1360.91 692.57 1359.32 691.863C1359.5 691.51 1359.5 690.979 1359.5 690.626C1359.5 689.035 1357.91 687.621 1356.85 686.738C1354.2 684.44 1350.66 683.203 1347.13 683.38C1342.88 683.556 1338.64 685.147 1335.11 687.798C1334.22 688.505 1333.16 689.212 1332.1 689.565C1331.4 689.742 1330.69 689.565 1330.51 689.035C1330.51 688.682 1330.51 688.505 1330.69 688.152C1331.04 686.738 1330.69 685.147 1329.63 684.087C1329.28 683.556 1328.75 683.203 1328.04 682.849C1326.62 682.143 1324.86 682.849 1323.44 683.556C1322.38 684.087 1321.32 684.97 1320.97 686.031C1320.62 686.738 1320.62 687.445 1320.62 688.152C1320.62 689.389 1320.97 690.626 1321.5 691.863C1322.38 692.747 1323.44 693.807 1324.5 694.691Z" fill="#F2F4F7"/>
<path d="M1463.77 812.751C1460.24 795.43 1456.7 778.11 1452.99 760.79C1453.52 760.437 1453.87 760.083 1454.23 759.553C1454.76 758.669 1454.76 757.432 1454.58 756.372C1454.23 753.19 1452.64 750.363 1451.05 747.712C1451.75 745.237 1452.46 742.586 1452.99 739.935C1452.99 739.405 1453.17 738.875 1453.34 738.168C1453.7 738.168 1453.87 738.168 1454.05 738.168C1457.41 737.991 1460.59 734.28 1456.53 732.335C1456.35 732.335 1456.35 732.335 1456.17 732.335C1457.41 731.275 1457.41 728.977 1457.59 726.857V726.68C1457.76 726.68 1457.76 726.503 1457.76 726.326C1457.94 716.429 1456.53 706.532 1453.87 696.811C1455.64 695.928 1457.06 694.514 1458.12 692.923C1460.77 689.035 1460.94 683.733 1459 679.314C1458.12 677.547 1456.88 675.78 1456 674.012C1452.46 667.473 1451.93 659.697 1450.34 652.45C1449.99 651.037 1449.63 649.446 1448.75 648.209C1447.34 646.088 1444.86 645.028 1442.56 644.321C1439.74 643.26 1436.73 642.376 1433.73 641.846C1430.37 641.316 1427.01 641.493 1423.65 642.2C1419.76 643.083 1415.7 645.028 1413.23 648.209C1411.63 650.153 1410.75 652.627 1409.87 655.102C1406.69 665.529 1407.39 676.84 1411.63 686.914C1409.87 687.621 1408.28 689.035 1407.39 690.626C1406.16 693.277 1405.45 696.458 1404.74 699.286C1404.03 702.113 1403.33 704.765 1402.62 707.592C1402.09 709.536 1401.56 711.657 1401.03 713.601C1400.32 711.304 1399.62 709.006 1398.91 706.709C1397.14 701.937 1395.73 696.988 1394.14 692.216C1394.31 691.333 1393.78 690.449 1393.43 689.742C1392.72 688.505 1392.19 687.268 1392.02 685.677C1391.84 684.97 1391.84 684.263 1391.49 683.733C1391.13 683.203 1390.43 682.672 1389.72 682.849C1389.54 682.849 1389.37 683.026 1389.37 683.026C1389.19 683.026 1389.01 683.026 1388.84 682.849C1387.95 682.319 1387.42 681.612 1386.71 680.905C1386.01 680.198 1385.12 679.491 1384.06 679.668C1382.47 679.845 1381.41 681.435 1381.41 683.026C1381.41 684.617 1382.3 685.854 1383.18 687.091C1384.24 688.505 1385.12 690.095 1386.18 691.509C1386.89 692.57 1387.78 693.807 1389.01 694.337C1389.54 694.514 1390.07 694.514 1390.6 694.514C1390.96 695.928 1391.31 697.165 1391.66 698.579C1392.37 701.23 1392.9 703.881 1393.61 706.709C1394.67 711.304 1395.91 716.076 1397.14 720.671C1396.61 720.848 1396.08 721.201 1395.73 721.555C1395.02 722.438 1395.55 723.322 1395.73 724.206C1396.08 725.973 1396.97 726.68 1398.38 726.503C1398.38 727.917 1399.26 729.508 1399.79 730.745C1400.32 731.805 1400.68 733.042 1401.74 733.573C1403.5 734.456 1406.69 732.866 1407.57 731.098C1408.63 728.977 1407.39 726.68 1406.51 724.559C1406.69 724.206 1406.86 723.675 1407.04 723.499C1409.69 719.08 1409.51 715.015 1411.28 710.42C1412.34 713.778 1413.93 716.783 1415.7 719.787C1416.05 720.494 1416.58 721.201 1416.58 722.085C1416.58 722.792 1416.23 723.322 1415.88 723.852C1409.69 734.28 1404.74 745.591 1401.38 757.255C1401.38 757.079 1405.45 757.079 1409.51 757.432C1407.75 760.437 1407.75 766.269 1407.04 769.627C1405.98 775.283 1405.1 780.938 1404.21 786.594C1404.03 786.594 1403.68 786.594 1403.5 786.594L1403.33 786.417C1401.91 785.356 1400.32 786.063 1398.73 786.063C1397.5 786.063 1396.26 786.063 1394.84 786.063C1395.55 781.468 1395.91 777.05 1396.61 772.455C1397.5 766.976 1398.2 761.674 1399.09 756.195C1399.79 751.6 1399.97 746.828 1399.97 742.233C1399.97 741.703 1399.97 740.996 1399.44 740.465C1398.91 739.935 1398.2 739.935 1397.67 739.935C1395.37 739.758 1393.61 739.582 1391.13 739.582C1390.43 739.582 1389.72 739.582 1389.01 739.758C1388.84 738.875 1388.48 737.991 1387.78 737.284C1387.07 736.754 1386.01 736.577 1385.12 736.577C1378.76 736.047 1373.11 735.517 1367.8 735.163C1367.63 734.633 1367.63 733.926 1367.27 733.396C1366.57 731.805 1364.98 730.568 1363.39 730.922C1363.03 730.922 1362.68 731.098 1362.33 731.275C1362.15 730.568 1361.97 729.684 1361.79 728.977C1361.62 728.447 1361.62 727.917 1361.26 727.74C1360.91 727.387 1360.38 727.387 1359.85 727.387C1355.96 727.387 1352.6 729.331 1349.07 730.745C1345.54 732.159 1343.06 731.275 1339.53 731.452C1337.58 731.629 1336.7 732.335 1335.99 733.749C1335.64 733.573 1335.28 733.219 1334.93 733.219C1332.63 732.512 1330.16 733.396 1328.39 734.81C1328.04 734.987 1327.86 735.34 1327.51 735.517C1326.45 735.517 1325.56 735.693 1324.5 735.693C1324.33 735.517 1324.15 735.34 1323.97 734.987C1318.67 728.801 1317.79 720.141 1314.25 713.071C1310.89 706.178 1305.06 700.7 1300.82 694.337C1299.23 691.863 1297.99 689.212 1296.05 687.091C1293.57 684.263 1288.8 681.612 1285.09 683.203C1284.74 682.849 1284.38 682.496 1283.85 682.319C1282.62 681.612 1281.2 681.612 1279.79 681.612C1279.61 681.612 1279.26 681.612 1279.08 681.612C1279.79 681.435 1280.32 681.082 1280.67 680.552C1281.03 680.198 1281.03 679.668 1281.2 679.314C1281.91 677.194 1283.5 675.25 1284.38 673.129C1285.09 671.361 1285.44 669.594 1285.27 667.827C1287.21 664.292 1289.16 660.934 1291.1 657.399C1292.34 655.102 1293.57 652.804 1293.93 650.33C1294.63 645.381 1291.81 640.256 1287.74 637.251C1283.68 634.247 1278.73 632.656 1273.78 631.419C1271.13 630.712 1268.3 630.182 1265.65 630.182C1262.82 630.182 1256.64 633.716 1254.34 635.307C1251.69 637.074 1250.1 639.902 1249.04 642.907C1247.8 646.618 1248.51 649.799 1250.1 652.804C1249.92 653.334 1249.74 654.041 1249.57 654.571C1249.21 657.753 1252.22 662.171 1253.1 665.352C1253.46 666.413 1254.16 668.887 1255.58 669.064C1255.93 669.064 1256.11 669.064 1256.28 668.887C1258.05 672.598 1262.29 674.896 1263.35 678.784C1263.71 680.021 1263.88 681.612 1265.12 682.319C1265.65 682.672 1266.18 682.672 1266.71 682.672C1262.29 683.379 1257.87 684.617 1254.16 686.384C1253.46 686.737 1252.75 687.091 1252.22 687.621C1247.98 685.5 1244.97 689.742 1243.2 693.807C1232.6 693.63 1222 693.277 1211.39 693.984C1210.69 693.984 1209.98 694.16 1209.09 694.16C1209.27 693.453 1209.8 692.746 1210.51 692.393C1211.22 692.04 1212.1 691.863 1212.98 691.686C1213.51 691.686 1213.87 691.509 1214.22 691.333C1214.57 691.156 1214.75 690.626 1214.4 690.272C1214.22 690.095 1213.87 690.095 1213.51 690.095C1210.51 690.449 1207.68 690.979 1204.85 691.863C1204.5 692.04 1203.97 692.039 1203.62 692.039C1203.26 692.039 1202.91 691.509 1203.09 691.156C1203.97 691.156 1204.68 690.449 1204.5 689.742C1203.44 689.742 1202.38 689.919 1201.49 690.095C1199.55 690.802 1198.84 692.216 1199.2 693.63C1198.67 693.453 1198.14 693.453 1197.61 693.63C1196.72 694.337 1195.84 694.867 1194.96 695.574C1191.42 695.928 1186.47 696.458 1184.7 698.402C1183.82 699.286 1183.64 701.053 1183.64 702.82C1179.4 705.295 1174.81 707.592 1169.86 710.067C1168.62 710.597 1166.68 711.657 1164.91 712.718C1159.61 703.174 1154.31 693.453 1148.83 683.91C1148.12 682.672 1147.41 681.259 1146.18 680.375C1145.82 680.198 1145.47 680.021 1145.12 679.845C1144.23 678.961 1143.17 678.254 1141.76 677.901C1140.34 677.547 1138.75 677.724 1137.16 677.901C1128.5 678.961 1118.08 680.375 1110.3 683.91C1107.82 684.97 1106.59 686.737 1105.88 688.681C1104.64 690.095 1103.76 691.863 1103.05 693.453C1099.69 700.876 1096.69 708.299 1094.22 716.076C1093.16 719.434 1090.68 724.559 1091.03 728.094C1091.03 728.624 1091.21 728.977 1091.56 729.331C1091.56 729.508 1091.56 729.684 1091.74 730.038C1091.92 730.568 1092.45 731.098 1092.98 731.629C1094.39 732.866 1096.16 734.28 1098.1 734.81C1096.87 741.349 1095.98 747.888 1095.81 753.721C1095.63 761.851 1095.45 769.98 1097.04 777.934C1097.22 778.817 1097.57 780.054 1098.46 780.585C1099.16 780.938 1099.87 780.938 1100.58 780.938C1100.58 781.468 1100.58 781.822 1100.58 782.352C1101.11 800.733 1101.99 819.113 1103.23 837.494C1104.29 854.284 1107.29 871.074 1108.88 888.041C1109.59 894.58 1109.95 894.933 1110.48 903.593C1110.48 904.654 1111.54 905.007 1112.07 905.537C1112.07 905.537 1112.24 905.537 1112.24 905.361C1113.13 908.188 1114.89 911.016 1115.95 912.607C1117.19 914.551 1118.61 916.318 1120.9 917.202C1122.32 917.732 1123.91 917.909 1125.5 917.909C1128.33 917.909 1130.98 917.556 1133.8 916.849C1134.33 916.672 1135.04 916.495 1135.22 915.965C1135.22 915.788 1135.22 915.611 1135.22 915.258C1134.86 913.137 1133.1 911.546 1131.51 909.779C1129.21 907.128 1127.27 904.124 1125.85 900.942C1125.32 899.882 1124.44 898.821 1123.38 897.938C1125.67 866.302 1124.79 840.498 1132.04 808.862C1132.39 807.095 1132.74 805.504 1133.27 803.737C1134.16 806.211 1135.04 808.509 1135.75 810.983C1141.76 827.95 1144.59 844.74 1150.42 861.707C1152.54 867.716 1155.01 873.548 1156.78 879.734C1159.08 887.864 1158.9 894.58 1161.55 902.356C1161.02 902.533 1160.67 902.533 1160.14 902.71C1160.85 905.184 1161.55 907.658 1162.26 910.133C1162.44 910.663 1162.61 911.193 1162.97 911.546C1163.5 911.9 1164.03 911.9 1164.73 911.9C1169.33 912.077 1173.75 911.9 1178.34 911.9C1178.34 917.379 1178.34 922.504 1178.7 925.685C1181.88 926.216 1184.7 926.216 1187.71 925.509C1188.24 924.272 1188.59 922.681 1188.59 921.09C1188.42 917.909 1188.42 914.728 1188.42 911.37C1190.54 911.193 1192.48 911.193 1194.6 911.016C1194.6 908.719 1194.6 906.244 1192.66 904.654C1191.6 903.77 1190.01 903.417 1188.42 903.24C1188.77 873.902 1191.07 838.908 1189.12 811.513C1193.72 811.513 1197.96 811.513 1200.96 811.513C1211.39 811.513 1221.82 811.513 1232.25 811.513C1237.37 811.513 1242.85 811.513 1248.68 811.513C1246.21 847.214 1243.2 891.575 1243.2 903.417C1242.85 903.417 1242.67 903.417 1242.32 903.417C1238.43 905.361 1234.01 906.951 1229.6 908.012C1228.36 908.365 1226.94 908.719 1225.88 909.426C1224.82 910.133 1224.47 911.37 1225.18 912.253C1225.88 912.96 1227.3 913.137 1228.36 913.137C1237.55 913.667 1246.74 913.491 1255.75 912.784C1256.28 912.784 1256.81 912.607 1257.34 912.43C1257.7 912.253 1257.87 911.9 1258.05 911.546C1259.11 909.072 1258.76 906.244 1257.17 903.77C1256.81 903.77 1256.46 903.77 1256.11 903.77C1256.99 895.994 1262.82 843.68 1268.65 811.69C1273.07 811.69 1277.49 811.69 1281.91 811.69C1282.09 814.341 1282.26 817.169 1282.44 819.997C1281.91 820.35 1281.56 820.527 1281.03 820.881C1278.55 822.825 1277.14 826.183 1275.72 829.187C1275.02 830.955 1274.31 832.545 1273.78 834.489C1273.43 836.257 1273.43 838.024 1273.43 839.791C1273.43 846.507 1273.78 853.223 1274.49 859.763C1275.55 871.604 1277.85 883.269 1279.44 895.11C1279.79 897.231 1279.61 900.235 1280.32 902.71C1280.14 902.71 1280.14 902.886 1279.97 902.886C1279.79 903.063 1279.97 903.417 1279.97 903.593C1280.5 905.361 1280.67 907.482 1279.61 908.895C1278.91 909.956 1277.67 910.663 1276.43 911.016C1274.66 911.723 1269.89 912.607 1268.3 913.667C1266.71 914.728 1265.47 916.495 1266 918.439L1266.53 920.56C1274.66 920.207 1284.74 917.909 1292.34 915.081C1293.57 914.551 1295.17 913.844 1295.17 912.43C1295.17 912.077 1295.17 911.723 1294.99 911.37C1299.94 911.546 1305.24 911.546 1308.77 911.546C1308.77 911.723 1308.77 911.9 1308.6 912.077C1308.07 913.314 1307.01 914.198 1305.95 914.904C1303.65 916.318 1301.17 917.202 1298.7 918.262C1297.82 918.793 1296.76 919.323 1296.05 920.03C1294.99 921.267 1294.81 923.034 1294.81 924.625C1294.81 925.332 1294.81 926.039 1295.34 926.569C1295.87 926.923 1296.58 926.923 1297.29 926.923C1305.42 926.039 1313.37 924.448 1321.15 922.151C1322.21 922.504 1323.27 922.858 1324.33 922.858C1325.21 922.858 1326.27 922.858 1327.15 922.327C1329.98 920.914 1331.75 914.551 1329.28 912.077C1328.75 911.723 1328.21 911.37 1327.33 911.193C1327.51 907.128 1328.21 903.063 1331.04 900.412C1334.4 897.231 1339.35 897.054 1343.94 897.231C1344.83 897.231 1345.89 897.231 1346.77 897.231C1346.77 897.584 1346.95 897.761 1346.95 898.114C1347.3 901.472 1347.48 904.83 1347.83 908.188C1347.83 908.719 1348.01 909.249 1348.19 909.779C1348.01 909.779 1347.83 909.779 1347.66 909.956C1346.6 910.486 1345.89 911.37 1345.71 912.43C1345 914.728 1346.07 917.202 1347.83 918.616C1349.6 920.03 1352.25 920.207 1354.37 919.5C1355.96 918.969 1357.55 917.732 1358.08 916.142C1358.79 914.021 1357.38 911.37 1355.08 910.663C1355.08 910.663 1355.08 910.663 1354.9 910.663C1355.08 910.309 1355.08 910.133 1355.08 909.779C1355.26 905.714 1355.26 901.473 1354.37 897.584C1355.08 897.584 1355.96 897.584 1356.67 897.584C1360.03 897.584 1363.56 897.761 1366.57 899.175C1370.63 901.119 1373.11 905.361 1374.87 909.602C1372.05 911.193 1370.45 914.904 1372.05 917.732C1372.93 919.323 1374.7 920.383 1376.64 920.913C1378.76 921.444 1381.24 921.267 1383.18 920.207C1389.72 916.672 1386.36 911.016 1381.41 909.426C1379.47 902.886 1376.46 896.347 1370.63 893.166C1366.04 890.692 1360.73 890.692 1355.43 891.398C1355.61 890.692 1355.79 889.808 1355.79 889.101C1356.85 872.841 1358.08 855.167 1356.14 838.908C1357.02 838.908 1358.08 838.731 1358.97 838.731C1358.97 839.615 1358.97 840.322 1359.14 841.205C1359.85 841.736 1361.09 841.205 1361.62 840.498C1361.97 839.968 1362.15 839.261 1362.15 838.554C1362.5 838.554 1363.03 838.554 1363.39 838.377C1369.04 838.201 1375.23 838.024 1382.3 837.671C1384.06 837.671 1386.18 837.494 1387.6 836.257C1389.01 835.019 1389.72 833.252 1390.07 831.485C1392.37 823.178 1388.48 819.643 1389.54 812.22C1393.78 812.22 1398.03 812.22 1402.09 812.22C1401.91 814.165 1401.74 816.109 1401.56 818.053C1401.38 819.997 1401.38 822.294 1402.97 823.355C1403.86 823.885 1404.92 824.062 1405.8 824.239C1406.51 824.239 1407.22 824.415 1407.92 824.415C1406.86 858.879 1405.98 898.291 1405.8 908.895C1405.63 908.895 1405.27 909.072 1405.1 909.249C1404.74 909.602 1404.57 909.956 1404.39 910.309C1404.03 911.37 1403.5 912.43 1403.15 913.314C1402.8 914.374 1402.27 915.435 1401.56 916.318C1400.68 917.379 1399.62 918.262 1398.38 918.793C1397.5 919.323 1396.79 919.676 1395.91 920.03C1395.2 920.383 1394.31 920.56 1393.78 921.09C1392.55 922.504 1395.02 923.034 1395.91 923.034C1399.09 923.034 1402.09 922.504 1405.1 921.797C1405.45 921.797 1405.63 921.62 1405.98 921.444C1406.33 921.09 1406.51 920.737 1406.69 920.207C1407.04 919.323 1407.57 918.439 1408.45 917.732C1408.63 917.556 1408.63 917.556 1408.81 917.556C1408.81 917.556 1408.98 917.556 1408.98 917.732C1408.98 921.797 1409.16 925.155 1409.69 926.392C1410.75 929.043 1417.64 929.574 1417.64 929.22C1416.05 919.323 1418.35 895.11 1419.23 885.036C1420.47 870.897 1418.88 856.758 1418.53 842.796C1418.53 841.735 1418.53 840.852 1418.53 839.791C1419.23 834.843 1419.94 829.894 1420.65 825.299C1424.89 825.652 1429.31 826.006 1433.55 826.006C1434.96 857.465 1436.2 899.882 1435.49 908.542C1434.61 909.602 1434.61 911.016 1434.43 912.253C1433.9 914.021 1432.49 915.788 1430.55 916.849C1428.6 917.909 1426.48 918.262 1424.54 919.323C1423.48 919.853 1422.24 921.267 1422.42 922.327C1422.77 923.565 1424.89 923.388 1426.13 923.211C1428.07 923.034 1430.19 922.681 1432.14 922.504C1433.37 922.327 1434.61 922.151 1435.32 921.444C1435.67 920.914 1435.85 920.383 1436.38 920.03C1436.73 919.5 1437.61 919.323 1438.15 919.676C1438.5 919.853 1438.5 920.207 1438.5 920.56C1438.68 921.267 1438.68 921.797 1438.85 922.504C1439.38 922.327 1440.27 922.504 1440.62 922.151C1440.8 921.974 1440.97 921.62 1440.97 921.267C1441.15 917.202 1440.97 913.137 1440.09 909.072C1440.09 908.895 1440.09 908.895 1439.91 908.719C1440.8 901.649 1445.39 861.883 1448.93 825.476C1451.75 825.122 1454.76 824.769 1457.59 824.062C1460.24 823.532 1463.06 822.471 1464.48 820.174C1464.66 817.699 1464.13 815.048 1463.77 812.751ZM1158.72 808.686C1158.72 807.979 1158.55 807.449 1158.55 806.742C1158.72 807.272 1158.72 807.802 1158.9 808.332C1158.72 808.509 1158.72 808.509 1158.72 808.686ZM1158.02 804.091C1157.66 801.263 1157.31 798.435 1156.96 795.607C1157.49 795.607 1158.02 795.607 1158.55 795.607C1158.19 797.021 1158.19 798.435 1158.02 799.672C1157.84 801.263 1157.84 802.677 1158.02 804.091ZM1308.6 772.985C1308.77 776.343 1308.95 779.701 1309.13 783.059C1307.89 783.059 1306.65 783.059 1305.42 783.059C1305.59 779.878 1305.77 777.05 1305.77 774.399C1306.65 774.045 1307.54 773.515 1308.6 772.985ZM1250.63 766.976C1250.45 770.334 1249.92 775.813 1249.57 782.882C1249.21 782.882 1248.86 782.882 1248.33 782.882C1246.74 783.059 1245.15 783.059 1243.56 782.882C1241.08 782.705 1238.43 781.998 1237.37 779.701C1237.02 778.817 1237.02 777.934 1237.02 777.05C1236.84 773.692 1236.67 770.511 1236.67 767.153C1241.08 767.329 1245.86 767.153 1250.63 766.976ZM1249.21 786.24C1249.21 786.417 1249.21 786.594 1249.21 786.594C1245.68 786.594 1242.14 786.594 1238.79 786.417C1242.14 786.417 1245.68 786.24 1249.21 786.24ZM1449.1 722.968C1448.04 725.266 1447.69 728.094 1447.16 730.568C1446.81 730.568 1446.63 730.568 1446.28 730.568C1444.51 730.922 1443.8 732.689 1443.62 734.456C1443.45 735.87 1444.68 736.754 1446.28 737.284C1446.28 737.461 1446.28 737.814 1446.28 737.991C1446.28 738.521 1446.1 739.051 1446.1 739.582C1444.33 736.754 1442.56 733.749 1440.97 730.745C1440.62 730.038 1440.27 729.331 1440.27 728.624C1440.09 727.74 1440.44 727.033 1440.62 726.15C1442.74 719.257 1444.68 712.187 1446.81 705.295C1447.87 708.476 1448.75 711.481 1449.28 714.839C1449.63 716.783 1449.81 719.08 1450.34 721.201C1449.63 721.908 1449.28 722.438 1449.1 722.968ZM1436.2 684.44C1437.61 684.617 1438.85 684.617 1440.27 684.97C1439.21 685.147 1438.5 686.207 1437.97 687.444C1436.02 686.914 1433.9 686.561 1431.78 686.561C1433.37 686.03 1434.96 685.324 1436.2 684.44ZM1443.45 686.737C1442.74 686.03 1442.21 685.323 1441.86 685.147C1441.86 685.147 1441.68 685.147 1441.68 684.97C1442.03 684.97 1442.39 685.147 1442.74 685.147C1443.27 685.323 1443.8 685.324 1444.15 685.324V685.5C1443.98 686.03 1443.8 686.384 1443.45 686.737ZM1421.18 685.5C1422.24 685.324 1423.3 685.147 1424.36 684.97C1425.77 685.854 1427.36 686.384 1429.13 686.561C1427.19 686.737 1425.42 687.091 1423.65 687.798C1423.65 687.621 1423.48 687.444 1423.48 687.091C1421.71 687.268 1420.12 687.621 1418.35 687.975C1418.17 687.798 1418.17 687.444 1418 687.268C1418.7 686.384 1420.12 685.854 1421.18 685.5ZM1307.18 722.615C1310.72 726.857 1312.84 731.982 1315.67 736.754C1313.19 736.931 1310.54 737.284 1309.13 739.228C1307.89 740.819 1307.89 742.94 1307.89 744.884C1307.89 750.539 1308.07 756.018 1308.24 761.674C1307.54 762.557 1306.65 763.441 1305.77 764.325C1305.77 764.325 1305.77 764.325 1305.77 764.148C1305.77 764.148 1305.95 759.906 1301.88 756.372C1302.76 755.665 1303.3 754.781 1303.47 753.721C1303.65 753.014 1303.47 752.13 1303.47 751.423C1303.12 747.712 1302.76 744.177 1302.41 740.465C1301.53 731.452 1300.64 722.261 1298.35 713.425C1298.88 714.132 1299.58 714.839 1300.29 715.545C1302.41 718.02 1305.06 720.141 1307.18 722.615ZM1159.08 719.787C1159.61 720.494 1160.49 721.201 1162.08 721.908C1164.38 722.968 1167.38 722.615 1169.86 721.731C1172.33 720.671 1174.28 719.08 1176.22 717.49C1178.7 715.546 1180.99 713.601 1183.47 711.657C1183.64 716.076 1183.64 720.671 1183.82 725.089C1184.17 736.754 1184.7 748.418 1185.23 760.083C1185.23 761.497 1185.41 762.911 1186.12 764.148C1187.53 766.622 1190.71 766.976 1193.36 766.976C1201.32 766.976 1209.09 767.153 1216.69 767.329C1216.52 768.213 1216.16 769.097 1215.99 769.98C1214.93 774.045 1214.4 780.585 1215.63 784.473C1215.81 785.003 1215.99 785.71 1216.52 785.887C1216.87 786.063 1217.22 786.063 1217.58 786.24C1218.81 786.417 1219.88 786.417 1221.11 786.594C1199.37 786.594 1177.81 787.301 1156.07 787.654C1155.72 783.943 1155.19 780.054 1153.95 776.343C1154.48 776.166 1155.01 775.989 1155.37 775.636C1156.07 774.929 1155.9 774.045 1155.9 773.162C1155.01 760.083 1154.13 742.94 1153.07 730.038C1152.72 724.559 1152.36 718.903 1151.65 713.425C1153.78 715.369 1155.9 717.313 1158.02 719.257C1158.37 719.257 1158.72 719.434 1159.08 719.787ZM1176.57 902.356C1175.34 902.356 1173.92 902.179 1172.86 901.472C1172.51 901.296 1172.16 900.942 1171.8 900.589C1171.63 900.589 1171.45 900.589 1171.27 900.589C1168.8 887.51 1167.38 875.669 1165.62 862.237C1164.03 849.689 1162.26 836.964 1160.67 824.415C1160.14 819.82 1159.43 815.402 1158.9 810.807C1159.25 810.983 1160.32 811.16 1162.44 811.16C1165.62 811.337 1171.1 811.337 1176.93 811.337C1177.11 811.337 1177.46 811.337 1177.64 811.337C1177.28 813.104 1177.28 815.048 1177.28 816.992C1177.64 838.024 1177.81 858.879 1177.64 879.911C1177.64 884.859 1177.28 893.696 1177.11 902.533C1176.93 902.356 1176.75 902.356 1176.57 902.356ZM1296.93 900.059C1296.93 900.059 1296.05 900.059 1294.63 899.882C1295.52 891.929 1297.29 874.962 1299.23 855.521V855.698C1301.7 872.488 1304.71 889.278 1308.42 905.891C1308.07 905.714 1307.71 905.537 1307.18 905.361C1299.05 902.71 1297.82 902.533 1296.93 900.059ZM1346.95 864.181C1346.95 866.479 1346.95 886.803 1345.89 891.752C1341.47 892.459 1337.05 893.343 1332.63 894.226C1329.28 894.933 1325.74 895.817 1323.62 898.291C1321.68 900.589 1321.32 903.593 1320.97 906.421C1320.97 906.421 1320.97 906.421 1320.97 906.598C1320.79 905.891 1320.62 905.007 1320.44 904.3C1319.91 902.886 1319.38 902.71 1318.32 902.71C1317.08 888.04 1317.26 873.195 1317.43 858.349C1317.43 854.637 1317.61 850.749 1318.49 847.038C1319.2 844.033 1320.44 841.382 1322.21 838.908C1330.69 838.908 1338.82 838.554 1346.95 838.024C1346.95 838.201 1346.95 838.201 1346.95 838.377C1346.42 847.214 1347.13 855.698 1346.95 864.181Z" fill="#F2F4F7"/>
<path d="M1114.89 668.003C1116.13 668.71 1115.95 669.417 1116.48 668.18C1116.66 667.826 1116.48 667.473 1116.48 667.119C1116.48 666.943 1116.48 666.942 1116.48 666.766C1116.84 667.296 1117.19 667.826 1117.54 668.356C1119.67 671.184 1122.32 673.835 1125.85 675.249C1129.56 676.663 1133.98 676.486 1137.52 674.896C1141.05 673.305 1143.7 670.3 1144.59 666.942C1144.94 665.529 1144.94 664.115 1145.12 662.701C1145.29 658.282 1148.12 645.381 1143.52 642.199C1143.52 642.199 1143.52 642.199 1143.35 642.199C1147.41 641.492 1151.65 639.902 1154.13 636.897C1156.6 633.893 1156.78 629.474 1153.78 627C1153.95 628.414 1152.89 629.828 1151.48 630.535C1150.06 631.242 1146.71 630.711 1145.12 630.888C1139.99 631.418 1134.86 630.888 1129.74 630.358C1124.61 630.005 1119.31 629.828 1114.36 630.888C1109.41 632.125 1106.41 635.66 1104.47 639.725C1103.41 642.199 1103.23 644.85 1103.23 647.325C1103.23 651.39 1105.7 654.748 1107.12 658.459C1108.18 662.524 1111.01 666.059 1114.89 668.003Z" fill="#F2F4F7"/>
<path d="M260.727 677.234C261.623 677.384 262.52 677.384 263.416 677.384C263.416 683.66 266.405 689.787 270.888 695.167C273.279 698.006 276.418 700.696 280.602 702.041C284.786 703.386 290.017 703.236 294.051 701.593C298.086 699.949 301.224 696.96 302.121 693.672C302.569 692.327 302.569 690.833 302.719 689.339C302.868 688.143 303.167 686.201 303.317 684.108C303.317 684.557 303.466 685.005 303.466 685.453C305.409 681.12 306.754 676.636 307.949 672.153C309.145 667.222 309.444 661.543 304.512 657.957C300.776 655.267 295.097 654.818 290.017 655.267C282.844 655.864 275.82 658.106 270.291 661.543C268.049 662.888 266.106 664.382 263.566 665.578C261.175 666.774 258.186 667.521 255.347 667.222C252.209 666.773 251.611 664.831 249.369 663.785C248.473 665.279 248.323 667.371 248.622 669.015C249.818 673.349 255.048 676.487 260.727 677.234Z" fill="#F2F4F7"/>
<path d="M400.003 772.875C400.003 772.875 400.003 772.576 400.003 772.128C401.647 750.758 399.107 729.388 392.083 708.467C389.991 701.892 387.749 694.719 379.829 690.235C379.381 689.937 378.932 689.787 378.484 689.638C377.886 689.488 377.139 689.638 376.541 689.937C372.357 691.132 368.023 692.178 363.839 693.374C362.943 693.673 362.195 693.822 361.299 693.971C360.402 694.121 359.505 694.42 358.609 694.569C357.114 694.868 350.838 696.362 350.689 697.857C350.539 699.202 350.39 700.547 350.24 701.742C349.941 701.742 349.643 701.742 349.493 701.742C348.746 701.742 347.999 701.294 347.55 702.191C347.401 702.639 347.55 703.087 347.7 703.535C347.999 704.432 348.596 705.329 349.194 706.225C349.045 706.674 349.045 707.421 349.045 707.72C348.895 709.065 348.596 710.41 348.447 711.605C347.999 714.295 347.7 716.835 347.401 719.525C346.803 724.756 346.205 730.136 345.757 735.366C345.757 736.113 345.608 736.86 345.757 737.458C346.056 738.654 346.953 739.55 347.849 740.297C347.849 744.482 347.7 748.666 347.252 752.701C341.872 751.505 336.791 749.264 332.457 745.976C331.56 745.378 330.514 744.631 329.468 744.781C329.02 743.585 328.572 742.539 328.123 741.493C328.422 740.746 328.572 739.998 328.871 739.251C329.169 738.056 329.618 737.309 329.468 736.561C329.767 736.711 329.917 736.711 330.215 736.711C330.664 736.711 330.813 736.263 330.963 735.964C331.112 735.665 330.963 735.216 330.963 734.768V734.619L330.813 734.469C330.664 734.469 330.514 734.32 330.215 734.32C329.468 734.021 328.572 733.722 327.675 733.573C327.376 733.423 326.928 733.423 326.629 733.274C326.33 730.285 326.031 727.446 324.686 724.756C323.79 722.962 322.594 721.319 321.249 719.824C317.812 716.088 313.628 712.95 309.145 710.559C307.8 709.812 306.305 709.214 304.662 709.214C303.765 709.214 303.018 709.364 302.121 709.812C301.374 709.364 300.477 708.915 299.73 708.616C292.706 705.329 282.246 703.834 274.923 707.421C274.774 707.421 274.774 707.57 274.624 707.57C268.348 705.628 251.76 714.743 248.323 717.433C243.84 720.87 240.104 725.204 236.517 729.687C233.23 733.872 230.092 738.056 228.448 743.137C227.999 744.332 227.701 745.677 227.551 747.022C225.16 747.769 223.367 749.563 221.723 751.356C221.574 751.505 221.275 751.804 221.125 751.954C223.666 740.596 226.356 729.239 229.494 717.882C230.391 717.732 231.138 717.284 231.586 716.686C231.885 716.387 232.034 715.939 232.184 715.491C232.632 714.445 233.08 713.398 233.379 712.352C233.529 711.904 233.828 711.456 233.828 710.858C233.828 710.41 233.678 709.812 233.379 709.513C233.08 709.364 232.782 709.214 232.483 709.214C233.529 708.019 234.724 706.674 235.92 705.478C236.069 705.329 236.219 705.179 236.219 704.88C236.219 704.731 236.069 704.582 235.92 704.432C235.173 703.535 233.23 702.639 231.885 702.788C231.437 702.788 230.988 703.087 230.54 703.386C229.046 704.283 227.85 705.329 226.655 706.674C225.459 707.869 224.562 709.364 223.666 710.709C222.769 712.053 222.022 713.249 221.125 714.594C220.976 714.743 220.976 714.893 220.976 715.042C221.125 715.64 222.62 715.939 223.068 716.238C223.516 716.537 223.815 717.134 224.264 717.284C224.562 717.433 224.861 717.433 225.16 717.284C225.608 717.134 225.907 716.835 226.206 716.537C226.206 716.686 226.206 716.686 226.206 716.686C226.057 716.836 225.907 716.985 225.907 717.134C220.528 725.354 215.297 736.113 211.412 745.079C210.515 747.022 209.768 748.517 209.021 749.861C208.871 749.563 208.871 749.413 208.722 749.114C205.883 742.091 202.894 734.918 200.054 727.894C199.457 726.25 198.71 724.606 197.813 722.813C196.916 719.525 195.87 716.387 194.376 713.398C193.778 712.203 193.031 711.007 191.985 709.961C190.64 708.766 188.847 708.168 187.203 707.869C184.662 707.421 181.972 707.72 179.581 708.467C178.834 706.375 177.938 704.432 178.087 702.34C180.926 704.88 184.662 706.524 188.398 705.927C192.134 705.329 195.422 702.938 197.813 699.949C201.848 695.316 203.94 689.189 204.239 683.062C205.733 683.062 206.63 682.913 206.63 682.614C206.779 678.878 207.078 675.142 206.181 671.406C205.434 667.82 203.342 664.233 200.204 662.44C198.709 661.543 196.916 661.095 195.123 660.647C192.433 660.049 189.743 659.451 187.053 659.302C177.938 659.152 169.569 664.98 164.339 672.452C159.108 679.924 156.568 688.89 154.476 697.857C153.43 702.191 152.384 706.674 150.74 710.858C147.303 719.227 140.578 726.848 131.761 728.492C129.221 728.94 126.68 728.94 124.438 730.285C120.852 732.228 119.358 737.01 120.254 741.045C121.151 745.079 124.14 748.367 127.427 750.908C136.095 757.483 148.349 758.977 158.511 755.241C157.913 764.357 158.062 773.622 158.809 782.738C159.407 790.21 142.819 848.491 150.74 849.985C154.177 850.733 164.787 850.284 174.65 849.836C174.65 859.4 173.305 869.263 170.466 879.126C168.075 887.644 167.925 897.058 166.281 905.576C165.833 907.669 165.982 908.117 165.982 910.209C164.638 910.06 163.591 910.359 163.292 912.002C162.695 914.692 162.545 917.532 162.396 920.221C162.246 922.164 162.097 924.107 161.948 926.05C161.948 926.199 161.948 926.348 161.948 926.498C161.948 926.647 162.247 926.647 162.247 926.797C163.143 927.096 163.89 927.245 164.787 927.245C165.086 924.406 165.534 921.566 165.833 918.727C166.281 918.877 166.879 919.026 167.327 919.175C167.477 919.175 167.776 919.325 167.776 919.474C168.075 919.773 167.925 920.072 167.925 920.52C167.626 922.762 167.327 925.153 167.178 927.395C167.178 927.693 167.178 927.992 167.327 928.142C167.477 928.441 167.776 928.441 168.075 928.441C169.718 928.74 171.512 928.739 173.305 928.889C175.098 928.889 176.742 928.889 178.535 928.739C178.834 928.739 178.984 928.74 179.133 928.59C179.282 928.441 179.282 928.291 179.282 928.142C179.581 926.797 179.731 925.302 179.731 923.957C179.731 923.36 179.731 922.762 179.282 922.314C178.834 921.865 178.236 921.865 177.639 921.865C175.995 921.865 174.202 922.015 172.707 921.417C172.558 921.268 172.259 921.268 172.109 921.118C171.96 920.819 171.96 920.52 171.96 920.221C172.259 917.382 172.408 914.543 172.259 911.703C172.259 911.554 172.259 911.405 172.109 911.405C171.96 911.255 171.811 911.255 171.661 911.106C171.512 911.106 171.362 911.106 171.213 910.956C171.96 904.232 174.5 900.645 177.34 893.323C181.972 881.218 186.605 869.263 190.341 857.158C190.042 860.894 191.088 865.228 191.387 867.769C193.778 882.712 198.411 896.76 200.802 911.554C200.802 911.703 200.652 911.703 200.652 911.853C200.054 912.75 200.503 914.543 200.652 915.589C200.802 916.934 201.101 918.279 201.25 919.773C201.549 921.716 201.549 923.659 201.399 925.601C201.399 925.751 201.399 926.05 201.549 926.05C201.698 926.199 201.698 926.199 201.848 926.199C202.744 926.348 203.641 926.498 204.538 926.348C204.089 924.406 203.94 922.314 204.239 920.371C204.538 920.221 204.986 920.371 205.285 920.67C205.584 920.969 205.584 921.417 205.584 921.716C205.733 922.911 206.032 924.107 206.181 925.153C206.181 925.452 206.331 925.751 206.48 925.751C206.63 925.9 206.929 925.9 207.078 925.751C210.366 925.452 213.653 925.004 216.941 924.705C217.09 924.705 217.24 924.705 217.389 924.555C217.539 924.406 217.539 924.256 217.539 923.957C217.539 922.613 217.389 921.118 217.24 919.773C217.09 919.175 217.09 918.578 216.642 918.129C216.044 917.532 215.148 917.532 214.251 917.532C213.355 917.532 212.458 917.681 211.561 917.681C210.515 917.681 209.32 917.681 208.871 916.934C208.572 916.635 208.572 916.187 208.423 915.738C208.124 913.945 207.825 912.152 207.377 910.508C206.779 910.508 206.032 910.508 205.434 910.508C205.285 892.426 205.733 882.115 205.584 863.883C206.48 858.354 206.032 853.124 205.883 847.744C207.975 847.594 210.067 847.445 212.01 847.295C213.355 847.146 214.998 846.997 215.895 845.95C216.792 844.904 209.469 789.612 209.32 788.267C208.871 783.635 208.274 779.002 207.676 774.519C212.906 772.128 217.389 768.093 221.424 763.909C224.114 761.219 226.655 758.529 229.195 755.839C229.494 756.586 229.942 757.184 230.54 757.931C231.885 759.575 233.529 760.92 235.471 761.817C233.23 766.897 231.138 772.128 229.344 777.508C227.701 782.439 226.356 788.267 229.494 792.601C230.988 794.544 233.08 795.889 235.322 797.084C235.92 797.383 236.517 797.682 237.265 797.981C237.115 800.222 237.414 802.613 237.414 804.855C237.414 815.017 237.862 825.328 239.955 835.34C245.185 861.343 260.278 884.506 265.509 910.508C265.807 912.152 266.106 913.945 267.152 915.439L267.302 915.589C266.555 916.187 265.957 917.083 265.509 917.98C264.313 919.773 262.669 921.268 260.727 922.164C260.129 922.463 259.382 922.762 258.933 923.36C258.186 924.256 258.485 925.601 259.232 926.498C259.979 927.395 261.175 927.693 262.221 927.693C263.416 927.843 264.462 927.693 265.658 927.693C265.957 927.693 266.256 927.693 266.405 927.693C266.704 927.544 266.854 927.395 267.003 927.245C267.601 926.647 268.348 926.05 268.946 925.452C270.141 924.406 271.486 923.21 272.233 921.716C273.13 920.072 273.279 918.129 273.13 916.336C274.475 914.692 274.325 911.703 274.027 909.312C272.831 900.047 273.877 890.782 274.923 881.517C276.567 867.171 278.211 852.675 280.004 838.329C281.2 836.984 283.591 837.283 284.936 838.479C286.281 839.674 287.028 841.467 287.476 843.111C289.867 850.733 290.913 858.802 291.959 866.872C294.051 882.712 295.994 898.553 296.293 914.543C295.695 914.692 295.247 914.842 294.649 914.991C295.097 916.784 295.396 918.428 295.845 920.221C295.994 920.52 295.994 920.969 296.293 921.118C296.592 921.417 296.891 921.417 297.339 921.417C303.317 921.566 309.145 921.417 315.122 920.819C315.122 919.175 315.122 917.382 313.927 916.336C313.03 915.589 311.685 915.439 310.49 915.29C308.696 915.141 306.903 914.991 305.11 914.842C304.363 914.842 303.466 914.692 302.868 914.244C302.569 914.095 302.42 913.796 302.27 913.646C301.822 913.646 301.374 913.646 301.075 913.646C306.754 898.105 311.087 882.264 315.272 866.274C317.364 857.906 319.456 849.537 320.801 841.019C322.594 829.811 323.042 818.454 323.491 807.096C323.491 806.798 323.491 806.349 323.491 806.05C325.732 805.303 327.825 804.257 329.618 802.912C333.952 799.326 336.342 793.796 336.94 788.118C337.538 782.439 336.641 776.91 335.894 771.231C335.147 765.851 334.25 760.621 333.055 755.391C333.653 755.839 334.25 756.138 334.848 756.586C338.584 758.828 342.469 760.77 346.504 762.265C346.355 763.311 346.205 764.506 346.056 765.553C345.907 766.3 345.458 770.036 344.86 773.921C344.86 773.921 344.861 774.07 345.01 774.07C345.608 775.117 346.205 776.163 346.803 777.059C346.803 777.059 346.803 777.209 346.953 777.209C346.953 777.358 346.803 777.358 346.803 777.508C344.861 781.841 345.608 788.566 345.309 793.199C345.01 799.923 345.01 806.798 345.458 813.522C345.608 817.856 346.056 822.19 346.355 826.523C346.803 832.949 347.401 839.525 347.849 845.95C347.999 847.893 348.148 850.135 349.344 851.629C349.792 861.642 350.689 871.654 351.884 881.666C353.08 892.426 353.229 903.335 352.332 914.094C352.183 914.094 352.183 914.244 352.034 914.244C351.436 914.842 351.137 915.439 350.838 916.037C350.689 916.635 350.539 917.233 350.091 917.83C349.643 918.428 348.746 918.727 347.849 919.026C345.608 919.773 343.217 920.371 340.676 920.52C340.078 920.52 339.63 920.67 339.032 920.819C337.687 921.268 337.239 922.612 337.09 923.659C337.09 923.957 337.09 924.406 337.389 924.555C337.538 924.705 337.837 924.705 338.136 924.705C345.159 924.555 348.148 924.555 355.321 924.555C356.517 924.555 357.862 924.555 359.057 924.406C359.057 924.555 359.207 924.705 359.356 924.705C359.505 924.854 359.804 924.854 360.103 924.854C367.127 924.705 370.116 924.705 377.289 924.705C379.082 924.705 380.726 924.555 382.519 924.256C382.818 924.256 382.967 924.107 383.117 924.107C383.266 923.957 383.416 923.808 383.416 923.659C384.312 921.268 384.462 918.578 384.163 916.037C384.163 915.589 384.013 915.141 383.715 914.842C384.611 906.921 401.049 798.877 400.003 772.875ZM248.622 737.309C248.771 737.309 248.771 737.159 248.921 737.159C248.174 738.355 247.277 739.55 246.53 740.746C246.53 740.148 246.38 739.55 246.082 738.952C246.978 738.504 247.725 737.906 248.622 737.309ZM372.357 916.336C372.208 916.934 372.058 917.532 371.61 918.129C371.162 918.727 370.265 919.026 369.368 919.325C367.127 920.072 364.736 920.67 362.195 920.819C362.046 920.819 361.896 920.819 361.598 920.819C361.896 919.175 361.897 917.532 361.747 915.888C361.747 915.29 361.598 914.842 361.149 914.543C364.885 883.758 367.276 852.825 370.863 821.891C371.012 821.891 371.311 821.741 371.461 821.741C372.208 821.592 372.806 821.443 373.553 821.144C374.3 853.273 374.748 905.278 373.553 914.094C373.403 914.094 373.403 914.244 373.254 914.244C372.955 915.141 372.507 915.738 372.357 916.336Z" fill="#F2F4F7"/>
<path d="M341.124 665.13C342.021 674.246 344.86 683.063 349.493 690.833C352.183 691.879 355.022 692.328 358.011 692.328C360.551 691.581 362.942 690.983 365.483 690.385C365.483 690.534 365.483 690.535 365.483 690.684C366.379 690.535 367.276 690.236 368.173 689.787C368.621 689.638 369.069 689.638 369.518 689.488C369.518 689.339 369.518 689.19 369.368 689.04C370.414 688.293 371.311 687.396 372.208 686.5C373.851 684.706 375.346 682.764 376.392 680.672C376.84 679.625 377.288 678.579 377.587 677.533C378.335 675.441 379.082 673.349 379.829 671.257C380.277 670.061 380.576 669.015 380.576 667.67C380.576 665.429 379.381 663.486 378.185 661.693C376.392 658.555 374.897 655.118 372.805 652.278C370.564 649.439 367.426 647.048 363.69 646.898C362.195 646.898 360.701 647.197 359.206 647.646C352.93 649.289 346.654 650.784 340.975 653.922C340.228 654.37 339.48 654.669 339.032 655.416C338.584 656.014 338.584 656.761 338.434 657.509C338.285 658.555 338.136 659.451 337.986 660.497C337.837 661.095 337.837 661.693 337.837 662.44C338.136 663.934 339.63 664.682 341.124 665.13Z" fill="#F2F4F7"/>
<path d="M156.25 240.483C156.173 240.56 156.096 240.56 156.019 240.636C156.019 240.483 156.019 240.406 156.019 240.252C156.019 240.176 155.943 240.176 155.866 240.176C155.712 240.329 155.558 240.406 155.405 240.56C155.328 240.636 155.251 240.636 155.174 240.713C155.098 240.79 154.944 240.79 154.867 240.636C154.714 240.483 154.714 240.329 154.714 240.099V239.561C154.714 239.484 154.637 239.408 154.56 239.484C154.253 239.792 153.869 240.176 153.485 240.329C153.254 240.406 153.101 240.406 152.87 240.406C152.563 240.406 152.486 240.252 152.256 240.099C151.718 239.715 151.411 240.483 150.873 240.713C150.873 240.252 150.873 239.715 150.873 239.254C150.873 239.177 150.797 239.177 150.72 239.177C150.489 239.408 150.259 239.638 150.029 239.792C149.875 239.868 149.721 240.022 149.645 240.099C149.491 240.329 149.414 240.329 149.337 240.022C149.337 239.945 149.337 239.868 149.337 239.792C149.414 239.177 149.645 238.486 149.875 237.871C149.952 237.795 149.721 237.718 149.721 237.795C149.491 238.486 149.107 239.1 148.723 239.715C148.493 240.022 148.339 240.329 148.109 240.636C147.955 240.867 147.571 241.328 147.264 241.251C146.88 241.251 146.956 240.636 147.11 240.099C147.494 239.715 147.801 239.331 148.109 238.87C148.339 238.486 148.8 237.948 148.493 237.564C148.493 237.564 148.416 237.564 148.339 237.564C147.725 238.102 147.417 238.87 147.11 239.561C147.033 239.715 147.033 239.868 146.956 240.022C146.649 240.329 146.342 240.636 146.035 240.944C145.497 241.404 144.96 241.788 144.422 242.173C143.808 242.557 142.963 242.864 142.425 242.173C141.964 241.712 141.964 241.02 142.041 240.329C142.655 239.715 143.193 239.1 143.654 238.409C143.961 237.948 144.345 237.487 144.576 236.95C144.806 236.566 144.96 236.105 144.806 235.644C144.806 235.644 144.806 235.567 144.729 235.567C144.192 235.644 143.884 235.951 143.577 236.335C143.193 236.796 142.886 237.334 142.579 237.871C142.271 238.563 141.887 239.408 141.811 240.252C141.657 240.406 141.427 240.636 141.273 240.79C141.196 240.867 141.273 240.944 141.35 240.867C141.503 240.713 141.657 240.56 141.811 240.406C141.811 240.713 141.811 241.02 141.887 241.328C142.118 242.326 143.04 242.787 144.038 242.403C145.113 241.942 146.112 241.02 146.88 240.252C146.88 240.406 146.803 240.483 146.803 240.636C146.803 240.867 146.803 241.251 147.033 241.328C147.264 241.481 147.648 241.251 147.801 241.097C148.109 240.867 148.339 240.483 148.569 240.176C148.8 239.792 149.03 239.408 149.261 239.024C149.261 239.1 149.184 239.254 149.184 239.331C149.107 239.638 149.03 240.022 149.261 240.252H149.337C149.798 239.945 150.259 239.561 150.643 239.177C150.643 239.638 150.643 240.099 150.643 240.56C150.643 240.636 150.72 240.636 150.72 240.636C151.027 240.56 151.257 240.329 151.488 240.099C151.642 239.945 151.718 239.792 152.102 240.022C152.179 240.022 152.179 240.099 152.256 240.099C152.41 240.176 152.563 240.252 152.717 240.252C153.408 240.329 153.946 239.868 154.406 239.408C154.406 239.715 154.406 240.022 154.483 240.252C154.483 240.406 154.56 240.483 154.637 240.56C154.944 240.713 155.405 240.329 155.712 240.099C155.712 240.176 155.712 240.252 155.789 240.329C155.789 240.406 155.866 240.406 155.866 240.406C156.019 240.406 156.096 240.329 156.25 240.252C156.403 240.483 156.327 240.406 156.25 240.483ZM142.041 240.099C142.195 239.408 142.425 238.793 142.732 238.179C143.04 237.564 143.424 236.95 143.884 236.412C144.038 236.259 144.192 236.182 144.345 236.105C144.422 236.028 144.576 235.951 144.729 236.028C144.806 236.105 144.729 236.335 144.729 236.335C144.729 236.719 144.499 237.103 144.268 237.411C143.654 238.409 142.886 239.408 142.041 240.252C142.041 240.252 142.041 240.176 142.041 240.099ZM147.341 239.561C147.571 238.947 147.878 238.332 148.339 237.871C148.493 238.179 148.109 238.563 147.955 238.793C147.725 239.1 147.571 239.408 147.341 239.638C147.341 239.715 147.264 239.715 147.264 239.792C147.341 239.715 147.341 239.561 147.341 239.561Z" fill="#F2F4F7"/>
<path d="M286.125 236.104C284.819 239.484 284.896 243.247 284.973 246.934C285.587 268.823 286.202 290.712 286.816 312.524C304.865 318.131 324.219 312.294 343.113 312.294C340.809 293.246 340.502 273.969 342.038 254.768C342.345 250.774 344.726 241.404 341.577 238.101C338.582 235.029 329.135 238.025 325.295 238.332C318.613 238.793 311.931 238.793 305.249 238.332C303.482 238.332 286.125 236.028 286.125 236.104Z" fill="#F2F4F7"/>
<path d="M355.171 189.408C394.648 187.104 434.279 187.795 473.833 188.563C474.601 188.563 475.446 188.64 476.137 189.101C476.982 189.715 477.212 190.944 477.289 191.943C478.211 199.93 478.672 207.995 478.748 216.136C478.748 225.045 478.287 233.954 477.75 242.864C477.135 253.693 476.521 264.522 475.83 275.428C475.83 275.735 475.753 276.119 475.523 276.35C475.215 276.657 474.755 276.734 474.371 276.734C446.491 278.5 418.534 279.576 390.655 279.883C383.742 279.96 376.83 280.036 369.918 280.036C366.461 280.036 362.928 280.036 359.472 279.96C356.631 279.96 354.48 280.651 354.173 277.425C353.482 270.743 354.326 263.447 354.403 256.688C354.48 249.699 354.557 242.787 354.634 235.798C354.71 231.881 354.787 189.408 355.171 189.408Z" fill="#F2F4F7"/>
<path d="M227.908 184.493C238.814 184.032 256.709 183.494 267.615 183.034C268.613 182.957 269.765 182.957 270.534 183.648C271.225 184.262 271.378 185.338 271.455 186.336C273.606 212.219 273.913 238.332 272.3 264.215C261.701 262.833 251.025 261.988 240.273 261.681C237.047 261.604 229.904 262.986 227.677 260.221C225.757 257.84 228.061 250.237 228.368 247.472C229.06 242.096 226.986 184.57 227.908 184.493Z" fill="#F2F4F7"/>
<path d="M213.853 208.533C212.393 205.614 209.705 205.384 207.401 205.461C187.125 205.922 166.925 206.382 146.649 206.843C139.814 206.997 133.746 205.845 131.826 217.749C129.906 230.038 131.903 245.783 132.133 258.378C132.133 260.452 132.21 262.603 132.901 264.292C134.054 267.211 136.588 267.902 138.739 268.286C163.162 272.664 187.816 273.662 212.316 271.358C213.084 271.281 213.853 271.205 214.467 270.513C215.619 269.285 215.696 266.673 215.696 264.523C215.389 248.164 215.158 231.804 214.851 215.522C214.851 213.141 214.774 210.53 213.853 208.533Z" fill="#F2F4F7"/>
<path d="M311.777 226.351C311.777 227.196 311.854 228.118 312.315 228.809C313.083 229.884 314.696 230.038 316.002 230.038C326.524 230.038 336.969 230.038 347.491 230.115C348.259 230.115 349.027 230.115 349.642 229.654C350.64 228.963 350.794 227.503 350.717 226.274C350.486 215.061 350.256 203.771 350.102 192.558C341.731 191.866 322.376 188.333 315.464 194.478C308.936 200.238 311.701 218.594 311.777 226.351Z" fill="#F2F4F7"/>
<path d="M1407.03 262.656C1411.1 263.04 1415.25 263.501 1419.32 262.656C1423.39 261.811 1427.3 259.507 1428.99 255.743C1430.07 253.362 1430.07 250.674 1430.07 248.063C1430.07 236.773 1429.15 225.406 1427.53 214.269C1393.66 212.81 1360.33 224.331 1326.38 224.1C1320.01 224.023 1312.18 224.331 1309.1 229.937C1307.72 232.472 1307.72 235.467 1307.72 238.386C1307.72 243.608 1304.96 261.196 1310.26 263.577C1313.4 264.96 1322.47 262.349 1326 262.041C1331.61 261.58 1337.21 261.196 1342.82 260.966C1364.25 260.044 1385.6 260.889 1407.03 262.656Z" fill="#F2F4F7"/>
<path d="M330.671 324.89C331.669 324.89 332.821 324.967 333.512 325.735C334.05 326.35 334.127 327.194 334.204 327.962C335.97 346.856 336.354 365.827 335.279 384.797C335.202 386.103 335.125 387.408 334.281 388.407C333.436 389.405 331.976 389.713 330.671 389.866C317.077 391.94 303.098 391.863 289.504 389.789C291.347 390.097 286.509 338.945 286.432 334.568C286.125 323.124 289.811 324.353 300.333 324.506C310.471 324.66 320.609 324.737 330.671 324.89Z" fill="#F2F4F7"/>
<path d="M354.096 343.323C365.54 344.167 377.06 343.476 388.274 341.249C389.119 341.095 390.04 340.865 390.655 340.327C391.73 339.406 391.883 337.716 391.96 336.257C392.344 320.742 391.269 305.151 388.735 289.867C379.364 289.253 354.634 284.645 350.563 296.242C349.104 300.543 350.87 343.092 354.096 343.323Z" fill="#F2F4F7"/>
<path d="M242.27 299.391C251.717 300.082 261.24 299.237 270.38 296.933C271.071 296.78 271.762 296.549 272.223 296.088C272.684 295.628 272.838 295.013 272.991 294.476C274.911 287.333 273.606 279.729 272.146 272.433C272.07 272.126 271.993 271.742 271.762 271.511C271.455 271.127 270.918 271.127 270.457 271.127C265.849 271.051 261.24 271.127 256.709 271.435C252.561 271.742 245.956 271.281 242.193 273.124C239.044 274.583 240.887 281.265 241.118 284.491C241.502 289.407 241.886 294.399 242.27 299.391Z" fill="#F2F4F7"/>
<path d="M1383.55 302.68C1374.64 303.678 1365.5 303.218 1356.74 301.221C1356.13 301.067 1355.44 300.913 1354.98 300.453C1354.59 300.069 1354.36 299.454 1354.21 298.84C1352.14 291.697 1353.13 284.093 1354.21 276.797C1354.29 276.49 1354.29 276.106 1354.52 275.875C1354.82 275.491 1355.28 275.491 1355.75 275.415C1360.12 275.107 1364.5 275.107 1368.8 275.184C1372.72 275.338 1379.02 274.647 1382.63 276.336C1385.62 277.719 1384.16 284.401 1384.09 287.703C1383.93 292.696 1383.78 297.688 1383.55 302.68Z" fill="#F2F4F7"/>
<path d="M1312.9 308.433C1322.34 309.124 1331.87 308.279 1341.01 305.975C1341.7 305.822 1342.39 305.591 1342.85 305.13C1343.31 304.67 1343.46 304.055 1343.62 303.518C1345.54 296.375 1344.23 288.771 1342.77 281.475C1342.7 281.168 1342.62 280.784 1342.39 280.553C1342.08 280.169 1341.54 280.169 1341.08 280.169C1336.48 280.093 1331.87 280.169 1327.34 280.477C1323.19 280.784 1316.58 280.323 1312.82 282.166C1309.67 283.625 1311.51 290.307 1311.74 293.533C1312.13 298.525 1312.44 303.441 1312.9 308.433Z" fill="#F2F4F7"/>
<path d="M269.458 345.858C260.319 346.856 251.026 346.395 241.963 344.398C241.348 344.245 240.657 344.091 240.196 343.63C239.735 343.246 239.582 342.632 239.428 342.017C237.354 334.875 238.353 327.271 239.428 319.975C239.505 319.668 239.505 319.284 239.735 319.053C240.043 318.669 240.58 318.669 240.964 318.592C245.419 318.285 249.873 318.208 254.405 318.362C258.475 318.516 264.85 317.824 268.614 319.514C271.686 320.896 270.15 327.578 270.073 330.881C269.919 335.873 269.689 340.865 269.458 345.858Z" fill="#F2F4F7"/>
</svg>
