<svg width="123" height="305" viewBox="0 0 123 305" fill="none" xmlns="http://www.w3.org/2000/svg">
<path d="M34.9467 283.044C41.2931 283.532 47.8837 284.508 52.7656 288.412C53.9861 289.389 55.4506 291.097 54.7183 292.805C54.2302 294.025 46.6632 296.465 45.1987 296.709C30.3089 299.394 20.7892 300.126 6.14353 296.709C4.67896 296.465 3.21438 295.977 1.99391 295.001C-1.42341 292.561 0.0411628 288.9 2.7262 286.46C4.67896 284.752 6.8758 284.752 9.31675 284.508C17.8601 283.044 26.4034 282.556 34.9467 283.044Z" fill="#8AA1AC"/>
<path d="M44.4667 97.0972C43.9785 87.3362 43.7344 76.111 49.5927 67.5701C50.5691 66.106 50.8132 62.6896 50.8132 61.9575C51.3013 60.2494 51.5455 58.2972 51.0573 56.589C50.325 53.9047 48.1281 51.7085 45.6872 50.7324C43.9785 50.2443 42.2699 50.2443 40.5612 50.2443C38.8525 50.2443 37.1439 50.2443 35.4352 50.2443C35.4352 50.0003 35.1911 49.5123 35.1911 49.2682C34.4588 49.2682 33.7266 49.5123 32.9943 49.5123C32.9943 48.7802 32.5061 48.0481 31.7738 47.8041C31.2856 47.56 30.7974 47.5601 30.3092 47.5601C29.821 47.5601 29.3328 47.5601 28.8447 47.5601C28.8447 47.5601 28.8447 47.5601 28.8447 47.316C28.8447 45.8519 30.0651 44.8758 30.5533 43.6556C31.7738 41.2154 31.0415 38.0431 29.0888 36.3349C28.1124 35.6028 26.8919 34.8707 25.6714 35.1148C24.9392 35.1148 24.451 35.6028 23.7187 35.8468C22.01 37.311 21.2777 39.7512 22.01 41.9475C22.2541 42.9236 22.9864 43.6556 23.2305 44.3877C23.4746 45.1198 23.7187 45.8519 23.7187 46.5839C23.7187 46.828 23.7187 47.316 23.4746 47.5601C22.4982 47.5601 21.5218 47.8041 20.5455 47.8041C20.3014 47.8041 19.8132 47.8041 19.8132 48.0481C19.5691 48.2921 19.5691 48.7802 19.5691 49.5123C18.5927 49.5123 17.8604 49.5123 16.884 49.2682C17.1281 49.2682 16.884 49.5123 16.884 50.0003C16.6399 50.0003 16.3958 50.0003 16.3958 50.0003C14.199 50.0003 12.0021 50.0003 9.80529 50.4884C7.60844 50.9764 5.65567 52.1965 4.4352 53.9047C2.97063 56.1009 2.97063 58.7852 3.21473 61.4695C3.45882 63.4217 3.70292 65.3739 3.94702 67.0821C3.21473 68.5462 5.65569 73.9148 5.89978 75.623C6.38797 77.8192 6.63205 80.0154 6.63205 82.2117C7.60843 96.1211 8.34073 110.519 2.23836 123.452C1.99427 123.94 1.75016 124.672 1.75016 125.16C1.01788 127.112 0.52969 129.553 0.52969 131.505C0.285595 132.969 0.529694 134.677 1.50607 135.653C1.99426 136.141 2.97064 136.385 3.70293 136.385C10.7817 137.849 18.1045 137.117 25.4273 136.873C25.4273 166.644 25.4273 189.583 25.4273 216.182C25.4273 240.096 25.4273 264.011 25.4273 287.681C26.4037 289.145 27.6242 289.389 28.6006 287.437C28.6006 236.924 28.6006 187.875 28.6006 136.385C30.0651 136.385 31.5297 136.385 32.9943 136.385C36.8998 136.385 40.8053 136.629 44.7108 136.385C45.9313 136.141 47.3959 135.897 48.6163 135.409C49.8368 134.677 50.8132 133.701 50.8132 132.237C51.0573 131.261 50.5691 130.041 50.0809 129.065C48.1281 120.768 44.9549 107.102 44.4667 97.0972Z" fill="#90A9B3"/>
<path d="M17.3722 49.7557C23.2305 50.2438 29.3329 49.9998 35.1911 49.5117C36.4116 56.1004 41.5376 62.201 48.3722 65.1293C49.5927 65.6174 50.8132 66.3495 50.8132 67.3256C50.8132 67.8136 50.5691 68.0576 50.325 68.3017C45.199 77.3306 43.7344 87.3357 44.2226 97.3407C44.7108 107.102 47.1518 116.863 49.5927 126.624C47.1518 127.844 44.2226 128.088 41.2935 128.088C28.8447 128.82 16.3958 129.064 4.19112 127.844C3.70293 127.844 3.21474 127.844 2.72655 127.356C1.75018 126.624 2.23836 125.16 2.72655 124.183C8.82892 111.25 8.09664 96.8526 7.12026 82.9432C6.87617 80.747 6.87616 78.5507 6.38797 76.3545C5.89978 74.6463 2.97065 70.4979 3.70294 69.0337C3.94703 68.3017 6.14387 67.0815 6.87615 66.3495C7.85253 65.3734 8.82892 64.3973 9.8053 63.4212C11.7581 61.469 13.4667 59.2727 14.6872 57.0765C15.1754 56.3444 17.8604 49.7557 17.3722 49.7557Z" fill="#03A678"/>
<path d="M58.8679 60.4944C56.1829 57.0781 54.2302 52.9297 51.301 49.5133C47.3955 44.8768 43.49 41.7045 40.8049 36.3359C39.5845 38.2881 35.679 39.9963 34.4585 41.9485C39.0963 48.2932 43.7341 53.4177 45.4427 61.9586C46.4191 65.863 50.5687 71.9636 52.7656 75.38C53.742 77.3322 55.4506 78.7964 56.9152 80.5045C60.3325 83.6769 64.238 86.6052 68.8758 87.5813C75.9546 88.8014 82.7892 84.1649 82.5451 76.6001C82.301 69.7674 73.2695 70.4995 68.6317 68.3033C65.2144 66.3511 61.553 63.9108 58.8679 60.4944Z" fill="#EDEDED"/>
<path d="M69.1205 54.8816C71.3173 55.8577 73.5142 56.3458 74.9787 56.3458C76.6874 56.3458 78.3961 55.3697 80.1047 54.6376C83.278 52.9294 86.9394 50.9772 88.4039 47.5608C89.3803 45.6086 89.6244 43.4124 89.8685 41.2162C90.3567 35.8476 90.6008 30.235 90.6008 24.8665C90.6008 21.9382 90.3567 19.0099 88.8921 16.8137C86.2071 12.9092 80.837 12.1772 76.1992 11.9331C71.5614 11.6891 66.6795 11.4451 62.5299 13.6413C58.1362 15.8376 59.1126 19.2539 58.8685 23.6464C58.3803 29.0149 58.1362 34.3835 58.1362 39.508C58.1362 42.4363 58.1362 45.8527 59.8449 48.2929C61.0654 50.4891 65.215 53.1734 69.1205 54.8816Z" fill="#EEDDD0"/>
<path d="M95.9706 225.7C95.2383 204.958 96.7028 183.972 96.7028 162.985C97.191 155.665 96.4587 148.344 94.506 141.755C94.2619 141.267 94.2619 141.023 94.0178 140.535C93.2855 139.559 92.065 140.047 90.8446 140.535C81.0808 145.66 69.6084 144.439 60.821 137.119C59.1123 140.535 58.6241 144.683 58.1359 148.588C57.4036 155.177 56.6713 161.521 56.4272 168.11C56.4272 169.574 56.4272 171.038 56.4272 172.258C56.4272 180.311 57.8918 188.364 58.8682 196.417C59.6005 201.541 60.0887 206.91 60.0887 212.278C60.0887 216.671 59.6005 220.575 60.3328 224.724C62.2855 235.217 62.2855 246.686 63.0178 257.179C63.7501 268.648 64.7265 280.118 65.4587 291.587C65.4587 292.075 65.4587 292.563 65.4587 293.051C65.9469 293.295 72.7816 295.247 72.7816 293.051C73.2698 270.845 74.0021 248.638 74.4902 226.188C74.7343 216.915 74.2461 185.192 75.9548 176.163C76.6871 176.163 77.4194 176.407 78.1517 176.407C82.3013 205.934 87.4273 257.423 91.5769 286.95C92.0651 289.635 92.3092 292.319 93.7737 294.027C95.2383 295.735 97.6792 295.247 97.9233 292.563C96.9469 270.601 96.7028 248.15 95.9706 225.7Z" fill="#66627F"/>
<path d="M75.7106 293.294C75.7106 293.05 75.4665 292.806 75.4665 292.562C74.4901 289.146 74.246 285.729 74.246 282.313C74.246 280.849 74.246 279.141 74.0019 277.677C72.0492 277.677 66.435 277.433 64.2381 277.433C63.994 277.433 63.9941 277.433 63.75 277.433C63.5059 277.433 63.5059 277.677 63.5059 277.921C62.5295 282.801 65.7027 287.926 64.4823 292.806C63.9941 294.758 62.2854 295.49 60.5767 296.467C59.1122 297.199 56.4271 299.395 54.7185 299.395C53.7421 299.883 52.7657 300.127 52.0334 300.859C51.3011 301.591 51.057 302.811 51.7893 303.787C52.2775 304.519 53.498 304.519 54.2303 304.519C61.309 304.519 68.1437 304.031 75.2224 302.811C75.7106 302.811 75.9547 302.567 76.4429 302.323C76.687 302.079 76.687 301.835 76.9311 301.347C77.6634 298.175 76.687 295.979 75.7106 293.294Z" fill="#474747"/>
<path d="M101.341 295.247C101.097 294.515 100.608 293.783 100.364 293.051C100.12 292.319 100.12 291.343 100.12 290.611C100.12 286.951 100.12 283.29 100.12 279.63C100.12 278.654 100.12 277.19 99.1437 276.702C98.4115 276.213 97.6792 276.458 96.9469 276.458C94.75 276.702 92.7973 277.19 90.6004 277.434C90.1122 277.434 89.38 277.678 89.1359 278.166C88.8918 278.654 88.8918 279.142 89.1359 279.874C89.8681 283.29 90.1122 286.951 89.8681 290.367C89.8681 291.343 89.8681 292.319 89.8681 293.295C87.4272 295.491 84.7422 297.2 81.813 298.664C81.0807 299.152 80.1044 299.396 79.3721 300.128C78.8839 300.86 78.6398 302.08 79.3721 302.812C79.8603 303.3 80.8366 303.3 81.813 303.3C88.1595 302.812 94.2618 301.836 100.364 300.372C100.852 300.372 101.097 300.128 101.341 299.884C101.585 299.64 101.585 299.396 101.585 299.152C101.829 297.932 101.829 296.468 101.341 295.247Z" fill="#474747"/>
<path d="M69.1202 62.4466C70.0966 62.2026 70.8289 61.7145 71.8052 61.4705C76.1989 59.7623 80.8367 58.0541 85.2304 56.346C85.9627 56.1019 86.695 55.8579 87.4273 55.8579C87.9155 55.8579 88.4037 56.346 88.8918 56.59C97.1911 63.4227 99.632 74.4038 101.829 84.4089C109.884 119.793 112.569 156.152 109.396 192.268C89.38 195.684 69.1202 197.881 48.8604 198.857C50.0808 198.857 52.2777 174.21 52.5218 171.77C53.9863 157.616 54.9627 143.219 54.7186 128.821C54.4745 114.424 55.4509 100.026 56.4273 85.629C56.9155 79.7724 57.4037 73.9158 57.8918 68.3032C58.1359 66.107 64.7265 63.6667 66.4351 63.4227C67.1674 62.9346 68.1438 62.6906 69.1202 62.4466Z" fill="#537082"/>
<path d="M121.112 82.2129C119.648 80.5048 116.963 79.2846 116.474 77.0884C115.986 75.3802 117.207 73.428 118.427 72.2079C119.648 70.7437 121.112 69.7677 122.089 68.0595C124.041 64.6431 122.089 60.0066 118.671 58.7865C117.207 58.2985 115.498 58.2985 114.278 57.5664C112.813 57.0783 111.593 55.3701 112.081 53.906C112.569 52.4418 115.01 51.4657 114.522 50.0016C114.278 49.5135 114.033 49.2695 113.545 49.0255C112.325 48.0494 110.86 47.3173 109.396 46.8293C108.175 46.3412 106.955 46.0972 105.978 45.3651C103.537 43.4129 103.537 39.7525 101.585 37.0682C98.4114 32.6758 90.6004 33.4079 87.9153 28.7714C86.939 27.3072 86.939 25.355 85.9626 23.6469C83.7657 19.7424 78.6398 19.2544 74.2461 19.2544C70.3405 19.2544 66.6791 19.7424 62.7736 19.9865C60.3327 20.2305 57.1594 20.9626 56.4272 23.4028L55.6949 27.0632C54.9626 28.2833 55.939 29.7475 57.1594 30.4796C64.4823 35.8481 75.4665 34.384 82.3012 40.2406C85.2303 42.6808 87.1831 46.3412 88.1594 50.0016C88.6476 51.7098 89.1358 53.662 88.8917 55.3702C88.4035 59.5186 85.2303 62.6909 83.0335 66.1073C80.1043 70.2557 78.3957 75.1362 77.6634 80.0167C77.4193 82.457 77.4193 85.3853 79.128 87.0935C80.8366 88.8016 83.7657 89.0457 84.9862 91.2419C86.6949 93.9262 84.498 97.0985 84.7421 100.027C84.7421 102.955 86.939 105.639 89.8681 106.127C92.0649 106.615 94.5059 105.883 96.7027 105.639C98.8996 105.395 101.829 105.883 102.805 107.836C103.537 109.3 103.293 111.008 104.026 112.716C105.002 114.912 107.687 115.888 110.128 115.4C112.569 114.912 114.522 113.692 116.474 112.228C117.451 111.496 118.671 110.52 118.915 109.3C118.915 108.324 118.427 107.592 117.939 106.86C116.23 104.419 113.789 101.979 114.766 99.0507C115.254 97.3425 117.207 96.1224 118.671 94.9023C120.624 93.1941 122.333 90.9979 122.821 88.5576C123.309 86.8494 122.821 83.9211 121.112 82.2129Z" fill="#F2D292"/>
<path d="M63.2617 7.05254C65.7026 4.36826 68.8758 2.66008 72.2932 1.68398C78.8837 -0.0241957 86.4507 1.43995 91.5766 6.07644C92.7971 7.29656 94.0176 8.51669 94.5058 10.2249C94.994 11.689 95.2381 13.1532 95.2381 14.6173C95.2381 15.8375 95.2381 17.0576 94.994 18.2777C94.5058 20.2299 92.7971 22.1821 93.2853 24.1343C93.7735 26.3305 96.2144 27.3066 98.1672 28.2827C100.12 29.2588 102.073 30.479 103.781 31.9431C104.27 32.4312 104.758 32.6752 105.002 33.4073C105.246 33.8953 105.246 34.6274 104.758 35.1155C104.514 35.3595 104.025 35.3595 103.537 35.3595C91.5767 36.0916 79.616 33.1633 67.8995 30.479C61.553 29.0148 55.2065 27.5507 49.5924 24.3783C48.1278 23.6463 46.9073 22.6702 46.1751 21.206C45.4428 19.7419 45.4428 17.7897 46.4192 16.8136C47.8837 15.3494 50.0806 15.8375 51.7892 16.3255C54.4743 17.0576 57.6475 18.5217 58.868 15.3494C60.3325 12.1771 60.8207 9.49279 63.2617 7.05254Z" fill="#303030"/>
<path d="M40.317 39.2638C40.0729 38.2877 39.3406 37.5556 38.6083 36.8236C38.1201 36.3355 37.876 36.0915 37.3878 35.8475C35.191 34.1393 32.2618 33.1632 29.5768 33.4072C28.8445 33.4072 27.8681 33.6512 27.3799 34.1393C26.8918 34.6273 26.6477 35.1154 26.4036 35.8475C26.4036 36.0915 26.4036 36.0915 26.4036 36.3355C26.4036 36.8236 27.1358 37.0676 27.624 37.0676C28.1122 37.0676 28.8445 37.3116 29.0886 37.5557C29.5768 37.7997 29.8209 38.5318 29.5768 39.0198C29.3327 39.2638 29.3327 39.5079 29.0886 39.7519C29.0886 40.2399 29.3327 40.484 29.8209 40.728C31.2855 41.216 32.9941 40.484 34.4587 40.728C34.9469 40.728 35.4351 40.972 35.9233 41.216C36.4114 41.4601 36.8996 41.4601 37.3878 41.216C37.876 41.216 38.3642 40.972 38.6083 40.972C39.0965 40.972 39.5847 40.728 39.8288 40.2399C40.317 39.7519 40.317 39.5078 40.317 39.2638Z" fill="#EEDDD0"/>
<path d="M27.1359 88.557C27.1359 87.3369 27.1359 86.1168 26.6477 85.1407C26.1595 83.6765 25.4273 82.2123 24.2068 81.2362C23.4745 80.5042 22.7422 80.0161 21.7658 80.0161C20.7895 80.0161 20.0572 80.5042 19.569 81.2362C19.0808 81.9683 18.8367 82.9444 18.8367 83.6765C18.5926 87.3369 20.5454 93.6815 24.9391 93.9256C25.6713 93.9256 26.6477 93.6815 26.8918 92.9495C26.8918 92.7054 26.8918 92.4614 26.8918 92.2174C27.38 90.9973 27.38 89.7771 27.1359 88.557Z" fill="#EEDDD0"/>
<path d="M64.2384 113.935C61.0652 118.083 56.9156 122.72 51.5455 122.72C48.1282 122.72 44.955 120.767 42.0258 118.571C36.4117 114.179 31.5298 109.298 27.1361 103.93C24.451 100.513 21.766 95.8769 23.7187 91.7285C23.9628 91.2404 24.451 90.5084 25.1833 90.2643C26.6479 89.7763 28.1124 91.2404 28.8447 92.7046C33.2384 99.2933 39.3408 104.662 46.4195 107.834C47.3959 108.322 48.1282 108.566 49.3487 108.566C52.0337 108.566 53.7424 106.126 55.2069 103.93C60.8211 95.3889 65.703 86.3599 70.3408 77.331C71.3172 75.6228 72.0495 73.6706 73.514 72.4505C75.7109 70.4983 79.3723 70.0102 82.0573 71.4744C90.8447 76.1109 82.5455 85.8719 79.1282 91.2404C74.7345 99.2933 69.6085 106.614 64.2384 113.935Z" fill="#EDEDED"/>
</svg>
