<svg width="81" height="37" viewBox="0 0 81 37" fill="none" xmlns="http://www.w3.org/2000/svg">
<path d="M20.6084 2.26904H18.9815V3.88422V18.8054L6.62423 2.88435C6.31433 2.49978 5.84948 2.26904 5.3459 2.26904H2.8667V22.4588C2.8667 23.3433 3.60271 24.0739 4.49367 24.0739H6.12064V22.4588V7.5376L18.4779 23.4586C18.7878 23.8432 19.2526 24.0739 19.7562 24.0739H22.1967V3.88422C22.2354 2.99972 21.4994 2.26904 20.6084 2.26904Z" fill="white"/>
<path d="M39.0475 5.4994V2.26904H28.356H25.3732H25.1021V24.0739H25.3732H28.356H39.0088V20.8436H28.356V14.7674H35.2513H36.8782V13.1523C36.8782 12.2678 36.1422 11.5371 35.2513 11.5371H28.356V5.4994H39.0475Z" fill="white"/>
<path d="M76.5067 2.26904H61.8252V5.4994H68.3331V24.0739H71.587V5.4994H78.0949V3.88422C78.1337 2.99972 77.3976 2.26904 76.5067 2.26904Z" fill="white"/>
<path d="M52.6442 13.306L45.594 3.03806C45.2841 2.57658 44.8192 2.30738 44.3156 2.23047H40.6743L47.5696 12.3446L47.6083 12.4215L48.2281 13.306L47.6083 14.1905L40.6743 24.0738H44.3544C44.9354 24.0738 45.4778 23.7662 45.8264 23.2662L50.4362 16.5363L52.6442 13.306Z" fill="#03A678"/>
<path d="M51.4434 8.65284L53.6514 11.8832L60.198 2.26904H56.518C56.0144 2.34596 55.5495 2.61515 55.2396 3.07663L51.4434 8.65284Z" fill="white"/>
<path d="M51.4434 17.9976L55.0459 23.3046C55.3946 23.8045 55.9369 24.0737 56.518 24.1122H60.198L53.6514 14.8057L51.4434 17.9976Z" fill="white"/>
<path d="M2.8667 27.958H4.57115C5.38463 27.958 5.96569 28.0734 6.31433 28.3041C6.66297 28.5349 6.85666 28.9194 6.85666 29.4194C6.85666 29.7655 6.74044 30.0731 6.54676 30.3039C6.35307 30.5346 6.04317 30.6884 5.69453 30.7653V30.8038C6.62423 30.9576 7.05034 31.4191 7.05034 32.2267C7.05034 32.7651 6.85666 33.1881 6.50802 33.4958C6.15938 33.8034 5.61706 33.9572 4.99726 33.9572H2.8667V27.958ZM3.56397 30.5346H4.7261C5.22968 30.5346 5.57832 30.4577 5.81075 30.3039C6.04317 30.15 6.12064 29.8808 6.12064 29.5347C6.12064 29.1886 6.00443 28.9579 5.77201 28.8041C5.53958 28.6502 5.15221 28.5733 4.60988 28.5733H3.56397V30.5346ZM3.56397 31.1115V33.3419H4.80357C5.30716 33.3419 5.6558 33.265 5.88822 33.0727C6.12064 32.8805 6.27559 32.6113 6.27559 32.1882C6.27559 31.8037 6.15938 31.5345 5.88822 31.3806C5.6558 31.1884 5.26842 31.1115 4.7261 31.1115H3.56397Z" fill="white"/>
<path d="M10.5754 30.9576L12.1636 27.958H12.9384L10.924 31.6114V33.9188H10.2267V31.6498L8.2124 27.958H8.98715L10.5754 30.9576Z" fill="white"/>
<path d="M21.1508 29.727C21.1508 30.3423 20.9571 30.8038 20.531 31.1115C20.1049 31.4191 19.5238 31.6114 18.749 31.6114H18.0518V33.9572H17.3545V27.958H18.904C20.376 27.958 21.1508 28.5349 21.1508 29.727ZM18.013 30.9961H18.6328C19.2526 30.9961 19.7175 30.8807 19.9886 30.6884C20.2598 30.4961 20.4148 30.1885 20.4148 29.727C20.4148 29.3424 20.2985 29.0348 20.0274 28.8425C19.7562 28.6502 19.3688 28.5349 18.8265 28.5349H18.0518V30.9961H18.013Z" fill="white"/>
<path d="M26.884 33.9572L26.148 32.0729H23.7463L23.0103 33.9572H22.313L24.676 27.958H25.257L27.62 33.9572H26.884ZM25.9156 31.4191L25.2183 29.5732C25.1408 29.3424 25.0246 29.0348 24.9471 28.7271C24.8697 28.9963 24.7922 29.2655 24.676 29.5732L23.9787 31.4191H25.9156Z" fill="white"/>
<path d="M31.6875 28.4964C31.029 28.4964 30.4867 28.7272 30.138 29.1502C29.7507 29.5732 29.557 30.1885 29.557 30.9576C29.557 31.7268 29.7507 32.3421 30.0993 32.7651C30.4867 33.1881 30.9903 33.4189 31.6875 33.4189C32.1136 33.4189 32.5785 33.3419 33.1208 33.1881V33.8034C32.6947 33.9573 32.1911 34.0342 31.5713 34.0342C30.6804 34.0342 29.9831 33.765 29.5182 33.2266C29.0534 32.6882 28.7822 31.919 28.7822 30.9576C28.7822 30.3423 28.8984 29.8039 29.1309 29.3425C29.3633 28.881 29.7119 28.5349 30.138 28.2657C30.5642 27.9965 31.1065 27.8811 31.6875 27.8811C32.3073 27.8811 32.8884 27.9965 33.3532 28.2272L33.0433 28.8425C32.6172 28.6118 32.1524 28.4964 31.6875 28.4964Z" fill="white"/>
<path d="M35.1348 33.9572V27.958H35.832V33.9188H35.1348V33.9572Z" fill="white"/>
<path d="M38.854 33.9572H38.1567V27.958H41.5269V28.5733H38.854V30.7653H41.3332V31.3806H38.854V33.9572Z" fill="white"/>
<path d="M43.1924 33.9572V27.958H43.8897V33.9188H43.1924V33.9572Z" fill="white"/>
<path d="M48.8091 28.4964C48.1506 28.4964 47.6083 28.7272 47.2596 29.1502C46.8722 29.5732 46.6786 30.1885 46.6786 30.9576C46.6786 31.7268 46.8722 32.3421 47.2209 32.7651C47.6083 33.1881 48.1118 33.4189 48.8091 33.4189C49.2352 33.4189 49.7001 33.3419 50.2424 33.1881V33.8034C49.8163 33.9573 49.3127 34.0342 48.6929 34.0342C47.8019 34.0342 47.1047 33.765 46.6398 33.2266C46.175 32.6882 45.9038 31.919 45.9038 30.9576C45.9038 30.3423 46.02 29.8039 46.2524 29.3425C46.4849 28.881 46.8335 28.5349 47.2596 28.2657C47.6857 27.9965 48.2281 27.8811 48.8091 27.8811C49.4289 27.8811 50.01 27.9965 50.4748 28.2272L50.1649 28.8425C49.7388 28.6118 49.274 28.4964 48.8091 28.4964Z" fill="white"/>
<path d="M55.1235 33.9572V27.958H55.8208V33.3035H58.4937V33.9188H55.1235V33.9572Z" fill="white"/>
<path d="M60.1982 33.9572V27.958H60.8955V33.9188H60.1982V33.9572Z" fill="white"/>
<path d="M63.9556 33.9572H63.2583V27.958H66.6285V28.5733H63.9556V30.7653H66.4348V31.3806H63.9556V33.9572Z" fill="white"/>
<path d="M71.6255 33.9572H68.2554V27.958H71.6255V28.5733H68.9526V30.4961H71.4318V31.1115H68.9526V33.3035H71.6255V33.9572Z" fill="white"/>
</svg>
