<svg width="97" height="95" viewBox="0 0 97 95" fill="none" xmlns="http://www.w3.org/2000/svg">
<path d="M39.7465 0.902739C39.7465 0.902739 18.1525 5.82007 8.10388 20.5724C-1.94479 35.3247 -1.94489 54.3531 4.25535 68.8916C11.3108 85.1405 22.0009 91.9821 38.4636 93.9064C54.9263 95.8306 73.0995 93.6926 84.0034 80.0093C94.9072 66.326 100.252 54.353 94.9072 35.5385C89.776 16.5101 74.5961 -4.6561 39.7465 0.902739Z" fill="#F2F4F7"/>
<path d="M45.7329 5.82019C45.7329 5.82019 14.7317 9.88244 8.31765 38.318C1.9036 66.7536 18.7939 84.2853 40.3879 87.2785C61.9818 90.2717 89.1346 83.4301 90.6312 50.0771C92.1278 16.5103 61.768 0.902757 45.7329 5.82019Z" fill="white"/>
<path d="M45.5188 9.6685V14.7998C45.5188 15.4412 45.9463 16.0825 46.8016 16.0825C47.443 16.0825 48.0843 15.655 48.0843 14.7998V9.6685C48.0843 9.02709 47.6568 8.38574 46.8016 8.38574C46.1602 8.38574 45.5188 9.02709 45.5188 9.6685Z" fill="#F2F4F7"/>
<path d="M45.5188 80.6506V84.9266C45.5188 85.568 45.9463 86.2093 46.8016 86.2093C47.443 86.2093 48.0843 85.7818 48.0843 84.9266V80.6506C48.0843 80.0092 47.6568 79.3677 46.8016 79.3677C46.1602 79.3677 45.5188 80.0092 45.5188 80.6506Z" fill="#F2F4F7"/>
<path d="M82.293 51.3598H88.0657C88.7071 51.3598 89.3486 50.7185 89.3486 50.0771C89.3486 49.4357 88.7071 48.7942 88.0657 48.7942H82.293C81.6516 48.7942 81.0103 49.4357 81.0103 50.0771C81.2241 50.9323 81.6516 51.3598 82.293 51.3598Z" fill="#F2F4F7"/>
<path d="M13.4488 49.0081H9.17277C8.53136 49.0081 8.10376 49.4357 8.10376 50.0771C8.10376 50.7185 8.53136 51.1461 9.17277 51.1461H13.4488C14.0902 51.1461 14.5178 50.7185 14.5178 50.0771C14.5178 49.6495 14.0902 49.0081 13.4488 49.0081Z" fill="#F2F4F7"/>
<path d="M49.1541 49.6495L38.6779 26.9865C38.4641 26.345 37.8227 26.1313 37.1813 26.3451C36.5399 26.5589 36.3261 27.2003 36.5399 27.8417L47.0161 50.5046C47.2299 51.146 47.8713 51.3599 48.5127 51.1461C49.1541 50.9323 49.3679 50.2909 49.1541 49.6495Z" fill="#F2F4F7"/>
<path d="M67.1127 61.4084L50.4363 49.008L49.1534 22.2828C49.1534 21 48.0845 19.9309 46.5879 19.9309C45.305 19.9309 44.236 20.9999 44.236 22.4966L45.5188 50.2907C45.5188 50.9321 45.9465 51.5735 46.5879 52.0011L64.3333 65.0431C65.4024 65.8983 66.8989 65.6845 67.7541 64.6155C68.3955 63.5464 68.1817 62.0498 67.1127 61.4084Z" fill="#F2F4F7"/>
</svg>
