<?xml version="1.0" encoding="utf-8"?>
<!-- Generator: Adobe Illustrator 23.0.2, SVG Export Plug-In . SVG Version: 6.00 Build 0)  -->
<svg version="1.1" id="Layer_1" xmlns="http://www.w3.org/2000/svg" xmlns:xlink="http://www.w3.org/1999/xlink" x="0px" y="0px"
	 viewBox="0 0 1896.2 823.8" style="enable-background:new 0 0 1896.2 823.8;" xml:space="preserve">
<style type="text/css">
	.st0{fill:#FFFFFF;}
	.st1{fill:#F2F4F7;}
	.st2{opacity:0.56;fill:#F2F4F7;enable-background:new    ;}
	.st3{fill:#DDE1E7;}
	.st4{fill:#F2D292;}
	.st5{fill:#606060;}
	.st6{fill:#3C444C;}
	.st7{fill:#03A678;}
	.st8{fill:#DDD2C5;}
	.st9{fill:#212121;}
	.st10{fill:#8498B0;}
	.st11{fill:#6D6D6D;}
	.st12{fill:#4C4C4B;}
	.st13{fill:#7C6C61;}
</style>
<g>
	<path class="st0" d="M664.3,458.6c-3.5-1.9-17-3-20.8-3l-192.2,0.3c-6.7,1.3-15.6,1.6-22.6,1.9c-4,0.3-3,1.1-3.8,27.2
		c-0.8,24.8-0.8,49.9-0.8,74.9c0,25.1,0,49.9,0,74.9c0,11.9,0.3,24,0.3,35.8c0,8.4-0.8,18.6,0,26.4c-0.3,4.3,0,8.1,2.7,10.5
		c2.4,1.9,6.5,2.7,10.8,2.7c0.3,0,0.3,0,0.5,0h0.3c5.9,0,12.4-0.8,16.2-0.8c7.8,0,15.6,0,23.4,0c36.1,0,128.8,0,164.9,0
		c3.8,0,17.2,0,20.8-3.8c1.1-1.1,1.6-2.2,2.2-3.8c2.2-7.5,0.8-19.1,1.1-27.2H667h-0.3c0.3-11.6-0.3-24-0.3-33.7
		c0.3-16.7,0.3-33.4,0.3-49.9c0-19.7-0.3-39.6-0.5-59.3c-0.3-17.8,0.8-43.7,1.3-62.8C667.8,460.8,667.8,460.8,664.3,458.6z"/>
	<path class="st1" d="M592.4,540.6c0-0.8,0-1.6,0.5-2.2c0.5-0.5,1.6-0.5,2.4-0.5c4.9,0.8,9.7,1.9,14.3,2.7
		c7.8,1.1,15.6,1.3,23.4,1.3c6.2,0,12.4,0.3,18.6,0.3c2.2,0,4.9,0,6.5-1.6c-1.6,23.2-1.9,46.4-0.8,69.8c0.8,21.3,2.7,42.3,1.9,63.6
		c0,0.5,0,1.3-0.5,1.6c-0.3,0.3-0.8,0.3-1.3,0.3c-13.7,0.5-27.2,1.3-41,1.9c-6.2,0.3-14,2.2-20.2,1.1c-5.4-1.1-3.2-7.8-3-11.9
		c1.3-26.9-0.3-54.2-0.8-81.1C591.6,571.1,591.6,555.7,592.4,540.6z"/>
	<path class="st1" d="M564.6,592.6c30.7-1.9,61.4-3.8,91.9-5.7c2.7-0.3,5.7,0,7,2.2c0.8,1.1,0.8,2.4,0.8,3.8
		c1.3,37.7,0.8,75.5-1.6,113.2c-28.8,0.5-57.7,1.1-86.5,1.6c-5.1,0-10,1.6-12.7-3.2c-2.4-4.6-0.5-15.6-0.8-20.8
		c-0.3-14.6-0.3-29.1-0.3-43.4C563,636,563.8,592.6,564.6,592.6z"/>
	<path class="st1" d="M567.3,704.7c0.8,0,1.6-0.3,2.4-0.8c0.8-0.5,0.8-1.6,1.1-2.4c1.6-10.8,1.9-21.6,2.2-32.3
		c0.3-9.7,0.5-19.1,0.5-28.8c0-2.2,0-4.6-1.3-5.9c-1.6-1.6-3.8-1.6-5.9-1.6c-13.5,0-26.9,0-40.7,0c0.5,11,1.1,22.1,1.6,33.4
		c0.3,7,0.5,14.3,0.3,21.3c-0.3,4.3-4.3,14.3-1.6,17.8c2.7,3.8,14.8,1.3,18.9,1.1C552.2,706.1,559.8,705.5,567.3,704.7z"/>
	<path class="st1" d="M445.8,704.5c12.4,1.1,25.1,0.8,37.5-0.3c1.1-41,2.4-81.9,3.5-122.6c-11-0.8-22.1-1.3-33.1-1.1
		c-3.8,0-7-0.3-8.4,3.8c-1.3,4.3,0.3,11.3,0.5,15.9c0.5,22.4,0.8,44.7,0.5,67.4C446.3,670.2,445.5,704.5,445.8,704.5z"/>
	<path class="st0" d="M518,595.3c-25.9,24.8-50.4,51.2-73.3,78.4c-0.3,0.3,0.3,0.8,0.5,0.5c23.4-27.2,48-53.1,73.8-77.9
		C519.6,595.8,518.5,594.8,518,595.3z"/>
	<path class="st0" d="M494,642.5c-12.9,15.4-26.4,30.5-40.2,45.3c-0.3,0.3,0.3,0.8,0.5,0.5c13.7-14.8,27.2-29.6,40.7-44.7
		C495.9,642.7,494.5,641.7,494,642.5z"/>
	<path class="st1" d="M598.4,469.2c-25.9,24.8-50.4,51.2-73.3,78.4c-0.3,0.3,0.3,0.8,0.5,0.5c23.4-27.2,48-53.1,73.8-77.9
		C600.1,469.8,599,468.7,598.4,469.2z"/>
	<path class="st1" d="M574.5,516.4c-12.9,15.4-26.4,30.5-40.2,45.3c-0.3,0.3,0.3,0.8,0.5,0.5c13.7-14.8,27.2-29.6,40.7-44.7
		C576.3,516.6,575,515.6,574.5,516.4z"/>
	<path class="st0" d="M485.9,678l-5.7,6.7c-0.5,0.5,0.3,1.6,0.8,0.8c1.9-2.2,3.8-4.6,5.9-6.7C487.8,678.3,486.7,677.2,485.9,678z"/>
	<path class="st0" d="M633.1,475.4c-8.4,11-16.7,22.4-25.1,33.4c-0.3,0.5,0.5,1.1,0.8,0.5c8.6-11,17-22.1,25.6-33.1
		C635.2,475.4,633.9,474.3,633.1,475.4z"/>
	<path class="st0" d="M645.5,483.5c-14.8,14.3-28.8,29.6-41.8,45.8c-0.3,0.5,0.3,1.1,0.5,0.5c12.9-16.2,27.2-31.3,42.3-45
		C647.3,484,646.3,482.7,645.5,483.5z"/>
	<path class="st0" d="M643.8,502.1c-5.9,6.2-11.3,13.2-16.4,20.2c-0.5,0.5,0.5,1.3,1.1,0.8c5.4-6.7,11-13.2,16.7-19.7
		C645.7,502.3,644.4,501.3,643.8,502.1z"/>
	<path class="st1" d="M676.7,451.7c-41.8-1.6-149.8,0.3-191.3-0.3c-22.4-0.3-44.7,0.8-67.1,1.1c0.5,2.4-1.6,5.1-1.3,7.5
		c64.4,0,195.9,0,260.1-0.8C677.8,456.5,677.5,454.1,676.7,451.7z"/>
	<path class="st1" d="M676.7,704.5c-41.8-1.6-149.8,0.3-191.3-0.3c-22.4-0.3-44.7,0.8-67.1,1.1c-2.2,1.3-1.6,5.1-1.3,7.5
		c64.4,0,195.9,0,260.1-0.8C677.8,709.6,677.5,707.2,676.7,704.5z"/>
	<path class="st1" d="M664.3,709.6c1.9,1.1,3.5,0.8,5.4-0.3c0.3-2.4,0.5-5.1,0.5-8.1c-0.8-61.4,1.9-181.6,0-242.8
		c-1.1-4.9-3.8-3-4.9,1.9c-1.1,4.9-1.1,11.3-1.1,17.2c0.3,38.3,0.3,76.5,0.3,114.8C664.6,610.9,663.8,691.3,664.3,709.6z"/>
	<path class="st1" d="M422.8,709.6c1.9,1.1,3.5,0.8,5.4-0.3c0.3-2.4,0.5-5.1,0.5-8.1c-0.8-61.4,1.9-181.6,0-242.8
		c-1.1-4.9-3.8-3-4.9,1.9s-1.1,11.3-1.1,17.2c0.3,38.3,0.3,76.5,0.3,114.8C422.8,610.9,422,691.3,422.8,709.6z"/>
	<path class="st0" d="M634.1,609.9c0,1.1,0.3,2.4,1.1,2.7c0.3,0.3,0.5,0.3,1.1,0.3c2.7,0.3,5.4,0.5,8.4,0.5c0.8,0,1.6,0,2.4-0.5
		c0.5-0.5,0.5-1.3,0.8-2.2c0.3-2.7,0.3-5.4,0.5-8.1c0-0.3,0-0.3,0-0.5c0,0-0.3,0-0.5,0c-3.8,0.3-7.8,0.3-11.3,1.1
		C632.8,603.9,633.9,606.9,634.1,609.9z"/>
	<path class="st0" d="M647.1,617.9c0.3,0,0.5,0,0.8,0s0.3,0.3,0.5,0.5c0.5,1.3,0.5,2.7,0.5,4c0,2.2,0,4.6,0,6.7c-3.8,0-7.5,0-11-0.5
		c-3.2-0.5-3.5-3-3-5.9C635.8,617.1,642.5,618.2,647.1,617.9z"/>
	<path class="st0" d="M646.3,634.7c0.5,3.2,0.8,6.7,0.3,10c0,0.3,0,0.3-0.3,0.5c0,0-0.3,0.3-0.5,0.3c-3,0.3-5.7,0.5-8.6,0.5
		c-3.2,0.3-3.5-7-1.9-9.2c0.8-1.3,2.2-1.6,3.5-1.9C639.8,634.7,646.3,634.1,646.3,634.7z"/>
	<path class="st0" d="M646.8,652.2c0.8,3.8,0.8,7.8,0,11.6c0,0.3,0,0.3-0.3,0.5c-0.3,0-0.3,0.3-0.5,0.3c-2.7,0-5.1,0-7.8,0
		c-0.8,0-1.9,0-2.7-0.8c-0.8-0.5-0.8-1.6-0.8-2.7c0-1.9-0.3-3.5-0.3-5.4c0-2.2-0.5-2.7,1.6-3.2C639.3,651.4,643.6,651.9,646.8,652.2
		z"/>
	<path class="st0" d="M543,644.4c3.2-0.3,6.5-1.1,9.7-1.1c0.5,0,1.3,0,1.6,0.5c0.3,0.3,0.3,0.5,0.3,0.8c0,1.1,0,2.2,0,3.2
		c0,0.3,0,0.5-0.3,0.8s-0.8,0.3-1.1,0.3c-3,0-6.2-0.3-9.2-0.3c-2.2,0-7.3,0.8-8.9-0.3c-1.9-1.1-0.5-2.7,0.8-3.5
		C537.9,643.8,540.6,644.6,543,644.4z"/>
	<path class="st0" d="M552.5,652.2c0.3,0,0.3,0,0.5,0c0.3,0,0.3,0.3,0.3,0.5c0,1.6,0,3.2-0.3,4.9c0,0.3,0,0.5-0.3,0.5s-0.3,0-0.5,0
		c-5.7-0.5-11.3-0.5-17.2-0.3c-0.3,0-0.8,0-1.1-0.3c0-0.3,0-0.3,0-0.5c0-1.1-0.5-3.2,0.5-4c1.1-0.8,4.6-0.5,5.9-0.5
		C544.7,652.4,548.7,652.2,552.5,652.2z"/>
	<path class="st0" d="M552.7,660.5h0.3v0.3c0,1.6,0,3-0.3,4.6c-5.4,0.3-10.8,0.3-16.2,0.5c-0.3,0-0.5,0-0.8,0
		c-0.3-0.3-0.5-0.5-0.5-0.8c-1.6-4.9,1.6-4.6,5.7-4.9C544.9,660,548.7,660,552.7,660.5z"/>
	<path class="st0" d="M449.8,589.7c0,0.3,0,0.8,0.3,0.8h0.3c0.8,0,1.9,0.3,2.7,0.3c0.3,0,0.5,0,0.8-0.3s0.3-0.5,0.3-0.8
		c0-0.8,0-1.6,0.3-2.7c0,0,0,0,0-0.3c0,0,0,0-0.3,0c-1.1,0-2.4,0-3.8,0.3C449.5,587.5,449.8,588.6,449.8,589.7z"/>
	<path class="st0" d="M454.1,592.1C454.1,592.1,454.4,592.1,454.1,592.1c0.3,0,0.3,0.3,0.3,0.3c0.3,0.3,0.3,0.8,0.3,1.3
		c0,0.8,0,1.3,0,2.2c-1.1,0-2.4,0-3.5-0.3s-1.1-1.1-0.8-1.9C450.3,591.8,452.8,592.3,454.1,592.1z"/>
	<path class="st0" d="M453.8,597.5c0.3,1.1,0.3,2.2,0,3.2c0,0,0,0,0,0.3c0,0,0,0-0.3,0c-0.8,0-1.9,0.3-2.7,0.3c-1.1,0-1.1-2.2-0.5-3
		c0.3-0.3,0.8-0.5,1.1-0.5C451.7,597.5,453.8,597.5,453.8,597.5z"/>
	<path class="st0" d="M454.1,603.1c0.3,1.3,0.3,2.4,0,3.8c0,0,0,0-0.3,0c-0.8,0-1.6,0-2.4,0c-0.3,0-0.5,0-0.8-0.3s-0.3-0.5-0.3-0.8
		c0-0.5,0-1.1,0-1.6c0-0.8-0.3-0.8,0.5-1.1C451.7,602.9,453,603.1,454.1,603.1z"/>
	<path class="st0" d="M449.8,610.9c0,0.3,0,0.8,0.3,0.8h0.3c0.8,0,1.9,0.3,2.7,0.3c0.3,0,0.5,0,0.8-0.3s0.3-0.5,0.3-0.8
		c0-0.8,0-1.6,0.3-2.7c0,0,0,0,0-0.3c0,0,0,0-0.3,0c-1.1,0-2.4,0-3.8,0.3C449.5,609.1,449.8,609.9,449.8,610.9z"/>
	<path class="st0" d="M454.1,613.6C454.1,613.6,454.4,613.6,454.1,613.6c0.3,0,0.3,0.3,0.3,0.3c0.3,0.3,0.3,0.8,0.3,1.3
		c0,0.8,0,1.3,0,2.2c-1.1,0-2.4,0-3.5-0.3s-1.1-1.1-0.8-1.9C450.3,613.1,452.8,613.6,454.1,613.6z"/>
	<path class="st0" d="M453.8,619c0.3,1.1,0.3,2.2,0,3.2c0,0,0,0,0,0.3c0,0,0,0-0.3,0c-0.8,0-1.9,0.3-2.7,0.3c-1.1,0-1.1-2.2-0.5-3
		c0.3-0.3,0.8-0.5,1.1-0.5C451.7,618.8,453.8,618.8,453.8,619z"/>
	<path class="st0" d="M454.1,624.4c0.3,1.3,0.3,2.4,0,3.8c0,0,0,0-0.3,0c-0.8,0-1.6,0-2.4,0c-0.3,0-0.5,0-0.8-0.3s-0.3-0.5-0.3-0.8
		c0-0.5,0-1.1,0-1.6c0-0.8-0.3-0.8,0.5-1.1C451.7,624.4,453,624.4,454.1,624.4z"/>
	<path class="st0" d="M456.5,589.7c0,0.3,0,0.8,0.3,0.8h0.3c0.8,0,1.9,0.3,2.7,0.3c0.3,0,0.5,0,0.8-0.3s0.3-0.5,0.3-0.8
		c0-0.8,0-1.6,0.3-2.7c0,0,0,0,0-0.3c0,0,0,0-0.3,0c-1.1,0-2.4,0-3.8,0.3C456.3,587.5,456.5,588.6,456.5,589.7z"/>
	<path class="st0" d="M460.8,592.1c0.3,0,0.3,0.3,0.3,0.3c0.3,0.3,0.3,0.8,0.3,1.3c0,0.8,0,1.3,0,2.2c-1.1,0-2.4,0-3.5-0.3
		s-1.1-1.1-0.8-1.9C457.1,591.8,459.2,592.3,460.8,592.1z"/>
	<path class="st0" d="M460.6,597.5c0.3,1.1,0.3,2.2,0,3.2c0,0,0,0,0,0.3c0,0,0,0-0.3,0c-0.8,0-1.9,0.3-2.7,0.3c-1.1,0-1.1-2.2-0.5-3
		c0.3-0.3,0.8-0.5,1.1-0.5C458.4,597.5,460.6,597.5,460.6,597.5z"/>
	<path class="st0" d="M460.6,603.1c0.3,1.3,0.3,2.4,0,3.8c0,0,0,0-0.3,0c-0.8,0-1.6,0-2.4,0c-0.3,0-0.5,0-0.8-0.3s-0.3-0.5-0.3-0.8
		c0-0.5,0-1.1,0-1.6c0-0.8-0.3-0.8,0.5-1.1C458.2,602.9,459.5,603.1,460.6,603.1z"/>
	<path class="st0" d="M456.5,610.9c0,0.3,0,0.8,0.3,0.8h0.3c0.8,0,1.9,0.3,2.7,0.3c0.3,0,0.5,0,0.8-0.3s0.3-0.5,0.3-0.8
		c0-0.8,0-1.6,0.3-2.7c0,0,0,0,0-0.3c0,0,0,0-0.3,0c-1.1,0-2.4,0-3.8,0.3C456.3,609.1,456.5,609.9,456.5,610.9z"/>
	<path class="st0" d="M460.8,613.6c0.3,0,0.3,0.3,0.3,0.3c0.3,0.3,0.3,0.8,0.3,1.3c0,0.8,0,1.3,0,2.2c-1.1,0-2.4,0-3.5-0.3
		s-1.1-1.1-0.8-1.9C457.1,613.1,459.2,613.6,460.8,613.6z"/>
	<path class="st0" d="M460.6,619c0.3,1.1,0.3,2.2,0,3.2c0,0,0,0,0,0.3c0,0,0,0-0.3,0c-0.8,0-1.9,0.3-2.7,0.3c-1.1,0-1.1-2.2-0.5-3
		c0.3-0.3,0.8-0.5,1.1-0.5C458.4,618.8,460.6,618.8,460.6,619z"/>
	<path class="st0" d="M460.6,624.4c0.3,1.3,0.3,2.4,0,3.8c0,0,0,0-0.3,0c-0.8,0-1.6,0-2.4,0c-0.3,0-0.5,0-0.8-0.3s-0.3-0.5-0.3-0.8
		c0-0.5,0-1.1,0-1.6c0-0.8-0.3-0.8,0.5-1.1C458.2,624.4,459.5,624.4,460.6,624.4z"/>
	<path class="st0" d="M600.2,549c0,0.5,0.3,1.1,1.6,1.3c0.3,0,0.8,0,1.3,0c3.5,0.3,7,0.3,10.5,0.3c1.1,0,2.2,0,3-0.3
		s0.8-0.8,0.8-1.1c0.3-1.3,0.5-2.7,0.8-4.3c0,0,0-0.3-0.3-0.3s-0.3,0-0.5,0c-4.6,0.3-10,0.3-14.3,0.5
		C598.6,546,599.9,547.6,600.2,549z"/>
	<path class="st0" d="M616.6,553.3c0.3,0,0.8,0,1.1,0s0.3,0.3,0.5,0.3c0.8,0.5,0.8,1.3,0.8,2.2c0,1.1,0,2.4,0,3.5
		c-4.6,0-9.7,0-14-0.3c-4-0.3-4.3-1.6-3.5-3C602.3,552.7,611,553.3,616.6,553.3z"/>
	<path class="st0" d="M615.8,561.9c0.8,1.6,1.1,3.5,0.5,5.1c0,0,0,0.3-0.3,0.3s-0.5,0-0.5,0c-3.5,0-7.3,0.3-10.8,0.3
		c-4.3,0.3-4.3-3.8-2.4-4.9c1.1-0.5,2.7-0.8,4.6-1.1C607.5,561.9,615.5,561.6,615.8,561.9z"/>
	<path class="st0" d="M616.3,570.8c1.1,1.9,1.1,4,0,5.9c0,0,0,0.3-0.3,0.3s-0.5,0-0.8,0c-3.2,0-6.7,0-10,0c-1.1,0-2.4,0-3.2-0.3
		s-1.1-0.8-1.1-1.3c0-0.8-0.3-1.9-0.3-2.7c-0.3-1.1-0.8-1.3,1.9-1.6C606.9,570.5,612,570.8,616.3,570.8z"/>
	<path class="st0" d="M600.2,583.5c0,0.5,0.3,1.1,1.6,1.3c0.3,0,0.8,0,1.3,0c3.5,0.3,7,0.3,10.5,0.3c1.1,0,2.2,0,3-0.3
		s0.8-0.8,0.8-1.1c0.3-1.3,0.5-2.7,0.8-4.3c0,0,0-0.3-0.3-0.3s-0.3,0-0.5,0c-4.6,0.3-10,0.3-14.3,0.5
		C598.6,580.2,599.9,581.8,600.2,583.5z"/>
	<path class="st0" d="M626.3,549c0,0.5,0.3,1.1,1.6,1.3c0.3,0,0.8,0,1.3,0c3.5,0.3,7,0.3,10.5,0.3c1.1,0,2.2,0,3-0.3
		s0.8-0.8,0.8-1.1c0.3-1.3,0.5-2.7,0.8-4.3c0,0,0-0.3-0.3-0.3s-0.3,0-0.5,0c-4.6,0.3-10,0.3-14.3,0.5C624.7,546,626,547.6,626.3,549
		z"/>
	<path class="st0" d="M642.8,553.3c0.3,0,0.8,0,1.1,0s0.3,0.3,0.5,0.3c0.8,0.5,0.8,1.3,0.8,2.2c0,1.1,0,2.4,0,3.5
		c-4.6,0-9.7,0-14-0.3c-4-0.3-4.3-1.6-3.5-3C628.5,552.7,637.1,553.3,642.8,553.3z"/>
	<path class="st0" d="M641.9,561.9c0.8,1.6,1.1,3.5,0.5,5.1c0,0,0,0.3-0.3,0.3s-0.3,0-0.5,0c-3.5,0-7.3,0.3-10.8,0.3
		c-4.3,0.3-4.3-3.8-2.4-4.9c1.1-0.5,2.7-0.8,4.6-1.1C633.6,561.9,641.7,561.6,641.9,561.9z"/>
	<path class="st0" d="M642.5,570.8c1.1,1.9,1.1,4,0,5.9c0,0,0,0.3-0.3,0.3s-0.5,0-0.8,0c-3.2,0-6.7,0-10,0c-1.1,0-2.4,0-3.2-0.3
		s-1.1-0.8-1.1-1.3c0-0.8-0.3-1.9-0.3-2.7c-0.3-1.1-0.8-1.3,1.9-1.6C633.1,570.5,638.2,570.8,642.5,570.8z"/>
	<path class="st0" d="M626.3,583.5c0,0.5,0.3,1.1,1.6,1.3c0.3,0,0.8,0,1.3,0c3.5,0.3,7,0.3,10.5,0.3c1.1,0,2.2,0,3-0.3
		s0.8-0.8,0.8-1.1c0.3-1.3,0.5-2.7,0.8-4.3c0,0,0-0.3-0.3-0.3s-0.3,0-0.5,0c-4.6,0.3-10,0.3-14.3,0.5
		C624.7,580.2,626,581.8,626.3,583.5z"/>
	<path class="st2" d="M1042.3,794.2c-14.1-1-28.7-2.4-42.4,1.6c-2.2,0.6-4.8,1.8-5,4.2c-0.4,2.4,1.8,4.4,4,5.4
		c3.2,1.4,6.8,2,10.2,2.4c7.6,0.8,15.1,1,22.7,1c6.8-0.2,13.5-0.6,20.3-1.2c4.4-0.4,13.7,0.2,16.7-3.8
		C1074.3,796.4,1046.1,794.4,1042.3,794.2z"/>
	<path class="st1" d="M1097.2,652.5c1.2-46.8,0.4-85.4,0.4-137.8c0-14.3-0.6-39.6-1.4-54c0-1.4-0.2-3-1.2-4c-0.8-0.8-2-1.2-3.2-1.4
		c-112.5-10.4-181,1-295.7,0c-8.8,0-20.3-3.8-25.3,3.4c-3.6,5.2-2,18.5-1.8,24.9c0.4,34-0.2,68.1,0.4,102.1c0.4,16.9,0,34,1,51.2
		c0.6,12.5,3.2,17.7,16.1,17.7c33.5,0,68.9,0,102.3-1.2c33.7-1.2,67.5-1.6,101.2-0.8C999.4,652.9,1097.2,649.1,1097.2,652.5z"/>
	<path class="st1" d="M1104.7,451.6c-62.9-1.4-177.2,0.4-239.9-0.2c-33.9-0.4-67.7,0.6-101.4,1c0.8,2.2-2.6,4.4-1.8,6.6
		c97.2,0,246.9,0,343.9-0.8C1106.5,456,1106.1,453.8,1104.7,451.6z"/>
	<path class="st1" d="M1106.9,650.1c-62.9-1.4-177.2,0.4-239.9-0.2c-33.9-0.4-67.7,0.6-101.4,1c-0.8,2-1.4,4.4-0.6,6.6
		c97.2,0,245.7,0,342.7-0.8C1108.7,654.5,1108.5,652.3,1106.9,650.1z"/>
	<path class="st1" d="M1098.6,690.5c-59.7-1.4-168.3,0.4-227.8-0.2c-32.1-0.4-64.1,0.6-96.2,1c0.8,2.2-2.6,4.4-1.8,6.6
		c92.2,0,234.4,0,326.4-0.8C1100.2,695.1,1100,692.9,1098.6,690.5z"/>
	<path class="st1" d="M1102.7,656.5c-0.8-6-6-2.4-6.2,2.4c-0.2,7,0.2,13.9,0.2,20.7c0,2.2,0,107.7-1,108.1c2-0.6,4.6,1,6.2-0.6
		c0.8-0.8,0.8-2.2,1-3.2C1103.5,770,1104.5,670.4,1102.7,656.5z"/>
	<path class="st1" d="M775.6,656.5c-0.8-6-6-2.4-6.2,2.4c-0.2,7,0.2,13.9,0.2,20.7c0,2.2,0,107.7-1,108.1c2-0.6,4.6,1,6.2-0.6
		c0.8-0.8,0.8-2.2,1-3.2C776.4,770,777.4,670.4,775.6,656.5z"/>
	<path class="st1" d="M1095.8,786.9c-0.8,1.2-1.2,2.6-1.4,4c0,1.6,0.4,3.2,1.2,4.4c0.8,1.2,2.2,2.2,3.8,2.4c1.2,0.2,2.4-0.2,3.2-0.8
		C1110.1,791.9,1100.6,780.6,1095.8,786.9z"/>
	<path class="st1" d="M767.6,785.3c-1,1.2-1.4,2.6-1.6,4c0,1.6,0.4,3.2,1.4,4.4s2.6,2.2,4.4,2.4c1.4,0.2,2.8-0.2,3.8-0.8
		C784.7,790.5,773.4,779,767.6,785.3z"/>
	<path class="st3" d="M864.1,497.4c-0.6,0-1.2-0.2-1.8-0.6c0,0-0.2-0.2,0-0.4c0-0.2,0.2-0.2,0.4,0c1.4,1,3.4,0,4.4-0.6
		c1.2-0.6,2.2-1.4,3.2-2.4c-0.4-0.4-0.6-0.8-0.8-1.4c-0.4-1.2-0.2-2.4,0-3.4c1-4.8,2.6-9.6,5.2-13.7c0.6-1.2,1.8-2.4,3-2.6
		c0.6-0.2,1.2,0,1.6,0.4c0,0,0,0,0,0.2c0.4,7.6-2.8,15.3-8.6,20.5c0.8,0.8,1.8,1.2,3,1.4c1.6,0.2,3.2-0.2,5.2-1.4
		c1.4-0.6,2.6-1.6,3.8-2.6c0-0.6,0-1,0-1.6c0.4-3.2,1.8-6.4,4-8.8h0.2c0,0,0.2,0,0.2,0.2c0.8,4-1.2,7.6-4,10.2
		c0,0.2,0.2,0.4,0.2,0.6c0.6,1,1.8,1.2,2.8,1s1.8-0.8,2.8-2c0.2-0.2,0.4-0.4,0.6-0.8c0.2-2.4,1.2-4.8,2.6-6.8c0,0,0.2-0.2,0.2,0
		l0.2,0.2c-0.2,2.4-1,4.8-2.6,6.8c-0.2,1-0.2,2,0,3c4-0.6,6.2-5,7.4-9c0-0.2,0.2-0.2,0.2-0.2c0.2,0,0.2,0.2,0.2,0.2
		c-0.2,2-0.4,4.2-0.2,6.2c1.2-1,2.2-2.4,2.8-4c0-0.2,0.2-0.2,0.2-0.2c0.2,0,0.2,0.2,0.2,0.2c0,1,0.2,1.8,0.6,2.8l4.4-2.2
		c0.2,0,0.2,0,0.2,0c1,1.4,3,2,4.6,1c0.2,0,0.2,0,0.4,0c0,0.2,0,0.2,0,0.4c-1.6,1-4,0.4-5-1l-4.4,2.4c-0.2,0-0.2,0-0.4,0
		c-0.4-0.6-0.6-1.4-0.8-2.2c-0.6,1.4-1.6,2.6-3,3.4H897l-0.2-0.2c-0.2-1.6-0.2-3.4,0-5c-2.6,6.4-5.6,7.4-7.4,7.6
		c-0.2,0-0.2,0-0.2-0.2c-0.2-0.8-0.2-1.8,0-2.8l-0.2,0.2c-1,1.2-2,1.8-3,2c-1.2,0.2-2.6,0-3.4-1.2c-0.2-0.2-0.2-0.4-0.2-0.6
		c-1.2,1-2.4,1.8-3.6,2.6c-2,1-3.8,1.4-5.4,1.4c-1.4-0.2-2.6-0.6-3.4-1.4c-1,1-2.2,1.8-3.4,2.4C866.5,496.8,865.3,497.4,864.1,497.4
		z M878.3,472.9h-0.2c-1,0.2-2.2,1.4-2.8,2.4c-2.6,4.2-4.2,8.8-5.2,13.5c-0.2,1-0.4,2.2,0,3.2c0.2,0.4,0.4,0.8,0.6,1.2
		c5.6-5,8.8-12.5,8.4-20.1C878.7,473.1,878.5,472.9,878.3,472.9z M886.8,481.4c-2,2.2-3.2,5.2-3.6,8.2c0,0.4,0,0.6,0,1
		C885.6,488,887.4,484.8,886.8,481.4z M892,484.4c-0.8,1.4-1.4,3.2-1.8,4.8C891.2,487.8,891.8,486.2,892,484.4z"/>
	<path class="st3" d="M975.8,491.4c-0.4,0-0.8,0-1.2-0.2s-0.8-0.8-0.8-1.4c-1,0.6-2.2,0.8-3.4,0.4c-1-0.4-2-1.4-2.2-2.6
		c-0.2-0.6-0.2-1,0-1.6c-2.2,1.6-4.6,3-7.2,3.6h-0.2v-0.2l0.6-5.2c-3,2.2-6.4,3.6-10,4h-0.2V488l1.4-5c-2.2,3-5.6,5-9.2,5.6h-0.2
		v-0.2c0.4-2,0.8-3.8,1.4-5.6c-2,2.8-4.4,5.2-7.6,7c-0.8,0.6-2,1-3,0.8c-0.6-0.2-1.2-0.6-1.6-1.2c-0.2-0.2-0.2-0.6-0.4-0.8
		c-1,1-2.4,1.6-3.8,2c-1.2,0.2-2,0-2.4-0.6c-0.2-0.2-0.2-0.6-0.2-0.8c-1.2,0.6-2.6,1-4,1c-0.2,0-0.2,0-0.2-0.2
		c0-1.6,0.2-3.2,0.6-4.8l-2.2,2.4c0,0-0.2,0-0.4,0c0,0,0-0.2,0-0.4l3-3h0.2c0,0,0.2,0.2,0,0.2c-0.6,1.6-0.8,3.4-0.8,5.2
		c1.4,0,2.6-0.4,3.8-1.2c0-2.6,2-5.2,4.6-5.8h0.2v0.2c-0.6,2.4-2.2,4.6-4.4,5.8c0,0.4,0,0.6,0.2,0.8c0.4,0.6,1.6,0.4,2,0.4
		c1.4-0.4,2.8-1,3.8-2c0-0.6,0-1,0-1.4c0.4-1.6,1.8-2.8,2.8-3.8h0.2l0.2,0.2c-0.4,2-1.4,4-2.8,5.4c0,0.4,0.2,0.6,0.4,1
		s0.6,0.8,1.4,1c1,0.2,1.8-0.2,2.6-0.8c3.6-2,6.4-5,8.4-8.6c0-0.2,0.2-0.2,0.2,0c0.2,0,0.2,0.2,0.2,0.2c-0.8,2.4-1.4,4.8-2,7.2
		c3.8-0.8,7.2-3.2,9.4-6.6c0,0,0.2-0.2,0.2,0c0.2,0,0.2,0.2,0.2,0.2l-1.8,6c3.6-0.6,7-2,9.8-4.2h0.2l0.2,0.2l-0.6,5.4
		c2.8-0.8,5.4-2.4,7.8-4.4c0,0,0.2,0,0.4,0c0,0,0,0.2,0,0.4c-0.6,0.6-0.8,1.4-0.6,2.2c0.2,1,1,2,2,2.2c1,0.4,2.2,0,3.2-0.6
		c0-0.2,0-0.4,0-0.6c0.2-1.8,1-3.4,2.2-5c0,0,0.2-0.2,0.2,0c0,0,0.2,0,0.2,0.2c0.2,1.4,0,2.8-0.6,4c-0.4,0.6-0.8,1.2-1.6,1.8
		c0,0.6,0.2,1,0.6,1.4c0.4,0.2,0.8,0.2,1.4,0.2c2.4-0.2,4.6-1.2,6.4-2.8c-0.2-0.8,0-1.6,0.4-2.2c0.6-0.8,1.4-1.2,2.2-1
		c0,0,0.2,0,0.2,0.2v0.2c-0.6,1.2-1.4,2.2-2.2,3c0,0,0,0.2,0.2,0.2c0.4,0.6,1.2,0.8,2,0.6c1-0.2,1.6-0.8,2-1.6
		c0-0.2,0.2-0.2,0.2-0.2c0.2,0,0.2,0.2,0.2,0.2c-0.4,1-1.2,1.6-2.2,1.8s-1.8,0-2.4-0.8l-0.2-0.2c-1.8,1.6-4.2,2.6-6.6,2.8
		C976.2,491.4,976,491.4,975.8,491.4z M976,484.2c-0.8,1.2-1.4,2.8-1.8,4.2v0.2c0.4-0.4,0.8-0.8,1.2-1.4
		C976,486.4,976.2,485.4,976,484.2z M930,483.4c-2,0.8-3.6,2.8-4,5C928,487.4,929.4,485.6,930,483.4z M935,483.6
		c-0.8,0.8-1.8,2-2.2,3.2c0,0.4-0.2,0.6-0.2,1C933.8,486.6,934.6,485.2,935,483.6z M984.8,485.2c-0.6,0-1,0.4-1.4,0.8
		c-0.2,0.4-0.4,1-0.4,1.6C983.8,487,984.4,486.2,984.8,485.2z"/>
	<path class="st3" d="M986.5,534.2c0,0-0.2,0-0.2-0.2s0-0.2,0-0.4c0.4-0.2,0.6-0.4,0.8-0.6c-0.2-0.2-0.2-0.6-0.2-1
		c0-1.2,0.2-2.2,0.8-3.2l0.2-0.2c0,0,0.2,0,0.2,0.2c0.6,0.8,0.6,2,0.4,3c-0.2,0.6-0.4,1-0.8,1.4l0.2,0.2c0.6,0.6,2,0.2,2.2,0
		c1.6-0.8,2.8-2,3.6-3.4c0-1.2,0.2-2.4,1.2-3.2h0.2l0.2,0.2c-0.2,1.2-0.6,2.2-1,3.2c0,0.4,0.2,0.6,0.2,1c1.4-0.8,2.2-2.2,2.2-3.8
		c0-0.2,0.2-0.2,0.2-0.2c0.2,0,0.2,0,0.2,0.2c0,0.6,0.2,1.4,0.4,2s1,1,1.6,0.8c0.4,0,0.6-0.4,1-0.6l3.2-2.6h0.2l0.2,0.2
		c0,0.4-0.2,1.4,0.4,2c0.2,0.2,0.6,0.4,1,0.2c0.2,0,0.4-0.2,0.6-0.4c0-0.2,0.2-0.2,0.2-0.2c0.2,0,0.2,0.2,0.2,0.2
		c-0.2,0.4-0.4,0.6-0.8,0.8c-0.6,0.2-1.2,0-1.6-0.4c-0.4-0.4-0.6-1.2-0.6-2l-2.8,2.2c-0.2,0.2-0.6,0.6-1.2,0.6c-0.8,0.2-1.6-0.4-2-1
		c-0.2-0.2-0.2-0.6-0.4-0.8c-0.4,1.2-1.4,2.4-2.4,3c-0.2,0-0.2,0-0.4,0c-0.2-0.2-0.2-0.6-0.4-0.8c-0.8,1.4-2.2,2.4-3.6,3.2
		c-1.2,0.6-2.2,0.6-2.8,0l-0.2-0.2C987.1,533.8,986.9,534,986.5,534.2z M987.9,529.7c-0.4,0.8-0.4,1.6-0.4,2.6c0,0.2,0,0.4,0,0.6
		c0.2-0.2,0.4-0.6,0.4-1C988.3,531.1,988.1,530.3,987.9,529.7z M994.6,528.1c-0.2,0.4-0.2,0.6-0.4,1
		C994.4,528.7,994.4,528.3,994.6,528.1z"/>
	<path class="st3" d="M1016.1,531.7c-0.4,0-0.6,0-1-0.2c-0.2-0.2-0.4-0.4-0.6-0.8c-1,0.6-2.4,0.8-3.4,0.8h-0.2v-0.2c0-1.6,0.8-3,2-4
		c0.4-0.4,1-0.4,1.4-0.2c0.2,0.2,0.2,0.6,0.2,0.8c0.2-0.4,0.6-1,0.8-1.4c0,0,0.2,0,0.2-0.2h0.2c0.8,1.2,0.4,3-0.8,3.8
		c0.2,0.2,0.4,0.4,0.6,0.6c0.2,0.2,0.6,0.4,1,0.2s0.6-0.4,0.8-0.8l3.6-4.2h0.2c0,0,0.2,0,0.2,0.2l1,4.2c1.8-1,3.4-2.6,4.4-4.2
		c0,0,0.2-0.2,0.2,0l0.2,0.2v2.8c1.8-1,3.4-2.2,4.6-3.8c0,0,0.2-0.2,0.2,0l0.2,0.2l0.2,1.4c1-0.4,1.8-1.4,2-2.4l0.2-0.2
		c0.2,0,0.2,0,0.2,0.2c0.2,0.8,1.2,1.2,2,1c0.4,0,0.8-0.2,1.2-0.2c0.4-0.2,1-0.2,1.6-0.2c1.2,0,2.6,0.6,3.2,1.6
		c0.8-0.8,1.6-1.6,2.8-2h0.2c0,0,0.2,0,0.2,0.2c0,0.8,0.2,1.6,0.6,2.4c0.4,0.6,1.2,1.2,1.8,1c0.4-0.2,0.8-0.4,1.2-0.8
		c0.2-0.2,0.2-0.2,0.4-0.4c0.6-0.6,1.6-0.8,2.2-0.4c0,0,0.2,0.2,0,0.4c0,0-0.2,0.2-0.4,0c-0.4-0.4-1.2-0.2-1.6,0.4
		c-0.2,0.2-0.2,0.2-0.4,0.4c-0.4,0.4-0.8,0.8-1.4,1c-1,0.2-2-0.4-2.4-1.2c-0.4-0.6-0.6-1.6-0.6-2.2c-1,0.4-1.8,1-2.4,2h-0.2
		c0,0-0.2,0-0.2-0.2c-0.6-1-1.8-1.8-3-1.8c-0.4,0-1,0.2-1.4,0.2c-0.4,0.2-0.8,0.2-1.4,0.2c-0.8,0-1.8-0.2-2.2-0.8
		c-0.4,1-1.4,1.8-2.4,2.2h-0.2c0,0,0,0-0.2-0.2l-0.2-1.2c-1.4,1.6-3,2.8-4.8,3.6h-0.2l-0.2-0.2v-2.4c-1.2,1.6-2.6,3-4.4,4h-0.2
		c0,0-0.2,0-0.2-0.2l-1-4l-3.4,4C1016.9,531.1,1016.5,531.5,1016.1,531.7C1016.1,531.7,1016.3,531.7,1016.1,531.7z M1013.7,527.3
		c-0.2,0-0.4,0.2-0.6,0.2c-1,0.8-1.8,2-1.8,3.4c1,0,2-0.2,3-0.8c0,0,0,0,0-0.2l-0.2-0.2v-2c0-0.2,0-0.4,0-0.6
		C1013.9,527.3,1013.9,527.3,1013.7,527.3z M1015.5,527.1c-0.6,0.8-1,1.6-1,2.4c0,0.2,0,0.2,0,0.4
		C1015.5,529.3,1015.9,528.1,1015.5,527.1z"/>
	<path class="st3" d="M989.4,550.8c-0.4,0-0.6,0-0.8-0.2s-0.4-0.6-0.4-0.8c-0.4-1.6,0.4-3.4,2-4.2h0.2c0,0,0.2,0,0.2,0.2
		c0.4,1.2,0,2.6-0.8,3.6c0,0-0.2,0-0.4,0c0,0,0-0.2,0-0.4c0.6-0.8,1-2,0.8-3c-1.2,0.6-1.8,2.2-1.6,3.6c0,0.2,0.2,0.4,0.2,0.4
		c0.4,0.4,1,0.2,1.4-0.2c0.6-0.4,1-0.8,1.6-1.2l-0.2-0.2c-0.2-0.2-0.2-0.6-0.2-1.2c0-1.4,1-2.8,2.2-3.6h0.2c0.8,0.6,0.6,2,0.2,3
		c-0.4,0.6-0.8,1.4-1.4,2c0.4,0.2,1,0,1.4,0c1.4-0.4,2.6-1.4,3.6-2.6c0.2-1,0.6-1.8,1.2-2.6c0,0,0.2-0.2,0.2,0l0.2,0.2
		c-0.2,1-0.6,1.8-1.2,2.6c0,0.4,0,1,0,1.4c0,0.2,0,0.4,0.2,0.6c0,0,0.2,0.2,0.4,0.2c0.4,0,0.8-0.4,1.2-0.8l2.4-2.8
		c0,0,0.2-0.2,0.2,0c0,0,0.2,0.2,0,0.2c-0.2,0.2-0.2,0.6,0,0.8s0.4,0.6,0.6,0.6c0.2,0.2,0.6,0.2,0.8,0s0.6-0.4,0.6-0.6
		c0-0.2,0.2-0.2,0.4-0.2s0.2,0.2,0.2,0.4c-0.2,0.4-0.6,0.6-1,0.8s-0.8,0.2-1.2,0s-0.6-0.6-0.8-1c0-0.2,0-0.2,0-0.4l-2,2.2
		c-0.4,0.4-1,0.8-1.4,0.8c-0.2,0-0.4,0-0.6-0.2c-0.2-0.2-0.4-0.6-0.4-0.8s0-0.6,0-0.8c-0.8,1-2,1.8-3.4,2.2c-0.6,0.2-1.4,0.2-2,0
		c-0.6,0.6-1,1-1.8,1.4C990.2,550.6,989.8,550.8,989.4,550.8z M993.8,544.2c-1,0.8-1.8,2-1.8,3.2c0,0.4,0,0.6,0.2,0.8
		c0,0,0,0,0.2,0.2c0.6-0.6,1-1.2,1.4-2C994.2,545.6,994.4,544.6,993.8,544.2z"/>
	<path class="st3" d="M1013.1,548C1013.1,548,1012.9,548,1013.1,548c-0.2,0-0.2,0-0.2-0.2c-0.4-1-0.6-2-0.6-3.2
		c-0.8,1-2,1.4-3.2,1.6c-0.2,0-0.2,0-0.2-0.2s0-0.2,0.2-0.2c1.4,0,2.6-0.8,3.4-2c0,0,0.2-0.2,0.2,0l0.2,0.2c-0.2,1.2,0,2.4,0.4,3.4
		c2.4-1,4.6-2.4,6.4-4.2h0.2l0.2,0.2c-0.2,1.2-0.2,2.4-0.2,3.6c2-0.8,3.8-2.2,5.2-3.8c0,0,0.2-0.2,0.2,0l0.2,0.2l0.2,3
		c2-0.8,3.8-2,5.2-3.4h0.2c0,0,0.2,0.2,0,0.2c-0.2,0.4-0.2,0.6,0,1c0.4,0.6,1.4,1,2.2,1c0.4,0,1-0.2,1.4-0.4
		c0.8-0.2,1.8-0.6,2.8-0.4c0.2,0,0.6,0.2,0.8,0.2c0.4,0.2,0.8,0.4,1.2,0.4s0.6-0.2,1-0.4c0.2,0,0.2-0.2,0.4-0.2c2-1,4.6-0.6,6.6-0.2
		c0.2,0,0.2,0.2,0.2,0.2c0,0.2-0.2,0.2-0.2,0.2c-2.4-0.4-4.4-0.8-6.2,0.2c0,0-0.2,0-0.2,0.2c-0.4,0.2-0.8,0.4-1.2,0.4
		c-0.6,0-1-0.2-1.4-0.4c-0.2-0.2-0.6-0.2-0.8-0.2c-0.8-0.2-1.6,0-2.4,0.2c-0.4,0.2-1,0.2-1.6,0.4c-1,0.2-2.2-0.4-2.6-1.2
		c-0.2-0.2-0.2-0.4-0.2-0.8c-1.4,1.4-3.2,2.4-5.2,3.2h-0.2c0,0,0-0.2-0.2-0.2l-0.4-2.4c-1.4,1.6-3.2,3-5.2,3.6h-0.2c0,0,0,0-0.2-0.2
		c-0.2-1.2-0.2-2.2,0-3.4C1017.7,545.8,1015.5,547,1013.1,548z"/>
	<path class="st3" d="M989.2,562.3c0,0-0.2,0-0.2-0.2c-0.6-1-0.4-2.4,0.2-3.4c0,0,0.2-0.2,0.2,0l2.8,1c3.2-0.8,6.6-0.4,9.6,1
		l1.2-2.6c0,0,0-0.2,0.2-0.2h0.2c1.4,1.6,2.8,3.2,4.8,3.2c1,0,1.8-0.6,2.4-1.2c-0.4-0.4-0.6-1-0.6-1.6c0-0.4,0.2-1,0.6-1.2h0.2
		c0.6,0.6,0.8,1.4,0.4,2.4c0,0,0,0.2-0.2,0.2c0.6,0.4,1.6,0.6,2.4,0.6c1.8,0,3.6-0.2,5.4-0.6c0.4,0,0.6-0.2,1-0.4
		c-0.2,0-0.2-0.2-0.4-0.4c-0.4-0.6-0.6-1.4-0.2-2.2c0.2-0.6,0.6-0.8,1.2-0.8c0.4,0,0.8,0.2,1,0.8c0.4,0.6,0.2,1.2,0,1.8
		c-0.2,0.2-0.4,0.6-0.6,0.8c0.2,0,0.4,0,0.6,0c0.6,0,1.2-0.2,1.6-0.6c0.2-0.2,0.4-0.6,0.4-1c-0.6-0.6-1-1.6-0.8-2.4
		c0,0,0-0.2,0.2-0.2h0.2c0.6,0.4,1,1,1,1.8c0,0.2,0,0.4,0,0.6c0.6,0.6,1.4,1,2.2,0.8c0.8,0,1.6-0.6,2-1.4c0.2-0.4,0.4-0.8,0.4-1.2
		c-0.2-0.4-0.2-0.8,0-1.2l0.2-0.2c0,0,0.2,0,0.2,0.2c0.2,0.4,0.2,0.8,0.2,1.2l0.2,0.2c0.4,0.6,1.2,1,2,0.8c1.2-0.2,2.4-1,3.4-2h0.2
		h0.2c1.2,1.4,3.2,2.2,5.2,2c2.2-0.2,3.8-1.4,4.6-3.2l0.2-0.2h0.2c1,1.4,2.6,2.2,4.4,2.2c0.2,0,0.2,0,0.2,0.2s0,0.2-0.2,0.2
		c-1.8,0-3.4-0.8-4.4-2c-0.8,1.6-2.6,2.8-4.8,3c-2.2,0.2-4.2-0.4-5.6-1.8c-1,1-2.2,1.8-3.4,2c-0.8,0-1.8-0.4-2.4-1
		c0,0.4-0.2,0.6-0.4,1c-0.6,0.8-1.4,1.4-2.4,1.6c-0.8,0.2-1.8-0.2-2.4-0.8c-0.2,0.4-0.2,0.6-0.6,1c-0.4,0.6-1.2,0.8-2,0.8
		c-0.4,0-0.8,0-1-0.2c-0.4,0.2-1,0.4-1.4,0.4c-1.8,0.4-3.6,0.8-5.4,0.6c-0.8,0-1.8-0.2-2.6-0.6c-0.6,0.8-1.4,1.4-2.6,1.4
		c0,0,0,0-0.2,0c-2,0-3.6-1.6-4.8-3.2l-1.2,2.4c0,0,0,0-0.2,0.2h-0.2c-3-1.6-6.4-2-9.6-1.2c0,0,0,0-0.2,0l-2.8-1
		c-0.2,0.2-0.4,0.6-0.4,1c0.2,0,0.2,0.2,0.2,0.2v1.8C989.4,562.3,989.2,562.3,989.2,562.3z M1010.6,558.1c-0.2,0.2-0.2,0.4-0.2,0.6
		c0,0.4,0.2,0.8,0.4,1C1011,559.1,1011,558.5,1010.6,558.1z M1020.3,556.9c-0.4,0-0.6,0.4-0.8,0.6c-0.2,0.4-0.2,1.2,0.2,1.8
		c0.2,0.2,0.4,0.2,0.4,0.4c0.4-0.2,0.6-0.4,0.8-0.8c0.2-0.4,0.2-1,0-1.4C1020.9,557.3,1020.7,556.9,1020.3,556.9z M1023.1,556.3
		c0,0.4,0.2,0.6,0.4,1C1023.5,557.1,1023.3,556.7,1023.1,556.3z"/>
	<path class="st3" d="M1022.3,580c-0.2,0-0.2,0-0.4,0s-0.2-0.2-0.2-0.2c0.2-1-0.8-2-1.8-2.2c-0.8-0.2-1.6-0.2-2.6-0.2
		c-0.2,0-0.6,0-0.8,0c-1.6,0-3.4-0.2-5-0.4c-3-0.4-5.8-0.8-8.2,0.4c-0.2,0.2-0.4,0.2-0.8,0.4c-1.2,0.6-2.4,1.4-3.6,0.8
		c-0.6-0.2-1-0.8-1.2-1.2c-0.4-0.6-0.8-1.2-1.6-1.2c-0.6,0-1,0.6-1.4,1.2c-0.4,0.6-0.6,1-1.2,1.4c-0.6,0.4-1.2,0.4-2,0
		s-1.4-1.2-1.6-2v0.2c0,0.2-0.2,0.2-0.2,0.2c-0.2,0-0.2-0.2-0.2-0.2l0.2-2c0-0.2,0.2-0.2,0.2-0.2c0.2,0,0.2,0.2,0.2,0.2
		c0,1.4,0.8,2.8,1.8,3.4c0.6,0.2,1,0.2,1.4,0s0.8-0.8,1-1.2c0.4-0.8,1-1.4,1.8-1.6c0.8,0,1.4,0.6,2,1.2c0.4,0.4,0.6,0.8,1.2,1
		c1,0.6,2.2-0.2,3.2-0.8c0.2-0.2,0.6-0.2,0.8-0.4c2.6-1.4,5.6-1,8.6-0.4c1.6,0.2,3.2,0.6,4.8,0.4c0.2,0,0.6,0,0.8,0
		c1,0,1.8-0.2,2.8,0.2c1.2,0.4,2.2,1.4,2.2,2.6c0.8,0,1.4-0.6,2-1.2c0.2-0.2,0.4-0.4,0.6-0.6c0.6-0.6,1.8-0.8,2.6-0.4
		c0.2,0.2,0.4,0.4,0.6,0.6l5.6-3.6h0.2l0.2,0.2c0,1.2,0.6,2.2,1.2,3c0.8-1.2,2.2-1.8,3.8-1.6c1.6,0.2,2.8,0.8,3.4,2
		c0.8-1.2,2.6-1.4,4-1.8c3.4-0.4,6.8-1.8,9.8-3.6c0.2,0,0.2,0,0.4,0c0,0.2,0,0.2,0,0.4c-3,2-6.4,3.2-10,3.8c-1.4,0.2-3.4,0.4-4,1.8
		l-0.2,0.2c0,0-0.2,0-0.2-0.2c-0.4-1.2-1.8-2-3.2-2.2c-1.6-0.2-3,0.6-3.6,1.6c0,0,0,0.2-0.2,0.2h-0.2c-0.8-0.8-1.4-2-1.6-3.2
		l-5.6,3.6h-0.2c0,0-0.2-0.2,0-0.2c0-0.2,0-0.4-0.4-0.6c-0.6-0.2-1.6-0.2-2,0.4c-0.2,0.2-0.4,0.4-0.6,0.6
		C1023.9,579.2,1023.1,580,1022.3,580z"/>
	<path class="st4" d="M1018.3,507c0,0-0.8,2.2-0.6,4s-0.4,5.4-0.4,6.6c0,1.2,9.4,2,11.9,1.8c2.6-0.2,4-1.2,4-1.2s-0.4-9.4-0.6-10.4
		C1032.5,506.8,1018.3,507,1018.3,507z"/>
	<path class="st5" d="M1021.5,515.3c-0.2,0-0.4,0-0.6-0.2c-0.2-0.2-0.2-0.4-0.2-0.4c-0.2-1.2,0.4-2.4,1.4-2.8c0,0,0,0,0.2,0
		c0.2,0.8,0,1.8-0.6,2.4h-0.2v-0.2c0.4-0.6,0.6-1.2,0.6-2c-0.8,0.4-1.2,1.4-1,2.4c0,0.2,0,0.2,0.2,0.4s0.6,0,1-0.2s0.8-0.6,1-0.8
		c0,0,0,0-0.2-0.2s-0.2-0.4-0.2-0.8c0-1,0.6-2,1.4-2.4h0.2c0.6,0.4,0.4,1.4,0,2c-0.2,0.4-0.6,1-1,1.4c0.2,0.2,0.6,0,1,0
		c1-0.2,1.8-1,2.4-1.8c0.2-0.6,0.4-1.2,0.8-1.8h0.2c0,0,0.2,0.2,0,0.2c-0.2,0.6-0.4,1.2-0.8,1.8c0,0.4,0,0.6,0,1
		c0,0.2,0,0.4,0.2,0.4h0.2c0.2,0,0.6-0.2,0.8-0.4l1.6-1.8h0.2v0.2c0,0.2,0,0.4,0,0.6c0,0.2,0.2,0.4,0.4,0.4c0.2,0,0.4,0,0.6,0
		s0.4-0.2,0.4-0.4c0,0,0.2-0.2,0.2,0c0,0,0.2,0.2,0,0.2c-0.2,0.2-0.4,0.4-0.6,0.6c-0.2,0-0.6,0-0.8,0c-0.2-0.2-0.4-0.4-0.6-0.6v-0.2
		l-1.4,1.4c-0.2,0.2-0.6,0.6-1,0.6c-0.2,0-0.4,0-0.4-0.2c-0.2-0.2-0.2-0.4-0.2-0.6s0-0.4,0-0.6c-0.6,0.6-1.4,1.2-2.2,1.4
		c-0.4,0.2-1,0.2-1.4,0c-0.4,0.4-0.8,0.6-1.2,1C1021.9,515.3,1021.7,515.3,1021.5,515.3z M1024.5,510.9c-0.8,0.4-1.2,1.2-1.2,2.2
		c0,0.2,0,0.4,0.2,0.6c0.4-0.4,0.6-0.8,1-1.4C1024.7,511.9,1024.7,511.1,1024.5,510.9z"/>
	<path class="st4" d="M996.4,506.2c0,0-0.8,2.2-0.6,4s-0.4,5.4-0.4,6.6c0,1.2,9.4,2,11.9,1.8c2.6-0.2,4-1.2,4-1.2s-0.4-9.4-0.6-10.4
		C1010.6,506,996.4,506.2,996.4,506.2z"/>
	<path class="st5" d="M1008.8,515.1c0.2,0,0.4,0,0.6-0.2c0.2-0.2,0.2-0.2,0.2-0.4c0.2-0.8-0.4-1.6-1.4-1.8h-0.2c0,0-0.2,0-0.2,0.2
		c-0.2,0.6,0,1.2,0.6,1.6c0.2,0,0.4,0,0.4,0c0.2,0,0.2-0.2,0-0.2c-0.4-0.2-0.6-0.6-0.6-1c0.6,0.2,1,0.8,0.8,1.2c0,0,0,0.2-0.2,0.2
		s-0.6,0-0.8-0.2c-0.4-0.2-0.6-0.2-1-0.4c0.2-0.2,0.2-0.4,0.2-0.6c0-0.6-0.6-1.2-1.6-1.6c-0.2,0-0.2,0-0.4,0
		c-0.8,0.2-0.6,0.8-0.2,1.4c0.2,0.2,0.4,0.4,0.8,0.6c-0.2,0-0.4,0-0.6,0c-1-0.2-1.8-0.6-2.2-1c-0.2-0.4-0.4-0.8-0.8-1
		c0,0-0.2,0-0.4,0s-0.2,0.2-0.2,0.2c0.2,0.4,0.4,0.8,0.8,1c0,0.2,0,0.4,0,0.6v0.2c0,0,0,0-0.2,0s-0.4-0.2-0.6-0.2l-1.6-1.2
		c-0.2,0-0.2,0-0.4,0s-0.2,0.2-0.2,0.2v0.2l-0.2,0.2c-0.2,0-0.2,0-0.4,0s-0.2,0-0.4-0.2c0,0-0.2-0.2-0.4,0c-0.2,0-0.2,0.2-0.2,0.2
		c0.2,0.2,0.4,0.4,0.8,0.4c0.4,0,0.6,0,1,0c0.2,0,0.4-0.2,0.6-0.4l1,0.8c0.2,0,0.6,0.4,1.2,0.4c0.2,0,0.4,0,0.6-0.2
		c0.2-0.2,0.2-0.2,0.2-0.4c0,0,0,0,0-0.2c0.6,0.4,1.2,0.6,2,0.8c0.4,0,1,0.2,1.4,0c0.4,0.2,0.8,0.4,1,0.6
		C1008.2,515.1,1008.4,515.1,1008.8,515.1z M1005.8,512.5c0.6,0.2,1,0.8,1,1.2c0,0.2,0,0.2,0,0.2c-0.2-0.2-0.6-0.4-0.8-0.6
		C1005.8,513.1,1005.6,512.7,1005.8,512.5z"/>
	<path class="st4" d="M969.1,507.6c0,0-0.8,2.2-0.6,4c0.2,1.8-0.4,5.4-0.4,6.6s9.4,2,11.9,1.8c2.6-0.2,4-1.2,4-1.2
		s-0.4-9.4-0.6-10.4C983.3,507.4,969.1,507.6,969.1,507.6z"/>
	<path class="st5" d="M982.3,516.3C982.3,516.3,982.1,516.3,982.3,516.3c-0.8-1.4-1.6-2.6-2.4-4c-0.2,0.2,0,0.8,0,1.6
		c0.2,0.8,0.2,1.4,0,1.8c-0.2,0.6-0.8,0-1.2-0.4c-0.2-0.2-0.4-0.6-0.8-0.8c-0.2-0.4-0.6-0.6-0.8-1c-0.6-0.8-1.2-0.8-1.6-0.4
		c0,0.2-0.2,0.4-0.2,0.8c-0.2,0.6-0.2,1.2-0.8,1c-0.2-0.2-0.6-0.4-0.8-0.8c-0.2-0.2-0.4-0.4-0.6-0.6c-0.4-0.2-0.6,0-0.6,0.6
		c0,0,0,0.2,0,0l-0.2-0.2c0-0.2-0.2-0.4-0.2-0.4c0.2,1,0.2,1.6,0,2.2c0,0.2-0.2,0-0.2-0.2s-0.2-0.4-0.2-0.6c0.2-0.6,0-1.4-0.2-2.6
		c0-0.2,0-0.2,0-0.2s0.2,0,0.2,0.2c0.2,0.2,0.2,0.4,0.4,0.6c0-0.6,0.4-0.8,0.8-0.4c0.2,0.2,0.4,0.4,0.6,0.6c0.2,0.2,0.6,0.6,0.6,0.6
		c0.4,0.2,0.6-0.4,0.6-1c0-0.2,0.2-0.6,0.2-0.8c0.2-0.6,1-0.4,1.8,0.4c0.2,0.2,0.6,0.6,0.8,1c0.2,0.2,0.4,0.6,0.6,0.8
		c0.6,0.6,0.8,0.8,1,0.4c0-0.2,0-1,0-1.6c-0.2-0.8-0.2-1.8,0-2c0,0,0.2,0,0.2,0.2c0.8,1.4,1.4,2.6,2.2,4
		C982.3,515.9,982.3,516.1,982.3,516.3z"/>
	<path class="st3" d="M845.1,519.5c0,0-0.8,2.2-0.6,4s-0.4,5.4-0.4,6.6c0,1.2,9.4,2,11.9,1.8c2.6-0.2,4-1.2,4-1.2s-0.4-9.4-0.6-10.4
		C859.2,519.3,845.1,519.5,845.1,519.5z"/>
	<path class="st1" d="M848.3,527.9c-0.2,0-0.4,0-0.6-0.2c-0.2-0.2-0.2-0.4-0.2-0.4c-0.2-1.2,0.4-2.4,1.4-2.8c0,0,0,0,0.2,0
		c0.2,0.8,0,1.8-0.6,2.4h-0.2v-0.2c0.4-0.6,0.6-1.2,0.6-2c-0.8,0.4-1.2,1.4-1,2.4c0,0.2,0,0.2,0.2,0.4s0.6,0,1-0.2s0.8-0.6,1-0.8
		c0,0,0,0-0.2-0.2s-0.2-0.4-0.2-0.8c0-1,0.6-2,1.4-2.4h0.2c0.6,0.4,0.4,1.4,0,2c-0.2,0.4-0.6,1-1,1.4c0.2,0.2,0.6,0,1,0
		c1-0.2,1.8-1,2.4-1.8c0.2-0.6,0.4-1.2,0.8-1.8h0.2c0,0,0.2,0.2,0,0.2c-0.2,0.6-0.4,1.2-0.8,1.8c0,0.4,0,0.6,0,1
		c0,0.2,0,0.4,0.2,0.4h0.2c0.2,0,0.6-0.2,0.8-0.4l1.6-1.8h0.2v0.2c0,0.2,0,0.4,0,0.6s0.2,0.4,0.4,0.4s0.4,0,0.6,0
		c0.2,0,0.4-0.2,0.4-0.4c0,0,0.2-0.2,0.2,0c0,0,0.2,0.2,0,0.2c-0.2,0.2-0.4,0.4-0.6,0.6c-0.2,0-0.6,0-0.8,0
		c-0.2-0.2-0.4-0.4-0.6-0.6v-0.2l-1.4,1.4c-0.2,0.2-0.6,0.6-1,0.6c-0.2,0-0.4,0-0.4-0.2c-0.2-0.2-0.2-0.4-0.2-0.6c0-0.2,0-0.4,0-0.6
		c-0.6,0.6-1.4,1.2-2.2,1.4c-0.4,0.2-1,0.2-1.4,0c-0.4,0.4-0.8,0.6-1.2,1C848.7,527.9,848.5,527.9,848.3,527.9z M851.3,523.5
		c-0.8,0.4-1.2,1.2-1.2,2.2c0,0.2,0,0.4,0.2,0.6c0.4-0.4,0.6-0.8,1-1.4C851.5,524.5,851.5,523.9,851.3,523.5z"/>
	<path class="st3" d="M823.2,518.7c0,0-0.8,2.2-0.6,4s-0.4,5.4-0.4,6.6c0,1.2,9.4,2,11.9,1.8c2.6-0.2,4-1.2,4-1.2s-0.4-9.4-0.6-10.4
		C837.3,518.5,823.2,518.7,823.2,518.7z"/>
	<path class="st1" d="M835.5,527.9c0.2,0,0.4,0,0.6-0.2c0.2-0.2,0.2-0.2,0.2-0.4c0.2-0.8-0.4-1.6-1.4-1.8h-0.2c0,0-0.2,0-0.2,0.2
		c-0.2,0.6,0,1.2,0.6,1.6c0.2,0,0.4,0,0.4,0c0.2,0,0.2-0.2,0-0.2c-0.4-0.2-0.6-0.6-0.6-1c0.6,0.2,1,0.8,0.8,1.2c0,0,0,0.2-0.2,0.2
		s-0.6,0-0.8-0.2c-0.4-0.2-0.6-0.2-1-0.4c0.2-0.2,0.2-0.4,0.2-0.6c0-0.6-0.6-1.2-1.6-1.6c-0.2,0-0.2,0-0.4,0
		c-0.8,0.2-0.6,0.8-0.2,1.4c0.2,0.2,0.4,0.4,0.8,0.6c-0.2,0-0.4,0-0.6,0c-1-0.2-1.8-0.6-2.2-1c-0.2-0.4-0.4-0.8-0.8-1
		c0,0-0.2,0-0.4,0s-0.2,0.2-0.2,0.2c0.2,0.4,0.4,0.8,0.8,1c0,0.2,0,0.4,0,0.6v0.2c0,0,0,0-0.2,0s-0.4-0.2-0.6-0.2l-1.6-1.2
		c-0.2,0-0.2,0-0.4,0s-0.2,0.2-0.2,0.2v0.2l-0.2,0.2c-0.2,0-0.2,0-0.4,0s-0.2,0-0.4-0.2c0,0-0.2-0.2-0.4,0c-0.2,0-0.2,0.2-0.2,0.2
		c0.2,0.2,0.4,0.4,0.8,0.4s0.6,0,1,0c0.2,0,0.4-0.2,0.6-0.4l1,0.8c0.2,0,0.6,0.4,1.2,0.4c0.2,0,0.4,0,0.6-0.2
		c0.2-0.2,0.2-0.2,0.2-0.4c0,0,0,0,0-0.2c0.6,0.4,1.2,0.6,2,0.8c0.4,0,1,0.2,1.4,0c0.4,0.2,0.8,0.4,1,0.6
		C834.9,527.7,835.1,527.9,835.5,527.9z M832.5,525.1c0.6,0.2,1,0.8,1,1.2c0,0.2,0,0.2,0,0.2c-0.2-0.2-0.6-0.4-0.8-0.6
		C832.5,525.7,832.3,525.3,832.5,525.1z"/>
	<path class="st3" d="M795.9,520.3c0,0-0.8,2.2-0.6,4s-0.4,5.4-0.4,6.6s9.4,2,11.9,1.8c2.6-0.2,4-1.2,4-1.2s-0.4-9.4-0.6-10.4
		C810,520.1,795.9,520.3,795.9,520.3z"/>
	<path class="st1" d="M809,528.9C809,528.9,808.8,528.9,809,528.9c-0.8-1.4-1.6-2.6-2.4-4c-0.2,0.2,0,0.8,0,1.6
		c0.2,0.8,0.2,1.4,0,1.8c-0.2,0.6-0.8,0-1.2-0.4c-0.2-0.2-0.4-0.6-0.8-0.8c-0.2-0.4-0.6-0.6-0.8-1c-0.6-0.8-1.2-0.8-1.6-0.4
		c0,0.2-0.2,0.4-0.2,0.8c-0.2,0.6-0.2,1.2-0.8,1c-0.2-0.2-0.6-0.4-0.8-0.8c-0.2-0.2-0.4-0.4-0.6-0.6c-0.4-0.2-0.6,0-0.6,0.6
		c0,0,0,0.2,0,0l-0.2-0.2c0-0.2-0.2-0.4-0.2-0.4c0.2,1,0.2,1.6,0,2.2c0,0.2-0.2,0-0.2-0.2s-0.2-0.4-0.2-0.6c0.2-0.6,0-1.4-0.2-2.6
		c0-0.2,0-0.2,0-0.2s0.2,0,0.2,0.2c0.2,0.2,0.2,0.4,0.4,0.6c0-0.6,0.4-0.8,0.8-0.4c0.2,0.2,0.4,0.4,0.6,0.6c0.2,0.2,0.6,0.6,0.6,0.6
		c0.4,0.2,0.6-0.4,0.6-1c0-0.2,0.2-0.6,0.2-0.8c0.2-0.6,1-0.4,1.8,0.4c0.2,0.2,0.6,0.6,0.8,1c0.2,0.2,0.4,0.6,0.6,0.8
		c0.6,0.6,0.8,0.8,1,0.4c0-0.2,0-1,0-1.6c-0.2-0.8-0.2-1.8,0-2c0,0,0.2,0,0.2,0.2c0.8,1.4,1.4,2.6,2.2,4
		C809,528.5,809,528.7,809,528.9z"/>
	<path class="st3" d="M790.2,551.6c0,0-0.8,2.2-0.6,4c0.4,2-0.4,5.4-0.4,6.6c0,1.2,9.4,2,11.9,1.8c2.6-0.2,4-1.2,4-1.2
		s-0.4-9.4-0.6-10.4C804.3,551.4,790.2,551.6,790.2,551.6z"/>
	<path class="st1" d="M793.2,560.1c-0.2,0-0.4,0-0.6-0.2c-0.2-0.2-0.2-0.4-0.2-0.4c-0.2-1.2,0.4-2.4,1.4-2.8c0,0,0,0,0.2,0
		c0.2,0.8,0,1.8-0.6,2.4h-0.2v-0.2c0.4-0.6,0.6-1.2,0.6-2c-0.8,0.4-1.2,1.4-1,2.4c0,0.2,0,0.2,0.2,0.4s0.6,0,1-0.2s0.8-0.6,1-0.8
		c0,0,0,0-0.2-0.2s-0.2-0.4-0.2-0.8c0-1,0.6-2,1.4-2.4h0.2c0.6,0.4,0.4,1.4,0,2c-0.2,0.4-0.6,1-1,1.4c0.2,0.2,0.6,0,1,0
		c1-0.2,1.8-1,2.4-1.8c0.2-0.6,0.4-1.2,0.8-1.8h0.2c0,0,0.2,0.2,0,0.2c-0.2,0.6-0.4,1.2-0.8,1.8c0,0.4,0,0.6,0,1
		c0,0.2,0,0.4,0.2,0.4h0.2c0.2,0,0.6-0.2,0.8-0.4l1.6-1.8h0.2v0.2c0,0.2,0,0.4,0,0.6c0,0.2,0.2,0.4,0.4,0.4s0.4,0,0.6,0
		c0.2,0,0.4-0.2,0.4-0.4c0,0,0.2-0.2,0.2,0c0,0,0.2,0.2,0,0.2c-0.2,0.2-0.4,0.4-0.6,0.6c-0.2,0-0.6,0-0.8,0
		c-0.2-0.2-0.4-0.4-0.6-0.6v-0.2l-1.4,1.4c-0.2,0.2-0.6,0.6-1,0.6c-0.2,0-0.4,0-0.4-0.2c-0.2-0.2-0.2-0.4-0.2-0.6c0-0.2,0-0.4,0-0.6
		c-0.6,0.6-1.4,1.2-2.2,1.4c-0.4,0.2-1,0.2-1.4,0c-0.4,0.4-0.8,0.6-1.2,1C793.8,559.9,793.4,560.1,793.2,560.1z M796.2,555.6
		c-0.8,0.4-1.2,1.2-1.2,2.2c0,0.2,0,0.4,0.2,0.6c0.4-0.4,0.6-0.8,1-1.4C796.4,556.5,796.6,556,796.2,555.6z"/>
	<path class="st3" d="M860.2,549c0,0-0.8,2.2-0.6,4s-0.4,5.4-0.4,6.6c0,1.2,9.4,2,11.9,1.8c2.6-0.2,4-1.2,4-1.2s-0.4-9.4-0.6-10.4
		C874.4,548.8,860.2,549,860.2,549z"/>
	<path class="st1" d="M872.6,558.1c0.2,0,0.4,0,0.6-0.2c0.2-0.2,0.2-0.2,0.2-0.4c0.2-0.8-0.4-1.6-1.4-1.8h-0.2c0,0-0.2,0-0.2,0.2
		c-0.2,0.6,0,1.2,0.6,1.6c0.2,0,0.4,0,0.4,0c0.2,0,0.2-0.2,0-0.2c-0.4-0.2-0.6-0.6-0.6-1c0.6,0.2,1,0.8,0.8,1.2c0,0,0,0.2-0.2,0.2
		s-0.6,0-0.8-0.2c-0.4-0.2-0.6-0.2-1-0.4c0.2-0.2,0.2-0.4,0.2-0.6c0-0.6-0.6-1.2-1.6-1.6c-0.2,0-0.2,0-0.4,0
		c-0.8,0.2-0.6,0.8-0.2,1.4c0.2,0.2,0.4,0.4,0.8,0.6c-0.2,0-0.4,0-0.6,0c-1-0.2-1.8-0.6-2.2-1c-0.2-0.4-0.4-0.8-0.8-1
		c0,0-0.2,0-0.4,0s-0.2,0.2-0.2,0.2c0.2,0.4,0.4,0.8,0.8,1c0,0.2,0,0.4,0,0.6v0.2c-0.2,0-0.4-0.2-0.6-0.2l-1.6-1.2
		c-0.2,0-0.2,0-0.4,0s-0.2,0.2-0.2,0.2v0.2l-0.2,0.2c-0.2,0-0.2,0-0.4,0s-0.2,0-0.4-0.2c0,0-0.2-0.2-0.4,0c-0.2,0-0.2,0.2-0.2,0.2
		c0.2,0.2,0.4,0.4,0.8,0.4c0.4,0,0.6,0,1,0c0.2,0,0.4-0.2,0.6-0.4l1,0.8c0.2,0,0.6,0.4,1.2,0.4c0.2,0,0.4,0,0.6-0.2
		c0.2-0.2,0.2-0.2,0.2-0.4c0,0,0,0,0-0.2c0.6,0.4,1.2,0.6,2,0.8c0.4,0,1,0.2,1.4,0c0.4,0.2,0.8,0.4,1,0.6
		C872,557.9,872.4,558.1,872.6,558.1z M869.6,555.3c0.6,0.2,1,0.8,1,1.2c0,0.2,0,0.2,0,0.2c-0.2-0.2-0.6-0.4-0.8-0.6
		C869.6,555.9,869.4,555.5,869.6,555.3z"/>
	<path class="st3" d="M831.8,544.5c0,0-0.8,2.2-0.6,4s-0.4,5.4-0.4,6.6c0,1.2,9.4,2,11.9,1.8c2.6-0.2,4-1.2,4-1.2s-0.4-9.4-0.6-10.4
		C846,544.3,831.8,544.5,831.8,544.5z"/>
	<path class="st1" d="M845,553.1C845,553.1,844.8,553.1,845,553.1c-0.8-1.4-1.6-2.6-2.4-4c-0.2,0.2,0,0.8,0,1.6
		c0.2,0.8,0.2,1.4,0,1.8c-0.2,0.6-0.8,0-1.2-0.4c-0.2-0.2-0.4-0.6-0.8-0.8c-0.2-0.4-0.6-0.6-0.8-1c-0.6-0.8-1.2-0.8-1.6-0.4
		c0,0.2-0.2,0.4-0.2,0.8c-0.2,0.6-0.2,1.2-0.8,1c-0.2-0.2-0.6-0.4-0.8-0.8c-0.2-0.2-0.4-0.4-0.6-0.6c-0.4-0.2-0.6,0-0.6,0.6
		c0,0,0,0.2,0,0l-0.2-0.2c0-0.2-0.2-0.4-0.2-0.4c0.2,1,0.2,1.6,0,2.2c0,0.2-0.2,0-0.2-0.2s-0.2-0.4-0.2-0.6c0.2-0.6,0-1.4-0.2-2.6
		c0-0.2,0-0.2,0-0.2s0.2,0,0.2,0.2c0.2,0.2,0.2,0.4,0.4,0.6c0-0.6,0.4-0.8,0.8-0.4c0.2,0.2,0.4,0.4,0.6,0.6c0.2,0.2,0.6,0.6,0.6,0.6
		c0.4,0.2,0.6-0.4,0.6-1c0-0.2,0.2-0.6,0.2-0.8c0.2-0.6,1-0.4,1.8,0.4c0.2,0.2,0.6,0.6,0.8,1c0.2,0.2,0.4,0.6,0.6,0.8
		c0.6,0.6,0.8,0.8,1,0.4c0-0.2,0-1,0-1.6c-0.2-0.8-0.2-1.8,0-2c0,0,0.2,0,0.2,0.2c0.8,1.4,1.4,2.6,2.2,4
		C845,552.7,845,552.9,845,553.1z"/>
	<path class="st3" d="M881.3,577.5c0,0-0.8,2.2-0.6,4c0.4,2-0.4,5.4-0.4,6.6c0,1.2,9.4,2,11.9,1.8c2.6-0.2,4-1.2,4-1.2
		s-0.4-9.4-0.6-10.4C895.4,577.3,881.3,577.5,881.3,577.5z"/>
	<path class="st1" d="M893.7,586.7c0.2,0,0.4,0,0.6-0.2c0.2-0.2,0.2-0.2,0.2-0.4c0.2-0.8-0.4-1.6-1.4-1.8h-0.2c0,0-0.2,0-0.2,0.2
		c-0.2,0.6,0,1.2,0.6,1.6c0.2,0,0.4,0,0.4,0c0.2,0,0.2-0.2,0-0.2c-0.4-0.2-0.6-0.6-0.6-1c0.6,0.2,1,0.8,0.8,1.2c0,0,0,0.2-0.2,0.2
		s-0.6,0-0.8-0.2c-0.4-0.2-0.6-0.2-1-0.4c0.2-0.2,0.2-0.4,0.2-0.6c0-0.6-0.6-1.2-1.6-1.6c-0.2,0-0.2,0-0.4,0
		c-0.8,0.2-0.6,0.8-0.2,1.4c0.2,0.2,0.4,0.4,0.8,0.6c-0.2,0-0.4,0-0.6,0c-1-0.2-1.8-0.6-2.2-1c-0.2-0.4-0.4-0.8-0.8-1
		c0,0-0.2,0-0.4,0s-0.2,0.2-0.2,0.2c0.2,0.4,0.4,0.8,0.8,1c0,0.2,0,0.4,0,0.6v0.2c0,0,0,0-0.2,0s-0.4-0.2-0.6-0.2l-1.6-1.2
		c-0.2,0-0.2,0-0.4,0s-0.2,0.2-0.2,0.2v0.2l-0.2,0.2c-0.2,0-0.2,0-0.4,0s-0.2,0-0.4-0.2c0,0-0.2-0.2-0.4,0c-0.2,0-0.2,0.2-0.2,0.2
		c0.2,0.2,0.4,0.4,0.8,0.4c0.4,0,0.6,0,1,0c0.2,0,0.4-0.2,0.6-0.4l1,0.8c0.2,0,0.6,0.4,1.2,0.4c0.2,0,0.4,0,0.6-0.2
		c0.2-0.2,0.2-0.2,0.2-0.4c0,0,0,0,0-0.2c0.6,0.4,1.2,0.6,2,0.8c0.4,0,1,0.2,1.4,0c0.4,0.2,0.8,0.4,1,0.6
		C893.1,586.7,893.3,586.7,893.7,586.7z M890.7,584.1c0.6,0.2,1,0.8,1,1.2c0,0.2,0,0.2,0,0.2c-0.2-0.2-0.6-0.4-0.8-0.6
		C890.7,584.5,890.5,584.1,890.7,584.1z"/>
	<path class="st3" d="M859.3,569.6c0,0-0.8,2.2-0.6,4c0.4,2-0.4,5.4-0.4,6.6c0,1.2,9.4,2,11.9,1.8c2.6-0.2,4-1.2,4-1.2
		s-0.4-9.4-0.6-10.4C873.5,569.4,859.3,569.6,859.3,569.6z"/>
	<path class="st1" d="M872.5,578.4C872.3,578.4,872.3,578.4,872.5,578.4c-0.8-1.4-1.6-2.6-2.4-4c-0.2,0.2,0,0.8,0,1.6
		c0.2,0.8,0.2,1.4,0,1.8c-0.2,0.6-0.8,0-1.2-0.4c-0.2-0.2-0.4-0.6-0.8-0.8c-0.2-0.4-0.6-0.6-0.8-1c-0.6-0.8-1.2-0.8-1.6-0.4
		c0,0.2-0.2,0.4-0.2,0.8c-0.2,0.6-0.2,1.2-0.8,1c-0.2-0.2-0.6-0.4-0.8-0.8c-0.2-0.2-0.4-0.4-0.6-0.6c-0.4-0.2-0.6,0-0.6,0.6
		c0,0,0,0.2,0,0l-0.2-0.2c0-0.2-0.2-0.4-0.2-0.4c0.2,1,0.2,1.6,0,2.2c0,0.2-0.2,0-0.2-0.2s-0.2-0.4-0.2-0.6c0.2-0.6,0-1.4-0.2-2.6
		c0-0.2,0-0.2,0-0.2s0.2,0,0.2,0.2c0.2,0.2,0.2,0.4,0.4,0.6c0-0.6,0.4-0.8,0.8-0.4c0.2,0.2,0.4,0.4,0.6,0.6c0.2,0.2,0.6,0.6,0.6,0.6
		c0.4,0.2,0.6-0.4,0.6-1c0-0.2,0.2-0.6,0.2-0.8c0.2-0.6,1-0.4,1.8,0.4c0.2,0.2,0.6,0.6,0.8,1c0.2,0.2,0.4,0.6,0.6,0.8
		c0.6,0.6,0.8,0.8,1,0.4c0-0.2,0-1,0-1.6c-0.2-0.8-0.2-1.8,0-2c0,0,0.2,0,0.2,0.2c0.8,1.4,1.4,2.6,2.2,4
		C872.3,578,872.5,578.2,872.5,578.4z"/>
	<path class="st3" d="M873.5,614.4c0,0-0.8,2.2-0.6,4s-0.4,5.4-0.4,6.6c0,1.2,9.4,2,11.9,1.8c2.4-0.2,4-1.2,4-1.2s-0.4-9.4-0.6-10.4
		C887.6,614.2,873.5,614.4,873.5,614.4z"/>
	<path class="st1" d="M876.6,622.8c-0.2,0-0.4,0-0.6-0.2c-0.2-0.2-0.2-0.4-0.2-0.4c-0.2-1.2,0.4-2.4,1.4-2.8c0,0,0,0,0.2,0
		c0.2,0.8,0,1.8-0.6,2.4h-0.2v-0.2c0.4-0.6,0.6-1.2,0.6-2c-0.8,0.4-1.2,1.4-1,2.4c0,0.2,0,0.2,0.2,0.4s0.6,0,1-0.2s0.8-0.6,1-0.8
		c0,0,0,0-0.2-0.2s-0.2-0.4-0.2-0.8c0-1,0.6-2,1.4-2.4h0.2c0.6,0.4,0.4,1.4,0,2c-0.2,0.4-0.6,1-1,1.4c0.2,0.2,0.6,0,1,0
		c1-0.2,1.8-1,2.4-1.8c0.2-0.6,0.4-1.2,0.8-1.8h0.2c0,0,0.2,0.2,0,0.2c-0.2,0.6-0.4,1.2-0.8,1.8c0,0.4,0,0.6,0,1
		c0,0.2,0,0.4,0.2,0.4h0.2c0.2,0,0.6-0.2,0.8-0.4l1.6-1.8h0.2v0.2c0,0.2,0,0.4,0,0.6c0,0.2,0.2,0.4,0.4,0.4s0.4,0,0.6,0
		c0.2,0,0.4-0.2,0.4-0.4c0,0,0.2-0.2,0.2,0c0,0,0.2,0.2,0,0.2c-0.2,0.2-0.4,0.4-0.6,0.6c-0.2,0-0.6,0-0.8,0
		c-0.2-0.2-0.4-0.4-0.6-0.6v-0.2l-1.4,1.4c-0.2,0.2-0.6,0.6-1,0.6c-0.2,0-0.4,0-0.4-0.2c-0.2-0.2-0.2-0.4-0.2-0.6c0-0.2,0-0.4,0-0.6
		c-0.6,0.6-1.4,1.2-2.2,1.4c-0.4,0.2-1,0.2-1.4,0c-0.4,0.4-0.8,0.6-1.2,1C877.2,622.8,876.8,622.8,876.6,622.8z M879.6,618.4
		c-0.8,0.4-1.2,1.2-1.2,2.2c0,0.2,0,0.4,0.2,0.6c0.4-0.4,0.6-0.8,1-1.4C879.8,619.4,880,618.6,879.6,618.4z"/>
	<path class="st3" d="M930.3,605.1c0,0-0.8,2.2-0.6,4s-0.4,5.4-0.4,6.6c0,1.2,9.4,2,11.9,1.8c2.4-0.2,4-1.2,4-1.2s-0.4-9.4-0.6-10.4
		C944.4,604.9,930.3,605.1,930.3,605.1z"/>
	<path class="st1" d="M942.7,614.3c0.2,0,0.4,0,0.6-0.2c0.2-0.2,0.2-0.2,0.2-0.4c0.2-0.8-0.4-1.6-1.4-1.8h-0.2c0,0-0.2,0-0.2,0.2
		c-0.2,0.6,0,1.2,0.6,1.6c0.2,0,0.4,0,0.4,0c0.2,0,0.2-0.2,0-0.2c-0.4-0.2-0.6-0.6-0.6-1c0.6,0.2,1,0.8,0.8,1.2c0,0,0,0.2-0.2,0.2
		s-0.6,0-0.8-0.2c-0.4-0.2-0.6-0.2-1-0.4c0.2-0.2,0.2-0.4,0.2-0.6c0-0.6-0.6-1.2-1.6-1.6c-0.2,0-0.2,0-0.4,0
		c-0.8,0.2-0.6,0.8-0.2,1.4c0.2,0.2,0.4,0.4,0.8,0.6c-0.2,0-0.4,0-0.6,0c-1-0.2-1.8-0.6-2.2-1c-0.2-0.4-0.4-0.8-0.8-1
		c0,0-0.2,0-0.4,0s-0.2,0.2-0.2,0.2c0.2,0.4,0.4,0.8,0.8,1c0,0.2,0,0.4,0,0.6v0.2c0,0,0,0-0.2,0s-0.4-0.2-0.6-0.2l-1.6-1.2
		c-0.2,0-0.2,0-0.4,0s-0.2,0.2-0.2,0.2v0.2l-0.2,0.2c-0.2,0-0.2,0-0.4,0s-0.2,0-0.4-0.2c0,0-0.2-0.2-0.4,0c-0.2,0-0.2,0.2-0.2,0.2
		c0.2,0.2,0.4,0.4,0.8,0.4s0.6,0,1,0c0.2,0,0.4-0.2,0.6-0.4l1,0.8c0.2,0,0.6,0.4,1.2,0.4c0.2,0,0.4,0,0.6-0.2
		c0.2-0.2,0.2-0.2,0.2-0.4c0,0,0,0,0-0.2c0.6,0.4,1.2,0.6,2,0.8c0.4,0,1,0.2,1.4,0c0.4,0.2,0.8,0.4,1,0.6
		C942.1,614.3,942.3,614.3,942.7,614.3z M939.7,611.7c0.6,0.2,1,0.8,1,1.2c0,0.2,0,0.2,0,0.2c-0.2-0.2-0.6-0.4-0.8-0.6
		C939.7,612.1,939.5,611.9,939.7,611.7z"/>
	<path class="st3" d="M903,606.7c0,0-0.8,2.2-0.6,4s-0.4,5.4-0.4,6.6c0,1.2,9.4,2,11.9,1.8c2.6-0.2,4-1.2,4-1.2s-0.4-9.4-0.6-10.4
		C917.2,606.5,903,606.7,903,606.7z"/>
	<path class="st1" d="M916.2,615.5c-0.8-1.4-1.6-2.6-2.4-4c-0.2,0.2,0,0.8,0,1.6c0.2,0.8,0.2,1.4,0,1.8c-0.2,0.6-0.8,0-1.2-0.4
		c-0.2-0.2-0.4-0.6-0.8-0.8c-0.2-0.4-0.6-0.6-0.8-1c-0.6-0.8-1.2-0.8-1.6-0.4c0,0.2-0.2,0.4-0.2,0.8c-0.2,0.6-0.2,1.2-0.8,1
		c-0.2-0.2-0.6-0.4-0.8-0.8c-0.2-0.2-0.4-0.4-0.6-0.6c-0.4-0.2-0.6,0-0.6,0.6l-0.2-0.2c0-0.2-0.2-0.4-0.2-0.4c0.2,1,0.2,1.6,0,2.2
		c0,0.2-0.2,0-0.2-0.2s-0.2-0.4-0.2-0.6c0.2-0.6,0-1.4-0.2-2.6c0-0.2,0-0.2,0-0.2s0.2,0,0.2,0.2c0.2,0.2,0.2,0.4,0.4,0.6
		c0-0.6,0.4-0.8,0.8-0.4c0.2,0.2,0.4,0.4,0.6,0.6c0.2,0.2,0.6,0.6,0.6,0.6c0.4,0.2,0.6-0.4,0.6-1c0-0.2,0.2-0.6,0.2-0.8
		c0.2-0.6,1-0.4,1.8,0.4c0.2,0.2,0.6,0.6,0.8,1c0.2,0.2,0.4,0.6,0.6,0.8c0.6,0.6,0.8,0.8,1,0.4c0-0.2,0-1,0-1.6
		c-0.2-0.8-0.2-1.8,0-2c0,0,0.2,0,0.2,0.2c0.8,1.4,1.4,2.6,2.2,4C916.2,615.1,916.2,615.3,916.2,615.5z"/>
	<path class="st1" d="M1483,649.1c-16.9-0.6-34.3-0.6-51.4-0.6c1.2,0,2.2,0,3.4-0.2c1.4-5,1.8-10.2,2.2-15.5c0.2,0,0.4,0,0.6,0h0.2
		v-0.2c0-0.6,0.2-1,0.2-1.6c-4.4-0.4-8.6-0.4-12.9-0.4c0,0.6,0,1.4,0,2c0.4,0,0.8,0,1.2,0.2c0,5,0.4,10,1,14.9c0,0.2,0,0.4,0.2,0.6
		c0.2,0.2,0.4,0.2,0.4,0.2c1.2,0.2,2.2,0.2,3.4,0.2c-4.2,0-8.6,0-12.7,0c1.4-0.2,3.2-0.8,3.2-2.2c-7.6,0-15.1,0.6-22.5-0.2
		c-1.2-0.2-2.6-0.4-3.2-1.2c-0.4-0.4-0.6-1-0.6-1.6c-1-4.6,0.2-9.4,1.4-13.9c1.8-6,4-11.7,6.4-17.5c1.6,7.6,3.2,15.1,5,22.7
		c0.4,1.6,1,3.4,2.4,3.8c0.8,0.2,1.6,0,2.6-0.2c2-0.6,2-0.6,4-1c0-7-2.4-14.1-3.8-21.1c-5.4-23.9-8.8-41.2-12.5-62.3
		c-9.6-0.6-7,5.6-5.8,12.5c1.2,7.8,2.6,15.3,4,23.1c0.8,4.2,1.6,8.4,2.4,12.5c-0.2,0.2-0.2,0.2-0.4,0.4c-1.6,2.6-2,6.8-2.6,9.8
		c-1.6,6.4-3.2,12.9-4.4,19.5c-0.8,3.8-1.4,7.4-2,11.2c-0.2,1.6-0.4,3.2,0.6,4.4c0.6,1,1.8,1.4,3,1.6c-14.5,0.2-29.3,0.2-43.6,0.2
		c1-0.2,1.8-0.8,2.4-1.6c1-1.4,0.8-3.2,0.6-5c-0.6-4.2-1.4-8.4-2.2-12.5c-1.4-7.4-3-14.5-4.8-21.7c-0.8-3.2-1.2-8-3-10.8
		c-0.2-0.2-0.2-0.4-0.4-0.6c1-4.8,1.8-9.4,2.8-14.1c1.6-8.6,3.2-17.1,4.6-25.9c1.2-7.8,4.2-14.5-6.6-13.9
		c-4.4,23.5-8.2,42.8-14.1,69.7c-1.8,7.8-4.4,15.5-4.4,23.5c2.2,0.6,2.2,0.6,4.4,1.2c1,0.2,1.8,0.6,2.8,0.2c1.8-0.6,2.4-2.6,2.8-4.2
		c2-8.4,3.8-16.9,5.6-25.5c2.6,6.4,5.2,12.9,7.2,19.5c1.6,5,2.6,10.4,1.6,15.5c-0.2,0.6-0.4,1.4-0.6,1.8c-0.8,1-2.4,1.4-3.6,1.4
		c-8.4,0.8-16.7,0.2-25.3,0.2c0,1.2,1.4,2,2.6,2.2c-5.4,0-10.8,0-16.3,0v-0.2c-0.4-1.2-1.2-2.4-3-3.2c-1.4-0.6-3.4-0.6-5.2-0.6
		c-2.2,0.2-4.4,0.4-6.2,1.2c-0.4,0.2-1,0.6-1.6,1.2c-10.6,0.4-21.3,0.6-31.9,0.4c0,0-0.2,1.8,0,2l0.2,0.2
		c-6.4,0.2-12.5,0.2-18.9,0.4c0.6,2.6-2.2,5.2-1.6,7.8c3.2,0,6.4,0,9.6,0c0,0,0,0,0,0.2c-0.2,1-0.2,2,0.2,2.8c0.2,0.4,0.2,1,0.6,1.4
		c0.2,0.4-1.2,0.8,0,1c-0.2,0.2,0,0.4,3.6,0.4c1.4,0,3,0,5,0c-1.4,2.4-1.4,5.2-1.2,8c0.4,19.9,0.4,39.8,0.4,59.7
		c0,9.6-1.4,51.4-0.2,60.9c3.6,0.4,6.4,0.4,9.6-0.2c0.6-1.2,1-2.6,1-4.2c-1.2-31.3,3.4-91.8,0.4-124.3c0,0,0,0,0.2,0
		c7.6,0,15.7,0,20.7,0c10,0,19.9,0,30.1,0c46,0,84,0,130.2,0c2.4,0,7.4,0,12.3,0c0,18.3,0,36.6,0,54.8c0,9.4,0,18.7,0,28.1
		c0,3.6-1.6,40,0,43.2c1.2,2.4,8.6,2.8,8.6,2.6c-1.6-9,0.8-47.8,1.8-56.9c1.4-12.7-0.4-25.7-0.8-38.4c-0.4-11.2,0.2-22.5,1.6-33.7
		c1.2,0,2.2,0,2.8,0c1.2,0,2.2,0,2.8-0.2c2.6-0.2,1-0.8,1.2-1h-0.2h-0.2c0.2-0.4-0.4-1-0.2-1.2c0.2-0.6,0.4-1.2,0.4-2
		s-0.2-1.4-0.6-2.2c1.8,0,3.6,0,5.4,0C1484.6,654.3,1484.4,651.7,1483,649.1z"/>
	<path class="st1" d="M1104.9,581.5c-1-0.8-1.6-2.3-1-3.5c0.2-0.6,0.8-0.8,0.8-1.4c0.2-0.8-0.6-1.4-1-2.3c-0.4-0.6-0.4-1.9,0.4-2.1
		c0.8,1.6,1.9,2.9,3.1,4.1c0.4,0.4,0.6,0.6,1.2,0.6c0.8,0,1.2-0.6,1.9-1c0.6-0.4,1.6-0.4,1.9,0.4c-1.9,3.9-0.4,9.5,0.2,13.6
		c0.4,3.1,0.8,6.2,1,9.1c0.4,0,1,0,1.4,0c0.8,0,1.6,0,2.1,0.8c0.4,0.8-0.4,1.6-1,2.5c-2.1,2.3-1.6,6-1,9.1c0.2,0.8,0.4,1.9,1.2,2.3
		c1.2,0.4,2.3-1,2.7-2.3c1.4-4.1,3.1-8.4,4.5-12.6c0.6-1.9,1.2-3.7,2.5-5.1c0.8-1,1.6-1.6,2.7-2.1c0.2-1,0.2-2.1,0.8-2.9
		c0.4-0.8,1.2-1.4,2.3-2.1c1.9-1.2,3.9-1.9,6.2-2.5c0.2-0.2,0.2-0.2,0.4-0.4c0.4-0.4,1-0.8,1.4-1c0.6-0.2,1.2-0.2,1.6,0.4
		c0,0,0,0,0,0.2c0.2,0,0.2,0,0.4,0c1.6-0.4,3.1-0.6,4.7-0.8c2.3-0.6,4.5-1.2,7-1.6c0.2,0.2,0.2,0.4,0.4,0.8c0.6,0,1.2-0.2,1.9-0.2
		c0.4,0,0.8,0,1.2,0.2c0.4,0.2,0.4,0.8,0.6,1.2c0.4,1.6,0.6,3.3,0.8,4.9c0.4-0.4,1-0.8,1.6-1s1,0,1.6,0.2c4.5,1.2,6,3.9,6.4,8
		c0.4,4.7,1,9.5,2.1,14c0.6,2.7,1.2,5.3,1,8.2c0,2.1-0.4,4.1-0.8,6.2c-0.6,2.7-1,5.6-2.9,7.8c1.4,5.3,2.9,10.9,3.7,16.5
		c0.2,1.2,0.2,2.7-0.4,3.9c-0.6,0.8-1.4,1.4-2.3,2.1c-0.2,0.2-0.4,0.2-0.6,0.4c1,0.8,1.2,2.3,1.6,3.5c0.8,4.3,1.6,8.8,2.5,13.2
		c0.4,2.1,0.8,4.3,0.4,6.4c0.2,1.2,0.2,2.5,0.2,3.5c-0.4,16.9-1,33.7-2.1,50.6c-0.8,15.4-4.3,26.1-5.6,41.6c-0.4,6-0.8,4.9-2.1,16
		c0,0.8,0,0.4-0.4,0.8c-0.2-0.2-0.4-0.2-0.8-0.2c0.4,0.2,0.8,0.6,1,1c0.6,1.6-0.4,3.7-0.6,5.3c-0.8,4.5-0.4,9.1-0.2,13.6
		c-0.6,0-1.4,0-2.1-0.2c0.4-1.6,0.4-3.3,0.2-5.1c-0.8-0.2-1.4,0.4-1.6,1.2s0,1.4,0.2,2.3c0,0.8,0,1.6-0.8,2.1
		c-0.4,0.2-1,0.2-1.4,0.2c-3.3-0.2-6.6-0.4-9.9-0.2c-0.2,0-0.4,0-0.6-0.2c0-0.2,0-0.2,0-0.4c0-0.8,0.2-1.9,0.2-2.7
		c0-0.2,0-0.6,0.2-0.8s0.6-0.4,0.8-0.4c3.1-0.8,6-2.5,7.4-5.1c0.8-1.6,1-3.7,1.4-5.8c0.2-1,0.6-2.3,0.8-3.3c0.6-1.4,0.6-2.1,2.1-2.1
		c-0.2-0.8-0.4-1.9-0.4-2.7c-2.1-30.2-4.3-51-10.3-80.9c-0.2-0.8-0.4-1.6-0.4-2.5c-0.4,1.6-0.8,3.5-1.2,5.1
		c-3.7,15.6-7.4,31.5-10.9,47.1c-1.2,5.6-2.7,11.3-3.7,16.9c-1.4,8-3.7,8.8-5.6,16.9c-0.2,0-0.4,0-0.4,0c0,5.8,0,11.5,0.4,17.3
		c-0.4-0.2-0.6-0.2-1,0c-0.4-1.6-0.8-3.3-1-5.1c-0.6,1.4-1.2,2.9-2.1,4.3c-0.2,0.4-0.4,0.8-0.6,1c-0.6,0.6-1.4,0.8-2.1,1
		c-3.3,1-6.6,2.1-10.1,2.9c-1.2,0.2-2.7,0.4-3.5-0.4c-0.4-0.4-1-1.6-0.6-2.5c0.4-0.6,1-0.6,1.9-0.6c2.1-0.2,4.1-0.6,6-1.4
		c2.5-1,4.7-2.9,5.6-5.3c0.4-1.2,0.6-2.5,0.8-3.7c0.4-2.5,0.8-5.1,1.2-7.6c0-0.4,0.2-0.6,0.4-0.8c0.2-0.2,0.6-0.4,1-0.6
		c0.2,0,0.4,0,0.4,0c1.2-11.9,2.1-18.3,2.7-31.1c0.6-11.5,1.2-23.2,1.6-34.8c0.4-10.3,1-20.8,1.4-31.1c0.2-2.3,0.2-4.9,0.4-7.4
		c0-0.2,0-0.2,0-0.4c-0.4-5.8-0.6-11.7-1.2-17.7c0-0.4,0-1,0-1.4c-0.6,0-1,0.2-1.6,0.2c-5.1,1.2-4.9-3.9-4.7-7.6
		c-0.8,0.4-1.6,0.8-2.5,1.2c-0.8,0.4-1.6,1-2.5,1.2c-0.8,0.2-1.9,0-2.5-0.6c-0.6-0.8-0.4-2.1-0.2-3.1c0.4-2.1,1.4-4.3,3.5-4.5
		c1,0,2.1,0.6,3.1,0.8c0.4,0.2,0.8,0.2,1.2,0.2c0.2-4.7,0.4-9.7,0.6-14.4c0.2-6,0.4-11.9,1.4-17.9c0-0.4,0.2-0.8,0.2-1.2
		c-1,1.2-2.1,2.7-3.1,3.9c-2.1,2.9-4.7,6-8.2,5.8c-0.4,0-0.8,0-1-0.4c-0.4-0.4-2.7-1.6-2.7-2.1c-0.2-5.3-0.4-10.1-0.8-15.4
		c0-1.6,0.6-3.5-0.2-4.9c-0.6-1.4-0.8-2.1-2.3-1.6c-0.4-0.6,0-1.9,0.6-2.3c0.8-0.4,1.6-0.4,2.5-0.4c0.2,0,0.4,0,0.6,0
		c0.2-2.9,0.4-6,0.6-8.8c0.2-2.3,0.4-4.7-1-6.6C1107.2,582.9,1106,582.3,1104.9,581.5z"/>
	<path class="st1" d="M1108.2,658.9v-0.2c0-0.2,0.2-0.4,0.2-0.4s0,0,0-0.2h0.2c0,0,0,0,0.2,0v-0.2c0.6-2.7,1.9-4.9,2.7-7.4
		c1-2.7,1.4-5.3,2.5-8c0,0,0-0.2,0.2-0.2c0,0,0.2,0,0.4,0c0.4,0,1,0.2,1.4,0.4c0.2,0,0.2,0.2,0.2,0.2v0.2c-0.4,1.2-0.8,2.7-1.2,3.9
		c-0.8,2.5-1.6,4.7-2.3,7.2c-0.4,1.2-0.8,2.5-1.2,3.5c0,0.2-0.2,0.8-0.4,1.2h0.2c0.2,0.2,0,0.6,0,0.8c-0.2,0.2-0.4,0.2-0.6,0.2h-0.2
		c-0.2,0.2-0.4,0.6-0.6,0.8s-0.6,0.6-0.6,0.8c0,0,0,0.2-0.2,0.2h-0.2c-0.2,0-0.4-0.2-0.4-0.2s0-0.2,0.2-0.2v-0.2c0-0.2,0-0.4,0-0.6
		c0-0.4,0-0.8,0.2-1.2C1108.6,659.3,1108.4,659.1,1108.2,658.9C1108.2,659.1,1108.2,659.1,1108.2,658.9z"/>
	<path class="st1" d="M1166.7,553.3c0.6,1.9,0.6,4.1,0.4,6.2c-0.4,3.1-1.9,5.8-3.3,8.4c-1.4,2.7-3.1,5.3-5.1,7.4
		c-2.3,2.1-4.9,3.7-8,3.9c0,0,0,0,0-0.2c-4.1,1.4-8.8,1.2-12.6-1.2c-3.3-2.1-5.3-5.6-6.2-9.3c0-0.4-0.2-0.8-0.2-1.2
		c0,0.4,0,0.8,0,1.2c-2.5-3.1-3.1-9.3-3.3-13.2c-0.2-3.7,0.2-7.8,2.3-10.9c1.2-1.6,2.9-3.1,4.7-4.1c4.1-2.5,9.1-3.9,13.8-3.7
		c1.6,0,3.3,0.4,4.9,0.8c0.2-2.1,1.2-3.9,3.1-5.1c2.3-1.4,5.1-1.9,7.8-1.4c2.7,0.4,5.1,1.4,6.8,3.5c1.2,1.6,1.6,3.5,1.9,5.3
		c0.2,2.3,0,4.5-1,6.6c-1.2,2.5-3.7,3.9-6.4,4.3C1166.7,551.7,1166.7,552.5,1166.7,553.3z M1131.5,562.6c0-1.2,0.2-2.3,0.4-3.5
		c0,0.2,0,0.2,0,0.4C1131.5,560.3,1131.5,561.3,1131.5,562.6z"/>
	<path class="st1" d="M1164.7,597.1c0.2-0.4,0.6-0.6,1-1c1.4-0.8,3.1-1.2,4.5-0.6c1,0.4,1.9,1.4,2.7,2.3c0.4,0.4,0.6,0.8,0.8,1.4
		c0,0.6-0.2,1.2-0.4,1.9c-0.2,0.6-0.2,1.4,0.2,1.9c0.2,0.2,0.6,0.4,0.8,0.6c0.4,0.4,0.2,1-0.2,1.4c-0.8,1.2-2.5,2.3-2.9,3.7
		c-0.2,0.4-0.2,1,0,1.4c0,0.2,0,0.4,0,0.6h0.2c0.2,0,0.4,0.4,0.4,0.6c1.2,4.7,0.4,9.9,1.4,14.8c0.2,0.6,0.4,1.2,1,1
		c2.5-9.3,5.1-18.7,8.2-27.8c0.6-1.9,1.2-3.9,2.9-5.3c0.6-0.4,1-0.8,1.4-1c0-1.4,0-2.7-0.2-4.1c1.4-1,3.1-1.6,4.9-1.9
		c-2.1-8-1-16.9,0-22.2c0.6-4.1,2.1-8,4.3-11.3c2.3-3.3,5.8-6,9.9-7c1.8-0.4,3.9-0.6,5.8-0.6c1.4,0,3.3,0.2,4.3,1.2
		c1.9-0.6,4.1,0,5.8,1.2c1.6,1.4,2.7,3.3,3.7,5.1c1.4,3.1,2.7,6.2,3.5,9.5c1,5.1,0.8,10.5-0.4,15.6c-0.4,1.9-1,3.7-2.1,5.1
		c-1,1.6-2.5,3.1-4.1,4.3c0.8,0.2,1.4,0.6,2.3,1.2c-0.2,1.2-0.2,2.3-0.2,3.5c4.3,1.6,8.8,3.3,13.2,4.9c0.6,0.2,1.2,0.4,1.4,1
		c0.4,0.8,0,1.9-0.4,2.5c-3.3,5.3-6.2,10.7-9.1,16.3c0.2,0.4,0.6,1,0.6,1.4c0.2,1,0.2,2.3,0,3.3c2.9,8.4,6,16.9,6.8,26.3
		c1.9,17.5,3.9,25.1,3.3,42.8c-0.4,11.3-1.2,24.3-2.1,37.4c-0.8,0-1.4,0-2.3,0c-0.2,2.9-0.6,5.8-1.2,8.8
		c-3.9,19.5-15.2,36.8-19.1,56.4c0,0.2,0,0.4-0.2,0.6c0.4,0.6,0.8,1.2,1.2,1.9c1.2,1.9,3.1,3.5,5.1,4.5c0.6,0.4,1.4,0.6,2.1,1.2
		c0.8,1,0.4,2.5-0.4,3.3s-2.1,1.2-3.3,1.2s-2.5,0-3.7,0c-0.2,0-0.6,0-0.8,0c-0.2,0-0.4-0.2-0.6-0.4c-0.6-0.6-1.4-1.2-2.1-1.9
		c-1.4-1.2-2.7-2.5-3.5-3.9c-1.2-2.3-1-4.9-1-7.4c0,0,0.2-0.2,0.8-0.2c0.8-6.8,0-13.8-0.6-20.6c-1-8.4-0.8-29.8-1.4-43.8
		c-0.4,0-0.8,0-1.2,0c-2.1,0-4.1-0.2-6.4-0.4c-0.8,4.1-1.4,8.2-1.9,12.3c-1.4,11.5-4.5,42.2-4.9,55.3c0.4,0.2,0.8,0.2,1.2,0.4
		c-0.4,1.6-0.8,3.3-1.2,4.9c0,0.4-0.2,0.6-0.4,0.8c-0.2,0.2-0.6,0.2-1,0.2c-5.8,0.2-11.3,0-17.1-0.6c0-1.4,0-3.3,1.2-4.3
		c0.8-0.8,2.1-0.8,3.3-1c1.6-0.2,3.5-0.2,5.1-0.4c0.8,0,1.4-0.2,2.1-0.6c0.2-0.2,0.4-0.4,0.6-0.6c0.6,0,1,0,1.6,0c0.2,0,0.2,0,0.4,0
		c-3.9-11.1-7.2-22.4-10.1-33.7c-1.6-6.2-3.1-12.6-4.1-18.9c-0.8-5.3-1.2-10.7-1.6-16c-0.2,0-0.6,0-0.8,0
		c-1.6-16.3-4.5-31.1-3.5-47.9c0.4-8,3.5-22.2,4.5-30.2c0.2-2.1,0.6-4.1,1.2-6.2c-0.4-0.2-0.8-0.4-1.2-0.6c-2.1-1.2-3.7-2.9-5.1-4.7
		c-0.4-0.4-0.8-1-1-1.6s-0.2-1.4-0.2-2.1c0-4.7,0-9.7-0.2-14.4c0-2.3,0-4.3-0.4-6.6c0.2,0,0.6,0,0.8,0c-1.2-4.5-1.4-9.3-1.4-14
		C1164.4,597.8,1164.4,597.3,1164.7,597.1z M1221.8,577.8c-0.4,0.6-0.6,1-1,1.6c-2.5,3.7-5.8,7.6-10.3,8.6c-5.6,1.2-11.3-2.1-14-7
		c0.6,2.7,1.2,6.2,0.8,9.3c6.6,1.2,13.4,1,20-0.4c0-0.6,0-1.2,0-1.9c0.4,0,1,0,1.4,0C1220.4,584.8,1221.4,581.3,1221.8,577.8z"/>
	<path class="st1" d="M1269.4,555.6c0,1,0,2.1,0,3.1c-0.2,5.8-2.9,15.2-10.5,16.7c-1.4,0.2-2.9,0.2-4.1-0.2
		c-6-1.4-10.9-7.8-11.7-12.8c-0.2-1.2-0.4-2.7-0.6-4.3c-0.4,0.2-1-0.2-1.2-0.6c-0.2-0.4-0.2-1-0.2-1.6c0.2-4.1,0.4-8.4,1.9-12.3
		c1.4-3.9,4.3-7.6,8.4-8.6c0.4-0.2,1-0.2,1.4-0.2c-0.4,0-0.6,0-1-0.2c-1.4-0.2-2.7-0.6-3.9-1.2c-1.2-0.8-2.1-2.1-2.1-3.3
		s0.8-2.5,1.6-3.3c2.5-2.3,5.8-3.3,9.3-3.3c1.9,0,3.9,0.4,5.6,1.4c1.6,1,3.1,2.7,3.3,4.5c0.4,1.9-0.6,4.1-2.3,4.9
		c-1.2,0.6-2.5,0.8-3.9,0.6c4.5,1.4,8.4,4.5,10.1,8.8c1,2.9,1.6,7,0.8,10.1C1269.8,555,1269.6,555.4,1269.4,555.6z"/>
	<path class="st1" d="M1232.7,665.2c-0.2,0-0.6,0.2-1,0c-3.1-0.2-7.8-0.4-10.3-2.7c-2.9-2.7,0.6-7.6,1.6-10.3c2.7-6.8,6-13.8,8-20.8
		c0-1.9,0.2-3.5,0.2-5.3c-1.9-0.2-3.5-1.2-4.7-2.7c-1.4-2.1-1.6-4.7-0.6-6.8s3.1-3.5,5.3-3.7c-0.4-8.8-0.4-17.7,0-26.7
		c1.6-0.2,3.5-0.4,5.1-0.6c0.6-1.9,1.4-3.7,2.7-5.6c0.6-1,1.4-2.1,2.7-2.7c1.2-0.6,1.6-1.6,2.7-1c1.4,0.8,2.9,1.4,4.5,1.9
		c1.6,0.6,3.5,0.8,5.3,1c0,0.2-0.2,0.6-0.2,0.8c0.8,0,1.9,0,2.7-0.2c0-0.2,0-0.4,0-0.6c4.1-0.2,8.2-1.2,11.3-3.3
		c3.5,1,6.4,3.3,8,5.8c0.8,0.2,1.4,0.6,2.1,1c2.3,1.9,3.3,4.9,4.3,7.8c2.1,6.4,3.9,13,6,19.3c0.6,1.9,1,3.7,1.2,5.6
		c0,0.4,0,0.6-0.2,0.8c-0.4,0.8-1.2,1-2.1,1.2c-1.9,0.4-3.7,1-5.8,1.4c-0.2,0-0.4,0-0.4,0.2c0.4,4.1,0.6,8,1,12.1
		c1.2,2.7,2.9,5.1,4.3,7.8c2.3,3.9,4.3,7.8,6.6,11.7c1.6,3.1,5.8,8.2,1.2,11.1c-1.8,1.2-4.5,1.4-6.6,1.9c-1,0.2-1.8,0.2-2.9,0.4
		c5.6,17.7,9.9,35.6,11.1,54.1c0,0.6,0,1-0.2,1.6c-0.2,0.4-0.6,0.8-1,1.2c-3.5,3.1-8,4.1-12.6,4.5c0,2.7,0,5.1,0.2,7.6
		c0.8,17.7,1,35.4,2.1,53.1c0.2,0,0.2,0,0.4,0c1.6,0.4,1.6,1.6,1.6,3.1c0.4,4.9,0.4,9.9,0.6,14.8c0,0.4,0,0.8-0.2,1
		s-0.4,0.2-0.8,0.2c-1.4,0.2-2.9,0.2-4.3,0c0.2-1.2,0.2-2.3-0.2-3.5c-0.6-0.2-1.4,0-2.1,0.2c0,0.8,0,1.6,0,2.7c0,0.2,0,0.4-0.2,0.6
		c-0.2,0.2-0.4,0.2-0.4,0.2c-3.9,0-7.8,0-11.7-0.4c-0.2-1.4-0.2-2.7,0-4.1c0.2-1.4,0.8-2.9,2.1-3.5c1.2-0.6,2.7-0.2,4.1,0
		s3.1,0.2,3.7-1c0.6-0.8,0.2-2.1,0-3.1c-0.4-1.9-0.6-3.7-0.6-5.6c0-0.2,0-0.6,0.2-0.8c0.2-0.4,0.6-0.4,1-0.4c0.2,0,0.4,0,0.6,0
		c-3.5-20-5.6-40.1-8.6-60.3c-5.3,0.2-10.9,0.2-16.3-0.2c-0.6,2.7-1.2,5.3-1.2,7.8c-0.6,17.5,0.4,35.4,0.4,53.1
		c0.2,0.4,0.4,0.6,0.4,1.2c0.4,2.3,0.2,5.1,0.2,7.4c0,2.7,0,5.6,0.2,8.2c0,0.6,0,1-0.2,1.4s-0.6,0.4-1,0.4c-1.4,0.2-3.1,0.2-4.5-0.2
		c0.2-1,0.2-2.5-0.6-3.1c-0.8-0.6-1.9-0.4-2.1,0.8c0,0.8,0.2,1.6-0.2,2.1c-0.2,0-0.2,0-0.4,0c-1.9-0.2-3.5-0.2-5.3-0.4
		c-0.4,0-0.6,0-1-0.2c-1-0.6-1-2.3-0.8-3.7c0-1,0.2-2.1,0.8-2.7c1-1,2.7,0.2,3.7-0.8c0.8-0.6,0.8-2.1,0.8-3.3c0-1.6,0-3.5,0-5.1
		c0-0.6,0-1.4,0.4-2.1c0.4-0.6,1-0.8,1.8-0.8c0.2,0,0.2,0,0.4,0c-0.6-7.6-1.4-15.2-2.1-22.8c-1-10.1-1-20.8-3.3-30.5
		c-0.6-2.7-0.6-5.3-0.4-8c-2.5-0.4-4.7-0.8-7.2-1.2c-0.4,0-0.6-0.2-0.8-0.4c-0.2-0.2-0.4-0.6-0.4-0.8c-1.6-4.9-0.8-10.3,0-15.2
		c1.6-10.9,2.9-21.6,3.9-32.5c0.2-3.1,0.2-6.6,0.2-9.9c-0.4,0.2-0.6,0.2-1,0.2C1233.4,665.2,1232.9,665.2,1232.7,665.2z
		 M1280.5,612.6c0-0.2,0-0.2-0.2-0.4C1280.5,612.4,1280.5,612.6,1280.5,612.6z"/>
	<path class="st1" d="M1446.4,671.6c-37.5-1.6-4.7,0.4-42-0.4c-20.2-0.4-40.2,0.7-60.4,1.1c0.4,2.4-1.6,4.9-1.1,7.3
		c2.9,0,5.6,0,8.2,0c-0.2,1.8-0.2,4.7-0.6,9.8c-0.7,11.3-0.7,22.8-0.7,34c-0.2,11.3,0,22.8,0.2,34c0,5.5,0.2,10.9,0.4,16.4
		c0.2,3.8-0.9,8.4,0,12c-0.2,1.8,0,3.8,2.5,4.7c2.2,0.9,6,1.3,10,1.3c0.2,0,0.4,0,0.5,0h0.2c5.5,0,11.3-0.4,14.9-0.4
		c7.3,0,14.4,0,21.6,0c33.1,0-11.3,0,21.8,0c3.6,0,15.8,0,18.9-1.6c0.9-0.4,1.6-1.1,2-1.8c1.8-3.5,0.7-8.7,0.9-12.4h-0.2h-0.2
		c0.2-5.3-0.4-10.9-0.2-15.3c0.2-7.6,0.2-15.1,0.2-22.8c0-8.9-0.2-18-0.4-26.9c-0.2-8,0.9-19.8,1.3-28.6c0-1.8,0.2-2.7-0.2-3.3
		c0.9,0,1.8,0,2.9,0C1447.5,676.5,1447.4,674.2,1446.4,671.6z"/>
	<path class="st1" d="M707.4,552.4c1.3,0.7,1.1,1.5,1.5,0.2c0.2-0.4,0-0.9,0-1.1v-0.2c0.2,0.4,0.7,1.1,1.1,1.5
		c2,3.1,4.6,5.9,7.9,7.4c3.5,1.5,7.6,1.3,10.9-0.4c3.3-1.7,5.9-4.8,6.5-8.3c0.4-1.5,0.4-3.1,0.4-4.6c0.2-4.8,2.8-18.3-1.5-21.8
		c3.9-0.9,7.9-2.4,10.3-5.7c2.4-3.1,2.4-7.9-0.4-10.5c0,1.5-0.9,2.8-2.2,3.7s-4.6,0.2-6.1,0.4c-4.8,0.4-9.8,0-14.6-0.4
		s-9.8-0.7-14.4,0.7c-4.6,1.3-7.4,5-9.4,9.4c-1.1,2.6-1.1,5.5-1.1,8.1c0,4.1,2.4,7.9,3.7,11.8C700.8,546.3,703.5,550.2,707.4,552.4z
		"/>
	<path class="st1" d="M779.4,802.8c-1.5-1.3-3.5-1.3-5.5-1.5c-2.8-0.2-5.7-0.4-8.5-0.7c-1.3,0-2.4-0.2-3.5-0.9
		c-0.4-0.2-0.7-0.7-0.9-1.1c-0.2,0-0.2,0-0.4,0c-2.2-14-3.7-26.4-5.2-40.6c-1.5-13.3-3.1-26.6-4.8-40.2c-1.3-12-2.8-23.8-4.1-35.8
		c-0.7-4.6-0.9-10.3-2.4-15.1c0.4-0.2,0.9-0.4,1.3-0.9c0.7-0.7,0.7-1.7,0.4-2.6c-0.7-12-1.5-27.1-2.2-39.9c4.4-0.7,8.7-2,13.1-3.7
		c0.2-0.2,0.7-0.2,0.9-0.7c0.2-0.2,0.2-0.7,0.2-1.1c0-2-0.4-3.9-0.9-5.9c-0.4-1.7-0.7-3.7-1.1-5.5c0.7-1.5,0-3.5-0.9-5.2
		c-1.1-9.2-1.7-18.6-3.1-27.7c-0.2-1.1-0.4-2.4-1.3-2.6c-0.4-0.2-0.9-0.2-1.3-0.2c-3.1,0.2-5.9,0.7-9,1.3c-0.7-1.3-1.3-2.4-1.7-3.7
		c-0.7-1.3-1.3-2.8-2.6-3.7c-0.2-0.2-0.7-0.4-1.1-0.7c-0.9-1.1-2-1.7-3.3-2.2c-1.3-0.4-2.8-0.2-4.4,0c-8.1,1.1-18.1,2.6-25.3,6.3
		c-2.2,1.1-3.5,3.1-4.1,5c-1.1,1.5-2,3.3-2.8,5c-3.3,7.9-6.1,15.7-8.3,23.8c-0.9,3.7-3.3,9-2.8,12.7c0,0.4,0.2,0.9,0.4,1.3
		c0,0.2,0,0.4,0,0.7c0.2,0.7,0.7,1.1,1.3,1.5c1.3,1.3,3.1,2.8,4.8,3.3c-1.1,7-2,13.8-2.2,20.1c-0.2,8.5-0.2,17.2,1.1,25.8
		c0.2,1.1,0.4,2.2,1.3,2.6c0.7,0.4,1.3,0.4,2,0.4c0,0.4,0,1.1,0,1.5c0.4,19.4,1.3,38.9,2.4,58.5c1.1,17.9,3.9,35.6,5.5,53.5
		c0.7,7,1.1,7.4,1.5,16.4c0,1.1,1.1,1.5,1.5,2.2h0.2c0.9,3.1,2.4,5.9,3.5,7.9s2.6,3.9,4.6,4.8c1.3,0.7,2.8,0.7,4.4,0.7
		c2.6,0,5.2-0.4,7.9-1.1c0.4-0.2,1.1-0.4,1.3-0.9c0-0.2,0-0.4,0-0.7c-0.4-2.2-2-3.9-3.5-5.7c-2.2-2.8-3.9-5.9-5.5-9.2
		c-0.4-1.1-1.3-2.4-2.4-3.3c2.2-33.6,1.3-60.9,8.1-94.3c0.4-1.7,0.7-3.5,1.1-5.5c0.9,2.6,1.5,5,2.4,7.6c5.7,18.1,8.3,35.6,14,53.7
		c2,6.5,4.4,12.7,5.9,19.2c2.2,8.7,2,15.7,4.4,24c-0.4,0.2-0.9,0.2-1.3,0.4c0.7,2.6,1.3,5.2,2,7.9c0.2,0.4,0.2,1.1,0.7,1.5
		c0.4,0.4,1.1,0.4,1.5,0.4c9.4,0.2,18.8,0,28.2-0.9C781.4,807,781.4,804.3,779.4,802.8z"/>
	<path class="st0" d="M984.5,616.2c0.6,1.6,1.4,3,2,4.6c3,7.2,5,14.5,8,21.7c0.2,0.4,0.2,0.6,0.6,1c0.4,0.4,1,0.4,1.6,0.2
		c1.2-0.2,2.6-0.8,3.8-1.2c4.8-1.8,9.4-3.6,13.9-5.6c0.6-0.2,1.4-0.6,1.6-1.2c0.4-0.6,0.4-1.4,0.2-2.2c-0.6-3.6-2.2-7-3.4-10.6
		c-2.2-6.2-3.2-12.7-5.6-18.9c-0.2-0.4-0.4-0.8-0.8-1c-0.2-0.2-0.6-0.2-1-0.2c-1.8,0.2-3.6,0.6-5.4,1.2c-4.6,1.4-9.2,2.8-13.9,4.4
		c-1.2,0.4-3.2,0.8-3.6,2.4C982.1,612.8,984.5,614.4,984.5,616.2z"/>
	<path class="st6" d="M1036.1,794c3.2-0.2,6.4-0.2,9.4,0.4c2.4,1.8,5,3.2,7.8,4.4c0.8,0.4,1.6,0.6,2.2,1.2c0.6,0.6,0.8,1.8,0.2,2.4
		c-0.4,0.6-1.4,0.6-2.2,0.6c-5.8,0-11.5-0.4-17.3-1.4c-0.4,0-0.8-0.2-1-0.4s-0.2-0.4-0.4-0.8C1034.5,798.4,1034.9,796,1036.1,794z"
		/>
	<path class="st6" d="M1025.7,795.6c-3.2-0.2-6.4-0.2-9.4,0.4c-2.4,1.8-5,3.2-7.8,4.4c-0.8,0.4-1.6,0.6-2.2,1.2
		c-0.6,0.6-0.8,1.8-0.2,2.4c0.4,0.6,1.4,0.6,2.2,0.6c5.8,0,11.5-0.4,17.3-1.4c0.4,0,0.8-0.2,1-0.4s0.2-0.4,0.4-0.8
		C1027.3,800,1026.9,797.6,1025.7,795.6z"/>
	<path class="st6" d="M1012.8,738.3c-0.8-17.3-1.2-34.4-1.2-51.8c-0.6-6,0.4-12.1,2.4-17.7c0.2-0.4,0.2-0.8,0.6-1
		c0.8-0.8,2.2-0.4,3.2,0c10.2,4.2,22.3,3.2,31.7-2.8c1.8,2.8,2.4,6.2,2.8,9.6c0.8,5.4,1.6,10.8,1.8,16.1c0,1.2,0,2.4,0,3.6
		c-0.2,6.8-1.4,13.3-2.4,20.1c-0.6,4.4-1.2,8.8-1.4,13.1c0,3.6,0.4,7-0.4,10.4c-2,8.8-2,18.1-2.8,26.9c-1,9.6-1.8,18.9-2.6,28.5
		c0,0.4,0,0.8,0,1.2c-0.4,0.2-7.8,1.8-7.8,0c-0.6-18.5-1.2-36.8-1.8-55.4c-0.2-7.8-0.6-15.5-2.4-23.1c-6.6,0.6-5.4,22.1-5.8,27.5
		c-0.8,17.3-1.6,34.6-2.4,52c-2.4,0-5,0-7.4,0c-1.4-4-1.6-8.4-2-12.5C1014.1,768.1,1013.4,753.2,1012.8,738.3z"/>
	<path class="st7" d="M1042.4,588.1c-8.8,0.6-17.1,2.4-25.1-2.2c-17.9,20.5-9.2,19.1-11.2,39.2c-0.4,4.2,5.4,13.9,5,18.1
		c-1.6,20.5-9.6,54.2-8.8,74.9c0.2,5.8,0.6,11.5,2,16.9c0.4,1.6,1,3.2,2,4.2c1.2,1.2,2.6,1,4.2,1c15.5-1,27.5-8.4,46.2,2.4
		c3.8-36.6-4.6-74.1-6.6-99.4c-1.2-17.3,5.4-23.7,2-41.6c-0.8-4.2-1.8-8.6-3.8-11.7c-0.6-1-3-2-2-2.2
		C1047.6,587.3,1045.6,587.9,1042.4,588.1z"/>
	<path class="st8" d="M1053.4,521.6c0-0.4-0.2-0.8-0.4-1.2c-0.4-1-0.2-1.8-1-2.2c-1-0.6-1.8-1.2-2.2-2.2c0-0.2,0.8-1.2,0.6-1.6
		c-0.2-0.6-1.4-0.6-1.8-1.2c-0.6-1.6-0.2-3.4,1.2-4.4c1.2-1,3.2-1.2,4.6-0.4c1,0.6,1.8,1.4,2.6,2.4c0.4,0.6,1,1.4,1.2,2.2
		c1,3.2-0.8,6.8,0.2,10c0.2,0.4,0.2,1,0,1.4c-0.2,0.2-0.2,0.2-0.4,0.2c-0.6,0.2-3.6,1.2-4,0.4c-0.2-0.4-0.2-1.2-0.4-1.8
		C1053.6,522.8,1053.6,522.2,1053.4,521.6z"/>
	<path class="st9" d="M1044.8,517.6c0.2,0,0.4,0,0.6,0c0.4,0,0.8-0.2,1-0.4c0,0,0,0,0-0.2c-0.2-0.4-0.4-0.8-0.6-1
		c-0.2,0-0.2,0-0.4,0.2c-0.2,0.2-0.4,0.4-0.6,0.6c-0.2,0.2-0.4,0.6-0.6,0.8c0,0-0.2,0-0.2,0.2v0.2c0,0.2,0.2,0.4,0.4,0.2l0.2-0.2
		C1044.6,517.8,1044.6,517.6,1044.8,517.6z"/>
	<path class="st7" d="M1060.1,506.9C1060.1,506.7,1060.3,506.7,1060.1,506.9c0.2,0,0.4,0,0.4,0.2c0.2,0.4,0.4,0.8,0.6,1.2
		c0,0.2,0,0.2,0,0.4l-0.2,0.2c-2.2,1.4-4.8,2.6-7,4c-2.2,1.4-4.2,3-6.4,4c-0.2,0-0.4,0.2-0.6,0.2s-0.2-0.2-0.4-0.2
		c-0.2-0.2-0.8-1-0.6-1.2c0.2-0.4,1-0.8,1.4-1c1-0.6,2-1.2,3.2-2c2-1.2,4.2-2.6,6.2-3.8C1058,508.1,1058.9,507.5,1060.1,506.9z"/>
	<path class="st10" d="M1047.6,516.8c-0.2-0.4-0.6-1-1-1.4l-0.2-0.2c0,0,0-0.2-0.2-0.4s-0.6,0-0.8,0.2c-0.2,0.2-0.2,0.4-0.2,0.6
		s0.2,0.4,0.2,0.6c0.4,0.4,0.6,0.8,1,1.2c0,0,0,0,0.2,0h0.2c0.2,0,0.2-0.2,0.4-0.2C1047.6,517.2,1047.6,517.2,1047.6,516.8
		C1047.6,517,1047.6,517,1047.6,516.8z"/>
	<path class="st8" d="M1049.4,514.7c0-0.2,0-0.4,0-0.6c0-0.2,0-0.2,0-0.4c0-0.4,0.4-0.6,0.6-0.6s0.4-0.2,0.8-0.2c0.2,0,0.4,0,0.4,0
		c0.2,0,0.2,0.2,0.4,0.2c0.2,0.2,0.4,0.4,0.6,0.6c0.2,0.2,0.2,0.4,0.4,0.6c0.2,0.6,0,1.2-0.4,1.6s-1.2,0.8-1.8,0.4
		c-0.2-0.2-0.4-0.4-0.6-0.8C1049.6,515.5,1049.4,515.1,1049.4,514.7z"/>
	<path class="st8" d="M1013.5,553.7c0.6-1.6,1.2-3.2,2.2-4.8c3.2-5.2,11.5-11.4,17.5-6.8c1.4,1,2.4,2.6,3.2,4c1,1.6,1.8,3,2.4,4.8
		c1.2,3.2,1.6,6.8,0.8,10.2c-0.8,3-2.6,6-4.4,8.6c-2.4,3.4-5.2,6.8-9.2,7.8c-5.4,1.4-11-2.6-13.1-7.6
		C1011,564.8,1011.6,558.9,1013.5,553.7z"/>
	<path class="st6" d="M1053.2,565.8c-1.4,7.4-3.4,14.9-2.8,22.5c0.2,1.8,0.6,3.8,2.4,4.2c1.6,0.4,3-1,3.8-2.2c1-1.6,2-3.2,2.4-5
		c0.6-2.2,1-4.4,1.2-6.6c2.2-16.9,4.4-34,1.6-50.8c-0.4-2-0.8-4.2-2.4-5.4c-1.4-1.2-3.4-1.4-5-1.2c-2.8,0.4-2.2,1-1.8,3.6
		c0.8,4.6,1.6,9.2,1.8,13.7C1055.2,547.7,1054.8,556.9,1053.2,565.8z"/>
	<path class="st11" d="M1051.2,636.7c-7.6,1.8-15.5,1.4-23.5,2c-5.6,0.4-11.2,1.4-16.7,1.6c-0.2,0-0.2,0-0.4,0v0.2
		c0,1.8,0.4,1.6,2,1.4c1.6-0.2,3-0.2,4.6-0.4c3-0.2,6-0.4,9-0.6c2.4-0.2,4.6-0.4,7-0.4c5.4-0.2,10.6,0,15.9,0c0.6,0,1,0,1.4-0.4
		s0.6-1,0.6-1.6C1051,637.9,1051,637.3,1051.2,636.7z"/>
	<path class="st12" d="M1040.2,636.1c0.4,1.8,0.6,3.8,0.6,5.6c-0.6,0.2-1.2,0.4-1.8,0.6h-0.2c-0.2,0-0.2-0.2-0.2-0.4
		c-0.2-1.4-0.6-3.2-0.4-4.6c0-0.8-0.2-0.8,0.4-1.2C1038.4,635.9,1040.2,636.1,1040.2,636.1z"/>
	<path class="st12" d="M1026.1,641.5c-0.4-1.2-0.2-2.6-0.6-3.8s-1.4-0.8-2.4-0.6h-0.2v0.2c0,0.8,0.2,1.6,0.4,2.2c0.2,1,0.2,2,0.2,3
		c0.8,0.4,1.6-0.2,2.4-0.6c0,0,0.2,0,0.2-0.2C1026.1,641.7,1026.1,641.7,1026.1,641.5z"/>
	<path class="st8" d="M985.5,629.2c-0.8-0.8-1.4-1.4-2-2.4c-0.4-0.8-0.4-1.8-0.6-2.6c0-0.4,0-0.6,0-1c0.2-0.2,0.4-0.4,0.6-0.6
		c0.8-0.6,1.8-1,2.6-0.6c1,0.4,1.4,1.8,2.6,2c0.8,0.2,1.8-0.2,2.2,0.4c0.2,0.2,0.2,0.6,0.2,0.8c0,2.2-0.6,4.6,0.6,6.4
		c0.2,0.4,0.4,0.8,0.2,1.2c-0.2,0.2-0.4,0.2-0.6,0.4c-1.8,0.8-2.2,0.6-3.2-1C987.5,631.3,986.5,630.1,985.5,629.2z"/>
	<path class="st6" d="M988.7,637.5c1,1.6,2,3.2,3.2,4.8c1.2,1.8,2.6,3.8,4.8,4.4c2.8,0.6,5.2-1.6,7.2-3.6c2.6-2.8,5-5.8,6.2-9.2
		c0.4-1.4,0.6-2.8,1-4.4c1.6-8,4.8-15.5,8.6-22.9c1.2-2.2,2.2-4.8,1-6.8c-1-1.8-3.6-2.2-5.6-1.4s-3.4,2.4-4.4,4.2
		c-5.4,8.6-4.6,19.9-10.4,28.3c-1,1.4-1.6,4.6-3,5.2c-1.4,0.6-3.6-4.2-4.6-5.4c-0.4-0.4-0.6-1-1-1.4s-2.6,1.4-3.2,1.6
		C985.7,632.3,987.5,635.9,988.7,637.5z"/>
	<path class="st13" d="M1003.8,585.3c1.2-1.4,2.6-2.6,3.2-4.4c0.4-1.4,0.2-2.8,0.2-4.2s0.6-3,2-3.4c1.2-0.4,2.4,0.2,3.6,1.2
		c0.6-0.2,1.2-0.4,2-0.8c3.4-1.4,5.6-4.8,6.6-8.2c1-3.6,0.8-7.2,0.4-10.8c-0.2-2.4-0.4-4.8-1.2-7c-3.2-2.4-5-6.4-2-9.8
		c3.2-3.8,9.6-5.4,14.3-4c5.6,1.6,16.9,8,17.3,13.7c0.2,4.2-0.6,8.8,1,12.7c1.6,3.6-2.8,4.4,0.4,6.6c0.6,0.4,1.2,1,1.6,1.6
		c0.4,1,0.4,2.2,1,2.8c0.4,0.4,0.8,0.6,1.4,0.6c2.6,0.8,5.8,2.2,5.8,4.8c0,1-0.4,2.2,0.2,3c0.4,0.4,0.8,0.6,1.2,1
		c1,1,0.8,2.6,0.2,3.8c-0.6,1.2-1.4,2.4-1.4,3.8c0,1,0.4,1.8,0.4,2.8c0.2,1.8-1,3.4-2.8,4c-1.6,0.6-3.8,0.2-4.4,1.8
		c-0.2,0.4-0.2,1-0.4,1.4c-0.2,0.4-0.8,0.6-1.2,0.6c-3.2,0.8-7.2-2-9.8,0.2c-1.8,1.4-1.6,4.4-3.4,6c-2,1.6-5.6,0.2-7.6,2
		c-0.6,0.4-1,1.2-1.6,1.6c-1.6,1-3.8-0.4-4.8-2s-1.6-3.6-3-4.8c-2.8-2.2-6.6-0.6-10.2-0.4c-2.4,0-4.8-0.6-6.6-2
		c-0.6-0.4-1.2-1-1.6-1.8c-1-1.8,0.4-4.4-0.8-6.2c-0.4-0.6-1-1-1.2-1.6C1001.6,588.7,1002.6,586.7,1003.8,585.3z"/>
</g>
</svg>
