<?xml version="1.0" encoding="utf-8"?>
<!-- Generator: Adobe Illustrator 23.0.2, SVG Export Plug-In . SVG Version: 6.00 Build 0)  -->
<svg version="1.1" id="Layer_1" xmlns="http://www.w3.org/2000/svg" xmlns:xlink="http://www.w3.org/1999/xlink" x="0px" y="0px"
	 viewBox="0 0 1896.2 823.8" style="enable-background:new 0 0 1896.2 823.8;" xml:space="preserve">
<style type="text/css">
	.st0{fill:#FFFFFF;}
	.st1{fill:#F2F4F7;}
	.st2{opacity:0.56;fill:#F2F4F7;enable-background:new    ;}
	.st3{fill:#DDE1E7;}
	.st4{fill:#F2D292;}
	.st5{fill:#606060;}
	.st6{fill:#3C444C;}
	.st7{fill:#03A678;}
	.st8{fill:#DDD2C5;}
	.st9{fill:#212121;}
	.st10{fill:#8498B0;}
	.st11{fill:#6D6D6D;}
	.st12{fill:#4C4C4B;}
	.st13{fill:#7C6C61;}
</style>
<g>
	<path class="st0" d="M785.3,521.7c-2.9-1.6-14-2.5-17.1-2.5l-158.3,0.2c-5.5,1.1-12.8,1.3-18.6,1.6c-3.3,0.2-2.5,0.9-3.1,22.4
		c-0.7,20.4-0.7,41.1-0.7,61.7c0,20.7,0,41.1,0,61.7c0,9.8,0.2,19.8,0.2,29.5c0,6.9-0.7,15.3,0,21.7c-0.2,3.5,0,6.7,2.2,8.6
		c2,1.6,5.4,2.2,8.9,2.2c0.2,0,0.2,0,0.4,0h0.2c4.9,0,10.2-0.7,13.3-0.7c6.4,0,12.8,0,19.3,0c29.7,0,106.1,0,135.8,0
		c3.1,0,14.2,0,17.1-3.1c0.9-0.9,1.3-1.8,1.8-3.1c1.8-6.2,0.7-15.7,0.9-22.4h-0.2h-0.2c0.2-9.6-0.2-19.8-0.2-27.7
		c0.2-13.8,0.2-27.5,0.2-41.1c0-16.2-0.2-32.6-0.4-48.8c-0.2-14.7,0.7-36,1.1-51.7C788.2,523.5,788.2,523.5,785.3,521.7z"/>
	<path class="st1" d="M726.1,589.2c0-0.7,0-1.3,0.4-1.8c0.4-0.4,1.3-0.4,2-0.4c4,0.7,8,1.6,11.8,2.2c6.4,0.9,12.8,1.1,19.3,1.1
		c5.1,0,10.2,0.2,15.3,0.2c1.8,0,4,0,5.4-1.3c-1.3,19.1-1.6,38.2-0.7,57.5c0.7,17.5,2.2,34.8,1.6,52.4c0,0.4,0,1.1-0.4,1.3
		c-0.2,0.2-0.7,0.2-1.1,0.2c-11.3,0.4-22.4,1.1-33.8,1.6c-5.1,0.2-11.5,1.8-16.6,0.9c-4.4-0.9-2.6-6.4-2.5-9.8
		c1.1-22.2-0.2-44.6-0.7-66.8C725.4,614.3,725.4,601.6,726.1,589.2z"/>
	<path class="st1" d="M703.2,632c25.3-1.6,50.6-3.1,75.7-4.7c2.2-0.2,4.7,0,5.8,1.8c0.7,0.9,0.7,2,0.7,3.1c1.1,31,0.7,62.2-1.3,93.2
		c-23.7,0.4-47.5,0.9-71.2,1.3c-4.2,0-8.2,1.3-10.5-2.6c-2-3.8-0.4-12.8-0.7-17.1c-0.2-12-0.2-24-0.2-35.7
		C701.9,667.8,702.5,632,703.2,632z"/>
	<path class="st1" d="M705.4,724.3c0.7,0,1.3-0.2,2-0.7c0.7-0.4,0.7-1.3,0.9-2c1.3-8.9,1.6-17.8,1.8-26.6c0.2-8,0.4-15.7,0.4-23.7
		c0-1.8,0-3.8-1.1-4.9c-1.3-1.3-3.1-1.3-4.9-1.3c-11.1,0-22.2,0-33.5,0c0.4,9.1,0.9,18.2,1.3,27.5c0.2,5.8,0.4,11.8,0.2,17.5
		c-0.2,3.5-3.5,11.8-1.3,14.7c2.2,3.1,12.2,1.1,15.6,0.9C693,725.5,699.2,725,705.4,724.3z"/>
	<path class="st1" d="M605.4,724.2c10.2,0.9,20.7,0.7,30.9-0.2c0.9-33.8,2-67.4,2.9-101c-9.1-0.7-18.2-1.1-27.3-0.9
		c-3.1,0-5.8-0.2-6.9,3.1c-1.1,3.5,0.2,9.3,0.4,13.1c0.4,18.4,0.7,36.8,0.4,55.5C605.8,695.9,605.1,724.2,605.4,724.2z"/>
	<path class="st0" d="M664.8,634.3c-21.3,20.4-41.5,42.2-60.4,64.6c-0.2,0.2,0.2,0.7,0.4,0.4c19.3-22.4,39.5-43.7,60.8-64.1
		C666.1,634.7,665.2,633.8,664.8,634.3z"/>
	<path class="st0" d="M645,673.1c-10.6,12.7-21.7,25.1-33.1,37.3c-0.2,0.2,0.2,0.7,0.4,0.4c11.3-12.2,22.4-24.4,33.5-36.8
		C646.6,673.3,645.5,672.5,645,673.1z"/>
	<path class="st1" d="M731,530.4c-21.3,20.4-41.5,42.2-60.4,64.6c-0.2,0.2,0.2,0.7,0.4,0.4c19.3-22.4,39.5-43.7,60.8-64.1
		C732.4,530.9,731.5,530,731,530.4z"/>
	<path class="st1" d="M711.3,569.3c-10.6,12.7-21.7,25.1-33.1,37.3c-0.2,0.2,0.2,0.7,0.4,0.4c11.3-12.2,22.4-24.4,33.5-36.8
		C712.8,569.4,711.7,568.6,711.3,569.3z"/>
	<path class="st0" d="M638.4,702.3l-4.7,5.5c-0.4,0.4,0.2,1.3,0.7,0.7c1.6-1.8,3.1-3.8,4.9-5.5C639.9,702.6,639,701.7,638.4,702.3z"
		/>
	<path class="st0" d="M759.6,535.5c-6.9,9.1-13.8,18.4-20.7,27.5c-0.2,0.4,0.4,0.9,0.7,0.4c7.1-9.1,14-18.2,21.1-27.3
		C761.3,535.5,760.2,534.6,759.6,535.5z"/>
	<path class="st0" d="M769.8,542.2c-12.2,11.8-23.7,24.4-34.4,37.7c-0.2,0.4,0.2,0.9,0.4,0.4c10.6-13.3,22.4-25.8,34.8-37.1
		C771.3,542.6,770.5,541.5,769.8,542.2z"/>
	<path class="st0" d="M768.4,557.5c-4.9,5.1-9.3,10.9-13.5,16.6c-0.4,0.4,0.4,1.1,0.9,0.7c4.4-5.5,9.1-10.9,13.8-16.2
		C770,557.7,768.9,556.9,768.4,557.5z"/>
	<path class="st1" d="M795.5,516c-34.4-1.3-123.3,0.2-157.5-0.2c-18.4-0.2-36.8,0.7-55.3,0.9c0.4,2-1.3,4.2-1.1,6.2
		c53,0,161.3,0,214.2-0.7C796.4,520,796.1,518,795.5,516z"/>
	<path class="st1" d="M795.5,724.2c-34.4-1.3-123.3,0.2-157.5-0.2c-18.4-0.2-36.8,0.7-55.3,0.9c-1.8,1.1-1.3,4.2-1.1,6.2
		c53,0,161.3,0,214.2-0.7C796.4,728.4,796.1,726.4,795.5,724.2z"/>
	<path class="st1" d="M785.3,728.4c1.6,0.9,2.9,0.7,4.4-0.2c0.2-2,0.4-4.2,0.4-6.7c-0.7-50.6,1.6-149.5,0-199.9
		c-0.9-4-3.1-2.5-4,1.6c-0.9,4-0.9,9.3-0.9,14.2c0.2,31.5,0.2,63,0.2,94.5C785.5,647.1,784.9,713.3,785.3,728.4z"/>
	<path class="st1" d="M586.4,728.4c1.6,0.9,2.9,0.7,4.4-0.2c0.2-2,0.4-4.2,0.4-6.7c-0.7-50.6,1.6-149.5,0-199.9
		c-0.9-4-3.1-2.5-4,1.6c-0.9,4-0.9,9.3-0.9,14.2c0.2,31.5,0.2,63,0.2,94.5C586.4,647.1,585.8,713.3,586.4,728.4z"/>
	<path class="st0" d="M760.4,646.3c0,0.9,0.2,2,0.9,2.2c0.2,0.2,0.4,0.2,0.9,0.2c2.2,0.2,4.4,0.4,6.9,0.4c0.7,0,1.3,0,2-0.4
		c0.4-0.4,0.4-1.1,0.7-1.8c0.2-2.2,0.2-4.4,0.4-6.7c0-0.2,0-0.2,0-0.4c0,0-0.2,0-0.4,0c-3.1,0.2-6.4,0.2-9.3,0.9
		C759.3,641.3,760.2,643.8,760.4,646.3z"/>
	<path class="st0" d="M771.1,652.9c0.2,0,0.4,0,0.7,0s0.2,0.2,0.4,0.4c0.4,1.1,0.4,2.2,0.4,3.3c0,1.8,0,3.8,0,5.5
		c-3.1,0-6.2,0-9.1-0.4c-2.6-0.4-2.9-2.5-2.5-4.9C761.8,652.2,767.3,653.1,771.1,652.9z"/>
	<path class="st0" d="M770.5,666.7c0.4,2.6,0.7,5.5,0.2,8.2c0,0.2,0,0.2-0.2,0.4c0,0-0.2,0.2-0.4,0.2c-2.5,0.2-4.7,0.4-7.1,0.4
		c-2.6,0.2-2.9-5.8-1.6-7.6c0.7-1.1,1.8-1.3,2.9-1.6C765.1,666.7,770.5,666.2,770.5,666.7z"/>
	<path class="st0" d="M770.9,681.1c0.7,3.1,0.7,6.4,0,9.6c0,0.2,0,0.2-0.2,0.4c-0.2,0-0.2,0.2-0.4,0.2c-2.2,0-4.2,0-6.4,0
		c-0.7,0-1.6,0-2.2-0.7c-0.7-0.4-0.7-1.3-0.7-2.2c0-1.6-0.2-2.9-0.2-4.4c0-1.8-0.4-2.2,1.3-2.6C764.7,680.4,768.2,680.9,770.9,681.1
		z"/>
	<path class="st0" d="M685.4,674.7c2.6-0.2,5.4-0.9,8-0.9c0.4,0,1.1,0,1.3,0.4c0.2,0.2,0.2,0.4,0.2,0.7c0,0.9,0,1.8,0,2.6
		c0,0.2,0,0.4-0.2,0.7s-0.7,0.2-0.9,0.2c-2.5,0-5.1-0.2-7.6-0.2c-1.8,0-6,0.7-7.3-0.2c-1.6-0.9-0.4-2.2,0.7-2.9
		C681.2,674.2,683.4,674.8,685.4,674.7z"/>
	<path class="st0" d="M693.2,681.1c0.2,0,0.2,0,0.4,0c0.2,0,0.2,0.2,0.2,0.4c0,1.3,0,2.6-0.2,4c0,0.2,0,0.4-0.2,0.4s-0.2,0-0.4,0
		c-4.7-0.4-9.3-0.4-14.2-0.2c-0.2,0-0.7,0-0.9-0.2c0-0.2,0-0.2,0-0.4c0-0.9-0.4-2.6,0.4-3.3c0.9-0.7,3.8-0.4,4.9-0.4
		C686.8,681.3,690.1,681.1,693.2,681.1z"/>
	<path class="st0" d="M693.4,687.9h0.2v0.2c0,1.3,0,2.5-0.2,3.8c-4.4,0.2-8.9,0.2-13.3,0.4c-0.2,0-0.4,0-0.7,0
		c-0.2-0.2-0.4-0.4-0.4-0.7c-1.3-4,1.3-3.8,4.7-4C687,687.5,690.1,687.5,693.4,687.9z"/>
	<path class="st0" d="M608.7,629.6c0,0.2,0,0.7,0.2,0.7h0.2c0.7,0,1.6,0.2,2.2,0.2c0.2,0,0.4,0,0.7-0.2s0.2-0.4,0.2-0.7
		c0-0.7,0-1.3,0.2-2.2c0,0,0,0,0-0.2c0,0,0,0-0.2,0c-0.9,0-2,0-3.1,0.2C608.4,627.8,608.7,628.7,608.7,629.6z"/>
	<path class="st0" d="M612.2,631.6C612.2,631.6,612.4,631.6,612.2,631.6c0.2,0,0.2,0.2,0.2,0.2c0.2,0.2,0.2,0.7,0.2,1.1
		c0,0.7,0,1.1,0,1.8c-0.9,0-2,0-2.9-0.2c-0.9-0.2-0.9-0.9-0.7-1.6C609.1,631.4,611.1,631.8,612.2,631.6z"/>
	<path class="st0" d="M611.9,636.1c0.2,0.9,0.2,1.8,0,2.6c0,0,0,0,0,0.2c0,0,0,0-0.2,0c-0.7,0-1.6,0.2-2.2,0.2
		c-0.9,0-0.9-1.8-0.4-2.5c0.2-0.2,0.7-0.4,0.9-0.4C610.2,636.1,611.9,636.1,611.9,636.1z"/>
	<path class="st0" d="M612.2,640.7c0.2,1.1,0.2,2,0,3.1c0,0,0,0-0.2,0c-0.7,0-1.3,0-2,0c-0.2,0-0.4,0-0.7-0.2
		c-0.2-0.2-0.2-0.4-0.2-0.7c0-0.4,0-0.9,0-1.3c0-0.7-0.2-0.7,0.4-0.9C610.2,640.5,611.3,640.7,612.2,640.7z"/>
	<path class="st0" d="M608.7,647.1c0,0.2,0,0.7,0.2,0.7h0.2c0.7,0,1.6,0.2,2.2,0.2c0.2,0,0.4,0,0.7-0.2s0.2-0.4,0.2-0.7
		c0-0.7,0-1.3,0.2-2.2c0,0,0,0,0-0.2c0,0,0,0-0.2,0c-0.9,0-2,0-3.1,0.2C608.4,645.6,608.7,646.3,608.7,647.1z"/>
	<path class="st0" d="M612.2,649.3C612.2,649.3,612.4,649.3,612.2,649.3c0.2,0,0.2,0.2,0.2,0.2c0.2,0.2,0.2,0.7,0.2,1.1
		c0,0.7,0,1.1,0,1.8c-0.9,0-2,0-2.9-0.2c-0.9-0.2-0.9-0.9-0.7-1.6C609.1,648.9,611.1,649.3,612.2,649.3z"/>
	<path class="st0" d="M611.9,653.8c0.2,0.9,0.2,1.8,0,2.6c0,0,0,0,0,0.2c0,0,0,0-0.2,0c-0.7,0-1.6,0.2-2.2,0.2
		c-0.9,0-0.9-1.8-0.4-2.5c0.2-0.2,0.7-0.4,0.9-0.4C610.2,653.6,611.9,653.6,611.9,653.8z"/>
	<path class="st0" d="M612.2,658.2c0.2,1.1,0.2,2,0,3.1c0,0,0,0-0.2,0c-0.7,0-1.3,0-2,0c-0.2,0-0.4,0-0.7-0.2
		c-0.2-0.2-0.2-0.4-0.2-0.7c0-0.4,0-0.9,0-1.3c0-0.7-0.2-0.7,0.4-0.9C610.2,658.2,611.3,658.2,612.2,658.2z"/>
	<path class="st0" d="M614.2,629.6c0,0.2,0,0.7,0.2,0.7h0.2c0.7,0,1.6,0.2,2.2,0.2c0.2,0,0.4,0,0.7-0.2c0.2-0.2,0.2-0.4,0.2-0.7
		c0-0.7,0-1.3,0.2-2.2c0,0,0,0,0-0.2c0,0,0,0-0.2,0c-0.9,0-2,0-3.1,0.2C614,627.8,614.2,628.7,614.2,629.6z"/>
	<path class="st0" d="M617.7,631.6c0.2,0,0.2,0.2,0.2,0.2c0.2,0.2,0.2,0.7,0.2,1.1c0,0.7,0,1.1,0,1.8c-0.9,0-2,0-2.9-0.2
		c-0.9-0.2-0.9-0.9-0.7-1.6C614.7,631.4,616.4,631.8,617.7,631.6z"/>
	<path class="st0" d="M617.5,636.1c0.2,0.9,0.2,1.8,0,2.6c0,0,0,0,0,0.2c0,0,0,0-0.2,0c-0.7,0-1.6,0.2-2.2,0.2
		c-0.9,0-0.9-1.8-0.4-2.5c0.2-0.2,0.7-0.4,0.9-0.4C615.7,636.1,617.5,636.1,617.5,636.1z"/>
	<path class="st0" d="M617.5,640.7c0.2,1.1,0.2,2,0,3.1c0,0,0,0-0.2,0c-0.7,0-1.3,0-2,0c-0.2,0-0.4,0-0.7-0.2s-0.2-0.4-0.2-0.7
		c0-0.4,0-0.9,0-1.3c0-0.7-0.2-0.7,0.4-0.9C615.6,640.5,616.6,640.7,617.5,640.7z"/>
	<path class="st0" d="M614.2,647.1c0,0.2,0,0.7,0.2,0.7h0.2c0.7,0,1.6,0.2,2.2,0.2c0.2,0,0.4,0,0.7-0.2c0.2-0.2,0.2-0.4,0.2-0.7
		c0-0.7,0-1.3,0.2-2.2c0,0,0,0,0-0.2c0,0,0,0-0.2,0c-0.9,0-2,0-3.1,0.2C614,645.6,614.2,646.3,614.2,647.1z"/>
	<path class="st0" d="M617.7,649.3c0.2,0,0.2,0.2,0.2,0.2c0.2,0.2,0.2,0.7,0.2,1.1c0,0.7,0,1.1,0,1.8c-0.9,0-2,0-2.9-0.2
		c-0.9-0.2-0.9-0.9-0.7-1.6C614.7,648.9,616.4,649.3,617.7,649.3z"/>
	<path class="st0" d="M617.5,653.8c0.2,0.9,0.2,1.8,0,2.6c0,0,0,0,0,0.2c0,0,0,0-0.2,0c-0.7,0-1.6,0.2-2.2,0.2
		c-0.9,0-0.9-1.8-0.4-2.5c0.2-0.2,0.7-0.4,0.9-0.4C615.7,653.6,617.5,653.6,617.5,653.8z"/>
	<path class="st0" d="M617.5,658.2c0.2,1.1,0.2,2,0,3.1c0,0,0,0-0.2,0c-0.7,0-1.3,0-2,0c-0.2,0-0.4,0-0.7-0.2
		c-0.2-0.2-0.2-0.4-0.2-0.7c0-0.4,0-0.9,0-1.3c0-0.7-0.2-0.7,0.4-0.9C615.6,658.2,616.6,658.2,617.5,658.2z"/>
	<path class="st0" d="M732.5,596.1c0,0.4,0.2,0.9,1.3,1.1c0.2,0,0.7,0,1.1,0c2.9,0.2,5.8,0.2,8.6,0.2c0.9,0,1.8,0,2.5-0.2
		c0.7-0.2,0.7-0.7,0.7-0.9c0.2-1.1,0.4-2.2,0.7-3.5c0,0,0-0.2-0.2-0.2c-0.2,0-0.2,0-0.4,0c-3.8,0.2-8.2,0.2-11.8,0.4
		C731.2,593.7,732.2,595,732.5,596.1z"/>
	<path class="st0" d="M746,599.7c0.2,0,0.7,0,0.9,0s0.2,0.2,0.4,0.2c0.7,0.4,0.7,1.1,0.7,1.8c0,0.9,0,2,0,2.9c-3.8,0-8,0-11.5-0.2
		c-3.3-0.2-3.5-1.3-2.9-2.5C734.2,599.2,741.4,599.7,746,599.7z"/>
	<path class="st0" d="M745.3,606.8c0.7,1.3,0.9,2.9,0.4,4.2c0,0,0,0.2-0.2,0.2s-0.4,0-0.4,0c-2.9,0-6,0.2-8.9,0.2
		c-3.5,0.2-3.5-3.1-2-4c0.9-0.4,2.2-0.7,3.8-0.9C738.5,606.8,745.1,606.5,745.3,606.8z"/>
	<path class="st0" d="M745.8,614.1c0.9,1.6,0.9,3.3,0,4.9c0,0,0,0.2-0.2,0.2s-0.4,0-0.7,0c-2.6,0-5.5,0-8.2,0c-0.9,0-2,0-2.6-0.2
		c-0.7-0.2-0.9-0.7-0.9-1.1c0-0.7-0.2-1.6-0.2-2.2c-0.2-0.9-0.7-1.1,1.6-1.3C738,613.8,742.2,614.1,745.8,614.1z"/>
	<path class="st0" d="M732.5,624.5c0,0.4,0.2,0.9,1.3,1.1c0.2,0,0.7,0,1.1,0c2.9,0.2,5.8,0.2,8.6,0.2c0.9,0,1.8,0,2.5-0.2
		c0.7-0.2,0.7-0.7,0.7-0.9c0.2-1.1,0.4-2.2,0.7-3.5c0,0,0-0.2-0.2-0.2c-0.2,0-0.2,0-0.4,0c-3.8,0.2-8.2,0.2-11.8,0.4
		C731.2,621.8,732.2,623.1,732.5,624.5z"/>
	<path class="st0" d="M754,596.1c0,0.4,0.2,0.9,1.3,1.1c0.2,0,0.7,0,1.1,0c2.9,0.2,5.8,0.2,8.6,0.2c0.9,0,1.8,0,2.5-0.2
		c0.7-0.2,0.7-0.7,0.7-0.9c0.2-1.1,0.4-2.2,0.7-3.5c0,0,0-0.2-0.2-0.2c-0.2,0-0.2,0-0.4,0c-3.8,0.2-8.2,0.2-11.8,0.4
		C752.7,593.7,753.7,595,754,596.1z"/>
	<path class="st0" d="M767.6,599.7c0.2,0,0.7,0,0.9,0s0.2,0.2,0.4,0.2c0.7,0.4,0.7,1.1,0.7,1.8c0,0.9,0,2,0,2.9c-3.8,0-8,0-11.5-0.2
		c-3.3-0.2-3.5-1.3-2.9-2.5C755.8,599.2,762.9,599.7,767.6,599.7z"/>
	<path class="st0" d="M766.8,606.8c0.7,1.3,0.9,2.9,0.4,4.2c0,0,0,0.2-0.2,0.2s-0.2,0-0.4,0c-2.9,0-6,0.2-8.9,0.2
		c-3.5,0.2-3.5-3.1-2-4c0.9-0.4,2.2-0.7,3.8-0.9C760,606.8,766.7,606.5,766.8,606.8z"/>
	<path class="st0" d="M767.3,614.1c0.9,1.6,0.9,3.3,0,4.9c0,0,0,0.2-0.2,0.2s-0.4,0-0.7,0c-2.6,0-5.5,0-8.2,0c-0.9,0-2,0-2.6-0.2
		c-0.7-0.2-0.9-0.7-0.9-1.1c0-0.7-0.2-1.6-0.2-2.2c-0.2-0.9-0.7-1.1,1.6-1.3C759.6,613.8,763.8,614.1,767.3,614.1z"/>
	<path class="st0" d="M754,624.5c0,0.4,0.2,0.9,1.3,1.1c0.2,0,0.7,0,1.1,0c2.9,0.2,5.8,0.2,8.6,0.2c0.9,0,1.8,0,2.5-0.2
		c0.7-0.2,0.7-0.7,0.7-0.9c0.2-1.1,0.4-2.2,0.7-3.5c0,0,0-0.2-0.2-0.2c-0.2,0-0.2,0-0.4,0c-3.8,0.2-8.2,0.2-11.8,0.4
		C752.7,621.8,753.7,623.1,754,624.5z"/>
	<path class="st2" d="M1096.5,798c-11.6-0.8-23.6-2-34.9,1.3c-1.8,0.5-4,1.5-4.1,3.5c-0.3,2,1.5,3.6,3.3,4.4c2.6,1.2,5.6,1.6,8.4,2
		c6.3,0.7,12.4,0.8,18.7,0.8c5.6-0.2,11.1-0.5,16.7-1c3.6-0.3,11.3,0.2,13.8-3.1C1122.9,799.8,1099.7,798.2,1096.5,798z"/>
	<path class="st1" d="M1141.7,681.4c1-38.5,0.3-70.3,0.3-113.5c0-11.8-0.5-32.6-1.2-44.5c0-1.2-0.2-2.5-1-3.3
		c-0.7-0.7-1.6-1-2.6-1.2c-92.6-8.6-149,0.8-243.5,0c-7.2,0-16.7-3.1-20.8,2.8c-3,4.3-1.6,15.2-1.5,20.5c0.3,28-0.2,56.1,0.3,84.1
		c0.3,13.9,0,28,0.8,42.2c0.5,10.3,2.6,14.6,13.3,14.6c27.6,0,56.7,0,84.2-1c27.7-1,55.6-1.3,83.3-0.7
		C1061.2,681.7,1141.7,678.6,1141.7,681.4z"/>
	<path class="st1" d="M1147.9,515.9c-51.8-1.2-145.9,0.3-197.5-0.2c-27.9-0.3-55.7,0.5-83.5,0.8c0.7,1.8-2.1,3.6-1.5,5.4
		c80,0,203.3,0,283.2-0.7C1149.4,519.5,1149.1,517.7,1147.9,515.9z"/>
	<path class="st1" d="M1149.7,679.4c-51.8-1.2-145.9,0.3-197.5-0.2c-27.9-0.3-55.7,0.5-83.5,0.8c-0.7,1.6-1.2,3.6-0.5,5.4
		c80,0,202.3,0,282.2-0.7C1151.2,683,1151,681.2,1149.7,679.4z"/>
	<path class="st1" d="M1142.9,712.6c-49.2-1.2-138.6,0.3-187.6-0.2c-26.4-0.3-52.8,0.5-79.2,0.8c0.7,1.8-2.1,3.6-1.5,5.4
		c75.9,0,193,0,268.8-0.7C1144.2,716.4,1144,714.6,1142.9,712.6z"/>
	<path class="st1" d="M1146.3,684.6c-0.7-4.9-4.9-2-5.1,2c-0.2,5.8,0.2,11.4,0.2,17c0,1.8,0,88.7-0.8,89c1.6-0.5,3.8,0.8,5.1-0.5
		c0.7-0.7,0.7-1.8,0.8-2.6C1146.9,778.1,1147.7,696.1,1146.3,684.6z"/>
	<path class="st1" d="M876.9,684.6c-0.7-4.9-4.9-2-5.1,2c-0.2,5.8,0.2,11.4,0.2,17c0,1.8,0,88.7-0.8,89c1.6-0.5,3.8,0.8,5.1-0.5
		c0.7-0.7,0.7-1.8,0.8-2.6C877.6,778.1,878.4,696.1,876.9,684.6z"/>
	<path class="st1" d="M1140.6,792c-0.7,1-1,2.1-1.2,3.3c0,1.3,0.3,2.6,1,3.6c0.7,1,1.8,1.8,3.1,2c1,0.2,2-0.2,2.6-0.7
		C1152.4,796.1,1144.5,786.8,1140.6,792z"/>
	<path class="st1" d="M870.3,790.7c-0.8,1-1.2,2.1-1.3,3.3c0,1.3,0.3,2.6,1.2,3.6s2.1,1.8,3.6,2c1.2,0.2,2.3-0.2,3.1-0.7
		C884.4,795,875.1,785.5,870.3,790.7z"/>
	<path class="st3" d="M949.8,553.6c-0.5,0-1-0.2-1.5-0.5c0,0-0.2-0.2,0-0.3c0-0.2,0.2-0.2,0.3,0c1.2,0.8,2.8,0,3.6-0.5
		c1-0.5,1.8-1.2,2.6-2c-0.3-0.3-0.5-0.7-0.7-1.2c-0.3-1-0.2-2,0-2.8c0.8-4,2.1-7.9,4.3-11.3c0.5-1,1.5-2,2.5-2.1
		c0.5-0.2,1,0,1.3,0.3c0,0,0,0,0,0.2c0.3,6.3-2.3,12.6-7.1,16.9c0.7,0.7,1.5,1,2.5,1.2c1.3,0.2,2.6-0.2,4.3-1.2
		c1.2-0.5,2.1-1.3,3.1-2.1c0-0.5,0-0.8,0-1.3c0.3-2.6,1.5-5.3,3.3-7.2h0.2c0,0,0.2,0,0.2,0.2c0.7,3.3-1,6.3-3.3,8.4
		c0,0.2,0.2,0.3,0.2,0.5c0.5,0.8,1.5,1,2.3,0.8c0.8-0.2,1.5-0.7,2.3-1.6c0.2-0.2,0.3-0.3,0.5-0.7c0.2-2,1-4,2.1-5.6
		c0,0,0.2-0.2,0.2,0l0.2,0.2c-0.2,2-0.8,4-2.1,5.6c-0.2,0.8-0.2,1.6,0,2.5c3.3-0.5,5.1-4.1,6.1-7.4c0-0.2,0.2-0.2,0.2-0.2
		c0.2,0,0.2,0.2,0.2,0.2c-0.2,1.6-0.3,3.5-0.2,5.1c1-0.8,1.8-2,2.3-3.3c0-0.2,0.2-0.2,0.2-0.2c0.2,0,0.2,0.2,0.2,0.2
		c0,0.8,0.2,1.5,0.5,2.3l3.6-1.8c0.2,0,0.2,0,0.2,0c0.8,1.2,2.5,1.6,3.8,0.8c0.2,0,0.2,0,0.3,0c0,0.2,0,0.2,0,0.3
		c-1.3,0.8-3.3,0.3-4.1-0.8l-3.6,2c-0.2,0-0.2,0-0.3,0c-0.3-0.5-0.5-1.2-0.7-1.8c-0.5,1.2-1.3,2.1-2.5,2.8h-0.2l-0.2-0.2
		c-0.2-1.3-0.2-2.8,0-4.1c-2.1,5.3-4.6,6.1-6.1,6.3c-0.2,0-0.2,0-0.2-0.2c-0.2-0.7-0.2-1.5,0-2.3l-0.2,0.2c-0.8,1-1.6,1.5-2.5,1.6
		c-1,0.2-2.1,0-2.8-1c-0.2-0.2-0.2-0.3-0.2-0.5c-1,0.8-2,1.5-3,2.1c-1.6,0.8-3.1,1.2-4.4,1.2c-1.2-0.2-2.1-0.5-2.8-1.2
		c-0.8,0.8-1.8,1.5-2.8,2C951.8,553.1,950.8,553.6,949.8,553.6z M961.5,533.5h-0.2c-0.8,0.2-1.8,1.2-2.3,2
		c-2.1,3.5-3.5,7.2-4.3,11.1c-0.2,0.8-0.3,1.8,0,2.6c0.2,0.3,0.3,0.7,0.5,1c4.6-4.1,7.2-10.3,6.9-16.6
		C961.8,533.6,961.7,533.5,961.5,533.5z M968.5,540.5c-1.6,1.8-2.6,4.3-3,6.8c0,0.3,0,0.5,0,0.8C967.5,545.9,969,543.3,968.5,540.5z
		 M972.8,542.9c-0.7,1.2-1.2,2.6-1.5,4C972.1,545.7,972.6,544.4,972.8,542.9z"/>
	<path class="st3" d="M1041.8,548.7c-0.3,0-0.7,0-1-0.2s-0.7-0.7-0.7-1.2c-0.8,0.5-1.8,0.7-2.8,0.3c-0.8-0.3-1.6-1.2-1.8-2.1
		c-0.2-0.5-0.2-0.8,0-1.3c-1.8,1.3-3.8,2.5-5.9,3h-0.2v-0.2l0.5-4.3c-2.5,1.8-5.3,3-8.2,3.3h-0.2v-0.2l1.2-4.1
		c-1.8,2.5-4.6,4.1-7.6,4.6h-0.2v-0.2c0.3-1.6,0.7-3.1,1.2-4.6c-1.6,2.3-3.6,4.3-6.3,5.8c-0.7,0.5-1.6,0.8-2.5,0.7
		c-0.5-0.2-1-0.5-1.3-1c-0.2-0.2-0.2-0.5-0.3-0.7c-0.8,0.8-2,1.3-3.1,1.6c-1,0.2-1.6,0-2-0.5c-0.2-0.2-0.2-0.5-0.2-0.7
		c-1,0.5-2.1,0.8-3.3,0.8c-0.2,0-0.2,0-0.2-0.2c0-1.3,0.2-2.6,0.5-4l-1.8,2c0,0-0.2,0-0.3,0c0,0,0-0.2,0-0.3l2.5-2.5h0.2
		c0,0,0.2,0.2,0,0.2c-0.5,1.3-0.7,2.8-0.7,4.3c1.2,0,2.1-0.3,3.1-1c0-2.1,1.6-4.3,3.8-4.8h0.2v0.2c-0.5,2-1.8,3.8-3.6,4.8
		c0,0.3,0,0.5,0.2,0.7c0.3,0.5,1.3,0.3,1.6,0.3c1.2-0.3,2.3-0.8,3.1-1.6c0-0.5,0-0.8,0-1.2c0.3-1.3,1.5-2.3,2.3-3.1h0.2l0.2,0.2
		c-0.3,1.6-1.2,3.3-2.3,4.4c0,0.3,0.2,0.5,0.3,0.8c0.2,0.3,0.5,0.7,1.2,0.8c0.8,0.2,1.5-0.2,2.1-0.7c3-1.6,5.3-4.1,6.9-7.1
		c0-0.2,0.2-0.2,0.2,0c0.2,0,0.2,0.2,0.2,0.2c-0.7,2-1.2,4-1.6,5.9c3.1-0.7,5.9-2.6,7.7-5.4c0,0,0.2-0.2,0.2,0
		c0.2,0,0.2,0.2,0.2,0.2l-1.5,4.9c3-0.5,5.8-1.6,8.1-3.5h0.2l0.2,0.2l-0.5,4.4c2.3-0.7,4.4-2,6.4-3.6c0,0,0.2,0,0.3,0
		c0,0,0,0.2,0,0.3c-0.5,0.5-0.7,1.2-0.5,1.8c0.2,0.8,0.8,1.6,1.6,1.8c0.8,0.3,1.8,0,2.6-0.5c0-0.2,0-0.3,0-0.5
		c0.2-1.5,0.8-2.8,1.8-4.1c0,0,0.2-0.2,0.2,0c0,0,0.2,0,0.2,0.2c0.2,1.2,0,2.3-0.5,3.3c-0.3,0.5-0.7,1-1.3,1.5
		c0,0.5,0.2,0.8,0.5,1.2c0.3,0.2,0.7,0.2,1.2,0.2c2-0.2,3.8-1,5.3-2.3c-0.2-0.7,0-1.3,0.3-1.8c0.5-0.7,1.2-1,1.8-0.8
		c0,0,0.2,0,0.2,0.2v0.2c-0.5,1-1.2,1.8-1.8,2.5c0,0,0,0.2,0.2,0.2c0.3,0.5,1,0.7,1.6,0.5c0.8-0.2,1.3-0.7,1.6-1.3
		c0-0.2,0.2-0.2,0.2-0.2c0.2,0,0.2,0.2,0.2,0.2c-0.3,0.8-1,1.3-1.8,1.5c-0.8,0.2-1.5,0-2-0.7l-0.2-0.2c-1.5,1.3-3.5,2.1-5.4,2.3
		C1042.1,548.7,1041.9,548.7,1041.8,548.7z M1041.9,542.8c-0.7,1-1.2,2.3-1.5,3.5v0.2c0.3-0.3,0.7-0.7,1-1.2
		C1041.9,544.6,1042.1,543.8,1041.9,542.8z M1004.1,542.1c-1.6,0.7-3,2.3-3.3,4.1C1002.4,545.4,1003.6,543.9,1004.1,542.1z
		 M1008.2,542.3c-0.7,0.7-1.5,1.6-1.8,2.6c0,0.3-0.2,0.5-0.2,0.8C1007.2,544.7,1007.8,543.6,1008.2,542.3z M1049.2,543.6
		c-0.5,0-0.8,0.3-1.2,0.7c-0.2,0.3-0.3,0.8-0.3,1.3C1048.4,545.1,1048.9,544.4,1049.2,543.6z"/>
	<path class="st3" d="M1050.6,583.9c0,0-0.2,0-0.2-0.2c0-0.2,0-0.2,0-0.3c0.3-0.2,0.5-0.3,0.7-0.5c-0.2-0.2-0.2-0.5-0.2-0.8
		c0-1,0.2-1.8,0.7-2.6l0.2-0.2c0,0,0.2,0,0.2,0.2c0.5,0.7,0.5,1.6,0.3,2.5c-0.2,0.5-0.3,0.8-0.7,1.2l0.2,0.2c0.5,0.5,1.6,0.2,1.8,0
		c1.3-0.7,2.3-1.6,3-2.8c0-1,0.2-2,1-2.6h0.2l0.2,0.2c-0.2,1-0.5,1.8-0.8,2.6c0,0.3,0.2,0.5,0.2,0.8c1.2-0.7,1.8-1.8,1.8-3.1
		c0-0.2,0.2-0.2,0.2-0.2c0.2,0,0.2,0,0.2,0.2c0,0.5,0.2,1.2,0.3,1.6c0.2,0.5,0.8,0.8,1.3,0.7c0.3,0,0.5-0.3,0.8-0.5l2.6-2.1h0.2
		l0.2,0.2c0,0.3-0.2,1.2,0.3,1.6c0.2,0.2,0.5,0.3,0.8,0.2c0.2,0,0.3-0.2,0.5-0.3c0-0.2,0.2-0.2,0.2-0.2c0.2,0,0.2,0.2,0.2,0.2
		c-0.2,0.3-0.3,0.5-0.7,0.7c-0.5,0.2-1,0-1.3-0.3c-0.3-0.3-0.5-1-0.5-1.6l-2.3,1.8c-0.2,0.2-0.5,0.5-1,0.5c-0.7,0.2-1.3-0.3-1.6-0.8
		c-0.2-0.2-0.2-0.5-0.3-0.7c-0.3,1-1.2,2-2,2.5c-0.2,0-0.2,0-0.3,0c-0.2-0.2-0.2-0.5-0.3-0.7c-0.7,1.2-1.8,2-3,2.6
		c-1,0.5-1.8,0.5-2.3,0l-0.2-0.2C1051.1,583.6,1050.9,583.8,1050.6,583.9z M1051.7,580.2c-0.3,0.7-0.3,1.3-0.3,2.1
		c0,0.2,0,0.3,0,0.5c0.2-0.2,0.3-0.5,0.3-0.8C1052.1,581.4,1051.9,580.7,1051.7,580.2z M1057.3,578.9c-0.2,0.3-0.2,0.5-0.3,0.8
		C1057.1,579.4,1057.1,579.1,1057.3,578.9z"/>
	<path class="st3" d="M1075,581.9c-0.3,0-0.5,0-0.8-0.2c-0.2-0.2-0.3-0.3-0.5-0.7c-0.8,0.5-2,0.7-2.8,0.7h-0.2v-0.2
		c0-1.3,0.7-2.5,1.6-3.3c0.3-0.3,0.8-0.3,1.2-0.2c0.2,0.2,0.2,0.5,0.2,0.7c0.2-0.3,0.5-0.8,0.7-1.2c0,0,0.2,0,0.2-0.2h0.2
		c0.7,1,0.3,2.5-0.7,3.1c0.2,0.2,0.3,0.3,0.5,0.5c0.2,0.2,0.5,0.3,0.8,0.2c0.3-0.2,0.5-0.3,0.7-0.7l3-3.5h0.2c0,0,0.2,0,0.2,0.2
		l0.8,3.5c1.5-0.8,2.8-2.1,3.6-3.5c0,0,0.2-0.2,0.2,0l0.2,0.2v2.3c1.5-0.8,2.8-1.8,3.8-3.1c0,0,0.2-0.2,0.2,0l0.2,0.2l0.2,1.2
		c0.8-0.3,1.5-1.2,1.6-2l0.2-0.2c0.2,0,0.2,0,0.2,0.2c0.2,0.7,1,1,1.6,0.8c0.3,0,0.7-0.2,1-0.2c0.3-0.2,0.8-0.2,1.3-0.2
		c1,0,2.1,0.5,2.6,1.3c0.7-0.7,1.3-1.3,2.3-1.6h0.2c0,0,0.2,0,0.2,0.2c0,0.7,0.2,1.3,0.5,2c0.3,0.5,1,1,1.5,0.8
		c0.3-0.2,0.7-0.3,1-0.7c0.2-0.2,0.2-0.2,0.3-0.3c0.5-0.5,1.3-0.7,1.8-0.3c0,0,0.2,0.2,0,0.3c0,0-0.2,0.2-0.3,0
		c-0.3-0.3-1-0.2-1.3,0.3c-0.2,0.2-0.2,0.2-0.3,0.3c-0.3,0.3-0.7,0.7-1.2,0.8c-0.8,0.2-1.6-0.3-2-1c-0.3-0.5-0.5-1.3-0.5-1.8
		c-0.8,0.3-1.5,0.8-2,1.6h-0.2c0,0-0.2,0-0.2-0.2c-0.5-0.8-1.5-1.5-2.5-1.5c-0.3,0-0.8,0.2-1.2,0.2c-0.3,0.2-0.7,0.2-1.2,0.2
		c-0.7,0-1.5-0.2-1.8-0.7c-0.3,0.8-1.2,1.5-2,1.8h-0.2c0,0,0,0-0.2-0.2l-0.2-1c-1.2,1.3-2.5,2.3-4,3h-0.2l-0.2-0.2v-2
		c-1,1.3-2.1,2.5-3.6,3.3h-0.2c0,0-0.2,0-0.2-0.2l-0.8-3.3l-2.8,3.3C1075.6,581.4,1075.3,581.7,1075,581.9
		C1075,581.9,1075.1,581.9,1075,581.9z M1073,578.3c-0.2,0-0.3,0.2-0.5,0.2c-0.8,0.7-1.5,1.6-1.5,2.8c0.8,0,1.6-0.2,2.5-0.7
		c0,0,0,0,0-0.2l-0.2-0.2v-1.6c0-0.2,0-0.3,0-0.5C1073.1,578.3,1073.1,578.3,1073,578.3z M1074.5,578.1c-0.5,0.7-0.8,1.3-0.8,2
		c0,0.2,0,0.2,0,0.3C1074.5,579.9,1074.8,578.9,1074.5,578.1z"/>
	<path class="st3" d="M1053,597.6c-0.3,0-0.5,0-0.7-0.2c-0.2-0.2-0.3-0.5-0.3-0.7c-0.3-1.3,0.3-2.8,1.6-3.5h0.2c0,0,0.2,0,0.2,0.2
		c0.3,1,0,2.1-0.7,3c0,0-0.2,0-0.3,0c0,0,0-0.2,0-0.3c0.5-0.7,0.8-1.6,0.7-2.5c-1,0.5-1.5,1.8-1.3,3c0,0.2,0.2,0.3,0.2,0.3
		c0.3,0.3,0.8,0.2,1.2-0.2c0.5-0.3,0.8-0.7,1.3-1l-0.2-0.2c-0.2-0.2-0.2-0.5-0.2-1c0-1.2,0.8-2.3,1.8-3h0.2c0.7,0.5,0.5,1.6,0.2,2.5
		c-0.3,0.5-0.7,1.2-1.2,1.6c0.3,0.2,0.8,0,1.2,0c1.2-0.3,2.1-1.2,3-2.1c0.2-0.8,0.5-1.5,1-2.1c0,0,0.2-0.2,0.2,0l0.2,0.2
		c-0.2,0.8-0.5,1.5-1,2.1c0,0.3,0,0.8,0,1.2c0,0.2,0,0.3,0.2,0.5c0,0,0.2,0.2,0.3,0.2c0.3,0,0.7-0.3,1-0.7l2-2.3c0,0,0.2-0.2,0.2,0
		c0,0,0.2,0.2,0,0.2c-0.2,0.2-0.2,0.5,0,0.7s0.3,0.5,0.5,0.5c0.2,0.2,0.5,0.2,0.7,0c0.2-0.2,0.5-0.3,0.5-0.5s0.2-0.2,0.3-0.2
		c0.2,0,0.2,0.2,0.2,0.3c-0.2,0.3-0.5,0.5-0.8,0.7c-0.3,0.2-0.7,0.2-1,0c-0.3-0.2-0.5-0.5-0.7-0.8c0-0.2,0-0.2,0-0.3l-1.6,1.8
		c-0.3,0.3-0.8,0.7-1.2,0.7c-0.2,0-0.3,0-0.5-0.2s-0.3-0.5-0.3-0.7c0-0.2,0-0.5,0-0.7c-0.7,0.8-1.6,1.5-2.8,1.8
		c-0.5,0.2-1.2,0.2-1.6,0c-0.5,0.5-0.8,0.8-1.5,1.2C1053.6,597.4,1053.3,597.6,1053,597.6z M1056.6,592.2c-0.8,0.7-1.5,1.6-1.5,2.6
		c0,0.3,0,0.5,0.2,0.7c0,0,0,0,0.2,0.2c0.5-0.5,0.8-1,1.2-1.6S1057.1,592.5,1056.6,592.2z"/>
	<path class="st3" d="M1072.5,595.3C1072.5,595.3,1072.3,595.3,1072.5,595.3c-0.2,0-0.2,0-0.2-0.2c-0.3-0.8-0.5-1.6-0.5-2.6
		c-0.7,0.8-1.6,1.2-2.6,1.3c-0.2,0-0.2,0-0.2-0.2c0-0.2,0-0.2,0.2-0.2c1.2,0,2.1-0.7,2.8-1.6c0,0,0.2-0.2,0.2,0l0.2,0.2
		c-0.2,1,0,2,0.3,2.8c2-0.8,3.8-2,5.3-3.5h0.2l0.2,0.2c-0.2,1-0.2,2-0.2,3c1.6-0.7,3.1-1.8,4.3-3.1c0,0,0.2-0.2,0.2,0l0.2,0.2
		l0.2,2.5c1.6-0.7,3.1-1.6,4.3-2.8h0.2c0,0,0.2,0.2,0,0.2c-0.2,0.3-0.2,0.5,0,0.8c0.3,0.5,1.2,0.8,1.8,0.8c0.3,0,0.8-0.2,1.2-0.3
		c0.7-0.2,1.5-0.5,2.3-0.3c0.2,0,0.5,0.2,0.7,0.2c0.3,0.2,0.7,0.3,1,0.3c0.3,0,0.5-0.2,0.8-0.3c0.2,0,0.2-0.2,0.3-0.2
		c1.6-0.8,3.8-0.5,5.4-0.2c0.2,0,0.2,0.2,0.2,0.2c0,0.2-0.2,0.2-0.2,0.2c-2-0.3-3.6-0.7-5.1,0.2c0,0-0.2,0-0.2,0.2
		c-0.3,0.2-0.7,0.3-1,0.3c-0.5,0-0.8-0.2-1.2-0.3c-0.2-0.2-0.5-0.2-0.7-0.2c-0.7-0.2-1.3,0-2,0.2c-0.3,0.2-0.8,0.2-1.3,0.3
		c-0.8,0.2-1.8-0.3-2.1-1c-0.2-0.2-0.2-0.3-0.2-0.7c-1.2,1.2-2.6,2-4.3,2.6h-0.2c0,0,0-0.2-0.2-0.2l-0.3-2c-1.2,1.3-2.6,2.5-4.3,3
		h-0.2c0,0,0,0-0.2-0.2c-0.2-1-0.2-1.8,0-2.8C1076.3,593.5,1074.5,594.5,1072.5,595.3z"/>
	<path class="st3" d="M1052.8,607.1c0,0-0.2,0-0.2-0.2c-0.5-0.8-0.3-2,0.2-2.8c0,0,0.2-0.2,0.2,0l2.3,0.8c2.6-0.7,5.4-0.3,7.9,0.8
		l1-2.1c0,0,0-0.2,0.2-0.2h0.2c1.2,1.3,2.3,2.6,4,2.6c0.8,0,1.5-0.5,2-1c-0.3-0.3-0.5-0.8-0.5-1.3c0-0.3,0.2-0.8,0.5-1h0.2
		c0.5,0.5,0.7,1.2,0.3,2c0,0,0,0.2-0.2,0.2c0.5,0.3,1.3,0.5,2,0.5c1.5,0,3-0.2,4.4-0.5c0.3,0,0.5-0.2,0.8-0.3
		c-0.2,0-0.2-0.2-0.3-0.3c-0.3-0.5-0.5-1.2-0.2-1.8c0.2-0.5,0.5-0.7,1-0.7c0.3,0,0.7,0.2,0.8,0.7c0.3,0.5,0.2,1,0,1.5
		c-0.2,0.2-0.3,0.5-0.5,0.7c0.2,0,0.3,0,0.5,0c0.5,0,1-0.2,1.3-0.5c0.2-0.2,0.3-0.5,0.3-0.8c-0.5-0.5-0.8-1.3-0.7-2
		c0,0,0-0.2,0.2-0.2h0.2c0.5,0.3,0.8,0.8,0.8,1.5c0,0.2,0,0.3,0,0.5c0.5,0.5,1.2,0.8,1.8,0.7c0.7,0,1.3-0.5,1.6-1.2
		c0.2-0.3,0.3-0.7,0.3-1c-0.2-0.3-0.2-0.7,0-1l0.2-0.2c0,0,0.2,0,0.2,0.2c0.2,0.3,0.2,0.7,0.2,1l0.2,0.2c0.3,0.5,1,0.8,1.6,0.7
		c1-0.2,2-0.8,2.8-1.6h0.2h0.2c1,1.2,2.6,1.8,4.3,1.6c1.8-0.2,3.1-1.2,3.8-2.6l0.2-0.2h0.2c0.8,1.2,2.1,1.8,3.6,1.8
		c0.2,0,0.2,0,0.2,0.2c0,0.2,0,0.2-0.2,0.2c-1.5,0-2.8-0.7-3.6-1.6c-0.7,1.3-2.1,2.3-4,2.5s-3.5-0.3-4.6-1.5
		c-0.8,0.8-1.8,1.5-2.8,1.6c-0.7,0-1.5-0.3-2-0.8c0,0.3-0.2,0.5-0.3,0.8c-0.5,0.7-1.2,1.2-2,1.3c-0.7,0.2-1.5-0.2-2-0.7
		c-0.2,0.3-0.2,0.5-0.5,0.8c-0.3,0.5-1,0.7-1.6,0.7c-0.3,0-0.7,0-0.8-0.2c-0.3,0.2-0.8,0.3-1.2,0.3c-1.5,0.3-3,0.7-4.4,0.5
		c-0.7,0-1.5-0.2-2.1-0.5c-0.5,0.7-1.2,1.2-2.1,1.2c0,0,0,0-0.2,0c-1.6,0-3-1.3-4-2.6l-1,2c0,0,0,0-0.2,0.2h-0.2
		c-2.5-1.3-5.3-1.6-7.9-1c0,0,0,0-0.2,0l-2.3-0.8c-0.2,0.2-0.3,0.5-0.3,0.8c0.2,0,0.2,0.2,0.2,0.2v1.5
		C1053,607.1,1052.8,607.1,1052.8,607.1z M1070.4,603.6c-0.2,0.2-0.2,0.3-0.2,0.5c0,0.3,0.2,0.7,0.3,0.8
		C1070.8,604.4,1070.8,604,1070.4,603.6z M1078.4,602.6c-0.3,0-0.5,0.3-0.7,0.5c-0.2,0.3-0.2,1,0.2,1.5c0.2,0.2,0.3,0.2,0.3,0.3
		c0.3-0.2,0.5-0.3,0.7-0.7c0.2-0.3,0.2-0.8,0-1.2C1078.9,603,1078.7,602.6,1078.4,602.6z M1080.7,602.1c0,0.3,0.2,0.5,0.3,0.8
		C1081,602.8,1080.9,602.5,1080.7,602.1z"/>
	<path class="st3" d="M1080.1,621.7c-0.2,0-0.2,0-0.3,0c-0.2,0-0.2-0.2-0.2-0.2c0.2-0.8-0.7-1.6-1.5-1.8c-0.7-0.2-1.3-0.2-2.1-0.2
		c-0.2,0-0.5,0-0.7,0c-1.3,0-2.8-0.2-4.1-0.3c-2.5-0.3-4.8-0.7-6.8,0.3c-0.2,0.2-0.3,0.2-0.7,0.3c-1,0.5-2,1.2-3,0.7
		c-0.5-0.2-0.8-0.7-1-1c-0.3-0.5-0.7-1-1.3-1c-0.5,0-0.8,0.5-1.2,1c-0.3,0.5-0.5,0.8-1,1.2c-0.5,0.3-1,0.3-1.6,0
		c-0.7-0.3-1.2-1-1.3-1.6v0.2c0,0.2-0.2,0.2-0.2,0.2c-0.2,0-0.2-0.2-0.2-0.2l0.2-1.6c0-0.2,0.2-0.2,0.2-0.2c0.2,0,0.2,0.2,0.2,0.2
		c0,1.2,0.7,2.3,1.5,2.8c0.5,0.2,0.8,0.2,1.2,0c0.3-0.2,0.7-0.7,0.8-1c0.3-0.7,0.8-1.2,1.5-1.3c0.7,0,1.2,0.5,1.6,1
		c0.3,0.3,0.5,0.7,1,0.8c0.8,0.5,1.8-0.2,2.6-0.7c0.2-0.2,0.5-0.2,0.7-0.3c2.1-1.2,4.6-0.8,7.1-0.3c1.3,0.2,2.6,0.5,4,0.3
		c0.2,0,0.5,0,0.7,0c0.8,0,1.5-0.2,2.3,0.2c1,0.3,1.8,1.2,1.8,2.1c0.7,0,1.2-0.5,1.6-1c0.2-0.2,0.3-0.3,0.5-0.5
		c0.5-0.5,1.5-0.7,2.1-0.3c0.2,0.2,0.3,0.3,0.5,0.5l4.6-3h0.2l0.2,0.2c0,1,0.5,1.8,1,2.5c0.7-1,1.8-1.5,3.1-1.3
		c1.3,0.2,2.3,0.7,2.8,1.6c0.7-1,2.1-1.2,3.3-1.5c2.8-0.3,5.6-1.5,8.1-3c0.2,0,0.2,0,0.3,0c0,0.2,0,0.2,0,0.3
		c-2.5,1.6-5.3,2.6-8.2,3.1c-1.2,0.2-2.8,0.3-3.3,1.5l-0.2,0.2c0,0-0.2,0-0.2-0.2c-0.3-1-1.5-1.6-2.6-1.8c-1.3-0.2-2.5,0.5-3,1.3
		c0,0,0,0.2-0.2,0.2h-0.2c-0.7-0.7-1.2-1.6-1.3-2.6l-4.6,3h-0.2c0,0-0.2-0.2,0-0.2c0-0.2,0-0.3-0.3-0.5c-0.5-0.2-1.3-0.2-1.6,0.3
		c-0.2,0.2-0.3,0.3-0.5,0.5C1081.4,621,1080.7,621.7,1080.1,621.7z"/>
	<path class="st4" d="M1076.8,561.5c0,0-0.7,1.8-0.5,3.3c0.2,1.5-0.3,4.4-0.3,5.4s7.7,1.6,9.8,1.5c2.1-0.2,3.3-1,3.3-1
		s-0.3-7.7-0.5-8.6C1088.5,561.4,1076.8,561.5,1076.8,561.5z"/>
	<path class="st5" d="M1079.4,568.4c-0.2,0-0.3,0-0.5-0.2s-0.2-0.3-0.2-0.3c-0.2-1,0.3-2,1.2-2.3c0,0,0,0,0.2,0c0.2,0.7,0,1.5-0.5,2
		h-0.2v-0.2c0.3-0.5,0.5-1,0.5-1.6c-0.7,0.3-1,1.2-0.8,2c0,0.2,0,0.2,0.2,0.3c0.2,0.2,0.5,0,0.8-0.2c0.3-0.2,0.7-0.5,0.8-0.7
		c0,0,0,0-0.2-0.2c-0.2-0.2-0.2-0.3-0.2-0.7c0-0.8,0.5-1.6,1.2-2h0.2c0.5,0.3,0.3,1.2,0,1.6c-0.2,0.3-0.5,0.8-0.8,1.2
		c0.2,0.2,0.5,0,0.8,0c0.8-0.2,1.5-0.8,2-1.5c0.2-0.5,0.3-1,0.7-1.5h0.2c0,0,0.2,0.2,0,0.2c-0.2,0.5-0.3,1-0.7,1.5
		c0,0.3,0,0.5,0,0.8c0,0.2,0,0.3,0.2,0.3h0.2c0.2,0,0.5-0.2,0.7-0.3l1.3-1.5h0.2v0.2c0,0.2,0,0.3,0,0.5c0,0.2,0.2,0.3,0.3,0.3
		c0.2,0,0.3,0,0.5,0s0.3-0.2,0.3-0.3c0,0,0.2-0.2,0.2,0c0,0,0.2,0.2,0,0.2c-0.2,0.2-0.3,0.3-0.5,0.5c-0.2,0-0.5,0-0.7,0
		c-0.2-0.2-0.3-0.3-0.5-0.5v-0.2l-1.2,1.2c-0.2,0.2-0.5,0.5-0.8,0.5c-0.2,0-0.3,0-0.3-0.2c-0.2-0.2-0.2-0.3-0.2-0.5
		c0-0.2,0-0.3,0-0.5c-0.5,0.5-1.2,1-1.8,1.2c-0.3,0.2-0.8,0.2-1.2,0c-0.3,0.3-0.7,0.5-1,0.8C1079.7,568.4,1079.6,568.4,1079.4,568.4
		z M1081.9,564.8c-0.7,0.3-1,1-1,1.8c0,0.2,0,0.3,0.2,0.5c0.3-0.3,0.5-0.7,0.8-1.2C1082,565.6,1082,564.9,1081.9,564.8z"/>
	<path class="st4" d="M1058.7,560.9c0,0-0.7,1.8-0.5,3.3c0.2,1.5-0.3,4.4-0.3,5.4s7.7,1.6,9.8,1.5c2.1-0.2,3.3-1,3.3-1
		s-0.3-7.7-0.5-8.6C1070.4,560.7,1058.7,560.9,1058.7,560.9z"/>
	<path class="st5" d="M1068.9,568.2c0.2,0,0.3,0,0.5-0.2c0.2-0.2,0.2-0.2,0.2-0.3c0.2-0.7-0.3-1.3-1.2-1.5h-0.2c0,0-0.2,0-0.2,0.2
		c-0.2,0.5,0,1,0.5,1.3c0.2,0,0.3,0,0.3,0c0.2,0,0.2-0.2,0-0.2c-0.3-0.2-0.5-0.5-0.5-0.8c0.5,0.2,0.8,0.7,0.7,1c0,0,0,0.2-0.2,0.2
		c-0.2,0-0.5,0-0.7-0.2c-0.3-0.2-0.5-0.2-0.8-0.3c0.2-0.2,0.2-0.3,0.2-0.5c0-0.5-0.5-1-1.3-1.3c-0.2,0-0.2,0-0.3,0
		c-0.7,0.2-0.5,0.7-0.2,1.2c0.2,0.2,0.3,0.3,0.7,0.5c-0.2,0-0.3,0-0.5,0c-0.8-0.2-1.5-0.5-1.8-0.8c-0.2-0.3-0.3-0.7-0.7-0.8
		c0,0-0.2,0-0.3,0s-0.2,0.2-0.2,0.2c0.2,0.3,0.3,0.7,0.7,0.8c0,0.2,0,0.3,0,0.5v0.2c0,0,0,0-0.2,0s-0.3-0.2-0.5-0.2l-1.3-1
		c-0.2,0-0.2,0-0.3,0s-0.2,0.2-0.2,0.2v0.2l-0.2,0.2c-0.2,0-0.2,0-0.3,0s-0.2,0-0.3-0.2c0,0-0.2-0.2-0.3,0c-0.2,0-0.2,0.2-0.2,0.2
		c0.2,0.2,0.3,0.3,0.7,0.3c0.3,0,0.5,0,0.8,0c0.2,0,0.3-0.2,0.5-0.3l0.8,0.7c0.2,0,0.5,0.3,1,0.3c0.2,0,0.3,0,0.5-0.2
		c0.2-0.2,0.2-0.2,0.2-0.3c0,0,0,0,0-0.2c0.5,0.3,1,0.5,1.6,0.7c0.3,0,0.8,0.2,1.2,0c0.3,0.2,0.7,0.3,0.8,0.5
		C1068.5,568.2,1068.6,568.2,1068.9,568.2z M1066.5,566.1c0.5,0.2,0.8,0.7,0.8,1c0,0.2,0,0.2,0,0.2c-0.2-0.2-0.5-0.3-0.7-0.5
		C1066.5,566.6,1066.3,566.2,1066.5,566.1z"/>
	<path class="st4" d="M1036.3,562c0,0-0.7,1.8-0.5,3.3s-0.3,4.4-0.3,5.4c0,1,7.7,1.6,9.8,1.5c2.1-0.2,3.3-1,3.3-1s-0.3-7.7-0.5-8.6
		C1047.9,561.9,1036.3,562,1036.3,562z"/>
	<path class="st5" d="M1047.1,569.2C1047.1,569.2,1047,569.2,1047.1,569.2c-0.7-1.2-1.3-2.1-2-3.3c-0.2,0.2,0,0.7,0,1.3
		c0.2,0.7,0.2,1.2,0,1.5c-0.2,0.5-0.7,0-1-0.3c-0.2-0.2-0.3-0.5-0.7-0.7c-0.2-0.3-0.5-0.5-0.7-0.8c-0.5-0.7-1-0.7-1.3-0.3
		c0,0.2-0.2,0.3-0.2,0.7c-0.2,0.5-0.2,1-0.7,0.8c-0.2-0.2-0.5-0.3-0.7-0.7c-0.2-0.2-0.3-0.3-0.5-0.5c-0.3-0.2-0.5,0-0.5,0.5
		c0,0,0,0.2,0,0l-0.2-0.2c0-0.2-0.2-0.3-0.2-0.3c0.2,0.8,0.2,1.3,0,1.8c0,0.2-0.2,0-0.2-0.2s-0.2-0.3-0.2-0.5c0.2-0.5,0-1.2-0.2-2.1
		c0-0.2,0-0.2,0-0.2s0.2,0,0.2,0.2c0.2,0.2,0.2,0.3,0.3,0.5c0-0.5,0.3-0.7,0.7-0.3c0.2,0.2,0.3,0.3,0.5,0.5c0.2,0.2,0.5,0.5,0.5,0.5
		c0.3,0.2,0.5-0.3,0.5-0.8c0-0.2,0.2-0.5,0.2-0.7c0.2-0.5,0.8-0.3,1.5,0.3c0.2,0.2,0.5,0.5,0.7,0.8c0.2,0.2,0.3,0.5,0.5,0.7
		c0.5,0.5,0.7,0.7,0.8,0.3c0-0.2,0-0.8,0-1.3c-0.2-0.7-0.2-1.5,0-1.6c0,0,0.2,0,0.2,0.2c0.7,1.2,1.2,2.1,1.8,3.3
		C1047.1,568.9,1047.1,569,1047.1,569.2z"/>
	<path class="st3" d="M934.2,571.8c0,0-0.7,1.8-0.5,3.3c0.2,1.5-0.3,4.4-0.3,5.4s7.7,1.6,9.8,1.5c2.1-0.2,3.3-1,3.3-1
		s-0.3-7.7-0.5-8.6C945.8,571.7,934.2,571.8,934.2,571.8z"/>
	<path class="st1" d="M936.8,578.8c-0.2,0-0.3,0-0.5-0.2c-0.2-0.2-0.2-0.3-0.2-0.3c-0.2-1,0.3-2,1.2-2.3c0,0,0,0,0.2,0
		c0.2,0.7,0,1.5-0.5,2h-0.2v-0.2c0.3-0.5,0.5-1,0.5-1.6c-0.7,0.3-1,1.2-0.8,2c0,0.2,0,0.2,0.2,0.3c0.2,0.2,0.5,0,0.8-0.2
		c0.3-0.2,0.7-0.5,0.8-0.7c0,0,0,0-0.2-0.2c-0.2-0.2-0.2-0.3-0.2-0.7c0-0.8,0.5-1.6,1.2-2h0.2c0.5,0.3,0.3,1.2,0,1.6
		c-0.2,0.3-0.5,0.8-0.8,1.2c0.2,0.2,0.5,0,0.8,0c0.8-0.2,1.5-0.8,2-1.5c0.2-0.5,0.3-1,0.7-1.5h0.2c0,0,0.2,0.2,0,0.2
		c-0.2,0.5-0.3,1-0.7,1.5c0,0.3,0,0.5,0,0.8c0,0.2,0,0.3,0.2,0.3h0.2c0.2,0,0.5-0.2,0.7-0.3l1.3-1.5h0.2v0.2c0,0.2,0,0.3,0,0.5
		c0,0.2,0.2,0.3,0.3,0.3c0.2,0,0.3,0,0.5,0s0.3-0.2,0.3-0.3c0,0,0.2-0.2,0.2,0c0,0,0.2,0.2,0,0.2c-0.2,0.2-0.3,0.3-0.5,0.5
		c-0.2,0-0.5,0-0.7,0c-0.2-0.2-0.3-0.3-0.5-0.5v-0.2l-1.2,1.2c-0.2,0.2-0.5,0.5-0.8,0.5c-0.2,0-0.3,0-0.3-0.2
		c-0.2-0.2-0.2-0.3-0.2-0.5s0-0.3,0-0.5c-0.5,0.5-1.2,1-1.8,1.2c-0.3,0.2-0.8,0.2-1.2,0c-0.3,0.3-0.7,0.5-1,0.8
		C937.1,578.8,937,578.8,936.8,578.8z M939.3,575.1c-0.7,0.3-1,1-1,1.8c0,0.2,0,0.3,0.2,0.5c0.3-0.3,0.5-0.7,0.8-1.2
		C939.4,576,939.4,575.5,939.3,575.1z"/>
	<path class="st3" d="M916.1,571.2c0,0-0.7,1.8-0.5,3.3c0.2,1.5-0.3,4.4-0.3,5.4c0,1,7.7,1.6,9.8,1.5c2.1-0.2,3.3-1,3.3-1
		s-0.3-7.7-0.5-8.6C927.7,571,916.1,571.2,916.1,571.2z"/>
	<path class="st1" d="M926.2,578.8c0.2,0,0.3,0,0.5-0.2c0.2-0.2,0.2-0.2,0.2-0.3c0.2-0.7-0.3-1.3-1.2-1.5h-0.2c0,0-0.2,0-0.2,0.2
		c-0.2,0.5,0,1,0.5,1.3c0.2,0,0.3,0,0.3,0c0.2,0,0.2-0.2,0-0.2c-0.3-0.2-0.5-0.5-0.5-0.8c0.5,0.2,0.8,0.7,0.7,1c0,0,0,0.2-0.2,0.2
		s-0.5,0-0.7-0.2c-0.3-0.2-0.5-0.2-0.8-0.3c0.2-0.2,0.2-0.3,0.2-0.5c0-0.5-0.5-1-1.3-1.3c-0.2,0-0.2,0-0.3,0
		c-0.7,0.2-0.5,0.7-0.2,1.2c0.2,0.2,0.3,0.3,0.7,0.5c-0.2,0-0.3,0-0.5,0c-0.8-0.2-1.5-0.5-1.8-0.8c-0.2-0.3-0.3-0.7-0.7-0.8
		c0,0-0.2,0-0.3,0c-0.2,0-0.2,0.2-0.2,0.2c0.2,0.3,0.3,0.7,0.7,0.8c0,0.2,0,0.3,0,0.5v0.2c0,0,0,0-0.2,0c-0.2,0-0.3-0.2-0.5-0.2
		l-1.3-1c-0.2,0-0.2,0-0.3,0s-0.2,0.2-0.2,0.2v0.2l-0.2,0.2c-0.2,0-0.2,0-0.3,0c-0.2,0-0.2,0-0.3-0.2c0,0-0.2-0.2-0.3,0
		c-0.2,0-0.2,0.2-0.2,0.2c0.2,0.2,0.3,0.3,0.7,0.3s0.5,0,0.8,0c0.2,0,0.3-0.2,0.5-0.3l0.8,0.7c0.2,0,0.5,0.3,1,0.3
		c0.2,0,0.3,0,0.5-0.2c0.2-0.2,0.2-0.2,0.2-0.3c0,0,0,0,0-0.2c0.5,0.3,1,0.5,1.6,0.7c0.3,0,0.8,0.2,1.2,0c0.3,0.2,0.7,0.3,0.8,0.5
		C925.8,578.6,925.9,578.8,926.2,578.8z M923.8,576.4c0.5,0.2,0.8,0.7,0.8,1c0,0.2,0,0.2,0,0.2c-0.2-0.2-0.5-0.3-0.7-0.5
		C923.8,576.9,923.6,576.6,923.8,576.4z"/>
	<path class="st3" d="M893.6,572.5c0,0-0.7,1.8-0.5,3.3c0.2,1.5-0.3,4.4-0.3,5.4c0,1,7.7,1.6,9.8,1.5c2.1-0.2,3.3-1,3.3-1
		s-0.3-7.7-0.5-8.6C905.2,572.3,893.6,572.5,893.6,572.5z"/>
	<path class="st1" d="M904.4,579.6C904.4,579.6,904.3,579.6,904.4,579.6c-0.7-1.2-1.3-2.1-2-3.3c-0.2,0.2,0,0.7,0,1.3
		c0.2,0.7,0.2,1.2,0,1.5c-0.2,0.5-0.7,0-1-0.3c-0.2-0.2-0.3-0.5-0.7-0.7c-0.2-0.3-0.5-0.5-0.7-0.8c-0.5-0.7-1-0.7-1.3-0.3
		c0,0.2-0.2,0.3-0.2,0.7c-0.2,0.5-0.2,1-0.7,0.8c-0.2-0.2-0.5-0.3-0.7-0.7c-0.2-0.2-0.3-0.3-0.5-0.5c-0.3-0.2-0.5,0-0.5,0.5
		c0,0,0,0.2,0,0l-0.2-0.2c0-0.2-0.2-0.3-0.2-0.3c0.2,0.8,0.2,1.3,0,1.8c0,0.2-0.2,0-0.2-0.2s-0.2-0.3-0.2-0.5c0.2-0.5,0-1.2-0.2-2.1
		c0-0.2,0-0.2,0-0.2s0.2,0,0.2,0.2c0.2,0.2,0.2,0.3,0.3,0.5c0-0.5,0.3-0.7,0.7-0.3c0.2,0.2,0.3,0.3,0.5,0.5c0.2,0.2,0.5,0.5,0.5,0.5
		c0.3,0.2,0.5-0.3,0.5-0.8c0-0.2,0.2-0.5,0.2-0.7c0.2-0.5,0.8-0.3,1.5,0.3c0.2,0.2,0.5,0.5,0.7,0.8c0.2,0.2,0.3,0.5,0.5,0.7
		c0.5,0.5,0.7,0.7,0.8,0.3c0-0.2,0-0.8,0-1.3c-0.2-0.7-0.2-1.5,0-1.6c0,0,0.2,0,0.2,0.2c0.7,1.2,1.2,2.1,1.8,3.3
		C904.4,579.2,904.4,579.4,904.4,579.6z"/>
	<path class="st3" d="M888.9,598.3c0,0-0.7,1.8-0.5,3.3c0.3,1.6-0.3,4.4-0.3,5.4s7.7,1.6,9.8,1.5c2.1-0.2,3.3-1,3.3-1
		s-0.3-7.7-0.5-8.6C900.6,598.1,888.9,598.3,888.9,598.3z"/>
	<path class="st1" d="M891.4,605.3c-0.2,0-0.3,0-0.5-0.2c-0.2-0.2-0.2-0.3-0.2-0.3c-0.2-1,0.3-2,1.2-2.3c0,0,0,0,0.2,0
		c0.2,0.7,0,1.5-0.5,2h-0.2v-0.2c0.3-0.5,0.5-1,0.5-1.6c-0.7,0.3-1,1.2-0.8,2c0,0.2,0,0.2,0.2,0.3c0.2,0.2,0.5,0,0.8-0.2
		c0.3-0.2,0.7-0.5,0.8-0.7c0,0,0,0-0.2-0.2c-0.2-0.2-0.2-0.3-0.2-0.7c0-0.8,0.5-1.6,1.2-2h0.2c0.5,0.3,0.3,1.2,0,1.6
		c-0.2,0.3-0.5,0.8-0.8,1.2c0.2,0.2,0.5,0,0.8,0c0.8-0.2,1.5-0.8,2-1.5c0.2-0.5,0.3-1,0.7-1.5h0.2c0,0,0.2,0.2,0,0.2
		c-0.2,0.5-0.3,1-0.7,1.5c0,0.3,0,0.5,0,0.8c0,0.2,0,0.3,0.2,0.3h0.2c0.2,0,0.5-0.2,0.7-0.3l1.3-1.5h0.2v0.2c0,0.2,0,0.3,0,0.5
		s0.2,0.3,0.3,0.3c0.2,0,0.3,0,0.5,0s0.3-0.2,0.3-0.3c0,0,0.2-0.2,0.2,0c0,0,0.2,0.2,0,0.2c-0.2,0.2-0.3,0.3-0.5,0.5
		c-0.2,0-0.5,0-0.7,0c-0.2-0.2-0.3-0.3-0.5-0.5v-0.2L897,604c-0.2,0.2-0.5,0.5-0.8,0.5c-0.2,0-0.3,0-0.3-0.2
		c-0.2-0.2-0.2-0.3-0.2-0.5s0-0.3,0-0.5c-0.5,0.5-1.2,1-1.8,1.2c-0.3,0.2-0.8,0.2-1.2,0c-0.3,0.3-0.7,0.5-1,0.8
		C891.9,605.1,891.6,605.3,891.4,605.3z M893.9,601.6c-0.7,0.3-1,1-1,1.8c0,0.2,0,0.3,0.2,0.5c0.3-0.3,0.5-0.7,0.8-1.2
		C894.1,602.3,894.2,601.9,893.9,601.6z"/>
	<path class="st3" d="M946.6,596.1c0,0-0.7,1.8-0.5,3.3c0.2,1.5-0.3,4.4-0.3,5.4c0,1,7.7,1.6,9.8,1.5c2.1-0.2,3.3-1,3.3-1
		s-0.3-7.7-0.5-8.6C958.3,596,946.6,596.1,946.6,596.1z"/>
	<path class="st1" d="M956.8,603.6c0.2,0,0.3,0,0.5-0.2c0.2-0.2,0.2-0.2,0.2-0.3c0.2-0.7-0.3-1.3-1.2-1.5h-0.2c0,0-0.2,0-0.2,0.2
		c-0.2,0.5,0,1,0.5,1.3c0.2,0,0.3,0,0.3,0c0.2,0,0.2-0.2,0-0.2c-0.3-0.2-0.5-0.5-0.5-0.8c0.5,0.2,0.8,0.7,0.7,1c0,0,0,0.2-0.2,0.2
		s-0.5,0-0.7-0.2c-0.3-0.2-0.5-0.2-0.8-0.3c0.2-0.2,0.2-0.3,0.2-0.5c0-0.5-0.5-1-1.3-1.3c-0.2,0-0.2,0-0.3,0
		c-0.7,0.2-0.5,0.7-0.2,1.2c0.2,0.2,0.3,0.3,0.7,0.5c-0.2,0-0.3,0-0.5,0c-0.8-0.2-1.5-0.5-1.8-0.8c-0.2-0.3-0.3-0.7-0.7-0.8
		c0,0-0.2,0-0.3,0s-0.2,0.2-0.2,0.2c0.2,0.3,0.3,0.7,0.7,0.8c0,0.2,0,0.3,0,0.5v0.2c-0.2,0-0.3-0.2-0.5-0.2l-1.3-1
		c-0.2,0-0.2,0-0.3,0s-0.2,0.2-0.2,0.2v0.2l-0.2,0.2c-0.2,0-0.2,0-0.3,0c-0.2,0-0.2,0-0.3-0.2c0,0-0.2-0.2-0.3,0
		c-0.2,0-0.2,0.2-0.2,0.2c0.2,0.2,0.3,0.3,0.7,0.3s0.5,0,0.8,0c0.2,0,0.3-0.2,0.5-0.3l0.8,0.7c0.2,0,0.5,0.3,1,0.3
		c0.2,0,0.3,0,0.5-0.2c0.2-0.2,0.2-0.2,0.2-0.3c0,0,0,0,0-0.2c0.5,0.3,1,0.5,1.6,0.7c0.3,0,0.8,0.2,1.2,0c0.3,0.2,0.7,0.3,0.8,0.5
		C956.3,603.5,956.6,603.6,956.8,603.6z M954.3,601.3c0.5,0.2,0.8,0.7,0.8,1c0,0.2,0,0.2,0,0.2c-0.2-0.2-0.5-0.3-0.7-0.5
		C954.3,601.8,954.2,601.5,954.3,601.3z"/>
	<path class="st3" d="M923.2,592.4c0,0-0.7,1.8-0.5,3.3s-0.3,4.4-0.3,5.4c0,1,7.7,1.6,9.8,1.5c2.1-0.2,3.3-1,3.3-1s-0.3-7.7-0.5-8.6
		C934.9,592.3,923.2,592.4,923.2,592.4z"/>
	<path class="st1" d="M934.1,599.5C934.1,599.5,933.9,599.5,934.1,599.5c-0.7-1.2-1.3-2.1-2-3.3c-0.2,0.2,0,0.7,0,1.3
		c0.2,0.7,0.2,1.2,0,1.5c-0.2,0.5-0.7,0-1-0.3c-0.2-0.2-0.3-0.5-0.7-0.7c-0.2-0.3-0.5-0.5-0.7-0.8c-0.5-0.7-1-0.7-1.3-0.3
		c0,0.2-0.2,0.3-0.2,0.7c-0.2,0.5-0.2,1-0.7,0.8c-0.2-0.2-0.5-0.3-0.7-0.7c-0.2-0.2-0.3-0.3-0.5-0.5c-0.3-0.2-0.5,0-0.5,0.5
		c0,0,0,0.2,0,0l-0.2-0.2c0-0.2-0.2-0.3-0.2-0.3c0.2,0.8,0.2,1.3,0,1.8c0,0.2-0.2,0-0.2-0.2c0-0.2-0.2-0.3-0.2-0.5
		c0.2-0.5,0-1.2-0.2-2.1c0-0.2,0-0.2,0-0.2s0.2,0,0.2,0.2c0.2,0.2,0.2,0.3,0.3,0.5c0-0.5,0.3-0.7,0.7-0.3c0.2,0.2,0.3,0.3,0.5,0.5
		c0.2,0.2,0.5,0.5,0.5,0.5c0.3,0.2,0.5-0.3,0.5-0.8c0-0.2,0.2-0.5,0.2-0.7c0.2-0.5,0.8-0.3,1.5,0.3c0.2,0.2,0.5,0.5,0.7,0.8
		c0.2,0.2,0.3,0.5,0.5,0.7c0.5,0.5,0.7,0.7,0.8,0.3c0-0.2,0-0.8,0-1.3c-0.2-0.7-0.2-1.5,0-1.6c0,0,0.2,0,0.2,0.2
		c0.7,1.2,1.2,2.1,1.8,3.3C934.1,599.2,934.1,599.3,934.1,599.5z"/>
	<path class="st3" d="M964,619.6c0,0-0.7,1.8-0.5,3.3c0.3,1.6-0.3,4.4-0.3,5.4c0,1,7.7,1.6,9.8,1.5c2.1-0.2,3.3-1,3.3-1
		s-0.3-7.7-0.5-8.6C975.6,619.4,964,619.6,964,619.6z"/>
	<path class="st1" d="M974.2,627.2c0.2,0,0.3,0,0.5-0.2s0.2-0.2,0.2-0.3c0.2-0.7-0.3-1.3-1.2-1.5h-0.2c0,0-0.2,0-0.2,0.2
		c-0.2,0.5,0,1,0.5,1.3c0.2,0,0.3,0,0.3,0c0.2,0,0.2-0.2,0-0.2c-0.3-0.2-0.5-0.5-0.5-0.8c0.5,0.2,0.8,0.7,0.7,1c0,0,0,0.2-0.2,0.2
		s-0.5,0-0.7-0.2c-0.3-0.2-0.5-0.2-0.8-0.3c0.2-0.2,0.2-0.3,0.2-0.5c0-0.5-0.5-1-1.3-1.3c-0.2,0-0.2,0-0.3,0
		c-0.7,0.2-0.5,0.7-0.2,1.2c0.2,0.2,0.3,0.3,0.7,0.5c-0.2,0-0.3,0-0.5,0c-0.8-0.2-1.5-0.5-1.8-0.8c-0.2-0.3-0.3-0.7-0.7-0.8
		c0,0-0.2,0-0.3,0s-0.2,0.2-0.2,0.2c0.2,0.3,0.3,0.7,0.7,0.8c0,0.2,0,0.3,0,0.5v0.2c0,0,0,0-0.2,0s-0.3-0.2-0.5-0.2l-1.3-1
		c-0.2,0-0.2,0-0.3,0c-0.2,0-0.2,0.2-0.2,0.2v0.2l-0.2,0.2c-0.2,0-0.2,0-0.3,0c-0.2,0-0.2,0-0.3-0.2c0,0-0.2-0.2-0.3,0
		c-0.2,0-0.2,0.2-0.2,0.2c0.2,0.2,0.3,0.3,0.7,0.3c0.3,0,0.5,0,0.8,0c0.2,0,0.3-0.2,0.5-0.3l0.8,0.7c0.2,0,0.5,0.3,1,0.3
		c0.2,0,0.3,0,0.5-0.2c0.2-0.2,0.2-0.2,0.2-0.3c0,0,0,0,0-0.2c0.5,0.3,1,0.5,1.6,0.7c0.3,0,0.8,0.2,1.2,0c0.3,0.2,0.7,0.3,0.8,0.5
		C973.7,627.2,973.8,627.2,974.2,627.2z M971.7,625c0.5,0.2,0.8,0.7,0.8,1c0,0.2,0,0.2,0,0.2c-0.2-0.2-0.5-0.3-0.7-0.5
		C971.7,625.4,971.5,625,971.7,625z"/>
	<path class="st3" d="M945.8,613.1c0,0-0.7,1.8-0.5,3.3c0.3,1.6-0.3,4.4-0.3,5.4c0,1,7.7,1.6,9.8,1.5c2.1-0.2,3.3-1,3.3-1
		s-0.3-7.7-0.5-8.6C957.5,612.9,945.8,613.1,945.8,613.1z"/>
	<path class="st1" d="M956.7,620.3C956.5,620.3,956.5,620.3,956.7,620.3c-0.7-1.2-1.3-2.1-2-3.3c-0.2,0.2,0,0.7,0,1.3
		c0.2,0.7,0.2,1.2,0,1.5c-0.2,0.5-0.7,0-1-0.3c-0.2-0.2-0.3-0.5-0.7-0.7c-0.2-0.3-0.5-0.5-0.7-0.8c-0.5-0.7-1-0.7-1.3-0.3
		c0,0.2-0.2,0.3-0.2,0.7c-0.2,0.5-0.2,1-0.7,0.8c-0.2-0.2-0.5-0.3-0.7-0.7c-0.2-0.2-0.3-0.3-0.5-0.5c-0.3-0.2-0.5,0-0.5,0.5
		c0,0,0,0.2,0,0l-0.2-0.2c0-0.2-0.2-0.3-0.2-0.3c0.2,0.8,0.2,1.3,0,1.8c0,0.2-0.2,0-0.2-0.2s-0.2-0.3-0.2-0.5c0.2-0.5,0-1.2-0.2-2.1
		c0-0.2,0-0.2,0-0.2s0.2,0,0.2,0.2c0.2,0.2,0.2,0.3,0.3,0.5c0-0.5,0.3-0.7,0.7-0.3c0.2,0.2,0.3,0.3,0.5,0.5c0.2,0.2,0.5,0.5,0.5,0.5
		c0.3,0.2,0.5-0.3,0.5-0.8c0-0.2,0.2-0.5,0.2-0.7c0.2-0.5,0.8-0.3,1.5,0.3c0.2,0.2,0.5,0.5,0.7,0.8c0.2,0.2,0.3,0.5,0.5,0.7
		c0.5,0.5,0.7,0.7,0.8,0.3c0-0.2,0-0.8,0-1.3c-0.2-0.7-0.2-1.5,0-1.6c0,0,0.2,0,0.2,0.2c0.7,1.2,1.2,2.1,1.8,3.3
		C956.5,620,956.7,620.2,956.7,620.3z"/>
	<path class="st3" d="M957.5,650c0,0-0.7,1.8-0.5,3.3c0.2,1.5-0.3,4.4-0.3,5.4c0,1,7.7,1.6,9.8,1.5c2-0.2,3.3-1,3.3-1
		s-0.3-7.7-0.5-8.6C969.1,649.8,957.5,650,957.5,650z"/>
	<path class="st1" d="M960.1,656.9c-0.2,0-0.3,0-0.5-0.2c-0.2-0.2-0.2-0.3-0.2-0.3c-0.2-1,0.3-2,1.2-2.3c0,0,0,0,0.2,0
		c0.2,0.7,0,1.5-0.5,2h-0.2v-0.2c0.3-0.5,0.5-1,0.5-1.6c-0.7,0.3-1,1.2-0.8,2c0,0.2,0,0.2,0.2,0.3c0.2,0.2,0.5,0,0.8-0.2
		c0.3-0.2,0.7-0.5,0.8-0.7c0,0,0,0-0.2-0.2c-0.2-0.2-0.2-0.3-0.2-0.7c0-0.8,0.5-1.6,1.2-2h0.2c0.5,0.3,0.3,1.2,0,1.6
		c-0.2,0.3-0.5,0.8-0.8,1.2c0.2,0.2,0.5,0,0.8,0c0.8-0.2,1.5-0.8,2-1.5c0.2-0.5,0.3-1,0.7-1.5h0.2c0,0,0.2,0.2,0,0.2
		c-0.2,0.5-0.3,1-0.7,1.5c0,0.3,0,0.5,0,0.8c0,0.2,0,0.3,0.2,0.3h0.2c0.2,0,0.5-0.2,0.7-0.3l1.3-1.5h0.2v0.2c0,0.2,0,0.3,0,0.5
		s0.2,0.3,0.3,0.3s0.3,0,0.5,0c0.2,0,0.3-0.2,0.3-0.3c0,0,0.2-0.2,0.2,0c0,0,0.2,0.2,0,0.2c-0.2,0.2-0.3,0.3-0.5,0.5
		c-0.2,0-0.5,0-0.7,0c-0.2-0.2-0.3-0.3-0.5-0.5v-0.2l-1.2,1.2c-0.2,0.2-0.5,0.5-0.8,0.5c-0.2,0-0.3,0-0.3-0.2
		c-0.2-0.2-0.2-0.3-0.2-0.5s0-0.3,0-0.5c-0.5,0.5-1.2,1-1.8,1.2c-0.3,0.2-0.8,0.2-1.2,0c-0.3,0.3-0.7,0.5-1,0.8
		C960.6,656.9,960.3,656.9,960.1,656.9z M962.6,653.3c-0.7,0.3-1,1-1,1.8c0,0.2,0,0.3,0.2,0.5c0.3-0.3,0.5-0.7,0.8-1.2
		C962.7,654.1,962.9,653.4,962.6,653.3z"/>
	<path class="st3" d="M1004.3,642.3c0,0-0.7,1.8-0.5,3.3c0.2,1.5-0.3,4.4-0.3,5.4s7.7,1.6,9.8,1.5c2-0.2,3.3-1,3.3-1
		s-0.3-7.7-0.5-8.6C1015.9,642.2,1004.3,642.3,1004.3,642.3z"/>
	<path class="st1" d="M1014.5,649.9c0.2,0,0.3,0,0.5-0.2c0.2-0.2,0.2-0.2,0.2-0.3c0.2-0.7-0.3-1.3-1.2-1.5h-0.2c0,0-0.2,0-0.2,0.2
		c-0.2,0.5,0,1,0.5,1.3c0.2,0,0.3,0,0.3,0c0.2,0,0.2-0.2,0-0.2c-0.3-0.2-0.5-0.5-0.5-0.8c0.5,0.2,0.8,0.7,0.7,1c0,0,0,0.2-0.2,0.2
		c-0.2,0-0.5,0-0.7-0.2c-0.3-0.2-0.5-0.2-0.8-0.3c0.2-0.2,0.2-0.3,0.2-0.5c0-0.5-0.5-1-1.3-1.3c-0.2,0-0.2,0-0.3,0
		c-0.7,0.2-0.5,0.7-0.2,1.2c0.2,0.2,0.3,0.3,0.7,0.5c-0.2,0-0.3,0-0.5,0c-0.8-0.2-1.5-0.5-1.8-0.8c-0.2-0.3-0.3-0.7-0.7-0.8
		c0,0-0.2,0-0.3,0c-0.2,0-0.2,0.2-0.2,0.2c0.2,0.3,0.3,0.7,0.7,0.8c0,0.2,0,0.3,0,0.5v0.2c0,0,0,0-0.2,0c-0.2,0-0.3-0.2-0.5-0.2
		l-1.3-1c-0.2,0-0.2,0-0.3,0c-0.2,0-0.2,0.2-0.2,0.2v0.2l-0.2,0.2c-0.2,0-0.2,0-0.3,0s-0.2,0-0.3-0.2c0,0-0.2-0.2-0.3,0
		c-0.2,0-0.2,0.2-0.2,0.2c0.2,0.2,0.3,0.3,0.7,0.3s0.5,0,0.8,0c0.2,0,0.3-0.2,0.5-0.3l0.8,0.7c0.2,0,0.5,0.3,1,0.3
		c0.2,0,0.3,0,0.5-0.2s0.2-0.2,0.2-0.3c0,0,0,0,0-0.2c0.5,0.3,1,0.5,1.6,0.7c0.3,0,0.8,0.2,1.2,0c0.3,0.2,0.7,0.3,0.8,0.5
		C1014,649.9,1014.2,649.9,1014.5,649.9z M1012,647.8c0.5,0.2,0.8,0.7,0.8,1c0,0.2,0,0.2,0,0.2c-0.2-0.2-0.5-0.3-0.7-0.5
		C1012,648.1,1011.9,647.9,1012,647.8z"/>
	<path class="st3" d="M981.8,643.6c0,0-0.7,1.8-0.5,3.3c0.2,1.5-0.3,4.4-0.3,5.4s7.7,1.6,9.8,1.5c2.1-0.2,3.3-1,3.3-1
		s-0.3-7.7-0.5-8.6C993.5,643.5,981.8,643.6,981.8,643.6z"/>
	<path class="st1" d="M992.7,650.9c-0.7-1.2-1.3-2.1-2-3.3c-0.2,0.2,0,0.7,0,1.3c0.2,0.7,0.2,1.2,0,1.5c-0.2,0.5-0.7,0-1-0.3
		c-0.2-0.2-0.3-0.5-0.7-0.7c-0.2-0.3-0.5-0.5-0.7-0.8c-0.5-0.7-1-0.7-1.3-0.3c0,0.2-0.2,0.3-0.2,0.7c-0.2,0.5-0.2,1-0.7,0.8
		c-0.2-0.2-0.5-0.3-0.7-0.7c-0.2-0.2-0.3-0.3-0.5-0.5c-0.3-0.2-0.5,0-0.5,0.5l-0.2-0.2c0-0.2-0.2-0.3-0.2-0.3c0.2,0.8,0.2,1.3,0,1.8
		c0,0.2-0.2,0-0.2-0.2s-0.2-0.3-0.2-0.5c0.2-0.5,0-1.2-0.2-2.1c0-0.2,0-0.2,0-0.2s0.2,0,0.2,0.2c0.2,0.2,0.2,0.3,0.3,0.5
		c0-0.5,0.3-0.7,0.7-0.3c0.2,0.2,0.3,0.3,0.5,0.5c0.2,0.2,0.5,0.5,0.5,0.5c0.3,0.2,0.5-0.3,0.5-0.8c0-0.2,0.2-0.5,0.2-0.7
		c0.2-0.5,0.8-0.3,1.5,0.3c0.2,0.2,0.5,0.5,0.7,0.8c0.2,0.2,0.3,0.5,0.5,0.7c0.5,0.5,0.7,0.7,0.8,0.3c0-0.2,0-0.8,0-1.3
		c-0.2-0.7-0.2-1.5,0-1.6c0,0,0.2,0,0.2,0.2c0.7,1.2,1.2,2.1,1.8,3.3C992.7,650.6,992.7,650.7,992.7,650.9z"/>
	<path class="st1" d="M1459.4,678.6c-13.9-0.5-28.2-0.5-42.3-0.5c1,0,1.8,0,2.8-0.2c1.2-4.1,1.5-8.4,1.8-12.8c0.2,0,0.3,0,0.5,0h0.2
		V665c0-0.5,0.2-0.8,0.2-1.3c-3.6-0.3-7.1-0.3-10.6-0.3c0,0.5,0,1.2,0,1.6c0.3,0,0.7,0,1,0.2c0,4.1,0.3,8.2,0.8,12.3
		c0,0.2,0,0.3,0.2,0.5c0.2,0.2,0.3,0.2,0.3,0.2c1,0.2,1.8,0.2,2.8,0.2c-3.5,0-7.1,0-10.5,0c1.2-0.2,2.6-0.7,2.6-1.8
		c-6.3,0-12.4,0.5-18.5-0.2c-1-0.2-2.1-0.3-2.6-1c-0.3-0.3-0.5-0.8-0.5-1.3c-0.8-3.8,0.2-7.7,1.2-11.4c1.5-4.9,3.3-9.6,5.3-14.4
		c1.3,6.3,2.6,12.4,4.1,18.7c0.3,1.3,0.8,2.8,2,3.1c0.7,0.2,1.3,0,2.1-0.2c1.6-0.5,1.6-0.5,3.3-0.8c0-5.8-2-11.6-3.1-17.4
		c-4.4-19.7-7.2-33.9-10.3-51.3c-7.9-0.5-5.8,4.6-4.8,10.3c1,6.4,2.1,12.6,3.3,19c0.7,3.5,1.3,6.9,2,10.3c-0.2,0.2-0.2,0.2-0.3,0.3
		c-1.3,2.1-1.6,5.6-2.1,8.1c-1.3,5.3-2.6,10.6-3.6,16.1c-0.7,3.1-1.2,6.1-1.6,9.2c-0.2,1.3-0.3,2.6,0.5,3.6c0.5,0.8,1.5,1.2,2.5,1.3
		c-11.9,0.2-24.1,0.2-35.9,0.2c0.8-0.2,1.5-0.7,2-1.3c0.8-1.2,0.7-2.6,0.5-4.1c-0.5-3.5-1.2-6.9-1.8-10.3c-1.2-6.1-2.5-11.9-4-17.9
		c-0.7-2.6-1-6.6-2.5-8.9c-0.2-0.2-0.2-0.3-0.3-0.5c0.8-4,1.5-7.7,2.3-11.6c1.3-7.1,2.6-14.1,3.8-21.3c1-6.4,3.5-11.9-5.4-11.4
		c-3.6,19.4-6.8,35.2-11.6,57.4c-1.5,6.4-3.6,12.8-3.6,19.4c1.8,0.5,1.8,0.5,3.6,1c0.8,0.2,1.5,0.5,2.3,0.2c1.5-0.5,2-2.1,2.3-3.5
		c1.6-6.9,3.1-13.9,4.6-21c2.1,5.3,4.3,10.6,5.9,16.1c1.3,4.1,2.1,8.6,1.3,12.8c-0.2,0.5-0.3,1.2-0.5,1.5c-0.7,0.8-2,1.2-3,1.2
		c-6.9,0.7-13.8,0.2-20.8,0.2c0,1,1.2,1.6,2.1,1.8c-4.4,0-8.9,0-13.4,0V678c-0.3-1-1-2-2.5-2.6c-1.2-0.5-2.8-0.5-4.3-0.5
		c-1.8,0.2-3.6,0.3-5.1,1c-0.3,0.2-0.8,0.5-1.3,1c-8.7,0.3-17.5,0.5-26.3,0.3c0,0-0.2,1.5,0,1.6l0.2,0.2c-5.3,0.2-10.3,0.2-15.6,0.3
		c0.5,2.1-1.8,4.3-1.3,6.4c2.6,0,5.3,0,7.9,0c0,0,0,0,0,0.2c-0.2,0.8-0.2,1.6,0.2,2.3c0.2,0.3,0.2,0.8,0.5,1.2c0.2,0.3-1,0.7,0,0.8
		c-0.2,0.2,0,0.3,3,0.3c1.2,0,2.5,0,4.1,0c-1.2,2-1.2,4.3-1,6.6c0.3,16.4,0.3,32.8,0.3,49.2c0,7.9-1.2,42.3-0.2,50.1
		c3,0.3,5.3,0.3,7.9-0.2c0.5-1,0.8-2.1,0.8-3.5c-1-25.8,2.8-75.6,0.3-102.4c0,0,0,0,0.2,0c6.3,0,12.9,0,17,0c8.2,0,16.4,0,24.8,0
		c37.9,0,69.2,0,107.2,0c2,0,6.1,0,10.1,0c0,15.1,0,30.1,0,45.1c0,7.7,0,15.4,0,23.1c0,3-1.3,32.9,0,35.6c1,2,7.1,2.3,7.1,2.1
		c-1.3-7.4,0.7-39.4,1.5-46.9c1.2-10.5-0.3-21.2-0.7-31.6c-0.3-9.2,0.2-18.5,1.3-27.7c1,0,1.8,0,2.3,0c1,0,1.8,0,2.3-0.2
		c2.1-0.2,0.8-0.7,1-0.8h-0.2h-0.2c0.2-0.3-0.3-0.8-0.2-1c0.2-0.5,0.3-1,0.3-1.6c0-0.7-0.2-1.2-0.5-1.8c1.5,0,3,0,4.4,0
		C1460.7,682.8,1460.6,680.7,1459.4,678.6z"/>
	<path class="st1" d="M1148.1,622.9c-0.8-0.7-1.3-1.9-0.8-2.9c0.2-0.5,0.7-0.7,0.7-1.2c0.2-0.7-0.5-1.2-0.8-1.9
		c-0.3-0.5-0.3-1.6,0.3-1.7c0.7,1.3,1.6,2.4,2.6,3.4c0.3,0.3,0.5,0.5,1,0.5c0.7,0,1-0.5,1.6-0.8c0.5-0.3,1.3-0.3,1.6,0.3
		c-1.6,3.2-0.3,7.8,0.2,11.2c0.3,2.6,0.7,5.1,0.8,7.5c0.3,0,0.8,0,1.2,0c0.7,0,1.3,0,1.7,0.7c0.3,0.7-0.3,1.3-0.8,2.1
		c-1.7,1.9-1.3,4.9-0.8,7.5c0.2,0.7,0.3,1.6,1,1.9c1,0.3,1.9-0.8,2.2-1.9c1.2-3.4,2.6-6.9,3.7-10.4c0.5-1.6,1-3,2.1-4.2
		c0.7-0.8,1.3-1.3,2.2-1.7c0.2-0.8,0.2-1.7,0.7-2.4c0.3-0.7,1-1.2,1.9-1.7c1.6-1,3.2-1.6,5.1-2.1c0.2-0.2,0.2-0.2,0.3-0.3
		c0.3-0.3,0.8-0.7,1.2-0.8c0.5-0.2,1-0.2,1.3,0.3c0,0,0,0,0,0.2c0.2,0,0.2,0,0.3,0c1.3-0.3,2.6-0.5,3.9-0.7c1.9-0.5,3.7-1,5.8-1.3
		c0.2,0.2,0.2,0.3,0.3,0.7c0.5,0,1-0.2,1.6-0.2c0.3,0,0.7,0,1,0.2c0.3,0.2,0.3,0.7,0.5,1c0.3,1.3,0.5,2.7,0.7,4
		c0.3-0.3,0.8-0.7,1.3-0.8s0.8,0,1.3,0.2c3.7,1,4.9,3.2,5.3,6.6c0.3,3.9,0.8,7.8,1.7,11.5c0.5,2.2,1,4.4,0.8,6.8
		c0,1.7-0.3,3.4-0.7,5.1c-0.5,2.2-0.8,4.6-2.4,6.4c1.2,4.4,2.4,9,3,13.6c0.2,1,0.2,2.2-0.3,3.2c-0.5,0.7-1.2,1.2-1.9,1.7
		c-0.2,0.2-0.3,0.2-0.5,0.3c0.8,0.7,1,1.9,1.3,2.9c0.7,3.5,1.3,7.2,2.1,10.9c0.3,1.7,0.7,3.5,0.3,5.3c0.2,1,0.2,2.1,0.2,2.9
		c-0.3,13.9-0.8,27.7-1.7,41.7c-0.7,12.7-3.5,21.5-4.6,34.3c-0.3,4.9-0.7,4-1.7,13.2c0,0.7,0,0.3-0.3,0.7c-0.2-0.2-0.3-0.2-0.7-0.2
		c0.3,0.2,0.7,0.5,0.8,0.8c0.5,1.3-0.3,3-0.5,4.4c-0.7,3.7-0.3,7.5-0.2,11.2c-0.5,0-1.2,0-1.7-0.2c0.3-1.3,0.3-2.7,0.2-4.2
		c-0.7-0.2-1.2,0.3-1.3,1c-0.2,0.7,0,1.2,0.2,1.9c0,0.7,0,1.3-0.7,1.7c-0.3,0.2-0.8,0.2-1.2,0.2c-2.7-0.2-5.4-0.3-8.2-0.2
		c-0.2,0-0.3,0-0.5-0.2c0-0.2,0-0.2,0-0.3c0-0.7,0.2-1.6,0.2-2.2c0-0.2,0-0.5,0.2-0.7s0.5-0.3,0.7-0.3c2.6-0.7,4.9-2.1,6.1-4.2
		c0.7-1.3,0.8-3,1.2-4.8c0.2-0.8,0.5-1.9,0.7-2.7c0.5-1.2,0.5-1.7,1.7-1.7c-0.2-0.7-0.3-1.6-0.3-2.2c-1.7-24.9-3.5-42-8.5-66.6
		c-0.2-0.7-0.3-1.3-0.3-2.1c-0.3,1.3-0.7,2.9-1,4.2c-3,12.8-6.1,25.9-9,38.8c-1,4.6-2.2,9.3-3,13.9c-1.2,6.6-3,7.2-4.6,13.9
		c-0.2,0-0.3,0-0.3,0c0,4.8,0,9.5,0.3,14.2c-0.3-0.2-0.5-0.2-0.8,0c-0.3-1.3-0.7-2.7-0.8-4.2c-0.5,1.2-1,2.4-1.7,3.5
		c-0.2,0.3-0.3,0.7-0.5,0.8c-0.5,0.5-1.2,0.7-1.7,0.8c-2.7,0.8-5.4,1.7-8.3,2.4c-1,0.2-2.2,0.3-2.9-0.3c-0.3-0.3-0.8-1.3-0.5-2.1
		c0.3-0.5,0.8-0.5,1.6-0.5c1.7-0.2,3.4-0.5,4.9-1.2c2.1-0.8,3.9-2.4,4.6-4.4c0.3-1,0.5-2.1,0.7-3c0.3-2.1,0.7-4.2,1-6.3
		c0-0.3,0.2-0.5,0.3-0.7c0.2-0.2,0.5-0.3,0.8-0.5c0.2,0,0.3,0,0.3,0c1-9.8,1.7-15.1,2.2-25.6c0.5-9.5,1-19.1,1.3-28.7
		c0.3-8.5,0.8-17.1,1.2-25.6c0.2-1.9,0.2-4,0.3-6.1c0-0.2,0-0.2,0-0.3c-0.3-4.8-0.5-9.6-1-14.6c0-0.3,0-0.8,0-1.2
		c-0.5,0-0.8,0.2-1.3,0.2c-4.2,1-4-3.2-3.9-6.3c-0.7,0.3-1.3,0.7-2.1,1c-0.7,0.3-1.3,0.8-2.1,1c-0.7,0.2-1.6,0-2.1-0.5
		c-0.5-0.7-0.3-1.7-0.2-2.6c0.3-1.7,1.2-3.5,2.9-3.7c0.8,0,1.7,0.5,2.6,0.7c0.3,0.2,0.7,0.2,1,0.2c0.2-3.9,0.3-8,0.5-11.9
		c0.2-4.9,0.3-9.8,1.2-14.7c0-0.3,0.2-0.7,0.2-1c-0.8,1-1.7,2.2-2.6,3.2c-1.7,2.4-3.9,4.9-6.8,4.8c-0.3,0-0.7,0-0.8-0.3
		c-0.3-0.3-2.2-1.3-2.2-1.7c-0.2-4.4-0.3-8.3-0.7-12.7c0-1.3,0.5-2.9-0.2-4c-0.5-1.2-0.7-1.7-1.9-1.3c-0.3-0.5,0-1.6,0.5-1.9
		c0.7-0.3,1.3-0.3,2.1-0.3c0.2,0,0.3,0,0.5,0c0.2-2.4,0.3-4.9,0.5-7.2c0.2-1.9,0.3-3.9-0.8-5.4C1150,624,1149,623.5,1148.1,622.9z"
		/>
	<path class="st1" d="M1150.8,686.6v-0.2c0-0.2,0.2-0.3,0.2-0.3s0,0,0-0.2h0.2c0,0,0,0,0.2,0v-0.2c0.5-2.2,1.6-4,2.2-6.1
		c0.8-2.2,1.2-4.4,2.1-6.6c0,0,0-0.2,0.2-0.2c0,0,0.2,0,0.3,0c0.3,0,0.8,0.2,1.2,0.3c0.2,0,0.2,0.2,0.2,0.2v0.2
		c-0.3,1-0.7,2.2-1,3.2c-0.7,2.1-1.3,3.9-1.9,5.9c-0.3,1-0.7,2.1-1,2.9c0,0.2-0.2,0.7-0.3,1h0.2c0.2,0.2,0,0.5,0,0.7
		c-0.2,0.2-0.3,0.2-0.5,0.2h-0.2c-0.2,0.2-0.3,0.5-0.5,0.7c-0.2,0.2-0.5,0.5-0.5,0.7c0,0,0,0.2-0.2,0.2h-0.2c-0.2,0-0.3-0.2-0.3-0.2
		s0-0.2,0.2-0.2v-0.2c0-0.2,0-0.3,0-0.5c0-0.3,0-0.7,0.2-1C1151.1,687,1151,686.8,1150.8,686.6
		C1150.8,686.8,1150.8,686.8,1150.8,686.6z"/>
	<path class="st1" d="M1199,599.7c0.5,1.6,0.5,3.4,0.3,5.1c-0.3,2.6-1.6,4.8-2.7,6.9c-1.2,2.2-2.6,4.4-4.2,6.1c-1.9,1.7-4,3-6.6,3.2
		c0,0,0,0,0-0.2c-3.4,1.2-7.2,1-10.4-1c-2.7-1.7-4.4-4.6-5.1-7.7c0-0.3-0.2-0.7-0.2-1c0,0.3,0,0.7,0,1c-2.1-2.6-2.6-7.7-2.7-10.9
		c-0.2-3,0.2-6.4,1.9-9c1-1.3,2.4-2.6,3.9-3.4c3.4-2.1,7.5-3.2,11.4-3c1.3,0,2.7,0.3,4,0.7c0.2-1.7,1-3.2,2.6-4.2
		c1.9-1.2,4.2-1.6,6.4-1.2c2.2,0.3,4.2,1.2,5.6,2.9c1,1.3,1.3,2.9,1.6,4.4c0.2,1.9,0,3.7-0.8,5.4c-1,2.1-3,3.2-5.3,3.5
		C1199,598.4,1199,599,1199,599.7z M1170,607.3c0-1,0.2-1.9,0.3-2.9c0,0.2,0,0.2,0,0.3C1170,605.4,1170,606.3,1170,607.3z"/>
	<path class="st1" d="M1197.3,635.7c0.2-0.3,0.5-0.5,0.8-0.8c1.2-0.7,2.6-1,3.7-0.5c0.8,0.3,1.6,1.2,2.2,1.9
		c0.3,0.3,0.5,0.7,0.7,1.2c0,0.5-0.2,1-0.3,1.6c-0.2,0.5-0.2,1.2,0.2,1.6c0.2,0.2,0.5,0.3,0.7,0.5c0.3,0.3,0.2,0.8-0.2,1.2
		c-0.7,1-2.1,1.9-2.4,3c-0.2,0.3-0.2,0.8,0,1.2c0,0.2,0,0.3,0,0.5h0.2c0.2,0,0.3,0.3,0.3,0.5c1,3.9,0.3,8.2,1.2,12.2
		c0.2,0.5,0.3,1,0.8,0.8c2.1-7.7,4.2-15.4,6.8-22.9c0.5-1.6,1-3.2,2.4-4.4c0.5-0.3,0.8-0.7,1.2-0.8c0-1.2,0-2.2-0.2-3.4
		c1.2-0.8,2.6-1.3,4-1.6c-1.7-6.6-0.8-13.9,0-18.3c0.5-3.4,1.7-6.6,3.5-9.3c1.9-2.7,4.8-4.9,8.2-5.8c1.5-0.3,3.2-0.5,4.8-0.5
		c1.2,0,2.7,0.2,3.5,1c1.6-0.5,3.4,0,4.8,1c1.3,1.2,2.2,2.7,3,4.2c1.2,2.6,2.2,5.1,2.9,7.8c0.8,4.2,0.7,8.6-0.3,12.8
		c-0.3,1.6-0.8,3-1.7,4.2c-0.8,1.3-2.1,2.6-3.4,3.5c0.7,0.2,1.2,0.5,1.9,1c-0.2,1-0.2,1.9-0.2,2.9c3.5,1.3,7.2,2.7,10.9,4
		c0.5,0.2,1,0.3,1.2,0.8c0.3,0.7,0,1.6-0.3,2.1c-2.7,4.4-5.1,8.8-7.5,13.4c0.2,0.3,0.5,0.8,0.5,1.2c0.2,0.8,0.2,1.9,0,2.7
		c2.4,6.9,4.9,13.9,5.6,21.7c1.6,14.4,3.2,20.7,2.7,35.2c-0.3,9.3-1,20-1.7,30.8c-0.7,0-1.2,0-1.9,0c-0.2,2.4-0.5,4.8-1,7.2
		c-3.2,16.1-12.5,30.3-15.7,46.4c0,0.2,0,0.3-0.2,0.5c0.3,0.5,0.7,1,1,1.6c1,1.6,2.6,2.9,4.2,3.7c0.5,0.3,1.2,0.5,1.7,1
		c0.7,0.8,0.3,2.1-0.3,2.7s-1.7,1-2.7,1c-1,0-2.1,0-3,0c-0.2,0-0.5,0-0.7,0s-0.3-0.2-0.5-0.3c-0.5-0.5-1.2-1-1.7-1.6
		c-1.2-1-2.2-2.1-2.9-3.2c-1-1.9-0.8-4-0.8-6.1c0,0,0.2-0.2,0.7-0.2c0.7-5.6,0-11.4-0.5-17c-0.8-6.9-0.7-24.5-1.2-36.1
		c-0.3,0-0.7,0-1,0c-1.7,0-3.4-0.2-5.3-0.3c-0.7,3.4-1.2,6.8-1.6,10.1c-1.2,9.5-3.7,34.7-4,45.5c0.3,0.2,0.7,0.2,1,0.3
		c-0.3,1.3-0.7,2.7-1,4c0,0.3-0.2,0.5-0.3,0.7c-0.2,0.2-0.5,0.2-0.8,0.2c-4.8,0.2-9.3,0-14.1-0.5c0-1.2,0-2.7,1-3.5
		c0.7-0.7,1.7-0.7,2.7-0.8c1.3-0.2,2.9-0.2,4.2-0.3c0.7,0,1.2-0.2,1.7-0.5c0.2-0.2,0.3-0.3,0.5-0.5c0.5,0,0.8,0,1.3,0
		c0.2,0,0.2,0,0.3,0c-3.2-9.1-5.9-18.4-8.3-27.7c-1.3-5.1-2.6-10.4-3.4-15.6c-0.7-4.4-1-8.8-1.3-13.2c-0.2,0-0.5,0-0.7,0
		c-1.3-13.4-3.7-25.6-2.9-39.4c0.3-6.6,2.9-18.3,3.7-24.9c0.2-1.7,0.5-3.4,1-5.1c-0.3-0.2-0.7-0.3-1-0.5c-1.7-1-3-2.4-4.2-3.9
		c-0.3-0.3-0.7-0.8-0.8-1.3s-0.2-1.2-0.2-1.7c0-3.9,0-8-0.2-11.9c0-1.9,0-3.5-0.3-5.4c0.2,0,0.5,0,0.7,0c-1-3.7-1.2-7.7-1.2-11.5
		C1197.1,636.3,1197.1,635.9,1197.3,635.7z M1244.3,619.8c-0.3,0.5-0.5,0.8-0.8,1.3c-2.1,3-4.8,6.3-8.5,7.1c-4.6,1-9.3-1.7-11.5-5.8
		c0.5,2.2,1,5.1,0.7,7.7c5.4,1,11,0.8,16.5-0.3c0-0.5,0-1,0-1.6c0.3,0,0.8,0,1.2,0C1243.2,625.6,1244,622.7,1244.3,619.8z"/>
	<path class="st1" d="M1283.5,601.6c0,0.8,0,1.7,0,2.6c-0.2,4.8-2.4,12.5-8.6,13.8c-1.2,0.2-2.4,0.2-3.4-0.2
		c-4.9-1.2-9-6.4-9.6-10.5c-0.2-1-0.3-2.2-0.5-3.5c-0.3,0.2-0.8-0.2-1-0.5c-0.2-0.3-0.2-0.8-0.2-1.3c0.2-3.4,0.3-6.9,1.6-10.1
		c1.2-3.2,3.5-6.3,6.9-7.1c0.3-0.2,0.8-0.2,1.2-0.2c-0.3,0-0.5,0-0.8-0.2c-1.2-0.2-2.2-0.5-3.2-1c-1-0.7-1.7-1.7-1.7-2.7
		c0-1,0.7-2.1,1.3-2.7c2.1-1.9,4.8-2.7,7.7-2.7c1.6,0,3.2,0.3,4.6,1.2c1.3,0.8,2.6,2.2,2.7,3.7c0.3,1.6-0.5,3.4-1.9,4
		c-1,0.5-2.1,0.7-3.2,0.5c3.7,1.2,6.9,3.7,8.3,7.2c0.8,2.4,1.3,5.8,0.7,8.3C1283.9,601.1,1283.7,601.4,1283.5,601.6z"/>
	<path class="st1" d="M1253.3,691.8c-0.2,0-0.5,0.2-0.8,0c-2.6-0.2-6.4-0.3-8.5-2.2c-2.4-2.2,0.5-6.3,1.3-8.5
		c2.2-5.6,4.9-11.4,6.6-17.1c0-1.6,0.2-2.9,0.2-4.4c-1.6-0.2-2.9-1-3.9-2.2c-1.2-1.7-1.3-3.9-0.5-5.6c0.8-1.7,2.6-2.9,4.4-3
		c-0.3-7.2-0.3-14.6,0-22c1.3-0.2,2.9-0.3,4.2-0.5c0.5-1.6,1.2-3,2.2-4.6c0.5-0.8,1.2-1.7,2.2-2.2c1-0.5,1.3-1.3,2.2-0.8
		c1.2,0.7,2.4,1.2,3.7,1.6c1.3,0.5,2.9,0.7,4.4,0.8c0,0.2-0.2,0.5-0.2,0.7c0.7,0,1.6,0,2.2-0.2c0-0.2,0-0.3,0-0.5
		c3.4-0.2,6.8-1,9.3-2.7c2.9,0.8,5.3,2.7,6.6,4.8c0.7,0.2,1.2,0.5,1.7,0.8c1.9,1.6,2.7,4,3.5,6.4c1.7,5.3,3.2,10.7,4.9,15.9
		c0.5,1.6,0.8,3,1,4.6c0,0.3,0,0.5-0.2,0.7c-0.3,0.7-1,0.8-1.7,1c-1.6,0.3-3,0.8-4.8,1.2c-0.2,0-0.3,0-0.3,0.2
		c0.3,3.4,0.5,6.6,0.8,10c1,2.2,2.4,4.2,3.5,6.4c1.9,3.2,3.5,6.4,5.4,9.6c1.3,2.6,4.8,6.8,1,9.1c-1.5,1-3.7,1.2-5.4,1.6
		c-0.8,0.2-1.5,0.2-2.4,0.3c4.6,14.6,8.2,29.3,9.1,44.5c0,0.5,0,0.8-0.2,1.3c-0.2,0.3-0.5,0.7-0.8,1c-2.9,2.6-6.6,3.4-10.4,3.7
		c0,2.2,0,4.2,0.2,6.3c0.7,14.6,0.8,29.1,1.7,43.7c0.2,0,0.2,0,0.3,0c1.3,0.3,1.3,1.3,1.3,2.6c0.3,4,0.3,8.2,0.5,12.2
		c0,0.3,0,0.7-0.2,0.8c-0.2,0.2-0.3,0.2-0.7,0.2c-1.2,0.2-2.4,0.2-3.5,0c0.2-1,0.2-1.9-0.2-2.9c-0.5-0.2-1.2,0-1.7,0.2
		c0,0.7,0,1.3,0,2.2c0,0.2,0,0.3-0.2,0.5c-0.2,0.2-0.3,0.2-0.3,0.2c-3.2,0-6.4,0-9.6-0.3c-0.2-1.2-0.2-2.2,0-3.4s0.7-2.4,1.7-2.9
		c1-0.5,2.2-0.2,3.4,0c1.2,0.2,2.6,0.2,3-0.8c0.5-0.7,0.2-1.7,0-2.6c-0.3-1.6-0.5-3-0.5-4.6c0-0.2,0-0.5,0.2-0.7
		c0.2-0.3,0.5-0.3,0.8-0.3c0.2,0,0.3,0,0.5,0c-2.9-16.5-4.6-33-7.1-49.7c-4.4,0.2-9,0.2-13.4-0.2c-0.5,2.2-1,4.4-1,6.4
		c-0.5,14.4,0.3,29.1,0.3,43.7c0.2,0.3,0.3,0.5,0.3,1c0.3,1.9,0.2,4.2,0.2,6.1c0,2.2,0,4.6,0.2,6.8c0,0.5,0,0.8-0.2,1.2
		c-0.2,0.3-0.5,0.3-0.8,0.3c-1.2,0.2-2.6,0.2-3.7-0.2c0.2-0.8,0.2-2.1-0.5-2.6c-0.7-0.5-1.6-0.3-1.7,0.7c0,0.7,0.2,1.3-0.2,1.7
		c-0.2,0-0.2,0-0.3,0c-1.6-0.2-2.9-0.2-4.4-0.3c-0.3,0-0.5,0-0.8-0.2c-0.8-0.5-0.8-1.9-0.7-3c0-0.8,0.2-1.7,0.7-2.2
		c0.8-0.8,2.2,0.2,3-0.7c0.7-0.5,0.7-1.7,0.7-2.7c0-1.3,0-2.9,0-4.2c0-0.5,0-1.2,0.3-1.7c0.3-0.5,0.8-0.7,1.5-0.7c0.2,0,0.2,0,0.3,0
		c-0.5-6.3-1.2-12.5-1.7-18.8c-0.8-8.3-0.8-17.1-2.7-25.1c-0.5-2.2-0.5-4.4-0.3-6.6c-2.1-0.3-3.9-0.7-5.9-1c-0.3,0-0.5-0.2-0.7-0.3
		c-0.2-0.2-0.3-0.5-0.3-0.7c-1.3-4-0.7-8.5,0-12.5c1.3-9,2.4-17.8,3.2-26.8c0.2-2.6,0.2-5.4,0.2-8.2c-0.3,0.2-0.5,0.2-0.8,0.2
		C1253.9,691.8,1253.5,691.8,1253.3,691.8z M1292.7,648.5c0-0.2,0-0.2-0.2-0.3C1292.7,648.3,1292.7,648.5,1292.7,648.5z"/>
	<path class="st1" d="M1429.3,697.1c-30.9-1.3-3.9,0.3-34.6-0.3c-16.6-0.3-33.1,0.6-49.7,0.9c0.3,2-1.3,4-0.9,6c2.4,0,4.6,0,6.8,0
		c-0.2,1.5-0.2,3.9-0.5,8.1c-0.6,9.3-0.6,18.8-0.6,28c-0.2,9.3,0,18.8,0.2,28c0,4.5,0.2,9,0.3,13.5c0.2,3.1-0.7,6.9,0,9.9
		c-0.2,1.5,0,3.1,2.1,3.9c1.8,0.7,4.9,1.1,8.2,1.1c0.2,0,0.3,0,0.4,0h0.2c4.5,0,9.3-0.3,12.3-0.3c6,0,11.9,0,17.8,0
		c27.3,0-9.3,0,18,0c3,0,13,0,15.6-1.3c0.7-0.3,1.3-0.9,1.6-1.5c1.5-2.9,0.6-7.2,0.7-10.2h-0.2h-0.2c0.2-4.4-0.3-9-0.2-12.6
		c0.2-6.3,0.2-12.4,0.2-18.8c0-7.3-0.2-14.8-0.3-22.2c-0.2-6.6,0.7-16.3,1.1-23.5c0-1.5,0.2-2.2-0.2-2.7c0.7,0,1.5,0,2.4,0
		C1430.2,701.1,1430.1,699.2,1429.3,697.1z"/>
	<path class="st1" d="M820.8,598.9c1.1,0.6,0.9,1.2,1.2,0.2c0.2-0.3,0-0.7,0-0.9V598c0.2,0.3,0.6,0.9,0.9,1.2
		c1.6,2.6,3.8,4.9,6.5,6.1c2.9,1.2,6.3,1.1,9-0.3c2.7-1.4,4.9-4,5.4-6.8c0.3-1.2,0.3-2.6,0.3-3.8c0.2-4,2.3-15.1-1.2-18
		c3.2-0.7,6.5-2,8.5-4.7c2-2.6,2-6.5-0.3-8.6c0,1.2-0.7,2.3-1.8,3s-3.8,0.2-5,0.3c-4,0.3-8.1,0-12-0.3c-4-0.3-8.1-0.6-11.9,0.6
		c-3.8,1.1-6.1,4.1-7.7,7.7c-0.9,2.1-0.9,4.5-0.9,6.7c0,3.4,2,6.5,3,9.7C815.3,593.9,817.6,597.1,820.8,598.9z"/>
	<path class="st1" d="M880.1,805.1c-1.2-1.1-2.9-1.1-4.5-1.2c-2.3-0.2-4.7-0.3-7-0.6c-1.1,0-2-0.2-2.9-0.7c-0.3-0.2-0.6-0.6-0.7-0.9
		c-0.2,0-0.2,0-0.3,0c-1.8-11.5-3-21.7-4.3-33.4c-1.2-11-2.6-21.9-4-33.1c-1.1-9.9-2.3-19.6-3.4-29.5c-0.6-3.8-0.7-8.5-2-12.4
		c0.3-0.2,0.7-0.3,1.1-0.7c0.6-0.6,0.6-1.4,0.3-2.1c-0.6-9.9-1.2-22.3-1.8-32.9c3.6-0.6,7.2-1.6,10.8-3c0.2-0.2,0.6-0.2,0.7-0.6
		c0.2-0.2,0.2-0.6,0.2-0.9c0-1.6-0.3-3.2-0.7-4.9c-0.3-1.4-0.6-3-0.9-4.5c0.6-1.2,0-2.9-0.7-4.3c-0.9-7.6-1.4-15.3-2.6-22.8
		c-0.2-0.9-0.3-2-1.1-2.1c-0.3-0.2-0.7-0.2-1.1-0.2c-2.6,0.2-4.9,0.6-7.4,1.1c-0.6-1.1-1.1-2-1.4-3c-0.6-1.1-1.1-2.3-2.1-3
		c-0.2-0.2-0.6-0.3-0.9-0.6c-0.7-0.9-1.6-1.4-2.7-1.8c-1.1-0.3-2.3-0.2-3.6,0c-6.7,0.9-14.9,2.1-20.8,5.2c-1.8,0.9-2.9,2.6-3.4,4.1
		c-0.9,1.2-1.6,2.7-2.3,4.1c-2.7,6.5-5,12.9-6.8,19.6c-0.7,3-2.7,7.4-2.3,10.5c0,0.3,0.2,0.7,0.3,1.1c0,0.2,0,0.3,0,0.6
		c0.2,0.6,0.6,0.9,1.1,1.2c1.1,1.1,2.6,2.3,4,2.7c-0.9,5.8-1.6,11.4-1.8,16.6c-0.2,7-0.2,14.2,0.9,21.2c0.2,0.9,0.3,1.8,1.1,2.1
		c0.6,0.3,1.1,0.3,1.6,0.3c0,0.3,0,0.9,0,1.2c0.3,16,1.1,32,2,48.2c0.9,14.7,3.2,29.3,4.5,44.1c0.6,5.8,0.9,6.1,1.2,13.5
		c0,0.9,0.9,1.2,1.2,1.8h0.2c0.7,2.6,2,4.9,2.9,6.5s2.1,3.2,3.8,4c1.1,0.6,2.3,0.6,3.6,0.6c2.1,0,4.3-0.3,6.5-0.9
		c0.3-0.2,0.9-0.3,1.1-0.7c0-0.2,0-0.3,0-0.6c-0.3-1.8-1.6-3.2-2.9-4.7c-1.8-2.3-3.2-4.9-4.5-7.6c-0.3-0.9-1.1-2-2-2.7
		c1.8-27.7,1.1-50.1,6.7-77.6c0.3-1.4,0.6-2.9,0.9-4.5c0.7,2.1,1.2,4.1,2,6.3c4.7,14.9,6.8,29.3,11.5,44.2
		c1.6,5.4,3.6,10.5,4.9,15.8c1.8,7.2,1.6,12.9,3.6,19.8c-0.3,0.2-0.7,0.2-1.1,0.3c0.6,2.1,1.1,4.3,1.6,6.5c0.2,0.3,0.2,0.9,0.6,1.2
		c0.3,0.3,0.9,0.3,1.2,0.3c7.7,0.2,15.5,0,23.2-0.7C881.7,808.6,881.7,806.3,880.1,805.1z"/>
	<path class="st0" d="M1048.9,651.5c0.5,1.3,1.2,2.5,1.6,3.8c2.5,5.9,4.1,11.9,6.6,17.9c0.2,0.3,0.2,0.5,0.5,0.8
		c0.3,0.3,0.8,0.3,1.3,0.2c1-0.2,2.1-0.7,3.1-1c4-1.5,7.7-3,11.4-4.6c0.5-0.2,1.2-0.5,1.3-1c0.3-0.5,0.3-1.2,0.2-1.8
		c-0.5-3-1.8-5.8-2.8-8.7c-1.8-5.1-2.6-10.5-4.6-15.6c-0.2-0.3-0.3-0.7-0.7-0.8c-0.2-0.2-0.5-0.2-0.8-0.2c-1.5,0.2-3,0.5-4.4,1
		c-3.8,1.2-7.6,2.3-11.4,3.6c-1,0.3-2.6,0.7-3,2C1047,648.7,1048.9,650,1048.9,651.5z"/>
	<path class="st6" d="M1091.4,797.9c2.6-0.2,5.3-0.2,7.7,0.3c2,1.5,4.1,2.6,6.4,3.6c0.7,0.3,1.3,0.5,1.8,1c0.5,0.5,0.7,1.5,0.2,2
		c-0.3,0.5-1.2,0.5-1.8,0.5c-4.8,0-9.5-0.3-14.2-1.2c-0.3,0-0.7-0.2-0.8-0.3c-0.2-0.2-0.2-0.3-0.3-0.7
		C1090.1,801.5,1090.4,799.5,1091.4,797.9z"/>
	<path class="st6" d="M1082.9,799.2c-2.6-0.2-5.3-0.2-7.7,0.3c-2,1.5-4.1,2.6-6.4,3.6c-0.7,0.3-1.3,0.5-1.8,1
		c-0.5,0.5-0.7,1.5-0.2,2c0.3,0.5,1.2,0.5,1.8,0.5c4.8,0,9.5-0.3,14.2-1.2c0.3,0,0.7-0.2,0.8-0.3c0.2-0.2,0.2-0.3,0.3-0.7
		C1084.2,802.8,1083.8,800.8,1082.9,799.2z"/>
	<path class="st6" d="M1072.2,752c-0.7-14.2-1-28.3-1-42.7c-0.5-4.9,0.3-10,2-14.6c0.2-0.3,0.2-0.7,0.5-0.8c0.7-0.7,1.8-0.3,2.6,0
		c8.4,3.5,18.4,2.6,26.1-2.3c1.5,2.3,2,5.1,2.3,7.9c0.7,4.4,1.3,8.9,1.5,13.3c0,1,0,2,0,3c-0.2,5.6-1.2,11-2,16.6
		c-0.5,3.6-1,7.2-1.2,10.8c0,3,0.3,5.8-0.3,8.6c-1.6,7.2-1.6,14.9-2.3,22.2c-0.8,7.9-1.5,15.6-2.1,23.5c0,0.3,0,0.7,0,1
		c-0.3,0.2-6.4,1.5-6.4,0c-0.5-15.2-1-30.3-1.5-45.6c-0.2-6.4-0.5-12.8-2-19c-5.4,0.5-4.4,18.2-4.8,22.6c-0.7,14.2-1.3,28.5-2,42.8
		c-2,0-4.1,0-6.1,0c-1.2-3.3-1.3-6.9-1.6-10.3C1073.3,776.5,1072.7,764.3,1072.2,752z"/>
	<path class="st7" d="M1096.6,628.3c-7.2,0.5-14.1,2-20.7-1.8c-14.7,16.9-7.6,15.7-9.2,32.3c-0.3,3.5,4.4,11.4,4.1,14.9
		c-1.3,16.9-7.9,44.6-7.2,61.7c0.2,4.8,0.5,9.5,1.6,13.9c0.3,1.3,0.8,2.6,1.6,3.5c1,1,2.1,0.8,3.5,0.8c12.8-0.8,22.6-6.9,38,2
		c3.1-30.1-3.8-61-5.4-81.8c-1-14.2,4.4-19.5,1.6-34.3c-0.7-3.5-1.5-7.1-3.1-9.6c-0.5-0.8-2.5-1.6-1.6-1.8
		C1100.9,627.7,1099.2,628.2,1096.6,628.3z"/>
	<path class="st8" d="M1105.7,573.6c0-0.3-0.2-0.7-0.3-1c-0.3-0.8-0.2-1.5-0.8-1.8c-0.8-0.5-1.5-1-1.8-1.8c0-0.2,0.7-1,0.5-1.3
		c-0.2-0.5-1.2-0.5-1.5-1c-0.5-1.3-0.2-2.8,1-3.6c1-0.8,2.6-1,3.8-0.3c0.8,0.5,1.5,1.2,2.1,2c0.3,0.5,0.8,1.2,1,1.8
		c0.8,2.6-0.7,5.6,0.2,8.2c0.2,0.3,0.2,0.8,0,1.2c-0.2,0.2-0.2,0.2-0.3,0.2c-0.5,0.2-3,1-3.3,0.3c-0.2-0.3-0.2-1-0.3-1.5
		C1105.8,574.6,1105.8,574.1,1105.7,573.6z"/>
	<path class="st9" d="M1098.6,570.3c0.2,0,0.3,0,0.5,0c0.3,0,0.7-0.2,0.8-0.3c0,0,0,0,0-0.2c-0.2-0.3-0.3-0.7-0.5-0.8
		c-0.2,0-0.2,0-0.3,0.2c-0.2,0.2-0.3,0.3-0.5,0.5c-0.2,0.2-0.3,0.5-0.5,0.7c0,0-0.2,0-0.2,0.2v0.2c0,0.2,0.2,0.3,0.3,0.2l0.2-0.2
		C1098.4,570.4,1098.4,570.3,1098.6,570.3z"/>
	<path class="st7" d="M1111.2,561.5C1111.2,561.3,1111.4,561.3,1111.2,561.5c0.2,0,0.3,0,0.3,0.2c0.2,0.3,0.3,0.7,0.5,1
		c0,0.2,0,0.2,0,0.3l-0.2,0.2c-1.8,1.2-4,2.1-5.8,3.3c-1.8,1.2-3.5,2.5-5.3,3.3c-0.2,0-0.3,0.2-0.5,0.2s-0.2-0.2-0.3-0.2
		c-0.2-0.2-0.7-0.8-0.5-1c0.2-0.3,0.8-0.7,1.2-0.8c0.8-0.5,1.6-1,2.6-1.6c1.6-1,3.5-2.1,5.1-3.1
		C1109.5,562.5,1110.2,562,1111.2,561.5z"/>
	<path class="st10" d="M1100.9,569.6c-0.2-0.3-0.5-0.8-0.8-1.2l-0.2-0.2c0,0,0-0.2-0.2-0.3c-0.2-0.2-0.5,0-0.7,0.2
		c-0.2,0.2-0.2,0.3-0.2,0.5c0,0.2,0.2,0.3,0.2,0.5c0.3,0.3,0.5,0.7,0.8,1c0,0,0,0,0.2,0h0.2c0.2,0,0.2-0.2,0.3-0.2
		C1100.9,569.9,1100.9,569.9,1100.9,569.6C1100.9,569.8,1100.9,569.8,1100.9,569.6z"/>
	<path class="st8" d="M1102.4,567.9c0-0.2,0-0.3,0-0.5c0-0.2,0-0.2,0-0.3c0-0.3,0.3-0.5,0.5-0.5s0.3-0.2,0.7-0.2c0.2,0,0.3,0,0.3,0
		c0.2,0,0.2,0.2,0.3,0.2c0.2,0.2,0.3,0.3,0.5,0.5c0.2,0.2,0.2,0.3,0.3,0.5c0.2,0.5,0,1-0.3,1.3c-0.3,0.3-1,0.7-1.5,0.3
		c-0.2-0.2-0.3-0.3-0.5-0.7C1102.5,568.5,1102.4,568.2,1102.4,567.9z"/>
	<path class="st8" d="M1072.8,600c0.5-1.3,1-2.6,1.8-4c2.6-4.3,9.5-9.4,14.4-5.6c1.2,0.8,2,2.1,2.6,3.3c0.8,1.3,1.5,2.5,2,4
		c1,2.6,1.3,5.6,0.7,8.4c-0.7,2.5-2.1,4.9-3.6,7.1c-2,2.8-4.3,5.6-7.6,6.4c-4.4,1.2-9.1-2.1-10.8-6.3
		C1070.8,609.1,1071.3,604.3,1072.8,600z"/>
	<path class="st6" d="M1105.5,610c-1.2,6.1-2.8,12.3-2.3,18.5c0.2,1.5,0.5,3.1,2,3.5c1.3,0.3,2.5-0.8,3.1-1.8c0.8-1.3,1.6-2.6,2-4.1
		c0.5-1.8,0.8-3.6,1-5.4c1.8-13.9,3.6-28,1.3-41.8c-0.3-1.6-0.7-3.5-2-4.4c-1.2-1-2.8-1.2-4.1-1c-2.3,0.3-1.8,0.8-1.5,3
		c0.7,3.8,1.3,7.6,1.5,11.3C1107.2,595.1,1106.8,602.6,1105.5,610z"/>
	<path class="st11" d="M1103.9,668.3c-6.3,1.5-12.8,1.2-19.4,1.6c-4.6,0.3-9.2,1.2-13.8,1.3c-0.2,0-0.2,0-0.3,0v0.2
		c0,1.5,0.3,1.3,1.6,1.2c1.3-0.2,2.5-0.2,3.8-0.3c2.5-0.2,4.9-0.3,7.4-0.5c2-0.2,3.8-0.3,5.8-0.3c4.4-0.2,8.7,0,13.1,0
		c0.5,0,0.8,0,1.2-0.3c0.3-0.3,0.5-0.8,0.5-1.3C1103.7,669.3,1103.7,668.8,1103.9,668.3z"/>
	<path class="st12" d="M1094.8,667.8c0.3,1.5,0.5,3.1,0.5,4.6c-0.5,0.2-1,0.3-1.5,0.5h-0.2c-0.2,0-0.2-0.2-0.2-0.3
		c-0.2-1.2-0.5-2.6-0.3-3.8c0-0.7-0.2-0.7,0.3-1C1093.3,667.7,1094.8,667.8,1094.8,667.8z"/>
	<path class="st12" d="M1083.2,672.3c-0.3-1-0.2-2.1-0.5-3.1c-0.3-1-1.2-0.7-2-0.5h-0.2v0.2c0,0.7,0.2,1.3,0.3,1.8
		c0.2,0.8,0.2,1.6,0.2,2.5c0.7,0.3,1.3-0.2,2-0.5c0,0,0.2,0,0.2-0.2C1083.2,672.5,1083.2,672.5,1083.2,672.3z"/>
	<path class="st8" d="M1049.8,662.2c-0.7-0.7-1.2-1.2-1.6-2c-0.3-0.7-0.3-1.5-0.5-2.1c0-0.3,0-0.5,0-0.8c0.2-0.2,0.3-0.3,0.5-0.5
		c0.7-0.5,1.5-0.8,2.1-0.5c0.8,0.3,1.2,1.5,2.1,1.6c0.7,0.2,1.5-0.2,1.8,0.3c0.2,0.2,0.2,0.5,0.2,0.7c0,1.8-0.5,3.8,0.5,5.3
		c0.2,0.3,0.3,0.7,0.2,1c-0.2,0.2-0.3,0.2-0.5,0.3c-1.5,0.7-1.8,0.5-2.6-0.8C1051.4,663.9,1050.6,662.9,1049.8,662.2z"/>
	<path class="st6" d="M1052.4,669c0.8,1.3,1.6,2.6,2.6,4c1,1.5,2.1,3.1,4,3.6c2.3,0.5,4.3-1.3,5.9-3c2.1-2.3,4.1-4.8,5.1-7.6
		c0.3-1.2,0.5-2.3,0.8-3.6c1.3-6.6,4-12.8,7.1-18.9c1-1.8,1.8-4,0.8-5.6c-0.8-1.5-3-1.8-4.6-1.2s-2.8,2-3.6,3.5
		c-4.4,7.1-3.8,16.4-8.6,23.3c-0.8,1.2-1.3,3.8-2.5,4.3c-1.2,0.5-3-3.5-3.8-4.4c-0.3-0.3-0.5-0.8-0.8-1.2c-0.3-0.3-2.1,1.2-2.6,1.3
		C1049.9,664.7,1051.4,667.7,1052.4,669z"/>
	<path class="st13" d="M1064.8,626c1-1.2,2.1-2.1,2.6-3.6c0.3-1.2,0.2-2.3,0.2-3.5c0-1.2,0.5-2.5,1.6-2.8c1-0.3,2,0.2,3,1
		c0.5-0.2,1-0.3,1.6-0.7c2.8-1.2,4.6-4,5.4-6.8c0.8-3,0.7-5.9,0.3-8.9c-0.2-2-0.3-4-1-5.8c-2.6-2-4.1-5.3-1.6-8.1
		c2.6-3.1,7.9-4.4,11.8-3.3c4.6,1.3,13.9,6.6,14.2,11.3c0.2,3.5-0.5,7.2,0.8,10.5c1.3,3-2.3,3.6,0.3,5.4c0.5,0.3,1,0.8,1.3,1.3
		c0.3,0.8,0.3,1.8,0.8,2.3c0.3,0.3,0.7,0.5,1.2,0.5c2.1,0.7,4.8,1.8,4.8,4c0,0.8-0.3,1.8,0.2,2.5c0.3,0.3,0.7,0.5,1,0.8
		c0.8,0.8,0.7,2.1,0.2,3.1c-0.5,1-1.2,2-1.2,3.1c0,0.8,0.3,1.5,0.3,2.3c0.2,1.5-0.8,2.8-2.3,3.3c-1.3,0.5-3.1,0.2-3.6,1.5
		c-0.2,0.3-0.2,0.8-0.3,1.2c-0.2,0.3-0.7,0.5-1,0.5c-2.6,0.7-5.9-1.6-8.1,0.2c-1.5,1.2-1.3,3.6-2.8,4.9c-1.6,1.3-4.6,0.2-6.3,1.6
		c-0.5,0.3-0.8,1-1.3,1.3c-1.3,0.8-3.1-0.3-4-1.6c-0.8-1.3-1.3-3-2.5-4c-2.3-1.8-5.4-0.5-8.4-0.3c-2,0-4-0.5-5.4-1.6
		c-0.5-0.3-1-0.8-1.3-1.5c-0.8-1.5,0.3-3.6-0.7-5.1c-0.3-0.5-0.8-0.8-1-1.3C1063,628.8,1063.8,627.2,1064.8,626z"/>
</g>
</svg>
