<svg width="50" height="102" viewBox="0 0 50 102" fill="none" xmlns="http://www.w3.org/2000/svg">
<path d="M19.6325 96.3596C20.0216 94.189 20.1188 93.8273 20.1188 93.9177C23.5227 93.9177 30.4276 94.0262 30.8166 94.4604C31.2056 94.8945 31.465 98.2589 31.546 99.8868C31.465 100.249 31.0111 100.972 29.8441 100.972H29.3578C26.1161 101.062 19.4867 101.189 18.9031 100.972C18.1738 100.701 19.1463 99.0728 19.6325 96.3596Z" fill="#3C444C"/>
<path d="M49.2186 94.8955L46.84 89.8064L41.1313 77.5831L40.7554 76.7756H42.6964C44.5993 76.7756 46.526 76.2069 48.2957 75.6878H48.3766C48.4384 75.6878 48.8523 75.6018 48.7952 75.468L46.526 71.4189L40.8173 59.1956L38.1865 53.5426H38.8716L44.6326 54.2468C44.7277 54.2468 45.0322 54.1226 44.9561 53.9649C44.9561 53.9649 42.235 50.6834 42.0494 49.0987C41.8639 47.514 37.4111 39.1356 37.4111 39.1356L35.9506 35.9053H36.9021L40.9457 35.8719C41.0076 35.8719 41.4881 35.7906 41.4214 35.676C41.4214 35.676 39.2474 32.9397 34.9659 24.8163C30.6843 16.6929 30.2086 11.1977 28.5436 6.89704C26.8785 2.59642 24.8329 0.047743 24.8329 0.047743C24.7711 -0.0812755 24.2906 0.0811916 24.2478 0.181539C24.2478 0.181539 20.932 11.6755 16.4126 18.1264C11.8932 24.5774 10.0997 31.6573 10.0997 31.6573L8.12067 36.063C8.12067 36.063 8.12067 36.063 8.12067 36.0917C8.12067 36.1204 8.12067 36.1251 8.19679 36.1251L13.0444 36.0869L12.2167 37.9314C12.2167 37.9314 11.8504 39.6295 9.27668 44.1691C6.70301 48.7086 5.49942 50.6343 5.49942 50.6343C5.19792 51.1609 4.94932 51.7164 4.75729 52.2924C4.74866 52.3174 4.73749 52.3414 4.72399 52.3641C4.67166 52.4836 4.72399 52.5505 4.84292 52.5744C4.887 52.5819 4.93204 52.5819 4.97612 52.5744L11.8504 53.7338L10.0188 57.8146L4.27206 70.6256C4.27206 70.6256 2.72221 73.0788 1.66504 74.2734C0.607871 75.468 0.475725 75.7069 0.475725 75.7069C0.237863 76.1848 0.110799 76.0904 0.0380589 76.3377C0.0294132 76.368 0.0166031 76.3969 0 76.4237C0 76.4237 0 76.4572 0 76.4715C0 76.4858 0.047576 76.5193 0.152236 76.5193L6.25107 77.0527L9.92843 77.024L4.57176 88.9702L2.66886 93.2325C2.30868 93.8782 2.0062 94.5546 1.76498 95.2539C1.75483 95.2836 1.7421 95.3124 1.72692 95.3399C1.71733 95.3583 1.71233 95.3788 1.71233 95.3996C1.71233 95.4204 1.71733 95.4409 1.72692 95.4593C1.72692 95.5119 1.76974 95.5501 1.89818 95.5501C1.89818 95.5501 3.81923 95.244 6.56981 95.5119C9.32039 95.7798 10.2763 94.6795 13.8611 95.4593C17.4459 96.2392 19.1427 95.5119 20.7916 95.5501C22.4405 95.5883 28.6412 95.2825 31.2885 95.3112C33.9358 95.3399 40.1467 95.8894 42.3002 95.5501C44.4538 95.2108 46.8257 95.2873 48.7286 95.1631H48.7952C48.9141 95.1583 49.3042 95.0818 49.2186 94.8955Z" fill="#03A678"/>
</svg>
