<svg width="124" height="100" viewBox="0 0 124 100" fill="none" xmlns="http://www.w3.org/2000/svg">
<path d="M115.148 85.7822C112.664 85.7822 111.376 87.3042 110.434 88.4146C109.551 89.4499 109.366 90.8601 108.357 90.8601C107.347 90.8601 105.675 89.4533 104.792 88.4024C103.85 87.292 103.48 85.7822 100.996 85.7822C98.512 85.7822 97.2246 87.3042 96.2823 88.4146C95.3998 89.4499 94.93 89.9676 93.9203 89.9676C92.9106 89.9676 92.4408 89.4654 91.5582 88.4146C90.616 87.3042 89.3208 87.3171 86.8367 87.3171C84.3527 87.3171 84.0923 87.7416 83.1501 88.852C82.2676 89.8873 80.7707 90.405 79.761 90.405C78.7513 90.405 78.2892 89.4654 77.4067 88.4146C76.4645 87.3042 76.2135 87.3171 73.7295 87.3171C71.2454 87.3171 70.5979 87.292 69.6557 88.4024C68.7732 89.4378 67.8647 90.405 66.8549 90.405C65.8452 90.405 64.1377 89.4654 63.2552 88.4146C62.3156 87.3042 61.0255 85.7822 58.5415 85.7822C56.0574 85.7822 54.77 87.3042 53.8278 88.4146C52.9453 89.4499 52.4754 89.9676 51.4657 89.9676C50.456 89.9676 49.9862 89.4654 49.1037 88.4146C48.164 87.3042 46.874 85.7822 44.39 85.7822C41.9059 85.7822 40.6185 87.3042 39.6788 88.4146C38.7963 89.4499 38.3213 90.405 37.3116 90.405C36.3019 90.405 35.8399 89.4654 34.9548 88.4146C34.0151 87.3042 32.7225 87.3171 30.241 87.3171C27.7596 87.3171 26.4721 87.3042 25.5299 88.4146C24.6474 89.4499 24.1776 89.9676 23.1679 89.9676C22.1582 89.9676 21.6884 89.4654 20.8058 88.4146C19.8662 87.3042 20.9356 87.3171 18.4516 87.3171C15.9675 87.3171 13.5649 87.7416 12.6227 88.852C11.7402 89.8873 10.0261 89.9676 9.01635 89.9676C8.00664 89.9676 6.37612 89.4533 5.49359 88.4024C4.55137 87.292 4.42463 85.7822 1.94059 85.7822C1.53236 85.7822 1.14086 85.9439 0.852201 86.2318C0.56354 86.5196 0.401367 86.91 0.401367 87.3171C0.401367 87.7242 0.56354 88.1146 0.852201 88.4024C1.14086 88.6903 1.53236 88.852 1.94059 88.852C2.9503 88.852 3.42012 89.3541 4.30264 90.405C5.24486 91.5154 6.53231 93.0373 9.01635 93.0373C11.5004 93.0373 12.7878 91.5154 13.7275 90.405C14.61 89.3696 15.0798 88.852 16.0895 88.852C17.0992 88.852 17.569 89.3541 18.4516 90.405C19.3912 91.5154 20.6838 91.8757 23.1679 91.8757C25.6519 91.8757 26.9368 91.5154 27.879 90.405C28.7615 89.3696 29.2313 88.852 30.241 88.852C31.2508 88.852 31.718 89.3541 32.6005 90.405C33.5401 91.5154 34.8302 93.0373 37.3116 93.0373C39.7931 93.0373 40.1996 91.0779 41.1392 89.9676C42.0217 88.9322 43.3803 88.4024 44.39 88.4024C45.3997 88.4024 45.8643 89.3541 46.7468 90.405C47.689 91.5154 51.3437 91.8757 53.8278 91.8757C56.3118 91.8757 55.232 91.5154 56.1716 90.405C57.0542 89.3696 57.524 88.852 58.5337 88.852C59.5434 88.852 61.8986 89.3014 62.7812 90.3523C63.7208 91.4627 63.1254 93.0373 65.6095 93.0373C68.0935 93.0373 69.3809 91.5154 70.3232 90.405C71.2057 89.3696 71.6755 88.852 72.6852 88.852C73.6949 88.852 74.1647 89.3541 75.0473 90.405C75.9895 91.5154 77.2769 93.0373 79.761 93.0373C82.245 93.0373 83.5325 91.5154 84.4747 90.405C85.3572 89.3696 85.827 88.852 86.8367 88.852C87.8464 88.852 88.3163 89.3541 89.1988 90.405C90.141 91.5154 91.4362 91.8757 93.9203 91.8757C96.4043 91.8757 97.684 91.5154 98.6262 90.405C99.5087 89.3696 99.9785 88.852 100.988 88.852C101.998 88.852 102.468 89.3541 103.35 90.405C104.293 91.5154 105.58 93.0373 108.064 93.0373C110.548 93.0373 111.836 91.5154 112.778 90.405C113.66 89.3696 114.13 88.852 115.14 88.852C115.548 88.852 115.94 88.6903 116.228 88.4024C116.517 88.1146 116.679 87.7242 116.679 87.3171C116.679 86.91 116.517 86.5196 116.228 86.2318C115.94 85.9439 115.548 85.7822 115.14 85.7822H115.148Z" fill="#3C444C"/>
<path d="M1.9307 92.8916C4.41101 92.8916 5.69651 94.3829 6.63732 95.4709C7.51852 96.4854 7.70325 97.8672 8.71145 97.8672C9.71964 97.8672 11.3895 96.4887 12.2706 95.459C13.2115 94.371 13.5807 92.8916 16.061 92.8916C18.5413 92.8916 19.8268 94.3829 20.7676 95.4709C21.6488 96.4854 22.1179 96.9927 23.1261 96.9927C24.1343 96.9927 24.6034 96.5006 25.4846 95.4709C26.4254 94.3829 27.7187 94.3956 30.199 94.3956C32.6793 94.3956 32.9393 94.8115 33.8801 95.8995C34.7613 96.914 36.2559 97.4213 37.2641 97.4213C38.2723 97.4213 38.7336 96.5006 39.6148 95.4709C40.5556 94.3829 40.8062 94.3956 43.2865 94.3956C45.7669 94.3956 46.4134 94.371 47.3542 95.459C48.2354 96.4735 49.1425 97.4213 50.1507 97.4213C51.1589 97.4213 52.8639 96.5006 53.7451 95.4709C54.6833 94.3829 55.9714 92.8916 58.4517 92.8916C60.932 92.8916 62.2175 94.3829 63.1583 95.4709C64.0395 96.4854 64.5086 96.9927 65.5168 96.9927C66.525 96.9927 66.9941 96.5006 67.8753 95.4709C68.8135 94.3829 70.1016 92.8916 72.5819 92.8916C75.0622 92.8916 76.3477 94.3829 77.286 95.4709C78.1672 96.4854 78.6414 97.4213 79.6496 97.4213C80.6578 97.4213 81.1192 96.5006 82.003 95.4709C82.9412 94.3829 84.2319 94.3956 86.7096 94.3956C89.1873 94.3956 90.4728 94.3829 91.4136 95.4709C92.2948 96.4854 92.7639 96.9927 93.7721 96.9927C94.7803 96.9927 95.2494 96.5006 96.1306 95.4709C97.0688 94.3829 96.001 94.3956 98.4813 94.3956C100.962 94.3956 103.361 94.8115 104.301 95.8995C105.183 96.914 106.894 96.9927 107.902 96.9927C108.911 96.9927 110.539 96.4887 111.42 95.459C112.361 94.371 112.487 92.8916 114.967 92.8916C115.375 92.8916 115.766 93.05 116.054 93.3321C116.342 93.6141 116.504 93.9967 116.504 94.3956C116.504 94.7945 116.342 95.177 116.054 95.459C115.766 95.7411 115.375 95.8995 114.967 95.8995C113.959 95.8995 113.49 96.3916 112.609 97.4213C111.668 98.5093 110.383 100.001 107.902 100.001C105.422 100.001 104.137 98.5093 103.198 97.4213C102.317 96.4068 101.848 95.8995 100.84 95.8995C99.8316 95.8995 99.3625 96.3916 98.4813 97.4213C97.5431 98.5093 96.2524 98.8623 93.7721 98.8623C91.2918 98.8623 90.0089 98.5093 89.0681 97.4213C88.1869 96.4068 87.7178 95.8995 86.7096 95.8995C85.7014 95.8995 85.2349 96.3916 84.3537 97.4213C83.4155 98.5093 82.1274 100.001 79.6496 100.001C77.1719 100.001 76.766 98.0807 75.8278 96.9927C74.9466 95.9782 73.5901 95.459 72.5819 95.459C71.5737 95.459 71.1098 96.3916 70.2286 97.4213C69.2878 98.5093 65.6386 98.8623 63.1583 98.8623C60.678 98.8623 61.7562 98.5093 60.818 97.4213C59.9368 96.4068 59.4676 95.8995 58.4595 95.8995C57.4513 95.8995 55.0996 96.34 54.2184 97.3697C53.2802 98.4577 53.8746 100.001 51.3943 100.001C48.914 100.001 47.6285 98.5093 46.6877 97.4213C45.8065 96.4068 45.3374 95.8995 44.3292 95.8995C43.321 95.8995 42.8519 96.3916 41.9707 97.4213C41.0299 98.5093 39.7444 100.001 37.2641 100.001C34.7838 100.001 33.4983 98.5093 32.5575 97.4213C31.6763 96.4068 31.2072 95.8995 30.199 95.8995C29.1908 95.8995 28.7217 96.3916 27.8405 97.4213C26.8997 98.5093 25.6064 98.8623 23.1261 98.8623C20.6458 98.8623 19.368 98.5093 18.4272 97.4213C17.546 96.4068 17.0769 95.8995 16.0687 95.8995C15.0605 95.8995 14.5914 96.3916 13.7102 97.4213C12.7694 98.5093 11.4839 100.001 9.0036 100.001C6.52329 100.001 5.23779 98.5093 4.29697 97.4213C3.41578 96.4068 2.94668 95.8995 1.93849 95.8995C1.53088 95.8995 1.13995 95.7411 0.851715 95.459C0.563492 95.177 0.401566 94.7945 0.401566 94.3956C0.401566 93.9967 0.563492 93.6141 0.851715 93.3321C1.13995 93.05 1.53088 92.8916 1.93849 92.8916H1.9307Z" fill="#3C444C"/>
<path d="M46.3664 0C57.2611 13.7139 66.9018 27.3614 76.9945 44.0758C82.0517 52.4509 85.4114 62.1284 92.7328 71.9018C92.7328 71.9018 51.5673 70.6161 38.022 73.2227C24.4766 75.8294 0 71.9018 0 71.9018C12.7781 41.694 28.9756 25.3248 46.3664 0Z" fill="#019A6F"/>
<path d="M85.074 25.1182C76.0283 35.0275 68.0239 44.8889 59.644 56.9663C55.4452 63.018 52.6556 70.0107 46.5768 77.0727C46.5768 77.0727 80.7558 76.1437 92.0023 78.0272C103.249 79.9107 123.571 77.0727 123.571 77.0727C112.962 55.2453 99.5133 43.4173 85.074 25.1182Z" fill="#03A678"/>
</svg>
