<svg width="300" height="269" viewBox="0 0 300 269" fill="none" xmlns="http://www.w3.org/2000/svg">
<path d="M235.344 247.344C284.583 207.954 311.44 139.021 293.535 96.0492C276.525 53.0777 206.697 -23.9127 100.164 8.31584C98.3732 9.21107 96.5827 9.21108 95.6875 10.1063C57.1922 34.2778 -6.37006 100.525 23.1728 176.621C40.1823 218.697 76.887 250.925 124.335 263.459C128.811 264.354 133.287 265.249 137.763 266.145C154.775 269.547 163.727 268.83 177.154 268.83C200.43 266.145 220.125 258.983 235.344 247.344ZM26.9951 163.304C3.71892 104.218 63.0475 34.2189 100.164 16.3353C207.465 -26.1381 277.203 74.5869 285.26 93.3869C306.664 136.193 279.553 207.537 221.051 247.344C204.937 259.878 166.829 267.885 111.181 251.771C75.3715 242.818 38.1724 208.013 26.9951 163.304Z" fill="#3C444C"/>
<path d="M1.08001 178.641C2.59211 173.687 6.14088 168.207 11.3192 168.309C22.0247 168.519 37.4511 168.69 41.58 168.055C48.08 167.055 73.58 167.055 83.08 168.055C92.58 169.055 119.58 169.318 126.58 168.318C133.58 167.318 155.08 168.318 164.08 168.318C173.08 168.318 188.08 167.055 206.58 167.055C225.08 167.055 243.58 168.318 257.58 167.055C264.349 166.444 274.392 166.658 282.959 167.042C292.069 167.45 298.08 175.522 298.08 184.641C298.08 187.641 298.58 193.141 298.08 198.641C297.069 209.758 288.352 219.146 277.191 219.334C275.511 219.362 273.799 219.432 272.08 219.555C258.08 220.555 244.08 219.555 228.58 221.055C219.942 221.891 198.08 218.141 186.58 219.555C175.08 220.969 165.361 220.391 152.08 221.055C122.08 222.555 122.08 219.555 94.58 221.055C67.08 222.555 50.58 219.555 41.58 221.055C37.0527 221.81 26.7054 221.805 17.539 221.614C8.16397 221.419 1.24626 213.447 0.618727 204.091C0.606535 203.909 0.593627 203.73 0.579974 203.555C0.0799561 197.141 0.0799561 197.141 0.0799561 194.141C0.0799561 191.141 -0.42 183.555 1.08001 178.641Z" fill="#3C444C"/>
<path d="M153.889 141.643H162.051L140.337 87.0496H131.636L109.922 141.643H118.007L123.782 126.397H147.96L153.889 141.643ZM135.794 94.9036L145.265 119.39H126.477L135.794 94.9036ZM165.672 116.464V122.547H180.071V137.716H186.385V122.547H200.861V116.464H186.385V101.449H180.071V116.464H165.672Z" fill="#3C444C"/>
<path d="M99.3579 189.107C98.8459 186.643 96.7979 183.475 91.6779 183.475C87.4859 183.475 84.1899 186.675 84.1899 190.227C84.1899 193.619 86.4939 195.731 89.7259 196.435L92.9579 197.139C95.2299 197.619 96.3499 199.027 96.3499 200.659C96.3499 202.643 94.8139 204.275 91.6779 204.275C88.2539 204.275 86.4619 201.939 86.2379 199.411L83.2299 200.371C83.6459 203.603 86.2379 207.123 91.7099 207.123C96.5419 207.123 99.5499 203.923 99.5499 200.403C99.5499 197.235 97.4379 194.867 93.6619 194.035L90.2699 193.299C88.3499 192.883 87.3579 191.635 87.3579 190.003C87.3579 187.891 89.1819 186.227 91.7419 186.227C94.9099 186.227 96.2859 188.467 96.5419 190.099L99.3579 189.107ZM111.27 207.123C115.878 207.123 119.43 204.243 119.43 198.899V183.955H116.294V198.803C116.294 202.259 114.47 204.211 111.27 204.211C108.102 204.211 106.214 202.259 106.214 198.803V183.955H103.11V198.899C103.11 204.243 106.662 207.123 111.27 207.123ZM127.726 194.547V186.771H132.27C134.99 186.771 136.654 188.307 136.654 190.707C136.654 193.043 134.99 194.547 132.27 194.547H127.726ZM132.846 197.363C137.038 197.363 139.854 194.515 139.854 190.675C139.854 186.867 137.038 183.955 132.846 183.955H124.59V206.643H127.726V197.363H132.846ZM157.199 206.643V203.731H146.543V196.787H156.207V193.843H146.543V186.867H157.199V183.955H143.407V206.643H157.199ZM173.468 206.643H177.116L171.708 197.139C175.132 196.499 177.212 193.971 177.212 190.707C177.212 186.963 174.556 183.955 170.268 183.955H161.724V206.643H164.892V197.363H168.284L173.468 206.643ZM164.892 194.547V186.771H169.692C172.252 186.771 173.98 188.307 173.98 190.707C173.98 193.043 172.252 194.547 169.692 194.547H164.892ZM184.459 206.643V183.955H181.259V206.643H184.459ZM191.711 195.283C191.711 189.363 195.679 186.355 199.903 186.355C204.127 186.355 208.095 189.363 208.095 195.283C208.095 201.203 204.127 204.243 199.903 204.243C195.679 204.243 191.711 201.203 191.711 195.283ZM188.511 195.283C188.511 202.867 194.207 207.123 199.903 207.123C205.599 207.123 211.295 202.867 211.295 195.283C211.295 187.699 205.599 183.475 199.903 183.475C194.207 183.475 188.511 187.699 188.511 195.283ZM227.074 206.643H230.722L225.314 197.139C228.738 196.499 230.818 193.971 230.818 190.707C230.818 186.963 228.162 183.955 223.874 183.955H215.33V206.643H218.498V197.363H221.89L227.074 206.643ZM218.498 194.547V186.771H223.298C225.858 186.771 227.586 188.307 227.586 190.707C227.586 193.043 225.858 194.547 223.298 194.547H218.498Z" fill="white"/>
</svg>
