<?xml version="1.0" encoding="utf-8"?>
<!-- Generator: Adobe Illustrator 22.1.0, SVG Export Plug-In . SVG Version: 6.00 Build 0)  -->
<svg version="1.1" id="Layer_1" xmlns="http://www.w3.org/2000/svg" xmlns:xlink="http://www.w3.org/1999/xlink" x="0px" y="0px"
	 viewBox="0 0 179.3 147.7" style="enable-background:new 0 0 179.3 147.7;" xml:space="preserve">
<style type="text/css">
	.st0{fill:#DDE1E7;}
	.st1{fill:#03A678;}
</style>
<path class="st0" d="M48.3,0.8c-4.7,0.4-16.1-0.4-16.1,7.9c0,7.9,0,51,3.5,78.2c0,0-0.4,7.1-12.6,7.9c-11.8,0.8-20.4,0-20.4,0
	s-3.9,4.3,0,9.5c3.9,5.1,24.3,25.7,33,31.6c8.6,5.9,14.5,9.5,14.5,9.5s6.7,5.1,11.8,0c5.1-5.1,27.9-23.3,33-32.4
	c5.1-9.5,11-17,11-17s4.3-7.5-10.2-5.9C81.2,91.7,71,91.7,71,91.7s-3.5-4.3-3.5-8.3c0-3.1,1.3-56.1-1.6-79C65.5,0.4,54.5,0,48.3,0.8
	z"/>
<path class="st1" d="M145.4,145.2c0,0,3.9,0.4,4.3-3.6c0.4-4,1.2-31.2,0-51.4c-1.2-19.8-2-29.6-2-29.6s0.8-4.7,5.1-5.5
	c3.9-0.8,19.6-1.2,23.9-2c4.3-0.8,2.4-5.5,0-8.7c-2.4-3.2-17.3-19.8-27.1-30c-9.4-10.3-11.8-12.2-11.8-12.2s-4.3-3.2-7.5,0
	c-3.1,3.2-9.8,8.7-14.9,13c-5.1,4.3-16.9,16.2-22.4,24.5c-5.9,8.3-13,16.6,0,15.8c13-0.8,15.3-0.8,22,0c0,0,3.1,1.2,3.9,7.5
	c0.8,6.3,2.4,31.6,1.6,40.7c-0.8,9.1-2.4,40.3,2,40.3C126.9,144,145.4,145.2,145.4,145.2z"/>
</svg>
