<?xml version="1.0" encoding="utf-8"?>
<!-- Generator: Adobe Illustrator 22.1.0, SVG Export Plug-In . SVG Version: 6.00 Build 0)  -->
<svg version="1.1" id="Layer_1" xmlns="http://www.w3.org/2000/svg" xmlns:xlink="http://www.w3.org/1999/xlink" x="0px" y="0px"
	 viewBox="0 0 149.4 145.5" style="enable-background:new 0 0 149.4 145.5;" xml:space="preserve">
<style type="text/css">
	.st0{fill:#DDE1E7;}
	.st1{fill:#3C444C;}
	.st2{fill:#03A678;}
</style>
<path class="st0" d="M145.9,54.7C138,25.4,114.7-7.1,61.2,1.4c0,0-33.2,7.5-48.6,30.2C-3,54.4-3,83.6,6.5,106.1
	c10.9,24.9,27.3,35.5,52.7,38.5s53.3-0.4,70.1-21.4C145.9,102,154.2,83.6,145.9,54.7z M139.4,77.1c-2.3,51.3-44,61.8-77.2,57.3
	C29,129.6,2.9,102.7,12.8,58.9s57.5-50,57.5-50C95,1.4,141.7,25.4,139.4,77.1z"/>
<path class="st0" d="M69,14.9v7.9c0,1,0.6,2,2,2c1,0,2-0.6,2-2v-7.9c0-1-0.6-2-2-2C70,12.9,69,13.9,69,14.9z"/>
<path class="st0" d="M69,124.1v6.5c0,1,0.6,2,2,2c1,0,2-0.6,2-2v-6.5c0-1-0.6-2-2-2C70,122.1,69,123.1,69,124.1z"/>
<path class="st0" d="M125.6,79h8.9c1,0,2-1,2-2c0-1-1-2-2-2h-8.9c-1,0-2,1-2,2C123.9,78.4,124.6,79,125.6,79z"/>
<path class="st0" d="M19.7,75.4h-6.5c-1,0-1.6,0.6-1.6,1.6s0.6,1.6,1.6,1.6h6.5c1,0,1.6-0.6,1.6-1.6C21.3,76.4,20.7,75.4,19.7,75.4z
	"/>
<path class="st1" d="M74.6,76.4L58.4,41.5c-0.4-1-1.3-1.3-2.3-1c-1,0.4-1.3,1.3-1,2.3l16.2,35c0.4,1,1.3,1.3,2.3,1
	C74.6,78.4,75,77.4,74.6,76.4z"/>
<path class="st2" d="M102.2,94.5L76.6,75.4l-2-41.1c0-2-1.6-3.6-3.9-3.6c-2,0-3.6,1.6-3.6,3.9l2,42.7c0,1,0.6,2,1.6,2.6l27.3,20.1
	c1.6,1.3,3.9,1,5.3-0.6C104.2,97.8,103.8,95.6,102.2,94.5z"/>
</svg>
