<?xml version="1.0" encoding="utf-8"?>
<!-- Generator: Adobe Illustrator 22.1.0, SVG Export Plug-In . SVG Version: 6.00 Build 0)  -->
<svg version="1.1" id="Layer_1" xmlns="http://www.w3.org/2000/svg" xmlns:xlink="http://www.w3.org/1999/xlink" x="0px" y="0px"
	 viewBox="0 0 78.7 148.6" style="enable-background:new 0 0 78.7 148.6;" xml:space="preserve">
<style type="text/css">
	.st0{fill:#03A678;}
	.st1{fill:#FFFFFF;}
	.st2{fill:#7A937D;}
	.st3{fill:#DDE1E7;}
</style>
<path class="st0" d="M22.2,5.8c1.5-3,3.6-5.3,7.1-5.8C36.1-0.6,41,6.7,43.6,12.2c3.2,7.5,2.1,15.4,1.3,23.3
	c-1.1,8.8-0.9,17.5-1.3,26.1c-0.9,19.9-6,38.9-11.1,58.2c-0.4,1.9-3.4,1.3-2.8-0.6c1.3-4.9,2.8-9.8,4.1-14.8
	c1.9-13.7,3.6-27.8,0.9-41.5c-1.7-7.9-5.1-15-8.1-22.4c-1.5-3.8-2.8-7.9-3.8-12c-1.1-3.8-2.1-7.9-2.8-12
	C19.2,12.7,20.3,9.2,22.2,5.8z"/>
<path class="st0" d="M31.9,106.9c1.1-5.6,2.4-11.1,4.1-16.5c1.1-3.4,2.4-7.1,3.8-10.5c1.3-4.5,2.8-9.2,4.1-13.7
	c3.8-12.4,7.7-25.2,15.4-35.9c1.9-2.6,3.8-5.1,6.2-7.3c2.1-1.9,4.7-3.6,7.7-3.4c6,0.6,6,7.7,5.1,12.2c-1.3,6.8-4.9,12.4-9.4,17.3
	c-5.1,5.8-10.7,11.1-16,16.7c-2.8,3-5.8,6-7.9,9.4c-2.1,3.4-3.6,7.3-5.1,11.1c-0.9,2.1-1.5,4.3-2.1,6.6c-0.2,0.6-0.4,1.1-0.4,1.7
	c-1.5,5.6-2.8,11.1-3.6,16.9c-0.2,1.3-1.7,1.3-2.4,0.4c-0.4,0-0.9-0.2-0.9-0.6C31,110.1,31.4,108.4,31.9,106.9z"/>
<path class="st0" d="M4.5,41.7c4.9-2.8,11.3-0.9,15.6,1.9c11.1,7.3,14.5,21.4,14.5,34c0.2,8.6-0.6,17.1-1.5,25.7
	c-0.6,6.6-1.7,13-3,19.7c-0.4,2.4-0.9,4.9-1.3,7.3c-0.2,1.5-2.6,1.1-2.4-0.4c1.5-7.7,2.8-15.4,3.6-23.1c0.4-4.1,0.9-8.1,0.9-12.2
	c0-3.6,0.2-7.7-0.6-11.3c-0.9-3.6-4.1-6.2-6.8-8.6S18,70,15,68C9.8,64.6,3.8,61.6,1.1,55.8C-0.9,51.1-0.4,44.5,4.5,41.7z"/>
<path class="st1" d="M5.8,44.9c3.4,2.6,6.8,5.3,9.8,8.6c2.8,2.8,5.1,6,7.3,9c2.4,3.2,4.3,6.6,5.8,10.3c1.5,3.8,2.4,8.1,3.4,12.2
	c0,0.4-0.4,0.4-0.4,0.2c-1.1-3.8-1.7-7.9-3.2-11.8c-1.5-3.8-3.6-7.3-6-10.7c-2.4-3.2-4.7-6.4-7.5-9.4S9,47.7,5.8,44.9
	C5.6,44.9,5.6,44.9,5.8,44.9z"/>
<path class="st1" d="M17.7,44.7c0.4,3.6,0.6,7.5,0,11.1c0,0.2-0.4,0.2-0.4,0c0.4-3.6,0.6-7.3,0.2-10.9
	C17.5,44.5,17.7,44.5,17.7,44.7z"/>
<path class="st1" d="M24.6,50.9c0,4.5-0.2,8.8-0.6,13.3c0,0.2-0.4,0.2-0.4,0C23.9,59.7,24.4,55.2,24.6,50.9
	C24.4,50.7,24.6,50.7,24.6,50.9z"/>
<path class="st1" d="M29.9,60.3c0-0.2,0.2,0,0.2,0c-0.6,3.4-1.3,6.6-2.4,10c0,0.2-0.6,0.2-0.4,0C28.2,67,29.1,63.8,29.9,60.3z"/>
<path class="st1" d="M12.4,62c4.3,2.8,9,4.7,13.9,6.2c0.2,0,0.2,0.4,0,0.4c-4.9-1.5-9.6-3.6-14.1-6.4C12,62.3,12.2,61.8,12.4,62z"/>
<path class="st1" d="M7.7,54.6c4.1,1.9,8.3,3.4,12.6,4.7c0.2,0,0.2,0.4,0,0.4C15.8,58.4,11.8,56.7,7.7,54.6
	C7.5,54.6,7.7,54.6,7.7,54.6z"/>
<path class="st1" d="M4.3,47.7c2.4,0.9,4.7,1.5,7.3,1.9c0.4,0,0.2,0.6,0,0.4c-2.6-0.6-4.9-1.3-7.3-2.1C4.1,47.9,4.1,47.7,4.3,47.7z"
	/>
<path class="st1" d="M31.2,7.7c1.1,19.7,4.5,39.3,7.5,58.8c0.9,5.1,1.7,10.5,0.6,15.6c0,0.2-0.6,0.2-0.4,0c0.9-4.9,0.2-9.6-0.4-14.5
	c-0.6-4.9-1.5-9.6-2.4-14.5c-1.5-9.6-2.8-19.2-3.8-28.9C31.6,18.9,31.2,13.3,31.2,7.7C31,7.5,31.2,7.5,31.2,7.7z"/>
<path class="st2" d="M24.6,10.5c2.4,3.4,6.6,6.2,7.7,10.3c0,0.2-0.2,0.2-0.2,0C30.1,17.1,26.5,14.4,24.6,10.5
	C24.2,10.5,24.4,10.5,24.6,10.5z"/>
<path class="st1" d="M23.7,23.1c3.4,3.8,6.6,7.7,10.3,11.3c0.2,0.2-0.2,0.4-0.4,0.2c-3.6-3.4-7.1-7.5-10-11.5
	C23.3,23.1,23.5,22.9,23.7,23.1z"/>
<path class="st1" d="M27.8,38.5c2.4,2.6,5.1,4.9,7.7,7.3c0.2,0.2,0,0.6-0.4,0.4c-2.8-2.4-5.1-4.9-7.7-7.5
	C27.4,38.5,27.6,38.3,27.8,38.5z"/>
<path class="st1" d="M34.6,41.5c3-2.8,5.1-6.2,6.2-10c0-0.2,0.2,0,0.2,0c-0.9,3.8-3,7.5-6,10.3C34.6,41.9,34.4,41.7,34.6,41.5z"/>
<path class="st1" d="M33.4,29.3c1.5-1.3,3-2.6,4.1-4.3c0.9-1.3,1.5-2.6,2.4-3.6c0,0,0.2,0,0,0c-1.1,1.3-1.7,3-2.8,4.5
	c-1.1,1.3-2.1,2.6-3.6,3.6C33.4,30,33.1,29.5,33.4,29.3z"/>
<path class="st2" d="M31.6,17.1c1.1-1.5,2.1-3.2,2.8-4.9c0.6-1.3,0.9-3,1.9-4.1h0.2c-1.1,1.3-1.5,3.4-2.1,5.1
	c-0.6,1.5-1.5,2.8-2.4,4.1C31.9,17.6,31.4,17.4,31.6,17.1z"/>
<path class="st1" d="M36.3,53.7c1.3-1.1,1.7-2.8,2.4-4.3c0.9-1.7,1.5-3.6,1.9-5.6c0-0.2,0.2,0,0.2,0c-0.4,1.9-0.9,3.8-1.7,5.6
	c-0.6,1.5-1.3,3.2-2.6,4.3C36.6,54.1,36.3,53.9,36.3,53.7z"/>
<path class="st1" d="M43.8,71c1.7-3.4,4.5-6.6,6.6-9.6c2.8-3.8,5.3-7.7,7.7-11.5c4.9-7.3,9.6-14.8,14.3-22h0.2
	c-4.5,7.5-9.4,14.8-14.1,22.2c-2.4,3.6-4.7,7.1-7.1,10.7c-2.4,3.4-5.6,6.8-7.3,10.7C44.3,71.5,43.8,71.2,43.8,71z"/>
<path class="st1" d="M67.1,24.4c-0.9,4.9-1.3,10-1.7,15c0,0.2-0.4,0.2-0.4,0c0.2-5.1,0.9-10,1.7-15C66.9,24.2,67.1,24.2,67.1,24.4z"
	/>
<path class="st1" d="M68,35.3c1.9-0.4,3.6-1.1,5.3-1.7c1.3-0.6,2.4-1.5,3.8-1.7c0.2,0,0.2,0.2,0,0.2c-1.5,0.2-2.8,1.3-4.1,1.9
	c-1.5,0.6-3.2,1.3-4.9,1.5C67.8,35.5,67.8,35.3,68,35.3z"/>
<path class="st1" d="M58.8,36.2c0.4,3.8,0.9,7.9,1.1,11.8c0,0.2-0.4,0.4-0.4,0C59,44.1,59,40,58.6,36.2C58.6,36.2,58.8,36,58.8,36.2
	z"/>
<path class="st1" d="M62,44.5c2.6-0.2,5.3-0.4,7.9-0.4c0.2,0,0.2,0.2,0,0.2c-2.6,0.4-5.3,0.6-7.9,0.6C62,44.7,61.8,44.5,62,44.5z"/>
<path class="st1" d="M54.3,44.5c-0.6,4.1-0.9,8.3-0.4,12.4c0,0.2-0.4,0.4-0.4,0C53,52.8,53.2,48.6,54.3,44.5
	C54.1,44.3,54.3,44.5,54.3,44.5z"/>
<path class="st1" d="M55.8,53.9c1.3-0.6,2.8-1.1,4.1-1.7c1.1-0.4,2.1-1.1,3.4-1.1c0.2,0,0.2,0.2,0,0.2c-1.3,0.2-2.6,0.9-3.6,1.3
	c-1.3,0.6-2.6,1.1-3.8,1.5C55.8,54.1,55.6,53.9,55.8,53.9z"/>
<path class="st3" d="M5.9,115.9c0.6,7.6,1.5,15.2,4.4,21.8c1.3,3,3.1,5.9,5.3,8.2c2.4,2.3,5.7,0.2,8.6,1.1
	c8.1,2.7,24.8,1.9,32.4-2.5c7.5-4.4,5-8.9,7.4-18.8c1.7-6.6,3.3-13.9,3.3-20.9c0-6.5,0.2-12.9-1.7-19c-0.4-1.3-0.9-2.7-1.8-3.6
	c-0.9-1.1-2.4-1.5-3.7-1.7c-3.5-0.8-7.2-0.9-10.8-1.1c-4.6-0.2-10.7-0.4-15.3-0.8c-5.7-0.2-9.9-0.6-15.4-0.2
	c-3.3,0.2-9.9-0.6-12.1,3.6c-1.7,3.2-0.6,9.5-0.4,13.1C6.4,102.1,5.3,108.9,5.9,115.9z"/>
</svg>
