<svg width="224" height="460" viewBox="0 0 224 460" fill="none" xmlns="http://www.w3.org/2000/svg">
<path opacity="0.14" d="M31.977 452.976C28.2652 451.321 27.4404 449.253 30.3273 446.771C32.8018 444.703 39.813 445.53 43.1124 445.53C58.372 444.703 74.044 444.289 89.3036 444.289C120.235 444.289 151.579 445.53 182.098 448.012C186.635 448.425 220.041 449.666 214.267 457.526C211.38 461.662 198.183 459.18 193.234 459.18C182.511 459.18 171.788 459.18 161.477 459.18C140.031 459.18 118.998 459.594 97.552 459.594C93.4278 460.007 45.1745 459.18 31.977 452.976Z" fill="black"/>
<path d="M214.514 121.353C214.926 120.939 215.339 120.112 215.339 119.285C216.164 117.63 216.576 115.976 217.401 114.321C217.813 113.494 217.813 112.667 218.226 111.839C218.226 111.012 218.226 110.185 217.401 109.771C216.989 109.357 216.164 109.357 215.339 109.357C214.514 109.357 214.102 109.771 213.277 110.598C212.039 111.839 210.802 113.08 209.977 114.735C209.565 115.976 209.153 117.217 207.915 118.458C207.503 118.871 207.09 119.285 206.678 119.699C206.266 119.699 205.853 120.939 206.266 121.767C207.503 124.662 213.277 123.421 214.514 121.353Z" fill="#7C6C61"/>
<path d="M154.713 146.585C159.25 158.167 167.498 165.613 172.035 177.195C173.272 180.504 178.633 187.122 177.809 190.845C176.571 196.636 174.509 197.463 168.735 199.118C157.187 182.572 141.928 163.131 129.143 147.412C121.719 138.726 109.759 108.943 127.081 111.839C144.815 113.907 149.351 132.521 154.713 146.585Z" fill="#7C6C61"/>
<path d="M204.616 125.903C206.266 123.421 209.153 120.94 211.215 123.008C205.853 142.449 196.78 159.822 192.656 179.677C191.419 185.882 190.594 192.086 185.645 195.396C183.583 197.05 180.696 197.464 178.221 197.877C173.272 198.705 170.798 201.187 167.911 197.05C164.199 191.259 168.735 185.882 172.447 181.745C176.984 177.195 178.634 173.886 181.521 167.681C188.119 153.204 195.955 139.14 204.616 125.903Z" fill="#7C6C61"/>
<path d="M130.793 185.468C127.081 180.091 122.957 174.713 120.895 168.509C118.833 162.304 118.42 155.686 118.42 149.068C118.008 137.072 117.595 125.076 117.183 113.494C126.669 113.908 135.742 114.321 145.228 114.735C153.064 128.799 158.425 143.69 163.787 158.581C168.736 171.818 173.685 185.468 178.634 198.705C182.345 209.046 186.057 219.387 188.119 230.142C188.944 235.519 189.357 241.31 186.057 245.447C172.035 262.406 164.611 235.106 159.25 226.005C151.001 211.941 140.691 199.118 130.793 185.468Z" fill="#CDCCC7"/>
<path d="M122.132 29.9376C115.533 35.7286 111.821 43.5878 109.347 51.8607C106.872 60.9609 106.46 70.8883 110.584 79.1612C114.708 87.4341 123.781 93.6388 132.855 92.3978C139.041 91.5706 144.402 87.4341 148.114 82.884C158.425 70.8883 161.312 53.1017 156.363 37.7968C154.301 31.5922 151.001 24.1466 144.402 22.492C137.391 20.4238 127.493 25.3875 122.132 29.9376Z" fill="#7C6C61"/>
<path d="M137.391 218.972C144.403 220.627 151.826 223.109 155.538 228.486C158.012 231.795 158.837 235.932 159.25 240.068C163.786 269.851 168.323 299.219 173.272 329.002C175.334 340.997 178.221 352.166 176.159 365.816C168.323 363.334 158.425 363.334 155.538 356.302C145.64 332.311 136.154 312.456 112.234 297.565C104.398 292.601 96.5616 273.987 92.4374 266.128C89.9629 261.578 89.9629 256.614 89.9629 251.65C89.9629 245.032 90.3753 238 90.7877 231.382C93.2623 206.149 116.77 214.009 137.391 218.972Z" fill="#4E4E4E"/>
<path d="M157.188 336.862C161.724 335.207 173.272 345.962 175.334 350.512C176.159 352.167 176.159 353.821 176.571 355.062C181.108 387.326 179.458 397.668 183.995 429.932C181.108 430.345 179.458 432 176.984 430.759C169.973 406.354 161.724 390.636 154.713 366.644C152.239 358.371 145.227 340.585 157.188 336.862Z" fill="#4E4E4E"/>
<path d="M87.076 403.872C79.24 415.454 73.4661 414.627 69.3418 427.036C63.1555 425.381 63.1555 427.45 62.3307 422.899C61.5058 418.763 63.1555 414.213 65.2176 410.49C71.404 397.667 73.8785 391.462 81.3021 378.639C92.4375 359.612 99.4486 339.757 102.336 319.488C103.985 309.147 104.398 298.392 103.985 288.051C103.573 279.365 97.3865 268.196 110.584 262.819C132.442 253.719 150.176 266.542 152.651 280.192C155.95 298.392 140.691 319.488 131.205 336.448C118.008 359.198 102.748 381.535 87.076 403.872Z" fill="#4E4E4E"/>
<path d="M151.826 19.5963C151.002 17.1144 149.352 15.0462 147.29 13.3916C147.29 13.3916 147.29 12.978 146.877 12.978C146.877 12.1507 146.877 11.3234 146.877 10.9098C146.465 8.42789 143.166 7.6006 140.691 8.42789C141.516 5.11873 136.567 2.63687 134.092 4.70509C133.267 2.22322 130.38 0.568648 127.906 0.982292C125.431 1.39594 123.782 3.8778 123.782 6.35967C122.957 5.11873 121.72 4.29145 120.482 3.46416C118.008 5.11873 116.771 7.6006 116.358 10.4961C113.884 8.42789 109.347 10.4961 108.935 13.8053C107.697 12.5643 105.635 12.978 104.398 14.2189C103.573 15.4598 103.161 17.5281 103.161 19.1826C101.923 17.5281 99.0364 17.9417 97.7992 19.5963C96.5619 21.2509 96.5619 23.7327 96.9743 25.8009C94.0874 26.6282 91.6129 28.2828 89.9632 31.1783C90.3756 32.0056 91.2004 32.8329 91.6129 33.6602C87.4886 33.6602 83.7768 38.2103 84.1893 42.3467C83.3644 43.5876 82.952 45.2422 83.3644 46.4832C84.1893 48.5514 86.2514 49.3787 88.3135 49.3787C86.6638 50.2059 85.4265 52.2742 85.839 54.3424C86.2514 55.5833 87.0762 56.8243 88.7259 57.6515C87.4886 59.7198 86.6638 62.2016 87.4886 64.6835C88.3135 67.1654 91.2004 67.9926 93.675 68.4063C94.0874 68.8199 94.4998 68.8199 95.3247 68.8199C96.1495 68.8199 96.9743 68.4063 97.3868 67.579C97.7992 67.579 97.7992 67.579 98.2116 67.1654C99.0364 67.9926 99.8613 68.4063 100.686 68.4063C101.511 67.9926 101.923 67.579 102.336 66.7517C102.748 67.1654 103.573 67.579 103.986 67.579C104.398 67.579 104.398 67.9927 104.81 67.9927L105.223 68.4063C105.223 67.579 105.635 67.1654 106.048 66.7517C106.872 66.3381 107.697 65.9244 108.11 65.9244C108.11 65.9244 108.11 65.9244 108.522 65.9244C108.522 65.9244 108.935 65.9244 108.935 65.5108C109.347 65.0971 109.759 65.0971 110.172 64.6835L109.759 64.2699C110.584 64.2699 110.997 63.8562 111.409 63.4426C112.646 62.2016 113.059 59.7198 113.884 58.4788C114.708 57.2379 115.533 55.1697 114.296 54.756C116.771 53.5151 118.833 51.4469 119.658 49.3787C122.544 50.2059 125.844 47.3104 125.844 44.0013C128.731 43.174 130.793 40.6921 131.205 37.7966C134.092 39.0376 137.392 36.5557 137.392 33.6602C137.804 35.3148 139.454 36.142 141.103 35.7284C142.753 35.3148 143.578 33.6602 143.166 32.0056C143.99 32.0056 144.403 32.4193 144.403 32.4193C144.815 31.1783 146.465 30.7647 147.702 29.9374C148.527 29.9374 148.939 29.9374 149.352 29.9374C149.352 29.5237 148.939 29.5237 148.939 29.1101C149.352 29.1101 149.352 29.1101 149.764 29.1101C150.589 28.6965 151.414 27.8692 151.826 27.0419C152.651 25.3873 153.476 23.7327 153.476 21.6645C153.476 20.8372 152.651 20.0099 151.826 19.5963Z" fill="#333333"/>
<path d="M198.43 111.012C199.667 107.703 200.905 103.98 202.142 100.671C202.967 99.0161 203.379 96.9479 204.204 95.2933C205.854 92.3978 208.328 89.9159 211.215 87.8477C212.452 87.0204 214.514 86.1931 215.752 87.0204C216.577 87.0204 216.989 87.4341 217.814 87.8477C219.051 88.675 220.288 89.5023 221.526 90.3296C221.938 90.7432 222.763 91.1569 223.175 91.5705C224 92.3978 224 93.6387 224 94.466C224 95.7069 223.588 96.5342 223.175 97.3615C220.701 102.739 216.577 107.289 213.69 112.253C212.452 114.321 211.628 115.976 210.39 118.044C209.153 120.112 207.091 122.18 205.441 123.835L205.029 124.248C204.616 124.248 204.204 124.248 203.792 123.835C202.142 123.007 200.905 121.767 199.255 120.939C198.842 120.526 198.43 120.112 198.018 119.698C197.605 119.285 197.605 118.457 197.605 118.044C196.368 116.389 197.193 113.494 198.43 111.012Z" fill="#EDEDED"/>
<path d="M209.565 118.043C208.741 120.112 207.503 122.18 205.441 123.007C202.967 123.834 200.492 122.18 198.43 120.939C197.605 120.112 196.78 119.698 195.955 118.871C195.131 117.216 195.543 115.561 195.955 113.907C197.193 109.77 198.842 106.048 200.492 102.325C201.729 99.0157 203.379 95.7065 205.029 92.811C205.441 91.9837 205.854 90.7428 206.678 90.3292C208.328 88.6746 210.803 88.2609 213.277 88.6746C215.752 89.0882 217.814 90.3292 219.464 91.5701C220.701 92.3974 221.938 93.2247 222.35 94.052C224 97.3611 219.051 102.738 217.401 104.807C214.514 108.529 211.628 113.08 209.565 118.043Z" fill="#333333"/>
<path d="M198.43 111.012C200.08 106.462 201.729 102.325 203.791 97.7753C205.029 95.2934 206.266 92.8115 208.328 90.7433C209.153 90.3297 209.565 89.916 210.39 89.916C210.803 89.916 211.627 89.916 212.04 90.3297C214.927 91.5706 217.401 92.8115 220.288 94.0525C216.989 99.4298 213.69 104.807 210.803 110.598C209.565 113.08 208.328 115.976 206.266 117.63C205.854 118.044 205.854 118.044 205.441 118.044C205.029 118.044 204.616 118.044 204.204 118.044C203.379 118.044 202.554 117.63 201.729 117.217C200.492 116.803 199.667 116.389 198.842 115.562C198.43 114.735 198.018 113.907 198.018 113.08C197.605 113.08 198.018 112.253 198.43 111.012Z" fill="white"/>
<path d="M200.905 119.285C201.729 120.526 199.667 120.526 199.255 119.698C198.43 118.457 200.492 118.457 200.905 119.285Z" fill="white"/>
<path d="M152.651 144.103C161.312 173.885 168.323 204.081 174.097 234.277C159.25 240.482 142.341 240.068 126.668 235.932C110.996 231.796 96.5617 224.764 82.127 217.732C85.0139 188.363 94.912 159.821 110.996 135.416C115.533 128.385 125.431 115.562 135.329 117.216C146.052 118.871 150.177 136.244 152.651 144.103Z" fill="white"/>
<path d="M143.578 123.421C144.403 118.871 144.815 113.493 141.103 110.598C138.629 108.943 135.742 108.943 132.855 108.943C129.556 108.943 126.669 108.943 123.369 108.943C120.895 108.943 118.008 108.943 115.533 110.184C111.409 112.253 109.347 116.803 107.697 120.939C94.9121 149.894 77.178 176.781 55.3197 199.531C54.0824 200.772 53.2576 201.6 52.8451 203.254C52.0203 206.15 53.67 209.045 55.3197 211.113C70.5793 231.796 93.2624 246.687 118.42 252.478C127.081 254.546 141.928 258.269 143.578 246.273C145.228 233.864 140.278 218.145 139.454 205.322C138.216 178.436 139.454 150.721 143.578 123.421Z" fill="#CDCCC7"/>
<path d="M2.11712 285.569C4.17923 288.051 7.89103 289.292 8.71587 292.188C9.12829 293.429 8.71587 294.67 8.71587 295.497C9.12829 297.151 9.95313 297.979 11.1904 299.22C17.3767 304.597 25.2127 306.665 31.8115 311.629C38.4102 316.593 44.1841 324.866 53.6698 322.384C62.3307 319.902 70.1667 316.179 75.1157 309.147C80.8896 301.288 82.9518 291.36 82.1269 281.847C82.1269 279.778 81.7145 278.124 80.8896 276.469C79.6524 274.401 78.0027 273.16 75.9406 271.919C73.4661 270.265 70.9915 269.437 68.517 268.196C68.517 267.783 68.517 267.783 68.9294 267.369C70.1667 264.06 70.5791 259.51 70.1667 255.787C69.7543 250.823 68.1046 245.86 63.9804 242.964C59.8561 240.069 54.4947 239.655 49.5456 241.31C45.009 242.964 40.8848 246.273 37.173 249.582C36.7605 249.996 36.3481 250.41 35.9357 250.823C31.8115 249.169 27.6873 247.928 23.1506 247.514C21.5009 247.101 19.4388 247.101 17.7891 247.514C14.9022 248.341 12.8401 250.823 10.778 253.305C7.06618 258.683 3.76681 264.06 1.29228 269.851C0.0550162 275.642 -1.18225 281.847 2.11712 285.569ZM45.4214 256.201C43.3593 254.96 41.2972 253.719 39.2351 252.478C45.009 247.928 51.6077 243.791 59.0313 243.791C59.8561 243.791 60.681 243.791 61.5058 244.205C63.1555 245.032 63.5679 246.687 64.3928 248.341C66.0425 254.133 66.0425 260.751 63.9804 266.955C60.681 265.715 57.794 264.474 54.9071 262.819C51.6077 260.751 48.7208 258.269 45.4214 256.201Z" fill="#03A678"/>
<path d="M61.0935 244.619C61.0935 243.792 61.9183 242.551 62.3308 241.723C62.7432 240.896 64.3929 239.242 65.6301 238.414C66.0426 238.001 66.455 238.001 66.455 238.001C70.5792 234.278 82.127 210.7 83.7767 208.218C89.963 197.877 95.3245 187.122 100.274 176.368C105.223 165.199 109.347 154.031 113.059 142.863C115.533 135.003 115.121 122.594 123.369 117.63C129.143 114.321 132.442 111.839 136.979 116.803C141.516 121.767 138.629 124.662 139.454 131.28C140.278 139.553 128.318 150.308 125.431 157.754C121.307 169.336 117.183 177.195 107.697 189.191C93.2624 207.805 86.6636 224.35 68.9295 240.069V240.483C69.3419 242.137 68.1047 243.792 67.2798 245.446C66.455 246.274 66.0426 247.101 64.8053 247.514C63.9805 247.928 62.7432 247.928 61.5059 247.514C61.5059 246.687 61.0935 245.86 61.0935 244.619Z" fill="#7C6C61"/>
<path d="M196.78 444.409C191.419 440.686 188.119 434.895 183.583 429.932C183.17 429.518 183.17 429.518 182.758 429.104C182.345 429.104 181.933 429.104 181.933 429.104C180.283 429.104 178.221 429.104 176.572 429.518C175.747 437.791 175.747 446.478 176.159 454.75C176.572 451.441 178.221 448.132 180.283 445.237C181.933 446.891 183.17 449.373 183.995 451.441C183.995 452.269 184.408 452.682 184.82 453.096C185.232 453.509 186.47 453.923 186.882 453.923C194.306 454.337 201.729 454.75 209.565 455.164C215.752 455.578 209.153 451.028 207.091 449.787C203.379 448.132 199.667 446.891 196.78 444.409Z" fill="#AA6A64"/>
<path d="M82.5394 450.613C78.8276 448.132 73.4661 447.718 70.5791 444.409C68.517 441.927 68.1046 438.618 68.1046 435.722C68.1046 432.827 68.517 429.518 69.3419 426.622C69.3419 426.208 70.1667 425.381 70.1667 425.795C67.6922 423.727 64.8052 422.072 61.9183 420.831C59.8562 424.967 57.3816 429.104 55.3195 433.24C53.2574 436.963 51.1953 440.686 48.3083 443.581C50.7829 441.927 53.2574 439.859 55.3195 438.204C55.3195 441.1 55.7319 443.581 56.5568 446.063C60.2686 446.891 63.568 448.545 66.8673 450.613C68.1046 451.441 69.3419 452.268 70.5791 452.682C71.8164 453.095 73.4661 453.095 74.7033 453.095C76.7655 453.095 79.24 453.095 81.3021 453.095C83.7766 452.682 85.0139 452.268 82.5394 450.613Z" fill="#AA6A64"/>
<path d="M99.8609 99.4297C102.748 97.7751 105.635 97.3615 108.934 96.9478C123.369 95.2933 138.629 98.6024 151.414 106.048C154.713 107.703 157.6 109.771 159.662 113.08C161.724 115.975 162.137 120.526 159.662 123.421C158.425 124.662 157.187 125.903 155.95 127.144C152.238 132.108 155.538 139.14 155.95 145.344C155.95 149.894 154.713 154.444 153.063 158.581C148.527 171.404 143.165 184.64 134.092 194.154C133.679 194.568 132.855 195.395 132.03 195.809C130.38 196.636 128.73 195.809 127.081 195.395C124.194 194.154 120.894 192.5 120.894 189.19C120.894 187.95 121.719 186.709 122.132 185.881C126.256 178.849 130.38 171.817 134.917 165.199C141.103 154.858 147.702 143.276 144.815 131.694C131.617 123.421 112.234 125.903 99.8609 115.562C97.3864 113.494 95.3243 111.012 95.3243 107.703C94.9119 103.98 96.974 101.084 99.8609 99.4297Z" fill="#AA6A64"/>
</svg>
