<?xml version="1.0" encoding="utf-8"?>
<!-- Generator: Adobe Illustrator 21.1.0, SVG Export Plug-In . SVG Version: 6.00 Build 0)  -->
<svg version="1.1" id="Layer_1" xmlns="http://www.w3.org/2000/svg" xmlns:xlink="http://www.w3.org/1999/xlink" x="0px" y="0px"
	 viewBox="0 0 1600 1019" style="enable-background:new 0 0 1600 1019;" xml:space="preserve">
<style type="text/css">
	.st0{fill:#F2F4F7;}
	.st1{fill:#BAC3CC;}
	.st2{fill:#CAD1D8;}
</style>
<path class="st0" d="M919.5,861.8c-1-39.3-0.7-78.6,1-117.9c-1.9,2.7-5,2.8-7.7,2.7c-7.6-0.1-15-0.3-22.5-0.4
	c-9.5-0.1-19.1-0.4-28.6-2.4c-5.9-1.2-11.7-3.1-17.5-4.3c-1-0.1-2.4-0.3-3.1,0.7c-0.6,0.9-0.7,2.2-0.7,3.4
	c-1,25.7-0.9,51.5-0.3,77.1c0.9,45.7,2.8,91.5,1,137.2c-0.3,7-2.8,18.2,3.7,20c7.3,1.9,17.1-1.2,24.6-1.6c16.6-1.2,33.2-2.2,50-3.4
	c0.6,0,1.3-0.1,1.8-0.7c0.6-0.6,0.6-1.8,0.6-2.7C922.7,933.6,920.6,897.7,919.5,861.8z M885,752.1c5.5-0.7,11.9-0.7,17.5-1
	c0.3,0,0.6,0,0.7,0.1c0.1,0.1,0.1,0.3,0.1,0.4c-0.3,2.4-0.6,4.7-0.9,7.1c-0.1,0.7-0.3,1.5-1,1.9c-0.9,0.4-2.4,0.6-3.6,0.4
	c-4.2,0-8.5-0.1-12.6-0.4c-0.4,0-1,0-1.5-0.1c-1.5-0.4-1.8-1.5-1.8-2.4C881.6,755.3,879.8,752.8,885,752.1z M884.8,795.1
	c5-0.7,11.4-0.3,16.6-0.1c1.3,3.3,1.3,6.8,0,10.1c0,0.1-0.1,0.3-0.3,0.3c-0.1,0.1-0.6,0.1-0.9,0.1c-4,0-8,0-12,0
	c-1.5,0-3.1,0-4.2-0.6c-1-0.6-1.2-1.5-1.3-2.4c-0.1-1.6-0.3-3.1-0.4-4.7C882.3,795.8,881.6,795.5,884.8,795.1z M884.1,781.3
	c1.3-1,3.4-1.5,5.6-1.6c1-0.1,10.8-0.4,11.1,0c1,2.8,1.2,5.8,0.6,8.6c0,0.1-0.1,0.3-0.3,0.4c-0.1,0.1-0.4,0.1-0.7,0.1
	c-4.4,0.1-8.9,0.4-13.2,0.6C881.9,789.7,881.9,783.2,884.1,781.3z M853.1,752.1c5.5-0.7,11.9-0.7,17.5-1c0.3,0,0.6,0,0.7,0.1
	c0.1,0.1,0.1,0.3,0.1,0.4c-0.3,2.4-0.6,4.7-0.9,7.1c-0.1,0.7-0.3,1.5-1,1.9c-0.9,0.4-2.4,0.6-3.6,0.4c-4.2,0-8.5-0.1-12.6-0.4
	c-0.4,0-1,0-1.5-0.1c-1.5-0.4-1.8-1.5-1.8-2.4C849.7,755.3,847.9,752.8,853.1,752.1z M853.1,795.1c5-0.7,11.4-0.3,16.6-0.1
	c1.3,3.3,1.3,6.8,0,10.1c0,0.1-0.1,0.3-0.3,0.3c-0.1,0.1-0.6,0.1-0.9,0.1c-4,0-8,0-12,0c-1.5,0-3.1,0-4.2-0.6
	c-1-0.6-1.2-1.5-1.3-2.4c-0.1-1.6-0.3-3.1-0.4-4.7C850.6,795.8,849.8,795.5,853.1,795.1z M852.4,781.3c1.3-1,3.4-1.5,5.6-1.6
	c1-0.1,10.8-0.4,11.1,0c1,2.8,1.2,5.8,0.6,8.6c0,0.1-0.1,0.3-0.3,0.4c-0.1,0.1-0.4,0.1-0.7,0.1c-4.4,0.1-8.9,0.4-13.2,0.6
	C850,789.7,850,783.2,852.4,781.3z M870.6,816.6c-0.1,0.7-0.3,1.5-1,1.9c-0.9,0.4-2.4,0.6-3.6,0.4c-4.2,0-8.5-0.1-12.6-0.4
	c-0.4,0-1,0-1.5-0.1c-1.5-0.4-1.8-1.5-1.8-2.4c-0.3-2.7-2.1-5.2,3.1-5.9c5.5-0.7,11.9-0.7,17.5-1c0.3,0,0.6,0,0.7,0.1
	c0.1,0.1,0.1,0.3,0.1,0.4C871.3,811.8,870.9,814.2,870.6,816.6z M872.8,769.1c0,1.9,0,4-0.1,5.9c-5.6,0-11.7,0-17.2-0.6
	c-4.9-0.4-5.2-2.7-4.4-5.2c1.6-5.2,12-4.2,19-4.3c0.4,0,0.9,0,1.2,0.1c0.3,0.1,0.4,0.3,0.6,0.4C872.8,766.7,872.8,767.9,872.8,769.1
	z M902.5,816.6c-0.1,0.7-0.3,1.5-1,1.9c-0.9,0.4-2.4,0.6-3.6,0.4c-4.2,0-8.5-0.1-12.6-0.4c-0.4,0-1,0-1.5-0.1
	c-1.5-0.4-1.8-1.5-1.8-2.4c-0.3-2.7-2.1-5.2,3.1-5.9c5.5-0.7,11.9-0.7,17.5-1c0.3,0,0.6,0,0.7,0.1s0.1,0.3,0.1,0.4
	C903.1,811.8,902.8,814.2,902.5,816.6z M904.7,769.1c0,1.9,0,4-0.1,5.9c-5.6,0-11.7,0-17.2-0.6c-4.9-0.4-5.2-2.7-4.4-5.2
	c1.6-5.2,12-4.2,19-4.3c0.4,0,0.9,0,1.2,0.1c0.3,0.1,0.4,0.3,0.6,0.4C904.7,766.7,904.7,767.9,904.7,769.1z"/>
<path class="st1" d="M1076.7,761.6c13.3,1,26.8,0.9,40.2-0.3c1.3-43.9,2.7-87.8,3.8-131.7c-11.9-0.9-23.7-1.5-35.6-1.2
	c-4.2,0.1-7.7-0.3-9.1,4c-1.5,4.4,0.3,12.3,0.4,17.1c0.7,24,0.7,48.2,0.6,72.2C1077.2,724.9,1076.4,761.6,1076.7,761.6z"/>
<path class="st0" d="M1251.6,790.9c0-2.2-0.1-4.6-0.9-6.4c-1.5-3.6-4.8-3.7-7.6-3.4c-32.9,3.1-65.8,6.4-98.8,9.5
	c-0.7,0-1.6,72.1-1.6,78.6c-0.2,24-0.2,48.2,0.2,72.2c0.2,8.6-1.8,27,0.7,34.6c2.8,7.9,8.2,5.5,13.5,5.3c30.8-0.9,61.8-1.8,92.7-2.7
	C1252.5,916.2,1253.1,853.5,1251.6,790.9z M1221.2,798.3c3.8-0.9,8.3-0.9,12.2-1.3c0.1,0,0.4,0,0.6,0.1c0.1,0.1,0.1,0.3,0.1,0.6
	c-0.1,3-0.4,5.8-0.6,8.7c0,0.9-0.1,1.8-0.7,2.4c-0.6,0.6-1.6,0.6-2.5,0.6c-3,0-5.9-0.3-8.8-0.6c-0.3,0-0.7-0.1-1-0.3
	c-1-0.4-1.2-1.8-1.3-3C1218.8,802.5,1217.6,799.2,1221.2,798.3z M1232.7,863.3c0,0.1-0.1,0.3-0.1,0.4c-0.2,0.1-0.4,0.1-0.6,0.1
	c-2.8,0-5.6,0-8.4,0c-1,0-2.1,0-2.8-0.7c-0.7-0.7-0.9-1.8-0.9-2.8c-0.1-1.9-0.1-3.9-0.3-5.8c-0.2-2.4-0.6-2.8,1.6-3.4
	c3.6-0.9,8-0.3,11.6-0.1C1233.6,855,1233.6,859.1,1232.7,863.3z M1220.6,834.2c0.9-1.3,2.4-1.8,3.9-2.1c0.7-0.1,7.6-0.6,7.7,0
	c0.7,3.6,0.7,7.1,0.4,10.7c0,0.1,0,0.4-0.2,0.6c-0.1,0.1-0.3,0.1-0.6,0.1c-3.1,0.3-6.2,0.4-9.2,0.7
	C1219.1,844.5,1218.9,836.6,1220.6,834.2z M1235,826.7c-3.9,0-8.2,0-12-0.7c-3.4-0.6-3.7-3.3-3.1-6.4c1.2-6.2,8.3-5,13.2-5.3
	c0.3,0,0.6,0,0.9,0.1c0.1,0.1,0.3,0.3,0.4,0.6c0.6,1.3,0.6,2.8,0.6,4.3C1235,821.8,1235,824.3,1235,826.7z"/>
<path class="st2" d="M1081.2,638.5c0,0.3,0.1,0.7,0.4,0.9c0.2,0,0.2,0,0.3,0.1c0.9,0.1,1.9,0.1,2.8,0.1c0.3,0,0.6,0,0.7-0.1
	c0.2-0.1,0.3-0.4,0.3-0.7c0-0.9,0.2-1.9,0.2-2.8v-0.1h-0.2c-1.3,0.1-2.7,0.1-4,0.4C1080.7,636.4,1081,637.4,1081.2,638.5z"/>
<path class="st2" d="M1085.6,641.3c0.1,0,0.1,0,0.3,0l0.1,0.1c0.2,0.4,0.2,0.9,0.2,1.3c0,0.7,0,1.6,0,2.4c-1.3,0-2.7,0-3.9-0.1
	c-1-0.1-1.2-1-1-2.1C1081.8,641,1084.1,641.3,1085.6,641.3z"/>
<path class="st2" d="M1085.5,647.1c0.2,1.2,0.3,2.2,0.2,3.4v0.1h-0.2c-1,0.1-1.9,0.1-3,0.3c-1.2,0.1-1.2-2.5-0.6-3.3
	c0.3-0.4,0.7-0.6,1.2-0.7C1083.1,647.1,1085.3,646.8,1085.5,647.1z"/>
<path class="st2" d="M1085.6,653c0.3,1.3,0.3,2.7,0,4v0.1h-0.2c-0.9,0-1.8,0-2.7,0c-0.3,0-0.7,0-0.9-0.3c-0.3-0.3-0.3-0.6-0.3-0.9
	c0-0.6,0-1.2-0.2-1.9c0-0.7-0.1-0.9,0.6-1C1083,652.9,1084.4,653,1085.6,653z"/>
<path class="st2" d="M1081.2,661.3c0,0.3,0.1,0.7,0.4,0.9c0.2,0,0.2,0,0.3,0.1c0.9,0.1,1.9,0.1,2.8,0.1c0.3,0,0.6,0,0.7-0.1
	c0.2-0.1,0.3-0.4,0.3-0.7c0-0.9,0.2-1.9,0.2-2.8v-0.1h-0.2c-1.3,0.1-2.7,0.1-4,0.4C1080.7,659.4,1081,660.4,1081.2,661.3z"/>
<path class="st2" d="M1085.6,664.1c0.1,0,0.1,0,0.3,0l0.1,0.1c0.2,0.4,0.2,0.9,0.2,1.3c0,0.7,0,1.6,0,2.4c-1.3,0-2.7,0-3.9-0.1
	c-1-0.1-1.2-1-1-2.1C1081.8,663.8,1084.1,664.3,1085.6,664.1z"/>
<path class="st2" d="M1085.5,669.9c0.2,1.2,0.3,2.2,0.2,3.4v0.1h-0.2c-1,0.1-1.9,0.1-3,0.3c-1.2,0.1-1.2-2.5-0.6-3.3
	c0.3-0.4,0.7-0.6,1.2-0.7C1083.1,669.9,1085.3,669.8,1085.5,669.9z"/>
<path class="st2" d="M1085.6,676c0.3,1.3,0.3,2.7,0,4v0.1h-0.2c-0.9,0-1.8,0-2.7,0c-0.3,0-0.7,0-0.9-0.3c-0.3-0.3-0.3-0.6-0.3-0.9
	c0-0.6,0-1.2-0.2-1.9c0-0.7-0.1-0.9,0.6-1C1083,675.8,1084.4,676,1085.6,676z"/>
<path class="st2" d="M1088.3,638.5c0,0.3,0.1,0.7,0.4,0.9c0.2,0,0.2,0,0.3,0.1c0.9,0.1,1.9,0.1,2.8,0.1c0.3,0,0.6,0,0.8-0.1
	c0.1-0.1,0.3-0.4,0.3-0.7c0-0.9,0.2-1.9,0.2-2.8v-0.1h-0.2c-1.3,0.1-2.7,0.1-4,0.4C1087.8,636.4,1088.3,637.4,1088.3,638.5z"/>
<path class="st2" d="M1092.9,641.3c0.2,0,0.2,0,0.3,0l0.2,0.1c0.2,0.4,0.2,0.9,0.2,1.3c0,0.7,0,1.6,0,2.4c-1.3,0-2.7,0-3.9-0.1
	c-1-0.1-1.2-1-1-2.1C1088.9,641,1091.3,641.3,1092.9,641.3z"/>
<path class="st2" d="M1092.6,647.1c0.1,1.2,0.3,2.2,0.1,3.4v0.1h-0.1c-1,0.1-1.9,0.1-3,0.3c-1.2,0.1-1.2-2.5-0.6-3.3
	c0.3-0.4,0.7-0.6,1.2-0.7C1090.4,647.1,1092.6,646.8,1092.6,647.1z"/>
<path class="st2" d="M1092.7,653c0.3,1.3,0.3,2.7,0,4v0.1h-0.1c-0.9,0-1.8,0-2.7,0c-0.3,0-0.8,0-0.9-0.3c-0.3-0.3-0.3-0.6-0.3-0.9
	c0-0.6,0-1.2-0.2-1.9c0-0.7-0.2-0.9,0.6-1C1090.2,652.9,1091.6,653,1092.7,653z"/>
<path class="st2" d="M1088.3,661.3c0,0.3,0.1,0.7,0.4,0.9c0.2,0,0.2,0,0.3,0.1c0.9,0.1,1.9,0.1,2.8,0.1c0.3,0,0.6,0,0.8-0.1
	c0.1-0.1,0.3-0.4,0.3-0.7c0-0.9,0.2-1.9,0.2-2.8v-0.1h-0.2c-1.3,0.1-2.7,0.1-4,0.4C1087.8,659.4,1088.3,660.4,1088.3,661.3z"/>
<path class="st2" d="M1092.9,664.1c0.2,0,0.2,0,0.3,0l0.2,0.1c0.2,0.4,0.2,0.9,0.2,1.3c0,0.7,0,1.6,0,2.4c-1.3,0-2.7,0-3.9-0.1
	c-1-0.1-1.2-1-1-2.1C1088.9,663.8,1091.3,664.3,1092.9,664.1z"/>
<path class="st2" d="M1092.6,669.9c0.1,1.2,0.3,2.2,0.1,3.4v0.1h-0.1c-1,0.1-1.9,0.1-3,0.3c-1.2,0.1-1.2-2.5-0.6-3.3
	c0.3-0.4,0.7-0.6,1.2-0.7C1090.4,669.9,1092.6,669.8,1092.6,669.9z"/>
<path class="st2" d="M1092.7,676c0.3,1.3,0.3,2.7,0,4v0.1h-0.1c-0.9,0-1.8,0-2.7,0c-0.3,0-0.8,0-0.9-0.3c-0.3-0.3-0.3-0.6-0.3-0.9
	c0-0.6,0-1.2-0.2-1.9c0-0.7-0.2-0.9,0.6-1C1090.2,675.8,1091.6,676,1092.7,676z"/>
<path class="st0" d="M1236.9,715.7c-0.9-24.9-0.6-49.8,0.9-74.7c-1.8,1.6-4.5,1.8-6.8,1.8c-6.7-0.1-13.2-0.1-19.9-0.3
	c-8.4-0.1-16.9-0.3-25.2-1.5c-5.2-0.7-10.2-2.1-15.4-2.8c-0.9-0.1-2.1-0.1-2.7,0.4c-0.6,0.6-0.6,1.3-0.7,2.2
	c-0.9,16.3-0.7,32.6-0.3,48.9c0.7,29.1,2.5,58,1,87c-0.3,4.4-2.4,11.6,3.3,12.8c6.5,1.2,15-0.7,21.6-1c14.7-0.7,29.4-1.5,44.1-2.2
	c0.6,0,1,0,1.5-0.4c0.5-0.4,0.5-1,0.6-1.8C1239.7,761.3,1237.8,738.6,1236.9,715.7z M1206.5,646.2c4.9-0.4,10.5-0.4,15.4-0.6
	c0.3,0,0.4,0,0.6,0s0.2,0.1,0.2,0.3c-0.3,1.5-0.6,3-0.7,4.4c-0.2,0.4-0.2,0.9-1,1.2c-0.7,0.3-2.1,0.3-3.1,0.3
	c-3.7,0-7.4-0.1-11.1-0.3c-0.4,0-0.9,0-1.3-0.1c-1.3-0.3-1.5-0.9-1.6-1.5C1203.5,648.3,1201.9,646.6,1206.5,646.2z M1206.3,673.5
	c4.5-0.4,10.1-0.1,14.7-0.1c1.2,2.1,1.2,4.3,0,6.4c0,0.1-0.2,0.1-0.3,0.3c-0.2,0-0.4,0.1-0.7,0.1c-3.6,0-7.1,0-10.7,0
	c-1.3,0-2.7,0-3.6-0.4c-0.9-0.3-1-0.9-1.2-1.5c-0.2-1-0.3-1.9-0.5-3C1204.1,673.9,1203.5,673.8,1206.3,673.5z M1205.7,664.7
	c1.2-0.7,3-0.9,4.9-1c0.9,0,9.6-0.3,9.8,0c0.9,1.8,1,3.7,0.4,5.5c0,0.1,0,0.1-0.3,0.3c-0.1,0-0.4,0.1-0.7,0.1
	c-3.8,0.1-7.9,0.3-11.7,0.4C1203.7,670.1,1203.7,665.9,1205.7,664.7z M1178.5,646.2c4.9-0.4,10.5-0.4,15.4-0.6c0.3,0,0.4,0,0.6,0
	c0.2,0,0.2,0.1,0.2,0.3c-0.3,1.5-0.6,3-0.7,4.4c-0.2,0.4-0.2,0.9-1,1.2c-0.7,0.3-2.1,0.3-3.1,0.3c-3.7,0-7.4-0.1-11.1-0.3
	c-0.4,0-0.9,0-1.3-0.1c-1.3-0.3-1.5-0.9-1.6-1.5C1175.5,648.3,1173.9,646.6,1178.5,646.2z M1178.3,673.5c4.4-0.4,10.1-0.1,14.7-0.1
	c1.2,2.1,1.2,4.3,0,6.4c0,0.1-0.2,0.1-0.3,0.3c-0.1,0-0.4,0.1-0.7,0.1c-3.6,0-7.1,0-10.7,0c-1.3,0-2.7,0-3.6-0.4
	c-0.9-0.3-1-0.9-1.2-1.5c-0.2-1-0.3-1.9-0.5-3C1176.1,673.9,1175.5,673.8,1178.3,673.5z M1177.7,664.7c1.2-0.7,3-0.9,4.9-1
	c0.9,0,9.6-0.3,9.8,0c0.9,1.8,1,3.7,0.4,5.5c0,0.1,0,0.1-0.3,0.3c-0.2,0-0.5,0.1-0.8,0.1c-3.9,0.1-7.9,0.3-11.7,0.4
	C1175.6,670.1,1175.6,665.9,1177.7,664.7z M1193.9,687.1c-0.2,0.4-0.2,0.9-1,1.2c-0.7,0.3-2.1,0.3-3.1,0.3c-3.7,0-7.4-0.1-11.1-0.3
	c-0.4,0-0.9,0-1.3-0.1c-1.3-0.3-1.5-0.9-1.6-1.5c-0.2-1.6-1.8-3.3,2.8-3.7c4.9-0.4,10.5-0.4,15.4-0.6c0.3,0,0.4,0,0.6,0
	c0.2,0,0.2,0.1,0.2,0.3C1194.5,684.1,1194.2,685.6,1193.9,687.1z M1195.7,660.7c-4.9,0-10.2,0-15.1-0.3c-4.3-0.3-4.6-1.6-3.8-3.3
	c1.3-3.3,10.5-2.7,16.8-2.7c0.3,0,0.7,0,1,0c0.3,0,0.5,0.1,0.6,0.3c0.9,0.7,0.9,1.5,0.7,2.2C1195.8,658.2,1195.8,659.5,1195.7,660.7
	z M1221.9,687.1c-0.2,0.4-0.2,0.9-1,1.2c-0.7,0.3-2.1,0.3-3.1,0.3c-3.7,0-7.4-0.1-11.1-0.3c-0.4,0-0.9,0-1.3-0.1
	c-1.3-0.3-1.5-0.9-1.6-1.5c-0.2-1.6-1.8-3.3,2.8-3.7c4.9-0.4,10.5-0.4,15.4-0.6c0.3,0,0.4,0,0.6,0s0.2,0.1,0.2,0.3
	C1222.5,684.1,1222.2,685.6,1221.9,687.1z M1223.8,660.7c-4.9,0-10.2,0-15.1-0.3c-4.3-0.3-4.6-1.6-3.9-3.3
	c1.3-3.3,10.5-2.7,16.8-2.7c0.3,0,0.7,0,1,0c0.3,0,0.4,0.1,0.6,0.3c0.9,0.7,0.9,1.5,0.7,2.2C1223.8,658.2,1223.8,659.5,1223.8,660.7
	z"/>
<path class="st0" d="M1437.5,816.1c0.3-11.4,0.3-23,0.2-34.6c0-3.1-0.6-37.5-1-37.5c-22.1-1.5-44.3-3-66.4-4.6c-1.8-0.1-4,0-5,1.6
	c-0.6,0.9-0.6,2.1-0.6,3.1c-0.9,30-1,212.5,0.7,242.5c20.8,0.4,41.5,0.9,62.4,1.2c3.6,0,7.3,1.2,9.2-2.5
	C1438.3,981.8,1437.4,820.3,1437.5,816.1z M1375.5,767.3c0-1,0-2.2,0.4-3.1c0-0.1,0.1-0.3,0.3-0.4c0.2-0.1,0.3-0.1,0.6-0.1
	c3.3,0.1,8.2-0.7,8.9,3.9c0.4,2.2,0.2,4.2-2.1,4.6c-2.7,0.4-5.5,0.4-8,0.4C1375.5,770.9,1375.5,769.1,1375.5,767.3z M1383.8,785.4
	c-2.1-0.1-4.2-0.3-6.2-0.6c-0.2,0-0.3,0-0.3-0.1c-0.1-0.1-0.1-0.3-0.1-0.4c-0.3-2.5-0.2-5.2,0.3-7.7c0.2-0.4,4.7,0,5.2,0
	c1,0.1,1.9,0.6,2.7,1.5C1386.2,779.9,1386.2,785.6,1383.8,785.4z M1385.9,792.8c0,1.3-0.2,2.8-0.2,4.2c0,0.7-0.2,1.5-0.6,2.1
	c-0.4,0.4-1.2,0.6-1.9,0.6c-1.9,0-3.7,0-5.6,0c-0.2,0-0.3,0-0.4-0.1c-0.2-0.1-0.2-0.1-0.2-0.3c-0.6-3-0.6-6.1,0-8.9
	c2.4-0.1,5.5-0.4,7.9,0.1C1386.4,790.8,1386.1,791.1,1385.9,792.8z M1386.2,757.4c0,0.9-0.2,1.8-0.9,2.2c-0.1,0.1-0.4,0.1-0.7,0.1
	c-1.9,0.3-4,0.4-5.9,0.4c-0.6,0-1.3,0-1.6-0.4c-0.4-0.4-0.4-1-0.6-1.8c-0.2-2.1-0.3-4.2-0.4-6.4c0-0.1,0-0.3,0.1-0.4
	c0.2-0.1,0.3-0.1,0.3,0c2.7,0.3,5.6,0.3,8.3,0.9C1387.3,752.8,1386.4,755,1386.2,757.4z"/>
<path class="st0" d="M1523.4,805.9c-0.4-5.6-0.2-11.4,0.2-17.2c0.4-8.9,0.7-17.9,1.2-26.8c-9.8,0-19.6,0-29.4,0
	c-1.5,0-3.3,0.1-4.3,1.3c-1,1.2-1,3.1-1,4.9c0.2,7.7,0.3,15.4,0.4,23.1c0.2,8.7-0.2,172.9,1.2,181.5c0.1,0.7,0.3,1.6,0.7,2.1
	c0.4,0.4,1,0.6,1.6,0.6c5.5,0.6,11,1,16.6,1.3c3.1,0.1,11.7,2.2,13.6-0.9C1526.2,972.9,1523.7,809.3,1523.4,805.9z M1504,774.5
	c-0.1-0.1-0.1-0.3-0.1-0.6c0-0.9,0-1.6,0-2.5c0-0.3,0-0.4,0.1-0.7c0.2-0.4,0.8-0.4,1-0.4c2.4-0.1,4.8,0.6,7,0.7
	c1.6,0.1,3.6-0.3,5,0.4c1,0.6,1.9,1.9,0.6,2.7c-1.2,0.7-4.9,0.1-6.4,0.3c-2.2,0.1-4.4,0.1-6.5,0.3
	C1504.6,774.8,1504.1,774.8,1504,774.5z M1517.5,787.1c0,0.3-0.1,0.4-0.3,0.6s-0.3,0.1-0.6,0.1c-3.9-0.1-7.7-0.3-11.7-0.4
	c-0.1-1.2-0.3-2.4-0.2-3.6c0-0.1,0-0.3,0.2-0.3c0,0,0.2-0.1,0.3-0.1c2.8-0.3,5.5-0.4,8.3-0.1
	C1516.3,783.5,1518.6,783.4,1517.5,787.1z M1518.5,780.8c0,0.1,0,0.3-0.2,0.4c-0.2,0.3-0.4,0.3-0.7,0.3c-4.2-0.1-8.3,0-12.3,0.3
	c-0.2,0-0.3,0-0.5,0c-0.1-0.1-0.2-0.3-0.2-0.4c-0.1-1.2-0.1-2.5-0.1-3.7c0-0.1,0-0.3,0.1-0.4c0.2-0.1,0.3-0.1,0.5-0.1
	c2.8,0,5.8,0.1,8.6,0.3c0.9,0,3.6-0.3,4.3,0.4C1518.8,778.3,1518.5,779.8,1518.5,780.8z"/>
<path class="st0" d="M1483.2,874.7c0-0.6-0.1-1.2-0.4-1.6c-0.4-0.4-1.2-0.4-1.8-0.3c-3.6,0.6-7,1.5-10.4,1.9
	c-5.6,0.9-11.3,1-16.9,1.2c-4.4,0.1-8.9,0.1-13.3,0.3c-1.6,0-3.4,0-4.6-1.2c1,18.1,1.3,36.2,0.6,54.3c-0.6,16.5-1.9,33.1-1.3,49.5
	c0,0.4,0,0.9,0.3,1.2c0.3,0.3,0.6,0.3,1,0.3c9.9,0.6,19.7,1,29.7,1.6c4.4,0.3,10.2,1.6,14.5,0.7c3.9-0.7,2.4-5.9,2.2-9.2
	c-1-21.1,0.2-42.1,0.6-63.2C1483.7,898.4,1483.8,886.6,1483.2,874.7z M1444.9,886.4c0-0.6,0-1.2,0.6-1.6c0.1-0.1,0.1-0.1,0.4-0.1
	c0.2,0,0.5,0,0.7,0c4.2,0,10.2-0.4,11.3,1.9c0.4,1.2,0.3,2.2-2.7,2.4c-3.3,0.3-6.8,0.3-10.2,0.3
	C1444.9,888.3,1444.9,887.5,1444.9,886.4z M1446.9,898.3c3.1,0,6.8-0.3,9.9,0c1.9,0.1,1.5,0.3,1.3,1.3c-0.2,0.7-0.2,1.5-0.3,2.2
	c0,0.4-0.1,0.7-0.7,1c-0.6,0.3-1.6,0.3-2.4,0.3c-2.4,0-4.8,0-7.1,0c-0.2,0-0.3,0-0.4,0c-0.2,0-0.2-0.1-0.2-0.1
	C1446.1,901.4,1446.1,899.9,1446.9,898.3z M1447.3,891.3c0.1-0.1,5.9,0,6.5,0c1.3,0.1,2.5,0.3,3.3,0.7c1.3,0.9,1.3,3.9-1.8,3.7
	c-2.7-0.1-5.2-0.1-7.9-0.3c-0.1,0-0.3,0-0.4,0s-0.2-0.1-0.2-0.1C1446.6,894,1446.7,892.6,1447.3,891.3z M1458.6,908.1
	c0,0.4-0.2,0.9-1,1.2c-0.3,0-0.6,0.1-0.9,0.1c-2.5,0.1-5,0.1-7.6,0.1c-0.7,0-1.6,0-2.1-0.3c-0.6-0.1-0.6-0.6-0.6-0.9
	c-0.2-1-0.3-2.2-0.6-3.3c0,0,0-0.1,0.2-0.1s0.3,0,0.5,0c3.4,0.1,7.1,0.1,10.4,0.4C1459.8,905.5,1458.7,906.9,1458.6,908.1z
	 M1458.6,881.4c0,0.4-0.2,0.9-1,1.2c-0.3,0-0.6,0.1-0.9,0.1c-2.5,0.1-5,0.1-7.6,0.1c-0.7,0-1.6,0-2.1-0.3c-0.6-0.1-0.6-0.6-0.6-0.9
	c-0.2-1-0.3-2.2-0.6-3.3c0,0,0-0.1,0.2-0.1s0.3,0,0.5,0c3.4,0.1,7.1,0.1,10.4,0.4C1459.8,878.9,1458.7,880.2,1458.6,881.4z
	 M1463.9,886.4c0-0.6,0-1.2,0.6-1.6c0.2-0.1,0.2-0.1,0.4-0.1c0.2,0,0.5,0,0.7,0c4.2,0,10.2-0.4,11.3,1.9c0.5,1.2,0.3,2.2-2.7,2.4
	c-3.3,0.3-6.8,0.3-10.2,0.3C1463.9,888.3,1463.9,887.5,1463.9,886.4z M1465.7,898.3c3.1,0,6.8-0.3,9.9,0c1.9,0.1,1.5,0.3,1.3,1.3
	c-0.1,0.7-0.1,1.5-0.3,2.2c0,0.4-0.2,0.7-0.7,1c-0.6,0.3-1.6,0.3-2.4,0.3c-2.4,0-4.7,0-7.1,0c-0.1,0-0.3,0-0.4,0s-0.2-0.1-0.2-0.1
	C1465,901.4,1465,899.9,1465.7,898.3z M1466.2,891.3c0.2-0.1,5.9,0,6.5,0c1.3,0.1,2.5,0.3,3.3,0.7c1.3,0.9,1.3,3.9-1.8,3.7
	c-2.7-0.1-5.2-0.1-7.9-0.3c-0.2,0-0.3,0-0.5,0s-0.2-0.1-0.2-0.1C1465.6,894,1465.6,892.6,1466.2,891.3z M1477.4,908.1
	c0,0.4-0.2,0.9-1,1.2c-0.3,0-0.6,0.1-0.9,0.1c-2.5,0.1-5,0.1-7.6,0.1c-0.7,0-1.6,0-2.1-0.3c-0.6-0.1-0.6-0.6-0.6-0.9
	c-0.2-1-0.3-2.2-0.6-3.3c0,0,0-0.1,0.1-0.1c0.1,0,0.3,0,0.4,0c3.4,0.1,7.1,0.1,10.4,0.4C1478.6,905.5,1477.6,906.9,1477.4,908.1z
	 M1477.4,881.4c0,0.4-0.2,0.9-1,1.2c-0.3,0-0.6,0.1-0.9,0.1c-2.5,0.1-5,0.1-7.6,0.1c-0.7,0-1.6,0-2.1-0.3c-0.6-0.1-0.6-0.6-0.6-0.9
	c-0.2-1-0.3-2.2-0.6-3.3c0,0,0-0.1,0.1-0.1c0.1,0,0.3,0,0.4,0c3.4,0.1,7.1,0.1,10.4,0.4C1478.6,878.9,1477.6,880.2,1477.4,881.4z"/>
<path class="st0" d="M569.3,672c-6.8,0.1-12.6-0.6-15,8.8c-2.4,9.6,0.6,26.4,0.9,36.6c1.2,51.9,1.2,103.8,0.9,155.7
	c0,7.3-1.3,86.2-0.7,86.3c22.1,2.2,44.3,1.9,66.4-0.7c2.1-94.6,4.3-189.4,6.4-284C608.4,672.7,588.8,671.4,569.3,672z M575.5,688.7
	c2.1-0.6,4.4-0.6,6.5-0.9c0.1,0,0.1,0,0.3,0c0.1,0.1,0,0.3,0,0.4c-0.1,2.1-0.3,4-0.3,6.1c0,0.6-0.1,1.2-0.4,1.6
	c-0.3,0.4-0.9,0.4-1.3,0.4c-1.6,0-3.1-0.1-4.7-0.4c-0.1,0-0.4,0-0.6-0.1c-0.6-0.3-0.6-1.3-0.7-2.1
	C574.2,691.6,573.6,689.3,575.5,688.7z M575.5,725.4c1.9-0.6,4.3-0.3,6.2-0.1c0.4,2.8,0.4,5.8,0,8.6c0,0.1,0,0.3-0.1,0.3
	c-0.1,0.1-0.1,0.1-0.3,0.1c-1.5,0-3,0-4.4,0c-0.6,0-1.2,0-1.5-0.4c-0.4-0.4-0.4-1.3-0.4-1.9c0-1.3-0.1-2.7-0.1-4
	C574.5,726,574.2,725.7,575.5,725.4z M575.2,713.7c0.4-0.9,1.2-1.2,2.1-1.5c0.4-0.1,4-0.4,4.2,0c0.3,2.4,0.4,4.9,0.1,7.4
	c0,0.1,0,0.3-0.1,0.3c0,0.1-0.1,0.1-0.3,0.1c-1.6,0.1-3.3,0.3-4.9,0.4C574.3,720.8,574.3,715.3,575.2,713.7z M563.6,688.7
	c2.1-0.6,4.4-0.6,6.5-0.9c0.1,0,0.1,0,0.3,0c0.1,0.1,0,0.3,0,0.4c-0.1,2.1-0.3,4-0.3,6.1c0,0.6-0.1,1.2-0.4,1.6
	c-0.3,0.4-0.9,0.4-1.3,0.4c-1.6,0-3.1-0.1-4.7-0.4c-0.1,0-0.4,0-0.6-0.1c-0.6-0.3-0.6-1.3-0.7-2.1
	C562.4,691.6,561.7,689.3,563.6,688.7z M563.6,725.4c1.9-0.6,4.3-0.3,6.2-0.1c0.4,2.8,0.4,5.8,0,8.6c0,0.1,0,0.3-0.1,0.3
	c-0.1,0.1-0.1,0.1-0.3,0.1c-1.5,0-3,0-4.4,0c-0.6,0-1.2,0-1.5-0.4c-0.4-0.4-0.4-1.3-0.4-1.9c0-1.3-0.1-2.7-0.1-4
	C562.7,726,562.4,725.7,563.6,725.4z M563.3,713.7c0.4-0.9,1.2-1.2,2.1-1.5c0.4-0.1,4-0.4,4.2,0c0.3,2.4,0.4,4.9,0.1,7.4
	c0,0.1,0,0.3-0.1,0.3c0,0.1-0.1,0.1-0.3,0.1c-1.6,0.1-3.3,0.3-4.9,0.4C562.4,720.8,562.4,715.3,563.3,713.7z M563.6,738.1
	c2.1-0.6,4.4-0.6,6.5-0.9c0.1,0,0.1,0,0.3,0c0.1,0.1,0,0.3,0,0.4c-0.1,2.1-0.3,4-0.3,6.1c0,0.6-0.1,1.2-0.4,1.6s-0.9,0.4-1.3,0.4
	c-1.6,0-3.1-0.1-4.7-0.4c-0.1,0-0.4,0-0.6-0.1c-0.6-0.3-0.6-1.3-0.7-2.1C562.4,740.9,561.7,738.7,563.6,738.1z M569.9,783.2
	c0,0.1,0,0.3-0.1,0.3c-0.1,0.1-0.1,0.1-0.3,0.1c-1.5,0-3,0-4.4,0c-0.6,0-1.2,0-1.5-0.4c-0.4-0.4-0.4-1.3-0.4-1.9
	c0-1.3-0.1-2.7-0.1-4c0-1.6-0.3-1.9,0.9-2.4c1.9-0.6,4.3-0.3,6.2-0.1C570.3,777.4,570.3,780.4,569.9,783.2z M563.3,763.2
	c0.4-0.9,1.2-1.2,2.1-1.5c0.4-0.1,4-0.4,4.2,0c0.3,2.4,0.4,4.9,0.1,7.4c0,0.1,0,0.3-0.1,0.3c0,0.1-0.1,0.1-0.3,0.1
	c-1.6,0.1-3.3,0.3-4.9,0.4C562.4,770.2,562.4,764.8,563.3,763.2z M570.9,757.8c-2.1,0-4.3,0-6.4-0.4c-1.8-0.4-1.9-2.2-1.6-4.4
	c0.6-4.3,4.4-3.6,7-3.7c0.1,0,0.3,0,0.4,0.1c0.1,0.1,0.1,0.3,0.3,0.4c0.3,0.9,0.3,1.9,0.3,3C570.9,754.4,570.9,756.1,570.9,757.8z
	 M570.9,708.3c-2.1,0-4.3,0-6.4-0.4c-1.8-0.4-1.9-2.2-1.6-4.4c0.6-4.3,4.4-3.6,7-3.7c0.1,0,0.3,0,0.4,0.1c0.1,0.1,0.1,0.3,0.3,0.4
	c0.3,0.9,0.3,1.9,0.3,3C570.9,704.9,570.9,706.7,570.9,708.3z M575.5,738.1c2.1-0.6,4.4-0.6,6.5-0.9c0.1,0,0.1,0,0.3,0
	c0.1,0.1,0,0.3,0,0.4c-0.1,2.1-0.3,4-0.3,6.1c0,0.6-0.1,1.2-0.4,1.6c-0.3,0.4-0.9,0.4-1.3,0.4c-1.6,0-3.1-0.1-4.7-0.4
	c-0.1,0-0.4,0-0.6-0.1c-0.6-0.3-0.6-1.3-0.7-2.1C574.2,740.9,573.6,738.7,575.5,738.1z M581.6,783.2c0,0.1,0,0.3-0.1,0.3
	c-0.1,0.1-0.1,0.1-0.3,0.1c-1.5,0-3,0-4.4,0c-0.6,0-1.2,0-1.5-0.4c-0.4-0.4-0.4-1.3-0.4-1.9c0-1.3-0.1-2.7-0.1-4
	c0-1.6-0.3-1.9,0.9-2.4c1.9-0.6,4.3-0.3,6.2-0.1C582.2,777.4,582.2,780.4,581.6,783.2z M575.2,763.2c0.4-0.9,1.2-1.2,2.1-1.5
	c0.4-0.1,4-0.4,4.2,0c0.3,2.4,0.4,4.9,0.1,7.4c0,0.1,0,0.3-0.1,0.3c0,0.1-0.1,0.1-0.3,0.1c-1.6,0.1-3.3,0.3-4.9,0.4
	C574.3,770.2,574.3,764.8,575.2,763.2z M582.8,757.8c-2.1,0-4.3,0-6.4-0.4c-1.8-0.4-1.9-2.2-1.6-4.4c0.6-4.3,4.4-3.6,7-3.7
	c0.1,0,0.3,0,0.4,0.1c0.1,0.1,0.1,0.3,0.3,0.4c0.3,0.9,0.3,1.9,0.3,3C582.8,754.4,582.8,756.1,582.8,757.8z M582.8,708.3
	c-2.1,0-4.3,0-6.4-0.4c-1.8-0.4-1.9-2.2-1.6-4.4c0.6-4.3,4.4-3.6,7-3.7c0.1,0,0.3,0,0.4,0.1c0.1,0.1,0.1,0.3,0.3,0.4
	c0.3,0.9,0.3,1.9,0.3,3C582.8,704.9,582.8,706.7,582.8,708.3z"/>
<path class="st0" d="M1366.8,947.2c0.3-20.8,0.4-41.5,0.1-62.1c0-5.6-0.9-67.6-1.6-67.6c-31.4-2.7-63-5.5-94.5-8.2
	c-2.7-0.3-5.8-0.1-7.3,3c-0.7,1.6-0.9,3.6-0.9,5.5c-1.3,54-0.9,108,1.6,161.8c29.5,0.7,59,1.5,88.7,2.2c5.2,0.1,10.4,2.2,12.9-4.6
	C1368.6,970.5,1366.6,954.6,1366.8,947.2z M1278.7,860.3c0-1.9,0-4,0.6-5.8c0.1-0.3,0.3-0.6,0.4-0.7c0.3-0.1,0.6-0.1,0.7-0.1
	c4.6,0.3,11.6-1.3,12.6,7c0.6,4.2,0.3,7.7-3,8.5c-3.7,0.9-7.7,0.9-11.4,0.9C1278.8,866.8,1278.7,863.6,1278.7,860.3z M1290.6,893.4
	c-3-0.3-5.9-0.6-8.9-0.9c-0.2,0-0.4,0-0.4-0.3c-0.2-0.1-0.2-0.4-0.2-0.7c-0.4-4.7-0.3-9.5,0.3-14.1c0.2-0.7,6.7-0.1,7.4,0
	c1.5,0.3,2.8,1,3.7,2.8C1294,883.3,1294,893.8,1290.6,893.4z M1293.5,907c-0.1,2.5-0.1,5.2-0.3,7.7c0,1.3-0.2,2.8-0.9,3.7
	s-1.8,1-2.7,1c-2.7,0-5.3,0-8,0c-0.2,0-0.4,0-0.6-0.1c-0.1-0.1-0.1-0.3-0.1-0.6c-0.9-5.3-0.9-11.1,0-16.5c3.4-0.3,7.7-0.9,11.1,0.3
	C1294.1,903.3,1293.7,903.9,1293.5,907z M1294,841.9c0,1.5-0.3,3.3-1.2,4c-0.3,0.1-0.6,0.3-1,0.3c-2.8,0.4-5.6,0.7-8.4,0.7
	c-0.9,0-1.8,0-2.4-0.9c-0.6-0.7-0.7-2.1-0.7-3.1c-0.1-3.9-0.4-7.7-0.6-11.6c0-0.3,0-0.6,0.2-0.7c0.2-0.1,0.3-0.1,0.4-0.1
	c3.9,0.6,8,0.4,11.7,1.6C1295.5,833.5,1294.1,837.8,1294,841.9z"/>
<path class="st0" d="M559.3,750.9c-1.8-4.4-4.7-4.7-7.3-4.7c-16.5,0-32.9,0.1-49.4,0.1c0.6,32.5,1.3,65.1,1.9,97.6
	c0.4,20.8,0.7,41.5,0.1,62.3c-0.4,12.6-5.3,42-2.1,52.5c3.4,11.3,17.9,3.9,23,3.4c9.3-1,18.7-2.7,27.9-4.9c1-0.3,2.1-0.6,2.8-2.1
	c0.9-1.8,1.2-4.7,1.3-7.4c2.1-31.3,2.4-63.2,2.7-94.9c0.3-28,0.4-56.2,0.7-84.2C561.1,762.3,561.1,755.3,559.3,750.9z M512,913.4
	c-0.1-0.3-0.1-0.6-0.1-1c0-1.6,0-3.1,0-4.7c0-0.4,0-0.9,0.1-1.3c0.3-0.7,1-0.9,1.6-0.9c3.4-0.1,6.7,1,9.9,1.3c2.2,0.3,5-0.6,7.1,0.9
	c1.5,1,2.8,3.4,0.9,5c-1.8,1.5-7,0.4-9,0.4c-3.1,0.1-6.2,0.3-9.3,0.4C512.8,913.9,512.2,913.9,512,913.4z M531.2,936.5
	c-0.1,0.4-0.3,0.9-0.6,1.2c-0.3,0.1-0.4,0.1-0.7,0.1c-5.5-0.3-11-0.6-16.6-0.9c-0.3-2.1-0.3-4.3-0.1-6.5c0-0.1,0-0.4,0.1-0.6
	c0.1-0.1,0.1-0.1,0.3-0.1c3.9-0.6,7.9-0.7,11.9-0.1C529.5,930.2,532.8,929.7,531.2,936.5z M532.6,925c0,0.3,0,0.6-0.1,0.7
	c-0.1,0.4-0.6,0.4-1,0.4c-5.9-0.3-11.7-0.1-17.6,0.6c-0.1,0-0.4,0-0.6-0.1c-0.1-0.1-0.1-0.4-0.3-0.7c-0.3-2.2-0.3-4.6-0.1-7
	c0-0.3,0-0.6,0.1-0.7c0.1-0.1,0.3-0.1,0.6-0.1c4.2,0,8.2,0.3,12.3,0.6c1.3,0.1,5-0.4,6.1,0.7C533.1,920.5,532.6,923.3,532.6,925z
	 M535.9,801.4c-6.5,0.3-13,0.6-19.7,1c-0.3,0-0.6,0-0.9-0.1c-0.3-0.3-0.4-0.9-0.6-1.3c-1.9-8,2.1-7.6,6.8-8.2
	c4.6-0.6,9.3-0.4,14.1,0.1c0.1,0,0.3,0,0.4,0.1c0.1,0.1,0.1,0.4,0.1,0.6C536.2,796.3,536.2,798.9,535.9,801.4z M536.2,788.2
	c0,0.3-0.1,0.7-0.3,0.9c-0.1,0.1-0.4,0.1-0.7,0.1c-7-0.7-13.9-1-20.9-0.7c-0.4,0-1,0-1.2-0.6c-0.1-0.3-0.1-0.6-0.1-0.9
	c0-2.1-0.6-5.3,0.7-6.8c1.3-1.3,5.6-0.7,7.1-0.7c4.9-0.4,9.6-0.6,14.5-0.6c0.1,0,0.4,0,0.6,0.1c0.1,0.1,0.1,0.6,0.3,0.9
	C536.5,782.8,536.3,785.6,536.2,788.2z M537.7,772.2c0,0.4,0,0.9-0.1,1.2c-0.3,0.6-0.9,0.6-1.3,0.6c-3.7-0.1-7.4-0.4-11.1-0.6
	c-2.5-0.1-8.7,1.2-10.8-0.6c-2.2-1.9-0.6-4.7,1-5.9c2.5-1.8,5.8-0.7,8.5-1c4-0.4,7.9-1.8,11.9-1.6c0.7,0,1.5,0.1,1.9,1
	c0.1,0.4,0.1,1,0.1,1.5C537.7,768.5,537.7,770.3,537.7,772.2z"/>
<path class="st0" d="M815.7,663.4c0-2.7-0.1-5.5-1-7.7c-1.8-4.3-5.5-4.4-8.6-4.2c-37.4,3.9-74.7,7.7-112.1,11.4
	c-0.9,0-1.8,86.6-1.9,94.5c-0.3,28.9-0.1,57.8,0.1,86.8c0.1,10.2-2.1,119.5,0.9,128.6c3.1,9.5,9.3,6.7,15.4,6.5
	c35-1,70.1-2.1,105.1-3.1C816.6,901,817.4,738.6,815.7,663.4z M728.4,823.2c0.1-0.1,0.1-0.4,0.3-0.6c0.1-0.1,0.4-0.1,0.6-0.1
	c3.4,0.1,8.6-1,9.3,5.2c0.4,3.1,0.1,5.6-2.2,6.4c-2.7,0.7-5.8,0.6-8.5,0.6c0-2.4,0-4.7,0-7.3C727.9,826.1,727.9,824.6,728.4,823.2z
	 M729.4,858.7c2.5-0.1,5.8-0.6,8.3,0.1c1.6,0.6,1.2,0.9,1.2,3.3c-0.1,1.9-0.1,3.9-0.3,5.8c0,1-0.1,2.1-0.6,2.8
	c-0.6,0.7-1.3,0.7-2.1,0.7c-1.9,0-4,0-5.9,0c-0.1,0-0.3,0-0.4-0.1c-0.1-0.1-0.1-0.3-0.1-0.4C728.8,866.8,728.8,862.7,729.4,858.7z
	 M729.9,840.2c0.1-0.6,4.9-0.1,5.5,0c1,0.3,2.1,0.7,2.8,2.1c1.2,2.4,1.2,10.1-1.5,9.8c-2.2-0.3-4.3-0.4-6.5-0.7
	c-0.1,0-0.3,0-0.4-0.1s-0.1-0.3-0.1-0.6C729.3,847.1,729.4,843.6,729.9,840.2z M712.7,823.2c0.1-0.1,0.1-0.4,0.3-0.6
	c0.1-0.1,0.4-0.1,0.6-0.1c3.4,0.1,8.6-1,9.3,5.2c0.4,3.1,0.1,5.6-2.2,6.4c-2.7,0.7-5.8,0.6-8.5,0.6c0-2.4,0-4.7,0-7.3
	C712.2,826.1,712.2,824.6,712.7,823.2z M713.7,858.7c2.5-0.1,5.8-0.6,8.3,0.1c1.6,0.6,1.2,0.9,1.2,3.3c-0.1,1.9-0.1,3.9-0.3,5.8
	c0,1-0.1,2.1-0.6,2.8c-0.6,0.7-1.3,0.7-2.1,0.7c-1.9,0-4,0-5.9,0c-0.1,0-0.3,0-0.4-0.1c-0.1-0.1-0.1-0.3-0.1-0.4
	C713.1,866.8,713.1,862.7,713.7,858.7z M714.1,840.2c0.1-0.6,4.9-0.1,5.5,0c1,0.3,2.1,0.7,2.8,2.1c1.2,2.4,1.2,10.1-1.5,9.8
	c-2.2-0.3-4.3-0.4-6.5-0.7c-0.1,0-0.3,0-0.4-0.1s-0.1-0.3-0.1-0.6C713.6,847.1,713.6,843.6,714.1,840.2z M712.2,897.7
	c0-1.5,0-3,0.4-4.3c0.1-0.1,0.1-0.4,0.3-0.6c0.1-0.1,0.4-0.1,0.6-0.1c3.4,0.1,8.6-1,9.3,5.2c0.4,3.1,0.1,5.6-2.2,6.4
	c-2.7,0.7-5.8,0.6-8.5,0.6C712.2,902.6,712.2,900.2,712.2,897.7z M721,922.3c-2.2-0.3-4.3-0.4-6.5-0.7c-0.1,0-0.3,0-0.4-0.1
	c-0.1-0.1-0.1-0.3-0.1-0.6c-0.3-3.6-0.1-7.1,0.3-10.5c0.1-0.6,4.9-0.1,5.5,0c1,0.3,2.1,0.7,2.8,2.1
	C723.5,914.9,723.5,922.6,721,922.3z M723.2,932.4c-0.1,1.9-0.1,3.9-0.3,5.8c0,1-0.1,2.1-0.6,2.8c-0.6,0.7-1.3,0.7-2.1,0.7
	c-1.9,0-4,0-5.9,0c-0.1,0-0.3,0-0.4-0.1c-0.1-0.1-0.1-0.3-0.1-0.4c-0.6-4-0.6-8.2,0-12.2c2.5-0.1,5.8-0.6,8.3,0.1
	C723.6,929.7,723.2,930,723.2,932.4z M723.5,884.2c0,1.2-0.1,2.5-0.9,3c-0.3,0.1-0.4,0.1-0.7,0.3c-2.1,0.3-4.2,0.4-6.2,0.6
	c-0.6,0-1.3,0-1.8-0.6c-0.4-0.6-0.4-1.5-0.6-2.4c-0.1-2.8-0.3-5.8-0.4-8.6c0-0.1,0-0.4,0.1-0.6c0.1-0.1,0.3-0.1,0.4-0.1
	c2.8,0.4,5.9,0.3,8.7,1.2C724.5,877.8,723.6,881.1,723.5,884.2z M723.5,813.9c0,1.2-0.1,2.5-0.9,3c-0.3,0.1-0.4,0.1-0.7,0.3
	c-2.1,0.3-4.2,0.4-6.2,0.6c-0.6,0-1.3,0-1.8-0.6c-0.4-0.6-0.4-1.5-0.6-2.4c-0.1-2.8-0.3-5.8-0.4-8.6c0-0.1,0-0.4,0.1-0.6
	c0.1-0.1,0.3-0.1,0.4-0.1c2.8,0.4,5.9,0.3,8.7,1.2C724.5,807.7,723.6,810.8,723.5,813.9z M727.9,897.7c0-1.5,0-3,0.4-4.3
	c0.1-0.1,0.1-0.4,0.3-0.6c0.1-0.1,0.4-0.1,0.6-0.1c3.4,0.1,8.6-1,9.3,5.2c0.4,3.1,0.1,5.6-2.2,6.4c-2.7,0.7-5.8,0.6-8.5,0.6
	C727.9,902.6,727.9,900.2,727.9,897.7z M736.7,922.3c-2.2-0.3-4.3-0.4-6.5-0.7c-0.1,0-0.3,0-0.4-0.1c-0.1-0.1-0.1-0.3-0.1-0.6
	c-0.3-3.6-0.1-7.1,0.3-10.5c0.1-0.6,4.9-0.1,5.5,0c1,0.3,2.1,0.7,2.8,2.1C739.2,914.9,739.2,922.6,736.7,922.3z M738.9,932.4
	c-0.1,1.9-0.1,3.9-0.3,5.8c0,1-0.1,2.1-0.6,2.8c-0.6,0.7-1.3,0.7-2.1,0.7c-1.9,0-4,0-5.9,0c-0.1,0-0.3,0-0.4-0.1
	c-0.1-0.1-0.1-0.3-0.1-0.4c-0.6-4-0.6-8.2,0-12.2c2.5-0.1,5.8-0.6,8.3,0.1C739.4,929.7,738.9,930,738.9,932.4z M739.2,884.2
	c0,1.2-0.1,2.5-0.9,3c-0.3,0.1-0.4,0.1-0.7,0.3c-2.1,0.3-4.2,0.4-6.2,0.6c-0.6,0-1.3,0-1.8-0.6c-0.4-0.6-0.4-1.5-0.6-2.4
	c-0.1-2.8-0.3-5.8-0.4-8.6c0-0.1,0-0.4,0.1-0.6c0.1-0.1,0.3-0.1,0.4-0.1c2.8,0.4,5.9,0.3,8.7,1.2
	C740.2,877.8,739.4,881.1,739.2,884.2z M739.2,813.9c0,1.2-0.1,2.5-0.9,3c-0.3,0.1-0.4,0.1-0.7,0.3c-2.1,0.3-4.2,0.4-6.2,0.6
	c-0.6,0-1.3,0-1.8-0.6c-0.4-0.6-0.4-1.5-0.6-2.4c-0.1-2.8-0.3-5.8-0.4-8.6c0-0.1,0-0.4,0.1-0.6c0.1-0.1,0.3-0.1,0.4-0.1
	c2.8,0.4,5.9,0.3,8.7,1.2C740.2,807.7,739.4,810.8,739.2,813.9z M781.2,679c4.4-1.5,9.3-1.3,13.9-1.9c0.1,0,0.4,0,0.6,0.1
	c0.1,0.1,0.1,0.6,0.1,0.9c-0.3,4.6-0.4,9.2-0.7,13.6c0,1.3-0.1,2.8-0.9,3.7c-0.7,1-1.8,1-2.8,1c-3.4-0.1-6.7-0.4-9.9-0.9
	c-0.4,0-0.7-0.1-1.2-0.4c-1.2-0.7-1.3-3-1.5-4.7C778.5,685.3,777.2,680.3,781.2,679z M794.4,781.1c0,0.3-0.1,0.4-0.1,0.7
	c-0.1,0.1-0.4,0.3-0.6,0.3c-3.1,0-6.4,0-9.5,0c-1.2,0-2.4-0.1-3.3-1.2c-0.9-1-0.9-2.8-1-4.4c-0.1-3-0.3-6.1-0.3-9
	c-0.1-3.9-0.7-4.4,1.9-5.3c4-1.3,9-0.6,13.2-0.3C795.4,768.1,795.4,774.8,794.4,781.1z M780.6,735.5c1-2.1,2.7-2.8,4.4-3.3
	c0.9-0.1,8.6-0.9,8.7,0c0.7,5.5,0.9,11.1,0.4,16.8c0,0.3,0,0.6-0.1,0.9c-0.1,0.1-0.4,0.3-0.6,0.3c-3.6,0.4-7,0.7-10.5,1.2
	C778.8,751.6,778.8,739.2,780.6,735.5z M796.7,723.4c-4.4,0-9.2,0-13.6-1c-3.9-1-4.2-5-3.6-10.1c1.3-9.9,9.5-8,15-8.3
	c0.3,0,0.7,0,0.9,0.1c0.3,0.1,0.4,0.6,0.4,0.9c0.7,2.1,0.7,4.4,0.7,6.8C796.9,715.9,796.7,719.6,796.7,723.4z"/>
<path class="st0" d="M685.4,770.5c0-1-0.1-2.2-0.6-3c-0.6-0.9-1.8-0.7-2.7-0.6c-4.9,1-9.8,2.7-14.8,3.7c-8,1.6-16,1.9-24,2.1
	c-6.4,0.1-12.6,0.3-19,0.4c-2.4,0-4.9,0-6.5-2.4c1.5,33.2,1.8,66.4,0.9,99.7c-0.9,30.4-2.7,60.7-1.8,91.1c0,0.9,0.1,1.8,0.4,2.2
	c0.4,0.4,0.9,0.6,1.5,0.6c14.1,0.9,28,1.9,42.1,2.8c6.4,0.4,14.5,3,20.8,1.3c5.5-1.5,3.4-11,3.1-16.9c-1.5-38.7,0.1-77.4,0.9-116
	C686.1,813.9,686.3,792.1,685.4,770.5z M631.1,792.1c0-1,0-2.1,0.7-3c0.1-0.1,0.3-0.3,0.6-0.4c0.3-0.1,0.6-0.1,1-0.1
	c5.9,0.1,14.7-0.7,16,3.7c0.7,2.2,0.3,4-3.7,4.4c-4.6,0.4-9.8,0.4-14.5,0.4C631.3,795.5,631.1,793.7,631.1,792.1z M633.8,813.9
	c4.3-0.1,9.8-0.4,14.1,0.1c2.8,0.4,2.1,0.6,1.9,2.4c-0.1,1.3-0.3,2.7-0.4,4c0,0.7-0.1,1.5-1,1.9c-0.9,0.4-2.2,0.4-3.4,0.4
	c-3.4,0-6.8,0-10.2,0c-0.3,0-0.6,0-0.7-0.1c-0.1-0.1-0.1-0.1-0.3-0.3C632.7,819.5,632.7,816.7,633.8,813.9z M634.4,801
	c0.1-0.4,8.5,0,9.3,0c1.9,0.1,3.6,0.4,4.7,1.5c1.9,1.6,1.9,7.1-2.4,6.8c-3.7-0.1-7.4-0.3-11.1-0.4c-0.3,0-0.4,0-0.6-0.1
	c-0.1-0.1-0.1-0.3-0.3-0.3C633.5,805.9,633.6,803.4,634.4,801z M650.4,831.7c0,0.7-0.3,1.8-1.5,2.1c-0.4,0.1-0.9,0.1-1.2,0.1
	c-3.6,0.3-7.1,0.3-10.7,0.4c-1,0-2.2,0-3.1-0.4c-0.7-0.4-0.9-1-0.9-1.6c-0.3-1.9-0.4-4-0.7-5.9c0-0.1,0-0.3,0.1-0.4
	c0.1-0.1,0.4-0.1,0.6,0c4.7,0.3,10.1,0.3,14.8,0.9C652.2,827.2,650.7,829.5,650.4,831.7z M650.4,782.6c0,0.7-0.3,1.8-1.5,2.1
	c-0.4,0.1-0.9,0.1-1.2,0.1c-3.6,0.3-7.1,0.3-10.7,0.4c-1,0-2.2,0-3.1-0.4c-0.7-0.4-0.9-1-0.9-1.6c-0.3-1.9-0.4-4-0.7-5.9
	c0-0.1,0-0.3,0.1-0.4c0.1-0.1,0.4-0.1,0.6,0c4.7,0.3,10.1,0.3,14.8,0.9C652.2,778.2,650.7,780.4,650.4,782.6z M657.9,792.1
	c0-1,0-2.1,0.7-3c0.1-0.1,0.3-0.3,0.6-0.4c0.3-0.1,0.6-0.1,1-0.1c5.9,0.1,14.7-0.7,16,3.7c0.7,2.2,0.3,4-3.7,4.4
	c-4.6,0.4-9.8,0.4-14.5,0.4C657.9,795.5,657.9,793.7,657.9,792.1z M660.6,813.9c4.3-0.1,9.8-0.4,14.1,0.1c2.8,0.4,2.1,0.6,1.9,2.4
	c-0.1,1.3-0.3,2.7-0.4,4c0,0.7-0.1,1.5-1,1.9c-0.9,0.4-2.2,0.4-3.4,0.4c-3.4,0-6.8,0-10.2,0c-0.3,0-0.6,0-0.7-0.1
	c-0.1-0.1-0.1-0.1-0.3-0.3C659.6,819.5,659.6,816.7,660.6,813.9z M661.2,801c0.1-0.4,8.5,0,9.3,0c1.9,0.1,3.6,0.4,4.7,1.5
	c1.9,1.6,1.9,7.1-2.4,6.8c-3.7-0.1-7.4-0.3-11.1-0.4c-0.3,0-0.4,0-0.6-0.1c-0.1-0.1-0.1-0.3-0.3-0.3
	C660.3,805.9,660.5,803.4,661.2,801z M677.2,831.7c0,0.7-0.3,1.8-1.5,2.1c-0.4,0.1-0.9,0.1-1.2,0.1c-3.6,0.3-7.1,0.3-10.7,0.4
	c-1,0-2.2,0-3.1-0.4c-0.7-0.4-0.9-1-0.9-1.6c-0.3-1.9-0.4-4-0.7-5.9c0-0.1,0-0.3,0.1-0.4c0.1-0.1,0.4-0.1,0.6,0
	c4.7,0.3,10.1,0.3,14.8,0.9C679,827.2,677.5,829.5,677.2,831.7z M677.2,782.6c0,0.7-0.3,1.8-1.5,2.1c-0.4,0.1-0.9,0.1-1.2,0.1
	c-3.6,0.3-7.1,0.3-10.7,0.4c-1,0-2.2,0-3.1-0.4c-0.7-0.4-0.9-1-0.9-1.6c-0.3-1.9-0.4-4-0.7-5.9c0-0.1,0-0.3,0.1-0.4
	c0.1-0.1,0.4-0.1,0.6,0c4.7,0.3,10.1,0.3,14.8,0.9C679,778.2,677.5,780.4,677.2,782.6z"/>
<path class="st0" d="M1152.9,609c0-1.6-0.1-3.3-0.9-4.6c-1.5-2.5-4.7-2.7-7.6-2.4c-32.9,2.2-65.8,4.4-98.8,6.8
	c-0.7,0-1.6,51-1.6,55.8c-0.2,17.1-0.2,34.1,0.2,51.2c0.2,6.1-3.1,259.8-0.4,265.2c2.8,5.6,8.1,3.9,13.5,3.9
	c30.8-0.6,61.8-1.2,92.7-1.8C1152.7,938.5,1154.4,653.3,1152.9,609z M1122.7,619.3c3.9-0.9,8.3-0.9,12.2-1.3c0.2,0,0.4,0,0.6,0.1
	c0.2,0.1,0.2,0.3,0.2,0.6c-0.2,3-0.4,5.8-0.6,8.7c0,0.9-0.2,1.8-0.7,2.4c-0.6,0.6-1.6,0.6-2.5,0.6c-3,0-5.9-0.3-8.8-0.6
	c-0.3,0-0.8-0.1-1-0.3c-1-0.4-1.2-1.8-1.3-3C1120.3,623.3,1119,620.2,1122.7,619.3z M1134.3,684.1c0,0.1-0.2,0.3-0.2,0.4
	c-0.2,0.1-0.4,0.1-0.6,0.1c-2.8,0-5.6,0-8.5,0c-1,0-2.1,0-2.8-0.7c-0.7-0.7-0.9-1.8-0.9-2.8c-0.1-1.9-0.1-3.9-0.3-5.8
	c-0.1-2.4-0.6-2.8,1.6-3.4c3.6-0.9,8-0.3,11.6-0.1C1135.2,675.8,1135.2,680.1,1134.3,684.1z M1122.1,655.2c0.9-1.3,2.4-1.8,3.8-2.1
	c0.7-0.1,7.6-0.6,7.7,0c0.7,3.6,0.7,7.1,0.4,10.7c0,0.1,0,0.4-0.2,0.6c-0.2,0.1-0.3,0.1-0.6,0.1c-3.1,0.3-6.2,0.4-9.2,0.7
	C1120.5,665.5,1120.5,657.6,1122.1,655.2z M1136.3,647.7c-3.8,0-8.2,0-12-0.7c-3.4-0.6-3.7-3.3-3.1-6.4c1.2-6.2,8.3-5,13.2-5.3
	c0.3,0,0.6,0,0.9,0.1c0.1,0.1,0.3,0.3,0.4,0.6c0.6,1.3,0.6,2.8,0.6,4.3C1136.3,642.8,1136.3,645.1,1136.3,647.7z"/>
<path class="st0" d="M405,634.6c-1.8-1.9-4.7-1.9-7.3-1.9c-16.5,0-32.9,0-49.4,0c0.6,13.5,1.3,27,1.9,40.5
	c0.4,8.6,0.7,17.2,0.1,25.8c-0.4,5.2-6.7,266.3-3.6,270.8c3.4,4.7,17.9,1.6,23,1.3c9.3-0.4,18.7-1,27.9-2.1c1-0.1,2.1-0.3,2.8-0.9
	c0.9-0.7,1.2-1.9,1.3-3.1c2.1-13,3.9-275.2,4.2-288.4c0.3-11.7,0.4-23.3,0.7-35C406.9,639.2,406.9,636.4,405,634.6z M361.1,647.5
	c2.5-1.3,5.8-0.6,8.5-0.7c4-0.3,7.9-1.3,11.9-1.2c0.7,0,1.5,0.1,1.9,0.7c0.1,0.3,0.1,0.7,0.1,1c0,1.3,0,2.7,0,4c0,0.3,0,0.6-0.1,0.9
	c-0.3,0.4-0.9,0.4-1.3,0.4c-3.7-0.1-7.4-0.3-11.1-0.4c-2.5-0.1-8.7,0.9-10.8-0.4C357.6,650.3,359.3,648.4,361.1,647.5z M359.4,657.3
	c1.3-1,5.6-0.4,7.1-0.6c4.9-0.3,9.6-0.4,14.5-0.4c0.1,0,0.4,0,0.6,0.1c0.1,0.1,0.1,0.4,0.3,0.7c0.1,1.9,0.1,4-0.1,5.9
	c0,0.3-0.1,0.4-0.3,0.6c-0.1,0.1-0.4,0.1-0.7,0.1c-7-0.6-13.9-0.7-20.9-0.4c-0.4,0-1,0-1.2-0.4c-0.1-0.1-0.1-0.4-0.1-0.6
	C358.7,660.7,358.2,658.2,359.4,657.3z M385.5,677.9c-8.9,0.3-17.8,0.6-26.7,0.9c-0.4,0-0.9,0-1.2-0.1c-0.4-0.3-0.7-0.7-0.9-1.3
	c-2.5-7.9,2.7-7.4,9.3-8c6.4-0.6,12.8-0.4,19.1,0.1c0.1,0,0.4,0,0.6,0.1c0.1,0.1,0.1,0.4,0.1,0.6C386,673,385.8,675.5,385.5,677.9z"
	/>
<path class="st0" d="M814,535.9c-4.6,0.1-8.6-0.4-10.2,5c-1.6,5.6,0.4,15.3,0.6,21.4c0.7,30.1,0.9,60.4,0.6,90.5
	c0,4.2-2.4,325.2-1.9,325.2c15.3,1.3,30.5,1.2,45.7-0.4c1.5-55,4.3-385.1,5.8-440.1C840.9,536.3,827.4,535.6,814,535.9z
	 M818.3,544.6c1.5-0.3,3-0.3,4.4-0.4h0.1v0.1c-0.1,1-0.1,2.1-0.3,3.1c0,0.3,0,0.6-0.3,0.9c-0.3,0.3-0.6,0.3-0.9,0.3
	c-1,0-2.2-0.1-3.3-0.1c-0.1,0-0.3,0-0.4-0.1c-0.4-0.1-0.4-0.7-0.4-1C817.4,546.1,816.9,544.9,818.3,544.6z M818.3,563.9
	c1.3-0.3,3-0.1,4.3,0c0.3,1.5,0.3,3.1,0,4.6v0.1h-0.1c-1,0-2.1,0-3.1,0c-0.3,0-0.7,0-1-0.3c-0.3-0.3-0.3-0.6-0.3-1
	c0-0.7-0.1-1.5-0.1-2.1C817.7,564.3,817.4,564.2,818.3,563.9z M818.1,557.8c0.3-0.4,0.9-0.6,1.5-0.7c0.3,0,2.8-0.1,2.8,0
	c0.3,1.3,0.3,2.7,0.1,3.9v0.1h-0.1c-1.2,0.1-2.2,0.1-3.4,0.3C817.5,561.5,817.5,558.7,818.1,557.8z M810.1,544.6
	c1.5-0.3,3-0.3,4.4-0.4h0.1v0.1c-0.1,1-0.1,2.1-0.3,3.1c0,0.3,0,0.6-0.3,0.9c-0.3,0.3-0.6,0.3-0.9,0.3c-1,0-2.2-0.1-3.3-0.1
	c-0.1,0-0.3,0-0.4-0.1c-0.4-0.1-0.4-0.7-0.4-1C809.2,546.1,808.8,544.9,810.1,544.6z M810.1,563.9c1.3-0.3,3-0.1,4.3,0
	c0.3,1.5,0.3,3.1,0,4.6v0.1h-0.1c-1,0-2.1,0-3.1,0c-0.3,0-0.7,0-1-0.3c-0.3-0.3-0.3-0.6-0.3-1c0-0.7-0.1-1.5-0.1-2.1
	C809.5,564.3,809.4,564.2,810.1,563.9z M809.9,557.8c0.3-0.4,0.9-0.6,1.5-0.7c0.3,0,2.8-0.1,2.8,0c0.3,1.3,0.3,2.7,0.1,3.9v0.1h-0.1
	c-1.2,0.1-2.2,0.1-3.4,0.3C809.4,561.5,809.4,558.7,809.9,557.8z M810.1,570.7c1.5-0.3,3-0.3,4.4-0.4h0.1v0.1
	c-0.1,1-0.1,2.1-0.3,3.1c0,0.3,0,0.6-0.3,0.9c-0.3,0.3-0.6,0.3-0.9,0.3c-1,0-2.2-0.1-3.3-0.1c-0.1,0-0.3,0-0.4-0.1
	c-0.4-0.1-0.4-0.7-0.4-1C809.2,572.2,808.8,571,810.1,570.7z M814.4,594.4v0.1h-0.1c-1,0-2.1,0-3.1,0c-0.3,0-0.7,0-1-0.3
	c-0.3-0.3-0.3-0.6-0.3-1c0-0.7-0.1-1.5-0.1-2.1c0-0.9-0.3-1,0.6-1.2c1.3-0.3,3-0.1,4.3,0C814.7,591.3,814.7,592.9,814.4,594.4z
	 M809.9,583.8c0.3-0.4,0.9-0.6,1.5-0.7c0.3,0,2.8-0.1,2.8,0c0.3,1.3,0.3,2.7,0.1,3.9v0.1h-0.1c-1.2,0.1-2.2,0.1-3.4,0.3
	C809.4,587.6,809.4,584.6,809.9,583.8z M815.1,580.9c-1.5,0-3,0-4.4-0.3c-1.2-0.3-1.3-1.2-1.2-2.4c0.4-2.4,3.1-1.9,4.9-1.9
	c0.1,0,0.1,0,0.3,0c0.1,0,0.1,0.1,0.1,0.1c0.3,0.4,0.3,1,0.3,1.6C815.1,579.2,815.1,580,815.1,580.9z M815.1,555c-1.5,0-3,0-4.4-0.3
	c-1.2-0.3-1.3-1.2-1.2-2.4c0.4-2.4,3.1-1.9,4.9-1.9c0.1,0,0.1,0,0.3,0c0.1,0,0.1,0.1,0.1,0.1c0.3,0.4,0.3,1,0.3,1.6
	C815.1,553.2,815.1,554.1,815.1,555z M818.3,570.7c1.5-0.3,3-0.3,4.4-0.4h0.1v0.1c-0.1,1-0.1,2.1-0.3,3.1c0,0.3,0,0.6-0.3,0.9
	c-0.3,0.3-0.6,0.3-0.9,0.3c-1,0-2.2-0.1-3.3-0.1c-0.1,0-0.3,0-0.4-0.1c-0.4-0.1-0.4-0.7-0.4-1C817.4,572.2,816.9,571,818.3,570.7z
	 M822.6,594.4v0.1h-0.1c-1,0-2.1,0-3.1,0c-0.3,0-0.7,0-1-0.3c-0.3-0.3-0.3-0.6-0.3-1c0-0.7-0.1-1.5-0.1-2.1c0-0.9-0.3-1,0.6-1.2
	c1.3-0.3,3-0.1,4.3,0C822.8,591.3,822.8,592.9,822.6,594.4z M818.1,583.8c0.3-0.4,0.9-0.6,1.5-0.7c0.3,0,2.8-0.1,2.8,0
	c0.3,1.3,0.3,2.7,0.1,3.9v0.1h-0.1c-1.2,0.1-2.2,0.1-3.4,0.3C817.5,587.6,817.5,584.6,818.1,583.8z M823.3,580.9c-1.5,0-3,0-4.4-0.3
	c-1.2-0.3-1.3-1.2-1.2-2.4c0.4-2.4,3.1-1.9,4.9-1.9c0.1,0,0.1,0,0.3,0c0.1,0,0.1,0.1,0.1,0.1c0.3,0.4,0.3,1,0.3,1.6
	C823.3,579.2,823.3,580,823.3,580.9z M823.3,555c-1.5,0-3,0-4.4-0.3c-1.2-0.3-1.3-1.2-1.2-2.4c0.4-2.4,3.1-1.9,4.9-1.9
	c0.1,0,0.1,0,0.3,0c0.1,0,0.1,0.1,0.1,0.1c0.3,0.4,0.3,1,0.3,1.6C823.3,553.2,823.3,554.1,823.3,555z"/>
<path class="st0" d="M938.4,946.9c0-1.5,0-94.8,0.4-95.6c0.3-0.4,0.6-0.4,0.7-0.4c9.5-0.3,19-0.7,28.5-1c0.6,0,1,0,1.5,1
	c0.6,1.3,0.6,95.2,0.7,97.3c0.1,11.1,0.1,22.4,0,33.5c-6.2,1.6-12.6-1.6-18.8-1.6c-2.2,0-4.4,0.4-6.7,1c-1.3,0.3-4,3.1-5.2-0.1
	c-1-2.8-0.7-9.2-0.7-12.9C938.5,960.9,938.4,953.9,938.4,946.9z"/>
<path class="st0" d="M1023,742.4c0-1.6,0-3.4-0.3-4.7c-0.6-2.7-1.9-2.7-3-2.5c-12.8,2.4-25.5,4.7-38.3,7.1c-0.3,0-0.6,53.5-0.6,58.4
	c-0.1,17.9,0,122.8,0,140.7c0,6.4-0.7,20.2,0.3,25.7c1,5.9,3.1,4.2,5.2,4c12-0.6,23.9-1.3,35.9-1.9
	C1023.3,922.6,1023.6,789,1023,742.4z M1011.3,755.2c1.5-1,3.3-1,4.8-1.5c0,0,0.1,0,0.1,0.1c0,0.1,0,0.4,0,0.6
	c-0.1,3.3-0.1,6.7-0.3,9.9c0,1,0,2.1-0.3,2.7c-0.3,0.7-0.6,0.7-1,0.7c-1.2,0-2.2-0.3-3.4-0.6c-0.1,0-0.3-0.1-0.4-0.3
	c-0.5-0.6-0.5-2.1-0.5-3.4C1010.4,759.8,1009.8,756.1,1011.3,755.2z M1015.8,829.8c0,0.1,0,0.4-0.2,0.4c0,0.1-0.2,0.1-0.3,0.1
	c-1,0-2.2,0-3.3,0c-0.4,0-0.9,0-1-0.9c-0.3-0.7-0.3-2.1-0.3-3.3c0-2.2-0.1-4.4-0.1-6.7c0-2.8-0.3-3.3,0.6-3.9c1.3-1,3.1-0.4,4.5-0.1
	C1016.1,820.3,1016.2,825.2,1015.8,829.8z M1011,796.4c0.3-1.5,0.9-2.1,1.5-2.4c0.3-0.1,3-0.7,3,0c0.3,4,0.3,8.2,0.2,12.2
	c0,0.1,0,0.4-0.2,0.6c0,0.1-0.1,0.1-0.1,0.1c-1.2,0.3-2.4,0.6-3.5,0.9C1010.4,808.3,1010.4,799.1,1011,796.4z M1016.7,787.7
	c-1.5,0-3.1,0-4.6-0.7c-1.3-0.7-1.5-3.7-1.2-7.4c0.4-7.3,3.3-5.9,5-6.1c0.2,0,0.3,0,0.3,0.1c0.2,0.1,0.2,0.4,0.2,0.6
	c0.3,1.5,0.3,3.3,0.3,5C1016.7,782,1016.7,784.8,1016.7,787.7z"/>
<path class="st0" d="M984.8,797.1c-0.6-1.9-1.6-2.1-2.5-2.1c-5.6,0-11.3,0-16.9,0c0.1,14.4,0.4,28.8,0.6,43.2
	c0.1,9.2,0.3,109.9,0,119.1c-0.1,5.6-1.8,18.5-0.7,23.3c1.2,5,6.1,1.8,7.9,1.5c3.1-0.4,6.4-1.2,9.5-2.2c0.3-0.1,0.7-0.3,1-0.9
	c0.3-0.7,0.4-2.1,0.4-3.3c0.7-13.8,0.9-119.5,0.9-133.5c0.1-12.5,0.1-24.9,0.3-37.2C985.4,802.2,985.4,799.2,984.8,797.1z
	 M976.8,832.1c-2.2,0.3-4.4,0.4-6.7,0.7c-0.1,0-0.1,0-0.3-0.1c-0.1-0.1-0.1-0.6-0.1-1c-0.6-5.9,0.7-5.5,2.4-5.9
	c1.6-0.4,3.3-0.4,4.7,0.1c0,0,0.1,0,0.1,0.1s0,0.3,0,0.4C976.9,828.3,976.9,830.2,976.8,832.1z M976.9,822.5c0,0.3,0,0.4-0.1,0.6
	c0,0.1-0.1,0.1-0.3,0.1c-2.4-0.6-4.7-0.7-7.1-0.4c-0.1,0-0.3,0-0.4-0.4c0-0.1,0-0.4,0-0.7c0-1.5-0.1-4,0.3-4.9
	c0.4-1,1.9-0.4,2.5-0.6c1.6-0.3,3.3-0.4,4.9-0.4c0.1,0,0.1,0,0.1,0.1c0,0.1,0.1,0.4,0.1,0.7C976.9,818.5,976.9,820.6,976.9,822.5z
	 M977.4,810.8c0,0.3,0,0.6,0,0.9c-0.1,0.4-0.3,0.4-0.4,0.4c-1.2-0.1-2.5-0.3-3.7-0.4c-0.9-0.1-3,0.9-3.7-0.4
	c-0.7-1.3-0.1-3.4,0.4-4.3c0.9-1.3,1.9-0.6,2.8-0.7c1.3-0.3,2.7-1.3,4-1.2c0.3,0,0.4,0.1,0.6,0.7c0,0.3,0,0.7,0,1
	C977.4,808.1,977.4,809.5,977.4,810.8z"/>
<path class="st0" d="M935.6,726.7c-1.6,0.1-3-0.3-3.6,4.9c-0.6,5.5,0.1,14.8,0.1,20.6c0.3,29.1,0.3,58.3,0.1,87.3
	c0,4-0.3,139.8-0.1,139.8c5.2,1.3,10.4,1.2,15.6-0.4c0.4-53.1,1-197.7,1.5-250.8C944.7,727.2,940.1,726.4,935.6,726.7z M937,735.6
	c0.4-0.3,1-0.3,1.5-0.4v0.1c0,1,0,2.2-0.1,3.3c0,0.3,0,0.6-0.1,0.9c-0.1,0.3-0.1,0.3-0.3,0.3c-0.3,0-0.7-0.1-1-0.1
	c0,0-0.1,0-0.1-0.1c-0.1-0.1-0.1-0.7-0.1-1C936.7,737.1,936.6,735.9,937,735.6z M937,755.2c0.4-0.3,1-0.1,1.5,0
	c0.1,1.5,0.1,3.1,0,4.6v0.1c-0.3,0-0.7,0-1,0c-0.1,0-0.3,0-0.3-0.3c-0.1-0.3-0.1-0.7-0.1-1c0-0.7,0-1.5,0-2.1
	C936.9,755.6,936.7,755.5,937,755.2z M937,749c0.1-0.4,0.3-0.7,0.4-0.7c0.1,0,0.9-0.1,1,0c0.1,1.3,0.1,2.7,0,4v0.1
	c-0.4,0.1-0.7,0.1-1.2,0.3C936.7,752.8,936.7,749.8,937,749z M934.2,735.6c0.4-0.3,1-0.3,1.5-0.4v0.1c0,1,0,2.2-0.1,3.3
	c0,0.3,0,0.6-0.1,0.9c-0.1,0.3-0.1,0.3-0.3,0.3c-0.3,0-0.7-0.1-1-0.1c0,0-0.1,0-0.1-0.1c-0.1-0.1-0.1-0.7-0.1-1
	C933.9,737.1,933.8,735.9,934.2,735.6z M934.2,755.2c0.4-0.3,1-0.1,1.5,0c0.1,1.5,0.1,3.1,0,4.6v0.1c-0.3,0-0.7,0-1,0
	c-0.1,0-0.3,0-0.3-0.3c-0.1-0.3-0.1-0.7-0.1-1c0-0.7,0-1.5,0-2.1C934.1,755.6,934.1,755.5,934.2,755.2z M934.2,749
	c0.1-0.4,0.3-0.7,0.4-0.7s0.9-0.1,1,0c0.1,1.3,0.1,2.7,0,4v0.1c-0.4,0.1-0.7,0.1-1.2,0.3S934.1,749.8,934.2,749z M934.2,762
	c0.4-0.3,1-0.3,1.5-0.4v0.1c0,1,0,2.2-0.1,3.3c0,0.3,0,0.6-0.1,0.9c-0.1,0.3-0.1,0.3-0.3,0.3c-0.3,0-0.7-0.1-1-0.1
	c0,0-0.1,0-0.1-0.1c-0.1-0.1-0.1-0.7-0.1-1C933.9,763.5,933.8,762.3,934.2,762z M935.7,786.2v0.1c-0.3,0-0.7,0-1,0
	c-0.1,0-0.3,0-0.3-0.3c-0.1-0.3-0.1-0.7-0.1-1c0-0.7,0-1.5,0-2.1c0-0.9-0.1-1,0.1-1.2c0.4-0.3,1-0.1,1.5,0
	C935.8,783.1,935.8,784.5,935.7,786.2z M934.2,775.3c0.1-0.4,0.3-0.7,0.4-0.7s0.9-0.1,1,0c0.1,1.3,0.1,2.7,0,4v0.1
	c-0.4,0.1-0.7,0.1-1.2,0.3C934.1,779.2,934.1,776.2,934.2,775.3z M936,772.5c-0.4,0-1,0-1.5-0.3c-0.4-0.3-0.4-1.2-0.4-2.4
	c0.1-2.4,1-1.9,1.6-1.9c0,0,0,0,0.1,0v0.1c0.1,0.4,0.1,1,0.1,1.6C936,770.7,936,771.6,936,772.5z M936,746.1c-0.4,0-1,0-1.5-0.3
	c-0.4-0.3-0.4-1.2-0.4-2.4c0.1-2.4,1-1.9,1.6-1.9c0,0,0,0,0.1,0v0.1c0.1,0.4,0.1,1,0.1,1.6C936,744.4,936,745.2,936,746.1z M937,762
	c0.4-0.3,1-0.3,1.5-0.4v0.1c0,1,0,2.2-0.1,3.3c0,0.3,0,0.6-0.1,0.9c-0.1,0.3-0.1,0.3-0.3,0.3c-0.3,0-0.7-0.1-1-0.1
	c0,0-0.1,0-0.1-0.1c-0.1-0.1-0.1-0.7-0.1-1C936.7,763.5,936.6,762.3,937,762z M938.5,786.2v0.1c-0.3,0-0.7,0-1,0
	c-0.1,0-0.3,0-0.3-0.3c-0.1-0.3-0.1-0.7-0.1-1c0-0.7,0-1.5,0-2.1c0-0.9-0.1-1,0.1-1.2c0.4-0.3,1-0.1,1.5,0
	C938.7,783.1,938.7,784.5,938.5,786.2z M937,775.3c0.1-0.4,0.3-0.7,0.4-0.7c0.1,0,0.9-0.1,1,0c0.1,1.3,0.1,2.7,0,4v0.1
	c-0.4,0.1-0.7,0.1-1.2,0.3C936.7,779.2,936.7,776.2,937,775.3z M938.8,772.5c-0.4,0-1,0-1.5-0.3c-0.4-0.3-0.4-1.2-0.4-2.4
	c0.1-2.4,1-1.9,1.6-1.9c0,0,0,0,0.1,0v0.1c0.1,0.4,0.1,1,0.1,1.6C938.8,770.7,938.8,771.6,938.8,772.5z M938.8,746.1
	c-0.4,0-1,0-1.5-0.3c-0.4-0.3-0.4-1.2-0.4-2.4c0.1-2.4,1-1.9,1.6-1.9c0,0,0,0,0.1,0v0.1c0.1,0.4,0.1,1,0.1,1.6
	C938.8,744.4,938.8,745.2,938.8,746.1z"/>
<path class="st0" d="M271.2,910.6c-8.6-0.6-17.4-1.2-26-1.8c-0.6,7.7-1,15.3-1.6,23c9.2,0.1,18.2,0.1,27.4,0.3
	C271,925,271.2,917.9,271.2,910.6z"/>
<path class="st0" d="M271.8,879.7c-8.6-0.6-17.4-1.2-26-1.8c-0.6,7.7-1,15.3-1.6,23c9.2,0.1,18.2,0.1,27.4,0.3
	C271.6,894.1,271.8,886.9,271.8,879.7z"/>
<path class="st0" d="M364.2,829.3c0.3-17.6-15.6-37.8-21.1-52.8c-3.3-9,3.4-59.8-0.7-68c-15.8-30.2-32.1-16.9-59.5-16.1
	c-7.4,47.3-5,60.5-5.5,109.3c-13.2,13.3-26.4,26.5-39.6,39.9c-4.4,4.4-11,9.2-14.5,14.2c-5.9,8.3-3.7,19.6-4,29.5
	c-0.3,18.5-0.6,36.9-0.9,55.5c-0.1,5-2.5,16.8,0.7,21.4c0.3,0.4,0.7,0.9,1.3,1.2c2.4,1.3,13.2-0.1,16.3-0.1c4,0,30.8,1.6,48.5,1.2
	c15.1,3.7,53.1,1.5,57.8,1.5c3.1,0,13.9,3.3,16.3,0.9c0.6-0.4,1-1.2,1.3-2.1c3.6-7.9,1.6-28.6,1.6-37.7
	C363.1,894.6,363.7,862,364.2,829.3z M342.2,933c-9.2-0.1-18.2-0.1-27.4-0.3c0.6-7.7,1-15.3,1.6-23c8.6,0.6,17.4,1.2,26,1.8
	C342.4,918.7,342.2,925.9,342.2,933z M342.8,902.1c-9.2-0.1-18.2-0.1-27.4-0.3c0.6-7.7,1-15.3,1.6-23c8.6,0.6,17.4,1.2,26,1.8
	C342.8,887.9,342.8,895,342.8,902.1z M344.5,868c-9.2-0.1-18.2-0.1-27.4-0.3c0.6-7.7,1-15.3,1.6-23c8.6,0.6,17.4,1.2,26,1.8
	C344.6,853.6,344.5,860.8,344.5,868z M345,837c-9.2-0.1-18.2-0.1-27.4-0.3c0.6-7.7,1-15.3,1.6-23c8.6,0.6,17.4,1.2,26,1.8
	C345,822.8,345,829.9,345,837z"/>
<path class="st0" d="M273.1,655.7c0.1-10.8,0-23-3.1-30.7c-3.1-7.9-8.3-8.3-12.8-8.3c-28.8,0.1-57.5,0.1-86.3,0.3
	c1,56.8,2.2,113.7,3.3,170.5c0.7,36.2,1.3,72.5,0.3,108.7c-0.6,21.9-9.2,30.3-3.6,48.8c5.9,19.7,31.6,19.7,40.5,18.8
	c16.3-1.8,34,4.2,50.1,0.3c1.8-0.4,5.3-0.9,6.7-3.7c1.5-3.1,1.3-29.7,1.8-34.4c3.7-54.7,1.3-67.8,1.8-123.2
	C272.4,753.7,272.8,704.6,273.1,655.7z M229.1,713.2c-11.4,0.6-22.8,1.2-34.4,1.8c-0.6,0-1.2,0-1.6-0.3c-0.6-0.4-0.9-1.5-1-2.4
	c-3.3-14.1,3.6-13.2,12-14.2c8.2-1,16.3-0.9,24.5,0.4c0.3,0,0.6,0.1,0.7,0.3c0.1,0.3,0.3,0.7,0.3,1.2
	C229.8,704.2,229.7,708.8,229.1,713.2z M229.7,690.2c0,0.6-0.1,1.2-0.4,1.6c-0.3,0.3-0.7,0.3-1.2,0.3c-12.2-1.5-24.3-1.8-36.5-1.2
	c-0.7,0-1.6,0-2.1-0.9c-0.1-0.4-0.1-1-0.3-1.6c0-3.6-1-9.5,1.3-11.9c2.2-2.4,9.8-1.2,12.6-1.5c8.5-0.6,16.9-1.2,25.4-1.2
	c0.4,0,0.7,0,1,0.3c0.3,0.4,0.4,1,0.4,1.6C230.3,680.7,230.1,685.5,229.7,690.2z M232.2,662.2c0,0.7,0,1.5-0.3,2.1
	c-0.4,1-1.5,1-2.4,1c-6.5-0.3-12.9-0.7-19.4-1c-4.3-0.3-15.3,2.1-18.8-1c-3.9-3.3-1-8.2,1.9-10.4c4.3-3.3,10.1-1.3,14.7-1.9
	c7-0.7,13.8-3.1,20.8-2.8c1.2,0,2.7,0.4,3.3,1.9c0.3,0.7,0.3,1.8,0.3,2.7C232.3,655.7,232.2,658.9,232.2,662.2z"/>
<path class="st0" d="M180.7,923.3c0.3-17.5,0.3-35.1,0.1-52.6c0-4.7-3-64.4-3.6-64.4c-26.7-2.4-51.2,2.4-77.9,0
	c-2.2-0.1-4.9-0.1-6.1,2.5c-0.6,1.3-0.7,3.1-0.7,4.7c-1.2,45.7-0.7,102.9,1.3,148.6c25.1,0.6,50.1,1.3,75.2,1.9
	c4.3,0.1,8.7,1.9,11-4C182.2,954.5,180.6,929.6,180.7,923.3z M106,849.6c0-1.6,0-3.4,0.6-4.9c0.1-0.3,0.1-0.4,0.3-0.6
	c0.1-0.1,0.4-0.1,0.7-0.1c4,0.1,9.8-1.2,10.7,5.9c0.4,3.6,0.3,6.5-2.5,7.3c-3.1,0.7-6.5,0.7-9.8,0.7
	C106.1,855.1,106,852.3,106,849.6z M116.1,877.7c-2.5-0.3-5-0.6-7.6-0.9c-0.1,0-0.3,0-0.4-0.1c-0.1-0.1-0.1-0.4-0.1-0.6
	c-0.3-4-0.3-8,0.3-12c0.1-0.6,5.6-0.1,6.2,0c1.2,0.3,2.4,0.9,3.1,2.4C119,869.1,118.9,878,116.1,877.7z M118.6,889.2
	c-0.1,2.2-0.1,4.3-0.3,6.5c0,1.2-0.1,2.4-0.7,3.1c-0.6,0.7-1.5,0.9-2.4,0.9c-2.2,0-4.6,0-6.8,0c-0.1,0-0.3,0-0.4-0.1
	c-0.1-0.1-0.1-0.3-0.1-0.4c-0.7-4.6-0.7-9.3,0-13.9c3-0.1,6.5-0.7,9.5,0.1C119,886.1,118.7,886.6,118.6,889.2z M119,834.1
	c0,1.3-0.1,2.8-1,3.4c-0.3,0.1-0.6,0.3-0.9,0.3c-2.4,0.3-4.7,0.6-7.1,0.6c-0.7,0-1.5,0-2.1-0.7c-0.4-0.6-0.6-1.8-0.6-2.7
	c-0.1-3.3-0.3-6.5-0.4-9.8c0-0.1,0-0.4,0.1-0.6c0.1-0.1,0.3-0.1,0.4-0.1c3.3,0.4,6.8,0.4,9.9,1.5C120.2,826.8,119.2,830.5,119,834.1
	z"/>
<path class="st0" d="M505.4,836c0.3-16.3,3.7-117.9-1.9-131.7c-3.4-8.3,1-25.8-6.7-28.9c-22.7-9.2-24.5-7-52.6-4.2
	c-4.6-3.1-15.3-2.8-20.3-2.7c-7.4,44.3-4.7,98-5.2,143.5c-0.4,48.5,0.1,97,1.9,145.3c0.3,8.3,58.1,5,64.1,5.2c3.1,0,13.9,3,16.3,0.9
	c0.6-0.4,1-1.2,1.3-1.9c3.6-7.3,1.5-26.4,1.6-34.8C504.5,896.4,504.9,866.1,505.4,836z M455.5,929.7c-8,0-16-0.1-24-0.1
	c0.4-6.7,0.9-13.5,1.3-20.2c7.6,0.6,15.3,1,22.8,1.6C455.7,917.1,455.5,923.3,455.5,929.7z M456,902.6c-8,0-16-0.1-24-0.1
	c0.4-6.7,0.9-13.5,1.3-20.2c7.6,0.6,15.3,1,22.8,1.6C456.1,890,456.1,896.2,456,902.6z M460.1,831.7c-8,0-16-0.1-24-0.1
	c0.4-6.4,0.9-12.9,1.3-19.3c7.6,0.4,15.3,1,22.8,1.5C460.3,819.7,460.1,825.8,460.1,831.7z M488.7,930c-8,0-16-0.1-24-0.1
	c0.4-6.7,0.9-13.5,1.3-20.2c7.6,0.6,15.3,1,22.8,1.6C488.9,917.4,488.9,923.6,488.7,930z M489.3,902.9c-8,0-16-0.1-24-0.1
	c0.4-6.7,0.9-13.5,1.3-20.2c7.6,0.6,15.3,1,22.8,1.6C489.3,890.3,489.3,896.7,489.3,902.9z M493.3,832c-8,0-16-0.1-24-0.1
	c0.4-6.4,0.9-12.9,1.3-19.3c7.6,0.4,15.3,1,22.8,1.5C493.5,820,493.5,826.1,493.3,832z M493.3,743.2c-8,0-16-0.1-24-0.1
	c0.4-6.4,0.9-12.9,1.3-19.3c7.6,0.4,15.3,1,22.8,1.5C493.5,731.2,493.5,737.2,493.3,743.2z"/>
<rect y="956" class="st0" width="1600" height="63"/>
<path class="st0" d="M1357.7,503.3c-3.1-0.1-6.4-0.3-9.5-0.4c-2.7-0.1-5.3-0.3-7.9-0.4c-4.8-0.1-9.6-0.6-14.2-1
	c-2.2-0.1-4.6-0.4-6.8-0.6c-1.9-0.1-3.9-0.3-5.6-0.3c-5.3-0.3-10.4-0.6-15.6-1.9c-0.9-0.3-4-0.6-6.4-0.9c-1.5-0.1-2.8-0.3-3.6-0.4
	c-1.2,0.3-2.2,0.4-3.4,0.4c-3.1-0.1-5.9-1.5-8.3-4.2c-4.5-4.7-6.7-13.1-6.4-18.2c0.3-5.6,8.3-13.3,13.9-16.3
	c4.2-2.2,11.1-2.7,14.2-2.8c-0.7-5.9,1.6-12.5,6.7-18.2c8.2-9.5,21.5-15.3,32.2-13.6c9.8,1.5,18.5,8,23.6,17.6
	c3.9,7.3,4.9,15.1,3.1,21.7c1.3-0.4,3.3-0.7,5.3-0.6c3.7,0.1,7.6,1,9.3,1.8c7.7,3.3,11.4,7.6,15.4,14.4c3.1,5.2-0.7,14.4-4.7,19.3
	c-3.3,3.9-8.2,4.2-13,4.4c-1.3,0.1-2.8,0.1-4.3,0.3C1367.8,503.3,1363.3,503.5,1357.7,503.3z"/>
<path class="st0" d="M287.9,349.6c-2.2,0-4.6,0-6.7-0.1c-1.9,0-3.7-0.1-5.6-0.1c-3.4,0-6.8-0.1-10.1-0.3c-1.6-0.1-3.3-0.1-4.7-0.1
	c-1.3,0-2.7,0-4-0.1c-3.7,0-7.3-0.1-11.1-0.9c-0.7-0.1-2.8-0.3-4.6-0.4c-1-0.1-1.9-0.1-2.5-0.3c-0.7,0.3-1.6,0.3-2.4,0.4
	c-2.2,0-4.3-0.9-6.1-2.7c-3.3-3.3-5-9-5-12.8c0.1-4,5.5-9.6,9.5-12c2.8-1.6,7.9-2.2,9.9-2.4c-0.6-4.2,0.7-8.8,4.2-13
	c5.5-7,14.8-11.4,22.4-10.5c7,0.7,13.3,5.2,17.2,11.9c3,5,3.9,10.5,2.8,15.3c1-0.3,2.2-0.6,3.7-0.6c2.5,0,5.3,0.4,6.7,1
	c5.5,2.1,8.3,5,11.3,9.8c2.4,3.6-0.1,10.2-2.8,13.8c-2.2,2.8-5.6,3.3-9,3.6c-1,0.1-2.1,0.1-3,0.4C295,349.3,291.7,349.4,287.9,349.6
	z"/>
<path class="st0" d="M526.9,55.6c-2.2,0-4.6,0-6.7-0.1c-1.9,0-3.7-0.1-5.6-0.1c-3.4,0-6.8-0.1-10.1-0.3c-1.6-0.1-3.3-0.1-4.7-0.1
	c-1.3,0-2.7,0-4-0.1c-3.7,0-7.3-0.1-11.1-0.9c-0.7-0.1-2.8-0.3-4.6-0.4c-1-0.1-1.9-0.1-2.5-0.3c-0.7,0.3-1.6,0.3-2.4,0.4
	c-2.2,0-4.3-0.9-6.1-2.7c-3.3-3.3-5-9-5-12.8c0.1-4,5.5-9.6,9.5-12c2.8-1.6,7.9-2.2,9.9-2.4c-0.6-4.2,0.7-8.7,4.2-13
	c5.5-7,14.8-11.4,22.4-10.5c7,0.7,13.3,5.2,17.2,11.9c3,5,3.9,10.5,2.8,15.3c1-0.3,2.2-0.6,3.7-0.6c2.5,0,5.3,0.4,6.7,1
	c5.5,2.1,8.3,5,11.3,9.8c2.4,3.6-0.1,10.2-2.8,13.8c-2.2,2.8-5.6,3.3-9,3.6c-1,0.1-2.1,0.1-3,0.4C534,55.4,530.9,55.6,526.9,55.6z"
	/>
</svg>
