<svg width="342" height="808" viewBox="0 0 342 808" fill="none" xmlns="http://www.w3.org/2000/svg">
<path d="M340.424 232.294C342.273 233.062 342.581 235.209 340.887 236.437C329.334 245.335 318.243 254.233 307.922 263.131C306.536 264.205 304.995 265.432 303.147 265.278C301.915 265.125 300.99 264.358 300.22 263.744L288.667 254.539C287.589 253.619 287.589 251.931 288.667 251.011C298.68 241.96 309.771 233.368 321.94 225.237C323.018 224.624 324.25 224.47 325.329 225.084C330.104 227.692 335.033 230.147 340.424 232.294Z" fill="#03A678"/>
<path d="M333.493 234.289C334.725 234.75 335.033 236.284 333.801 237.204C325.791 243.494 318.089 249.784 310.695 256.074C309.771 256.841 308.539 257.762 307.306 257.608C306.536 257.455 305.766 256.995 305.15 256.534L296.832 250.091C296.061 249.477 296.061 248.25 296.832 247.483C304.071 241.04 312.081 234.903 320.708 229.227C321.478 228.766 322.402 228.766 323.018 229.073C326.253 231.068 329.796 232.909 333.493 234.289Z" fill="white"/>
<path d="M322.093 231.374C322.401 231.221 322.555 231.067 322.864 231.067C323.172 231.067 323.326 231.221 323.634 231.374C324.096 231.681 324.558 231.988 325.02 232.295C325.482 232.602 325.944 233.062 326.406 233.369C326.714 233.675 327.177 233.829 327.485 233.982C328.409 234.442 329.179 234.903 330.103 235.363C330.566 235.67 331.028 235.823 331.336 236.13C331.49 236.283 331.644 236.437 331.644 236.59C331.028 237.204 330.411 237.664 329.795 238.278C329.487 238.585 328.871 239.198 328.409 239.198C328.101 239.198 327.793 238.738 327.485 238.585L327.331 238.431C327.177 238.891 327.023 239.352 327.023 239.812C326.869 239.198 326.715 238.585 326.715 237.971V237.818C326.56 237.818 326.56 237.664 326.406 237.664C325.328 236.744 324.096 235.977 323.018 235.056C322.555 234.749 322.093 234.442 321.631 234.136C321.477 233.982 320.091 232.908 320.091 232.908C320.861 232.448 321.477 231.834 322.093 231.374Z" fill="#CCCCCC"/>
<path d="M309.462 239.813C309.77 239.813 310.232 239.66 310.54 239.506C310.078 239.046 309.77 238.739 309.308 238.279C309.924 237.972 310.54 237.512 311.003 237.205C311.157 237.205 311.157 237.052 311.311 237.052C311.465 237.052 311.619 237.205 311.773 237.359C312.697 238.279 314.237 239.046 315.162 239.967C315.932 240.734 316.24 241.041 317.318 242.114C316.856 242.421 315.778 243.342 315.316 243.649C315.162 243.342 314.853 243.035 314.545 242.728C313.313 241.808 312.235 240.887 311.157 239.967C310.848 239.967 310.54 239.967 310.386 239.967C310.078 240.273 309.77 240.12 309.462 239.813Z" fill="#B8CDD8"/>
<path d="M319.629 237.664C319.937 237.357 320.245 237.203 320.707 236.897C320.707 236.897 320.861 236.897 320.861 236.743C321.015 236.743 321.015 236.743 321.169 236.897C322.864 238.124 324.712 239.505 326.407 240.732C326.099 240.885 325.174 241.652 324.866 241.959C324.866 241.959 324.712 242.113 324.558 242.113C324.404 242.113 324.25 241.959 324.25 241.959L324.096 241.806C323.942 242.266 323.942 242.726 323.788 243.033C323.634 242.419 323.48 241.806 323.48 241.192V241.039C322.094 239.811 320.861 238.584 319.629 237.664Z" fill="#CCCCCC"/>
<path d="M311.157 246.563C311.619 246.256 312.081 245.796 312.543 245.489L312.697 245.336C312.697 245.336 312.851 245.336 312.851 245.489C313.775 246.103 314.546 246.717 315.47 247.33C316.086 247.791 316.702 248.251 317.164 248.865C316.702 249.325 316.24 249.632 315.778 250.092L315.624 250.245C315.47 250.245 315.47 250.245 315.316 250.245C315.162 250.092 314.854 249.938 314.7 249.785C314.546 249.938 314.392 250.245 314.238 250.399L314.084 250.552C314.084 250.092 314.084 249.632 314.084 249.171C313.005 248.404 312.081 247.484 311.157 246.563Z" fill="#CCCCCC"/>
<path d="M301.761 246.562C301.299 246.102 300.99 245.642 300.528 245.181C301.299 244.721 302.069 244.261 302.685 243.954H302.839C302.993 243.954 302.993 243.954 303.147 244.108C305.458 245.795 306.998 248.25 309.309 250.091L309.463 250.244V250.398C308.846 251.165 308.23 251.932 307.614 252.699C306.382 251.625 305.15 250.397 303.917 249.324C303.455 248.863 302.993 248.403 302.839 247.789C302.377 247.943 301.761 247.943 301.299 247.943C301.299 247.789 301.453 247.636 301.607 247.483C301.761 247.329 302.069 247.176 301.915 247.022C301.761 246.562 301.761 246.562 301.761 246.562Z" fill="#B8CDD8"/>
<path d="M326.561 218.489C328.256 217.108 329.95 215.727 331.491 214.04C332.107 213.273 331.028 212.199 330.412 212.966C328.872 214.5 327.486 216.188 325.945 217.722C325.175 218.182 325.945 218.949 326.561 218.489Z" fill="#666666"/>
<path d="M323.481 216.648C323.481 214.807 323.173 213.119 322.403 211.432C321.941 210.511 320.4 210.818 320.862 211.892C321.479 213.426 321.941 215.114 322.249 216.801C322.403 217.568 323.481 217.415 323.481 216.648Z" fill="#666666"/>
<path d="M320.092 218.336C319.014 216.188 317.473 214.194 315.933 212.506C315.317 211.739 313.93 212.506 314.546 213.273C315.933 215.268 317.473 217.415 319.168 219.103C319.784 219.563 320.4 218.95 320.092 218.336Z" fill="#666666"/>
<path d="M270.491 299.491C271.724 294.428 272.34 289.212 272.34 283.996C272.34 283.689 272.34 283.382 272.186 283.075C272.032 282.922 271.724 282.922 271.416 282.922C269.105 282.922 266.794 283.075 264.638 283.536C263.097 283.842 261.249 284.456 260.787 285.99C260.479 286.757 260.633 287.678 260.633 288.598C260.787 292.74 259.246 297.036 259.555 301.178C259.863 304.246 261.249 307.161 262.635 310.076C262.789 310.383 262.943 310.69 263.252 310.69C263.406 310.69 263.56 310.69 263.868 310.536C265.254 310.076 266.794 309.462 267.873 308.235C268.335 307.621 268.797 306.854 269.105 306.241C270.337 302.866 269.567 303.172 270.491 299.491Z" fill="#EADDD0"/>
<path d="M266.178 482.052C261.094 482.052 256.011 482.052 250.774 482.052C246.769 436.027 243.534 383.1 239.529 337.076C255.087 335.388 270.645 335.695 286.203 336.309C291.44 370.98 276.961 411.788 272.339 446.46C270.799 458.272 270.183 470.546 266.178 482.052Z" fill="#3C444C"/>
<path d="M252.468 236.745C241.84 234.751 239.221 242.728 239.221 252.086C239.067 269.115 238.451 286.144 237.373 303.173C236.756 311.917 236.14 320.815 235.37 329.56C234.6 338.765 233.984 340.606 243.842 341.373C261.557 342.754 279.579 342.754 297.294 341.373C299.297 341.219 299.297 313.452 299.297 311.15C299.759 296.423 297.602 281.695 292.365 267.581C289.284 259.45 284.355 251.626 276.961 245.95C270.029 240.427 261.557 238.432 252.468 236.745Z" fill="#CFA8C6"/>
<path d="M261.403 273.716C263.406 272.489 265.409 271.568 267.565 270.801C267.873 270.648 268.181 270.648 268.489 270.801C268.797 270.954 268.951 271.261 268.951 271.568C270.646 276.324 271.724 281.233 272.494 286.296C275.883 283.228 279.58 280.466 283.123 277.705C292.366 270.801 301.608 264.204 311.158 257.761C312.699 256.687 314.393 255.613 316.396 255.306C318.244 254.999 320.555 255.92 321.171 257.761C307.307 274.79 290.363 289.057 271.262 299.95C269.876 300.717 269.26 300.87 268.181 302.097C267.719 302.558 267.103 302.558 266.641 302.251C266.179 301.944 265.717 301.484 265.409 301.024C262.944 297.342 262.174 292.739 261.558 288.444C261.095 285.529 260.633 282.767 259.401 280.006C259.093 279.239 258.631 278.472 258.631 277.551C258.477 275.71 260.017 274.483 261.403 273.716Z" fill="#EDD5BE"/>
<path d="M251.852 480.517C256.165 480.21 260.632 480.364 264.945 481.131C268.334 483.586 271.877 485.58 275.728 487.268C276.806 487.728 278.039 488.188 278.809 488.955C279.579 489.876 280.041 491.256 279.271 492.177C278.655 492.944 277.423 493.097 276.344 493.097C268.334 493.251 260.17 492.484 252.314 491.103C251.852 490.95 251.39 490.95 250.928 490.643C250.62 490.336 250.466 490.029 250.466 489.569C249.695 486.501 250.157 483.125 251.852 480.517Z" fill="#537082"/>
<path d="M280.503 218.181C280.657 220.789 280.503 223.397 279.425 225.698C277.114 230.761 270.028 233.062 264.175 231.682C258.321 230.301 253.854 225.698 251.544 220.636C249.233 215.573 248.771 209.897 248.771 204.527C248.771 198.391 249.541 191.641 254.779 187.652C256.935 185.964 259.554 185.044 262.172 184.43C265.561 183.663 269.72 183.51 272.339 185.811C273.571 186.885 274.188 188.419 274.804 189.953C278.193 199.158 280.195 208.67 280.503 218.181Z" fill="#EDD5BE"/>
<path d="M276.961 246.103C273.11 243.188 268.643 241.347 264.946 238.279C258.168 232.602 254.933 222.784 257.09 214.193C253.393 215.727 248.463 212.198 249.234 208.21C250.004 204.221 256.319 202.993 258.322 206.522C262.173 201.306 268.643 197.01 270.645 191.334C275.728 194.402 279.117 200.232 278.963 206.215C279.888 201.306 280.042 196.09 279.425 191.027C278.963 186.885 277.423 182.436 273.726 180.749C271.877 179.828 269.875 179.828 268.026 180.135C266.948 178.908 265.562 177.987 264.021 177.22C260.016 175.379 255.241 175.379 251.082 176.606C243.688 178.754 237.219 184.43 234.292 191.487C231.981 196.704 231.673 202.533 231.519 208.21C231.519 214.499 231.827 221.096 233.984 227.079C239.375 242.574 255.703 252.393 272.032 254.847C276.037 255.461 280.196 255.768 283.43 258.069C284.047 253.466 280.812 249.017 276.961 246.103Z" fill="#685347"/>
<path d="M164.868 788.246C164.476 787.27 164.084 786.294 163.692 785.317C163.888 785.317 164.28 785.122 164.476 785.122C164.476 775.752 164.476 766.381 164.476 757.01C164.476 744.711 163.888 732.803 162.712 720.699C159.575 684.778 163.692 648.272 160.751 611.57C159.967 602.98 159.379 594.39 157.223 586.191C154.479 575.259 154.479 573.892 144.678 571.94C129.585 569.011 108.61 568.816 93.9091 572.916C93.713 643.001 97.6334 720.504 103.906 790.003C104.298 790.003 104.886 790.003 105.278 790.003C101.554 793.126 97.6334 795.664 93.1249 797.421C91.9488 797.812 90.9688 798.202 89.9887 799.178C88.2245 800.935 88.4205 804.254 90.5767 805.62C92.5369 806.987 95.0852 806.401 97.2414 806.011C103.71 804.644 109.983 803.278 116.451 801.911C117.627 801.716 118.803 801.326 119.587 800.545C120.568 799.569 120.568 798.007 120.568 796.445C120.568 794.298 120.568 792.345 120.568 790.198C120.764 790.198 120.96 790.198 121.156 790.198C125.86 752.52 124.488 716.599 125.664 678.726C127.82 696.296 131.741 706.448 136.053 728.313C138.013 738.464 140.366 748.42 141.934 758.572C142.718 763.843 143.698 768.919 144.678 774.19C145.462 778.68 147.226 783.365 147.03 787.855C147.422 787.855 147.618 787.855 148.01 787.855C145.854 792.15 142.914 796.055 139.385 799.373C138.601 800.154 137.621 800.935 137.229 802.107C136.249 804.254 137.817 807.378 140.169 807.768C142.326 808.354 144.678 806.987 146.442 805.62C151.735 801.911 157.223 798.202 162.516 794.688C163.496 794.102 164.476 793.322 165.064 792.15C166.044 791.174 165.456 789.612 164.868 788.246Z" fill="#3C444C"/>
<path d="M146.638 388.236C146.638 385.893 146.638 383.355 145.854 381.208C143.698 376.327 137.425 375.156 132.329 374.57C121.352 373.594 108.61 373.399 101.75 382.184C101.162 382.965 100.182 383.941 99.3975 383.355C99.5935 390.578 99.7895 397.997 99.9855 405.22C100.182 413.419 100.574 422.204 105.082 429.037C107.826 432.942 111.747 435.87 115.667 438.603C118.803 440.75 122.136 442.898 125.664 442.898C131.153 442.703 135.269 437.822 138.601 433.137C140.365 430.794 141.934 428.452 143.306 425.914C146.05 420.252 146.246 413.615 146.246 407.172C146.246 400.925 146.442 394.483 146.638 388.236Z" fill="#C89A81"/>
<path d="M160.556 377.695C161.732 375.548 159.772 373.01 157.615 371.838C160.164 369.886 158.399 365.201 155.263 365.201C156.243 363.053 155.263 360.125 153.303 358.759C151.343 357.392 148.207 357.978 146.638 359.735C146.834 358.368 146.638 357.002 146.05 355.83C143.502 355.44 140.758 356.416 138.798 358.173C138.406 355.049 133.701 353.487 131.545 355.635C131.545 354.073 129.781 352.902 128.017 353.097C126.252 353.292 125.076 354.464 123.704 355.635C123.9 353.683 121.548 352.121 119.588 352.511C117.627 352.902 116.059 354.464 115.079 356.416C112.531 355.049 109.395 354.854 106.846 355.635C106.65 356.611 106.651 357.587 106.455 358.563C103.122 356.221 97.8297 357.002 95.2814 360.125C93.9093 360.32 92.5371 361.296 91.9491 362.663C91.165 364.42 92.1451 366.763 93.7133 367.739C91.9491 367.153 89.7929 367.934 88.8128 369.496C88.0287 370.667 88.0287 372.229 88.6167 373.595C86.0685 374.181 84.1083 375.548 83.3242 377.89C82.5401 380.233 83.7163 382.576 85.4805 384.333C85.6765 384.918 85.8724 385.309 86.2645 385.699C86.8525 386.285 87.8327 386.48 88.6167 386.285C88.8127 386.285 89.0087 386.48 89.2048 386.48C89.2048 387.456 89.5968 388.432 90.1849 389.018C90.9689 389.213 91.753 389.213 92.5371 388.823C92.5371 389.408 92.9292 390.189 93.3212 390.58C93.3212 390.775 93.5172 391.165 93.5172 391.361C94.1053 393.313 94.8893 395.46 95.4774 397.412C96.2615 399.755 96.8496 401.903 97.6337 404.245C98.4177 404.245 99.3978 404.245 100.182 404.245C99.7898 400.146 99.7898 395.851 99.7898 391.751C100.378 392.141 100.966 392.337 101.75 392.141C103.514 391.946 105.082 390.58 106.846 390.189C108.219 389.799 110.375 388.823 109.395 387.847C111.747 388.627 114.491 388.432 116.843 387.456C118.608 389.799 122.724 389.994 124.684 387.651C127.232 389.018 130.369 388.627 132.525 386.87C133.701 389.408 137.817 389.994 139.582 387.847C138.994 389.213 139.582 390.97 140.954 391.751C142.326 392.337 144.09 391.751 144.874 390.58V390.775C144.678 393.703 144.482 396.632 144.482 399.365C144.482 400.926 144.482 402.683 145.658 403.66C145.854 403.66 145.854 403.855 146.05 403.855C146.442 403.855 146.638 403.464 146.834 403.269C148.402 399.755 149.579 396.241 150.167 392.532C150.363 392.727 150.559 392.922 150.755 392.922C151.735 393.313 152.715 393.118 153.695 392.727C155.459 392.141 157.223 391.556 158.007 389.994C158.595 389.213 158.595 388.042 158.203 387.066C159.183 384.918 159.38 382.38 158.988 380.038C158.988 379.842 159.183 379.647 159.183 379.452C159.576 378.866 160.36 378.476 160.556 377.695Z" fill="#333333"/>
<path d="M95.4777 622.308C86.2649 627.774 88.6171 620.355 80.5804 618.598C80.1883 618.598 76.4639 537.386 77.444 530.163C80.5803 504.393 75.0918 477.453 88.6171 453.636C105.867 423.181 120.568 457.931 140.562 439.97C141.542 438.994 142.522 438.018 143.698 437.627C152.323 434.894 158.988 458.516 160.556 463.787C167.809 488.776 172.121 512.398 174.081 538.557C175.062 552.028 175.258 565.693 174.669 579.359C174.473 583.458 174.081 617.037 170.945 618.013C156.244 622.503 140.954 620.551 125.861 619.575C118.412 618.989 109.395 617.427 102.142 619.184C99.9862 619.379 97.634 620.941 95.4777 622.308Z" fill="#B4C7BA"/>
<path d="M106.062 447.194C89.5964 446.803 73.3268 446.413 58.2334 449.341C60.5856 466.521 63.918 484.091 68.4264 501.661C92.3407 499.123 118.803 498.928 144.678 498.732C140.953 482.139 135.465 463.592 131.937 447.584C123.312 447.584 114.687 447.389 106.062 447.194Z" fill="#03A678"/>
<path d="M54.5091 436.651C53.7251 432.747 53.137 428.842 51.7648 424.938C51.1768 423.181 48.4325 423.962 49.0206 425.719C50.1967 429.623 51.7648 433.137 52.7449 437.041C52.9409 438.603 54.7051 438.018 54.5091 436.651Z" fill="#666666"/>
<path d="M48.8252 439.97C45.8849 438.409 42.9446 437.237 39.6122 436.847C37.8481 436.652 37.064 439.385 39.0242 439.775C42.1605 440.361 45.1008 440.946 48.041 441.923C49.4132 442.313 50.0013 440.556 48.8252 439.97Z" fill="#666666"/>
<path d="M48.4328 446.802C44.1204 446.607 39.612 447.388 35.2996 448.168C33.5354 448.559 33.5355 451.292 35.4956 451.097C39.8081 450.706 44.7085 450.316 48.8249 448.949C50.001 448.364 49.609 446.802 48.4328 446.802Z" fill="#666666"/>
<path d="M162.908 517.081C165.064 517.081 166.241 514.738 166.241 512.591C166.241 509.663 164.476 507.125 162.712 504.782C155.263 495.021 146.639 486.236 137.23 478.427C133.505 475.303 129.389 472.375 124.685 471.204C122.724 470.618 120.176 470.618 118.804 472.375C117.04 474.523 118.804 477.646 120.568 479.794C125.273 485.65 130.369 491.312 135.466 496.778C142.718 504.587 150.755 512.396 160.752 516.495C161.34 516.886 162.124 517.081 162.908 517.081Z" fill="#C89A81"/>
<path d="M157.615 444.263C162.516 450.119 166.044 457.147 167.612 464.566C168.592 468.861 168.789 473.156 169.181 477.451C169.769 487.016 170.553 496.582 169.181 505.953C168.593 509.857 167.024 514.543 163.104 515.324C160.36 515.909 157.419 513.957 156.047 511.419C154.675 508.881 154.283 505.953 154.087 503.22C152.519 488.383 150.951 473.546 149.383 458.709C148.991 455.39 148.795 452.072 149.971 448.948C150.951 445.825 154.283 443.287 157.615 444.263Z" fill="#C89A81"/>
<path d="M72.1515 522.159C73.5236 523.331 75.6798 522.94 77.0519 521.573C78.4241 520.402 79.012 518.645 79.4041 516.888C84.3045 500.88 86.4608 483.896 85.6767 467.302C85.6767 466.326 85.4808 465.154 84.8927 464.178C83.9126 462.812 81.7563 463.007 80.3842 463.983C79.012 464.959 78.228 466.521 77.64 468.083C71.3674 483.7 70.9753 500.88 70.7793 517.669C70.7793 519.231 70.9753 521.183 72.1515 522.159Z" fill="#C89A81"/>
<path d="M181.893 86.0997C182.308 83.4761 182.724 80.7144 183.556 78.2288C183.972 76.9861 185.775 77.5384 185.497 78.7812C184.804 81.4048 183.834 83.8903 183.279 86.514C183.002 87.3425 181.754 86.9282 181.893 86.0997Z" fill="#666666"/>
<path d="M185.775 88.171C187.716 87.0663 189.657 86.2378 192.014 85.9617C193.262 85.8236 193.817 87.6186 192.569 87.8948C190.489 88.309 188.409 88.8614 186.468 89.5518C185.498 89.828 185.082 88.5852 185.775 88.171Z" fill="#666666"/>
<path d="M186.191 92.8663C189.102 92.5902 192.153 93.1425 195.064 93.5567C196.312 93.6948 196.312 95.628 195.064 95.4899C192.153 95.2137 188.825 95.0757 186.052 94.2472C185.22 93.971 185.359 92.8663 186.191 92.8663Z" fill="#666666"/>
<path d="M178.334 182.013C177.78 179.527 177.225 177.18 176.532 174.694C174.868 168.757 168.352 168.204 162.806 167.376C156.705 166.409 150.605 166.409 144.504 166.409C139.651 166.409 134.66 166.409 130.223 168.066C128.144 168.895 126.202 169.999 124.955 171.794C124.261 172.761 123.984 173.866 123.845 175.109C123.707 175.109 123.568 175.247 123.429 175.247C122.736 215.567 127.173 276.463 132.164 316.507C130.362 318.026 128.837 319.683 127.312 321.478C125.093 324.102 122.875 327.278 123.429 330.592C127.45 332.111 131.748 329.902 135.492 327.83L140.345 325.069C143.672 323.135 147.277 320.788 147.832 317.06C147.97 316.231 147.832 315.265 147.416 314.574C148.247 293.861 149.911 279.224 151.714 261.273C151.852 261.273 151.991 261.273 152.13 261.273C152.268 261.412 152.546 261.55 152.684 261.688C152.684 261.826 152.546 262.102 152.546 262.24C154.487 280.743 156.15 295.518 156.982 316.784C156.566 317.612 156.566 318.441 156.566 319.269C157.121 322.997 160.726 325.483 164.053 327.278L168.906 330.04C172.65 332.111 176.948 334.32 180.968 332.801C181.523 329.487 179.305 326.311 177.086 323.688C175.561 321.893 174.036 320.236 172.234 318.717C171.402 318.026 173.343 308.913 173.481 307.67C173.897 303.527 174.313 299.385 174.729 295.242C176.67 275.496 178.196 255.612 179.305 235.728C180.83 217.777 181.939 199.688 178.334 182.013Z" fill="#4A4E31"/>
<path d="M140.483 99.8514C142.84 100.818 145.059 101.37 146.723 101.508C148.664 101.508 150.466 100.542 152.13 99.7133C155.596 97.7801 159.201 95.7088 161.003 92.2567C161.974 90.1854 162.251 87.838 162.528 85.6286C163.083 79.8291 163.222 74.0295 163.222 68.2299C163.222 65.192 163.083 62.1541 161.419 59.6686C158.646 55.5261 152.962 54.8356 147.832 54.4214C142.84 54.1452 137.572 53.869 133.274 56.2165C128.698 58.702 129.807 62.2922 129.391 66.711C128.976 72.3724 128.698 77.8959 128.698 83.5574C128.698 86.7333 128.837 90.1854 130.362 92.809C131.887 95.1565 136.324 98.0563 140.483 99.8514Z" fill="#F2E7D6"/>
<path d="M151.298 96.1241C150.605 96.4002 149.773 96.8145 148.941 96.5383C148.248 96.2621 147.693 95.5717 147.139 95.0193C146.584 94.467 145.475 94.1908 145.059 94.8812C145.475 95.4336 145.198 96.2621 144.505 96.6764C143.95 97.0907 143.118 97.0906 142.425 96.9526C141.177 96.9526 139.374 96.2621 139.513 95.0193C139.097 95.0193 138.82 95.0193 138.404 95.0193C137.988 96.124 138.265 97.5049 138.959 98.3334C139.652 99.3 140.761 99.8524 142.009 100.267C145.614 101.509 149.912 100.681 152.823 98.1954C153.794 97.3668 154.626 95.9859 154.071 94.8812C153.101 95.4336 152.269 95.8479 151.298 96.1241Z" fill="#333333"/>
<path d="M124.955 64.2266C124.539 69.1977 123.43 78.0351 127.728 81.7633C132.026 75.8257 128.698 66.1598 134.244 60.6364C137.849 57.0462 144.504 57.5985 148.248 61.0506C149.773 62.5696 151.159 64.5028 153.239 64.917C153.932 65.0551 154.625 65.0551 155.319 65.0551C162.251 65.8836 161.281 77.7589 162.113 82.5919C162.251 83.5585 162.806 84.8012 163.776 84.6631C164.608 84.6631 165.163 83.5585 165.301 82.73C166.827 76.5161 166.827 69.6119 166.133 63.26C165.995 61.4649 165.579 59.6698 164.886 58.1509C161.419 50.6943 148.802 48.623 141.454 49.7277C133.828 50.9705 125.648 55.8034 124.955 64.2266Z" fill="#333333"/>
<path d="M174.729 72.649C174.036 70.4397 173.066 68.2303 171.402 66.5733C170.57 65.8829 169.599 65.1925 168.49 65.0544C168.906 60.7738 167.381 56.217 165.717 52.2125C165.163 50.9698 164.608 49.727 163.776 48.6223C161.003 44.4798 155.873 42.4086 150.743 42.1324C145.752 41.8562 140.761 43.099 136.047 44.6179C132.996 45.5845 129.807 46.6892 127.589 48.8985C125.648 50.8317 124.4 53.3172 123.568 55.9408C122.043 60.3595 121.488 65.0544 121.766 69.7493C121.488 69.8873 121.35 70.1635 121.073 70.3016C119.409 71.8205 118.438 74.1679 117.745 76.3773C117.329 77.62 117.052 79.0009 117.052 80.2437C117.052 82.8673 118.022 84.9385 119.27 86.3194C119.27 87.0098 119.409 87.5621 119.825 88.1144C120.518 89.3572 122.043 90.0476 123.43 90.6C124.261 90.8762 125.093 91.2904 125.925 91.2904C127.45 91.2904 128.698 90.1857 129.391 88.8049C130.085 87.424 130.223 85.9051 130.362 84.3862C130.362 84.2481 130.362 84.11 130.362 83.9719C130.639 83.1434 130.778 82.3149 130.778 81.3483C130.917 79.2771 131.055 77.2058 130.917 74.9964C130.917 73.8918 130.778 72.649 130.223 71.6824C129.53 70.4397 128.975 69.7492 128.282 69.4731C128.005 69.1969 127.589 68.9207 127.312 68.7826C126.896 68.5065 126.341 68.3684 125.787 68.3684C125.648 67.8161 125.648 67.2637 125.509 66.5733C124.955 63.2593 124.955 59.8072 126.341 56.6312C127.866 52.903 131.333 50.1413 135.076 48.6223C138.82 47.1034 142.979 46.6892 147 46.5511C149.773 46.5511 152.546 46.6892 155.041 47.7939C159.894 50.0032 162.39 55.3885 164.469 60.2214C165.024 61.7404 165.717 63.1212 166.272 64.6401C165.856 64.7782 165.44 64.7782 165.024 65.0544C164.608 65.1925 164.331 65.4687 164.054 65.7448C163.36 66.021 162.667 66.7114 162.113 67.9541C161.558 68.9207 161.558 70.1635 161.419 71.2682C161.419 73.3395 161.419 75.4107 161.558 77.62C161.697 78.5866 161.835 79.4152 161.974 80.2437C161.974 80.3818 161.974 80.5198 161.974 80.6579C162.112 82.1768 162.251 83.6958 162.944 85.0766C163.638 86.4575 164.885 87.5621 166.411 87.5621C167.242 87.5621 168.074 87.2859 168.906 86.8717C170.293 86.3194 171.818 85.629 172.511 84.3862C172.788 83.8339 172.927 83.1434 173.066 82.5911C174.452 81.0721 175.284 79.0009 175.284 76.5154C175.423 75.1345 175.007 73.8918 174.729 72.649Z" fill="#F2D292"/>
<path d="M165.717 95.2945C168.49 94.466 170.986 94.7421 172.927 97.6419C174.314 99.7132 174.591 102.199 174.868 104.684C175.7 115.179 174.73 125.949 176.116 136.444C176.671 140.31 177.503 144.176 178.057 148.043C179.166 155.223 179.582 162.542 179.998 169.86C180.276 175.246 180.553 180.631 180.969 185.878C181.107 189.468 182.633 192.506 178.612 192.92C174.036 193.335 169.045 192.644 164.47 192.644C155.042 192.644 145.475 192.092 136.047 192.92C129.808 193.473 127.035 194.163 123.291 188.778C119.409 183.254 117.329 176.626 115.943 169.998C113.031 156.19 113.863 141.829 115.388 127.882C116.359 118.769 117.607 109.517 121.905 101.508C128.005 90.1854 142.702 107.998 152.269 103.718C155.457 102.337 160.865 96.9515 165.717 95.2945Z" fill="#3C444C"/>
<path d="M161.974 134.096C162.39 133.82 162.528 133.406 162.528 132.992C164.469 122.912 165.717 114.212 166.826 103.856C166.826 103.58 167.104 101.647 166.826 101.37C166.688 101.094 166.272 101.094 165.994 101.094C161.835 100.818 157.26 100.266 152.823 99.8515C150.605 99.7134 148.525 101.232 148.109 103.304C146.306 112.693 145.752 122.635 145.197 132.163C150.327 132.854 155.457 133.406 160.726 134.096C161.28 134.235 161.696 134.373 161.974 134.096Z" fill="#03A678"/>
<path d="M153.239 121.67C153.932 124.431 152.13 127.055 150.466 129.264C145.891 134.926 141.038 140.311 135.631 145.282C133.69 147.077 131.61 148.872 129.114 149.839C126.619 150.805 123.707 150.943 121.489 149.425C119.27 147.906 118.3 144.73 119.686 142.52C125.371 136.307 131.055 130.093 136.74 123.879C139.097 121.393 141.593 118.77 144.782 117.803C148.109 116.975 152.407 118.356 153.239 121.67Z" fill="#F2E7D6"/>
<path d="M173.898 148.044C171.541 146.525 170.847 143.349 170.57 140.588C169.738 133.407 169.6 126.089 169.877 118.77C170.016 116.147 170.154 113.385 171.263 111.038C172.373 108.552 174.452 106.481 176.948 105.928C179.444 105.376 182.632 107.033 183.048 109.657C183.326 118.08 183.603 126.503 183.88 134.788C184.019 138.24 184.019 141.83 182.355 144.73C180.83 147.906 176.809 149.839 173.898 148.044Z" fill="#F2E7D6"/>
<path d="M22.1319 239.905C19.1216 239.675 15.9955 239.79 12.9851 240.251C10.6694 241.981 8.12221 243.365 5.4592 244.518C4.64872 244.864 3.83821 245.094 3.25929 245.786C2.68038 246.363 2.4488 247.401 3.02771 248.093C3.49084 248.669 4.30131 248.669 5.11179 248.669C10.7852 248.784 16.3428 248.208 21.9004 247.285C22.2477 247.17 22.5951 247.17 22.8267 246.939C23.0582 246.709 23.0582 246.478 23.174 246.248C23.6371 244.057 23.2898 241.75 22.1319 239.905Z" fill="#333333"/>
<path d="M48.0672 238.061C45.2884 238.406 42.6254 238.983 40.0781 240.021C38.3414 241.981 36.3731 243.595 34.1732 245.095C33.5943 245.556 32.8996 245.902 32.4364 246.594C32.0891 247.285 31.9733 248.208 32.5522 248.669C33.0153 249.13 33.8259 249.015 34.4048 248.9C39.3835 247.977 44.2464 246.594 48.9935 244.749C49.2251 244.633 49.5724 244.518 49.6882 244.287C49.8039 244.057 49.804 243.826 49.9197 243.595C50.1513 241.405 49.4566 239.444 48.0672 238.061Z" fill="#333333"/>
<path d="M45.9833 185.478C45.9833 182.479 45.9833 179.366 45.9833 176.368C45.9833 166.682 45.9833 156.88 46.7938 147.194C47.4885 139.468 48.6463 131.511 46.2148 124.131C45.5201 122.171 44.5939 120.441 43.4361 118.827C42.1625 117.213 41.6993 116.521 39.4994 117.443C29.5421 121.479 17.848 120.557 8.81695 114.791C7.08021 117.559 6.50134 120.787 6.0382 124.016C5.34351 129.205 4.53303 134.394 4.30146 139.583C4.30146 140.736 4.18568 141.774 4.30146 142.927C4.41724 149.385 5.69085 155.842 6.61712 162.3C7.31182 166.451 7.77492 170.718 7.8907 174.984C7.8907 178.444 7.42756 181.672 8.23804 185.016C10.2063 193.434 10.2064 202.544 11.0169 211.077C11.9431 220.187 12.7536 229.412 13.4483 238.521C13.4483 238.867 13.4483 239.213 13.5641 239.559C14.0272 239.675 21.09 241.289 21.09 239.444C21.6689 221.686 22.2478 203.812 22.8267 186.054C23.0583 178.559 23.2898 170.948 25.2582 163.799C26.0686 163.914 26.9949 165.644 27.8054 165.759C32.0894 189.283 36.2575 211.192 40.5415 234.716C40.8889 236.792 41.352 238.983 42.7414 240.366C43.7834 241.404 45.636 241.52 46.5622 240.251C47.7201 238.867 47.3727 235.639 47.4885 233.909C48.0674 221.801 47.2569 209.924 46.5622 197.931C46.2149 194.011 46.0991 189.744 45.9833 185.478Z" fill="#3C444C"/>
<path d="M37.8781 17.8144C37.8781 16.546 37.878 15.2775 37.4149 14.1244C36.2571 11.5875 33.1309 11.011 30.4679 10.7803C24.9103 10.2038 18.3107 10.0885 14.7214 14.701C14.3741 15.1622 13.9109 15.6235 13.4478 15.2775C13.5635 19.0829 13.6793 22.7729 13.7951 26.5782C13.9109 30.8448 14.1425 35.342 16.4582 38.8014C17.8476 40.877 19.9316 42.2608 21.8999 43.7598C23.5209 44.913 25.1418 45.9508 27.1102 45.9508C29.889 45.8355 32.0889 43.2986 33.7098 40.9923C34.6361 39.8392 35.4466 38.5708 36.1413 37.3023C37.5307 34.3042 37.6465 30.9601 37.6465 27.7313C37.6465 24.272 37.7623 21.0432 37.8781 17.8144Z" fill="#EDD5BE"/>
<path d="M40.8882 14.701C40.8882 12.7406 40.6566 10.8957 39.7304 9.05065C39.2672 8.01283 38.9199 6.97501 38.2252 6.05251C33.5939 -1.32751 22.826 -0.520323 16.458 3.63094C14.2581 5.13 12.0582 6.74438 11.1319 9.16595C10.3214 11.011 10.3214 13.0866 10.3214 15.0469C10.3214 17.9297 9.97407 26.0016 14.0265 26.1169C13.9107 24.9638 12.9844 20.9279 13.6791 20.0054C14.4896 18.6216 19.2367 18.1604 20.7419 17.9297C24.9101 17.2378 30.0046 17.0072 34.1728 18.2757C37.6463 19.4288 35.9095 24.8485 37.8778 26.6935C39.2672 25.8863 39.6146 24.2719 39.7304 22.7729C40.1935 20.1207 40.8882 17.3532 40.8882 14.701Z" fill="#333333"/>
<path d="M21.784 45.951C20.3946 45.0285 19.3526 43.2988 17.7316 43.0682C15.5318 42.8376 14.2581 45.6051 13.6792 47.796C8.00585 71.8963 4.30077 96.4579 2.44824 121.135C16.9211 126.209 32.8992 122.864 48.0668 124.709C51.4245 112.14 53.6244 99.1101 53.0455 86.1951C52.5824 73.1648 49.2246 60.1344 42.1619 49.1798C40.5409 46.6429 38.3411 43.9907 35.3307 43.6448C30.6994 43.0682 25.8365 48.4879 21.784 45.951Z" fill="#ABBCC4"/>
<path d="M55.9395 21.5041C56.171 19.8897 56.2868 18.1601 56.75 16.5457C56.9815 15.8538 58.1394 16.0844 57.9078 16.7763C57.5604 18.3907 56.9815 20.005 56.75 21.6194C56.75 22.196 55.9395 21.9653 55.9395 21.5041Z" fill="#666666"/>
<path d="M58.3709 22.6576C59.5288 21.8504 60.8024 21.2739 62.076 21.0432C62.8865 20.9279 63.2338 22.0811 62.4233 22.1964C61.1497 22.5423 59.8762 22.8883 58.7183 23.4649C58.371 23.6955 58.0236 22.8883 58.3709 22.6576Z" fill="#666666"/>
<path d="M58.8344 25.4249C60.5712 25.1942 62.5395 25.4248 64.392 25.5402C65.2025 25.6555 65.2025 26.8086 64.392 26.8086C62.5395 26.8086 60.5712 26.8086 58.7187 26.3474C58.2555 26.232 58.3713 25.5402 58.8344 25.4249Z" fill="#666666"/>
<path d="M35.6777 27.3853C34.5199 27.8466 34.1725 29.3456 34.0567 30.4987C33.362 35.4571 32.4358 40.4156 31.1622 45.2587C30.5832 47.7955 26.7624 55.2908 30.5832 56.098C35.5619 57.1358 40.7722 57.597 45.8666 57.597C46.6771 57.3664 47.0245 56.3286 47.1403 55.5214C48.877 47.4496 50.6137 39.2624 53.161 31.3059C53.3925 30.4987 53.5084 29.5762 52.9294 28.9997C52.5821 28.6537 52.0031 28.5384 51.4242 28.4231C46.7929 27.8465 42.2774 27.27 37.6461 26.5781C37.0671 27.0394 36.4882 27.0394 35.6777 27.3853Z" fill="#03A678"/>
<path d="M46.2139 53.7913C46.4454 57.4813 46.677 61.1713 46.9086 64.9767C47.256 71.4342 47.3717 78.1223 44.593 83.8879C44.3614 84.2339 44.2456 84.5798 43.8982 84.9257C43.3193 85.5023 42.393 85.6176 41.5825 85.5023C39.9616 85.1564 38.5722 83.7726 37.9933 82.1582C37.4144 80.5439 37.2986 78.8142 37.1828 77.1998C36.7197 68.436 36.2565 59.6723 38.1091 51.1391C38.4564 49.6401 38.9196 48.0257 39.9616 46.7573C41.0037 45.4888 42.7404 44.7969 44.2456 45.3735C45.635 47.9104 45.9823 50.9085 46.2139 53.7913Z" fill="#EDD5BE"/>
<path d="M19.9318 55.6369C18.5424 59.0963 17.0371 62.5557 15.5319 65.8998C12.9847 71.7807 10.0901 77.8923 5.11145 81.9282C4.7641 82.1588 4.4168 82.3895 4.06945 82.5048C3.25896 82.7354 2.44848 82.5048 1.75378 81.9282C0.364384 80.8904 -0.0987483 79.0454 0.0170349 77.3157C0.132818 75.586 0.827503 73.9717 1.5222 72.4726C4.9957 64.516 8.46918 56.3288 14.0268 49.5254C15.0688 48.2569 16.1109 47.1038 17.6161 46.4119C19.1213 45.7201 20.9738 45.8354 22.0158 47.1038C22.1316 50.1019 21.0896 52.9848 19.9318 55.6369Z" fill="#EDD5BE"/>
</svg>
