<svg width="323" height="302" viewBox="0 0 323 302" fill="none" xmlns="http://www.w3.org/2000/svg">
<path d="M166.244 117.337C166.464 111.828 166.905 106.099 168.668 100.811C170.431 95.5225 173.736 90.4546 178.584 87.8104C181.889 86.0476 185.635 85.3865 189.381 84.7255C215.602 80.7592 242.264 80.7592 268.486 84.5052C276.418 85.6069 284.571 87.3697 290.961 91.997C297.131 96.6243 301.097 104.116 302.86 111.828C304.623 119.541 304.403 127.473 303.742 135.185C302.64 149.508 299.775 163.831 300.877 178.153C301.318 185.425 302.42 193.798 297.131 199.086C293.606 202.612 288.317 203.273 283.47 203.714C274.656 204.375 265.621 203.934 256.807 202.832C249.316 201.951 242.044 200.409 234.773 199.527C216.043 197.324 196.873 199.527 178.143 196.883C166.685 195.34 166.244 193.357 166.024 182.12C165.803 172.204 165.583 162.068 165.583 152.152C165.363 140.474 165.583 128.795 166.244 117.337Z" fill="#909EA3"/>
<path opacity="0.16" d="M264.961 161.407C262.537 163.831 259.012 164.713 255.486 165.594C248.215 167.357 240.943 169.12 233.451 168.679C224.417 168.018 216.264 164.052 208.332 159.865C203.925 157.662 199.517 155.238 195.992 151.712C190.483 146.203 187.839 138.491 188.28 130.779C188.72 123.067 192.246 115.795 197.755 110.287C199.738 108.304 202.162 106.32 203.264 103.456C203.704 102.134 203.704 100.812 204.586 99.4896C205.247 98.6082 206.348 97.9471 207.23 97.5064C219.569 91.3366 234.112 93.0995 247.994 91.9977C256.588 91.3367 265.842 89.5739 273.334 93.9809C278.623 97.2861 281.928 103.236 282.809 109.405C283.25 112.49 283.03 115.575 281.267 117.999C279.063 120.863 275.097 121.965 272.233 124.389C267.385 128.796 267.826 136.508 268.487 142.898C269.368 149.288 269.809 156.78 264.961 161.407Z" fill="#272525"/>
<path d="M32.9324 187.628C34.0342 184.102 23.8982 183 23.2372 186.526C21.4744 196.662 22.3558 207.018 21.4744 217.154C20.593 227.291 20.3726 237.647 19.9319 248.003C19.7116 250.647 24.3389 251.308 24.9999 248.664C27.8645 238.969 28.0848 229.053 28.7459 219.138C28.9662 217.595 28.9662 216.053 29.1866 214.51C30.068 208.12 30.9494 201.73 32.0511 195.12C32.2715 194.238 32.4918 193.136 32.4918 192.255C33.1529 190.713 32.4917 189.17 32.9324 187.628Z" fill="#6E5E53"/>
<path d="M100.36 187.628C99.2578 184.102 109.394 183 110.055 186.526C111.818 196.662 110.936 207.018 111.818 217.154C112.699 227.291 112.919 237.647 113.36 248.003C113.58 250.647 108.953 251.308 108.292 248.664C105.427 238.969 105.207 229.053 104.546 219.138C104.326 217.595 104.326 216.053 104.105 214.51C103.224 208.12 102.343 201.73 101.241 195.12C101.02 194.238 100.8 193.136 100.8 192.255C100.139 190.713 100.8 189.17 100.36 187.628Z" fill="#6E5E53"/>
<path d="M0.762334 171.1C1.20303 169.558 2.74542 168.456 4.28786 168.897C8.03378 170.439 11.5594 172.422 15.085 174.185C18.6106 176.168 22.3564 177.711 26.3227 178.812C34.2552 181.236 42.4081 182.118 50.561 182.779C67.9686 183.88 85.1557 182.558 102.343 180.575C107.191 180.134 111.818 179.473 116.666 178.812C117.767 178.592 126.581 178.151 125.039 175.727C123.056 172.422 127.683 169.778 129.666 172.643C131.87 175.948 130.107 180.575 127.242 182.779C124.378 184.762 121.293 186.965 117.767 187.186C116.005 187.626 114.242 187.847 112.699 188.067C103.004 189.83 92.4273 189.169 82.732 189.61C63.3413 190.711 41.9674 190.711 23.0175 186.745C17.5088 185.643 13.5425 184.321 8.03381 182.558C5.83032 181.897 3.40652 181.016 1.86408 179.253C-0.11906 177.711 -0.11906 173.744 0.762334 171.1Z" fill="#6E5E53"/>
<path d="M0.982668 169.779C1.20302 167.796 3.4065 164.931 6.49138 163.609C9.57626 162.287 13.3223 161.406 17.0682 160.745C38.0013 156.778 61.3582 156.999 84.0541 157.88C93.5291 158.321 103.004 158.982 111.377 160.745C121.734 162.948 135.395 169.559 128.124 175.288C125.92 177.05 122.835 178.372 119.31 179.474C111.598 181.898 104.326 183 95.0715 183.44C85.8169 183.881 76.5623 184.542 67.3076 184.102C50.3408 183.441 33.374 182.78 17.7292 179.695C13.5426 178.813 9.57631 177.932 6.27109 176.61C3.18621 175.508 0.76232 171.762 0.982668 169.779Z" fill="#998675"/>
<path d="M23.8989 162.067C23.8989 161.847 23.8989 161.626 24.1192 161.406C24.3396 161.186 24.7803 160.966 25.0007 160.966C25.6617 160.745 26.3227 160.745 26.7634 160.745C31.3908 160.745 36.2385 160.745 40.8658 160.966C45.4931 160.966 50.1204 160.965 54.7477 161.406C55.8495 161.406 56.9512 161.627 58.053 161.847C58.2733 161.847 58.4936 161.847 58.714 162.067C58.9343 162.288 58.9344 162.728 58.9344 163.169C58.7141 166.474 58.2733 169.559 58.053 172.864C58.053 173.085 58.0529 173.525 57.6122 173.746C57.3919 173.746 57.1715 173.746 57.1715 173.746C46.1541 173.966 34.9164 173.966 23.8989 171.763C23.6786 171.763 23.2378 171.542 23.0175 171.542C21.9157 170.661 22.7972 168.457 22.7972 167.356C23.4582 165.372 23.6786 163.61 23.8989 162.067Z" fill="#EFEFEF"/>
<path d="M55.8495 162.507C55.6291 165.372 55.4088 168.456 55.1885 171.321C55.1885 171.541 55.4088 171.541 55.4088 171.321C55.6291 168.236 55.8495 165.372 55.8495 162.507C56.0698 162.287 55.8495 162.287 55.8495 162.507Z" fill="#CCCCCC"/>
<path d="M54.086 162.066C53.8657 164.711 53.6453 167.355 53.2046 169.999C53.2046 170.219 53.425 170.219 53.425 169.999C54.0861 167.575 54.3064 164.711 54.086 162.066C54.3064 162.066 54.086 162.066 54.086 162.066Z" fill="#CCCCCC"/>
<path d="M51.2207 163.168C51.2207 165.592 50.7799 168.016 50.5596 170.439C50.5596 170.66 50.78 170.66 50.78 170.439C51.2207 168.236 51.4411 165.812 51.2207 163.168C51.4411 163.168 51.2207 163.168 51.2207 163.168Z" fill="#CCCCCC"/>
<path d="M49.8987 162.948C49.6784 165.592 49.458 168.457 49.458 171.101C49.458 171.322 49.8987 171.322 49.8987 171.101C49.8987 168.457 50.1191 165.592 50.3395 162.948C50.1191 162.948 49.8987 162.948 49.8987 162.948Z" fill="#CCCCCC"/>
<path d="M32.0514 168.017C32.0514 167.576 32.0514 166.915 31.6107 166.695C30.9497 166.474 30.0683 166.695 29.4072 166.695C28.5258 166.695 27.4241 166.695 26.5427 166.695C26.5427 166.474 26.102 166.474 26.102 166.695C25.6613 167.576 25.2206 169.559 26.3223 170.22C26.9834 170.44 27.8647 170.441 28.5258 170.441C29.6275 170.661 30.7294 170.881 32.0514 171.102C32.2718 171.102 32.2717 171.102 32.2717 170.881C32.0514 170 32.0514 169.118 32.0514 168.017ZM28.3055 170.22C27.4241 170.22 26.3224 170.22 26.102 169.339C25.8817 168.678 26.3224 167.796 26.5427 167.356C27.8648 167.576 29.4072 167.356 30.7293 167.356C31.3903 167.356 31.6107 167.135 31.831 168.017C31.831 168.237 31.831 168.678 31.831 169.118C31.831 169.779 31.831 170.44 31.831 171.102C30.5089 170.44 29.4072 170.22 28.3055 170.22Z" fill="#CCCCCC"/>
<path d="M31.8321 163.829C31.8321 163.388 32.0525 162.287 31.6118 161.846C31.3915 161.405 30.5101 161.405 30.0694 161.405C29.188 161.405 28.3066 161.405 27.4252 161.626C27.2048 161.626 27.2049 162.066 27.6456 162.066C28.527 161.846 30.5101 161.405 31.1711 162.066C31.6118 162.507 31.8322 165.372 30.9508 165.592C30.5101 165.592 30.0694 165.592 29.8491 165.592C29.4084 165.592 28.7473 165.592 28.3066 165.592C27.8659 165.592 27.4252 165.372 27.4252 164.931C27.4252 164.711 27.4252 164.27 27.4252 164.049C27.4252 163.388 27.4252 162.948 27.4252 162.287C27.4252 162.066 27.2049 162.066 27.2049 162.287C27.2049 163.168 26.9845 164.27 27.2049 165.151C27.2049 165.592 27.4252 165.812 27.8659 165.812C28.7473 166.033 29.6288 165.812 30.2898 165.812C30.7305 165.812 31.6118 166.253 31.8321 165.812C31.8321 165.372 31.8321 164.27 31.8321 163.829Z" fill="#CCCCCC"/>
<path d="M34.4756 162.288C34.4756 162.288 34.2552 162.288 34.4756 162.288C34.4756 163.61 34.4756 164.712 34.2553 166.034C34.2553 167.356 33.8145 168.458 34.0348 169.78C34.0348 170 34.2553 170 34.2553 169.78C34.0349 168.458 34.4756 167.356 34.4756 166.034C34.4756 164.712 34.4756 163.61 34.4756 162.288Z" fill="#CCCCCC"/>
<path d="M37.1189 162.507C37.1189 162.287 36.8987 162.287 36.8987 162.507C37.119 164.931 37.1189 167.355 36.6782 169.779C36.6782 169.999 36.8987 169.999 36.8987 169.779C37.3393 167.575 37.3393 164.931 37.1189 162.507Z" fill="#CCCCCC"/>
<path d="M39.3238 163.169C39.3238 165.373 39.1035 167.796 39.1035 170C39.1035 170.22 39.5441 170.22 39.5441 170C39.7645 167.796 39.7645 165.373 39.7645 163.169C39.5442 162.949 39.3238 162.949 39.3238 163.169Z" fill="#CCCCCC"/>
<path d="M42.4074 162.947C42.4074 165.151 42.187 167.134 42.187 169.338C42.187 169.558 42.6277 169.558 42.6277 169.338C42.8481 167.134 42.848 165.151 42.848 162.947C42.6277 162.727 42.4074 162.727 42.4074 162.947Z" fill="#CCCCCC"/>
<path d="M45.0524 162.729C45.0524 162.508 44.8321 162.508 44.8321 162.729C45.0525 165.373 44.8322 167.797 44.6118 170.441C44.6118 170.661 45.0524 170.661 45.0524 170.441C45.2728 167.797 45.2728 165.153 45.0524 162.729Z" fill="#CCCCCC"/>
<path d="M47.0345 163.169C47.0345 162.949 46.8142 162.949 46.8142 163.169C47.0345 165.593 46.8141 167.796 46.5938 170C46.5938 170.22 47.0345 170.22 47.0345 170C47.0345 167.796 47.0345 165.593 47.0345 163.169Z" fill="#CCCCCC"/>
<path d="M18.8317 178.594C19.052 179.035 19.2723 179.255 19.4927 179.475C19.713 179.696 20.1537 179.696 20.5944 179.696C30.7305 179.255 40.6462 178.814 50.7822 178.374C51.6636 178.374 52.7653 178.153 53.206 177.492C53.4263 177.052 53.4264 176.611 53.4264 176.17C53.6468 171.984 52.5449 168.017 51.6635 164.051C51.6635 163.831 51.4433 163.39 51.2229 163.17C51.0026 162.729 50.3414 162.729 49.9007 162.729C43.2903 162.509 36.4595 162.949 29.8491 163.831C26.5439 164.271 23.2386 164.712 19.9334 165.373C17.2892 165.814 14.2043 165.373 15.0857 168.678C15.9671 171.984 17.2892 175.289 18.8317 178.594Z" fill="#EFEFEF"/>
<path d="M22.5774 177.053C21.2553 173.968 20.1535 170.663 19.4925 167.357C19.4925 167.357 19.2721 167.357 19.4925 167.357C20.1535 170.663 21.0349 173.968 22.357 177.053C22.357 177.273 22.7977 177.273 22.5774 177.053Z" fill="#CCCCCC"/>
<path d="M32.0526 175.067C32.0526 174.406 32.0525 173.966 31.8322 173.305C31.8322 172.864 31.6119 172.423 31.1712 172.423C30.2898 172.203 28.9677 172.423 27.8659 172.644C26.7642 172.864 25.8829 173.084 24.7811 173.305V173.084C24.7811 172.864 24.3404 172.864 24.3404 173.305V173.525C24.1201 173.525 23.8997 173.525 23.8997 173.745C23.6793 173.745 23.8997 173.966 23.8997 173.966C24.12 173.966 24.1201 173.966 24.3404 173.745C24.5608 174.847 24.781 175.729 25.2217 176.61C25.6624 177.271 25.8828 177.491 26.7642 177.271C28.0863 177.271 29.1881 177.051 30.5101 177.051C30.9508 177.051 31.8323 177.051 32.0526 176.61C32.273 176.169 32.0526 175.508 32.0526 175.067ZM31.3916 176.39C31.1712 176.61 30.9508 176.61 30.7304 176.61C30.2897 176.61 30.0694 176.61 29.6287 176.61C28.7473 176.61 27.866 176.61 27.2049 176.83C26.7642 176.83 26.1032 177.051 25.8829 176.61C25.6625 176.39 25.6625 175.729 25.4422 175.508C25.2218 174.847 25.0014 174.186 25.0014 173.525C26.3235 173.305 27.6457 173.084 29.1881 172.864C30.0695 172.864 31.1712 172.423 31.6119 173.525C31.6119 173.966 31.6118 174.407 31.8322 174.847C31.8322 175.288 32.0525 175.508 31.8322 175.949C31.8322 176.169 31.6119 176.39 31.3916 176.39Z" fill="#CCCCCC"/>
<path d="M25.4415 171.324C24.7804 169.561 24.3397 168.019 23.899 166.256H23.6787C23.8991 168.019 24.56 169.781 25.221 171.324C25.0007 171.765 25.4415 171.544 25.4415 171.324Z" fill="#CCCCCC"/>
<path d="M27.8654 171.763C27.2043 170 26.5433 168.017 26.1026 166.254C26.1026 166.034 25.8823 166.254 25.8823 166.254C26.323 168.237 26.7637 170.221 27.6451 171.983C27.6451 171.983 27.8654 171.983 27.8654 171.763Z" fill="#CCCCCC"/>
<path d="M29.4069 169.779C28.9662 168.457 28.7458 167.356 28.5255 166.033C28.5255 165.813 28.3052 165.813 28.3052 166.033C28.5255 167.356 28.7458 168.678 28.9662 170C29.1865 170.22 29.4069 170 29.4069 169.779Z" fill="#CCCCCC"/>
<path d="M35.1381 174.407C35.1381 174.407 34.9178 174.407 35.1381 174.407C34.9178 174.186 34.9179 174.186 34.6975 174.407C34.6975 174.186 34.6975 173.966 34.4771 173.966C34.4771 173.746 34.2568 173.525 34.2568 173.525C34.0365 173.085 33.8161 172.644 33.8161 172.203C33.5957 171.322 33.3754 170.661 33.1551 169.779C32.7144 168.237 32.2737 166.915 31.3923 165.593H31.1719C32.2736 167.356 32.7144 169.118 33.1551 171.101C33.3754 171.983 33.5957 172.644 34.0364 173.525C34.2567 173.966 34.4771 174.847 34.9178 175.068H35.1381C35.1381 174.627 35.1381 174.627 35.1381 174.407Z" fill="#CCCCCC"/>
<path d="M39.323 175.51C37.7805 171.764 36.4584 167.798 35.1363 163.831C35.1363 163.611 34.916 163.831 34.916 163.831C36.2381 167.798 37.5602 171.544 38.8823 175.51C38.8823 175.95 39.323 175.73 39.323 175.51Z" fill="#CCCCCC"/>
<path d="M42.85 175.289C41.5279 171.543 40.206 167.797 39.1042 164.051C39.1042 163.831 38.8838 164.051 38.8838 164.051C40.2059 167.797 41.3076 171.543 42.6297 175.509C42.6297 175.509 43.0704 175.509 42.85 175.289Z" fill="#CCCCCC"/>
<path d="M47.036 174.187C46.8156 174.408 45.0528 169.119 44.8325 168.679C44.3918 167.136 43.7307 165.594 42.629 164.051C42.629 163.831 42.4087 164.051 42.4087 164.272C43.7308 166.034 44.3917 168.017 45.0528 170.221C45.2731 171.102 45.7139 172.204 45.9342 173.086C46.1546 173.526 46.3749 174.408 47.036 174.628H47.2563C47.4766 174.408 47.2563 173.967 47.036 174.187Z" fill="#CCCCCC"/>
<path d="M51.6622 175.951C50.5604 173.968 49.6792 171.985 49.0181 169.782C48.3571 168.019 48.1367 166.036 47.0349 164.273C47.0349 164.053 46.5943 164.273 46.8146 164.493C47.9164 166.256 48.1366 168.459 48.7977 170.663C49.4587 172.646 50.1199 174.629 51.2216 176.392C51.442 176.612 51.8825 176.392 51.6622 175.951Z" fill="#CCCCCC"/>
<path d="M24.7802 175.729C28.0855 177.492 31.611 179.035 34.9162 180.798C35.7976 181.238 36.4587 181.679 37.5604 181.899C38.8825 182.12 39.9843 181.899 41.3064 181.679C51.8831 179.475 62.2395 176.391 72.1552 172.424C72.3755 171.763 71.4941 171.102 71.0534 170.882C67.5279 168.899 64.2226 166.916 60.697 164.933C60.2563 164.712 59.5953 164.271 58.9343 164.271C58.4936 164.271 58.0528 164.271 57.6121 164.492C51.4423 165.814 45.4929 167.136 39.5435 168.678C36.4586 169.339 33.5941 170.221 30.5093 171.102C27.6447 171.984 24.3395 172.424 21.6953 173.526C21.6953 174.407 23.8989 175.289 24.7802 175.729Z" fill="#EFEFEF"/>
<path d="M36.8983 179.696C34.2541 177.052 29.8471 176.832 27.2029 174.188C27.2029 174.188 26.9826 174.188 27.2029 174.188C29.6267 177.272 33.8134 177.493 36.8983 179.696C36.8983 180.137 37.1186 179.917 36.8983 179.696Z" fill="#CCCCCC"/>
<path d="M39.1024 179.036C37.5599 177.934 36.2378 177.053 34.6954 175.951C34.0343 175.51 33.3732 174.849 32.7122 174.409C32.4918 174.188 32.2715 173.968 32.0512 173.748C31.8308 173.527 31.3902 173.087 31.3902 173.087C31.1698 173.087 31.1698 173.087 30.9494 172.866C30.9494 172.866 30.729 172.866 30.729 173.087C32.9325 175.731 36.0174 177.494 38.8819 179.477C39.1023 179.477 39.3227 179.256 39.1024 179.036Z" fill="#CCCCCC"/>
<path d="M43.7298 177.933C40.6449 175.95 37.5601 173.967 34.6956 171.983C34.6956 171.983 34.4752 171.983 34.6956 172.204C37.7805 174.187 40.6449 176.39 43.7298 178.373C43.7298 178.373 43.9502 177.933 43.7298 177.933Z" fill="#CCCCCC"/>
<path d="M48.3585 176.171C45.494 174.188 42.4092 172.425 39.3243 170.662C39.104 170.662 39.104 170.883 39.104 170.883C41.9685 172.866 45.0534 174.849 48.1382 176.391C48.3586 176.612 48.5789 176.391 48.3585 176.171Z" fill="#CCCCCC"/>
<path d="M56.5103 175.509C56.0696 174.848 55.4087 174.627 54.5273 174.407C53.4255 173.966 52.3238 173.526 51.2221 173.085C49.0186 171.763 46.8151 170.221 44.6116 168.898C44.6116 168.898 44.3913 168.898 44.6116 169.119C46.5947 170.441 48.7982 171.983 50.7813 173.305C51.6627 173.746 52.5442 174.407 53.4255 174.627C54.5273 175.068 55.4087 175.289 56.29 175.95C56.29 175.95 56.7307 175.729 56.5103 175.509Z" fill="#CCCCCC"/>
<path d="M58.0534 173.527C56.2906 173.086 54.9686 171.764 53.6465 170.662C52.9854 170.222 52.5448 169.781 51.8837 169.34C51.0023 168.9 49.9006 168.679 49.0192 168.018C48.7989 167.798 48.5784 168.238 48.7988 168.459C49.6802 168.899 50.7819 169.12 51.6633 169.781C52.5447 170.222 53.2057 170.883 53.8668 171.544C54.9685 172.645 56.2907 173.527 57.8331 173.967C58.0535 173.747 58.0534 173.527 58.0534 173.527Z" fill="#CCCCCC"/>
<path d="M62.2386 172.423C59.3741 170.661 56.7298 168.898 54.0857 166.694C54.0857 166.694 53.8652 166.694 53.8652 166.915C56.2891 169.118 58.9333 171.322 62.0182 172.864C62.2385 172.864 62.4589 172.644 62.2386 172.423Z" fill="#CCCCCC"/>
<path d="M66.2066 171.984C64.6641 170.882 63.1217 169.781 61.3589 168.899C59.8164 168.018 58.0537 167.357 56.7316 166.035C56.5113 165.814 56.2908 166.035 56.5112 166.255C57.6129 167.577 59.3757 168.238 60.9181 168.899C62.6809 169.781 64.4438 170.882 66.2066 172.204C66.2066 172.204 66.4269 171.984 66.2066 171.984Z" fill="#CCCCCC"/>
<path d="M42.8481 170.443C44.8312 172.867 47.4755 174.629 49.018 177.053C49.4587 177.935 49.8993 178.816 50.7807 179.257C51.8825 180.138 53.4249 179.918 54.747 179.697C62.4592 178.816 70.3917 177.274 77.8836 175.29C78.9853 175.07 80.087 174.409 80.087 173.307C80.087 172.866 79.8667 172.646 79.426 172.205C78.1039 170.663 76.5615 169.121 75.0191 167.578C72.8156 165.595 70.3917 163.832 68.6289 161.408C67.7475 160.086 66.8661 158.544 65.3237 158.324C64.6626 158.103 64.0016 158.324 63.1202 158.324C55.408 159.646 47.4755 161.188 39.7633 162.51C37.1191 162.951 39.1022 164.493 39.9836 165.815C40.865 167.578 41.7464 169.121 42.8481 170.443Z" fill="#5E625E"/>
<path d="M78.9846 173.306C78.7642 172.865 78.3235 172.645 78.1031 172.204C77.6624 171.763 77.2218 171.102 76.7811 170.661C75.459 169.119 73.9166 167.136 71.7131 166.916C69.5096 166.695 67.0857 167.797 64.8822 168.238C58.9328 169.78 52.5427 170.882 46.5933 171.984C46.373 171.984 46.1527 172.204 46.373 172.424C48.3562 173.746 49.8986 175.509 50.78 177.713C51.0003 178.374 51.2207 179.035 51.8817 179.255C52.7631 179.696 54.3056 179.255 55.187 179.255C60.6957 178.594 65.984 177.492 71.2724 176.391C72.5945 176.17 73.9165 175.95 75.2386 175.509C76.12 175.289 77.4421 175.068 78.1031 174.628C78.9845 174.407 79.2049 173.967 78.9846 173.306Z" fill="#EFEFEF"/>
<path d="M71.7144 166.916C70.3923 164.271 68.1888 162.068 66.2057 160.085C65.3243 159.424 64.6632 158.542 63.5615 158.102C62.2394 157.661 60.6969 158.102 59.3748 158.322C52.544 159.424 45.7132 160.746 38.8824 161.848L38.6621 162.068C38.8825 162.949 39.3231 163.39 39.9841 163.831C40.8655 164.492 41.5266 165.153 42.1876 166.034C43.7301 167.797 44.8319 170.001 45.7133 171.984H45.9336L46.1539 172.204C50.3405 171.543 54.5271 170.882 58.7138 169.78C62.9004 168.899 67.087 167.577 71.2737 167.136C71.7144 167.356 71.7144 167.136 71.7144 166.916Z" fill="#EFEFEF"/>
<path d="M58.4926 174.188C56.2891 174.628 54.0856 175.069 51.8821 175.95C51.6618 175.95 51.8821 176.171 51.8821 176.171C54.0856 175.51 56.2891 175.069 58.4926 174.628C58.9333 174.628 58.7129 174.188 58.4926 174.188Z" fill="#CCCCCC"/>
<path d="M60.035 177.272C59.3739 176.39 58.9331 175.289 58.7128 174.407H58.4925C58.7129 175.509 59.1536 176.39 59.5942 177.272C58.2722 177.492 56.9501 177.933 55.628 178.153C54.967 178.374 53.8651 178.814 53.2041 178.153C52.7634 177.712 52.3227 176.611 52.1023 175.95C52.1023 175.729 51.6616 175.729 51.6616 176.17C52.1023 177.051 52.543 179.035 53.8651 178.814C54.7465 178.814 55.8483 178.374 56.7297 178.153C57.8315 177.933 58.7128 177.713 59.8145 177.492C60.0349 177.492 60.2553 177.272 60.035 177.272Z" fill="#CCCCCC"/>
<path d="M52.1033 174.627C51.2219 173.746 50.3405 172.864 49.4591 172.203C49.4591 172.203 49.2388 172.203 49.2388 172.423C50.3405 173.084 51.0015 173.966 52.1033 174.627C51.8829 175.068 52.1033 174.847 52.1033 174.627Z" fill="#CCCCCC"/>
<path d="M53.6458 174.187C52.9847 173.085 52.1033 172.204 51.0015 171.543C51.0015 171.543 50.7812 171.543 50.7812 171.763C51.6626 172.645 52.544 173.526 53.205 174.407C53.4254 174.628 53.6458 174.408 53.6458 174.187Z" fill="#CCCCCC"/>
<path d="M55.1871 173.527C54.5261 172.645 53.6447 171.984 52.9836 171.103C52.9836 170.883 52.7632 171.103 52.7632 171.323C53.4242 172.205 54.3056 173.086 54.9667 173.747C54.9667 173.968 55.4074 173.747 55.1871 173.527Z" fill="#CCCCCC"/>
<path d="M56.7313 173.085C56.0703 172.424 55.4092 171.542 54.7481 170.881C54.5278 170.661 54.5278 170.881 54.5278 171.102C55.1889 171.763 55.8498 172.644 56.5109 173.305C56.7312 173.525 56.9517 173.305 56.7313 173.085Z" fill="#CCCCCC"/>
<path d="M60.6961 176.831C59.8147 174.628 58.7129 172.645 57.3908 170.661C57.3908 170.441 57.1704 170.661 57.1704 170.661C58.4925 172.645 59.3739 174.628 60.2553 176.831C60.4757 177.051 60.6961 177.051 60.6961 176.831Z" fill="#CCCCCC"/>
<path d="M63.1204 176.611C62.239 174.408 60.6967 171.984 58.9339 170.441C58.9339 170.441 58.7135 170.441 58.9339 170.441C60.4763 172.425 61.7983 174.408 62.6797 176.831C62.9 176.831 63.1204 176.831 63.1204 176.611Z" fill="#CCCCCC"/>
<path d="M65.1041 176.17C64.2227 173.967 62.9005 171.763 61.5784 169.78C61.5784 169.78 61.3581 169.78 61.5784 169.78C62.9005 171.763 64.0022 173.967 64.8836 176.17C64.8836 176.391 65.3244 176.391 65.1041 176.17Z" fill="#CCCCCC"/>
<path d="M66.8661 175.067C65.7643 173.084 64.6626 171.321 63.3405 169.559H63.1201C64.4422 171.321 65.544 173.084 66.4253 175.067C66.866 175.288 67.0864 175.288 66.8661 175.067Z" fill="#CCCCCC"/>
<path d="M76.1206 173.305C74.3578 171.983 73.256 170 71.2729 168.678C70.3915 168.017 69.7304 168.237 68.6286 168.458C67.3066 168.898 65.7642 169.339 64.4421 169.78C64.2218 169.78 64.4421 170 64.4421 170C65.5439 169.559 66.8659 169.339 67.9676 169.119C68.6287 168.898 69.2897 168.678 70.1711 168.678C70.8322 168.678 71.2728 169.119 71.9339 169.559C73.256 170.881 74.1374 172.204 75.6798 173.305C75.2391 173.746 74.3578 173.746 73.9171 173.966C73.4764 174.187 72.8154 174.187 72.1543 174.407C71.4933 174.627 71.0525 174.627 70.3914 174.848C69.9507 175.068 69.0693 175.288 68.6286 175.288C68.188 175.288 67.7473 174.407 67.5269 174.187L66.6456 172.865C65.9845 171.983 65.3234 170.881 64.6624 170C64.4421 169.78 64.2217 170 64.2217 170.22C65.1031 171.542 65.9845 172.865 66.8659 174.187C67.3066 174.627 67.7473 175.95 68.4084 175.95C69.0694 175.95 69.7304 175.509 70.3914 175.288C71.0525 175.068 71.9338 174.848 72.5949 174.627C73.4763 174.407 75.2391 174.187 75.6798 173.305C76.3409 173.305 76.3409 173.305 76.1206 173.305Z" fill="#CCCCCC"/>
<path d="M47.0356 168.898C45.4932 166.695 43.5101 164.491 41.5269 162.729C41.5269 162.729 41.3066 162.728 41.3066 162.949C43.2898 164.932 45.0525 166.915 46.5949 169.119C46.8153 169.119 47.256 168.898 47.0356 168.898Z" fill="#CCCCCC"/>
<path d="M44.1696 162.509C44.1696 162.289 44.1696 162.289 43.9492 162.068C43.9492 162.289 43.9493 162.509 44.1696 162.509Z" fill="#CCCCCC"/>
<path d="M48.5766 169.56C47.6952 166.916 46.1528 164.272 44.1696 162.068C44.1696 162.068 43.9492 162.068 43.9492 162.289C45.712 164.492 47.2545 166.916 48.1359 169.56C48.3562 169.78 48.5766 169.78 48.5766 169.56Z" fill="#CCCCCC"/>
<path d="M51.002 169.119C49.6799 166.915 48.3578 164.712 47.0357 162.729H46.8154C48.1375 164.932 49.2392 167.135 50.5612 169.339C50.7816 169.339 51.2223 169.339 51.002 169.119Z" fill="#CCCCCC"/>
<path d="M52.3243 168.238C51.0022 166.254 49.9004 164.492 48.7986 162.288C48.7986 162.288 48.5783 162.288 48.7986 162.288C49.9004 164.271 50.7818 166.254 52.1038 168.238C52.1038 168.678 52.5446 168.458 52.3243 168.238Z" fill="#CCCCCC"/>
<path d="M57.8334 169.118C60.2572 168.677 62.4606 168.236 64.8844 167.575C67.3083 166.914 69.9525 166.474 72.3763 165.813C73.2577 165.592 72.8171 164.27 72.1561 164.49C70.834 164.711 69.7322 165.152 68.4101 165.372C64.8845 166.253 61.1385 166.914 57.613 167.796C56.9519 168.016 57.1724 169.118 57.8334 169.118Z" fill="#97A8B2"/>
<path d="M57.8326 169.118C57.1716 169.339 56.2902 169.118 55.6291 169.339C55.6291 169.339 55.629 169.339 55.4087 169.339C55.4087 169.339 55.4087 169.339 55.4087 169.118C55.8494 168.898 56.2902 168.678 56.7309 168.457C56.9512 168.237 57.1715 168.237 57.3919 168.017H57.6122C57.6122 168.237 57.6122 168.237 57.6122 168.457C57.8325 168.678 57.8326 168.898 57.8326 169.118Z" fill="#787878"/>
<path d="M72.5966 165.373C72.5966 165.373 72.5966 165.593 72.5966 165.373C72.5966 165.593 72.5966 165.593 72.5966 165.593C73.2576 165.593 73.6983 165.373 74.139 165.153C74.139 164.712 73.9187 164.271 73.6983 164.051C73.2576 164.271 72.5967 164.271 72.156 164.492C71.9356 164.492 71.9356 164.712 72.156 164.932C72.5967 164.932 72.5966 165.153 72.5966 165.373Z" fill="#787878"/>
<path d="M71.9349 165.813C71.9349 165.372 71.7146 165.152 71.7146 164.711V164.491C71.935 164.491 72.1553 164.271 72.3756 164.271C72.3756 164.271 72.3756 164.27 72.3756 164.491C72.596 164.931 72.5959 165.372 72.5959 165.813C71.4942 166.254 70.3925 166.474 69.2907 166.694C69.0704 166.694 68.6298 166.915 68.4094 166.915C68.1891 166.915 68.1891 166.694 68.4094 166.694C68.6298 166.474 68.8501 166.474 69.0704 166.474C69.2908 166.474 69.7315 166.254 69.9519 166.254C70.1722 166.254 70.6128 166.033 70.8332 166.033C71.0535 166.033 71.9349 165.813 71.9349 165.813Z" fill="#4D4D4D"/>
<path d="M275.096 202.611C274.876 201.288 274.435 199.746 273.334 198.644C271.791 197.322 269.588 197.102 267.384 196.882C259.672 196.221 251.96 195.559 244.248 195.119C236.756 194.458 229.264 194.017 221.772 193.356C213.178 192.695 204.805 192.034 196.212 192.254C179.685 192.695 163.6 196.661 148.176 201.289C143.989 202.611 131.209 204.814 128.785 208.34C118.869 211.425 122.836 230.375 130.768 235.002C135.395 237.646 141.345 237.426 147.074 237.205C180.347 236.544 212.958 246.46 246.231 246.68C246.231 245.799 246.231 244.917 246.231 244.036C252.18 245.138 257.909 245.358 262.757 242.714C269.808 238.968 272.011 231.256 273.334 224.205C274.876 217.154 276.418 209.662 275.096 202.611Z" fill="#465E6E"/>
<path d="M147.735 139.37C151.701 138.269 158.532 137.167 162.278 138.93C165.583 140.472 168.448 142.015 169.549 145.1C172.634 154.134 173.295 163.388 173.736 172.863C174.618 190.712 175.279 208.78 175.719 226.628C175.719 229.934 175.719 233.239 174.177 236.103C173.075 238.307 171.753 241.171 168.888 241.832C154.566 245.578 137.599 255.053 120.632 255.274C118.208 255.274 114.242 252.63 112.039 252.189C105.208 250.426 102.343 244.036 101.021 238.307C99.2584 231.035 98.5973 223.764 97.9362 216.272C95.9531 196.881 92.6479 177.05 92.6479 157.659C92.6479 149.286 106.089 149.066 114.022 146.862C125.7 143.777 136.277 142.235 147.735 139.37Z" fill="#909EA3"/>
<path d="M248.655 257.037C250.858 257.037 253.062 257.257 255.045 256.817C258.35 256.156 260.333 254.393 261.215 252.63C263.418 248.664 262.096 244.477 260.994 240.511C260.113 237.206 259.011 234.121 258.13 230.815C257.469 228.612 256.587 225.968 253.502 224.205C251.299 223.103 248.434 222.222 245.349 221.781C227.942 218.476 208.551 219.798 189.822 219.578C175.719 219.578 161.617 218.917 147.955 217.374C142.667 216.713 137.158 216.272 132.311 217.374C126.141 218.917 123.717 222.442 122.395 225.747C119.971 231.476 118.429 237.646 119.31 243.375C119.971 248.003 123.937 248.884 132.531 249.765C156.769 252.189 181.448 253.732 206.127 255.054C220.45 255.935 234.552 256.596 248.655 257.037Z" fill="#7F8F93"/>
<path d="M93.0889 162.507C93.0889 160.524 93.0888 158.541 93.3092 156.778C93.9702 153.252 95.733 150.828 97.7161 149.727C99.6993 148.625 101.903 148.625 103.886 148.625C106.31 148.625 108.513 149.286 110.937 149.286C112.259 149.286 113.802 149.286 115.124 150.828C116.225 152.371 116.887 154.795 117.327 157.219C118.649 165.592 118.209 171.762 118.209 180.135C117.988 197.763 119.531 220.459 120.412 238.087C120.632 243.816 120.853 250.426 118.429 254.172C117.107 256.375 115.124 257.037 113.361 257.477C108.954 258.579 104.327 255.494 99.6993 253.731C96.3941 252.409 96.1737 248.223 96.1737 243.155C95.9533 226.188 94.6312 210.323 93.9702 193.356C93.7498 182.999 93.5296 172.863 93.0889 162.507Z" fill="#7F8F93"/>
<path d="M138.038 144.22C136.937 137.169 136.055 130.338 134.953 123.287C134.292 119.321 133.852 115.134 135.835 111.608C137.598 108.524 141.123 106.981 144.649 105.879C148.835 104.557 153.463 104.117 157.87 103.676C164.921 103.015 172.192 102.574 179.464 102.574C182.108 102.574 184.972 102.574 187.617 103.896C189.82 104.998 191.363 106.761 192.685 108.744C198.634 117.117 200.177 127.914 201.499 138.05C201.939 140.694 202.16 143.339 201.499 145.983C200.177 150.61 195.99 153.695 191.583 155.458C179.904 160.746 166.904 160.966 154.124 161.407C149.937 161.407 144.428 162.509 141.784 158.763C139.14 154.797 138.699 149.068 138.038 144.22Z" fill="#F2D292"/>
<path d="M210.974 54.0959C210.533 57.4011 208.99 60.7063 207.448 63.7912C205.685 67.3168 203.702 70.622 201.278 73.9272C199.075 77.0121 196.871 79.8767 195.769 83.4023C194.668 87.1482 195.108 90.8941 195.769 94.64C195.99 95.7417 196.21 97.0639 195.99 98.1656C195.769 100.81 193.786 103.013 192.464 105.217C190.922 108.302 190.702 112.047 192.244 115.132C193.786 118.217 197.092 120.421 200.837 120.641C203.041 120.861 205.244 120.421 207.448 120.421C211.414 120.421 215.16 122.404 218.686 123.946C221.991 125.268 225.737 126.591 229.483 126.811C233.229 127.031 237.195 126.37 240.28 124.167C243.365 122.184 245.128 119.099 248.212 117.116C252.619 114.251 258.569 114.692 263.637 116.014C268.484 117.116 273.553 119.099 278.18 117.336C280.824 116.234 282.807 114.251 284.129 112.048C286.333 108.742 287.875 104.556 286.333 101.03C285.231 98.1656 282.587 96.1824 280.604 93.7586C276.858 89.1313 275.536 83.1819 273.552 77.8936C271.79 73.0459 269.586 68.1982 267.823 63.3505C265.62 57.1808 264.298 50.7907 264.078 44.4006C263.857 39.3325 251.738 9.80583 247.331 6.72095C244.026 4.51747 251.518 28.5355 247.551 28.7558C238.076 29.4168 228.601 30.7389 219.788 34.0442C216.703 35.1459 209.651 37.5697 209.211 40.6546C208.99 42.6377 210.533 45.2819 210.753 47.2651C211.194 49.2482 211.194 51.672 210.974 54.0959Z" fill="#736357"/>
<path d="M182.549 123.285C184.753 120.2 186.516 116.895 188.278 113.37C194.889 99.9283 201.72 86.7074 208.33 73.2662C208.771 72.3848 209.212 71.5034 210.093 70.8423C210.974 70.1813 212.296 69.9609 213.398 69.9609C215.161 69.9609 217.144 70.4016 218.246 71.7237C219.127 72.8254 219.568 74.1476 220.009 75.4696C220.89 79.2156 221.771 82.9615 221.771 86.9277C221.771 92.8771 219.788 98.8265 216.924 104.115C214.059 109.403 210.313 114.031 206.347 118.658C196.211 129.896 184.753 140.472 171.091 146.863C170.43 147.083 169.769 147.524 169.108 147.303C168.447 147.083 168.006 146.642 167.566 146.202C166.023 144.439 164.04 142.676 165.142 140.472C166.464 138.269 169.329 136.506 171.312 134.964C175.058 131.218 179.244 127.692 182.549 123.285Z" fill="#3B3D2E"/>
<path d="M246.01 59.6047C247.112 59.6047 248.213 59.3844 249.095 59.8251C250.197 60.2658 251.078 61.3676 251.739 62.4693C254.163 66.2152 254.604 71.0629 255.044 75.6902C257.688 100.81 260.333 125.93 263.197 150.829C263.638 154.355 263.858 158.321 262.536 161.626C261.655 163.609 260.112 165.152 258.79 166.694C254.824 170.66 250.858 174.847 246.23 177.712C240.281 181.457 233.45 183.22 226.619 182.559C221.551 182.119 216.704 180.356 212.076 178.593C205.245 176.169 198.194 173.525 191.363 171.101C190.041 170.66 188.719 170.22 187.838 169.118C187.177 168.457 186.736 167.355 186.295 166.253C183.431 157.439 194.008 149.727 197.754 140.913C205.466 122.404 206.568 101.251 208.551 80.9786C209.212 73.2664 208.551 59.164 218.026 59.3844C222.212 59.6047 226.179 61.3676 230.365 61.3676C235.433 61.3676 240.722 60.0454 246.01 59.6047Z" fill="#404232"/>
<path d="M227.053 150.051C219.561 149.83 212.29 150.932 205.018 150.271C197.306 149.39 190.255 146.746 182.763 145.424C175.051 144.322 165.796 145.203 162.05 150.051C159.847 152.915 159.847 156.882 155.881 159.085C153.898 160.187 151.253 160.407 148.829 160.848C137.371 163.051 129.439 171.865 131.422 180.018C132.303 183.764 134.948 187.29 135.388 191.036C136.71 201.833 120.184 211.969 126.574 221.884C129.219 225.851 135.168 228.495 137.151 232.681C139.575 237.75 135.388 243.258 136.049 248.547C136.931 254.716 143.982 259.564 146.406 265.513C149.05 272.124 146.185 280.277 152.796 285.345C177.998 305.034 302.726 292.988 239.172 280.277C235.647 279.616 231.901 279.175 229.697 277.192C227.714 275.429 227.714 273.005 227.714 270.581C227.714 267.276 227.935 264.191 229.257 261.106C230.138 258.903 231.681 256.92 232.342 254.716C233.003 251.852 246.003 232.902 245.122 230.037C239.172 210.206 252.393 218.139 247.766 184.866C247.325 181.34 244.461 180.679 246.003 177.374C251.512 164.814 249.088 150.492 227.053 150.051Z" fill="#03A678"/>
<path d="M160.294 156.779C159.854 156.779 159.854 157.44 160.294 157.44C160.735 157.44 160.735 156.779 160.294 156.779Z" fill="#B8B8B8"/>
<path d="M230.806 131.218C230.806 132.761 231.026 134.523 232.348 135.625C233.229 136.286 234.551 136.507 235.653 136.507C238.297 136.507 241.162 136.727 243.806 136.727C245.348 136.727 247.111 136.727 248.654 136.286C250.196 135.846 251.739 134.964 252.4 133.422C252.84 132.32 252.84 131.218 252.84 130.116C253.061 124.167 252.84 118.438 252.62 112.489C252.62 111.607 252.62 110.726 252.179 110.065C251.739 108.963 250.637 108.082 249.315 107.641C248.213 107.2 246.891 107.2 245.569 107.2C241.382 107.2 237.196 107.421 233.229 108.302C232.128 108.522 231.246 108.743 230.585 109.624C229.043 111.607 230.144 116.675 230.144 118.879C230.365 122.625 230.585 126.811 230.806 131.218Z" fill="#ABBCC4"/>
<path d="M232.789 108.743C232.128 108.963 231.687 109.845 231.907 110.285C232.128 110.726 232.789 110.946 233.229 110.946C236.755 111.167 240.281 111.167 243.806 111.387C245.349 111.387 246.891 111.387 248.213 111.167C248.654 110.946 249.095 110.946 249.315 110.506C249.756 110.285 249.976 109.844 249.756 109.404C249.535 108.743 249.095 108.522 248.434 108.302C247.111 107.861 245.569 107.861 244.027 107.861C242.043 107.861 239.84 107.861 237.857 108.082C236.535 108.082 234.331 107.861 232.789 108.743Z" fill="#9EAEB5"/>
<path d="M252.399 117.117C251.738 116.896 250.857 116.676 250.196 117.117C249.976 117.337 249.755 117.557 249.535 117.778C249.094 117.998 248.653 117.998 248.213 117.998C246.67 117.998 245.128 117.337 243.365 117.117C241.823 116.896 240.06 117.117 238.738 118.218C237.636 119.32 237.195 121.083 237.195 122.625C237.195 123.507 237.195 124.388 237.195 125.27C237.416 126.151 237.856 127.032 238.738 127.473C239.399 127.914 240.28 127.914 240.941 127.914C245.348 128.134 249.975 128.134 254.382 127.473C255.925 127.253 257.688 127.032 258.789 125.49C259.45 124.609 259.451 123.507 259.451 122.405C259.451 121.744 259.451 121.303 259.23 120.642C258.789 119.32 257.467 118.659 256.366 118.218C255.044 117.998 253.722 117.557 252.399 117.117Z" fill="#E6CABA"/>
<path d="M258.35 120.422C258.35 118.218 258.57 114.032 256.587 112.489C254.384 110.947 250.418 111.828 248.214 113.15C247.553 113.591 247.773 114.472 248.434 114.693C249.977 114.913 251.519 114.693 252.841 114.913C255.486 115.574 254.825 118.879 254.825 120.862C254.825 122.625 254.825 124.608 254.604 126.371C254.384 127.693 254.604 127.913 253.502 128.134C252.621 128.575 251.299 128.354 250.418 128.354C247.994 128.354 247.994 132.1 250.418 132.1C252.621 132.1 255.926 132.1 257.469 130.117C259.011 127.914 258.35 123.066 258.35 120.422Z" fill="#9EAEB5"/>
<path d="M260.994 123.506C260.994 124.167 260.994 124.828 261.435 125.269C262.096 126.371 263.859 125.93 264.961 125.269C267.605 124.167 270.029 122.845 272.012 120.862C273.334 119.54 274.215 117.998 275.097 116.455C275.758 115.353 276.419 114.252 276.639 113.15C277.08 111.387 276.639 109.624 276.198 107.861C273.114 95.9627 267.605 84.5046 260.333 74.5889C259.011 72.8261 257.689 71.0633 255.486 70.1819C254.163 69.7412 252.841 69.7412 251.519 69.7412C249.536 69.7412 247.553 70.1819 246.011 71.0633C243.807 72.6058 242.926 75.6906 243.146 78.3348C243.587 80.979 245.129 83.4028 246.892 85.6063C248.655 87.8098 250.638 89.5726 252.621 91.5557C255.265 94.4202 257.469 97.9458 259.452 101.251C260.554 103.014 261.655 104.556 262.537 106.319C263.418 107.641 264.3 108.963 264.52 110.506C264.961 112.048 264.961 113.811 264.079 115.133C262.977 116.896 260.994 117.336 259.893 118.879C259.232 120.201 260.774 121.964 260.994 123.506Z" fill="#3B3D2E"/>
<path d="M208.55 38.4522C208.991 41.3167 209.652 43.9609 210.533 46.6051C211.414 49.2493 213.177 51.4527 215.381 52.7748C217.805 54.3172 220.889 54.0969 223.313 55.6394C224.195 56.3004 224.856 56.9614 225.957 57.1818C227.059 57.6225 228.381 56.9614 229.703 56.5208C233.229 54.9783 236.975 52.9952 238.517 49.0289C239.178 47.4865 239.399 45.5034 239.619 43.7406C239.839 40.4353 240.28 36.9098 240.5 33.6045C240.941 28.7569 241.382 23.4685 239.399 19.2819C238.077 16.4173 235.653 14.4342 233.229 13.3324C230.805 12.2307 227.941 11.79 225.076 11.79C223.093 11.79 220.889 11.79 218.906 12.4511C216.703 13.1121 214.72 14.4342 212.737 15.9766C210.974 17.2987 209.431 18.6208 208.33 20.3836C204.804 25.4516 207.668 33.1638 208.55 38.4522Z" fill="#E6CABA"/>
<path d="M203.482 19.5008C203.262 22.8061 203.262 25.8909 203.482 29.1962C203.703 30.5183 203.923 32.0607 205.245 32.5014C205.686 32.7217 206.126 32.7217 206.567 32.5014C208.55 32.281 210.754 32.0607 212.737 32.0607C213.178 32.0607 213.398 32.0607 213.839 31.8403C214.059 31.62 214.279 31.1793 214.5 30.7386C214.94 28.9758 215.381 27.213 215.601 25.4502C216.483 26.7723 217.364 28.3147 218.246 29.6368C218.246 29.8572 218.466 29.8572 218.466 29.8572C218.686 30.0775 218.906 29.8572 219.127 29.8572C221.991 28.7554 225.076 28.3148 228.161 28.0944C228.602 28.0944 229.263 28.0944 229.704 27.8741C230.365 27.4334 230.365 26.7723 230.585 25.8909C231.026 24.1282 231.246 22.145 231.246 20.1619C232.568 22.145 233.89 23.9078 235.433 25.8909C237.416 28.7555 239.619 31.8403 239.619 35.3659C239.619 34.4845 240.06 33.6031 240.501 32.9421C240.721 32.7217 240.941 32.281 241.162 32.281C241.602 32.0607 242.264 32.5014 242.484 32.9421C243.806 34.9252 241.382 37.5694 241.602 39.9932C241.602 41.095 240.721 41.5357 241.162 42.4171C241.602 43.9595 241.162 42.417 241.162 43.9595C241.162 46.824 240.941 49.9089 240.941 52.7734C241.823 42.1967 252.62 37.349 253.501 26.7723C253.722 24.3485 253.281 22.145 253.061 19.7211C252.4 15.9752 251.518 12.0089 249.535 8.70372C246.891 4.5171 242.263 1.87297 237.636 0.771226C233.009 -0.330516 227.941 -0.110181 223.314 0.550865C220.449 0.991561 217.805 1.43224 215.161 2.53399C212.076 3.85608 210.093 6.50025 207.669 8.92408C205.025 12.009 203.923 15.7549 203.482 19.5008Z" fill="#736357"/>
<path d="M241.384 25.4511C241.163 21.7052 240.502 17.7389 238.96 14.2133C237.417 10.6877 234.773 7.60289 231.468 6.06045V5.84009C231.248 5.17904 231.027 4.51801 230.587 3.85697C229.926 3.41627 229.044 3.19588 228.163 3.19588C226.62 3.19588 225.298 3.19593 223.756 2.97559C222.654 2.97559 221.332 2.97557 220.451 3.85697L220.23 4.07733C219.349 4.07733 218.247 4.07733 217.366 4.07733C213.84 4.07733 210.094 4.51797 207.23 6.50111C205.026 8.04355 203.704 10.4674 203.263 12.8913C203.263 13.5523 202.823 15.5354 203.484 15.7558C203.924 15.9761 205.247 14.4337 205.687 14.2133C207.23 13.1116 209.213 12.2302 210.976 11.3488C213.84 10.2471 216.705 9.36566 219.79 9.14532C216.484 10.4674 213.179 11.7895 209.874 12.8913C207.67 13.7727 205.467 14.654 203.484 15.9761C202.823 16.4168 202.382 16.8575 202.162 17.5185C201.501 20.1627 205.026 17.7389 205.687 17.2982C207.45 16.1965 209.213 15.3151 210.976 14.4337C214.722 12.6709 218.467 11.1284 222.213 9.80633C222.654 9.58599 223.315 9.36566 223.535 9.14532C224.858 10.4674 226.4 11.5692 227.722 12.6709C229.485 13.993 231.468 15.5354 232.79 17.2982C233.892 18.6203 234.553 19.9424 235.214 21.4848C236.756 24.5697 238.299 27.4342 239.18 30.7394C239.401 31.8412 239.401 32.9429 239.401 34.265C239.401 32.5022 240.282 30.9598 240.723 29.4174C241.604 28.0953 241.604 26.7732 241.384 25.4511ZM234.773 16.4168C233.011 14.4337 231.027 12.2302 229.044 10.4674C231.688 11.5692 234.112 13.3319 235.655 15.7558C236.536 17.0779 236.977 18.3999 237.417 19.722C236.756 18.6203 235.875 17.5185 234.773 16.4168Z" fill="#97A8B2"/>
<path d="M206.346 87.8092C207.008 85.165 207.669 82.5208 207.228 79.8766C207.008 78.1139 206.347 76.3511 206.126 74.5883C205.685 71.5034 206.567 67.9778 208.33 65.554C207.008 63.1302 206.346 59.6045 209.652 58.2825C213.177 56.9604 218.466 59.1639 221.991 59.6046C227.28 60.2656 232.788 60.0453 238.077 58.9435C240.501 58.5028 242.924 57.8418 245.348 57.8418C247.772 57.8418 250.416 58.2825 252.179 60.0453C253.942 61.5877 254.382 64.4522 252.62 65.9946C250.637 67.7574 246.67 67.3168 245.348 69.5202C244.467 70.622 244.687 72.3848 243.585 73.4866C242.704 74.3679 241.162 74.3679 239.839 74.3679C236.755 74.3679 233.449 73.9272 230.365 73.2662C228.161 72.8255 226.178 72.1644 223.974 72.1644C222.873 72.1644 221.991 72.1645 220.89 72.3848C220.449 79.8767 219.788 87.5888 219.347 95.0807C219.347 96.6231 219.127 98.1655 219.127 99.7079C219.127 100.81 218.906 102.132 218.025 102.793C217.584 103.234 216.703 103.454 216.042 103.674C212.076 104.776 207.889 105.878 204.143 104.556C203.702 104.335 203.262 104.115 203.041 103.895C202.821 103.454 202.821 103.013 203.041 102.573C204.143 97.5046 205.245 92.6569 206.346 87.8092Z" fill="#F2D292"/>
<path d="M259.892 158.322C277.52 153.034 296.69 147.745 314.759 152.152C317.183 152.813 319.827 153.695 321.149 155.458C322.251 157 322.251 158.983 322.251 160.746C321.59 183.001 322.912 199.968 320.929 227.732C320.488 233.241 322.03 238.97 318.946 243.817C315.42 249.546 307.708 252.191 300.436 254.614C291.622 257.479 282.808 260.564 273.994 263.428C267.604 265.632 260.333 267.615 254.163 265.632C246.451 262.988 243.586 255.275 242.485 248.224C240.502 235.885 240.502 223.325 240.722 210.985C240.942 198.425 241.162 186.086 241.162 173.526C240.942 162.509 247.993 161.848 259.892 158.322Z" fill="#909EA3"/>
<path d="M239.401 176.17C239.841 172.865 240.502 169.339 242.045 167.136C243.146 165.813 244.248 165.152 245.57 164.712C249.977 162.949 254.605 164.051 259.012 164.712C259.893 164.932 260.554 164.932 261.215 165.813C261.876 166.695 262.317 168.017 262.537 169.559C262.978 173.085 262.978 176.611 262.978 180.356C262.537 191.594 262.537 201.29 261.656 212.527C260.554 227.511 260.554 242.495 259.232 257.478C259.232 258.801 259.012 260.123 258.571 261.224C257.469 264.75 254.605 265.631 252.401 265.852C246.672 266.513 234.553 268.275 235.214 253.953C236.095 237.206 236.536 220.68 237.197 203.934C237.638 194.459 238.078 185.204 239.401 176.17Z" fill="#7F8F93"/>
<path opacity="0.15" d="M213.84 169.558C215.162 168.457 216.264 167.355 217.586 166.253C218.908 164.931 220.671 163.168 220.01 161.405C219.79 160.304 218.688 159.643 217.807 159.202C209.874 154.795 199.738 159.202 190.704 157.439C188.06 156.998 185.415 155.676 182.771 155.456C180.347 155.236 178.144 155.676 175.72 156.117C169.11 156.117 161.177 158.982 154.567 160.304C147.736 161.626 141.125 162.728 134.735 165.592C132.532 166.694 130.328 167.795 128.345 169.118C125.04 171.321 121.735 175.508 126.803 178.152C128.565 179.033 130.549 179.033 132.311 179.254C150.38 180.355 168.669 180.355 186.737 179.474C192.246 179.254 197.534 178.813 202.602 176.83C206.789 175.067 210.315 172.423 213.84 169.558Z" fill="#272525"/>
<path d="M209.213 164.931C210.976 164.27 213.18 163.168 213.4 161.185C213.62 159.863 212.519 158.541 211.196 157.88C209.874 157.219 208.332 157.219 207.01 156.998C190.263 156.117 173.737 155.456 156.991 154.574C152.804 154.354 148.617 154.134 144.651 155.235C142.007 155.897 139.363 157.219 136.939 158.541C132.973 160.744 129.006 163.168 125.261 165.812C123.938 166.694 122.396 167.795 121.735 169.338C121.074 170.88 121.515 173.084 123.057 173.745C123.498 173.965 124.159 173.965 124.82 173.965C140.024 174.406 155.448 174.847 170.652 175.287C177.703 175.508 182.11 175.287 188.501 172.863C191.806 171.541 195.331 170.219 198.637 168.897C201.721 168.016 206.349 164.931 209.213 164.931Z" fill="#C2C2C2"/>
<path d="M119.09 163.83C119.31 166.254 119.531 168.898 120.853 170.881C123.056 173.746 127.022 174.186 130.548 174.407C146.854 175.508 163.38 175.729 179.906 175.508C181.448 175.508 182.991 175.509 184.533 174.847C186.076 174.186 187.177 172.864 188.059 171.322C190.262 167.356 190.262 162.508 190.262 157.881C190.042 147.304 189.822 136.948 189.601 126.371C189.601 124.828 189.601 123.286 188.72 121.964C187.177 119.099 183.211 118.879 179.906 118.879C165.363 119.099 150.82 119.32 136.277 119.54C132.09 119.54 121.734 117.777 119.09 121.523C116.446 125.269 118.208 135.405 118.208 139.812C118.429 147.965 118.649 155.898 119.09 163.83Z" fill="#CCCCCC"/>
<path d="M157.871 151.709C156.328 148.183 154.786 144.438 153.464 140.692C153.023 139.81 151.922 139.59 151.481 140.471C149.057 144.437 146.853 148.845 145.311 153.252C145.091 153.913 146.193 154.574 146.633 153.692C146.633 153.692 146.633 153.472 146.854 153.472C147.074 153.692 147.515 154.133 147.955 154.133C151.04 154.353 154.345 153.913 157.21 153.472C158.091 153.472 158.091 152.37 157.871 151.709ZM147.955 151.048C149.277 148.624 150.599 145.98 152.142 143.556C153.023 145.98 154.125 148.624 155.006 151.048C152.583 151.268 150.379 151.048 147.955 151.048Z" fill="white"/>
<g opacity="0.17">
<path opacity="0.17" d="M197.973 295.156C195.99 293.614 194.006 292.512 192.023 290.969C191.362 290.308 190.261 291.41 190.922 292.071C192.684 293.834 194.447 295.817 196.651 296.919C197.532 297.58 198.854 296.037 197.973 295.156Z" fill="#272525"/>
<path opacity="0.17" d="M218.907 296.48C217.805 296.7 216.703 297.361 215.822 297.802C214.72 298.463 213.839 299.344 212.957 300.225C212.296 300.886 213.178 301.988 214.059 301.548C214.94 300.887 215.602 300.446 216.483 299.785C217.364 299.124 218.686 298.903 219.568 298.242C220.67 297.581 220.009 296.259 218.907 296.48Z" fill="#272525"/>
<path opacity="0.17" d="M205.685 284.58C203.922 282.817 202.38 281.054 201.058 278.851C200.617 278.19 199.736 278.851 199.956 279.512C201.058 281.715 202.6 283.919 204.583 285.682C205.244 286.122 206.346 285.241 205.685 284.58Z" fill="#272525"/>
<path opacity="0.17" d="M178.142 272.461C177.04 273.122 175.939 274.445 175.057 275.326C173.955 276.428 173.074 277.529 171.972 278.631C171.311 279.292 172.413 280.394 173.074 279.733C173.956 278.851 174.837 277.75 175.939 276.868C177.04 275.767 178.362 274.885 179.244 273.783C179.905 273.122 179.024 271.8 178.142 272.461Z" fill="#272525"/>
<path opacity="0.17" d="M168.005 268.275C166.243 266.071 164.259 263.868 162.717 261.664C162.276 261.003 161.175 261.665 161.615 262.326C163.158 264.749 164.921 267.393 166.904 269.377C167.565 270.038 168.666 268.936 168.005 268.275Z" fill="#272525"/>
<path opacity="0.17" d="M155.005 250.205C153.021 250.425 151.259 250.866 149.496 251.747C148.614 252.188 149.496 253.29 150.157 252.849C151.699 252.188 153.462 251.968 155.225 251.527C156.106 251.747 155.886 250.205 155.005 250.205Z" fill="#272525"/>
<path opacity="0.17" d="M179.684 256.816C177.26 254.833 175.056 252.629 173.073 250.205C172.412 249.544 171.09 250.205 171.751 250.866C173.734 253.511 175.938 255.935 178.582 257.918C179.463 258.579 180.565 257.257 179.684 256.816Z" fill="#272525"/>
<path opacity="0.17" d="M206.567 252.189C203.482 252.189 200.397 252.851 197.313 253.512C196.431 253.732 196.651 255.274 197.533 255.274C200.618 255.054 203.923 255.054 206.788 254.173C207.889 253.732 207.669 252.189 206.567 252.189Z" fill="#272525"/>
<path opacity="0.17" d="M206.568 243.155C206.127 241.833 205.466 240.51 204.805 239.188C204.584 238.527 203.262 238.968 203.703 239.629C204.144 240.951 204.585 242.273 205.466 243.595C205.466 244.256 206.788 243.816 206.568 243.155Z" fill="#272525"/>
<path opacity="0.17" d="M188.498 236.104C187.176 233.019 185.854 230.155 184.972 226.85C184.752 225.968 183.43 226.409 183.65 227.29C184.532 230.596 185.633 233.901 187.176 236.986C187.837 237.647 188.939 236.765 188.498 236.104Z" fill="#272525"/>
<path opacity="0.17" d="M163.378 223.324C161.175 225.087 159.191 227.07 157.208 229.053C156.768 229.493 157.429 230.375 157.869 229.714C159.852 227.731 162.056 226.188 164.039 224.426C164.92 223.985 164.039 222.883 163.378 223.324Z" fill="#272525"/>
<path opacity="0.17" d="M149.497 215.17C148.174 213.187 146.632 211.204 145.09 209.221C144.649 208.78 143.988 209.441 144.429 209.882C145.971 211.644 147.293 213.628 148.615 215.611C148.835 216.712 150.158 216.051 149.497 215.17Z" fill="#272525"/>
<path opacity="0.17" d="M157.43 191.813C155.447 192.695 153.464 194.017 151.26 195.119C150.599 195.559 151.26 196.661 151.921 196.22C153.904 195.119 156.108 194.237 158.091 193.135C159.193 192.695 158.532 191.373 157.43 191.813Z" fill="#272525"/>
<path opacity="0.17" d="M174.395 201.509C172.412 199.525 170.87 197.542 169.327 195.119C168.887 194.458 167.565 195.119 168.226 195.78C169.768 198.203 171.311 200.407 173.514 202.39C173.955 203.271 175.056 202.17 174.395 201.509Z" fill="#272525"/>
<path opacity="0.17" d="M194.008 201.288C192.465 201.288 190.923 201.949 189.38 202.39C188.279 202.61 188.719 204.153 189.821 203.932C191.364 203.492 193.126 203.492 194.448 202.831C195.33 202.39 194.889 201.068 194.008 201.288Z" fill="#272525"/>
<path opacity="0.17" d="M217.804 222.662C215.6 219.577 213.176 216.492 210.753 213.628C210.312 212.967 208.99 213.848 209.43 214.509C211.634 217.594 213.837 220.679 216.261 223.764C216.922 224.425 218.244 223.323 217.804 222.662Z" fill="#272525"/>
<path opacity="0.17" d="M228.601 231.476C228.161 230.594 226.618 230.814 227.059 231.916C227.94 234.12 228.16 236.544 229.042 238.747C229.262 239.628 230.805 239.628 230.805 238.527C230.584 236.103 229.483 233.679 228.601 231.476Z" fill="#272525"/>
<path opacity="0.17" d="M200.396 217.593C198.413 218.475 196.65 219.797 194.887 221.119C194.226 221.56 195.108 222.661 195.769 222C197.311 220.678 199.074 219.797 201.057 218.695C201.718 218.475 201.057 217.153 200.396 217.593Z" fill="#272525"/>
<path opacity="0.17" d="M225.075 195.339C223.092 196.22 221.33 197.322 219.567 198.424C218.685 199.085 219.567 200.407 220.448 199.746C222.211 198.644 224.194 197.763 226.177 196.882C227.059 196.441 225.957 194.898 225.075 195.339Z" fill="#272525"/>
<path opacity="0.17" d="M216.262 187.407C213.397 188.289 210.753 189.611 208.109 190.713C207.448 190.933 207.888 192.035 208.549 191.814C211.414 190.713 214.058 189.831 216.923 188.73C217.804 188.509 217.143 187.187 216.262 187.407Z" fill="#272525"/>
<path opacity="0.17" d="M227.72 183C226.839 180.576 225.516 178.372 223.974 176.389C223.313 175.508 222.211 176.83 222.872 177.491C224.415 179.254 225.296 181.237 226.178 183.44C226.398 184.542 227.94 184.101 227.72 183Z" fill="#272525"/>
<path opacity="0.17" d="M230.143 160.304C229.703 159.643 228.601 160.083 228.821 160.744C229.482 163.609 230.364 166.473 230.804 169.338C231.025 170.44 232.567 169.999 232.567 168.897C232.127 166.033 231.465 162.948 230.143 160.304Z" fill="#272525"/>
<path opacity="0.17" d="M189.16 184.321C188.279 184.982 187.177 185.643 186.296 186.304C185.194 186.965 184.092 187.626 183.211 188.508C182.55 189.169 183.431 190.27 184.313 189.83C185.194 189.389 186.075 188.507 186.957 187.846C188.058 186.965 188.94 186.304 190.042 185.423C190.923 184.982 189.821 183.88 189.16 184.321Z" fill="#272525"/>
</g>
</svg>
