<svg width="451" height="511" viewBox="0 0 451 511" fill="none" xmlns="http://www.w3.org/2000/svg">
<path d="M440.196 378.206C432.973 369.549 421.995 363.199 419.105 352.522C416.794 343.864 420.55 333.763 416.794 325.682C411.883 315.004 398.015 312.984 386.17 313.273C318.854 315.87 257.894 353.099 191.734 365.797C155.909 372.723 118.64 372.435 84.8374 385.421C66.0583 392.636 48.1459 405.334 36.5896 421.496C30.2335 423.804 24.1664 426.979 18.9661 431.308C0.475864 446.315 -8.76924 478.926 11.7433 495.953C24.4553 506.631 41.7899 508.94 58.5467 510.094C108.817 513.269 158.798 507.785 208.202 498.55C263.383 494.51 317.698 486.141 366.813 463.053C378.08 460.456 389.059 457.859 400.326 455.261C411.594 452.664 423.15 449.778 432.684 443.14C452.33 428.71 456.086 396.677 440.196 378.206Z" fill="#D4E4EA"/>
<path d="M252.694 447.757C252.405 447.469 251.827 448.046 252.405 448.335C256.45 450.643 257.028 455.549 254.139 459.013C251.827 461.899 248.072 463.63 244.605 465.073C237.671 467.959 230.159 469.113 222.647 468.536C231.893 469.113 241.716 467.382 249.805 462.764C252.694 461.033 255.583 458.724 256.161 455.549C257.028 452.375 255.583 449.489 252.694 447.757Z" fill="#ABBCC4"/>
<path d="M254.428 442.274C254.139 442.274 254.139 442.563 254.139 442.563C259.05 445.737 262.806 451.221 261.65 457.281C260.495 463.63 255.294 467.382 248.938 467.671C248.36 467.671 248.36 468.536 248.938 468.536C255.583 468.825 261.361 463.919 262.517 457.57C263.962 451.221 259.917 445.738 254.428 442.274Z" fill="#ABBCC4"/>
<path d="M161.109 463.63C145.797 458.724 129.329 461.61 113.728 463.342C105.639 464.208 97.2604 465.073 89.171 464.208C85.1262 463.63 80.2148 462.765 77.3257 459.879C73.281 455.838 76.1701 450.066 79.9259 447.181C80.2148 446.892 79.9259 446.603 79.637 446.892C74.1477 450.932 72.1253 458.436 78.7702 462.187C85.993 466.228 95.527 465.939 103.328 465.362C122.396 464.208 141.752 459.302 160.532 464.785C161.687 464.785 161.976 463.919 161.109 463.63Z" fill="#ABBCC4"/>
<path d="M123.84 469.402C115.751 469.979 107.372 470.557 99.283 471.134C92.638 471.711 79.6371 474.597 77.3259 465.362C77.3259 465.073 76.748 465.073 77.0369 465.362C79.0593 473.154 88.5933 472.288 94.6604 472C104.483 471.422 114.306 470.845 124.129 470.268C124.418 470.268 124.418 469.402 123.84 469.402Z" fill="#ABBCC4"/>
<path d="M62.3026 454.395C59.4135 454.972 59.1246 458.147 57.1023 459.878C54.2132 462.764 49.8795 461.61 46.4126 462.187C45.8348 462.187 46.1237 463.053 46.7015 463.053C49.8795 462.476 53.0575 463.053 55.9466 461.899C56.8134 461.321 57.6801 460.744 58.2579 459.878C59.4136 458.147 59.7024 455.549 62.3026 454.972C62.8804 454.684 62.5915 454.106 62.3026 454.395Z" fill="#ABBCC4"/>
<path d="M190.578 474.596C189.423 474.596 188.267 474.308 187.112 474.308C186.245 474.308 184.511 474.308 183.645 474.019C182.2 473.442 182.489 471.711 181.622 470.556C179.6 468.536 175.555 468.825 172.955 468.825C168.332 468.825 163.71 469.113 159.376 469.69C154.754 470.268 150.42 470.556 145.798 468.825C145.22 468.536 145.22 469.402 145.509 469.402C149.264 470.845 153.309 470.845 157.354 470.556C161.976 470.268 166.31 469.69 170.933 469.69C172.955 469.69 174.977 469.69 177 469.979C178.155 469.979 179.6 470.268 180.467 471.422C181.333 472.576 180.756 473.442 181.333 474.308C181.911 474.885 182.489 475.174 183.356 475.174C185.667 475.462 187.978 475.751 190.29 475.751C191.445 475.751 191.445 474.596 190.578 474.596Z" fill="#ABBCC4"/>
<path d="M203.29 471.711C203.001 471.134 202.713 470.845 202.424 470.268C202.135 469.979 201.557 470.268 201.846 470.557L203.001 472C203.001 472.577 203.579 472.288 203.29 471.711Z" fill="#ABBCC4"/>
<path d="M353.235 385.133C350.634 388.884 344.856 387.153 341.1 389.173C338.5 390.327 336.189 393.213 338.5 396.099C339.656 397.542 341.678 398.408 343.123 399.562C345.434 401.005 348.034 402.448 350.345 404.18C352.368 405.912 350.923 407.932 348.901 408.797C347.745 409.375 346.301 409.663 345.145 409.952C342.256 410.529 339.367 411.106 336.478 411.683C324.921 413.415 313.076 413.126 301.52 413.126C295.742 413.126 290.252 413.126 284.474 413.415C279.274 413.704 274.073 413.704 269.162 414.858C264.828 416.012 260.495 418.033 258.472 422.073C256.739 425.247 256.739 429.288 259.339 432.174C259.628 432.462 259.917 432.174 259.628 431.885C256.161 427.556 258.761 421.207 262.806 418.321C267.14 415.435 272.629 415.147 277.829 414.569C288.519 413.992 299.497 414.281 310.476 414.281C320.877 414.281 331.566 413.992 341.967 411.972C345.145 411.395 350.634 411.106 352.657 407.932C354.39 404.757 350.345 403.026 348.323 401.583C346.012 400.14 343.123 398.697 341.1 396.965C339.078 395.234 338.211 393.502 340.234 391.482C341.389 390.327 342.834 389.75 344.278 389.462C348.034 388.596 352.079 389.173 354.39 385.999C354.39 385.133 353.523 384.556 353.235 385.133Z" fill="#ABBCC4"/>
<path d="M367.969 352.522C362.191 355.696 356.702 358.582 350.345 360.602C344.567 362.623 338.5 363.777 332.722 364.931C323.477 366.951 312.787 371.281 311.343 381.67C311.054 383.69 311.343 385.999 312.209 387.73C313.365 390.328 316.254 393.214 314.521 396.388C313.076 398.697 310.476 399.563 307.876 400.14C304.698 401.006 301.52 401.294 298.053 401.872C291.119 403.026 284.185 403.603 277.251 404.18C271.762 404.757 265.695 405.335 260.784 407.643C256.45 409.664 252.405 413.415 250.961 418.321C249.805 422.65 250.961 427.556 254.717 430.442C255.005 430.731 255.294 430.154 255.005 430.154C250.672 426.691 250.383 420.341 252.983 415.435C255.872 410.529 261.073 407.643 266.273 406.489C272.629 404.757 279.274 404.757 285.63 404.18C291.697 403.603 297.475 402.737 303.253 401.583C307.009 401.006 311.921 400.429 314.521 396.965C317.121 393.502 314.521 390.328 312.787 387.153C310.187 381.958 312.787 375.898 316.543 372.146C320.877 367.817 326.655 366.374 332.433 365.22C344.856 362.623 356.99 359.448 367.969 352.522C368.258 352.233 368.836 352.81 367.969 352.522Z" fill="#ABBCC4"/>
<path d="M298.341 347.904C295.452 345.884 292.274 344.441 289.385 342.998C286.496 341.266 283.318 339.823 280.429 338.092C274.362 334.917 268.295 331.743 262.228 328.568C261.65 328.279 261.072 329.145 261.65 329.723C267.717 333.186 273.784 336.649 279.851 340.112C282.74 341.843 285.918 343.575 288.807 345.307C291.697 347.038 294.586 349.058 297.764 350.213C298.341 350.213 299.208 348.193 298.341 347.904Z" fill="#BE9F3D"/>
<path d="M270.317 331.454C270.028 331.166 269.739 330.877 269.162 330.877C269.162 330.3 268.873 329.723 268.295 329.434C265.117 327.702 261.361 326.26 258.472 323.951C257.027 322.508 255.005 325.105 256.45 326.259C259.917 329.723 263.961 332.031 268.584 334.052C270.028 334.629 271.762 332.32 270.317 331.454Z" fill="#3D3D3D"/>
<path d="M263.672 18.6178C259.917 8.22837 249.227 -5.33542 237.093 2.16803C231.315 5.63117 227.848 11.4031 224.092 16.5978C219.469 23.524 214.847 30.1616 209.935 37.0879C200.401 50.9404 190.867 64.793 181.333 78.6455C172.666 91.3437 163.421 104.042 155.909 117.606C148.687 130.593 143.486 144.445 141.753 159.452C139.73 175.325 140.019 191.486 140.597 207.359C141.464 240.547 142.908 274.024 145.22 307.212C147.531 340.4 150.131 373.589 153.02 406.777C153.598 414.281 154.465 421.495 155.042 428.999C154.754 429.576 154.465 430.153 154.176 430.442C152.442 433.039 156.776 435.637 158.509 433.039C174.111 408.22 187.4 382.535 199.246 355.696C210.802 329.145 220.625 301.729 229.003 273.735C237.382 245.453 238.826 213.13 244.315 184.271C249.805 155.412 259.05 130.015 262.228 100.867C263.961 86.1488 265.117 71.4306 266.273 56.7123C267.139 44.0141 268.006 30.7387 263.672 18.6178Z" fill="#03A678"/>
<path d="M212.247 187.445C218.025 190.043 224.67 192.063 230.737 190.043C237.382 187.734 240.849 180.519 243.16 174.17C246.627 164.646 248.649 154.546 249.516 144.445C249.516 143.002 249.805 141.848 249.227 140.693C248.071 137.807 244.315 136.941 241.426 136.653C223.225 134.633 204.735 133.19 187.978 126.552C179.311 123.089 169.199 118.471 160.821 122.8C153.598 126.552 150.709 135.498 149.842 143.002C148.975 151.66 156.198 154.834 162.554 159.452C177.866 170.418 194.623 179.942 212.247 187.445Z" fill="#EBEFEC"/>
<path d="M201.557 294.225C204.157 294.514 206.757 294.514 208.78 295.957C210.802 297.4 212.247 300.286 211.091 302.306C193.179 299.132 174.977 295.957 158.798 287.876C155.909 286.434 144.642 280.662 147.82 276.044C150.131 272.869 160.532 281.527 163.421 282.97C174.977 289.319 188.267 293.36 201.557 294.225Z" fill="#EBEFEC"/>
<path d="M192.312 345.884C192.89 345.884 193.179 345.884 193.468 346.173C193.757 346.461 194.045 347.039 194.045 347.327C194.334 348.77 194.334 350.213 194.334 351.656C194.334 351.945 194.334 352.522 194.045 352.522C193.757 353.099 192.89 352.811 192.312 352.811C180.178 349.636 163.132 346.462 152.731 339.247C155.043 333.763 165.155 340.401 168.621 341.555C176.422 343.864 184.223 345.596 192.312 345.884Z" fill="#EBEFEC"/>
<path d="M219.18 68.5442C229.87 70.2758 240.559 71.4301 251.249 72.2959C253.56 72.5845 255.872 72.5844 257.605 71.7187C259.627 70.8529 260.783 67.9669 259.627 66.2353C244.315 67.1011 229.003 65.6581 214.269 61.9064C211.38 61.3292 196.356 54.9803 200.69 62.7723C202.712 67.1012 214.846 67.967 219.18 68.5442Z" fill="#EBEFEC"/>
<path d="M186.245 188.311C201.268 196.681 216.58 205.338 233.337 208.801C234.203 209.09 235.359 209.379 235.937 210.244C236.226 210.822 236.226 211.687 236.226 212.553C235.07 221.788 233.337 231.023 230.737 239.97C230.159 242.278 229.292 244.587 227.847 246.319C226.403 248.05 224.092 249.205 222.069 250.07C213.691 252.956 203.868 252.091 195.49 248.916C187.111 245.742 179.6 240.547 172.377 234.775C165.443 229.292 158.509 223.231 152.442 216.593C148.686 212.842 144.93 208.801 143.486 203.607C142.33 199.855 142.33 195.815 142.33 191.774C142.33 185.425 138.286 153.103 152.153 163.204C157.642 167.244 162.265 173.016 168.043 177.056C173.821 181.096 180.755 183.982 186.245 188.311Z" fill="#EBEFEC"/>
<path d="M250.383 40.551C248.649 91.3436 239.982 142.136 225.247 190.909C209.069 243.433 185.378 293.36 173.533 347.038C170.932 359.159 168.621 371.569 164.576 383.113C159.376 397.254 150.998 411.972 154.754 426.69C155.909 431.019 160.532 435.637 163.71 432.751C164.576 431.885 165.154 431.019 165.443 429.865C183.356 387.441 200.979 345.018 218.891 302.595C222.647 293.648 226.692 284.413 228.137 274.601C230.448 260.46 232.759 246.319 236.515 232.466C238.826 224.097 239.404 216.016 242.293 207.936C245.471 199.278 246.916 190.043 248.36 181.096C256.739 129.438 265.117 76.9139 261.939 24.6783C261.65 19.4836 261.072 14.0004 258.761 9.38288C257.605 7.07413 253.849 1.87936 250.671 2.45655C246.338 3.32233 248.938 9.67133 249.227 12.8459C250.671 21.7923 250.671 31.316 250.383 40.551Z" fill="#F2D292"/>
<path d="M183.355 439.966C188.267 438.811 193.467 437.657 198.379 436.214C206.468 433.617 215.135 430.731 223.514 432.174C226.403 432.751 229.292 433.617 231.892 435.06C235.937 436.791 239.693 439.1 242.004 442.852C244.315 446.603 244.026 452.087 240.559 454.684C238.826 456.127 236.804 456.416 234.492 456.704C222.358 458.436 209.935 458.147 198.09 456.127C192.023 455.261 186.244 453.818 180.466 452.087C176.999 450.932 170.066 450.066 170.643 444.872C170.643 439.677 179.888 440.831 183.355 439.966Z" fill="#638499"/>
<path d="M278.696 286.722C278.118 290.185 278.407 294.226 281.007 298.266C281.874 299.42 282.452 300.575 283.318 301.729C288.808 308.367 294.297 315.004 301.231 319.622C302.097 320.199 302.964 320.776 304.12 320.776C305.853 320.776 307.298 319.911 308.454 318.468C309.609 317.025 310.765 315.004 310.187 313.273C309.898 311.253 307.876 309.81 306.142 308.655C301.52 305.481 297.186 302.306 292.563 299.42C291.119 298.266 289.385 297.4 288.23 295.669C285.63 292.205 286.207 287.299 286.785 282.971C287.941 276.333 288.808 269.407 289.963 262.769C290.541 259.883 288.23 256.42 285.63 259.883C284.185 262.192 283.318 265.655 282.741 268.252C281.007 274.313 280.429 280.373 278.696 286.722Z" fill="#E2CFC5"/>
<path d="M289.674 261.903C289.963 261.903 289.963 261.903 290.252 261.903C290.541 261.903 290.83 261.326 290.83 261.037C291.697 259.305 292.274 257.285 292.852 255.265C292.852 254.976 293.141 254.399 292.852 254.111C292.563 253.822 292.274 253.822 292.274 253.822C291.986 253.533 291.986 252.668 291.986 252.091C291.986 251.513 291.697 250.936 291.408 250.648C290.83 249.782 289.963 249.493 289.096 249.493C288.23 249.493 287.363 250.359 287.074 251.225C286.785 251.802 286.785 252.091 286.785 252.668C286.496 253.822 286.207 255.265 286.207 256.419C285.918 257.285 285.63 258.728 285.919 259.883C286.207 261.326 288.519 261.614 289.674 261.903Z" fill="#E2CFC5"/>
<path d="M229.292 435.347C231.025 434.482 233.048 434.482 235.07 434.193C238.248 433.616 241.137 431.884 244.026 430.73C245.182 430.441 246.627 430.153 247.782 431.019C248.071 431.307 248.36 431.884 248.649 432.462C248.938 433.905 248.938 435.636 248.36 437.079C248.36 437.368 248.071 437.945 247.782 437.945C247.493 438.233 247.204 438.233 246.915 438.233C240.848 439.676 234.492 440.254 228.425 440.542C227.847 440.542 227.27 440.542 226.981 440.254C226.114 439.676 225.536 438.233 226.114 437.368C226.692 436.502 228.425 435.636 229.292 435.347Z" fill="#E2CFC5"/>
<path d="M244.893 395.811C244.893 393.502 244.605 390.905 246.049 389.173C246.627 388.596 247.205 388.019 247.782 387.73C255.872 381.958 263.961 376.186 271.762 370.703C273.784 369.26 276.096 367.528 278.407 366.374C280.718 365.22 283.318 364.354 285.63 362.622C287.363 361.468 289.385 359.736 291.408 360.602C291.986 360.891 292.275 361.179 292.852 361.468C296.319 364.643 297.475 370.126 296.03 374.743C294.586 379.361 291.119 383.113 287.074 385.71C283.896 387.73 280.14 389.173 276.673 390.328C271.473 392.348 266.273 394.079 260.783 396.099C258.761 396.677 257.028 397.542 255.583 399.274C254.139 401.005 254.139 403.603 254.139 405.623C253.85 410.818 253.272 416.301 252.116 421.496C251.538 424.093 250.96 426.69 250.094 429.288C249.805 430.731 249.227 435.637 247.782 436.214C246.627 436.791 244.027 435.637 243.449 435.06C242.004 433.617 242.871 431.308 243.16 429.576C244.027 424.382 244.604 418.898 244.893 413.704C245.182 407.643 245.182 401.583 244.893 395.811Z" fill="#E2CFC5"/>
<path d="M222.069 299.42C216.002 322.507 207.046 345.018 197.801 367.239C193.178 378.495 188.267 389.75 183.067 400.716C177.866 411.683 172.955 422.938 166.599 433.327C164.288 437.368 158.509 433.905 160.243 429.576C166.021 417.455 172.666 405.911 178.444 393.79C184.222 381.669 189.712 369.548 194.912 357.139C203.868 335.205 211.958 312.695 219.18 290.185C226.403 266.809 232.759 243.144 236.804 218.902C236.804 218.902 269.739 67.3898 262.517 29.584C262.517 29.8726 274.651 99.4238 222.069 299.42Z" fill="#4E4E4E"/>
<path d="M248.938 285.279C234.203 277.199 216.869 284.414 203.29 290.474C185.956 298.266 169.777 308.078 156.198 320.488C155.62 321.065 156.487 321.642 157.065 321.354C169.488 311.83 182.489 303.172 196.645 295.957C203.579 292.494 210.802 289.031 218.313 286.434C225.825 283.836 234.492 282.682 242.293 285.279C259.05 290.763 258.472 309.521 252.405 322.219C246.049 336.072 233.626 347.904 222.647 358.582C209.646 371.281 196.067 383.69 181.333 394.945C179.311 396.388 181.911 399.274 183.933 397.831C198.09 386.865 211.668 375.321 224.38 362.911C236.226 351.368 248.938 339.246 256.161 324.528C262.228 312.407 263.672 293.36 248.938 285.279Z" fill="#4E4E4E"/>
<path d="M107.083 420.053C124.129 415.435 142.042 421.207 157.932 429.288C173.822 437.08 188.845 447.181 206.179 450.933C213.98 452.664 223.803 455.55 231.892 455.262C240.849 454.684 246.049 444.295 243.16 452.087C242.004 455.261 243.738 455.55 239.982 458.725C237.382 461.033 227.848 463.342 224.67 463.053C188.845 459.013 155.331 457.859 119.507 459.013C108.817 459.302 90.0378 464.208 85.4153 450.355C80.5038 435.637 95.2382 423.228 107.083 420.053Z" fill="#547182"/>
<path d="M296.03 286.722C296.608 287.876 297.186 288.742 297.764 289.896C298.63 291.339 298.919 292.782 299.786 293.937C300.653 295.38 301.52 296.534 302.964 297.111C302.097 293.648 301.808 289.897 302.097 286.433C302.097 285.279 302.386 283.836 301.808 282.97C301.52 282.393 300.942 282.104 300.364 281.816C296.608 280.373 294.875 283.836 296.03 286.722Z" fill="#746458"/>
<path d="M304.12 300.863C305.564 302.594 307.587 303.46 309.609 304.326C311.342 304.903 313.076 305.769 314.809 305.48C317.987 304.903 319.721 302.017 321.165 299.131C323.188 295.091 325.499 290.473 325.21 285.856C324.921 281.527 322.899 277.487 319.432 275.178C315.965 272.581 311.342 272.003 307.298 273.158C302.386 274.601 296.897 278.352 298.341 284.124C298.919 286.722 300.075 289.03 300.653 291.628C301.519 294.514 301.808 298.266 304.12 300.863Z" fill="#E2CFC5"/>
<path d="M325.499 274.312C325.499 273.158 324.343 272.292 323.477 271.426C322.032 270.272 320.299 269.118 318.565 268.541C316.543 267.963 314.52 267.675 312.498 267.675C309.898 267.675 307.009 267.675 304.409 268.541C302.097 269.118 300.364 270.561 298.342 271.715C297.475 272.292 296.608 272.869 295.741 273.735C294.875 274.601 294.297 275.755 294.008 277.198C293.719 278.064 293.719 278.93 293.43 279.796C293.141 280.373 292.563 280.95 292.563 281.527C292.563 282.104 292.563 282.682 292.563 283.259C292.274 283.836 291.697 284.125 291.408 283.548C292.274 285.279 294.008 286.433 295.741 287.01C297.475 287.588 299.786 287.299 301.231 286.145C301.808 285.568 302.386 284.99 303.253 284.413C305.275 282.682 307.876 282.393 310.476 282.105C312.209 282.105 313.943 282.104 315.387 281.239C316.832 280.661 318.276 278.93 317.987 277.487V278.93C318.854 278.353 320.01 278.064 321.165 278.064C322.321 277.776 323.477 277.776 324.343 277.198C324.632 276.333 325.499 275.178 325.499 274.312Z" fill="#746458"/>
<path d="M317.41 281.527C317.988 282.105 318.854 282.682 319.143 283.259C319.432 284.125 319.143 285.279 319.721 285.856C320.01 285.856 320.01 285.568 320.01 285.568C320.299 284.99 320.877 285.279 321.454 285.568C321.743 285.856 322.032 286.433 321.743 287.011C321.743 287.588 321.454 288.165 321.454 288.453C321.454 289.031 321.743 289.608 321.743 289.896C322.321 292.205 322.321 294.803 321.743 297.111C323.766 294.803 325.499 289.608 326.366 285.279C326.655 283.259 326.655 280.95 326.655 278.93C326.655 278.064 326.655 276.91 326.077 276.333C325.499 275.755 324.921 275.178 324.055 274.89C322.321 274.024 320.588 273.447 318.854 273.735C317.41 274.024 315.676 275.178 315.098 276.91C314.81 278.353 316.254 280.373 317.41 281.527Z" fill="#746458"/>
<path d="M297.186 322.796C296.608 321.353 296.319 319.91 296.319 318.467C296.608 315.581 299.497 313.561 302.097 312.118C308.164 308.366 314.809 305.192 322.032 304.326C323.187 304.037 324.054 304.037 325.21 304.326C328.677 304.903 330.988 308.078 332.144 311.252C335.033 318.756 335.322 327.125 333.299 334.917C331.277 342.709 327.232 350.212 321.743 356.562C318.854 359.736 315.676 362.91 311.631 364.931C311.053 365.219 310.475 365.508 309.898 365.508C309.32 365.508 308.742 365.219 308.164 364.931C306.431 364.065 298.63 360.602 297.475 359.159C296.319 358.004 297.186 356.562 297.186 355.119C297.763 351.367 300.653 349.058 300.941 344.729C301.23 340.689 301.519 338.091 300.652 334.34C299.497 330.588 297.474 326.548 297.186 322.796Z" fill="#3C444C"/>
<path d="M277.829 332.32C279.274 332.32 280.718 332.32 282.163 332.032C283.607 331.743 285.052 330.877 286.496 330.3C296.608 325.394 305.853 319.334 315.676 314.139C316.832 313.562 317.988 312.984 319.143 312.984C320.01 312.984 320.877 313.562 321.743 313.85C324.055 315.293 325.499 318.179 325.21 320.776C324.921 322.508 324.055 323.951 322.899 325.105C319.432 328.857 314.232 330.589 309.32 332.32C304.698 333.763 300.075 335.495 295.453 336.938C292.852 337.804 290.541 338.669 287.941 338.958C284.763 339.535 281.874 339.824 278.696 339.824C273.496 339.824 269.162 339.247 263.673 338.669C260.783 338.381 257.605 338.092 254.716 337.226C254.139 337.226 254.716 333.475 255.294 332.609C256.45 331.166 259.917 332.032 261.361 332.032C266.851 332.609 272.34 332.609 277.829 332.32Z" fill="#E2CFC5"/>
<path d="M251.538 331.454C250.96 331.454 250.383 331.166 249.805 331.454C249.516 331.454 249.516 331.743 249.227 332.032C248.649 332.609 247.782 332.32 247.205 332.032C246.338 331.743 245.76 331.743 244.893 331.743C244.604 331.743 244.315 331.743 244.027 332.032C243.449 332.32 243.16 332.609 242.871 333.186C242.582 333.763 242.582 334.34 242.582 334.918C242.582 335.783 242.582 336.361 242.871 336.938C242.871 337.226 243.16 337.803 243.449 338.092C243.738 338.381 244.027 338.381 244.315 338.381C247.493 339.535 251.249 338.669 254.427 337.804C255.005 337.515 255.583 337.226 256.161 336.938C256.45 336.649 256.45 336.36 256.739 336.072C257.028 335.495 257.316 334.918 257.316 334.34C257.316 333.475 257.028 332.609 256.161 332.32C254.427 332.032 252.983 331.743 251.538 331.454Z" fill="#E2CFC5"/>
<path d="M233.915 436.791C234.204 437.657 234.204 438.811 234.204 439.677C234.204 439.965 234.204 439.965 234.204 440.254H234.492C235.937 440.543 237.382 440.254 238.826 439.965C239.115 439.965 239.115 439.965 239.404 439.677C239.693 439.388 239.693 439.1 239.693 438.811C239.693 437.368 239.404 435.925 239.115 434.482C239.115 433.905 238.826 433.616 238.248 433.328C237.959 433.039 237.67 433.039 237.093 433.039C235.648 433.039 233.048 433.328 232.181 434.193C233.048 435.059 233.626 435.925 233.915 436.791Z" fill="#4E4E4E"/>
<path d="M242.293 412.838C244.027 408.221 246.049 403.603 248.649 399.563C251.827 394.656 256.45 390.616 261.072 386.576C266.562 381.67 271.762 376.764 277.251 371.858C282.163 367.529 286.785 363.2 291.697 358.582C294.297 356.274 297.186 353.676 300.653 353.099C304.12 352.522 307.876 353.965 310.187 355.985C312.498 358.005 314.232 360.891 315.676 363.488C317.699 367.24 319.432 371.569 317.41 375.321C314.521 380.515 307.009 381.67 300.653 383.401C287.652 387.153 277.829 396.677 265.406 401.294C263.095 402.16 260.783 403.026 259.05 404.469C257.316 405.912 256.161 407.932 255.294 409.663C250.672 418.61 246.049 427.556 241.715 436.214C240.56 438.234 239.693 440.254 237.671 441.986C235.648 443.718 231.315 445.161 230.448 442.275C229.87 440.255 233.337 434.483 234.204 432.462C237.093 426.113 239.693 419.476 242.293 412.838Z" fill="#E2CFC5"/>
<path d="M214.558 444.583C215.425 444.295 216.002 444.295 216.869 444.006C218.025 443.717 219.18 443.429 220.336 442.852C222.936 441.986 225.536 441.12 227.848 439.966C230.159 438.811 232.47 437.368 233.915 435.348C234.204 435.06 234.493 434.482 235.07 434.771C235.359 434.771 235.359 435.06 235.648 435.06C236.226 435.637 236.804 436.503 237.093 437.368C237.959 439.677 238.248 441.697 238.537 444.006C238.537 444.295 238.537 444.872 238.537 445.161C238.537 445.449 237.959 445.738 237.671 446.026C236.226 447.181 234.204 447.469 232.47 447.758C226.692 448.912 220.914 449.778 215.136 450.066C213.691 450.066 210.513 450.067 211.091 448.046C211.38 446.603 212.824 445.16 214.558 444.583Z" fill="#E2CFC5"/>
<path d="M225.825 440.831C226.114 440.831 226.403 440.831 226.692 441.12C226.981 441.408 227.27 441.697 227.559 442.274C228.136 443.428 228.425 444.871 228.714 446.026C229.003 446.891 229.292 448.046 229.292 448.912C226.981 449.777 224.958 450.066 222.647 450.355C222.358 450.355 222.069 450.355 221.78 450.066C221.492 449.777 221.492 449.489 221.492 448.912C221.492 447.757 221.203 446.891 220.625 445.737C220.336 445.16 220.047 444.583 219.758 444.294C219.469 443.717 218.891 443.717 219.18 443.14C220.625 441.408 223.803 440.831 225.825 440.831Z" fill="#4E4E4E"/>
<path d="M291.697 385.132C292.563 385.998 293.719 386.864 294.875 387.153C296.897 387.73 298.919 386.575 300.653 385.421C304.987 383.112 309.32 380.803 313.943 379.36C315.098 378.783 316.543 378.495 317.41 377.34C317.987 376.475 318.565 375.609 318.854 374.455C320.01 370.414 320.877 366.085 321.454 361.756C321.454 361.179 321.454 360.313 321.454 359.736C320.877 358.582 319.432 358.005 318.276 357.716C314.232 356.562 310.187 355.407 306.142 354.253C304.698 353.964 303.542 353.676 302.097 353.964C300.653 354.253 299.497 355.407 298.342 356.273C294.008 360.025 289.963 364.065 285.63 367.817C283.318 369.837 279.274 373.3 281.874 376.475C284.185 379.938 288.519 382.535 291.697 385.132Z" fill="#4E4E4E"/>
<path d="M298.342 353.099C298.053 352.81 297.764 352.522 297.475 352.233C296.608 351.944 295.741 352.522 295.164 353.099C286.207 362.045 273.784 365.22 265.117 374.455C264.828 374.743 264.25 375.321 264.25 375.898C263.961 376.764 266.562 380.804 267.139 381.381C268.006 382.247 269.162 383.401 270.317 384.267C271.473 385.421 272.918 386.287 274.651 386.287C275.807 386.287 276.673 385.421 277.829 384.844C286.207 379.072 293.719 372.435 300.364 364.931C301.809 363.488 304.698 360.025 303.831 357.716C303.542 355.696 299.786 354.83 298.342 353.099Z" fill="#4E4E4E"/>
<path d="M317.987 357.428C318.565 357.717 318.854 358.005 319.143 358.582C319.432 359.16 319.143 359.737 318.565 360.314C317.987 360.602 317.41 360.891 316.832 360.891C311.92 362.045 306.431 361.468 301.52 359.737C299.786 359.159 298.342 358.294 297.186 356.851C296.03 355.408 295.741 353.099 297.475 352.233C299.208 351.656 302.097 352.233 303.831 352.522C308.742 353.388 313.654 354.831 317.987 357.428Z" fill="#4E4E4E"/>
<path d="M267.428 385.421C268.295 386.287 268.873 387.441 269.74 388.595C270.895 390.038 272.051 391.193 273.495 392.636C274.651 393.79 275.518 394.656 276.673 395.81C276.962 396.099 276.962 396.099 277.251 396.387C277.829 396.676 278.118 396.388 278.696 396.099C284.474 393.213 294.008 389.173 299.786 386.287C300.653 385.998 301.231 385.421 301.809 384.844C302.386 384.267 299.208 384.555 298.919 383.689C298.631 382.823 297.764 382.535 297.186 381.958C296.03 381.092 295.164 379.649 294.008 378.495C292.274 376.763 289.674 375.609 287.363 374.454C284.763 373.011 282.163 371.857 279.274 370.991C278.985 370.991 278.696 370.991 278.407 370.991C278.118 370.991 277.829 371.28 277.829 371.568C275.807 373.589 273.495 375.031 271.184 377.052C270.028 377.917 268.873 378.783 268.006 379.938C267.139 380.803 265.695 381.958 265.117 383.112C264.25 383.689 266.562 384.555 267.428 385.421Z" fill="#4E4E4E"/>
<path d="M258.761 323.374C258.761 322.796 258.472 322.219 257.894 322.219C257.605 321.93 257.028 321.353 256.739 321.065C255.583 320.488 254.427 320.776 253.272 320.199C252.694 319.91 252.116 319.91 251.538 320.199C251.249 320.199 250.672 320.488 250.672 321.065C250.094 321.931 249.805 323.085 250.094 324.239C250.672 325.394 252.116 325.682 253.272 325.971C254.139 326.548 255.005 327.125 255.872 327.414C256.739 327.702 257.605 327.702 258.183 326.837C258.472 325.971 258.761 324.816 258.761 323.374Z" fill="#3D3D3D"/>
<path d="M296.319 349.347C296.03 349.636 296.03 349.925 295.741 350.213C295.741 350.79 296.03 351.368 296.608 351.656C297.186 351.945 297.764 351.945 298.341 352.233C302.386 353.099 305.564 355.697 309.32 357.139C312.209 358.294 315.387 358.871 318.276 359.737C319.143 360.025 320.299 360.025 321.165 360.025C322.032 359.737 322.899 359.16 323.188 358.005C323.188 356.851 322.032 355.696 321.165 355.119C315.387 351.945 308.453 351.656 302.386 348.482C301.519 347.904 299.786 346.75 298.919 346.75C297.764 346.75 297.186 348.482 296.319 349.347Z" fill="#3D3D3D"/>
</svg>
