<svg width="340" height="284" viewBox="0 0 340 284" fill="none" xmlns="http://www.w3.org/2000/svg">
<path d="M293.199 10.8851C298.507 16.1722 299.132 24.2583 299.444 31.7224C300.068 43.8516 300.693 55.9807 301.317 68.4209C292.575 65.3109 287.579 56.6028 284.144 47.8947C280.085 37.3205 277.274 25.8133 279.772 14.6172C280.397 12.4401 281.021 9.95202 282.895 8.708C286.33 6.53097 290.701 8.39704 293.199 10.8851Z" fill="#473E28"/>
<path d="M260.725 197.798C261.662 210.55 262.287 223.612 262.287 236.363C262.287 240.717 262.287 245.382 261.35 249.736C261.974 250.98 262.287 252.535 262.287 253.779C262.287 256.578 261.038 259.066 259.164 260.932C257.915 262.176 256.354 263.109 254.481 263.731C254.481 263.731 254.48 263.731 254.168 263.731C252.295 266.219 250.734 269.018 250.421 272.439C255.105 270.573 259.789 268.085 264.472 265.286C266.034 264.353 267.907 263.109 269.156 261.243C271.654 258.133 272.278 253.779 272.591 249.736L281.021 184.736L260.725 197.798Z" fill="#F1E4D7"/>
<path d="M250.734 273.062C250.109 273.373 249.485 273.684 248.86 273.684C248.236 273.684 247.611 273.684 246.987 273.373C244.489 272.44 243.552 269.641 244.177 267.153C244.801 264.665 246.987 263.11 249.172 261.866C251.358 260.933 253.856 260.311 256.354 259.689C257.603 259.378 258.54 259.067 259.477 258.134C260.726 256.89 261.038 254.712 260.726 252.846C260.726 250.358 260.413 247.87 259.789 245.693C264.16 245.382 268.532 245.071 272.903 245.071C272.591 250.358 271.966 255.646 271.654 260.933C271.654 261.866 271.654 262.488 271.03 263.11C270.405 264.354 269.156 264.976 267.907 265.598C261.975 268.086 256.354 270.574 250.734 273.062Z" fill="#6C4D5C"/>
<path d="M280.709 196.244C281.646 208.684 283.207 229.522 283.207 241.962C283.207 246.316 283.207 250.67 282.27 254.713C282.895 255.957 283.207 257.201 283.207 258.756C283.207 261.244 282.27 264.043 280.397 265.598C279.148 266.842 277.587 267.775 276.025 268.086C276.025 268.086 276.026 268.086 275.713 268.086C273.84 270.574 272.279 273.062 271.966 276.484C276.65 274.618 281.021 272.44 285.393 269.641C286.954 268.708 288.828 267.464 290.076 265.909C292.262 262.799 292.887 258.756 293.511 254.713L301.63 192.201L280.709 196.244Z" fill="#F1E4D7"/>
<path d="M272.279 277.417C271.654 277.728 271.03 278.039 270.405 278.039C269.781 278.039 269.156 278.039 268.532 277.728C266.346 276.795 265.097 273.996 266.034 271.819C266.658 269.642 268.532 267.776 270.718 266.843C272.903 265.91 275.401 265.288 277.587 264.666C278.524 264.355 279.773 264.044 280.397 263.422C281.646 262.178 281.646 260 281.646 258.445C281.646 255.957 281.334 253.781 280.709 251.603C285.081 251.292 289.14 250.981 293.511 250.981C293.199 255.958 292.575 260.933 292.262 266.221C292.262 266.843 292.262 267.776 291.638 268.398C291.013 269.642 289.764 270.264 288.515 270.575C283.207 272.752 277.899 274.929 272.279 277.417Z" fill="#6C4D5C"/>
<path d="M255.418 68.4214C256.667 67.7994 258.228 68.4214 259.789 68.7324C264.473 70.2874 269.469 70.9095 274.464 70.5985C277.587 70.5985 281.022 69.9765 283.52 71.5315C286.33 72.7755 287.579 75.2635 288.515 78.0625C290.389 83.3496 290.701 88.6368 291.95 93.9238C293.199 99.2109 295.073 104.187 296.946 109.474C303.503 126.268 310.997 143.062 318.803 159.546C325.048 172.608 331.918 185.67 339.099 198.421C328.171 204.33 315.369 208.062 302.567 208.373C301.005 208.373 299.444 208.374 297.883 208.063C295.385 207.441 293.824 205.574 291.638 204.33C284.769 200.287 275.401 202.464 266.971 204.019C260.414 204.952 253.544 205.263 246.675 205.263C243.552 205.263 240.118 205.264 237.932 203.397C235.122 200.909 236.371 196.866 237.307 193.445C242.303 177.273 240.742 159.857 240.742 143.063C240.742 119.115 244.489 94.8567 252.607 71.8424C253.544 70.2874 254.169 69.0434 255.418 68.4214Z" fill="#3C444C"/>
<path d="M261.038 10.8849C256.979 9.32991 252.919 7.77492 248.86 6.84191C247.611 6.5309 246.362 6.21979 245.113 6.53079C242.928 7.1528 241.991 9.95199 241.366 12.129C238.868 24.5692 241.366 37.3204 244.177 49.4496C244.801 51.9376 245.426 54.4256 246.675 56.6026C250.421 62.8227 258.228 64.3778 265.409 64.9998C267.283 64.9998 269.156 65.3107 270.717 64.6887C273.528 63.7557 275.401 61.2677 276.65 58.7797C280.085 52.5596 281.334 45.0955 281.646 37.9424C281.958 28.9232 280.397 18.9711 273.84 13.062C269.156 9.01894 263.223 7.46396 257.291 5.90893C253.856 4.97592 249.485 4.35387 246.675 6.84191L261.038 10.8849Z" fill="#F1E4D7"/>
<path d="M274.464 3.10969C266.346 0.310646 256.979 -0.000434577 248.86 3.42062C240.742 6.84167 234.185 13.9948 233.248 22.7029C233.248 23.636 233.248 24.88 233.872 25.5021C234.497 26.1241 235.746 26.435 236.683 26.435C244.177 27.057 251.67 27.368 258.852 27.9901C259.164 23.636 261.35 19.282 264.785 16.794C267.907 30.1672 271.654 43.8513 279.46 55.0475C285.393 48.2054 290.389 40.1192 291.638 31.1001C292.887 22.081 289.452 12.1288 281.958 7.15271C279.46 4.97568 276.962 4.0427 274.464 3.10969Z" fill="#473E28"/>
<path d="M284.144 11.8181C286.017 12.1291 287.891 12.7513 289.14 13.6843C290.701 14.6173 291.638 16.7943 291.013 18.3493C290.389 20.8374 286.954 21.4592 284.768 20.5262C282.583 19.5932 281.021 17.1052 280.085 14.9282C278.836 12.1291 277.899 9.01913 278.523 6.22009C279.148 3.11005 281.334 0.311005 284.456 0C284.144 2.79904 283.519 5.59812 281.958 8.39716C283.832 7.15314 285.705 5.90916 287.891 5.90916C290.077 5.90916 292.262 7.77515 291.95 9.95218C289.764 11.5072 286.954 12.1291 284.144 11.8181Z" fill="#F2D292"/>
<path d="M270.405 102.63C270.093 98.2762 265.722 93.9222 261.35 95.4772C258.228 96.4102 256.667 100.142 255.418 103.252C248.548 118.803 235.746 131.554 220.446 138.396C217.324 137.463 214.201 136.53 211.079 135.597C210.767 137.774 211.703 139.64 212.952 141.195C211.703 141.506 210.142 142.128 208.893 142.439C207.644 142.75 206.395 143.061 205.771 144.305C205.146 145.549 206.083 147.415 207.332 148.037C208.581 148.659 210.142 148.659 211.703 148.348C233.248 145.238 252.92 132.798 265.722 115.07C268.532 111.338 271.03 107.295 270.405 102.63Z" fill="#F1E4D7"/>
<path d="M189.221 134.042C189.846 135.908 191.095 137.774 192.656 139.018C194.842 141.195 197.652 143.061 201.087 143.683C204.834 144.305 208.581 142.75 211.391 140.573C214.201 138.085 216.075 134.975 217.011 131.243C218.26 126.889 218.26 121.291 214.826 118.492C213.264 117.248 211.391 116.315 209.83 116.004C205.146 114.449 199.526 114.138 195.779 116.937C193.281 118.803 191.719 122.224 190.783 125.023C189.221 127.822 188.285 130.932 189.221 134.042Z" fill="#03A678"/>
<path d="M204.834 117.87C203.585 123.468 196.403 125.956 191.407 126.578C190.47 126.578 190.47 127.822 191.407 127.822C197.652 128.133 204.834 124.711 207.332 118.491C207.956 116.936 205.146 116.315 204.834 117.87Z" fill="#F4F4F4"/>
<path d="M212.64 131.243C206.395 130.932 201.087 134.042 198.901 139.951C198.589 140.573 199.838 140.884 200.15 140.262C202.336 135.597 207.644 132.798 212.64 134.042C214.201 134.664 214.826 131.243 212.64 131.243Z" fill="#F4F4F4"/>
<path d="M125.523 253.157C125.523 256.578 125.835 260.31 128.333 262.798C128.958 263.42 134.578 265.908 133.017 267.152C132.392 267.463 131.768 267.463 131.144 267.463C128.646 267.463 126.148 267.463 123.65 267.463C122.401 267.463 121.152 267.463 120.215 266.53C119.59 265.908 119.278 265.286 118.966 264.353C117.405 259.066 117.405 252.846 117.093 247.559C116.468 241.339 115.843 235.119 115.219 228.588C114.907 224.234 114.282 220.191 114.282 215.837C114.282 212.105 114.282 208.061 115.843 204.64C117.092 201.841 122.088 196.243 124.899 200.597C125.835 202.152 124.899 206.506 124.899 208.372C124.899 211.482 124.899 214.593 124.899 217.392C125.211 229.521 125.211 241.339 125.523 253.157Z" fill="#DEDEDD"/>
<path d="M88.9909 247.559C87.7419 249.425 86.4929 251.602 85.8684 253.779C85.2439 255.956 86.1807 258.755 88.0542 259.999C89.6154 260.932 91.4887 260.621 93.3622 260.31C95.2357 259.999 97.1092 259.688 98.6704 260.621C100.232 261.554 100.856 264.042 99.6071 264.975C98.9826 265.286 98.3582 265.597 97.7337 265.597C88.9908 266.841 79.9358 267.774 70.8807 268.085C69.0072 268.085 66.8215 268.085 65.5725 266.841C64.6358 265.908 64.3234 264.664 64.3234 263.42C63.0744 254.401 67.1337 245.382 73.3786 238.54C76.5011 235.43 79.9357 232.631 83.6827 230.143C86.1806 228.588 91.1766 224.234 94.2991 225.167C100.544 226.411 91.1766 244.449 88.9909 247.559Z" fill="#DEDEDD"/>
<path d="M133.642 119.114C124.899 117.248 116.468 114.138 108.35 111.028C107.725 112.272 107.101 113.516 106.476 115.071C99.9191 130.622 92.113 155.502 68.6946 170.119C60.264 175.406 55.268 184.114 51.2088 192.822C46.8374 202.153 43.7149 212.105 40.9047 221.746C40.2802 224.234 39.3435 227.033 38.4068 229.521C37.4701 232.009 36.2211 234.186 35.2844 236.363C32.1619 243.516 31.2252 251.602 33.411 259.066C35.2844 265.598 41.8416 274.928 49.0232 275.55C53.3947 275.861 57.4538 276.172 61.8252 276.483C68.3824 276.794 74.6273 277.105 81.1845 276.794C83.6824 276.794 91.1763 277.105 92.7376 274.617L93.0497 274.306C93.9865 269.019 77.1253 268.086 77.1253 268.086C84.3069 261.244 77.1253 245.693 77.1253 245.693C86.4927 241.028 100.856 218.636 100.856 218.636C100.856 218.636 108.662 266.842 108.037 274.306C107.101 281.459 115.844 283.947 115.844 283.947C138.638 284.569 124.586 279.593 121.464 275.861C118.342 272.129 121.464 209.306 121.464 209.306C121.464 209.306 121.776 208.684 122.089 208.684C125.835 203.708 127.397 197.177 128.958 191.267C130.831 182.87 131.768 174.473 132.705 166.076C133.329 157.368 133.954 148.66 133.954 139.952C133.954 136.22 133.954 132.488 133.954 128.756C133.954 125.335 133.329 121.913 133.642 119.114Z" fill="#E6E6E6"/>
<path d="M99.9198 157.057C100.857 156.124 101.481 155.191 101.793 153.947C102.105 152.392 102.106 150.837 102.106 149.593C101.793 147.416 101.481 144.928 101.481 142.751C101.481 142.129 101.481 141.507 101.169 140.885C100.544 139.952 99.6075 139.641 98.3585 139.33C98.0463 139.33 98.0463 139.33 97.734 139.33C97.4218 139.33 97.1095 139.641 97.1095 139.952C94.6115 145.239 91.4891 150.526 87.7421 155.502C85.8687 157.99 83.9953 160.478 81.1851 161.722C81.1851 161.722 84.3075 163.277 84.932 163.277C86.4933 163.588 88.6788 163.278 90.2401 162.967C93.987 161.723 97.4218 159.856 99.9198 157.057Z" fill="#5A5A5A"/>
<path d="M87.7416 204.33C89.3029 203.708 91.1763 203.086 92.4253 201.842C95.2355 199.043 95.2356 194.688 95.2356 190.645C95.2356 189.401 95.2356 188.157 94.6111 187.224C93.9866 185.98 92.7376 185.358 91.4886 185.047C88.9907 183.803 86.4926 183.181 83.9947 182.559C81.8089 182.248 79.6232 181.937 77.7498 182.559C74.9395 183.492 73.0662 186.291 72.4417 189.401C71.8172 192.2 71.8171 195.31 72.1294 198.42C72.4416 201.842 71.505 207.129 75.5642 208.062C78.0621 208.373 84.9314 205.574 87.7416 204.33Z" fill="#5A5A5A"/>
<path d="M121.151 178.517C121.151 176.34 118.341 175.096 116.468 175.718C114.594 176.34 113.658 178.828 114.282 181.005C114.907 182.871 117.092 184.426 118.966 184.426C119.278 184.426 119.59 184.426 119.902 184.115C120.215 183.804 120.215 183.804 120.215 183.493C120.527 181.938 120.527 180.383 120.527 178.828L121.151 178.517Z" fill="#5A5A5A"/>
<path d="M59.6398 229.21C61.5132 233.253 61.2011 238.229 59.9521 242.584C59.0154 246.316 57.454 250.048 54.9561 252.847C51.5214 256.268 46.8377 258.134 42.4663 259.689C41.8418 260 41.2174 260 40.5929 259.689C39.9684 259.378 39.6562 258.756 39.6562 258.134C38.7194 254.713 39.9683 250.67 41.5296 247.559C43.0908 244.138 44.9643 240.717 45.2766 237.296C45.5888 233.253 44.3397 226.411 48.7112 223.923C52.7704 220.813 58.0785 225.478 59.6398 229.21Z" fill="#5A5A5A"/>
<path d="M44.0274 213.66C43.7152 210.55 47.1498 208.684 48.0866 205.885C48.3988 204.641 48.3988 203.086 49.6478 202.464C50.8968 201.531 53.0825 202.464 53.3948 203.708C54.0193 205.263 53.0825 206.818 51.8336 207.751C50.8968 208.373 49.9602 208.684 49.0235 209.617C47.7745 210.861 47.4621 212.416 46.5253 213.971C46.2131 214.593 45.5887 215.526 44.6519 215.526C43.7152 215.526 43.0908 214.593 43.7153 213.971L44.0274 213.66Z" fill="#5A5A5A"/>
<path d="M137.701 97.6553C131.456 97.6553 124.899 98.8992 118.966 101.076C113.97 102.942 108.662 106.052 108.038 111.339C114.283 117.248 120.84 123.157 127.085 129.378C127.709 129.689 128.021 130.311 128.646 130.311C129.583 130.622 130.519 130 131.144 129.689C137.076 126.579 144.258 127.512 150.815 126.268C155.187 125.646 159.558 123.78 162.681 120.67C165.803 117.559 167.989 112.894 167.364 108.54C162.681 104.808 155.499 108.851 150.191 106.052C146.756 104.186 145.195 99.8322 141.76 98.2771C140.823 97.6551 139.262 97.6553 137.701 97.6553Z" fill="#E6E6E6"/>
<path d="M113.346 115.071C113.346 114.76 113.346 114.449 113.658 114.138C113.971 113.827 114.283 113.827 114.595 113.827C120.528 113.827 126.773 113.827 132.706 113.827C133.33 113.827 133.642 114.449 133.642 114.76C133.018 118.181 133.018 121.602 133.018 124.712C132.705 128.444 132.081 132.488 129.583 134.976C127.085 137.775 122.401 138.708 119.591 136.22C118.342 130.932 117.093 125.645 115.22 120.669C114.283 119.425 113.034 117.248 113.346 115.071Z" fill="#434343"/>
<path d="M3.74769 231.076C1.24973 227.033 -1.24831 221.746 0.937407 217.392C2.81088 216.459 4.99652 218.325 5.93326 220.191C12.4904 230.454 16.8618 242.894 26.2292 250.669C29.9761 253.779 34.0354 255.956 38.4068 257.822C39.9681 258.444 41.5293 259.066 42.466 260.31C43.4027 261.554 43.4028 263.731 42.1538 264.664C41.5293 264.975 40.5926 265.286 39.9681 265.286C32.7864 265.286 25.2926 262.487 20.2967 257.2C17.4864 254.401 15.6129 250.98 13.4272 247.559C10.3048 241.961 7.18239 236.674 3.74769 231.076Z" fill="#E6E6E6"/>
</svg>
