<?xml version="1.0" encoding="utf-8"?>
<!-- Generator: Adobe Illustrator 23.0.2, SVG Export Plug-In . SVG Version: 6.00 Build 0)  -->
<svg version="1.1" id="Layer_1" xmlns="http://www.w3.org/2000/svg" xmlns:xlink="http://www.w3.org/1999/xlink" x="0px" y="0px"
	 viewBox="0 0 1896.2 823.8" style="enable-background:new 0 0 1896.2 823.8;" xml:space="preserve">
<style type="text/css">
	.st0{fill:#515A63;}
	.st1{fill:#544C46;}
	.st2{fill:#A69672;}
	.st3{fill:#9A9C9F;}
	.st4{fill:#2E4661;}
	.st5{fill:#464148;}
	.st6{fill:#FFFFFF;}
	.st7{fill:#A19465;}
	.st8{fill:#EACDB0;}
	.st9{fill:#EBCEB1;}
	.st10{fill:#273140;}
	.st11{fill:#484F5B;}
	.st12{fill:#677B91;}
	.st13{fill:#E7CAAD;}
	.st14{fill:#3A3029;}
	.st15{fill:#F2D292;}
	.st16{fill:#E6C990;}
	.st17{fill:#D6BBA0;}
	.st18{fill:#535965;}
	.st19{fill:#5E6474;}
	.st20{fill:#78613B;}
	.st21{fill:#A9B4B9;}
	.st22{fill:#474143;}
	.st23{fill:#E6CA90;}
</style>
<g>
	<path class="st0" d="M1114.9,695.7l1.8,12.8l-3.7,72.2l-6.3-1.3l-10.4-82.1L1114.9,695.7z"/>
	<path class="st0" d="M1084.2,693.3l-1.2,47.9l12.1,41.3l7.1-2.6l-5.9-36.8l5.4-50.1L1084.2,693.3z"/>
	<path class="st0" d="M1102.2,776l-8.5,3.9l2.8,5.9l-4.4,2.8c0,0-0.4,2.5,1.1,3.5c1.5,1,11.2-7.1,11.2-7.1L1102.2,776z"/>
	<path class="st0" d="M1114.9,777.4l-9.2,1.6l1.2,6.5l-5,1.6c0,0-1,2.3,0.1,3.7c1.2,1.4,12.6-3.9,12.6-3.9L1114.9,777.4z"/>
	<path class="st1" d="M1097,615.2c0.6,2.1,1.6,4.2,2.8,6.1c0-3.9,0.6-7.8,1.7-11.6c0.1-0.3,0.2-0.6,0-0.9c-0.1-0.2-0.4-0.3-0.7-0.4
		C1096,607.2,1095.9,611.5,1097,615.2z"/>
	<path class="st2" d="M1099.7,621.3c0.5,1.6,1.3,3.4,3,4.4c2,1.2,4,0.6,5.5-0.3c4.8-2.9,13.2-19.1,0.6-23.1
		C1097.4,598.7,1097.6,614.7,1099.7,621.3z"/>
	<path class="st1" d="M1109.6,621.4c0.8,1.1,2.5,0.8,3.7,0.3c5-2.4,8.1-8.3,7.1-13.7c-0.8-4.6-6.5-8.1-7.7-2.5c-0.4,2,0.7,4.8,0.4,7
		C1112.6,615.6,1111,618.6,1109.6,621.4z"/>
	<path class="st1" d="M1097.3,596.5c-5.7,3.2-8.3,10.2-13.6,14.1c4.7,2.2,10.3,2.3,15.1,0.4c4.7-1.9,15.9-3,14.5-9.6
		C1111.9,594.8,1102.4,593.8,1097.3,596.5z"/>
	<path class="st3" d="M1119.6,637.9c3.3,5.7,3.3,12.2,2.8,18.4c-1,14,0.3,30.3-4.5,43.7c-9.1,0-26.6-4.2-35.7-5.1
		c-1.8-12.2-0.7-19.3,0.2-33.1c0.5-6.8,1.6-15.9,4-22.4c2-5.3,7.2-12.2,15.1-12C1109,627.5,1116.6,632.6,1119.6,637.9z"/>
	<path class="st2" d="M1104.8,630.1c-0.8,0.4-1.8,0.2-2.8-0.8c-0.8-0.8-0.6-1.1-0.4-2.3c0.3-1.8,0.7-3.6,1.1-5.3l4.9,1
		c0,0-1,4.8-1,5.1C1106.2,628.9,1105.6,629.8,1104.8,630.1z"/>
	<path class="st2" d="M1055.7,642.8l-3.8-3.8l-6,0.1l-0.7,3.1l9.1,3.9L1055.7,642.8z"/>
	<path class="st3" d="M1100.7,631.4l-4.4-4l-23.5,18.7l-16.9-5.9l-5.4,6.9l22.6,13.3l23.9-15.3L1100.7,631.4z"/>
	<path class="st4" d="M804.5,780.4l6.3,3.4l-0.6,3l-11.1-1.5l0.6-4.3L804.5,780.4z"/>
	<path class="st4" d="M776.2,783.6l-4.4,0l-1,3.7h0.1h0l7.3,4.2l3.4,0.4l0.4-3.9l-1-0.6L776.2,783.6z"/>
	<path class="st5" d="M789.7,714.1c0.7-0.1,2.6,25,2.6,25l-13.5,45.5l-7.8-1.5l4.8-45.5c0,0-16.5-19.1-11.8-33.3
		C771.1,707.8,789.7,714.1,789.7,714.1z"/>
	<path class="st5" d="M809.1,714.3l1.6,22.4l-4.3,44.5l-8.1-0.4c0,0-1.9-42.1-2.7-43c-0.8-0.8-7.7-23-7.7-23L809.1,714.3z"/>
	<path class="st0" d="M798.6,724.5c-25.5-0.5-27.4-13.4-33-14.8c-5.6-1.4-2.7-8.1-2.7-8.1s1.1-3,1.5-4.5
		c3.3-11.2,13.1-25.7,13.1-25.7c4.8-6.6,9.7-12.5,13.9-16c12.5-10.5,25.9-11,25.9-11c19.3,6.1,12.5,15.1,12.7,17.5
		c-6.3,5.8-10.9,14.6-14.3,23.9c-1.6,5-3.5,13.5-2.2,24c0.4,3.3,0.9,6.2,1.4,8.7C815.1,721.8,811.9,724.7,798.6,724.5z"/>
	<path class="st6" d="M817.4,646.4c0,0,4.3-2.4,7,1.7c3.2,5-15,27.4-14.6,75.4c-4.8,1-17.1,3.3-29.8-2.7
		C782.9,706.6,795.3,663.6,817.4,646.4z"/>
	<path class="st7" d="M826.9,631.2c2.2,1.7,4,5.3,3.3,8.1c-0.4,1.4-1.3,2.3-1.7,3.7c-0.6,2.9-5.7,5.1-3.6,8.4
		c1.1,1.7,3.2,2.4,5.1,3.1c0.2,0.1,0.5,0.2,0.7,0.1c0.4-0.1,0.7-0.5,0.8-0.9c0.1-0.4,0-0.8,0-1.2c-0.4-4.3,2.4-8.5,3.5-12.5
		c1-4,1-8.6-1.8-11.9c-2.4,0.2-3.3-0.2-4.8,1.6L826.9,631.2z"/>
	<path class="st8" d="M821.8,648.2c2.8,0.2,5.6-1.3,7.3-3.5c1.8-2.2,2.7-4.9,3.3-7.7c2-9.2-9.3-12.2-15.3-6.5
		C812.1,635.4,813.6,647.6,821.8,648.2z"/>
	<path class="st7" d="M807.8,646.5c1.5-0.1,3-0.3,4.3-1.2c2.2-1.6,3.4-5.1,4.8-7.3c1.4-2.4,3-4.9,5.6-5.8c1.7-0.6,3.2-0.2,4.8,0.4
		c1.1,0.4,1,0.8,2.1,0.7c0.9-0.2,2-1.2,2.5-1.9c0.8-1.2,0.9-2.8,0.4-4.2c-0.7-2.1-1.9-3.6-3.9-4.5c-7-3.1-14-1.2-18.9,4.9
		c-2.3,2.9-3.2,6.9-5.5,9.6c-1.4,1.7-3.2,2.5-4.6,4.4c-3.6,4.9-9.5,10.6-11.6,16.3c-0.1,0.2-0.2,0.4,0,0.6c0.2,0.4,0.8,0.3,1.2,0.1
		c2.4-1.2,4.8-2.4,7.2-3.6c0.9-0.5,1.9-1,2.7-1.6c1.9-1.8,2.6-4.8,4.9-6C805,646.7,806.4,646.6,807.8,646.5z"/>
	<path class="st0" d="M798,658.6l-19.2-4.5l-5.2-25.6l6.4,0.6l4.9,16.7l25,0.7l1.4,1.9L798,658.6z"/>
	<path class="st9" d="M781.8,626.5l-0.6-6.7l-4.8-3.7l-0.3,2l1.7,1.7c0,0,0.4,2,1.6,2.9c-0.1,1.1-1,3.5-1,3.5L781.8,626.5z"/>
	<path class="st10" d="M894.9,778.2l5.5,3.5l1.9,2.8c0,0-2,1-3.1,1.2c-1.1,0.3-9.9-0.6-9.9-0.6l-0.2-5.1L894.9,778.2z"/>
	<path class="st10" d="M867.3,782.1l2.7,3c0,0,2.2,4.1,1.1,4.1c-1.1-0.1-7.2,0.3-7.6-0.4c-0.4-0.7-3.6-3.1-4-3.6
		c-0.4-0.5,0-4.4,0-4.4L867.3,782.1z"/>
	<path class="st11" d="M882.9,700.7l-6.9,41.7l-8.7,39.7l-7.8-0.4l1.5-41.9c0,0-5.6-38.6-5.6-50L882.9,700.7z"/>
	<path class="st11" d="M900.1,702.7l-3.2,77l-8,0.4l-4.2-39.1l-6.2-34.5L895,685L900.1,702.7z"/>
	<path class="st12" d="M895.9,662.2c-4.2-20.5,1.1-30.3-8.1-36c0,0-15-4.1-24.5,2.7c-0.1,0.1-0.3,0.2-0.4,0.3l-3.5,7.2l-2.6,32.4
		c0,0-7.4,42.5-3.4,42.9c4.4,0.4,24.8-9.1,28.6-8.9c3.8,0.2,15.7,2.3,26.8-1.4C918.3,698,900.1,682.6,895.9,662.2z"/>
	<path class="st6" d="M877.3,625.5l-2.9,0.1l-0.3,2.9l10.7,30l2.4-13l-2.6-18.9L877.3,625.5z"/>
	<path class="st6" d="M886,670l-4.1,32.7l8.7,1.2l6.1-0.4l-7.6-28.3L886,670z"/>
	<path class="st13" d="M881.2,626.8c-2,0.1-4,0.2-6,0.2c-0.2-1.6-0.4-3.2-0.4-4.8c-1.7-0.4-3.7-1-4.3-2.6c-0.2-0.5-0.2-1.1-0.1-1.6
		c0.1-2.3-0.6-4.6,0.2-6.9c0.2-0.8,0-1.6,0.4-2.3c0.6-1.3,1.9-2,3.2-2.4c3.4-1.1,7.3-0.9,10.3,1c0.8,0.5,1.6,1.1,2,2
		c0.7,1.3,0.5,2.8,0.4,4.3c-0.2,1.3-0.3,2.7-0.5,4c-0.2,1.5-0.5,3.3-1.8,4.1c-0.7,0.4-1.6,0.4-2.2,1
		C881.2,623.6,881.6,625.4,881.2,626.8z"/>
	<path class="st14" d="M889.8,597c-0.4,0-0.9-0.1-1.4-0.2c-1.5-0.5-2.6-1.7-4.2-2.1c-3.2-0.9-7.1-0.4-10,1.1
		c-2.8,1.5-6.7,2.3-9.2,4.1c-1,0.8-1.8,1.9-2.3,3c-1.9,4.1-1.2,9.2,1.7,12.6c0.6,0.8,1.4,1.4,2.2,2.1c1.6,1.3,3.5,3,5.5,3.3
		c-0.2-1.7-2.5-6.9-1.4-8.5c1.5-2.1,4.7-2.3,7.1-2.3c2.8,0,5-1,7.8-1.2c1.4,0,3,0.1,4-0.9c1.2-1.2,3.5-4.7,4-6.2
		c0.4-1.3,0-2.9-1.1-3.8C891.6,597.1,890.7,597.1,889.8,597z"/>
	<path class="st12" d="M908.6,642.1l-18.2-16.5l-4.4,3.7l15,25.1l6.8,0.6c0,0,2-7,2.4-7.7L908.6,642.1z"/>
	<path class="st15" d="M865.4,701.9c-3.5-3.1-7.6-4.6-12.2-4.4c-4.6,0.2-8.5,2.1-11.7,5.6c-3.1,3.5-4.6,7.6-4.4,12.2
		c0.2,4.6,2.1,8.5,5.6,11.7c1.4,1.2,2.8,2.2,4.4,2.9c2.4,1.1,5,1.6,7.7,1.4c4.6-0.2,8.5-2.1,11.7-5.6c3.1-3.5,4.6-7.6,4.4-12.2
		C870.8,709,868.9,705.1,865.4,701.9z"/>
	<path class="st16" d="M871,713.6c-0.2-4.6-2.1-8.5-5.6-11.7c-1.1-1-2.3-1.8-3.6-2.5c1.9,2.6,3,5.6,3.1,8.9
		c0.2,4.6-1.2,8.7-4.4,12.2c-3.1,3.5-7.1,5.4-11.7,5.6c-2.8,0.2-5.4-0.3-7.7-1.4c-0.3-0.1-0.6-0.3-0.9-0.4c0.7,1,1.5,1.9,2.5,2.7
		c1.4,1.2,2.8,2.2,4.4,2.9c2.4,1.1,5,1.6,7.7,1.4c4.6-0.2,8.5-2.1,11.7-5.6C869.8,722.3,871.3,718.2,871,713.6z"/>
	<path class="st15" d="M996.6,640.8c-1.3-14-8.3-26.8-20.9-38.2c-12.6-11.4-26.1-17.1-40.3-17c-12.3,0-23.4,4.6-32.9,13.6
		c-1.6,1.5-2.5,3.7-2.5,5.9c0,2.2,1,4.3,2.6,5.8l7.5,6.7c3,2.7,7.5,2.7,10.5,0c5.3-4.7,10.9-7.1,17-7.1c7.4,0,14.8,3.2,22,9.7
		c7.2,6.5,11.1,13.6,11.6,21.1c0.5,7.5-2.5,14.8-8.9,21.9c-8.8,9.7-17.4,13.8-25.8,12c-8.8-1.8-19.4-8.4-31.4-19.5l-3.2-2.9
		c-3.2-2.9-8.2-2.6-11.1,0.6l-25.4,28.2c-1.4,1.6-2.1,3.6-2,5.7c0.1,2.1,1,4.1,2.6,5.5l7.6,6.9c0.6,0.6,1.3,1,2,1.3
		c3,1.4,6.8,0.7,9.1-1.9l16.5-18.3c0.2-0.2,0.6-0.2,0.8,0c14.5,12.4,28.2,19.1,40.7,19.8c13.3,0.8,26.1-5.5,38-18.7
		C992.6,668.6,997.9,654.9,996.6,640.8z"/>
	<path class="st16" d="M996.6,640.8c-1.3-14-8.3-26.8-20.9-38.2c-7.8-7-15.9-11.9-24.4-14.6c4,2.4,7.9,5.3,11.7,8.7
		c12.6,11.4,19.6,24.2,20.9,38.2c1.3,14-4.1,27.8-15.9,41c-11.9,13.2-24.6,19.5-38,18.7c-3.8-0.2-7.8-1-11.9-2.4
		c8.6,5,16.8,7.7,24.6,8.2c13.3,0.8,26.1-5.5,38-18.7C992.6,668.6,997.9,654.9,996.6,640.8z"/>
	<path class="st12" d="M866.5,627l-8.6,2.6l-20.6,35.2l1.4,6.8l26.7,13.4l3.7-7.3l-16.8-12.9l10.3-14l4-22.5L866.5,627z"/>
	<path class="st17" d="M890,625.9l-4.4-4.7l-4.2,1.2l-1.2,4.2l3.8,0.7l3.5,0.7L890,625.9z"/>
	<path class="st13" d="M868.7,678.4l4.2,0.8l-0.7,2.5l3.6,4.3l-5,1.8l-4.9-4.1L868.7,678.4z"/>
	<path class="st15" d="M780.6,650.2c-2.6,0.8-4.5,2.4-5.8,4.7c-1.2,2.4-1.5,4.9-0.7,7.5c0.8,2.6,2.4,4.5,4.7,5.8
		c2.4,1.2,4.8,1.5,7.5,0.7c1-0.3,2-0.8,2.8-1.3c1.2-0.8,2.2-2,3-3.4c1.2-2.4,1.5-4.9,0.7-7.5c-0.8-2.6-2.4-4.5-4.7-5.8
		C785.7,649.6,783.2,649.4,780.6,650.2z"/>
	<path class="st16" d="M788.1,650.9c-2.4-1.2-4.8-1.5-7.5-0.7c-0.8,0.2-1.6,0.6-2.3,1c1.8-0.2,3.6,0.2,5.4,1.1
		c2.4,1.2,3.9,3.2,4.7,5.8c0.8,2.6,0.6,5.1-0.7,7.5c-0.8,1.4-1.8,2.6-3,3.4c-0.2,0.1-0.3,0.2-0.5,0.3c0.7-0.1,1.4-0.2,2.1-0.4
		c1-0.3,2-0.8,2.8-1.3c1.2-0.8,2.2-2,3-3.4c1.2-2.4,1.5-4.9,0.7-7.5C792,654.1,790.4,652.1,788.1,650.9z"/>
	<path class="st15" d="M789.5,566.9c-7.3-3.5-15.7-3.9-25.1-1c-9.3,2.8-16.2,7.9-20.4,14.9c-3.6,6.1-4.7,13-3.1,20.3
		c0.3,1.2,1,2.3,2.2,3c1.1,0.6,2.4,0.8,3.6,0.4l5.6-1.7c2.2-0.7,3.6-2.9,3.2-5.2c-0.8-4.1-0.2-7.5,1.6-10.6c2.2-3.7,6-6.4,11.4-8
		c5.3-1.6,10-1.4,13.9,0.5c3.8,2,6.6,5.7,8.2,10.9c2.2,7.2,1.6,12.7-1.8,16.4c-3.5,3.8-9.9,7.1-19,9.8l-2.4,0.7
		c-2.4,0.7-3.8,3.3-3,5.7l6.4,21c0.4,1.2,1.1,2.1,2.2,2.7s2.3,0.7,3.5,0.3l5.7-1.7c0.4-0.1,0.9-0.4,1.2-0.6c1.6-1.1,2.4-3.1,1.8-5.1
		l-4.1-13.6c0-0.2,0-0.4,0.2-0.4c10.4-3.5,17.8-8.3,21.9-14.3c4.4-6.4,5-14.6,2.1-24.4C802,577.3,796.8,570.5,789.5,566.9z"/>
	<path class="st16" d="M789.5,566.9c-7.3-3.5-15.7-3.9-25.1-1c-5.8,1.8-10.6,4.4-14.5,7.7c2.4-1.2,5-2.3,7.8-3.2
		c9.3-2.8,17.8-2.5,25.1,1c7.3,3.6,12.5,10.3,15.5,20.1c3,9.8,2.3,18-2.1,24.4c-1.2,1.8-2.8,3.6-4.7,5.2c5-2.8,8.8-6,11.3-9.8
		c4.4-6.4,5-14.6,2.1-24.4C802,577.3,796.8,570.5,789.5,566.9z"/>
	<path class="st15" d="M1037.4,660.2c-3.3-0.5-6.3,0.3-8.9,2.2c-2.6,2-4.2,4.6-4.6,7.9c-0.5,3.3,0.3,6.3,2.2,8.9
		c2,2.6,4.6,4.2,7.9,4.6c1.3,0.2,2.6,0.2,3.8,0c1.8-0.3,3.5-1,5.1-2.2c2.6-2,4.2-4.6,4.6-7.9c0.5-3.3-0.3-6.3-2.2-8.9
		C1043.3,662.2,1040.6,660.7,1037.4,660.2z"/>
	<path class="st16" d="M1045.3,664.8c-2-2.6-4.6-4.2-7.9-4.6c-1-0.2-2.1-0.2-3.1-0.1c2.1,0.8,3.9,2.1,5.4,4c2,2.6,2.7,5.6,2.2,8.9
		c-0.5,3.3-2,5.9-4.6,7.9c-1.6,1.2-3.3,1.9-5.1,2.2c-0.2,0-0.4,0.1-0.7,0.1c0.8,0.3,1.6,0.5,2.5,0.6c1.3,0.2,2.6,0.2,3.8,0
		c1.8-0.3,3.5-1,5.1-2.2c2.6-2,4.2-4.6,4.6-7.9C1048,670.4,1047.2,667.5,1045.3,664.8z"/>
	<path class="st15" d="M1090.2,572.4c-6.3-7.7-15.5-12.5-27.3-14.1c-11.9-1.7-22,0.3-30.3,5.9c-7.2,4.9-11.9,12-13.9,21
		c-0.4,1.5,0,3.1,0.8,4.4c0.9,1.3,2.3,2.2,3.8,2.4l7.1,1c2.8,0.4,5.5-1.4,6.2-4.1c1.3-4.9,3.6-8.5,7.2-10.9c4.3-3,10-4,16.8-3
		c6.8,1,11.9,3.6,15.1,7.8c3.2,4.2,4.4,9.7,3.4,16.3c-1.3,9.2-4.8,15-10.4,17.3c-5.9,2.4-14.7,2.7-26.1,1l-3-0.4
		c-3-0.4-5.9,1.7-6.3,4.7l-3.8,26.6c-0.2,1.5,0.2,3,1.1,4.1c0.9,1.2,2.2,2,3.7,2.2l7.2,1c0.6,0.1,1.2,0.1,1.7,0
		c2.3-0.4,4.3-2.2,4.6-4.7l2.4-17.3c0-0.2,0.2-0.4,0.4-0.4c13.4,1.5,24,0,31.7-4.5c8.1-4.8,13.1-13.6,14.9-26
		S1096.5,580.1,1090.2,572.4z"/>
	<path class="st16" d="M1090.2,572.4c-6.3-7.7-15.5-12.5-27.3-14.1c-7.3-1-14-0.7-20,1.1c3.3-0.2,6.7,0,10.3,0.5
		c11.9,1.7,21,6.5,27.3,14.1c6.3,7.7,8.6,17.9,6.9,30.3c-1.8,12.4-6.8,21.2-14.9,26c-2.4,1.4-5,2.5-7.9,3.3c7-0.5,12.9-2.1,17.6-4.9
		c8.1-4.8,13.1-13.6,14.9-26C1098.8,590.3,1096.5,580.1,1090.2,572.4z"/>
	<path class="st1" d="M1047.9,781.3l3.9-1.1l6.3,9.6h-6.3l-3.8-2L1047.9,781.3z"/>
	<path class="st18" d="M977.6,761.8c0,0-5.5,4.1-5.4,7.6c0,0-0.6,7.5,0.9,10.5l8.3,7.5l15.3-1l4.9-21.7L977.6,761.8z"/>
	<path class="st19" d="M994.4,766.7c0,0-6.6-1.6-8.9,3l-4.5,8.3l7.9,10.6l60.1-0.2l-0.1-7.2l-19.4-5.5c1.7-1.2,3.1-3,4-4.8
		c1.5-3.3,0.3-5.8-0.9-8.9c-0.4-1-2.2-6.3-3.8-5.8C1028.8,756.1,994.4,766.7,994.4,766.7z"/>
	<path class="st20" d="M959,684.4l-2.8-5l2.1-1.3l2.6,3l0.7-1l1.9,4.5l-2,1.6L959,684.4z"/>
	<path class="st21" d="M999.3,695.9l-19.1,5.1l-16.8-18.1l-3.7,3.4l15.5,30l23.3-4.7L999.3,695.9z"/>
	<path class="st21" d="M980.5,749.7c4.1-11.6,4.9-23.8,6.5-36c0.4-3.6,0.9-7.2,2.5-10.5c1.8-3.7,4.7-5.6,8.1-6.6
		c4.2-1.2,9.2-1,13.6-1.1c4.2,0,7.3,15.7,11.3,23.4c2.4,4.7,5,8.9,6.6,14c1.5,4.9,3,9.9,3.8,15c1.2,7.7,4.8,13.1,1.1,15.6
		c-0.3,0.1-0.6,0.2-1,0.3c-6,1.9-12.1,3.3-18.4,3.9c-5.5,0.6-11.1,0.5-16.7-0.2c-7.6-1-14.9-2.3-21.4-6.5
		C977.8,757.3,979.1,753.5,980.5,749.7z"/>
	<path class="st20" d="M1013.5,684c-2.1-7.2-12.5-10-15.1-1.8c-0.8,2.5-1.3,5.1-0.9,7.7c0.4,2.6,1.9,5.1,4.2,6.2h0
		c-0.1,0.6-0.2,1.3-0.4,2c0,0.2,0,0.3,0,0.4c0.1,0.1,0.3,0.2,0.4,0.2c0.8,0.2,1.6,0.3,2.4,0.4c0.4,0.1,0.8,0.2,1.2,0
		c0.8-0.2,1.2-1.2,1.3-2.1c0-0.2,0-0.4,0-0.6C1011.4,695,1014.9,688.8,1013.5,684z"/>
	<path class="st22" d="M1001.2,671.4c-1.9-0.4-3.6,1.4-5.4,2.4c-1.5,0.8-3.2,0.9-4.7,1.5c-1.5,0.6-3.1,2-3.2,3.7
		c-1.5-0.8-3.2-1.7-4.9-1.4c-1.7,0.3-3.4,2.3-2.8,4c0.6,1.5,2.5,2,3.1,3.5c1,2.4-2,6-0.1,7.6c0.4,0.4,1.1,0.5,1.5,0.9
		c0.6,0.5,0.7,1.3,0.9,2.1c1,3.4,4.3,5.7,7.7,5.3c2.1-0.9,3.8-2.8,4.6-5.1c1-2.7-0.5-3.7-0.6-6.3c-0.2-2.8,0.8-5.8,2.7-7.9
		c1.2-1.4,2.9-2.6,4.6-2.7c0.7,0,0.5,0.6,1.3,0c0.4-0.2,0.8-1.1,1-1.5C1005.2,675.8,1003.7,671.9,1001.2,671.4z"/>
	<path class="st22" d="M1021.7,675.8c1,0.3,2,0.3,3,0.7c1.4,0.7,1.2,2.1,1.6,3.4c0.4,1.4,1,3.3,1.9,4.5c0.6,0.8,1.6,1.3,2.4,1.9
		c0.8,0.6,1.5,1.6,1.4,2.6c0,1-0.8,2-0.9,3c-0.2,1.5,0.1,2.3-0.4,3.9c-0.3,0.8-0.6,1.6-1.2,2.2c-0.8,0.7-2,0.6-3,0.4
		c-1-0.2-2-0.5-3-0.2c-2.2,0.6-1.8,2.8-2.5,4.7c-1,2.8-4.2,4.3-6.7,3.2c-2-0.9-3.2-3.4-3-5.8c0.1-1.2,0.6-2.3,0.7-3.5
		c0.1-1.2-0.5-2.8,0.6-3.7c0.3-0.2,0.6-0.3,0.8-0.6c0.2-0.2,0.3-0.5,0.4-0.8c0.2-1,0.1-2-0.5-2.8c-0.4-0.5-1-1-1.2-1.6
		c-0.3-0.7,0-1.6,0.1-2.4c0.2-1.9-0.8-3.9-2.4-4.7c-1-0.5-2-0.8-2.9-1.6c-0.1-0.1-2.2-2.1-2.3-1.6c0.1-0.7,0.6-1.3,1-1.8
		c0.7-0.9,1.5-1.8,2.5-2.3c3.2-1.7,3.2,2.5,5.7,2c0.6-0.1,1.1-0.6,1.6-1c1-0.6,2.3-0.3,3.3,0.2
		C1019.7,674.7,1020.6,675.5,1021.7,675.8z"/>
	<path class="st15" d="M964.7,761.4c-2.1-0.5-4.2-0.2-6,0.9c-1.8,1.1-3,2.8-3.6,4.9c-0.5,2.1-0.2,4.2,0.9,6c1.1,1.8,2.8,3,4.9,3.6
		c0.8,0.2,1.7,0.3,2.5,0.2c1.2-0.1,2.4-0.5,3.5-1.2c1.8-1.1,3-2.8,3.6-4.9c0.5-2.1,0.2-4.2-0.9-6C968.5,763.2,966.8,762,964.7,761.4
		z"/>
	<path class="st16" d="M969.6,765c-1.1-1.8-2.8-3-4.9-3.6c-0.7-0.2-1.4-0.2-2-0.2c1.4,0.6,2.5,1.6,3.3,3c1.1,1.8,1.4,3.9,0.9,6
		c-0.5,2.1-1.7,3.8-3.6,4.9c-1.1,0.7-2.3,1.1-3.5,1.2c-0.2,0-0.3,0-0.4,0c0.5,0.2,1,0.4,1.6,0.6c0.8,0.2,1.7,0.3,2.5,0.2
		c1.2-0.1,2.4-0.5,3.5-1.2c1.8-1.1,3-2.8,3.6-4.9C971,768.9,970.7,766.9,969.6,765z"/>
	<path class="st15" d="M1005.1,706.8c-3.6-5.5-9.4-9.2-17.2-11.1c-7.7-1.8-14.6-1.2-20.4,2c-5,2.8-8.6,7.1-10.5,13
		c-0.3,1-0.2,2,0.3,3c0.5,0.9,1.4,1.6,2.4,1.8l4.6,1.1c1.8,0.4,3.7-0.6,4.3-2.3c1.2-3.2,2.9-5.4,5.4-6.7c3-1.7,6.8-2,11.3-0.9
		c4.4,1,7.6,3.1,9.5,6.1c1.9,3,2.3,6.7,1.2,11c-1.4,6-4.1,9.6-7.9,10.7c-4,1.2-9.9,0.9-17.3-1l-2-0.5c-2-0.5-4,0.8-4.4,2.7
		l-4.2,17.3c-0.2,1-0.1,2,0.4,2.8c0.5,0.8,1.3,1.4,2.3,1.7l4.6,1.1c0.4,0.1,0.8,0.1,1.1,0.1c1.6-0.1,3-1.2,3.4-2.8l2.7-11.2
		c0-0.1,0.2-0.2,0.3-0.2c8.7,1.8,15.9,1.5,21.2-1c5.7-2.6,9.5-8.1,11.5-16.2C1009.6,719.2,1008.7,712.4,1005.1,706.8z"/>
	<path class="st16" d="M1005.1,706.8c-3.6-5.5-9.4-9.2-17.2-11.1c-4.8-1.2-9.2-1.3-13.3-0.5c2.2,0.1,4.4,0.4,6.8,1
		c7.7,1.8,13.5,5.6,17.2,11.1c3.7,5.5,4.5,12.4,2.6,20.5c-2,8.1-5.8,13.5-11.5,16.2c-1.6,0.8-3.4,1.3-5.4,1.7
		c4.6,0.1,8.7-0.6,11.9-2.1c5.6-2.6,9.5-8.1,11.5-16.2C1009.6,719.2,1008.7,712.4,1005.1,706.8z"/>
	<path class="st15" d="M829.6,599.1c-2,0-3.7,0.6-5.1,1.9c-1.4,1.3-2.2,3-2.2,5c0,2,0.6,3.7,1.9,5.1c1.3,1.4,3,2.2,5,2.2
		c0.8,0,1.5-0.1,2.2-0.3c1-0.3,2-0.8,2.9-1.6c1.4-1.3,2.2-3,2.2-5c0-2-0.6-3.7-1.9-5.1C833.2,599.9,831.6,599.2,829.6,599.1z"/>
	<path class="st23" d="M834.5,601.3c-1.3-1.4-3-2.2-5-2.2c-0.6,0-1.2,0-1.8,0.2c1.3,0.3,2.5,1,3.4,2c1.3,1.4,2,3.1,1.9,5.1
		c0,2-0.8,3.7-2.2,5c-0.8,0.8-1.8,1.4-2.9,1.6c-0.1,0-0.3,0.1-0.4,0.1c0.5,0.1,1,0.2,1.5,0.2c0.8,0,1.5-0.1,2.2-0.3
		c1-0.3,2-0.8,2.9-1.6c1.4-1.3,2.2-3,2.2-5C836.6,604.5,835.9,602.7,834.5,601.3z"/>
	<path class="st15" d="M855,543.8c-4.2-4.1-10-6.3-17.1-6.5c-7.1-0.2-13,1.6-17.5,5.5c-3.9,3.4-6.2,7.9-6.9,13.3
		c-0.1,0.9,0.2,1.8,0.8,2.6c0.6,0.7,1.5,1.1,2.4,1.2l4.2,0.1c1.7,0,3.1-1.2,3.4-2.8c0.4-3,1.6-5.3,3.5-6.9c2.4-2,5.6-3,9.7-2.9
		c4,0.1,7.3,1.3,9.4,3.6c2.2,2.2,3.2,5.4,3.1,9.4c-0.2,5.5-1.8,9.1-5,10.9c-3.3,1.8-8.5,2.6-15.3,2.3l-1.8,0c-1.8,0-3.4,1.4-3.4,3.2
		l-0.5,16c0,0.9,0.3,1.7,0.9,2.4c0.6,0.6,1.4,1,2.3,1l4.3,0.1c0.4,0,0.7,0,1-0.1c1.4-0.4,2.4-1.6,2.4-3.1l0.3-10.4
		c0-0.1,0.1-0.2,0.2-0.2c8,0,14.2-1.6,18.4-4.7c4.5-3.4,6.9-8.9,7.1-16.3C861.2,553.8,859.2,547.9,855,543.8z"/>
	<path class="st23" d="M855,543.8c-4.2-4.1-10-6.3-17.1-6.5c-4.4-0.1-8.3,0.5-11.8,2c1.9-0.3,4-0.4,6.1-0.4
		c7.1,0.2,12.9,2.4,17.1,6.5c4.2,4.1,6.3,10,6.1,17.5c-0.2,7.5-2.6,13-7.1,16.3c-1.3,1-2.8,1.8-4.4,2.5c4.1-0.8,7.5-2.1,10.1-4.1
		c4.5-3.4,6.9-8.9,7.1-16.3C861.2,553.8,859.2,547.9,855,543.8z"/>
	<path class="st20" d="M980.2,742l-4.9-1.2l0.4-2.1l3.5,0.1l-0.3-1.1l4.1,1.5l-0.1,2.2L980.2,742z"/>
	<path class="st21" d="M1012.5,721.8l-8.2,15.9l-22.5,0.5l0,4.5l26.8,5.3l9.4-15L1012.5,721.8z"/>
	<path class="st0" d="M832.6,680.1l-2.2-24.4l-5.7-0.2l-3.9,18.8l-4.7,7.9l7.3,7c0,0,6.2-3.8,7-4.1L832.6,680.1z"/>
	<path class="st17" d="M829.9,655.7l0-6.4l-3.9-2l-3.7,2.3l2.3,3l2.1,2.9L829.9,655.7z"/>
	<path class="st3" d="M1130.6,643.5l-6.7-23.6l-5.6,0.8l-0.5,29.3l5.4,4.1c0,0,5.3-4.9,6.1-5.3L1130.6,643.5z"/>
	<path class="st17" d="M1123.3,620l-1.2-6.3l-4.2-1.2l-3.2,3l2.8,2.6l2.6,2.5L1123.3,620z"/>
</g>
</svg>
