<?xml version="1.0" encoding="utf-8"?>
<!-- Generator: Adobe Illustrator 21.1.0, SVG Export Plug-In . SVG Version: 6.00 Build 0)  -->
<svg version="1.1" id="Layer_1" xmlns="http://www.w3.org/2000/svg" xmlns:xlink="http://www.w3.org/1999/xlink" x="0px" y="0px"
	 viewBox="0 0 242 716" style="enable-background:new 0 0 242 716;" xml:space="preserve">
<style type="text/css">
	.st0{fill:#746458;}
	.st1{fill:#FFFFFF;stroke:#3C444C;}
	.st2{fill:#03A678;}
	.st3{fill:#FFFFFF;}
</style>
<path class="st0" d="M228.4,670.8c-12.7-38.6-19.7-99.7-26.3-139.6c-7.5-44.7-15.9-88.9-23.4-133.5c-3.8-22.1-7-44.7-10.8-66.8
	c12.7-0.5,25.3-0.5,38-0.9c14.1-0.5,14.1-22.6,0-22.1c-13.6,0.5-27.7,1.4-41.3,2.4c-7.5-45.6-14.5-91.2-21.6-136.8
	c12.2-53.6,22.5-107.2,29.5-159.9c2.8-22.6-25.3-14.6-28.1,7.5c-2.3,19.3-5.6,38.1-8.9,57.4c-1.9-21.2-3.8-40.4-6.6-56.9
	c-3.3-18.3-26.3-10.3-22.5,8.5c6.6,35.7,9.4,85.6,10.8,139.2C106,218,93.3,266.4,81.1,314.9c-22.5,1.4-44.6,2.4-66.6,2.8
	c-5.6,0-7,8.9-1.4,10.3c20.6,5.2,42.2,5.2,63.8,4.7c-2.3,9.9-5.2,20.2-7.5,30.1C41.8,474.7,14.1,587.6,0,701.3
	c-0.5,5.6,10.3,7.1,11.7,1.4c22.5-116.6,54.4-231.8,85.8-347c2.3-8,4.2-16,6.6-24c0,0,0,0,0.5,0c4.7,0,9.8,0,14.5-0.5
	c0,34.8,0.5,65.8,1.4,90.7c2.3,48,5.6,95.9,9.8,143.9c4.2,48.4,6.6,97.8,17.4,145.3c1.9,7.5,13.1,5.6,13.6-1.9
	c1.9-48.9-5.2-98.7-8.9-147.6c-3.8-50.8-7-101.6-8.4-152.3c-0.5-21.6-0.9-48.4-0.9-78.5c3.3,0,6.1,0,9.4,0c2.8,21.2,5.6,42.3,8.9,63
	c7,44.7,15,89.3,23,134c7.5,42.3,14.5,106.7,28.1,147.6C214.3,686.8,232.2,682.1,228.4,670.8z M108.3,313.9
	c3.3-12.7,6.6-24.9,9.8-37.6c0,12.7,0,24.9,0,37.1C114.9,313.5,111.6,313.5,108.3,313.9z M141.6,311.6c0-20.7,0-42.8-0.5-64.9
	c2.3,21.6,4.7,42.8,7.5,64.4C146.3,311.6,144,311.6,141.6,311.6z"/>
<path class="st1" d="M218.7,65.6l0.1,0.1l0.2,0c7.4,0.5,14.7,0.9,22.5,1.8c-3.5,38.4-34,210-42.1,249.6c-54.6-1.8-114.3,1.4-173,4.7
	c3.2-18.7,13.5-71.3,23.8-123.8c0.5-2.7,1-5.3,1.6-8c9.8-50,19.3-98.3,22.3-115.4c1.5-0.2,3-0.3,4.5-0.4l0,0c1.6-0.1,3.3-0.2,5-0.5
	l0.4-0.1v-0.4c0-0.7,0.3-1.1,0.8-1.5c0.4-0.4,1-0.6,1.9-0.8c0.9-0.2,1.9-0.2,3-0.2c1.1,0,2.2,0.1,3.3,0.1c0.1,0,0.2,0,0.4,0
	c0.9,0.1,1.7,0.1,2.4,0.1v0l0,0c19.2-0.5,39.2-2,59.1-3.5l0,0c19.9-1.5,39.8-3.1,59.1-3.5c1.4,0,2.6,0,3.9,0.8l0,0l0,0l0,0l0,0l0,0
	l0,0l0,0l0,0l0,0l0,0l0,0l0,0l0,0l0,0l0,0l0,0l0,0l0,0l0,0l0.1,0.1l0,0l0,0l0,0l0,0l0,0l0,0l0,0l0,0l0,0l0,0l0,0l0,0l0,0l0,0l0,0
	l0.2,0.2l0.1,0.1l0,0l0,0l0,0l0,0l0,0l0,0l0,0l0,0l0,0l0,0l0,0l0,0l0,0l0,0l0,0L218.7,65.6L218.7,65.6L218.7,65.6L218.7,65.6
	L218.7,65.6L218.7,65.6L218.7,65.6L218.7,65.6L218.7,65.6z"/>
<path class="st2" d="M113.9,211.2c0,0-21.9-4.4-27.1-23.2s6.5-41.8,36.3-43.7c29.7-2.1,47.1,9.3,57,27.1
	c9.9,17.7-17.2,34.8-32.7,39.9l-3.5,12.8l-4.8-10.7C139,213.3,130.7,214,113.9,211.2z"/>
<path class="st3" d="M138.9,162.6c0,0,0-1.4-2.5-1.4c-2.5,0-5.7,0-5.7,1.4c0,0-0.4,11.8,0,14.4c-2.7,0-6.9,0-10.1,0
	c0-2.5-0.2-4.2,0-4.9c0.2-3.2,0.9-10.9-0.2-11.1c-0.9-0.2-7.8-1.1-7.8,0c0,0-0.5,15.5,0,23c0.5,7.6-0.5,15.1,0.7,15.5
	c1.2,0.4,6.4,0.5,7.3,0c0.5-0.4,0.4-9.3,0.2-16.9c3.4,0,7.4,0,10.3,0c0,2.6,0,5.4-0.4,6.9c-0.5,2.6,0,8.8,0,8.8s0,0.9,1.9,0.9
	c1.9,0,4.6,0,4.6,0s1.4,0.9,1.1-2.5c-0.4-3.2-0.5-17.2,0-20.7C138.9,172.4,138.9,162.6,138.9,162.6z"/>
<path class="st3" d="M148.8,170.8c0,0-1.6,0.2-1.8,1.4c-0.2,1.2-0.4,7.4,0,12.8c0.4,5.6-0.2,12.1-0.2,12.1s-0.7,0.9,0.9,1.1
	c1.6,0.2,5.3,0.9,5.3-1.2c0.2-2.1,0.5-20.7,0-22.7c-0.5-1.9,1.1-3.5-1.8-3.5C148.4,170.8,148.8,170.8,148.8,170.8z"/>
<path class="st3" d="M148.4,162.4c0,0-2.1,1.9-1.1,3.7c1.1,1.8,2.8,3,5,1.4c2.1-1.6,0.9-4.6-1.1-4.9
	C149.5,162.1,148.4,162.4,148.4,162.4z"/>
</svg>
