<svg width="242" height="716" viewBox="0 0 242 716" fill="none" xmlns="http://www.w3.org/2000/svg">
<path d="M228.4 670.777C215.738 632.223 208.704 571.101 202.138 531.137C194.635 486.471 186.193 442.276 178.69 397.61C174.938 375.512 171.656 352.944 167.904 330.846C180.566 330.376 193.228 330.376 205.89 329.906C219.959 329.436 219.959 307.338 205.89 307.808C192.29 308.278 178.221 309.218 164.621 310.159C157.118 264.552 150.083 218.946 143.049 173.34C155.242 119.741 165.559 66.1421 172.593 13.4834C175.407 -9.08463 147.269 -1.0919 144.456 21.0059C142.111 40.2828 138.828 59.0895 135.545 78.3664C133.669 57.2089 131.794 37.932 128.98 21.4761C125.697 3.13963 102.718 11.1326 106.47 29.9392C113.035 65.6719 115.849 115.51 117.256 169.109C106.001 218.006 93.3386 266.433 81.1456 314.86C58.6353 316.271 36.594 317.211 14.5527 317.681C8.92518 317.681 7.51835 326.615 13.1459 328.025C33.7803 333.197 55.3525 333.197 76.9248 332.727C74.58 342.6 71.7663 352.944 69.4215 362.817C41.7527 474.717 14.0837 587.557 0.0148472 701.338C-0.454116 706.98 10.332 708.39 11.7389 702.748C34.2492 586.147 66.1388 470.956 97.5593 355.765C99.9041 347.772 101.78 339.779 104.125 331.786C104.125 331.786 104.125 331.786 104.594 331.786C109.283 331.786 114.442 331.786 119.132 331.316C119.132 366.109 119.601 397.139 120.538 422.058C122.883 470.015 126.166 517.973 130.387 565.93C134.607 614.357 136.952 663.724 147.738 711.211C149.614 718.734 160.869 716.853 161.338 709.331C163.214 660.433 156.18 610.595 152.428 561.698C148.676 510.92 145.394 460.142 143.987 409.364C143.518 387.736 143.049 360.937 143.049 330.846C146.331 330.846 149.145 330.846 152.428 330.846C155.242 352.004 158.055 373.161 161.338 393.848C168.373 438.514 176.345 483.18 184.318 527.846C191.821 570.161 198.855 634.574 212.455 675.478C214.331 686.762 232.152 682.061 228.4 670.777ZM108.345 313.92C111.628 301.226 114.911 289.001 118.194 276.307C118.194 289.001 118.194 301.226 118.194 313.45C114.911 313.45 111.628 313.45 108.345 313.92ZM141.642 311.569C141.642 290.882 141.642 268.784 141.173 246.686C143.518 268.314 145.863 289.471 148.676 311.099C146.331 311.569 143.987 311.569 141.642 311.569Z" fill="#746458"/>
<path d="M218.667 65.5552L218.801 65.6892L218.99 65.7011C226.343 66.1618 233.682 66.6218 241.459 67.5229C237.973 105.952 207.458 277.51 199.388 317.168C144.801 315.324 85.137 318.578 26.4056 321.849C29.5802 303.189 39.8966 250.546 50.2159 198.003C50.7403 195.333 51.2648 192.663 51.7883 189.997C61.6099 139.994 71.1037 91.6607 74.0727 74.5805C75.5743 74.3808 77.0795 74.2728 78.6023 74.1637L78.6108 74.1631C80.2465 74.046 81.9027 73.9274 83.5616 73.6898L83.9907 73.6283V73.1948C83.9907 72.4738 84.319 72.132 84.7825 71.6673C85.1437 71.3052 85.7837 71.0355 86.6766 70.865C87.5549 70.6972 88.6034 70.6387 89.7044 70.6387C90.8026 70.6387 91.9332 70.6967 92.9735 70.7555C93.0924 70.7622 93.2103 70.7689 93.3269 70.7756C94.2224 70.8268 95.0452 70.8738 95.6836 70.8738V70.8739L95.6958 70.8736C114.936 70.4032 134.878 68.8743 154.804 67.3466L154.811 67.3461C174.743 65.818 194.658 64.2913 213.869 63.8213C215.268 63.8213 216.514 63.8322 217.765 64.6507L218.667 65.5552Z" fill="white" stroke="#3C444C"/>
</svg>
