<svg width="81" height="80" viewBox="0 0 81 80" fill="none" xmlns="http://www.w3.org/2000/svg">
<path d="M80.7635 30.4429C78.1506 26.4311 74.3499 23.8352 70.5492 21.0034C70.5492 21.0034 70.5493 21.0034 70.3117 21.0034L70.0741 20.7673C69.8366 20.5313 69.5991 20.5313 69.3615 20.2953C68.8864 20.0593 68.4114 19.5873 67.9363 19.1153C67.6988 18.8794 67.4613 18.8795 67.2237 18.6435L66.9861 18.4074C69.124 16.9915 71.2619 15.5756 73.3998 14.1596C75.7752 12.2717 78.1506 10.3838 80.526 8.49588C81.0011 8.0239 81.0011 7.55204 80.7635 6.84407C80.526 6.3721 80.0509 6.13605 79.3383 5.90006C73.8749 5.42809 68.4114 4.95605 63.1855 4.95605C57.722 4.95605 52.2586 5.19216 47.0327 5.66413C43.9446 5.90012 40.8564 6.3721 38.0059 6.84407H37.7685C37.0558 6.84407 36.3433 7.55198 36.3433 8.25995C36.8183 13.9237 37.0558 19.3513 37.2933 25.015C37.2933 26.667 37.2933 28.0829 37.2933 29.7348C37.2933 30.4428 38.0061 31.1508 38.7187 31.1508C43.9446 31.1508 49.408 31.1508 54.6339 31.3867C60.0974 31.6227 65.3234 31.8587 70.7869 32.0947C73.8749 32.3307 76.7254 32.5668 79.8134 32.8028C80.5261 32.8028 81.2386 31.3868 80.7635 30.4429Z" fill="#03A678"/>
<path d="M54.6349 10.8555C54.6349 9.6756 54.3974 8.25973 54.3974 7.07979C54.3974 6.37183 54.1599 5.6638 54.1599 4.95584C54.1599 4.48386 53.9223 3.77601 53.9223 3.30404C53.6847 2.59607 53.2097 1.88808 52.4971 1.65209C52.022 1.4161 51.3094 1.18009 50.5968 1.18009C49.4091 1.18009 48.2213 0.944158 47.0336 0.944158C42.2828 0.70817 37.2943 0.472095 32.5435 0.708083C30.168 0.708083 27.7926 0.9441 25.4172 1.18009C24.2295 1.18009 22.8043 1.41608 22.0917 2.36003C21.1415 3.53997 21.1415 4.95593 21.1415 6.37185C20.9039 10.6196 20.6664 15.1034 21.1415 19.3512C21.1415 20.7671 21.1415 21.9471 21.1415 23.363C21.1415 24.307 21.1415 25.0149 21.1415 25.9588C21.1415 27.1388 21.6165 28.0827 22.5667 28.5546C23.2793 28.7906 24.2296 28.7907 25.1797 28.7907C25.8923 28.7907 26.8425 28.7907 27.5551 28.7907C29.2179 28.7907 30.8807 28.7907 32.5435 28.7907C35.8691 28.7907 39.1947 28.7906 42.5203 28.5546C46.3209 28.3187 49.8841 28.0828 53.6848 27.6108C54.3974 27.6108 54.8724 27.1387 55.11 26.1948C54.6349 21.239 54.8724 16.0473 54.6349 10.8555Z" fill="#03A678"/>
<path d="M5.22631 78.1117C3.80105 78.1117 3.08846 75.7519 4.51371 74.8079L17.1034 66.0764C19.0037 64.8964 21.1416 64.8964 23.042 66.0764L34.444 74.3359C35.6317 75.2799 35.1566 77.6398 33.7314 77.6398L5.22631 78.1117Z" fill="#DDE1E7"/>
<path d="M20.4288 68.6725C19.7161 68.6725 19.0034 67.9646 19.0034 67.2566V1.41587C19.0034 0.707907 19.7161 0 20.4288 0C21.1414 0 21.854 0.707907 21.854 1.41587V67.2566C21.854 68.2006 21.1414 68.6725 20.4288 68.6725Z" fill="#DDE1E7"/>
<path d="M38.4818 80H2.37542C0.950168 80 0 78.8201 0 77.6402C0 76.2242 1.18771 75.2803 2.37542 75.2803H38.4818C39.9071 75.2803 40.8573 76.4602 40.8573 77.6402C40.8573 79.0561 39.6696 80 38.4818 80Z" fill="#DDE1E7"/>
</svg>
