<?xml version="1.0" encoding="utf-8"?>
<!-- Generator: Adobe Illustrator 23.0.2, SVG Export Plug-In . SVG Version: 6.00 Build 0)  -->
<svg version="1.1" id="Layer_1" xmlns="http://www.w3.org/2000/svg" xmlns:xlink="http://www.w3.org/1999/xlink" x="0px" y="0px"
	 viewBox="0 0 100 100" style="enable-background:new 0 0 100 100;" xml:space="preserve">
<style type="text/css">
	.st0{fill:#03A678;}
	.st1{fill:#DDE1E7;}
</style>
<path class="st0" d="M98.8,38.5c-3.1-4.8-7.7-7.9-12.3-11.3c0,0,0,0-0.3,0L86,26.9c-0.3-0.3-0.6-0.3-0.9-0.6
	c-0.6-0.3-1.1-0.8-1.7-1.4c-0.3-0.3-0.6-0.3-0.9-0.6l-0.3-0.3c2.6-1.7,5.1-3.4,7.7-5.1c2.8-2.3,5.7-4.5,8.5-6.8
	c0.6-0.6,0.6-1.1,0.3-2c-0.3-0.6-0.9-0.8-1.7-1.1C90.5,8.5,84,8,77.7,8c-6.6,0-13.1,0.3-19.4,0.8c-3.7,0.3-7.4,0.8-10.8,1.4h-0.3
	c-0.9,0-1.7,0.8-1.7,1.7c0.6,6.8,0.9,13.3,1.1,20.1c0,2,0,3.7,0,5.7c0,0.8,0.9,1.7,1.7,1.7c6.3,0,12.8,0,19.1,0.3
	c6.6,0.3,12.8,0.6,19.4,0.8c3.7,0.3,7.1,0.6,10.8,0.8C98.5,41.4,99.4,39.7,98.8,38.5z"/>
<path class="st0" d="M67.5,15c0-1.4-0.3-3.1-0.3-4.5c0-0.8-0.3-1.7-0.3-2.5c0-0.6-0.3-1.4-0.3-2c-0.3-0.8-0.9-1.7-1.7-2
	c-0.6-0.3-1.4-0.6-2.3-0.6c-1.4,0-2.8-0.3-4.3-0.3C52.6,2.9,46.7,2.6,41,2.9c-2.8,0-5.7,0.3-8.5,0.6c-1.4,0-3.1,0.3-4,1.4
	c-1.1,1.4-1.1,3.1-1.1,4.8c-0.3,5.1-0.6,10.5,0,15.6c0,1.7,0,3.1,0,4.8c0,1.1,0,2,0,3.1c0,1.4,0.6,2.5,1.7,3.1
	c0.9,0.3,2,0.3,3.1,0.3c0.9,0,2,0,2.8,0c2,0,4,0,6,0c4,0,8,0,12-0.3c4.6-0.3,8.8-0.6,13.4-1.1c0.9,0,1.4-0.6,1.7-1.7
	C67.5,27.5,67.8,21.3,67.5,15z"/>
<path class="st1" d="M8.2,95.7c-1.7,0-2.6-2.8-0.9-4l15.1-10.5c2.3-1.4,4.8-1.4,7.1,0l13.7,9.9c1.4,1.1,0.9,4-0.9,4L8.2,95.7z"/>
<path class="st1" d="M26.4,84.4c-0.9,0-1.7-0.8-1.7-1.7v-79c0-0.8,0.9-1.7,1.7-1.7c0.9,0,1.7,0.8,1.7,1.7v79
	C28.1,83.8,27.3,84.4,26.4,84.4z"/>
<path class="st1" d="M48.1,98H4.8c-1.7,0-2.8-1.4-2.8-2.8c0-1.7,1.4-2.8,2.8-2.8h43.3c1.7,0,2.8,1.4,2.8,2.8
	C50.9,96.9,49.5,98,48.1,98z"/>
</svg>
