<svg width="97" height="80" viewBox="0 0 97 80" fill="none" xmlns="http://www.w3.org/2000/svg">
<path d="M28.2444 67.1768C28.2444 67.1768 6.30216 62.7852 1.17051 43.9895C-3.96114 25.1938 7.71779 2.18217 37.446 0.2499C67.1742 -1.85803 84.5156 9.55992 94.425 27.3017C104.334 45.0435 77.2605 62.0826 61.6886 67.1768L58.1496 80L53.3718 69.2847C53.3718 69.2847 45.055 69.9873 28.2444 67.1768Z" fill="#03A678"/>
<path d="M53.1946 18.5186C53.1946 18.5186 53.1946 17.1134 50.7173 17.1134C48.2399 17.1134 45.0547 17.1133 45.0547 18.5186C45.0547 18.5186 44.7008 30.2879 45.0547 32.9229C42.4004 32.9229 38.1535 32.9229 34.9684 32.9229C34.9684 30.4636 34.7914 28.707 34.9684 28.0044C35.1453 24.8425 35.8532 17.1134 34.7915 16.9377C33.9067 16.762 27.0055 15.8837 27.0055 16.9377C27.0055 16.9377 26.4746 32.3959 27.0055 39.9493C27.5363 47.5027 26.4747 55.0561 27.7133 55.4075C28.952 55.7588 34.0836 55.9344 34.9684 55.4075C35.4992 55.0561 35.3223 46.0975 35.1454 38.544C38.5075 38.544 42.5774 38.544 45.4087 38.544C45.4087 41.179 45.4087 43.9895 45.0547 45.3948C44.5239 48.0297 45.0547 54.1779 45.0547 54.1779C45.0547 54.1779 45.0547 55.0562 47.0012 55.0562C48.9477 55.0562 51.602 55.0562 51.602 55.0562C51.602 55.0562 53.0176 55.9345 52.6637 52.5969C52.3098 49.435 52.1329 35.3821 52.6637 31.8689C53.1946 28.3557 53.1946 18.5186 53.1946 18.5186Z" fill="white"/>
<path d="M63.1033 26.7744C63.1033 26.7744 61.5107 26.9501 61.3338 28.1797C61.1568 29.4093 60.9799 35.5575 61.3338 41.003C61.6877 46.6241 61.1567 53.1236 61.1567 53.1236C61.1567 53.1236 60.4489 54.0019 62.0415 54.1775C63.6341 54.3532 67.3501 55.0558 67.3501 52.9479C67.5271 50.84 67.881 32.2199 67.3501 30.2876C66.8193 28.3554 68.4118 26.7744 65.5806 26.7744C62.7493 26.7744 63.1033 26.7744 63.1033 26.7744Z" fill="white"/>
<path d="M62.7501 18.3433C62.7501 18.3433 60.6267 20.2755 61.6884 22.0321C62.7501 23.7887 64.5196 25.0184 66.6431 23.4374C68.7665 21.8565 67.5278 18.8702 65.5813 18.5189C63.8118 17.9919 62.7501 18.3433 62.7501 18.3433Z" fill="white"/>
</svg>
