<?xml version="1.0" encoding="utf-8"?>
<!-- Generator: Adobe Illustrator 23.0.2, SVG Export Plug-In . SVG Version: 6.00 Build 0)  -->
<svg version="1.1" id="Layer_1" xmlns="http://www.w3.org/2000/svg" xmlns:xlink="http://www.w3.org/1999/xlink" x="0px" y="0px"
	 viewBox="0 0 81 80" style="enable-background:new 0 0 81 80;" xml:space="preserve">
<style type="text/css">
	.st0{fill:#03A678;}
	.st1{fill:#FFFFFF;}
</style>
<path class="st0" d="M23.5,64.7c0,0-18.3-3.7-22.6-19.3S6.4,10.5,31.2,8.9C56,7.2,70.5,16.7,78.7,31.5c8.3,14.8-14.3,29-27.3,33.2
	l-3,10.7l-4-8.9C44.5,66.5,37.6,67.1,23.5,64.7z"/>
<path class="st1" d="M44.4,24.1c0,0,0-1.2-2.1-1.2c-2.1,0-4.7,0-4.7,1.2c0,0-0.3,9.8,0,12c-2.2,0-5.8,0-8.4,0c0-2.1-0.1-3.5,0-4.1
	c0.1-2.6,0.7-9.1-0.1-9.2c-0.7-0.1-6.5-0.9-6.5,0c0,0-0.4,12.9,0,19.2c0.4,6.3-0.4,12.6,0.6,12.9c1,0.3,5.3,0.4,6,0
	c0.4-0.3,0.3-7.8,0.1-14.1c2.8,0,6.2,0,8.6,0c0,2.2,0,4.5-0.3,5.7c-0.4,2.2,0,7.3,0,7.3s0,0.7,1.6,0.7c1.6,0,3.8,0,3.8,0
	s1.2,0.7,0.9-2.1c-0.3-2.6-0.4-14.4,0-17.3C44.4,32.3,44.4,24.1,44.4,24.1z"/>
<path class="st1" d="M52.6,31c0,0-1.3,0.1-1.5,1.2c-0.1,1-0.3,6.2,0,10.7C51.4,47.6,51,53,51,53s-0.6,0.7,0.7,0.9
	c1.3,0.1,4.4,0.7,4.4-1c0.1-1.8,0.4-17.3,0-18.9C55.7,32.3,57,31,54.7,31C52.3,31,52.6,31,52.6,31z"/>
<path class="st1" d="M52.3,24c0,0-1.8,1.6-0.9,3.1c0.9,1.5,2.4,2.5,4.1,1.2c1.8-1.3,0.7-3.8-0.9-4.1C53.2,23.7,52.3,24,52.3,24z"/>
</svg>
