<?xml version="1.0" encoding="utf-8"?>
<!-- Generator: Adobe Illustrator 23.0.2, SVG Export Plug-In . SVG Version: 6.00 Build 0)  -->
<svg version="1.1" id="Layer_1" xmlns="http://www.w3.org/2000/svg" xmlns:xlink="http://www.w3.org/1999/xlink" x="0px" y="0px"
	 viewBox="0 0 81 80" style="enable-background:new 0 0 81 80;" xml:space="preserve">
<style type="text/css">
	.st0{fill:#FFFFFF;}
	.st1{fill:#DDE1E7;}
	.st2{fill:#03A678;}
</style>
<path class="st0" d="M46.1,25.7c0,0,0-1.1-2-1.1c-2,0-4.6,0-4.6,1.1c0,0-0.3,9.6,0,11.7c-2.2,0-5.6,0-8.2,0c0-2-0.1-3.4,0-4
	c0.1-2.6,0.7-8.8-0.1-9c-0.7-0.1-6.3-0.9-6.3,0c0,0-0.4,12.5,0,18.7c0.4,6.1-0.4,12.3,0.6,12.5c1,0.3,5.2,0.4,5.9,0
	c0.4-0.3,0.3-7.6,0.1-13.7c2.7,0,6,0,8.3,0c0,2.1,0,4.4-0.3,5.6c-0.4,2.1,0,7.1,0,7.1s0,0.7,1.6,0.7c1.6,0,3.7,0,3.7,0
	s1.1,0.7,0.9-2c-0.3-2.6-0.4-14,0-16.8C46.1,33.7,46.1,25.7,46.1,25.7z"/>
<path class="st0" d="M54.1,32.4c0,0-1.3,0.1-1.4,1.1c-0.1,1-0.3,6,0,10.4c0.3,4.6-0.1,9.8-0.1,9.8s-0.6,0.7,0.7,0.9
	c1.3,0.1,4.3,0.7,4.3-1c0.1-1.7,0.4-16.8,0-18.4c-0.4-1.6,0.9-2.9-1.4-2.9C53.8,32.4,54.1,32.4,54.1,32.4z"/>
<path class="st0" d="M53.8,25.6c0,0-1.7,1.6-0.9,3c0.9,1.4,2.3,2.4,4,1.1c1.7-1.3,0.7-3.7-0.9-4C54.7,25.3,53.8,25.6,53.8,25.6z"/>
<path class="st1" d="M28.1,37l-2.5,0.3L28.1,37l-2.5,0.3L28.1,37c0,0,0-0.2,0-0.3c0-0.6-0.2-2.1-0.3-4.1c-0.2-1.9-0.3-4.4-0.3-6.8
	c0-1.4,0-2.7,0.2-4.1c0-0.6,0.2-1.2,0.2-1.8c0-0.6,0.2-1.1,0.3-1.6c0.3-1.2,0.8-2.5,1.6-4c0.6-0.9,1.2-1.8,1.9-2.7
	c0.6-0.6,1.2-1.2,1.8-1.7c0.9-0.8,1.9-1.4,3.2-1.8c1.2-0.5,2.4-0.6,3.6-0.6c0.2,0,0.3,0,0.3,0c1.9,0,3.8,0.3,5.5,0.6
	c1.2,0.3,2.4,0.6,3.5,0.9c0.8,0.3,1.6,0.6,2.1,1.1c0.5,0.3,0.9,0.6,1.2,0.9c0.6,0.5,1.1,0.9,1.4,1.6c0.3,0.6,0.6,1.2,0.9,1.8
	c0.5,1.6,0.8,2.7,0.9,4c0.3,1.7,0.5,3,0.5,4.6c0,0.8,0,1.6,0.2,2.2c0,0.8,0.2,1.7,0.2,2.5c0.2,1.8,1.8,3,3.5,2.9
	c1.8-0.2,3-1.8,2.9-3.5c-0.2-1.1-0.2-1.9-0.2-3c0-0.8,0-1.6-0.2-2.4c0-1.2-0.2-2.5-0.5-4.1c-0.3-1.6-0.6-3.2-1.2-5.2
	c-0.3-1.1-0.8-1.9-1.2-2.9c-0.5-0.8-1.1-1.6-1.7-2.1c-1.1-1.2-2.2-2.1-3.6-2.9C53.5,4,52.4,3.5,51.4,3c-1.7-0.6-3.3-1.1-5.2-1.4
	s-3.6-0.5-5.5-0.6c-0.2,0-0.5,0-0.6,0c-1.2,0-2.4,0.2-3.6,0.3c-1.9,0.5-3.9,1.2-5.5,2.2c-1.2,0.8-2.4,1.7-3.3,2.5
	c-1.6,1.6-2.7,3.2-3.8,5c-1.1,1.8-1.7,3.8-2.1,5.6c-0.2,0.6-0.3,1.4-0.3,1.9c-0.2,1.2-0.2,2.2-0.4,3.3c0,1.1,0,2.2,0,3.3
	c0,3,0.2,5.9,0.4,8.2c0.2,2.2,0.3,3.6,0.3,3.6c0.2,1.8,1.8,3,3.6,2.9C27,40.5,28.2,38.8,28.1,37z"/>
<path class="st2" d="M52.2,37.3c0,0-21.6-0.8-26.9-0.9c-5.3-0.2-9.9-0.6-10.7,1.9c-0.8,2.6-1.4,16.1-1.1,23.6
	c0.2,7.4,0.2,12.3,0.3,13c0.2,0.8-0.2,1.9,2.1,2.7c2.3,0.8,23.2,1.4,30.6,1.2c7.3-0.2,22.1,0.9,23.2-2.1c1.1-3,1.4-30.8,1.4-34.8
	c0.2-4-3-4.4-4.6-4.6C65,37.3,52.2,37.3,52.2,37.3z"/>
<path class="st0" d="M40.2,57.8c0,0-2.7-3,0-5.2c2.7-2.2,4.4,0.3,4.4,1.8c0,1.6-1.1,3.5-1.1,3.5s0.3,2.7,0.6,3.6
	c0.2,0.8,1.4,1.9,0.5,1.9c-0.8,0-5.9,0.3-5.5-0.6C39.3,62,40.2,57.8,40.2,57.8z"/>
</svg>
