<svg width="60" height="80" viewBox="0 0 60 80" fill="none" xmlns="http://www.w3.org/2000/svg">
<path d="M14.9882 36.9299L12.3486 37.2415L14.9882 36.9299L12.3486 37.2415L14.9882 36.9299C14.9882 36.9299 14.9882 36.7741 14.9882 36.6182C14.9882 35.995 14.8329 34.4367 14.6777 32.411C14.5224 30.3854 14.3672 27.8922 14.3672 25.399C14.3672 23.9966 14.3672 22.5942 14.5224 21.1918C14.5224 20.5685 14.6777 19.9452 14.6777 19.322C14.6777 18.6987 14.833 18.2312 14.9882 17.7637C15.2988 16.5172 15.7646 15.1148 16.541 13.7124C17.1621 12.7774 17.7831 11.8425 18.5595 10.9076C19.1806 10.2843 19.8017 9.66097 20.4228 9.19351C21.3544 8.41439 22.4414 7.79111 23.6836 7.32364C24.9258 6.85618 26.1679 6.70036 27.4101 6.70036C27.5654 6.70036 27.7207 6.70036 27.7207 6.70036C29.7392 6.70036 31.6025 7.012 33.3105 7.32364C34.5527 7.63529 35.7949 7.94694 36.8818 8.25859C37.6582 8.57023 38.4345 8.88187 39.0556 9.34934C39.5214 9.66098 39.9872 9.97261 40.2978 10.2843C40.9189 10.7517 41.3847 11.2192 41.6953 11.8425C42.0058 12.4658 42.3163 13.0891 42.6269 13.7124C43.0927 15.2706 43.4033 16.5172 43.5586 17.7637C43.8691 19.4778 44.0244 20.8802 44.0244 22.4384C44.0244 23.2175 44.0243 23.9966 44.1796 24.7757C44.1796 25.5548 44.3349 26.4898 44.3349 27.4247C44.4902 29.2946 46.1982 30.5412 47.9062 30.3853C49.7695 30.2295 51.0117 28.5155 50.8564 26.8014C50.7012 25.7107 50.7011 24.7757 50.7011 23.685C50.7011 22.9059 50.7012 22.1268 50.5459 21.1918C50.5459 19.9452 50.3906 18.5428 50.0801 16.9846C49.7695 15.4264 49.4589 13.7124 48.8378 11.6867C48.5273 10.5959 48.0615 9.66097 47.5956 8.72603C47.1298 7.94692 46.5088 7.16782 45.8877 6.54453C44.8008 5.29795 43.5585 4.36303 42.1611 3.58392C41.0742 2.96063 39.9873 2.49316 38.9004 2.02569C37.1924 1.40241 35.4843 0.934924 33.621 0.62328C31.7578 0.311635 29.8945 0.155822 27.8759 0C27.7206 0 27.4101 0 27.2549 0C26.0127 0 24.7705 0.155818 23.5283 0.31164C21.5097 0.779107 19.4912 1.55822 17.9385 2.64897C16.6963 3.42809 15.4541 4.36301 14.5224 5.29795C12.9697 6.85617 11.7275 8.57022 10.6406 10.4401C9.55369 12.31 8.93256 14.3356 8.46674 16.2055C8.31147 16.8288 8.15627 17.6079 8.15627 18.2312C8.001 19.322 8.00098 20.4127 7.8457 21.5035C7.8457 22.5942 7.8457 23.8408 7.8457 24.9316C7.8457 28.048 8.001 31.0086 8.15627 33.346C8.31154 35.6833 8.46674 37.0857 8.46674 37.0857C8.62201 38.9556 10.3301 40.2021 12.1933 40.0463C13.9013 40.5138 15.1435 38.7997 14.9882 36.9299Z" fill="#DDE1E7"/>
<path d="M39.8316 37.2418C39.8316 37.2418 17.6275 36.4627 12.193 36.3068C6.7584 36.151 1.94497 35.6835 1.1686 38.3325C0.392232 40.9815 -0.228881 54.8497 0.0816661 62.485C0.236939 70.1203 0.236958 75.1066 0.392232 75.8857C0.547505 76.6648 0.236902 77.9114 2.566 78.6905C4.8951 79.4696 26.3228 80.0929 33.9312 79.9371C41.3844 79.7813 56.6011 80.872 57.688 77.7556C58.775 74.6391 59.0855 46.1236 59.0855 42.0723C59.2408 38.0209 55.9801 37.5534 54.4273 37.3976C52.8746 37.2418 39.8316 37.2418 39.8316 37.2418Z" fill="#03A678"/>
<path d="M27.4106 58.2777C27.4106 58.2777 24.6157 55.1613 27.4106 52.9798C30.2055 50.6424 31.9136 53.2914 31.9136 54.8496C31.9136 56.4078 30.8266 58.4335 30.8266 58.4335C30.8266 58.4335 31.1372 61.2383 31.4478 62.1733C31.603 62.9524 32.8452 64.199 31.9136 64.199C31.1372 64.199 25.8579 64.5106 26.1684 63.5757C26.479 62.6407 27.4106 58.2777 27.4106 58.2777Z" fill="white"/>
</svg>
