<?xml version="1.0" encoding="utf-8"?>
<!-- Generator: Adobe Illustrator 23.0.2, SVG Export Plug-In . SVG Version: 6.00 Build 0)  -->
<svg version="1.1" id="Layer_1" xmlns="http://www.w3.org/2000/svg" xmlns:xlink="http://www.w3.org/1999/xlink" x="0px" y="0px"
	 viewBox="0 0 81 80" style="enable-background:new 0 0 81 80;" xml:space="preserve">
<style type="text/css">
	.st0{fill:#DDE1E7;}
	.st1{fill:#03A678;}
	.st2{fill:#FFFFFF;}
</style>
<g>
	<path class="st0" d="M40.4,30.4c1.8,0.8,2.6,3.5,2.9,6.6c0.2,0.3,0.3,0.8,0.3,1.4c0,11.9,1.6,27.2-2.2,38c-1,2.6-3.7,5-5.1,2.4
		C34,75,34.1,67.8,34,62.8C34,57.5,33.2,27.2,40.4,30.4z"/>
	<path class="st1" d="M38.6,0h0.6c13.5,0,24.7,9.8,24.7,21.7c0,11.9-11.2,21.7-24.7,21.7h-0.6c-13.5,0-24.7-9.8-24.7-21.7
		C13.9,9.8,25.1,0,38.6,0z"/>
	<path class="st2" d="M38.1,4c2.2-0.3,2.2,2.9,0,3.2c-8.3,1-13.8,6.1-13.8,13.7c0,6.3,5.1,12.1,12.5,12.6c5.3,0.3,11.1-2.3,14.3-6
		c4.3-5.2,3.4-13.8-3.8-16.6C41.2,8.7,34,13,32,18c-1.3,3.4,1.8,6.1,5.1,7.2c2.1,0.6,4.2,0.2,5.9-1c5.3-3.7-2.6-6.6-2.9-5.8
		c-1.1,1.8-4.2,0.2-3-1.6C40.7,11.3,50,18,48.1,23c-2.7,7.1-12.3,7.2-17.5,2.1C17.9,12.9,54.9-3.5,57.2,18.4c1,9.2-5.8,15.8-15.4,18
		c-6.4,1.4-13.5-0.6-17.3-5.5C15.7,19.5,23.2,5.6,38.1,4z"/>
</g>
</svg>
