<svg width="58" height="88" viewBox="0 0 58 88" fill="none" xmlns="http://www.w3.org/2000/svg">
<g filter="url(#filter0_d)">
<path d="M30.4426 30.4325C32.2054 31.2376 33.0067 33.9749 33.3272 37.0342C33.4875 37.3563 33.6477 37.8393 33.6477 38.4834C33.6477 50.3987 35.2503 65.6953 31.4042 76.4835C30.4426 79.0598 27.7182 81.4751 26.2759 78.8988C24.0323 75.0344 24.1926 67.7886 24.0323 62.797C24.0323 57.4834 23.2311 27.2122 30.4426 30.4325Z" fill="#DDE1E7"/>
<path d="M28.6795 0H29.3205C42.7821 0 54 9.82207 54 21.7374C54 33.6527 42.7821 43.4747 29.3205 43.4747H28.6795C15.2179 43.4747 4 33.6527 4 21.7374C4 9.82207 15.2179 0 28.6795 0Z" fill="#03A678"/>
<path d="M28.1982 4.02553C30.4418 3.7035 30.4418 6.92385 28.1982 7.24588C19.8649 8.21199 14.4162 13.3646 14.4162 20.9324C14.4162 27.2121 19.5444 33.0088 26.9162 33.4918C32.2046 33.8139 37.9738 31.2376 41.179 27.5342C45.5059 22.3816 44.5444 13.6867 37.3328 10.9494C31.2431 8.69512 24.0315 13.0425 22.1085 18.0341C20.8264 21.4154 23.8713 24.1527 27.2367 25.2799C29.32 25.9239 31.4033 25.4409 33.1662 24.3138C38.4546 20.6104 30.602 17.712 30.2815 18.5171C29.1597 20.2883 26.1149 18.6781 27.2367 16.9069C30.7623 11.2713 40.0572 18.0341 38.1341 23.0257C35.4098 30.1105 25.7944 30.2715 20.6661 25.1189C8.00589 12.8816 45.0251 -3.54225 47.2687 18.3561C48.2303 27.5341 41.4995 34.1359 31.8841 36.3901C25.4738 37.8393 18.4226 35.746 14.5764 30.9155C5.76232 19.4832 13.2944 5.63571 28.1982 4.02553Z" fill="white"/>
</g>
<defs>
<filter id="filter0_d" x="0" y="0" width="58" height="88.0002" filterUnits="userSpaceOnUse" color-interpolation-filters="sRGB">
<feFlood flood-opacity="0" result="BackgroundImageFix"/>
<feColorMatrix in="SourceAlpha" type="matrix" values="0 0 0 0 0 0 0 0 0 0 0 0 0 0 0 0 0 0 127 0"/>
<feOffset dy="4"/>
<feGaussianBlur stdDeviation="2"/>
<feColorMatrix type="matrix" values="0 0 0 0 0 0 0 0 0 0 0 0 0 0 0 0 0 0 0.25 0"/>
<feBlend mode="normal" in2="BackgroundImageFix" result="effect1_dropShadow"/>
<feBlend mode="normal" in="SourceGraphic" in2="effect1_dropShadow" result="shape"/>
</filter>
</defs>
</svg>
