<?xml version="1.0" encoding="utf-8"?>
<!-- Generator: Adobe Illustrator 23.0.2, SVG Export Plug-In . SVG Version: 6.00 Build 0)  -->
<svg version="1.1" id="Layer_1" xmlns="http://www.w3.org/2000/svg" xmlns:xlink="http://www.w3.org/1999/xlink" x="0px" y="0px"
	 viewBox="0 0 81 80" style="enable-background:new 0 0 81 80;" xml:space="preserve">
<style type="text/css">
	.st0{fill:#03A678;fill-opacity:0.75;}
	.st1{fill:#03A678;}
</style>
<path class="st0" d="M48.9,10.9C29.5,26.2,3.1,55,3.1,55c-7.5,8.1,0,8.4,0,8.4L35,55c0,0,15.1-34.8,31.4-54.4
	C65-1.5,60.2,2,48.9,10.9z"/>
<path class="st1" d="M57,76.8c-0.2-5.3,5.1-47.4,8.4-63.9c1.4-6.9,2.1-11,1-12.4C49.9,20.1,35,55,35,55s11.7,14.6,14.4,21.8
	C52.3,84,57,76.8,57,76.8z"/>
</svg>
