<svg width="68" height="80" viewBox="0 0 68 80" fill="none" xmlns="http://www.w3.org/2000/svg">
<path d="M49.1392 10.8789C29.7617 26.1565 3.35343 54.9951 3.35343 54.9951C-4.19179 63.063 3.35343 63.4063 3.35343 63.4063L35.2491 54.9951C35.2491 54.9951 50.3396 20.1484 66.6304 0.579347C65.2586 -1.48055 60.457 1.95261 49.1392 10.8789Z" fill="#03A678" fill-opacity="0.75"/>
<path d="M57.1993 76.7954C57.0278 71.474 62.3438 29.4177 65.6019 12.9385C66.9738 6.07217 67.6597 1.95237 66.6308 0.579102C50.1685 20.1482 35.2495 54.9948 35.2495 54.9948C35.2495 54.9948 46.9104 69.5858 49.6541 76.7954C52.5693 84.0051 57.1993 76.7954 57.1993 76.7954Z" fill="#03A678"/>
</svg>
