<?xml version="1.0" encoding="utf-8"?>
<!-- Generator: Adobe Illustrator 23.0.2, SVG Export Plug-In . SVG Version: 6.00 Build 0)  -->
<svg version="1.1" id="Layer_1" xmlns="http://www.w3.org/2000/svg" xmlns:xlink="http://www.w3.org/1999/xlink" x="0px" y="0px"
	 viewBox="0 0 81 80" style="enable-background:new 0 0 81 80;" xml:space="preserve">
<style type="text/css">
	.st0{fill:#03A678;fill-opacity:0.75;}
	.st1{fill:#03A678;}
</style>
<path class="st0" d="M54.1,10.9C34.7,26.2,8.3,55,8.3,55c-7.5,8.1,0,8.4,0,8.4L40.2,55c0,0,15.1-34.8,31.4-54.4
	C70.2-1.5,65.4,2,54.1,10.9z"/>
<path class="st1" d="M62.2,76.8c-0.2-5.3,5.1-47.4,8.4-63.9c1.4-6.9,2.1-11,1-12.4C55.1,20.1,40.2,55,40.2,55s11.7,14.6,14.4,21.8
	C57.5,84,62.2,76.8,62.2,76.8z"/>
</svg>
