<?xml version="1.0" encoding="utf-8"?>
<!-- Generator: Adobe Illustrator 23.0.2, SVG Export Plug-In . SVG Version: 6.00 Build 0)  -->
<svg version="1.1" id="Layer_1" xmlns="http://www.w3.org/2000/svg" xmlns:xlink="http://www.w3.org/1999/xlink" x="0px" y="0px"
	 viewBox="0 0 127 81" style="enable-background:new 0 0 127 81;" xml:space="preserve">
<style type="text/css">
	.st0{fill:#F2F4F7;}
</style>
<path id="_x3C_Cloud_x3E_" class="st0" d="M88.7,80.3c-3.1-0.1-6.4-0.3-9.5-0.4c-2.7-0.1-5.3-0.3-7.9-0.4c-4.8-0.1-9.6-0.6-14.2-1
	c-2.2-0.1-4.6-0.4-6.8-0.6c-1.9-0.1-3.9-0.3-5.6-0.3c-5.3-0.3-10.4-0.6-15.6-1.9c-0.9-0.3-4-0.6-6.4-0.9c-1.5-0.1-2.8-0.3-3.6-0.4
	c-1.2,0.3-2.2,0.4-3.4,0.4c-3.1-0.1-5.9-1.5-8.3-4.2C2.9,65.9,0.7,57.5,1,52.4c0.3-5.6,8.3-13.3,13.9-16.3
	c4.2-2.2,11.1-2.7,14.2-2.8c-0.7-5.9,1.6-12.5,6.7-18.2C44,5.6,57.3-0.2,68,1.5c9.8,1.5,18.5,8,23.6,17.6c3.9,7.3,4.9,15.1,3.1,21.7
	c1.3-0.4,3.3-0.7,5.3-0.6c3.7,0.1,7.6,1,9.3,1.8c7.7,3.3,11.4,7.6,15.4,14.4c3.1,5.2-0.7,14.4-4.7,19.3c-3.3,3.9-8.2,4.2-13,4.4
	c-1.3,0.1-2.8,0.1-4.3,0.3C98.8,80.3,94.3,80.5,88.7,80.3z"/>
</svg>
