<?xml version="1.0" encoding="utf-8"?>
<!-- Generator: Adobe Illustrator 23.0.2, SVG Export Plug-In . SVG Version: 6.00 Build 0)  -->
<svg version="1.1" id="Layer_1" xmlns="http://www.w3.org/2000/svg" xmlns:xlink="http://www.w3.org/1999/xlink" x="0px" y="0px"
	 viewBox="0 0 1896.2 823.8" style="enable-background:new 0 0 1896.2 823.8;" xml:space="preserve">
<style type="text/css">
	.st0{fill:#F2F4F7;}
	.st1{fill:#3C444C;}
	.st2{fill:#DDE1E7;}
	.st3{fill:#CDCCC7;}
	.st4{fill:#F9E9DE;}
	.st5{fill:#F2D292;}
	.st6{fill:#AA6A64;}
	.st7{fill:#AF716D;}
	.st8{fill:#03A678;}
	.st9{fill:#F1F1F2;}
</style>
<g>
	<path class="st0" d="M671.9,609.7c-19.9,11.3-39.4,22.7-59,34.1c-0.3,0.2,0.5,0.4,0.9,0.2c19.8-11.3,39.9-22.6,59.5-34
		C673.7,609.6,672.4,609.3,671.9,609.7z"/>
	<path class="st0" d="M678.2,596c-11,5.8-21,12-31.8,17.9c-11.6,6.3-23.5,12.6-35.5,18.8c-0.3,0.2,0.3,0.5,0.7,0.3
		c12-6,23.8-12.2,35.3-18.4c11.1-6,22.8-11.9,32.6-18.2C680.1,596,678.9,595.6,678.2,596z"/>
	<path class="st0" d="M816.5,484.3c-16.9,10.4-34.2,20.5-51.6,30.7c-0.8,0.5,0.9,0.8,1.7,0.4c18.1-10,35.2-20.3,51.2-30.8
		C818.4,484.3,817.1,483.9,816.5,484.3z"/>
	<path class="st0" d="M815.1,499.5c-10.3,8-22.4,15.5-36.2,22.5c-0.8,0.3,0.6,0.9,1.3,0.6c13.5-7.1,25.6-14.8,35.9-22.8
		C816.5,499.5,815.5,499.2,815.1,499.5z"/>
	<path class="st0" d="M795.1,576c-10.7,7.5-21.4,15.1-32,22.6c-0.7,0.5,1.1,0.9,1.7,0.4c10.5-7.6,21.1-15.1,31.6-22.7
		C796.9,575.9,795.5,575.6,795.1,576z"/>
	<path class="st0" d="M808.7,582.9c-9.2,7.5-19.6,14.6-30.5,21.6c-0.8,0.5,1.1,1,2,0.5c11-6.9,20.9-14.3,30-21.7
		C810.6,582.9,809.3,582.6,808.7,582.9z"/>
	<path class="st0" d="M817.9,464.1c-21.2-0.2-42.4,0.2-63.6,0.1c-21.9-0.1-43.9-0.1-65.8-0.1c-21.3,0-42.5-0.1-63.9,0.1
		c-21.1,0.1-45.4-0.4-66.5-0.1l-0.2,13.3c22.9-0.3,45.7,0.3,68.6-0.1c6.3,0.1,12.5-0.1,18.8-0.1c19,0.3,38.1,0.1,57.1,0.1
		c36.1,0,70.6-0.3,108.4-0.1c19.4,0.3,38.6-0.2,58,0l12.7-0.1v-12.9C860.5,463.9,839.2,464.3,817.9,464.1z"/>
	<path class="st0" d="M817.9,659.3c-21.2-0.2-42.4,0.2-63.6,0.1c-21.9-0.1-43.9-0.1-65.8-0.1c-21.3,0-42.5-0.1-63.9,0.1
		c-21.1,0.1-45.4-0.4-66.5-0.1l-0.2,13.3c22.9-0.3,45.7,0.3,68.6-0.1c6.3,0.1,12.5-0.1,18.8-0.1c19,0.3,38.1,0.1,57.1,0.1
		c36.1,0,70.6-0.3,108.4-0.1c19.4,0.3,38.6-0.2,58,0l12.7-0.1v-13C860.5,659.1,839.2,659.5,817.9,659.3z"/>
	<path class="st0" d="M865.1,624.4c0.2-12.4-0.2-24.8-0.1-37.2c0.1-12.8,0.1-25.7,0.1-38.4c0-12.5,0-24.9-0.1-37.4
		c-0.2-12.4,0.3-26.6,0.1-39l-14.1-0.1c0.3,13.3-0.3,26.8,0.1,40.1c-0.2,3.6,0.2,7.3,0.1,11c-0.3,11.2-0.1,22.3-0.1,33.4
		c0,21.1,0.3,41.4,0.1,63.4c-0.3,11.4,0.3,22.6,0,34l0.1,7.5h13.9C865.3,649.2,864.9,636.8,865.1,624.4z"/>
	<path class="st0" d="M725.5,624.4c0.2-12.4-0.2-24.8-0.1-37.2c0.1-12.8,0.1-25.7,0.1-38.4c0-12.5,0-24.9-0.1-37.4
		c-0.2-12.4,0.3-26.6,0.1-39l-14.1-0.1c0.3,13.3-0.3,26.8,0.1,40.1c-0.2,3.6,0.2,7.3,0.1,11c-0.3,11.2-0.1,22.3-0.1,33.4
		c0,21.1,0.3,41.4,0.1,63.4c-0.3,11.4,0.3,22.6,0,34l0.1,7.5h13.7C725.8,649.2,725.3,636.8,725.5,624.4z"/>
	<path class="st0" d="M638.4,571.1c17.8,0.1,35.5-0.1,53.3-0.1c18.4,0.1,36.9,0.1,55.2,0.1c17.9,0,35.7,0,53.6-0.1
		c17.8-0.1,38.2,0.2,56,0.1l0.2-8.3c-19.2,0.2-38.3-0.1-57.5,0.1c-5.2-0.1-10.5,0.1-15.7,0.1c-16-0.1-32-0.1-48-0.1
		c-30.3,0-59.3,0.1-91,0.1c-16.3-0.1-32.5,0.1-48.8,0l-10.8,0.1v8.2C602.6,571.3,620.5,571,638.4,571.1z"/>
	<path class="st0" d="M586.6,624.4c0.2-12.4-0.2-24.8-0.1-37.2c0.1-12.8,0.1-25.7,0.1-38.4c0-12.5,0-24.9-0.1-37.4
		c-0.2-12.4,0.3-26.6,0.1-39l-14.1-0.1c0.3,13.3-0.3,26.8,0.1,40.1c-0.2,3.6,0.2,7.3,0.1,11c-0.3,11.2-0.1,22.3-0.1,33.4
		c0,21.1,0.3,41.4,0.1,63.4c-0.3,11.4,0.3,22.6,0,34l0.1,7.5h13.8C586.8,649.2,586.4,636.8,586.6,624.4z"/>
	<path class="st0" d="M1118.5,495.4c0-0.4-0.5-0.7-1-0.7c-18.8-0.1-37.6-0.1-56.5,0c-0.5,0-1,0.3-1,0.7c0.8,17-0.4,33.9,0,50.9
		c0,0.2,0.1,0.3,0.2,0.4c0,0,0,0.1,0.1,0.1c0.2,0.1,0.4,0.2,0.7,0.2c19,0.1,38.1,0.3,57.1-0.2c0.6,0,1-0.3,1-0.7
		C1119.9,529.2,1118.5,512.3,1118.5,495.4z"/>
	<path class="st0" d="M1029.8,542.7c-16.1-0.1-32.2-0.1-48.4,0c-0.5,0-0.9,0.3-0.9,0.6c0.7,14.2-0.3,28.4,0,42.6
		c0,0.1,0.1,0.3,0.2,0.3c0,0,0,0.1,0.1,0.1c0.1,0.1,0.3,0.1,0.6,0.1c16.3,0.1,32.6,0.2,48.9-0.2c0.5,0,0.9-0.3,0.9-0.6
		c0.6-14.1-0.6-28.3-0.6-42.4C1030.6,543,1030.2,542.7,1029.8,542.7z"/>
	<path class="st0" d="M1095.2,551.5c-16.1-0.1-32.2-0.1-48.4,0c-0.5,0-0.9,0.3-0.9,0.6c0.7,14.2-0.3,28.4,0,42.6
		c0,0.1,0.1,0.3,0.2,0.3c0,0,0,0.1,0.1,0.1c0.1,0.1,0.3,0.1,0.6,0.1c16.3,0.1,32.6,0.2,48.9-0.2c0.5,0,0.9-0.3,0.9-0.6
		c0.6-14.1-0.6-28.3-0.6-42.4C1096,551.7,1095.6,551.5,1095.2,551.5z"/>
	<path class="st0" d="M1056.2,531c0.7,0,1.3-0.4,1.3-0.9c1-23-0.9-46-0.9-69c0-0.5-0.6-0.9-1.3-0.9c-25.1-0.2-50.1-0.2-75.2,0
		c-0.7,0-1.3,0.4-1.3,0.9c1.1,23.1-0.5,46.2,0,69.4c0,0.3,0.1,0.5,0.3,0.6c0.2,0.2,0.5,0.3,1,0.3
		C1005.5,531.4,1030.9,531.6,1056.2,531z"/>
	<path class="st0" d="M1407.4,721h-1.1l-10.2-8.7h-68.2l-2.5-4.8l-37.3,1.7v-12l126.7-1.3l-0.1-2.1c-0.1-1.1-3.6-100.3-4-110.1
		c-0.5-9.7,0-28.9,0-29.1l0.1-2.1l-268.1,4.2v2c0.1,3.8,1.5,92.4,2.3,105.4c0.8,12.8,0,32.3,0,32.4l-0.1,2.1l133.3-1.4v12.3
		l-34.6,1.6l-0.5,1.1h-86.2l-9.1,11h-1.4c0.7,13.8-1,28.8,0,42.6c0.9,12.5,2.4,24.6,1.7,37.7h14c-0.9-16.8-1.3-34.5-0.9-53.1
		c0.1-7.7,0.5-15.1,0.9-22.5c74.5-1.7,149.8-3,233.8,0c1.1,12.7-0.1,28,0.7,34.8c0.9,6.9-0.2,24.6-0.7,40.8c3.6,0,7.3,0,10.9,0
		c0,0,1.5-59.9,0.8-65.7C1406.7,732.2,1407.4,721,1407.4,721z"/>
	<path class="st1" d="M902.6,802.9c0.1-1.8-0.1-4-1.5-5.2c-1.6-1.4-4.2-0.9-5.7,0.6s-2.2,3.6-2.7,5.6c-0.5,1.8-0.9,3.8-1.2,5.6
		c-0.4,2.2-0.6,4.8,0.7,6.6c1.7,2.4,5.7,2.5,7.5,0.2c0.7-0.9,1-1.9,1.3-2.9C902,810.1,902.5,806.6,902.6,802.9z"/>
	<path class="st2" d="M902.1,811.2c-0.5,1.7-1,3.5-1.4,5.3c-1.7-1.6-4-2.6-6.3-3c-1.5-0.2-1.8-0.3-3.1,0.7c0.1-3.2-0.3-4.6,0.7-6.3
		c2.9-1.3,6.4-1,9.1,0.7c0.6,0.3,1.1,0.8,1.3,1.4C902.3,810.3,902.2,810.8,902.1,811.2z"/>
	<path class="st1" d="M937,800.8c-0.7-1.7-1.6-3.7-3.3-4.2c-2-0.7-4.2,0.9-5.1,2.8s-0.6,4.2-0.3,6.3c0.3,1.9,0.7,3.8,1.1,5.7
		c0.5,2.2,1.3,4.6,3.2,5.8c2.5,1.6,6.3,0.1,7.1-2.8c0.3-1.1,0.2-2.1,0.1-3.2C939.3,807.6,938.3,804.1,937,800.8z"/>
	<path class="st2" d="M939.7,808.6c0.2,1.8-0.2,3.4,0.1,5.2c-2.2-0.8-4-0.7-6.3-0.1c-1.5,0.4-1.8,0.5-2.6,1.8
		c-1.1-2.9-2.1-4.1-1.8-6.1c2.1-2.3,5.5-3.4,8.7-2.9c0.6,0.1,1.3,0.3,1.7,0.9C939.6,807.7,939.7,808.2,939.7,808.6z"/>
	<path class="st3" d="M875.8,657.8c-0.7-0.7-1.8-0.9-2.9-1.1c-3.8-0.5-7.6-1-11.4-1.5c6.8,23,10.2,46.9,10,70.8
		c4.4-1.3,8.7-2.8,12.9-4.6c0.8-0.3,1.6-0.7,2-1.3c0.6-0.7,0.6-1.7,0.7-2.6c0.2-5.2-0.7-10.4-1.7-15.6c-2.6-14-5.2-28-8.7-41.9
		C876.7,659.3,876.4,658.4,875.8,657.8z"/>
	<path class="st0" d="M1098.3,775.4c-0.3,0-0.5,0-0.8,0c0.8-7.5,0.3-12.6,0.4-20.9c0,0,0,0,0.1,0c0-0.1,0-0.1-0.1-0.1
		c0-0.1,0-0.1,0-0.2h-0.1c-7.8-21.5-13.4-32.8-28.9-53.4c-1.2,0-2.4,0.1-3.7,0.1c0.6-25.6,0-42.1-0.1-70.2
		c-109.6,2.3-347.2-1.1-351,0.9c0.1,28.3,0.4,49.1,1.3,73.5c0.6,0,1.1,0,1.7,0c-6,19.9-11.8,33.6-15.4,52.1c0.5,0,1.1,0,1.6,0
		c-0.9,0-1.5,0.1-1.7,0.1c-0.1,8.5,0.1,14.7,0.8,21.8c-0.6,0-1,0-1.1,0c-0.1,2.2-0.1,3.8,0.8,5.6c8-0.1,15.9-0.1,23.6-0.2
		c-0.1,2.2-0.3,4.4-0.5,6.7c-0.2,2.9-1,5,2.7,5.4c1.3,0.1,2.6-0.1,3.8-0.4c0.6-0.1,1.2-0.3,1.7-0.7c0.9-0.8,0.4-5,0.5-6.3
		c0.1-1.7,0.2-3.2,0.3-4.9c121.1-1.1,210.1-1.8,326-2.9c-0.1,2.8-0.1,5.6-0.3,8.5c-0.1,2.9-0.8,5,2.8,5.3c1.3,0.1,2.6-0.1,3.8-0.5
		c0.6-0.1,1.2-0.3,1.6-0.7c0.9-0.8,0.2-5,0.3-6.3c0.1-2.1,0.1-4.2,0.2-6.3c9.5-0.1,19.2-0.1,29.1-0.3
		C1098.7,778.9,1098.1,777.6,1098.3,775.4z M939.5,755.5c-76.8,0.5-155,0.8-199.8,1.2C811.6,755.9,875,755.7,939.5,755.5z"/>
	<path class="st2" d="M870.5,658.8c-0.3-0.9-0.6-1.8-1.3-2.4c-0.6-0.4-1.3-0.5-2-0.6c-6-0.5-12.2-1-18.2-1.6c-0.3-0.1-0.7-0.1-1,0.2
		c-0.3,0.2-0.5,0.7-0.6,1.2c-3.5,19.1-4.4,38.8-2.6,58.1c8.9,2.8,18.3,3.2,27.3,1.3c0.5-0.1,1.1-0.3,1.4-0.7
		c0.2-0.3,0.3-0.7,0.3-1.1C875.4,695,876.1,676,870.5,658.8z"/>
	<path class="st1" d="M870.7,811.1c-3.3-0.1-4.2-0.2-7.5-0.3c-0.5-12.7-1-25.4-1.5-38.1c-0.2-4.4-0.3-8.8,0.7-13
		c1.2-4.9,4-9.4,5.4-14.2c3.6-12.4-2.9-27-14.6-32.4c6,0.2,12,0.4,18,0.6c2.1,0.1,4.4,0.2,6.3,1.1c4.4,2.2,5.4,8,5.7,12.9
		c0.2,4,0.4,8-0.2,12c-0.7,5-2.6,9.6-4.1,14.4C872.9,772.4,870.4,791.8,870.7,811.1z"/>
	<path class="st3" d="M842.7,655.9c0.7-1.3,1.7-2.1,3.3-2.2c0.7,0,1.4,0.1,2.1,0.2c2.5,0.4,4.8-0.7,6.4,1.7c1.2,1.8,1.1,4.2,1.3,6.3
		c0.9,7.7,0.3,15.5-0.3,23.2c-1,13.3-2.2,26.5-3.7,39.7c-0.1,1-0.2,2.1-0.9,2.9c-0.6,0.9-1.7,1.3-2.7,1.6c-3.4,1.1-6.8,2.1-10.4,2.1
		c-3.6-0.1-7.2-1.3-9.4-4c6.7-15.5,4.6-33.4,8.5-49.7c1.1-4.8,2.8-9.4,4-14.1C841.5,661.4,841.6,658.1,842.7,655.9z"/>
	<path class="st4" d="M874.8,663.7c-0.2,0.4-0.3,1-0.4,1.4c-1,10.4,2.1,19.6,4.6,29.6c2.7,10.9,6.5,22,5.6,33.3c0,0.2,0,0.4,0.1,0.6
		c0.1,0.1,0.3,0.1,0.5,0.1c0.7,0,1.3,0,2,0c-0.1,0.7,0.6,1.3,1.3,1.3c0.7-0.1,1.3-0.6,1.5-1.3c0.3-0.6,0.3-1.3,0.3-2
		c0-1.3-0.6-2.8-0.6-4.3c-0.1-1.7-0.1-3.4-0.2-5.1c-0.1-2.4-0.1-4.8-0.3-7.1c-0.5-5.7-1.3-11.4-2.3-17.1c-1.1-5.6-2.5-11.2-4.1-16.7
		c-1.3-4.1-1.8-10.7-5.9-13c-0.4-0.2-0.8-0.4-1.2-0.3C875.3,663.1,875.1,663.3,874.8,663.7z"/>
	<path class="st1" d="M835.2,713.4c-0.8,0.6-1.2,1.6-1.6,2.5c-3.3,7.8-5.6,16.3-5,24.7c0.3,4,1.3,8,3.8,11c3.7,4.3,9.8,5.2,15.3,5.6
		c7.3,0.7,15.2,1.5,20.5,6.7c6.3,6.2,7,16.3,7.2,25.4c0.2,7.6,0.4,15.3,0.6,22.9c1.9,0.4,3.9,0.5,5.9,0.3
		c1.1-21.7,2.1-43.4,0.5-64.9c-0.5-5.7-1.3-11.8-4.8-16.1c-3.7-4.4-9.6-6.3-13-10.9c-1.1-1.5-1.9-3.3-3.2-4.6
		c-2-2.1-4.8-3.1-7.7-3.7c-5.3-1.1-10.8-1.1-16.1,0.1C836.9,712.6,835.9,712.8,835.2,713.4z"/>
	<path class="st1" d="M872.4,812.6c-0.4-1-1-1.8-1.8-2.4c-1-0.6-2.2-0.6-3.4-0.6c-1.3,0-3-0.3-3.2,1.5c-0.2,1.7,0.5,4.1,1.1,5.6
		c1,2.3,3,4.3,5.5,4.7c1.1,0.2,2.5-0.1,2.9-1.1c0.1-0.3,0.2-0.7,0.2-1C873.7,817,873.3,814.7,872.4,812.6z"/>
	<path class="st1" d="M885.7,819.8c0.5-2.4,0-5-1.3-7c-0.3-0.6-0.8-1.1-1.3-1.4c-0.8-0.5-1.8-0.5-2.7-0.5s-2.9-0.3-3.7,0.2
		c-1.5,1-0.2,4.6,0.3,5.6c0.6,1.3,1.3,2.6,2.2,3.6c1,1.1,2.2,1.8,3.7,1.9c0.6,0.1,1.3-0.1,1.8-0.5
		C885.2,821.4,885.6,820.6,885.7,819.8z"/>
	<path class="st4" d="M854.4,670.5c-0.5-2-1-4.1-2.2-5.8c-1.3-1.7-3.3-2.9-5.4-2.5s-3.6,2.4-4,4.4c-0.5,2-0.1,4.2,0.3,6.3
		c2,10.5,5.5,20.7,8.9,30.7c0.9,2.4,1.7,4.8,3.1,6.9c1.5,2.2,3.6,4,5.7,5.7c3.7,3,7.5,6.1,11.2,9.2c1.7,1.3,3.6,1.7,5.3,0.2
		c0.6-0.5,0.9-1.5,0.4-2.1c-0.1-0.2-0.3-0.3-0.5-0.3c-0.1-0.1-0.3-0.1-0.4-0.2c-0.1-0.2-0.1-0.4-0.1-0.6c0.2-1.9-1.3-1.8-2.4-2.2
		c-1.3-0.5-2-1.1-2.9-2.2c-3.8-4.6-7.7-9.3-11.4-13.9c-1.1-1.3-2.2-2.6-2.6-4.3c-0.3-1.2-0.3-2.5-0.3-3.7
		C857.1,687.5,856.2,678.9,854.4,670.5z"/>
	<path class="st4" d="M862.8,619.4c-2.1-1.1-4.6-1-6.9-0.7c-1.3,0.2-2.7,0.4-3.8,1.2c-1,0.7-1.6,1.7-2.1,2.8
		c-3.6,7.3-2.1,16.1,1.1,23.5c0.5,1,0.9,2,1.7,2.7c0.9,0.9,2.1,1.3,3.3,1.6c2.2,0.6,4.4,0.9,6.7,0.9c0.7,0,1.4-0.1,1.9-0.3
		c1-0.4,1.6-1.3,2.1-2.2c3.2-5.4,4.6-11.8,4-18c-0.1-1.1-0.3-2.2-0.7-3.3c-0.8-2.1-2.4-3.8-4-5.4C865.1,621.1,864,620.1,862.8,619.4
		z"/>
	<path class="st5" d="M868.2,645.1c0.9-4,1.2-8.3,0.9-12.4c-0.2-2.9-1.4-6.5-4.4-7c-1.7-0.3-3.3,0.7-4.8,1.6c-1.5,1-3,1.9-4.1,3.3
		c-0.9,1.1-1.3,2.5-1.7,3.9c-1.3,4.6-1.3,9.5-1.3,14.4c0,4.6,0,9.2,0.1,13.7c-3.5-0.8-7.1-0.7-10.6,0.2c-5.7-12.2-6.3-26.8-1.6-39.5
		c1.4-3.8,3.4-7.7,6.7-10.1c6.7-5,17.3-2.1,21.7,5c2.5,4.1,3.2,9.1,3.4,13.9c0.2,3.9,0.2,7.8,0,11.7c-0.3,4.8-1.3,10.2-5.2,12.8
		C866,653.1,867.5,649,868.2,645.1z"/>
	<path class="st4" d="M929.6,629.8c0-6.2-5.4-11.2-12.1-11.2c-6.7,0-12.1,5-12.1,11.2c0,1,0.2,2,0.5,3c0,0.2,0,0.5,0,0.7
		c-0.1,2.2,0.1,4.5,0.5,6.7c0.9,4.3,3,8.3,7.3,10.7c1.4,0.8,3,1.4,4.7,1.4c2.2,0,4.4-1.2,5.9-2.6c5.2-4.8,5.6-11.9,5.2-18.6
		C929.5,630.7,929.6,630.3,929.6,629.8z"/>
	<path class="st6" d="M892,695.1c0.1-0.3,0.1-0.6,0.2-1c2.2-10.8,1.8-22.1,5.4-32.5c0.8-2.2,1.7-4.4,3.6-6c2.1-1.8,5.4-2.6,8.1-2.7
		c2.8-0.1,5.1,1.5,7.7,1.8c5.7,0.7,14-4.2,18.4,1.7c1.5,2,1.9,4.5,2.3,7c2.8,17.6,5.9,35.3,8.5,53c0.9,5.6,1.3,9.8-4.8,12
		c-8.1,2.9-17.5,2.2-26,2.2c-3.8-0.2-7.5-1-11.2-1.5c-3.4-0.5-6.5-0.2-9.9-1.2c-2-0.6-3.9-1.2-5.9-1.7c-0.4-0.1-0.9-0.3-1.1-0.6
		c-0.3-0.4-0.5-0.9-0.5-1.4C885.8,714.4,889.8,704.9,892,695.1z"/>
	<path class="st1" d="M895.1,801.1c-0.2-0.7-0.2-1.3-0.3-1.8c-0.7-4.8-0.9-9.6-1.3-14.4c-0.9-9.4-1.7-18.9-2.6-28.3
		c-0.9-8.8-1.8-17.6-1.1-26.5c0.2-2.7,0.7-5.5,2.3-7.7c3.3-4.4,13.1-3.3,15.9,1c1.3,2,1.7,4.4,1.9,6.8c1.5,14.2-1.9,28.3-4.6,42.1
		c-1.9,10.2-3.1,20.3-3.2,30.6c0-0.1-5.5,0.6-5.9,0.4C895.7,803,895.3,802,895.1,801.1z"/>
	<path class="st1" d="M941.6,737.3c0.1-3.4-0.1-6.8-0.9-10.2c-0.5-2.1-1.4-4.2-3.2-5.5c-2-1.4-4.7-1.3-7.1-1
		c-4.1,0.6-8.7,2.6-9.5,6.6c-0.2,1.1-0.2,2.2-0.1,3.4c1.3,18.2,5.4,35.9,7.1,54.1c0.3,3.5,0.7,7,1,10.5c0.2,1.8,0.3,3.7,1.5,5.2
		c2.2,2.9,5.3,1.4,6-1.3c1-3.8,0.8-8.6,1.2-12.6c0.8-8.5,1.7-17,2.4-25.6C940.8,753.1,941.5,745.2,941.6,737.3z"/>
	<path class="st1" d="M947.1,720.9c-4.5-1.9-9.6-2.4-14.4-1.3c-0.9-0.2-1.8-0.3-2.8-0.5c-6.7-0.8-13.3-1.6-20-0.6
		c-7.9,1.2-16.3,6.9-11.4,15.5c0.8,1.3,1.7,2.8,3,3.6c1.4,0.9,3.2,0.8,4.8,0.7c6.4-0.2,12.7-0.4,19.1-0.6c2.5-0.1,5-0.2,7.4-1
		c1.8-0.6,3.6-1.7,4.7-3.2c1.7-0.7,3.2-1.6,4.6-2.6c1.1-0.9,2.2-1.8,3-3C946.7,726,947.4,723.5,947.1,720.9z"/>
	<path class="st7" d="M947.6,685.1c-1.3-4.3-1.7-8.6-3.3-12.9c-1.7-4.9-4.1-9.8-7.9-13.3c-2.5-2.4-6.3-4.1-9.5-2.6
		c-3.2,1.4,0.7,7.8,1.5,9.8c3.2,7.5,6.3,14.9,9.5,22.3c0.2,0.3,0.3,0.7,0.6,0.9s0.7,0.2,1.1,0.2c2-0.1,4-0.2,6-0.3
		c0.6,0,1.1-0.1,1.6-0.4c1-0.7,0.8-2.3,0.4-3.5C947.6,685.2,947.6,685.2,947.6,685.1z"/>
	<path class="st4" d="M901.5,711.4c-0.3-1.4-0.5-2.9-0.6-4.3c-0.6-7.4-1.3-14.8-0.9-22.2c0-0.5,0.1-1-0.2-1.4c-0.5-1-1.8-1-2.9-0.8
		c-1.5,0.2-3,0.5-4.4,0.8c0.1,3.4,0.7,6.7,1.8,9.8c1.3,6.9,4.2,13.7,4,20.7c0,0.8,0.1,1.8,0.9,2c0.9,0.2,1.9-0.7,2.5-0.1
		C902.4,714.5,901.9,712.8,901.5,711.4z"/>
	<path class="st7" d="M896.7,660c-3.7,7.9-5.9,17.8-4.8,26.5c3.7-0.1,7.5-0.3,11.2-0.7c0.9-9.3,1.5-18.6,1.8-27.9
		c0.1-2.8-2.8-3.7-5.1-2.3c-1.3,0.9-2.1,2.3-2.8,3.7C896.8,659.5,896.7,659.7,896.7,660z"/>
	<path class="st4" d="M962.4,658.9c0.4-0.6,1-1.1,1.7-1c0.2,0.1,0.4,0.2,0.5,0.3c0.7,0.6,1.3,1.3,1.3,2.2c0.2,1.3-0.7,2.5-1.7,3.4
		c-0.3,0.3-0.7,0.7-1.2,0.7c-0.6,0.1-1.2-0.4-1.6-0.9c-0.5-0.6-1-1.3-0.9-2.1c0.1-0.6,0.5-1.1,0.8-1.5
		C961.7,659.9,962.1,659.4,962.4,658.9z"/>
	<path class="st4" d="M960.5,672.5c-0.1,0.2-0.2,0.5-0.3,0.7c-2.2,5.8-4.8,11.4-7.9,16.8c-0.7,1.3-1.5,2.6-2.6,3.6
		c-3.4,2.9-6.5,2.1-9.1-1.3c-0.6-0.8-2.3-4.4-3-4.4c2.6,0.3,5.6,0.5,7.5-1.4c0.9-0.9,1.3-2.1,1.9-3.3c3.4-7.3,8.9-14.5,14-20.7
		c1.3-1.6,2.2,3,2.1,3.6C962.8,668,961.4,670.4,960.5,672.5z"/>
	<path class="st8" d="M898.1,730.7c-4.8,0-9.7,0.2-14.5,0.8c-1,0.1-2.1,0.2-3.1,0.1c-1.7-0.3-3-1.3-4.4-2.2
		c-3.6-2.5-7.1-5.2-10.4-8.1c13.6-1.7,27.3-3.1,40.9-4.4c0.4-0.1,0.8-0.1,1.1,0c0.5,0.1,0.9,0.5,1.3,0.9c2,1.8,4,3.7,6.1,5.4
		s4.8,2.9,6.7,4.7c2.8,2.5-2.5,2.6-4.2,2.8c-3,0.3-6.1,0.3-9.2,0.3C905,730.9,901.5,730.7,898.1,730.7z"/>
	<path class="st8" d="M875.1,691.2c-0.3,12.2,0.3,24.2,2,36.1c0.2,1.1,0.3,2.4,1.3,3.1c1.1,1,2.9,1,4.4,0.9c9.4-0.5,18.8-1,28.2-1.4
		c3.4-0.2,6.8-0.3,10.1-1.2c0.6-0.2,1.3-0.3,1.7-0.8c0.5-0.5,0.6-1.1,0.7-1.7c1-6.9,1.6-13.9,1.8-20.8c0.1-3.9,0.1-7.8,0.1-11.6
		c-0.1-4.4-1.7-6.1-6.3-5.7c-4.8,0.5-9.8,0.3-14.6,0.6C901.8,688.7,875.1,690.4,875.1,691.2z"/>
	<path class="st9" d="M905,715c-2.8-0.3-5.5-0.3-8.3,0c1.6-3,3-6.1,4.2-9.3c0.4,1.3,0.9,2.7,1.5,4C903.3,711.6,904.3,713.3,905,715z
		"/>
	<path class="st1" d="M910.3,649.1c-2.6-6.3-4-13.5-1.3-19.8c1.5-3.3,4-5.7,6.3-8.4c1.7-2.1,2.4-1.1,4.4,0.5
		c3.4,2.8,6.7,6.3,7.5,10.7c0.8,4.1,0.9,8.4,0.6,12.6c-0.1,1.3-1,4,0.2,4.8c1.1,0.8,4.8,0.1,6.2,0.1c0.4,0,0.8,0,1.1-0.2
		c1.3-0.7,0.3-4.6,1.2-6c1.2-2,2.2-4.3,1.1-6.7c-0.2-0.5-0.6-0.9-0.9-1.4c-0.4-0.6-0.7-1.3-1-2c-1.1-2.9-1.8-5.6-2.5-8.6
		c-0.9-3.2-2.3-6.9-5.1-9c-2-1.5-4.6-2-7.1-2.4c-1.7-0.3-3.3-0.5-5-0.4c-4.8,0.3-8.9,3.6-11.5,7.5c-1.3,2-1.7,4.2-2.8,6.4
		c-1.1,2.1-2.5,4.3-2,6.7c0.3,1.6,1.4,3.2,1.1,4.8c-0.3,1.2-1.3,2-2,2.9c-1,1.2-1.7,2.6-1.7,4.2s0.9,3.1,2.2,3.7
		c0.9,0.4,2,0.3,3,0.3C904.9,649.4,907.6,649.2,910.3,649.1z"/>
</g>
</svg>
