<?xml version="1.0" encoding="utf-8"?>
<!-- Generator: Adobe Illustrator 21.1.0, SVG Export Plug-In . SVG Version: 6.00 Build 0)  -->
<svg version="1.1" id="Layer_1" xmlns="http://www.w3.org/2000/svg" xmlns:xlink="http://www.w3.org/1999/xlink" x="0px" y="0px"
	 viewBox="0 0 1297 549" style="enable-background:new 0 0 1297 549;" xml:space="preserve">
<style type="text/css">
	.st0{fill:#F2F4F7;}
	.st1{fill:#3C444C;}
	.st2{fill:#DDE1E7;}
	.st3{fill:#CDCCC7;}
	.st4{fill:#F9E9DE;}
	.st5{fill:#F2D292;}
	.st6{fill:#AA6A64;}
	.st7{fill:#AF716D;}
	.st8{fill:#03A678;}
	.st9{fill:#F1F1F2;}
</style>
<path class="st0" d="M172.5,226.4c-30.2,17.1-59.6,34.4-89.3,51.6c-0.5,0.3,0.8,0.6,1.3,0.3c30-17.1,60.4-34.2,90-51.4
	C175.3,226.3,173.3,225.8,172.5,226.4z"/>
<path class="st0" d="M182.1,205.7c-16.7,8.8-31.8,18.2-48.1,27.1c-17.6,9.6-35.5,19.1-53.8,28.5c-0.5,0.3,0.4,0.7,1.1,0.4
	c18.1-9.1,36-18.4,53.5-27.9c16.8-9.1,34.5-18,49.4-27.5C185,205.8,183.1,205.2,182.1,205.7z"/>
<path class="st0" d="M391.5,36.6c-25.6,15.7-51.7,31.1-78.1,46.5c-1.2,0.7,1.4,1.2,2.6,0.6c27.4-15.1,53.3-30.7,77.5-46.7
	C394.3,36.6,392.4,36.1,391.5,36.6z"/>
<path class="st0" d="M389.4,59.6c-15.6,12.1-33.9,23.4-54.8,34.1c-1.2,0.5,0.9,1.4,2,0.9c20.5-10.8,38.7-22.4,54.3-34.5
	C391.4,59.6,389.9,59.2,389.4,59.6z"/>
<path class="st0" d="M359,175.4c-16.2,11.4-32.4,22.9-48.5,34.2c-1.1,0.7,1.7,1.3,2.6,0.6c15.9-11.5,32-22.9,47.9-34.4
	C361.8,175.3,359.7,174.9,359,175.4z"/>
<path class="st0" d="M379.7,185.9c-13.9,11.3-29.6,22.1-46.2,32.7c-1.2,0.8,1.7,1.5,3,0.7c16.7-10.5,31.6-21.6,45.4-32.9
	C382.6,185.9,380.5,185.4,379.7,185.9z"/>
<path class="st0" d="M393.6,6.1c-32.1-0.3-64.2,0.3-96.3,0.2c-33.1-0.2-66.4-0.2-99.6-0.2c-32.2,0-64.4-0.1-96.7,0.2
	C69,6.5,32.2,5.7,0.3,6.1L0,26.2c34.6-0.5,69.2,0.4,103.8-0.1c9.5,0.2,18.9-0.2,28.4-0.1c28.8,0.4,57.7,0.2,86.5,0.2
	c54.7,0,106.9-0.4,164.1-0.1c29.3,0.4,58.5-0.3,87.8,0l19.3-0.1V6.4C458,5.8,425.8,6.4,393.6,6.1z"/>
<path class="st0" d="M393.6,301.6c-32.1-0.3-64.2,0.3-96.3,0.2c-33.1-0.2-66.4-0.2-99.6-0.2c-32.2,0-64.4-0.1-96.7,0.2
	C69,302,32.2,301.2,0.3,301.6L0,321.8c34.6-0.5,69.2,0.4,103.8-0.1c9.5,0.2,18.9-0.2,28.4-0.1c28.8,0.4,57.7,0.2,86.5,0.2
	c54.7,0,106.9-0.4,164.1-0.1c29.3,0.4,58.5-0.3,87.8,0l19.3-0.1v-19.7C458,301.3,425.8,301.9,393.6,301.6z"/>
<path class="st0" d="M465,248.7c0.3-18.7-0.3-37.5-0.1-56.3c0.1-19.4,0.1-38.9,0.1-58.2c0-18.9,0-37.7-0.1-56.6
	c-0.3-18.7,0.5-40.3,0.1-59.1l-21.3-0.2c0.5,20.2-0.4,40.5,0.1,60.7c-0.3,5.5,0.3,11.1,0.1,16.6c-0.4,16.9-0.1,33.8-0.1,50.6
	c0,32,0.4,62.6,0.1,96c-0.4,17.2,0.4,34.2,0,51.4l0.1,11.3H465C465.4,286.3,464.8,267.5,465,248.7z"/>
<path class="st0" d="M253.7,248.7c0.3-18.7-0.3-37.5-0.1-56.3c0.1-19.4,0.1-38.9,0.1-58.2c0-18.9,0-37.7-0.1-56.6
	c-0.3-18.7,0.5-40.3,0.1-59.1l-21.3-0.2c0.5,20.2-0.4,40.5,0.1,60.7c-0.3,5.5,0.3,11.1,0.1,16.6c-0.4,16.9-0.1,33.8-0.1,50.6
	c0,32,0.4,62.6,0.1,96c-0.4,17.2,0.4,34.2,0,51.4l0.1,11.3h20.8C254.1,286.3,253.4,267.5,253.7,248.7z"/>
<path class="st0" d="M121.8,168.1c27,0.2,53.8-0.2,80.7-0.1c27.9,0.1,55.8,0.1,83.5,0.1c27.1,0,54,0,81.1-0.1
	c27-0.2,57.9,0.3,84.7,0.1l0.3-12.6c-29.1,0.3-58-0.2-87.1,0.1c-7.9-0.2-15.9,0.2-23.8,0.1c-24.2-0.2-48.4-0.1-72.7-0.1
	c-45.9,0-89.7,0.2-137.8,0.1c-24.6-0.2-49.2,0.2-73.8,0l-16.3,0.1v12.4C67.6,168.3,94.7,167.9,121.8,168.1z"/>
<path class="st0" d="M43.5,248.7c0.3-18.7-0.3-37.5-0.1-56.3c0.1-19.4,0.1-38.9,0.1-58.2c0-18.9,0-37.7-0.1-56.6
	c-0.3-18.7,0.5-40.3,0.1-59.1l-21.3-0.2c0.5,20.2-0.4,40.5,0.1,60.7c-0.3,5.5,0.3,11.1,0.1,16.6c-0.4,16.9-0.1,33.8-0.1,50.6
	c0,32,0.4,62.6,0.1,96c-0.4,17.2,0.4,34.2,0,51.4l0.1,11.3h20.9C43.8,286.3,43.1,267.5,43.5,248.7z"/>
<path class="st0" d="M848.7,53.5c0-0.6-0.7-1-1.5-1c-28.5-0.2-56.9-0.2-85.5,0c-0.7,0-1.5,0.5-1.5,1c1.2,25.7-0.6,51.3,0,77
	c0,0.3,0.1,0.5,0.3,0.6c0,0,0,0.1,0.1,0.1c0.3,0.2,0.6,0.3,1,0.3c28.8,0.2,57.7,0.4,86.4-0.3c0.9,0,1.5-0.5,1.5-1
	C850.8,104.6,848.7,79,848.7,53.5z"/>
<path class="st0" d="M714.3,125.1c-24.4-0.2-48.8-0.2-73.2,0c-0.7,0-1.3,0.4-1.3,0.9c1,21.5-0.4,43,0,64.5c0,0.2,0.1,0.4,0.3,0.5
	c0,0,0,0.1,0.1,0.1c0.1,0.1,0.4,0.2,0.9,0.2c24.7,0.1,49.4,0.3,74.1-0.3c0.7,0,1.3-0.4,1.3-0.9c0.9-21.4-0.9-42.8-0.9-64.2
	C715.5,125.5,714.9,125.1,714.3,125.1z"/>
<path class="st0" d="M813.3,138.3c-24.4-0.2-48.8-0.2-73.2,0c-0.7,0-1.3,0.4-1.3,0.9c1,21.5-0.4,43,0,64.5c0,0.2,0.1,0.4,0.3,0.5
	c0,0,0,0.1,0.1,0.1c0.1,0.1,0.4,0.2,0.9,0.2c24.7,0.1,49.4,0.3,74.1-0.3c0.7,0,1.3-0.4,1.3-0.9c0.9-21.4-0.9-42.8-0.9-64.2
	C814.6,138.7,814,138.3,813.3,138.3z"/>
<path class="st0" d="M754.3,107.3c1,0,1.9-0.6,1.9-1.3c1.5-34.8-1.3-69.7-1.3-104.5c0-0.7-0.9-1.3-1.9-1.3c-38-0.3-75.9-0.3-113.9,0
	c-1,0-1.9,0.6-1.9,1.3c1.6,35-0.7,70,0,105c0,0.4,0.1,0.7,0.4,0.9c0.3,0.3,0.7,0.4,1.5,0.5C677.5,108,716,108.3,754.3,107.3z"/>
<path class="st0" d="M1285.9,394.9h-1.7l-15.5-13.1h-103.2l-3.8-7.2l-56.5,2.6v-18.1l191.8-2l-0.1-3.2c-0.1-1.6-5.5-151.9-6.1-166.7
	c-0.7-14.7,0-43.8,0-44l0.1-3.2L885,146.3v3.1c0.1,5.7,2.3,139.9,3.5,159.5c1.2,19.4,0,48.9,0,49.1l-0.1,3.2l201.8-2.1v18.6
	l-52.4,2.4l-0.8,1.6H906.5l-13.8,16.7h-2.1c1,20.9-1.5,43.6,0,64.5c1.3,18.9,3.7,37.2,2.5,57.1h21.2c-1.4-25.4-1.9-52.2-1.3-80.4
	c0.2-11.6,0.8-22.9,1.3-34.1c112.8-2.5,226.8-4.5,354,0c1.6,19.2-0.2,42.4,1.1,52.7c1.3,10.4-0.3,37.2-1.1,61.7c5.5,0,11.1,0,16.5,0
	c0,0,2.3-90.7,1.2-99.5C1284.9,411.9,1285.9,394.9,1285.9,394.9z"/>
<path class="st1" d="M521.8,519c0.1-2.8-0.1-6-2.2-7.9c-2.4-2.1-6.4-1.3-8.7,0.9c-2.3,2.2-3.3,5.5-4.1,8.5c-0.7,2.8-1.3,5.7-1.8,8.5
	c-0.6,3.4-0.9,7.2,1.1,10c2.6,3.7,8.7,3.8,11.4,0.3c1-1.3,1.5-2.9,2-4.4C520.9,529.8,521.6,524.5,521.8,519z"/>
<path class="st2" d="M521,531.5c-0.7,2.6-1.5,5.3-2.1,8c-2.6-2.4-6.1-4-9.6-4.5c-2.3-0.3-2.8-0.4-4.7,1c0.2-4.8-0.5-7,1-9.6
	c4.4-1.9,9.7-1.5,13.8,1c0.9,0.5,1.6,1.2,1.9,2.1C521.3,530.2,521.2,530.9,521,531.5z"/>
<path class="st1" d="M573.9,515.7c-1-2.6-2.4-5.6-5-6.4c-3.1-1-6.4,1.3-7.7,4.3c-1.3,3-0.9,6.3-0.4,9.5c0.4,2.9,1,5.7,1.6,8.6
	c0.8,3.3,2,7,4.9,8.8c3.8,2.4,9.6,0.1,10.7-4.2c0.4-1.6,0.3-3.2,0.1-4.9C577.4,526,575.8,520.8,573.9,515.7z"/>
<path class="st2" d="M578,527.5c0.3,2.7-0.3,5.1,0.2,7.9c-3.4-1.2-6.1-1-9.6-0.1c-2.2,0.6-2.8,0.8-4,2.7c-1.7-4.4-3.2-6.2-2.7-9.2
	c3.2-3.5,8.3-5.1,13.1-4.4c0.9,0.2,2,0.4,2.6,1.3C577.8,526.2,578,526.9,578,527.5z"/>
<path class="st3" d="M481.3,299.3c-1.1-1.1-2.8-1.4-4.4-1.6c-5.7-0.8-11.5-1.5-17.3-2.2c10.3,34.8,15.5,71,15.2,107.2
	c6.7-2,13.2-4.3,19.6-7c1.2-0.5,2.4-1,3.1-2c0.9-1.1,0.9-2.6,1-3.9c0.3-7.9-1.1-15.8-2.5-23.6c-3.9-21.2-7.8-42.4-13.2-63.4
	C482.6,301.5,482.2,300.2,481.3,299.3z"/>
<path class="st0" d="M818,477.3c-0.5,0-0.8,0-1.2,0c1.2-11.4,0.5-19.1,0.6-31.7c0,0,0,0,0.1,0c0-0.1,0-0.1-0.1-0.2
	c0-0.1,0-0.2,0-0.3h-0.1c-11.8-32.6-20.3-49.7-43.7-80.8c-1.8,0-3.7,0.1-5.6,0.1c0.9-38.8,0-63.7-0.2-106.3
	c-165.9,3.5-525.6-1.7-531.4,1.4c0.2,42.9,0.6,74.3,2,111.2c0.9,0,1.7,0,2.6,0c-9.1,30.2-17.8,50.8-23.3,78.9c0.8,0,1.6,0,2.4,0
	c-1.4,0-2.3,0.1-2.5,0.1c-0.1,12.8,0.1,22.2,1.2,33c-0.9,0-1.5,0-1.6,0c-0.2,3.3-0.1,5.7,1.2,8.5c12.1-0.1,24-0.2,35.7-0.3
	c-0.2,3.4-0.5,6.7-0.7,10.1c-0.3,4.4-1.5,7.6,4.1,8.1c1.9,0.2,3.9-0.1,5.7-0.6c0.9-0.2,1.8-0.5,2.5-1c1.4-1.2,0.6-7.6,0.7-9.5
	c0.2-2.5,0.3-4.9,0.5-7.4c183.3-1.7,318-2.8,493.5-4.4c-0.1,4.3-0.2,8.5-0.5,12.8c-0.2,4.4-1.2,7.6,4.3,8c1.9,0.1,3.9-0.2,5.7-0.8
	c0.9-0.2,1.8-0.5,2.4-1c1.4-1.2,0.3-7.6,0.5-9.5c0.1-3.2,0.2-6.4,0.3-9.6c14.4-0.1,29.1-0.2,44.1-0.5
	C818.6,482.6,817.8,480.6,818,477.3z M577.7,447.2c-116.3,0.7-234.6,1.2-302.4,1.8C384,447.8,480,447.5,577.7,447.2z"/>
<path class="st2" d="M473.2,300.8c-0.4-1.4-0.9-2.7-2-3.6c-0.9-0.6-2-0.8-3.1-0.9c-9.1-0.8-18.4-1.5-27.5-2.4
	c-0.5-0.1-1.1-0.1-1.5,0.3c-0.5,0.3-0.7,1.1-0.9,1.8c-5.3,28.9-6.7,58.7-4,88c13.4,4.2,27.7,4.9,41.3,2c0.8-0.2,1.6-0.4,2.1-1.1
	c0.3-0.5,0.4-1.1,0.4-1.7C480.6,355.6,481.7,326.9,473.2,300.8z"/>
<path class="st1" d="M473.5,531.3c-5-0.2-6.3-0.3-11.4-0.4c-0.8-19.2-1.5-38.4-2.3-57.7c-0.3-6.6-0.5-13.3,1-19.7
	c1.8-7.4,6-14.2,8.1-21.5c5.5-18.8-4.4-40.8-22.1-49.1c9.1,0.3,18.2,0.6,27.2,0.9c3.2,0.1,6.6,0.3,9.5,1.7
	c6.7,3.4,8.1,12.1,8.6,19.6c0.3,6.1,0.6,12.1-0.3,18.1c-1.1,7.5-4,14.6-6.2,21.8C476.8,472.7,473.1,502.2,473.5,531.3z"/>
<path class="st3" d="M431.2,296.4c1-1.9,2.6-3.2,5-3.3c1.1,0,2.1,0.2,3.2,0.3c3.8,0.6,7.3-1.1,9.7,2.6c1.8,2.7,1.6,6.4,1.9,9.5
	c1.3,11.7,0.4,23.5-0.4,35.1c-1.5,20.1-3.4,40.1-5.6,60.1c-0.2,1.5-0.3,3.2-1.3,4.4c-0.9,1.3-2.6,1.9-4.1,2.4
	c-5.1,1.7-10.3,3.2-15.7,3.2c-5.4-0.1-10.9-2-14.3-6.1c10.2-23.4,6.9-50.5,12.9-75.3c1.7-7.3,4.3-14.2,6.1-21.4
	C429.3,304.8,429.5,299.8,431.2,296.4z"/>
<path class="st4" d="M479.7,308.2c-0.3,0.6-0.5,1.5-0.6,2.1c-1.5,15.8,3.2,29.7,6.9,44.8c4.1,16.5,9.8,33.3,8.5,50.4
	c0,0.3,0,0.6,0.2,0.9c0.2,0.2,0.4,0.2,0.7,0.2c1,0,2,0,3,0c-0.2,1,0.9,2,2,1.9c1-0.1,1.9-0.9,2.3-1.9c0.4-0.9,0.4-2,0.4-3.1
	c0-2-0.9-4.3-0.9-6.5c-0.1-2.6-0.2-5.1-0.3-7.7c-0.2-3.6-0.2-7.2-0.4-10.8c-0.7-8.6-1.9-17.3-3.5-25.9c-1.6-8.5-3.8-17-6.2-25.3
	c-1.9-6.2-2.7-16.2-9-19.7c-0.6-0.3-1.2-0.6-1.8-0.5C480.4,307.3,480.1,307.6,479.7,308.2z"/>
<path class="st1" d="M419.8,383.4c-1.2,0.9-1.8,2.4-2.4,3.8c-5,11.8-8.5,24.6-7.6,37.4c0.4,6,2,12.1,5.8,16.6
	c5.6,6.5,14.9,7.8,23.1,8.5c11,1,23,2.2,31.1,10.2c9.6,9.4,10.6,24.7,10.9,38.5c0.3,11.5,0.6,23.1,0.9,34.6c2.9,0.6,5.9,0.8,8.9,0.4
	c1.6-32.8,3.2-65.7,0.7-98.3c-0.7-8.6-1.9-17.8-7.2-24.3c-5.6-6.7-14.6-9.5-19.7-16.5c-1.7-2.3-2.9-5-4.8-7c-3-3.2-7.3-4.7-11.6-5.6
	c-8-1.6-16.4-1.6-24.4,0.1C422.3,382.2,420.9,382.5,419.8,383.4z"/>
<path class="st1" d="M476.1,533.6c-0.6-1.5-1.5-2.8-2.8-3.6c-1.5-0.9-3.4-0.9-5.2-0.9c-2,0-4.6-0.4-4.9,2.2
	c-0.3,2.6,0.7,6.2,1.7,8.5c1.5,3.5,4.5,6.5,8.3,7.1c1.6,0.3,3.8-0.1,4.4-1.6c0.2-0.4,0.3-1,0.3-1.5
	C478.1,540.3,477.5,536.8,476.1,533.6z"/>
<path class="st1" d="M496.2,544.5c0.8-3.6,0-7.5-2-10.6c-0.5-0.9-1.2-1.6-2-2.1c-1.2-0.7-2.7-0.8-4.1-0.8c-1.3,0-4.4-0.4-5.6,0.3
	c-2.3,1.5-0.3,6.9,0.5,8.5c0.9,2,1.9,3.9,3.3,5.5c1.5,1.6,3.4,2.8,5.6,2.9c0.9,0.1,2-0.1,2.7-0.7C495.5,546.9,496,545.7,496.2,544.5
	z"/>
<path class="st4" d="M448.8,318.5c-0.7-3.1-1.5-6.2-3.3-8.8c-1.9-2.6-5-4.4-8.2-3.8c-3.2,0.6-5.4,3.6-6.1,6.7
	c-0.7,3.1-0.2,6.3,0.4,9.5c3.1,15.9,8.3,31.3,13.5,46.5c1.3,3.7,2.5,7.3,4.7,10.5c2.3,3.4,5.5,6.1,8.6,8.6
	c5.6,4.6,11.3,9.3,16.9,13.9c2.5,2,5.4,2.6,8,0.3c0.9-0.8,1.3-2.2,0.6-3.2c-0.2-0.3-0.5-0.4-0.8-0.5c-0.2-0.1-0.4-0.1-0.6-0.3
	c-0.2-0.3-0.2-0.6-0.1-0.9c0.3-2.9-2-2.7-3.6-3.4c-1.9-0.8-3-1.7-4.4-3.3c-5.8-7-11.6-14.1-17.3-21.1c-1.6-2-3.3-4-4-6.5
	c-0.5-1.8-0.4-3.8-0.4-5.6C452.9,344.2,451.6,331.2,448.8,318.5z"/>
<path class="st4" d="M461.5,241.2c-3.2-1.6-7-1.5-10.5-1.1c-2,0.3-4.1,0.6-5.7,1.8c-1.5,1-2.4,2.6-3.2,4.2
	c-5.4,11-3.2,24.3,1.7,35.5c0.7,1.5,1.4,3,2.6,4.1c1.4,1.3,3.2,2,5,2.4c3.3,0.9,6.7,1.3,10.2,1.3c1,0,2.1-0.1,2.9-0.4
	c1.5-0.6,2.4-2,3.2-3.3c4.8-8.1,6.9-17.9,6-27.2c-0.2-1.7-0.4-3.4-1-5c-1.2-3.2-3.7-5.8-6.1-8.2C465,243.7,463.4,242.2,461.5,241.2z
	"/>
<path class="st5" d="M469.8,280c1.4-6.1,1.8-12.6,1.3-18.8c-0.3-4.4-2.1-9.8-6.6-10.6c-2.6-0.4-5,1-7.3,2.4c-2.3,1.5-4.6,2.9-6.2,5
	c-1.3,1.7-2,3.8-2.6,5.9c-2,7-1.9,14.4-1.9,21.8c0,6.9,0,13.9,0.1,20.8c-5.3-1.2-10.8-1.1-16.1,0.3c-8.7-18.5-9.6-40.6-2.4-59.8
	c2.1-5.8,5.2-11.6,10.2-15.3c10.2-7.5,26.2-3.2,32.8,7.6c3.8,6.2,4.8,13.8,5.2,21.1c0.3,5.9,0.3,11.8,0,17.7
	c-0.4,7.3-1.9,15.5-7.9,19.4C466.4,292.1,468.6,285.9,469.8,280z"/>
<path class="st4" d="M562.6,256.9c0-9.4-8.2-17-18.3-17c-10.1,0-18.3,7.6-18.3,17c0,1.5,0.3,3.1,0.7,4.5c0,0.3,0,0.8,0,1.1
	c-0.1,3.4,0.1,6.8,0.8,10.2c1.3,6.5,4.6,12.6,11,16.2c2.1,1.2,4.5,2.1,7.1,2.1c3.4,0,6.6-1.8,8.9-3.9c7.9-7.2,8.5-18,7.9-28.2
	C562.5,258.2,562.6,257.6,562.6,256.9z"/>
<path class="st6" d="M505.8,355.8c0.1-0.5,0.2-0.9,0.3-1.5c3.3-16.3,2.7-33.5,8.2-49.2c1.2-3.3,2.6-6.7,5.4-9.1
	c3.2-2.7,8.1-3.9,12.2-4.1c4.2-0.1,7.7,2.2,11.7,2.8c8.7,1.1,21.2-6.3,27.8,2.5c2.2,3,2.9,6.8,3.5,10.6c4.3,26.7,8.9,53.5,12.9,80.3
	c1.3,8.5,1.9,14.9-7.3,18.2c-12.3,4.4-26.5,3.3-39.3,3.3c-5.7-0.3-11.4-1.5-17-2.2c-5.1-0.7-9.8-0.3-15-1.8c-3-0.9-5.9-1.8-8.9-2.6
	c-0.6-0.2-1.3-0.4-1.7-0.9c-0.5-0.6-0.7-1.4-0.7-2.1C496.4,385,502.5,370.6,505.8,355.8z"/>
<path class="st1" d="M510.5,516.2c-0.3-1-0.3-2-0.4-2.8c-1.1-7.2-1.4-14.5-2-21.8c-1.3-14.3-2.6-28.6-4-42.9
	c-1.4-13.3-2.8-26.7-1.6-40.1c0.3-4.1,1-8.4,3.5-11.7c5-6.6,19.9-5,24.1,1.5c2,3.1,2.6,6.7,2.9,10.3c2.2,21.5-2.9,42.8-6.9,63.8
	c-2.9,15.5-4.7,30.7-4.8,46.3c0-0.2-8.3,0.9-8.9,0.6C511.3,519.1,510.8,517.6,510.5,516.2z"/>
<path class="st1" d="M580.9,419.7c0.1-5.1-0.1-10.3-1.3-15.4c-0.8-3.2-2.1-6.4-4.9-8.4c-3-2.1-7.1-2-10.8-1.5
	c-6.2,0.9-13.1,3.9-14.4,10c-0.3,1.7-0.3,3.4-0.2,5.1c1.9,27.5,8.1,54.4,10.8,81.9c0.5,5.3,1,10.6,1.5,15.9c0.3,2.7,0.5,5.6,2.2,7.9
	c3.4,4.4,8,2.1,9.1-2c1.5-5.8,1.2-13,1.8-19c1.2-12.9,2.5-25.8,3.7-38.7C579.6,443.6,580.7,431.6,580.9,419.7z"/>
<path class="st1" d="M589.2,394.8c-6.8-2.9-14.5-3.6-21.8-2c-1.4-0.3-2.8-0.5-4.2-0.7c-10.1-1.2-20.2-2.4-30.3-0.9
	c-12,1.8-24.7,10.4-17.3,23.5c1.2,2,2.5,4.3,4.5,5.5c2.1,1.3,4.9,1.2,7.3,1.1c9.7-0.3,19.2-0.6,28.9-0.9c3.8-0.1,7.6-0.3,11.2-1.5
	c2.7-0.9,5.4-2.6,7.1-4.8c2.5-1,4.8-2.4,6.9-4c1.7-1.3,3.3-2.7,4.6-4.5C588.5,402.5,589.6,398.7,589.2,394.8z"/>
<path class="st7" d="M589.9,340.6c-2-6.5-2.6-13-5-19.5c-2.6-7.4-6.2-14.8-12-20.2c-3.8-3.6-9.6-6.2-14.4-4
	c-4.9,2.1,1,11.8,2.3,14.9c4.8,11.3,9.6,22.5,14.4,33.8c0.3,0.5,0.5,1.1,0.9,1.4c0.5,0.3,1.1,0.3,1.7,0.3c3-0.2,6-0.3,9.1-0.4
	c0.9,0,1.7-0.1,2.4-0.6c1.5-1.1,1.2-3.5,0.6-5.3C589.9,340.7,589.9,340.7,589.9,340.6z"/>
<path class="st4" d="M520.1,380.4c-0.5-2.1-0.7-4.4-0.9-6.5c-0.9-11.2-1.9-22.4-1.3-33.6c0-0.7,0.1-1.5-0.3-2.1
	c-0.8-1.5-2.8-1.5-4.4-1.2c-2.3,0.3-4.5,0.8-6.7,1.2c0.2,5.1,1.1,10.2,2.8,14.9c2,10.4,6.3,20.7,6.1,31.3c0,1.2,0.2,2.7,1.3,3.1
	c1.3,0.3,2.9-1.1,3.8-0.2C521.5,385.1,520.7,382.6,520.1,380.4z"/>
<path class="st7" d="M512.8,302.6c-5.6,11.9-9,26.9-7.3,40.1c5.6-0.1,11.4-0.4,17-1c1.4-14.1,2.3-28.2,2.7-42.3
	c0.2-4.3-4.3-5.6-7.7-3.5c-2,1.3-3.2,3.5-4.3,5.6C513,301.9,512.9,302.2,512.8,302.6z"/>
<path class="st4" d="M612.3,301c0.6-0.9,1.5-1.7,2.5-1.5c0.3,0.1,0.6,0.3,0.8,0.5c1,0.9,1.9,2,2,3.4c0.3,2-1.1,3.8-2.5,5.1
	c-0.5,0.5-1.1,1-1.8,1.1c-0.9,0.1-1.8-0.6-2.4-1.4c-0.8-0.9-1.5-2-1.3-3.2c0.1-0.9,0.7-1.6,1.2-2.3
	C611.3,302.4,611.8,301.7,612.3,301z"/>
<path class="st4" d="M609.5,321.5c-0.2,0.3-0.3,0.7-0.4,1.1c-3.3,8.8-7.3,17.3-11.9,25.5c-1.1,2-2.2,3.9-3.9,5.4
	c-5.2,4.4-9.9,3.2-13.7-1.9c-0.9-1.2-3.5-6.7-4.5-6.7c3.9,0.4,8.5,0.7,11.3-2.1c1.4-1.4,2-3.2,2.9-5c5.1-11,13.5-22,21.2-31.3
	c1.9-2.4,3.3,4.5,3.2,5.4C613,314.8,610.8,318.4,609.5,321.5z"/>
<path class="st8" d="M515,409.7c-7.3,0-14.7,0.3-22,1.2c-1.5,0.2-3.2,0.3-4.7,0.1c-2.5-0.4-4.6-1.9-6.7-3.3
	c-5.5-3.8-10.7-7.9-15.7-12.3c20.6-2.5,41.3-4.7,61.9-6.7c0.6-0.1,1.2-0.1,1.7,0c0.8,0.2,1.4,0.8,2,1.4c3,2.8,6,5.6,9.2,8.2
	c3.2,2.6,7.3,4.4,10.2,7.1c4.2,3.8-3.8,3.9-6.3,4.2c-4.6,0.4-9.3,0.5-13.9,0.4C525.5,409.9,520.2,409.7,515,409.7z"/>
<path class="st8" d="M480.1,349.9c-0.4,18.4,0.5,36.6,3,54.7c0.3,1.7,0.5,3.6,1.9,4.7c1.6,1.5,4.4,1.5,6.7,1.3
	c14.3-0.7,28.5-1.5,42.7-2.1c5.1-0.3,10.3-0.5,15.3-1.8c0.9-0.3,1.9-0.5,2.5-1.2c0.7-0.8,0.9-1.7,1-2.6c1.5-10.5,2.4-21,2.7-31.5
	c0.2-5.9,0.2-11.8,0.1-17.6c-0.2-6.7-2.5-9.3-9.5-8.6c-7.3,0.8-14.8,0.5-22.1,0.9C520.6,346.1,480.1,348.6,480.1,349.9z"/>
<path class="st9" d="M525.5,385.9c-4.2-0.4-8.4-0.4-12.6,0c2.4-4.6,4.5-9.3,6.4-14.1c0.6,2,1.4,4.1,2.2,6.1
	C522.8,380.7,524.3,383.3,525.5,385.9z"/>
<path class="st1" d="M533.5,286.1c-4-9.5-6.1-20.5-1.9-29.9c2.2-5,6.1-8.6,9.6-12.7c2.6-3.2,3.7-1.7,6.6,0.7
	c5.1,4.3,10.1,9.5,11.4,16.2c1.2,6.2,1.3,12.7,0.9,19c-0.1,1.9-1.5,6.1,0.3,7.3c1.6,1.2,7.3,0.2,9.4,0.2c0.6,0,1.2,0,1.6-0.3
	c1.9-1.1,0.5-6.9,1.8-9.1c1.8-3.1,3.3-6.5,1.7-10.2c-0.3-0.8-0.9-1.4-1.4-2.1c-0.6-0.9-1-2-1.5-3c-1.7-4.4-2.7-8.5-3.8-13
	c-1.3-4.9-3.5-10.5-7.7-13.6c-3.1-2.2-7-3-10.8-3.6c-2.6-0.4-5-0.8-7.6-0.6c-7.3,0.5-13.5,5.4-17.4,11.3c-2,3-2.6,6.4-4.2,9.7
	c-1.6,3.2-3.8,6.5-3,10.2c0.4,2.4,2.1,4.8,1.6,7.2c-0.4,1.8-1.9,3.1-3.1,4.4c-1.5,1.8-2.6,4-2.6,6.3s1.3,4.7,3.4,5.6
	c1.4,0.6,3,0.5,4.5,0.4C525.3,286.5,529.4,286.3,533.5,286.1z"/>
</svg>
