<?xml version="1.0" encoding="utf-8"?>
<!-- Generator: Adobe Illustrator 23.0.2, SVG Export Plug-In . SVG Version: 6.00 Build 0)  -->
<svg version="1.1" id="Layer_1" xmlns="http://www.w3.org/2000/svg" xmlns:xlink="http://www.w3.org/1999/xlink" x="0px" y="0px"
	 viewBox="0 0 528 145" style="enable-background:new 0 0 528 145;" xml:space="preserve">
<style type="text/css">
	.st0{fill:#EFEFEF;}
	.st1{fill:#F2F4F7;}
	.st2{fill:#FFFFFF;}
	.st3{fill:#E8E8E8;}
</style>
<path class="st0" d="M34.9,93.1c1.5,4.2,2.1,8.6,2,13c0,1.6,0,3.6-0.2,5.6c0.4,0,0.8,0,1.3,0c-0.2-1.3-0.4-2.6-0.4-4
	c-0.2-5,0.4-10,0.6-15C37.1,92.5,36,92.8,34.9,93.1z"/>
<path class="st1" d="M40.1,94c-0.2-0.4-0.5-0.6-0.8-0.8c-0.2,4.5-0.7,9-0.6,13.6c0,1.6,0,3.4,0.3,5c1.7,0.2,3.3,0.8,3.9,2.2
	c0.7,1.4-0.3,4.5-2.2,4c-1.3-0.4-1.8-2.2-2.1-3.3c-0.2-0.6-0.3-1.2-0.5-1.8c-0.5,0-0.9,0-1.3,0c-0.1,0-0.2,0-0.3,0
	c-0.3,1.8-0.8,3.4-1.7,4.6c-1.4,1.7-4.2,1.5-4.8-0.8c-0.7-2.9,3.3-4.3,5.4-4.7c0.3-1.6,0.4-3.2,0.5-4.8c0.2-4.7-0.5-9.2-1.6-13.8
	c-0.1,0-0.3,0.1-0.4,0.1c1.6,6.1-1.4,11.6-4.6,16.7c-2.5,4-4.8,8.4-1.8,12.8c3.1,4.7,9.1,5.4,14.1,4.2c5.1-1.2,12-5,10.7-11.3
	c-0.8-3.5-3.9-7.1-6-9.9c-1.8-2.4-4.3-4.8-5.4-7.7C40.4,97.4,40.6,94.6,40.1,94z"/>
<path class="st0" d="M34.3,116.2c0.3-0.5,0.5-1.1,0.6-1.7c0.1-0.5,0.2-0.9,0.3-1.4c-1.4,0.3-3.2,0.8-3.3,1.5
	C31.2,116.9,33.1,117.1,34.3,116.2z"/>
<path class="st0" d="M41.5,116.5c1.6-1,0.6-2.4-0.6-2.8c-0.5-0.3-1-0.5-1.7-0.7c0.1,0.5,0.3,0.9,0.4,1.4
	C39.8,115.4,40.4,116.1,41.5,116.5z"/>
<path class="st2" d="M32.9,93.5c1,7.5-3.8,12.6-7.1,18.9c-1.8,3.4-2.4,7-0.6,10.5c4.3,8.1,14.8,8,22,4.3c3.5-1.8,6.8-4.7,7.3-8.8
	c0.6-4.6-2.9-8.8-5.4-12.3c-1.7-2.3-3.8-4.5-5.2-6.9c-1.4-2.3-1.1-3.6-1.5-6c-0.1-0.5,0-1-0.3-1.4c-0.1-0.2-0.3-0.4-0.5-0.5
	c-2.1-1.9-6.5-0.9-8.7-0.1c-0.1,0-0.1,0.1-0.1,0.1C31.9,91.9,32.1,93.3,32.9,93.5z M46.3,106c2.1,2.8,5.3,6.4,6,9.9
	c1.4,6.4-5.6,10.1-10.7,11.3c-5,1.2-11,0.5-14.1-4.2c-2.9-4.5-0.6-8.8,1.8-12.8c3.2-5.2,6.2-10.7,4.6-16.7c0.1,0,0.3-0.1,0.4-0.1
	c1.1,4.5,1.8,9.1,1.6,13.8c-0.1,1.6-0.2,3.2-0.5,4.8c-2.1,0.4-6,1.9-5.4,4.7c0.6,2.4,3.4,2.5,4.8,0.8c0.9-1.2,1.4-2.8,1.7-4.6
	c0.1,0,0.2,0,0.3,0c0.4,0,0.9,0,1.3,0c0.1,0.6,0.3,1.2,0.5,1.8c0.3,1.1,0.8,2.9,2.1,3.3c2,0.5,2.9-2.6,2.2-4c-0.6-1.4-2.3-2-3.9-2.2
	c-0.3-1.7-0.3-3.5-0.3-5c-0.1-4.5,0.5-9,0.6-13.6c0.3,0.2,0.6,0.4,0.8,0.8c0.4,0.7,0.3,3.4,0.7,4.3C42,101.1,44.4,103.5,46.3,106z
	 M37.6,107.7c0.1,1.3,0.2,2.7,0.4,4c-0.4,0-0.9,0-1.3,0c0.2-2,0.2-4.1,0.2-5.6c0.1-4.4-0.6-8.9-2-13c1.1-0.3,2.2-0.5,3.2-0.4
	C38,97.7,37.3,102.7,37.6,107.7z M35.2,113.1c-0.1,0.5-0.2,1-0.3,1.4c-0.1,0.6-0.3,1.2-0.6,1.7c-1.1,0.9-3,0.7-2.4-1.6
	C32,113.8,33.8,113.3,35.2,113.1z M39.3,113c0.6,0.1,1.2,0.3,1.7,0.7c1.2,0.4,2.2,1.8,0.6,2.8c-1.1-0.4-1.7-1.1-1.8-2.1
	C39.5,113.9,39.4,113.4,39.3,113z"/>
<path class="st3" d="M42.4,87.4c0.2-0.1,0.4-0.2,0.7-0.3c0.3-0.1,0.5-0.2,0.8-0.3c0.1-0.1,0.3-0.2,0.4-0.3c0.2-0.4-0.2-0.8-0.5-1
	c-0.2-0.1-0.5-0.3-0.7-0.4c0.3-0.3,0.6-0.6,0.8-1.1c0.1-0.4,0.2-0.8,0.1-1.2c-0.1-0.6-0.6-0.8-1-1c-0.1,0-0.2-0.1-0.3-0.1
	c0-0.2,0-0.3,0-0.5c-0.2-1.4-1.4-2.6-2.8-3c-1.4-0.4-2.9-0.1-4.2,0.5c-0.8,0.4-1.6,0.9-2.2,1.6c-0.4,0.6-0.8,1.6-0.5,2.3
	c-0.1,0-0.1,0-0.2,0.1c-0.4,0.2-0.8,0.3-1.1,0.8c-0.1,0.2-0.2,0.5-0.2,0.7c0,0.3,0.2,0.5,0.4,0.6c0.2,0.2,0.4,0.3,0.7,0.4
	c-0.4,0.2-0.8,0.4-1.1,0.8c-0.1,0.1-0.2,0.3-0.2,0.4c0,0.3,0.3,0.6,0.6,0.7c0.4,0.2,0.9,0.4,1.3,0.6c-1.7,0.3-3.5,1-2.8,2.3
	c0.9,1.8,5,1.4,7.3,1.1c0.1,0.1,0.3,0.2,0.6,0.2c1.5-0.1,6.7-0.3,6.4-2.4C44.3,88.1,43.5,87.7,42.4,87.4z"/>
<path class="st1" d="M18.6,61.4c9.9-9.8,24.5-13.7,35.5-6.5c8.6,5.6,13.5,16.6,17.4,27.4c2.1,5.6,4,11.4,4.8,17.5
	c0.1,1.1,0.2,2.3,0,3.4c-0.4,1.3-1.2,2.3-2.2,3.1c-2.7,2.3-6.1,2.9-9.4,3.4c-11,1.7-22.1,2.3-33.1,1.8C24.9,111.2,0,109.7,0,98.8
	c0-6.1,4.4-15,6.9-20.3C10,72.1,13.8,66.1,18.6,61.4z"/>
<path class="st1" d="M42.4,102c-0.8,0-1.5,0-2.2,0c-1.3-28,0.6-53.3-1.1-81.7c-0.3-4.4,1.5-8.7,1-13.1c-0.2-2.4-0.8-4.9,0.3-7.2
	c3.3,0,2.7,0.5,2.6,2.6c-0.2,1.8-0.3,3.5-0.4,5.2c-0.3,3.4-0.4,6.8-0.7,10.1c-0.4,6.8,0.9,13.6,0.6,20.4C42,51.9,41.8,65.6,42,79.2
	C41.9,81.2,42.1,102,42.4,102z"/>
<path class="st2" d="M32.8,104.5c-8.9-1.6-19.3-1.9-26.8-7.4c-0.5-0.4-1,0.5-0.5,0.8c7.5,5.7,17.9,6.4,26.9,8
	C33.4,106.2,33.8,104.7,32.8,104.5z"/>
<path class="st2" d="M38.6,103.9c-0.7,0.1-1.3,0.1-2,0.1c-0.8,0-0.8,1.3,0,1.3c0.7,0,1.3,0,2,0.1C39.6,105.5,39.6,103.8,38.6,103.9z
	"/>
<path class="st2" d="M70.1,101.1c-9.2,1.5-18.3,2.6-27.6,3.1c-0.5,0-0.6,0.8,0,0.9c9.3,0.2,18.9-0.6,28-2.5
	C71.4,102.4,71,100.9,70.1,101.1z"/>
<path class="st2" d="M72.9,103.1c-5.6,3.2-12.2,3.8-18.5,4.3c-5.9,0.5-11.8,0.6-17.7,0.3c-11.6-0.7-24-2.4-33.8-9
	c-0.3-0.2-0.6,0.3-0.3,0.5c9.6,7.1,22.5,8.7,34.1,9.5c11.6,0.7,26.1,1,36.8-4.6C74.1,103.7,73.5,102.7,72.9,103.1z"/>
<path class="st1" d="M16.4,128c-1.1,1.3-2.7,2.2-4,3.3c-0.6,0.6,0.3,1.4,0.9,0.9c1.1-1,2.5-2.3,4-2.6
	C18.8,129.2,17.4,126.9,16.4,128z"/>
<path class="st1" d="M24.7,132c-1.8,1.8-3.3,4-4.7,6.1c-0.3,0.5,0.4,1,0.8,0.6c1.7-1.8,3.6-3.4,5.4-5.2
	C27.1,132.5,25.6,131,24.7,132z"/>
<path class="st1" d="M33.6,134.4c-0.3,2.4-0.6,4.8-1.1,7.1c-0.2,0.8,1.1,1.2,1.2,0.3c0.5-2.4,1.2-4.8,1.9-7.2
	C36,133.4,33.7,132.9,33.6,134.4z"/>
<path class="st1" d="M47.4,142.7c-1-0.9-1.3-2.9-1.7-4.2c-0.5-1.4-0.9-2.9-1.4-4.3c-0.3-0.8-1.4-0.5-1.2,0.3c0.4,2,0.9,4.1,1.3,6.1
	c0.3,1.5,0.5,2.8,1.7,3.7C47.1,145.1,48.3,143.5,47.4,142.7z"/>
<path class="st1" d="M58.3,137.3c-2.6-1.1-5-2.9-6.7-5.1c-0.5-0.7-1.7,0-1.2,0.7c1.9,2.6,4.2,4.8,7,6.5
	C58.8,140.3,59.9,138,58.3,137.3z"/>
<path class="st0" d="M485.9,93.1c1.5,4.2,2.1,8.6,2,13c0,1.6,0,3.6-0.2,5.6c0.4,0,0.8,0,1.3,0c-0.2-1.3-0.4-2.6-0.4-4
	c-0.2-5,0.4-10,0.6-15C488.1,92.5,487,92.8,485.9,93.1z"/>
<path class="st1" d="M491.1,94c-0.2-0.4-0.5-0.6-0.8-0.8c-0.2,4.5-0.7,9-0.6,13.6c0,1.6,0,3.4,0.3,5c1.7,0.2,3.3,0.8,3.9,2.2
	c0.7,1.4-0.3,4.5-2.2,4c-1.3-0.4-1.8-2.2-2.1-3.3c-0.2-0.6-0.3-1.2-0.5-1.8c-0.5,0-0.9,0-1.3,0c-0.1,0-0.2,0-0.3,0
	c-0.3,1.8-0.8,3.4-1.7,4.6c-1.4,1.7-4.2,1.5-4.8-0.8c-0.7-2.9,3.3-4.3,5.4-4.7c0.3-1.6,0.4-3.2,0.5-4.8c0.2-4.7-0.5-9.2-1.6-13.8
	c-0.1,0-0.3,0.1-0.4,0.1c1.6,6.1-1.4,11.6-4.6,16.7c-2.5,4-4.8,8.4-1.8,12.8c3.1,4.7,9.1,5.4,14.1,4.2c5.1-1.2,12-5,10.7-11.3
	c-0.8-3.5-3.9-7.1-6-9.9c-1.8-2.4-4.3-4.8-5.4-7.7C491.4,97.4,491.6,94.6,491.1,94z"/>
<path class="st0" d="M485.3,116.2c0.3-0.5,0.5-1.1,0.6-1.7c0.1-0.5,0.2-0.9,0.3-1.4c-1.4,0.3-3.2,0.8-3.3,1.5
	C482.2,116.9,484.1,117.1,485.3,116.2z"/>
<path class="st0" d="M492.5,116.5c1.6-1,0.6-2.4-0.6-2.8c-0.5-0.3-1-0.5-1.7-0.7c0.1,0.5,0.3,0.9,0.4,1.4
	C490.8,115.4,491.4,116.1,492.5,116.5z"/>
<path class="st2" d="M483.9,93.5c1,7.5-3.8,12.6-7.1,18.9c-1.8,3.4-2.4,7-0.6,10.5c4.3,8.1,14.8,8,22,4.3c3.5-1.8,6.8-4.7,7.3-8.8
	c0.6-4.6-2.9-8.8-5.4-12.3c-1.7-2.3-3.8-4.5-5.2-6.9c-1.4-2.3-1.1-3.6-1.5-6c-0.1-0.5,0-1-0.3-1.4c-0.1-0.2-0.3-0.4-0.5-0.5
	c-2.1-1.9-6.5-0.9-8.7-0.1c-0.1,0-0.1,0.1-0.1,0.1C482.9,91.9,483.1,93.3,483.9,93.5z M497.3,106c2.1,2.8,5.3,6.4,6,9.9
	c1.4,6.4-5.6,10.1-10.7,11.3c-5,1.2-11,0.5-14.1-4.2c-2.9-4.5-0.6-8.8,1.8-12.8c3.2-5.2,6.2-10.7,4.6-16.7c0.1,0,0.3-0.1,0.4-0.1
	c1.1,4.5,1.8,9.1,1.6,13.8c-0.1,1.6-0.2,3.2-0.5,4.8c-2.1,0.4-6,1.9-5.4,4.7c0.6,2.4,3.4,2.5,4.8,0.8c0.9-1.2,1.4-2.8,1.7-4.6
	c0.1,0,0.2,0,0.3,0c0.4,0,0.9,0,1.3,0c0.1,0.6,0.3,1.2,0.5,1.8c0.3,1.1,0.8,2.9,2.1,3.3c2,0.5,2.9-2.6,2.2-4c-0.6-1.4-2.3-2-3.9-2.2
	c-0.3-1.7-0.3-3.5-0.3-5c-0.1-4.5,0.5-9,0.6-13.6c0.3,0.2,0.6,0.4,0.8,0.8c0.4,0.7,0.3,3.4,0.7,4.3C493,101.1,495.4,103.5,497.3,106
	z M488.6,107.7c0.1,1.3,0.2,2.7,0.4,4c-0.4,0-0.9,0-1.3,0c0.2-2,0.2-4.1,0.2-5.6c0.1-4.4-0.6-8.9-2-13c1.1-0.3,2.2-0.5,3.2-0.4
	C489,97.7,488.3,102.7,488.6,107.7z M486.2,113.1c-0.1,0.5-0.2,1-0.3,1.4c-0.1,0.6-0.3,1.2-0.6,1.7c-1.1,0.9-3,0.7-2.4-1.6
	C483,113.8,484.8,113.3,486.2,113.1z M490.3,113c0.6,0.1,1.2,0.3,1.7,0.7c1.2,0.4,2.2,1.8,0.6,2.8c-1.1-0.4-1.7-1.1-1.8-2.1
	C490.5,113.9,490.4,113.4,490.3,113z"/>
<path class="st3" d="M493.4,87.4c0.2-0.1,0.4-0.2,0.7-0.3c0.3-0.1,0.5-0.2,0.8-0.3c0.1-0.1,0.3-0.2,0.4-0.3c0.2-0.4-0.2-0.8-0.5-1
	c-0.2-0.1-0.5-0.3-0.7-0.4c0.3-0.3,0.6-0.6,0.8-1.1c0.1-0.4,0.2-0.8,0.1-1.2c-0.1-0.6-0.6-0.8-1-1c-0.1,0-0.2-0.1-0.3-0.1
	c0-0.2,0-0.3,0-0.5c-0.2-1.4-1.4-2.6-2.8-3s-2.9-0.1-4.2,0.5c-0.8,0.4-1.6,0.9-2.2,1.6c-0.4,0.6-0.8,1.6-0.5,2.3
	c-0.1,0-0.1,0-0.2,0.1c-0.4,0.2-0.8,0.3-1.1,0.8c-0.1,0.2-0.2,0.5-0.2,0.7c0,0.3,0.2,0.5,0.4,0.6c0.2,0.2,0.4,0.3,0.7,0.4
	c-0.4,0.2-0.8,0.4-1.1,0.8c-0.1,0.1-0.2,0.3-0.2,0.4c0,0.3,0.3,0.6,0.6,0.7c0.4,0.2,0.9,0.4,1.3,0.6c-1.7,0.3-3.5,1-2.8,2.3
	c0.9,1.8,5,1.4,7.3,1.1c0.1,0.1,0.3,0.2,0.6,0.2c1.5-0.1,6.7-0.3,6.4-2.4C495.3,88.1,494.5,87.7,493.4,87.4z"/>
<path class="st1" d="M469.6,61.4c9.9-9.8,24.5-13.7,35.5-6.5c8.6,5.6,13.5,16.6,17.4,27.4c2.1,5.6,4,11.4,4.8,17.5
	c0.1,1.1,0.2,2.3,0,3.4c-0.4,1.3-1.2,2.3-2.2,3.1c-2.7,2.3-6.1,2.9-9.4,3.4c-11,1.7-22.1,2.3-33.1,1.8c-6.7-0.3-31.6-1.8-31.6-12.7
	c0-6.1,4.4-15,6.9-20.3C461,72.1,464.8,66.1,469.6,61.4z"/>
<path class="st1" d="M493.4,102c-0.8,0-1.5,0-2.2,0c-1.3-28,0.6-53.3-1.1-81.7c-0.3-4.4,1.5-8.7,1-13.1c-0.2-2.4-0.8-4.9,0.3-7.2
	c3.3,0,2.7,0.5,2.6,2.6c-0.2,1.8-0.3,3.5-0.4,5.2c-0.3,3.4-0.4,6.8-0.7,10.1c-0.4,6.8,0.9,13.6,0.6,20.4
	c-0.5,13.6-0.7,27.3-0.5,40.9C492.9,81.2,493.1,102,493.4,102z"/>
<path class="st2" d="M483.8,104.5c-8.9-1.6-19.3-1.9-26.8-7.4c-0.5-0.4-1,0.5-0.5,0.8c7.5,5.7,17.9,6.4,26.9,8
	C484.4,106.2,484.8,104.7,483.8,104.5z"/>
<path class="st2" d="M489.6,103.9c-0.7,0.1-1.3,0.1-2,0.1c-0.8,0-0.8,1.3,0,1.3c0.7,0,1.3,0,2,0.1
	C490.6,105.5,490.6,103.8,489.6,103.9z"/>
<path class="st2" d="M521.1,101.1c-9.2,1.5-18.3,2.6-27.6,3.1c-0.5,0-0.6,0.8,0,0.9c9.3,0.2,18.9-0.6,28-2.5
	C522.4,102.4,522,100.9,521.1,101.1z"/>
<path class="st2" d="M523.9,103.1c-5.6,3.2-12.2,3.8-18.5,4.3c-5.9,0.5-11.8,0.6-17.7,0.3c-11.6-0.7-24-2.4-33.8-9
	c-0.3-0.2-0.6,0.3-0.3,0.5c9.6,7.1,22.5,8.7,34.1,9.5c11.6,0.7,26.1,1,36.8-4.6C525.1,103.7,524.5,102.7,523.9,103.1z"/>
<path class="st1" d="M467.4,128c-1.1,1.3-2.7,2.2-4,3.3c-0.6,0.6,0.3,1.4,0.9,0.9c1.1-1,2.5-2.3,4-2.6
	C469.8,129.2,468.4,126.9,467.4,128z"/>
<path class="st1" d="M475.7,132c-1.8,1.8-3.3,4-4.7,6.1c-0.3,0.5,0.4,1,0.8,0.6c1.7-1.8,3.6-3.4,5.4-5.2
	C478.1,132.5,476.6,131,475.7,132z"/>
<path class="st1" d="M484.6,134.4c-0.3,2.4-0.6,4.8-1.1,7.1c-0.2,0.8,1.1,1.2,1.2,0.3c0.5-2.4,1.2-4.8,1.9-7.2
	C487,133.4,484.7,132.9,484.6,134.4z"/>
<path class="st1" d="M498.4,142.7c-1-0.9-1.3-2.9-1.7-4.2c-0.5-1.4-0.9-2.9-1.4-4.3c-0.3-0.8-1.4-0.5-1.2,0.3c0.4,2,0.9,4.1,1.3,6.1
	c0.3,1.5,0.5,2.8,1.7,3.7C498.1,145.1,499.3,143.5,498.4,142.7z"/>
<path class="st1" d="M509.3,137.3c-2.6-1.1-5-2.9-6.7-5.1c-0.5-0.7-1.7,0-1.2,0.7c1.9,2.6,4.2,4.8,7,6.5
	C509.8,140.3,510.9,138,509.3,137.3z"/>
</svg>
