<svg width="528" height="145" viewBox="0 0 528 145" fill="none" xmlns="http://www.w3.org/2000/svg">
<path d="M34.9001 93.1C36.4001 97.3 37.0001 101.7 36.9001 106.1C36.9001 107.7 36.9001 109.7 36.7001 111.7C37.1001 111.7 37.5001 111.7 38.0001 111.7C37.8001 110.4 37.6001 109.1 37.6001 107.7C37.4001 102.7 38.0001 97.7 38.2001 92.7C37.1001 92.5 36.0001 92.8 34.9001 93.1Z" fill="#EFEFEF"/>
<path d="M40.1001 93.9999C39.9001 93.5999 39.6001 93.4 39.3001 93.2C39.1001 97.7 38.6001 102.2 38.7001 106.8C38.7001 108.4 38.7001 110.2 39.0001 111.8C40.7001 112 42.3001 112.6 42.9001 114C43.6001 115.4 42.6001 118.5 40.7001 118C39.4001 117.6 38.9001 115.8 38.6001 114.7C38.4001 114.1 38.3001 113.5 38.1001 112.9C37.6001 112.9 37.2001 112.9 36.8001 112.9C36.7001 112.9 36.6001 112.9 36.5001 112.9C36.2001 114.7 35.7001 116.3 34.8001 117.5C33.4001 119.2 30.6001 119 30.0001 116.7C29.3001 113.8 33.3001 112.4 35.4001 112C35.7001 110.4 35.8001 108.8 35.9001 107.2C36.1001 102.5 35.4001 98 34.3001 93.4C34.2001 93.4 34.0001 93.4999 33.9001 93.4999C35.5001 99.5999 32.5001 105.1 29.3001 110.2C26.8001 114.2 24.5001 118.6 27.5001 123C30.6001 127.7 36.6001 128.4 41.6001 127.2C46.7001 126 53.6001 122.2 52.3001 115.9C51.5001 112.4 48.4001 108.8 46.3001 106C44.5001 103.6 42.0001 101.2 40.9001 98.2999C40.4001 97.3999 40.6001 94.5999 40.1001 93.9999Z" fill="#F2F4F7"/>
<path d="M34.3001 116.2C34.6001 115.7 34.8002 115.1 34.9002 114.5C35.0002 114 35.1002 113.6 35.2002 113.1C33.8002 113.4 32.0002 113.9 31.9002 114.6C31.2002 116.9 33.1001 117.1 34.3001 116.2Z" fill="#EFEFEF"/>
<path d="M41.5002 116.5C43.1002 115.5 42.1002 114.1 40.9002 113.7C40.4002 113.4 39.9002 113.2 39.2002 113C39.3002 113.5 39.5002 113.9 39.6002 114.4C39.8002 115.4 40.4002 116.1 41.5002 116.5Z" fill="#EFEFEF"/>
<path d="M32.9001 93.5C33.9001 101 29.1001 106.1 25.8001 112.4C24.0001 115.8 23.4001 119.4 25.2001 122.9C29.5001 131 40.0001 130.9 47.2001 127.2C50.7001 125.4 54.0001 122.5 54.5001 118.4C55.1001 113.8 51.6001 109.6 49.1001 106.1C47.4001 103.8 45.3001 101.6 43.9001 99.2C42.5001 96.9 42.8001 95.6 42.4001 93.2C42.3001 92.7 42.4001 92.2 42.1001 91.8C42.0001 91.6 41.8001 91.4 41.6001 91.3C39.5001 89.4 35.1001 90.4 32.9001 91.2C32.8001 91.2 32.8001 91.3 32.8001 91.3C31.9001 91.9 32.1001 93.3 32.9001 93.5ZM46.3001 106C48.4001 108.8 51.6001 112.4 52.3001 115.9C53.7001 122.3 46.7001 126 41.6001 127.2C36.6001 128.4 30.6001 127.7 27.5001 123C24.6001 118.5 26.9001 114.2 29.3001 110.2C32.5001 105 35.5001 99.5 33.9001 93.5C34.0001 93.5 34.2001 93.4 34.3001 93.4C35.4001 97.9 36.1001 102.5 35.9001 107.2C35.8001 108.8 35.7001 110.4 35.4001 112C33.3001 112.4 29.4001 113.9 30.0001 116.7C30.6001 119.1 33.4001 119.2 34.8001 117.5C35.7001 116.3 36.2001 114.7 36.5001 112.9C36.6001 112.9 36.7001 112.9 36.8001 112.9C37.2001 112.9 37.7001 112.9 38.1001 112.9C38.2001 113.5 38.4001 114.1 38.6001 114.7C38.9001 115.8 39.4001 117.6 40.7001 118C42.7001 118.5 43.6001 115.4 42.9001 114C42.3001 112.6 40.6001 112 39.0001 111.8C38.7001 110.1 38.7001 108.3 38.7001 106.8C38.6001 102.3 39.2001 97.8 39.3001 93.2C39.6001 93.4 39.9001 93.6 40.1001 94C40.5001 94.7 40.4001 97.4 40.8001 98.3C42.0001 101.1 44.4001 103.5 46.3001 106ZM37.6001 107.7C37.7001 109 37.8001 110.4 38.0001 111.7C37.6001 111.7 37.1001 111.7 36.7001 111.7C36.9001 109.7 36.9001 107.6 36.9001 106.1C37.0001 101.7 36.3001 97.2 34.9001 93.1C36.0001 92.8 37.1001 92.6 38.1001 92.7C38.0001 97.7 37.3001 102.7 37.6001 107.7ZM35.2001 113.1C35.1001 113.6 35.0001 114.1 34.9001 114.5C34.8001 115.1 34.6001 115.7 34.3001 116.2C33.2001 117.1 31.3001 116.9 31.9001 114.6C32.0001 113.8 33.8001 113.3 35.2001 113.1ZM39.3001 113C39.9001 113.1 40.5001 113.3 41.0001 113.7C42.2001 114.1 43.2001 115.5 41.6001 116.5C40.5001 116.1 39.9001 115.4 39.8001 114.4C39.5001 113.9 39.4001 113.4 39.3001 113Z" fill="white"/>
<path d="M42.4002 87.4C42.6002 87.3 42.8001 87.1999 43.1001 87.0999C43.4001 86.9999 43.6002 86.8999 43.9002 86.7999C44.0002 86.6999 44.2001 86.5999 44.3001 86.4999C44.5001 86.0999 44.1001 85.6999 43.8001 85.4999C43.6001 85.3999 43.3001 85.1999 43.1001 85.0999C43.4001 84.7999 43.7002 84.4999 43.9002 83.9999C44.0002 83.5999 44.1001 83.1999 44.0001 82.7999C43.9001 82.1999 43.4001 81.9999 43.0001 81.7999C42.9001 81.7999 42.8002 81.7 42.7002 81.7C42.7002 81.5 42.7002 81.4 42.7002 81.2C42.5002 79.8 41.3002 78.6 39.9002 78.2C38.5002 77.8 37.0002 78.1 35.7002 78.7C34.9002 79.1 34.1001 79.5999 33.5001 80.2999C33.1001 80.8999 32.7001 81.8999 33.0001 82.5999C32.9001 82.5999 32.9001 82.6 32.8001 82.7C32.4001 82.9 32.0002 82.9999 31.7002 83.4999C31.6002 83.6999 31.5001 84 31.5001 84.2C31.5001 84.5 31.7002 84.6999 31.9002 84.7999C32.1002 84.9999 32.3001 85.1 32.6001 85.2C32.2001 85.4 31.8001 85.5999 31.5001 85.9999C31.4001 86.0999 31.3001 86.3 31.3001 86.4C31.3001 86.7 31.6002 86.9999 31.9002 87.0999C32.3002 87.2999 32.8002 87.5 33.2002 87.7C31.5002 88 29.7002 88.6999 30.4002 89.9999C31.3002 91.7999 35.4002 91.3999 37.7002 91.0999C37.8002 91.1999 38.0001 91.2999 38.3001 91.2999C39.8001 91.1999 45.0002 91 44.7002 88.9C44.3002 88.1 43.5002 87.7 42.4002 87.4Z" fill="#E8E8E8"/>
<path d="M18.6 61.4001C28.5 51.6001 43.1 47.7001 54.1 54.9001C62.7 60.5001 67.6 71.5001 71.5 82.3001C73.6 87.9001 75.5 93.7001 76.3 99.8001C76.4 100.9 76.5 102.1 76.3 103.2C75.9 104.5 75.1 105.5 74.1 106.3C71.4 108.6 68 109.2 64.7 109.7C53.7 111.4 42.6 112 31.6 111.5C24.9 111.2 0 109.7 0 98.8001C0 92.7001 4.40002 83.8001 6.90002 78.5001C10 72.1001 13.8 66.1001 18.6 61.4001Z" fill="#F2F4F7"/>
<path d="M42.3849 102C41.6099 102 40.921 102 40.146 102C38.8543 74.0211 40.7488 48.7325 39.0266 20.2924C38.7682 15.9111 40.4905 11.6066 40.0599 7.22531C39.8877 4.8425 39.2849 2.30595 40.3182 0C43.5905 0 42.9877 0.538051 42.9016 2.61341C42.7294 4.38131 42.6432 6.07235 42.471 7.84025C42.2127 11.2223 42.0405 14.6044 41.7821 17.9864C41.3516 24.8274 42.6432 31.5916 42.3849 38.4326C41.8682 52.0377 41.696 65.7197 41.8682 79.3248C41.8682 81.2464 42.1265 102 42.3849 102Z" fill="#F2F4F7"/>
<path d="M32.8001 104.5C23.9001 102.9 13.5001 102.6 6.00008 97.1C5.50008 96.7 5.00008 97.6001 5.50008 97.9001C13.0001 103.6 23.4001 104.3 32.4001 105.9C33.4001 106.2 33.8001 104.7 32.8001 104.5Z" fill="white"/>
<path d="M38.6 103.9C37.9 104 37.3 104 36.6 104C35.8 104 35.8 105.3 36.6 105.3C37.3 105.3 37.9 105.3 38.6 105.4C39.6 105.5 39.6 103.8 38.6 103.9Z" fill="white"/>
<path d="M70.1 101.1C60.9 102.6 51.8 103.7 42.5 104.2C42 104.2 41.9 105 42.5 105.1C51.8 105.3 61.4 104.5 70.5 102.6C71.4 102.4 71 100.9 70.1 101.1Z" fill="white"/>
<path d="M72.8999 103.1C67.2999 106.3 60.6999 106.9 54.3999 107.4C48.4999 107.9 42.5999 108 36.6999 107.7C25.0999 107 12.6999 105.3 2.89989 98.7C2.59989 98.5 2.29984 99 2.59984 99.2C12.1998 106.3 25.0999 107.9 36.6999 108.7C48.2999 109.4 62.7999 109.7 73.4999 104.1C74.0999 103.7 73.4999 102.7 72.8999 103.1Z" fill="white"/>
<path d="M16.4 128C15.3 129.3 13.7 130.2 12.4 131.3C11.8 131.9 12.7 132.7 13.3 132.2C14.4 131.2 15.8 129.9 17.3 129.6C18.8 129.2 17.4 126.9 16.4 128Z" fill="#F2F4F7"/>
<path d="M24.7 132C22.9 133.8 21.3999 136 19.9999 138.1C19.6999 138.6 20.3999 139.1 20.7999 138.7C22.4999 136.9 24.4 135.3 26.2 133.5C27.1 132.5 25.6 131 24.7 132Z" fill="#F2F4F7"/>
<path d="M33.5999 134.4C33.2999 136.8 32.9999 139.2 32.4999 141.5C32.2999 142.3 33.5999 142.7 33.6999 141.8C34.1999 139.4 34.8999 137 35.5999 134.6C35.9999 133.4 33.6999 132.9 33.5999 134.4Z" fill="#F2F4F7"/>
<path d="M47.4001 142.7C46.4001 141.8 46.1001 139.8 45.7001 138.5C45.2001 137.1 44.8001 135.6 44.3001 134.2C44.0001 133.4 42.9001 133.7 43.1001 134.5C43.5001 136.5 44.0001 138.6 44.4001 140.6C44.7001 142.1 44.9001 143.4 46.1001 144.3C47.1001 145.1 48.3001 143.5 47.4001 142.7Z" fill="#F2F4F7"/>
<path d="M58.2999 137.3C55.6999 136.2 53.2999 134.4 51.5999 132.2C51.0999 131.5 49.9 132.2 50.4 132.9C52.3 135.5 54.6 137.7 57.4 139.4C58.8 140.3 59.8999 138 58.2999 137.3Z" fill="#F2F4F7"/>
<path d="M485.9 93.1C487.4 97.3 488 101.7 487.9 106.1C487.9 107.7 487.9 109.7 487.7 111.7C488.1 111.7 488.5 111.7 489 111.7C488.8 110.4 488.6 109.1 488.6 107.7C488.4 102.7 489 97.7 489.2 92.7C488.1 92.5 487 92.8 485.9 93.1Z" fill="#EFEFEF"/>
<path d="M491.1 93.9999C490.9 93.5999 490.6 93.4 490.3 93.2C490.1 97.7 489.6 102.2 489.7 106.8C489.7 108.4 489.7 110.2 490 111.8C491.7 112 493.3 112.6 493.9 114C494.6 115.4 493.6 118.5 491.7 118C490.4 117.6 489.9 115.8 489.6 114.7C489.4 114.1 489.3 113.5 489.1 112.9C488.6 112.9 488.2 112.9 487.8 112.9C487.7 112.9 487.6 112.9 487.5 112.9C487.2 114.7 486.7 116.3 485.8 117.5C484.4 119.2 481.6 119 481 116.7C480.3 113.8 484.3 112.4 486.4 112C486.7 110.4 486.8 108.8 486.9 107.2C487.1 102.5 486.4 98 485.3 93.4C485.2 93.4 485 93.4999 484.9 93.4999C486.5 99.5999 483.5 105.1 480.3 110.2C477.8 114.2 475.5 118.6 478.5 123C481.6 127.7 487.6 128.4 492.6 127.2C497.7 126 504.6 122.2 503.3 115.9C502.5 112.4 499.4 108.8 497.3 106C495.5 103.6 493 101.2 491.9 98.2999C491.4 97.3999 491.6 94.5999 491.1 93.9999Z" fill="#F2F4F7"/>
<path d="M485.3 116.2C485.6 115.7 485.8 115.1 485.9 114.5C486 114 486.1 113.6 486.2 113.1C484.8 113.4 483 113.9 482.9 114.6C482.2 116.9 484.1 117.1 485.3 116.2Z" fill="#EFEFEF"/>
<path d="M492.5 116.5C494.1 115.5 493.1 114.1 491.9 113.7C491.4 113.4 490.9 113.2 490.2 113C490.3 113.5 490.5 113.9 490.6 114.4C490.8 115.4 491.4 116.1 492.5 116.5Z" fill="#EFEFEF"/>
<path d="M483.9 93.5C484.9 101 480.1 106.1 476.8 112.4C475 115.8 474.4 119.4 476.2 122.9C480.5 131 491 130.9 498.2 127.2C501.7 125.4 505 122.5 505.5 118.4C506.1 113.8 502.6 109.6 500.1 106.1C498.4 103.8 496.3 101.6 494.9 99.2C493.5 96.9 493.8 95.6 493.4 93.2C493.3 92.7 493.4 92.2 493.1 91.8C493 91.6 492.8 91.4 492.6 91.3C490.5 89.4 486.1 90.4 483.9 91.2C483.8 91.2 483.8 91.3 483.8 91.3C482.9 91.9 483.1 93.3 483.9 93.5ZM497.3 106C499.4 108.8 502.6 112.4 503.3 115.9C504.7 122.3 497.7 126 492.6 127.2C487.6 128.4 481.6 127.7 478.5 123C475.6 118.5 477.9 114.2 480.3 110.2C483.5 105 486.5 99.5 484.9 93.5C485 93.5 485.2 93.4 485.3 93.4C486.4 97.9 487.1 102.5 486.9 107.2C486.8 108.8 486.7 110.4 486.4 112C484.3 112.4 480.4 113.9 481 116.7C481.6 119.1 484.4 119.2 485.8 117.5C486.7 116.3 487.2 114.7 487.5 112.9C487.6 112.9 487.7 112.9 487.8 112.9C488.2 112.9 488.7 112.9 489.1 112.9C489.2 113.5 489.4 114.1 489.6 114.7C489.9 115.8 490.4 117.6 491.7 118C493.7 118.5 494.6 115.4 493.9 114C493.3 112.6 491.6 112 490 111.8C489.7 110.1 489.7 108.3 489.7 106.8C489.6 102.3 490.2 97.8 490.3 93.2C490.6 93.4 490.9 93.6 491.1 94C491.5 94.7 491.4 97.4 491.8 98.3C493 101.1 495.4 103.5 497.3 106ZM488.6 107.7C488.7 109 488.8 110.4 489 111.7C488.6 111.7 488.1 111.7 487.7 111.7C487.9 109.7 487.9 107.6 487.9 106.1C488 101.7 487.3 97.2 485.9 93.1C487 92.8 488.1 92.6 489.1 92.7C489 97.7 488.3 102.7 488.6 107.7ZM486.2 113.1C486.1 113.6 486 114.1 485.9 114.5C485.8 115.1 485.6 115.7 485.3 116.2C484.2 117.1 482.3 116.9 482.9 114.6C483 113.8 484.8 113.3 486.2 113.1ZM490.3 113C490.9 113.1 491.5 113.3 492 113.7C493.2 114.1 494.2 115.5 492.6 116.5C491.5 116.1 490.9 115.4 490.8 114.4C490.5 113.9 490.4 113.4 490.3 113Z" fill="white"/>
<path d="M493.4 87.4C493.6 87.3 493.8 87.1999 494.1 87.0999C494.4 86.9999 494.6 86.8999 494.9 86.7999C495 86.6999 495.2 86.5999 495.3 86.4999C495.5 86.0999 495.1 85.6999 494.8 85.4999C494.6 85.3999 494.3 85.1999 494.1 85.0999C494.4 84.7999 494.7 84.4999 494.9 83.9999C495 83.5999 495.1 83.1999 495 82.7999C494.9 82.1999 494.4 81.9999 494 81.7999C493.9 81.7999 493.8 81.7 493.7 81.7C493.7 81.5 493.7 81.4 493.7 81.2C493.5 79.8 492.3 78.6 490.9 78.2C489.5 77.8 488 78.1 486.7 78.7C485.9 79.1 485.1 79.5999 484.5 80.2999C484.1 80.8999 483.7 81.8999 484 82.5999C483.9 82.5999 483.9 82.6 483.8 82.7C483.4 82.9 483 82.9999 482.7 83.4999C482.6 83.6999 482.5 84 482.5 84.2C482.5 84.5 482.7 84.6999 482.9 84.7999C483.1 84.9999 483.3 85.1 483.6 85.2C483.2 85.4 482.8 85.5999 482.5 85.9999C482.4 86.0999 482.3 86.3 482.3 86.4C482.3 86.7 482.6 86.9999 482.9 87.0999C483.3 87.2999 483.8 87.5 484.2 87.7C482.5 88 480.7 88.6999 481.4 89.9999C482.3 91.7999 486.4 91.3999 488.7 91.0999C488.8 91.1999 489 91.2999 489.3 91.2999C490.8 91.1999 496 91 495.7 88.9C495.3 88.1 494.5 87.7 493.4 87.4Z" fill="#E8E8E8"/>
<path d="M469.6 61.4001C479.5 51.6001 494.1 47.7001 505.1 54.9001C513.7 60.5001 518.6 71.5001 522.5 82.3001C524.6 87.9001 526.5 93.7001 527.3 99.8001C527.4 100.9 527.5 102.1 527.3 103.2C526.9 104.5 526.1 105.5 525.1 106.3C522.4 108.6 519 109.2 515.7 109.7C504.7 111.4 493.6 112 482.6 111.5C475.9 111.2 451 109.7 451 98.8001C451 92.7001 455.4 83.8001 457.9 78.5001C461 72.1001 464.8 66.1001 469.6 61.4001Z" fill="#F2F4F7"/>
<path d="M493.385 102C492.61 102 491.921 102 491.146 102C489.854 74.0211 491.749 48.7325 490.027 20.2924C489.768 15.9111 491.49 11.6066 491.06 7.22531C490.888 4.8425 490.285 2.30595 491.318 0C494.59 0 493.988 0.538051 493.902 2.61341C493.729 4.38131 493.643 6.07235 493.471 7.84025C493.213 11.2223 493.04 14.6044 492.782 17.9864C492.352 24.8274 493.643 31.5916 493.385 38.4326C492.868 52.0377 492.696 65.7197 492.868 79.3248C492.868 81.2464 493.127 102 493.385 102Z" fill="#F2F4F7"/>
<path d="M483.8 104.5C474.9 102.9 464.5 102.6 457 97.1C456.5 96.7 456 97.6001 456.5 97.9001C464 103.6 474.4 104.3 483.4 105.9C484.4 106.2 484.8 104.7 483.8 104.5Z" fill="white"/>
<path d="M489.6 103.9C488.9 104 488.3 104 487.6 104C486.8 104 486.8 105.3 487.6 105.3C488.3 105.3 488.9 105.3 489.6 105.4C490.6 105.5 490.6 103.8 489.6 103.9Z" fill="white"/>
<path d="M521.1 101.1C511.9 102.6 502.8 103.7 493.5 104.2C493 104.2 492.9 105 493.5 105.1C502.8 105.3 512.4 104.5 521.5 102.6C522.4 102.4 522 100.9 521.1 101.1Z" fill="white"/>
<path d="M523.9 103.1C518.3 106.3 511.7 106.9 505.4 107.4C499.5 107.9 493.6 108 487.7 107.7C476.1 107 463.7 105.3 453.9 98.7C453.6 98.5 453.3 99 453.6 99.2C463.2 106.3 476.1 107.9 487.7 108.7C499.3 109.4 513.8 109.7 524.5 104.1C525.1 103.7 524.5 102.7 523.9 103.1Z" fill="white"/>
<path d="M467.4 128C466.3 129.3 464.7 130.2 463.4 131.3C462.8 131.9 463.7 132.7 464.3 132.2C465.4 131.2 466.8 129.9 468.3 129.6C469.8 129.2 468.4 126.9 467.4 128Z" fill="#F2F4F7"/>
<path d="M475.7 132C473.9 133.8 472.4 136 471 138.1C470.7 138.6 471.4 139.1 471.8 138.7C473.5 136.9 475.4 135.3 477.2 133.5C478.1 132.5 476.6 131 475.7 132Z" fill="#F2F4F7"/>
<path d="M484.6 134.4C484.3 136.8 484 139.2 483.5 141.5C483.3 142.3 484.6 142.7 484.7 141.8C485.2 139.4 485.9 137 486.6 134.6C487 133.4 484.7 132.9 484.6 134.4Z" fill="#F2F4F7"/>
<path d="M498.4 142.7C497.4 141.8 497.1 139.8 496.7 138.5C496.2 137.1 495.8 135.6 495.3 134.2C495 133.4 493.9 133.7 494.1 134.5C494.5 136.5 495 138.6 495.4 140.6C495.7 142.1 495.9 143.4 497.1 144.3C498.1 145.1 499.3 143.5 498.4 142.7Z" fill="#F2F4F7"/>
<path d="M509.3 137.3C506.7 136.2 504.3 134.4 502.6 132.2C502.1 131.5 500.9 132.2 501.4 132.9C503.3 135.5 505.6 137.7 508.4 139.4C509.8 140.3 510.9 138 509.3 137.3Z" fill="#F2F4F7"/>
</svg>
