<svg width="679" height="328" viewBox="0 0 679 328" fill="none" xmlns="http://www.w3.org/2000/svg">
<path d="M672.754 148.797C652.202 114.669 645.778 116.673 627.539 111.939C597.396 105.113 557.462 114.3 527.297 118.401C494.938 122.775 462.305 126.603 429.672 126.603C373.181 126.876 316.691 127.149 259.926 127.696C218.518 127.969 176.561 131.797 134.878 128.516C116.779 127.149 79.4807 118.401 57.5583 128.516C4.12264 146.067 0.012207 179.884 0.012207 208.862C0.012207 253.423 45.7597 286.39 67.1494 294.864C132.916 305.785 188.265 290.224 195.943 289.404C300.698 279.836 337.815 313.694 442.569 320.802C483.978 323.535 532.233 329.451 572.818 312.501C599.144 301.566 617.383 299.265 641.24 274.388C644.805 270.56 651.652 255.558 653.572 248.45C654.943 243.53 657.829 214.603 658.103 208.862C658.926 192.186 681.251 186.495 678.234 170.639C677.96 167.358 677.686 156.988 672.754 148.797Z" fill="#E4F2F5"/>
<path d="M351.591 175.564C351.317 169.557 356.798 162.732 349.947 157.544C349.125 156.998 348.303 156.452 346.659 156.452C344.193 156.452 342.823 157.544 342 158.636C336.52 165.189 332.957 172.014 331.587 178.84C331.039 181.57 330.765 184.3 333.78 186.758C337.068 189.488 351.865 193.037 357.894 189.215C362.827 186.212 351.866 178.84 351.591 175.564Z" fill="#3C444C"/>
<path d="M179.775 163.278C179.227 161.367 178.679 159.455 177.309 158.09C176.213 156.998 174.843 156.179 173.199 155.906C167.718 154.814 162.512 158.363 158.127 161.367C152.372 165.462 146.618 169.557 140.863 173.653C139.767 174.472 138.397 175.291 137.849 176.656C137.027 178.294 137.575 180.205 138.945 181.843C140.041 183.209 141.685 184.028 143.329 184.847C148.81 187.031 154.839 187.577 160.593 188.123C166.622 188.669 178.679 190.034 182.516 184.028C186.078 179.386 181.145 168.192 179.775 163.278Z" fill="#DDE1E7"/>
<path d="M441.473 180.752C407.493 184.574 372.966 184.301 338.712 183.755C305.555 183.482 272.397 182.936 239.24 182.663C218.413 182.39 197.587 182.117 177.035 178.568C166.348 176.656 155.935 173.926 144.973 173.653C134.286 173.38 122.777 175.564 114.556 182.39C113.734 182.936 112.912 183.755 112.638 184.847C112.09 186.485 112.638 188.397 113.46 189.762C120.311 202.321 136.753 206.143 151.002 208.054C258.97 223.889 368.855 224.435 477.919 220.34C501.759 219.521 526.422 218.156 548.618 209.692C561.772 204.505 574.377 196.587 583.694 185.939C588.627 180.479 603.424 161.367 598.492 153.177C595.203 147.716 584.79 151.538 580.132 152.63C571.089 154.542 562.32 156.453 553.277 158.637C535.739 162.732 518.475 166.828 500.937 170.65C481.207 174.745 461.477 178.568 441.473 180.752Z" fill="#03A678"/>
<path d="M421.195 166.281C418.181 164.643 415.166 163.005 411.878 161.64C409.96 160.821 407.767 160.002 405.575 160.002C403.657 160.002 402.013 160.821 400.369 161.64C395.162 164.097 390.23 167.374 385.845 170.923C384.749 172.015 383.379 173.38 384.201 174.745C384.475 175.291 385.023 175.564 385.571 175.837C388.859 177.748 392.422 179.66 396.258 179.933C400.095 180.206 403.931 178.294 407.767 178.021C411.878 177.748 415.988 179.387 419.825 180.752C426.95 183.755 434.074 187.304 441.747 188.942C443.117 189.215 444.761 189.488 446.132 189.215C449.146 188.669 450.242 185.666 449.42 182.936C448.598 180.206 445.035 179.113 442.843 178.021C435.992 174.199 428.594 170.377 421.195 166.281Z" fill="#D7B597"/>
<path d="M370.225 90.6538C369.403 94.4761 368.307 98.2984 366.115 101.302C363.923 104.305 360.086 106.762 356.25 106.216C350.769 105.67 347.481 100.483 345.289 95.5681C343.919 92.2919 342.549 88.7426 343.097 85.1933C344.193 78.6407 352.962 69.085 360.086 69.085C371.048 69.631 371.87 83.0091 370.225 90.6538Z" fill="#EEC8A4"/>
<path d="M340.63 112.768C338.986 114.407 338.164 116.318 337.342 118.502C333.506 128.877 330.217 139.798 327.203 150.445C326.655 152.63 325.833 155.36 327.203 157.544C328.847 157.271 329.943 155.906 330.765 154.541C333.78 150.172 336.52 145.804 339.534 141.436C342.275 137.067 345.289 132.699 346.933 127.785C348.029 124.235 348.303 120.413 348.577 116.864C349.125 111.676 344.467 109.219 340.63 112.768Z" fill="#EEC8A4"/>
<path d="M375.98 109.22C377.35 109.766 378.446 111.131 379.268 112.223C385.845 120.96 389.956 131.335 393.792 141.437C394.888 144.44 395.984 147.443 395.984 150.446C395.984 151.265 395.984 151.811 395.436 152.357C394.066 153.723 392.148 152.084 391.052 150.719C385.023 143.348 379.817 135.43 375.432 126.966C373.514 123.417 371.87 119.595 371.322 115.499C370.774 112.496 371.048 106.763 375.98 109.22Z" fill="#EEC8A4"/>
<path d="M406.945 171.195C403.657 169.557 400.369 167.919 396.532 167.373C392.148 166.827 387.763 167.919 383.379 169.011C377.076 170.922 370.5 172.833 364.197 174.744C358.99 176.383 353.51 178.294 349.125 181.57C346.933 183.208 345.015 185.665 346.111 188.122C346.933 189.761 349.125 190.58 351.044 190.853C363.649 193.31 376.528 192.764 389.134 191.126C398.999 189.761 408.864 188.123 418.729 186.484C421.195 186.211 429.964 186.484 431.334 183.754C432.704 180.751 423.935 178.84 421.743 178.021C416.536 175.836 411.878 173.379 406.945 171.195Z" fill="#EEC8A4"/>
<path d="M380.365 171.196C374.336 173.653 368.581 177.202 365.567 182.117C363.101 186.212 362.553 190.854 362.827 195.495C358.168 195.495 353.784 193.584 350.221 191.127C346.111 188.396 342.549 185.12 341.726 181.025C340.904 177.749 342.001 174.745 343.097 171.469C343.919 169.285 345.015 167.101 347.481 166.009C349.125 165.463 350.769 165.19 352.414 165.19C365.841 164.916 379.543 164.916 392.696 163.005C394.614 162.732 396.532 162.459 398.45 162.732C400.369 163.005 402.287 164.097 402.287 165.735C394.888 166.554 386.941 168.739 380.365 171.196Z" fill="#3C444C"/>
<path d="M200.328 75.638C197.587 74.819 194.847 75.365 192.381 77.0031C189.914 78.3683 188.27 80.5525 186.626 82.7366C185.804 83.8287 184.982 85.1938 184.708 86.5589C184.434 88.4701 184.708 90.1082 185.256 92.0194C187.174 98.2989 191.285 104.305 197.313 107.036C199.231 107.855 201.15 108.401 203.068 107.582C205.26 106.763 206.356 104.578 207.178 102.667C209.096 97.4798 209.096 92.0194 208.822 86.5589C208.548 83.5557 208 80.0064 205.26 78.6413C203.616 78.0952 202.246 76.1841 200.328 75.638Z" fill="#EEC8A4"/>
<path d="M206.356 111.131C205.534 111.404 204.712 111.677 203.89 111.677C198.957 112.496 194.299 109.493 189.366 110.312C185.256 111.131 182.789 114.134 180.323 117.41C177.857 120.687 177.583 123.417 177.309 127.512C176.213 137.068 175.939 146.897 175.939 156.453C175.939 161.64 176.213 166.828 177.583 172.015C178.679 175.837 180.871 180.206 184.708 181.025C187.996 181.571 191.01 179.66 193.751 177.748C198.409 175.018 203.342 172.834 208.548 171.469C212.111 170.65 215.947 169.831 218.139 167.1C217.865 167.373 215.399 163.005 215.125 162.459C214.303 160.548 214.029 158.637 214.029 156.453C213.755 152.903 212.933 149.627 212.933 145.805C213.481 135.976 215.125 126.147 218.139 116.864C218.687 115.226 219.235 113.315 218.687 111.95C217.591 109.493 214.303 108.674 211.563 109.493C209.644 109.493 208 110.312 206.356 111.131Z" fill="#DCB99A"/>
<path d="M240.61 164.643C236.499 161.366 230.197 163.823 224.99 163.004C221.428 162.458 218.413 160.274 215.125 159.728C213.207 159.455 211.289 159.455 209.37 159.728C202.794 160.274 196.217 161.912 190.462 165.189C184.708 168.465 180.049 173.925 178.679 180.478C178.405 181.297 178.405 182.116 178.679 182.935C179.227 184.3 181.145 184.573 182.516 184.573C196.765 185.392 211.015 186.211 224.99 187.03C227.182 187.03 231.567 188.122 233.211 186.757C234.581 185.665 234.033 182.935 234.033 181.297C234.581 175.29 237.321 169.557 240.61 164.643Z" fill="#3C444C"/>
<path d="M406.945 141.709C404.205 146.077 401.465 150.719 397.354 153.722C396.258 154.541 394.614 155.087 393.518 153.995C393.244 153.722 392.97 153.176 392.97 152.63C392.97 150.719 394.34 149.08 395.984 147.715C397.354 146.35 398.725 144.985 400.095 143.893C402.287 141.982 404.479 139.525 404.205 136.794C404.205 134.883 403.109 132.972 405.027 131.607C406.123 130.515 408.316 130.788 409.412 131.607C412.7 134.337 408.316 139.252 406.945 141.709Z" fill="#EEC8A4"/>
<path d="M493.265 135.157C489.976 133.792 486.414 133.519 482.852 132.7C477.097 131.608 471.068 129.696 465.314 131.062C462.573 131.881 460.107 133.246 457.367 134.884C455.723 135.703 454.079 136.795 452.982 138.16C451.886 139.525 451.064 141.436 451.338 143.348C451.886 146.078 454.901 147.443 457.367 148.535C469.424 153.449 481.755 158.091 494.635 157.545C500.389 157.272 507.788 155.634 505.048 148.262C503.404 142.529 499.019 137.341 493.265 135.157Z" fill="#F2D292"/>
<path d="M251.023 164.643C248.557 163.551 245.816 162.459 243.076 163.005C240.336 163.551 237.87 166.281 238.966 169.011C239.24 169.83 239.788 170.376 240.336 170.922C246.364 178.294 254.859 183.481 264.176 186.212C271.301 188.123 283.632 190.307 290.209 186.485C277.33 178.021 264.724 170.376 251.023 164.643Z" fill="#D4B395"/>
<path d="M243.898 169.011C241.432 167.1 238.417 165.462 235.403 166.008C233.485 166.281 231.841 167.646 230.471 169.011C228.552 170.649 226.634 172.56 227.182 175.018C227.456 176.929 229.375 178.294 231.019 179.386C239.514 184.846 249.105 188.669 258.696 190.58C261.436 191.126 266.094 191.945 268.013 189.488C270.479 186.211 265.82 184.573 263.628 182.935C257.051 178.294 250.475 173.652 243.898 169.011Z" fill="#EEC8A4"/>
<path d="M178.953 179.113C198.957 182.389 219.236 182.662 239.24 182.936C272.397 183.209 305.555 183.754 338.712 184.028C372.966 184.301 407.494 184.847 441.473 181.024C461.477 178.84 481.207 175.018 500.938 170.922C518.475 167.1 535.739 163.005 553.277 158.909C562.046 156.725 571.089 154.814 580.132 152.903C584.79 151.811 595.203 147.989 598.492 153.449C603.424 161.64 588.627 180.751 583.694 186.212C574.377 196.86 562.046 205.05 548.619 209.965C526.148 218.428 501.76 219.794 477.919 220.613C375.98 224.435 273.219 224.162 172.103 211.33C174.021 200.409 175.665 189.488 178.953 179.113Z" fill="#03A678"/>
<path d="M312.953 194.403C312.953 195.768 311.035 196.587 309.939 195.768C309.665 195.495 309.391 195.222 309.117 195.222C308.843 194.949 308.295 194.949 307.747 194.949C302.54 194.676 297.608 194.403 292.401 193.857C292.127 193.857 291.853 193.857 291.579 194.13C291.305 194.403 291.305 194.676 291.305 194.949C291.031 195.768 289.935 196.041 289.113 196.041C288.291 196.041 287.469 195.222 287.195 194.403C286.921 193.311 286.921 192.219 287.743 191.399C288.565 190.58 289.935 190.58 290.757 191.399C291.031 191.672 291.031 191.945 291.305 192.218C291.579 192.492 291.853 192.492 292.401 192.492C297.334 193.038 302.266 193.584 307.199 193.857C307.747 193.857 308.569 194.13 309.117 193.857C309.665 193.584 310.213 193.038 310.487 192.765C311.857 192.219 313.227 193.038 312.953 194.403Z" fill="#3C444C"/>
<path d="M201.423 81.0979C200.053 80.8249 198.957 80.2788 197.587 80.2788C195.669 80.2788 194.025 81.917 193.203 83.5551C192.381 85.1933 192.381 87.1044 192.381 89.0156C192.381 87.9235 191.01 87.3775 190.188 87.6505C189.366 88.1965 188.818 89.2886 189.092 90.3807C189.092 91.1998 189.64 91.7459 189.914 92.2919C190.462 92.8379 191.01 93.111 191.558 93.657C192.106 94.2031 192.381 95.0221 192.381 95.8412C192.929 98.5714 193.203 101.575 193.203 104.305C190.462 104.032 188.27 101.575 186.626 99.1175C184.434 95.5682 182.242 92.0189 181.693 87.9235C181.145 83.5552 182.515 80.2789 184.982 76.7296C187.448 73.1803 190.462 71.8151 194.299 69.631C195.943 68.5389 197.313 67.4468 198.957 66.3547C200.327 65.8087 201.698 65.2626 203.068 64.9896C205.26 64.4436 207.726 64.4436 209.918 64.9896C212.111 65.8087 214.029 67.1737 214.851 69.3579C215.947 73.1802 212.933 74.2724 211.015 76.7296C208.274 80.0058 205.26 81.917 201.423 81.0979Z" fill="#746458"/>
<path d="M139.493 170.103C157.031 171.468 206.63 176.929 224.168 177.475C265.82 178.84 308.569 183.754 350.221 180.205C361.457 179.386 372.692 178.294 383.927 178.294C396.806 178.294 409.96 179.113 422.839 178.294C428.32 178.021 434.074 177.202 439.555 176.383C466.41 172.833 493.539 169.557 519.846 163.005C541.768 157.544 563.964 152.084 585.887 146.896C588.079 146.35 590.271 145.804 592.737 146.35C595.478 146.896 597.944 149.627 598.218 152.357C598.766 153.176 599.314 154.814 598.766 155.633C594.929 152.63 589.449 153.176 584.79 154.268C569.993 157.271 555.743 162.186 540.946 165.189C533.273 166.827 525.326 167.919 517.379 169.284C470.794 177.475 422.017 194.129 375.158 188.396C366.937 187.304 358.442 187.304 349.947 187.031C322.819 186.485 295.964 185.665 268.835 184.846C259.518 184.573 250.475 184.3 241.158 184.027C232.663 183.754 224.168 183.481 215.947 182.935C201.15 181.843 151.276 176.929 136.479 175.564C136.205 173.926 131.546 174.745 139.493 170.103Z" fill="#D6CDCB"/>
<path d="M370.773 108.673C371.87 107.854 373.24 107.035 374.61 107.308C375.98 107.581 376.802 108.673 377.624 109.492C383.379 117.41 384.749 127.239 385.023 136.795C385.297 146.35 385.023 156.179 387.489 165.462C373.514 166.827 359.538 168.465 345.289 169.83C344.741 169.83 344.467 169.83 344.193 169.557C343.645 169.284 343.645 168.465 343.645 167.919C343.645 151.811 343.645 135.703 343.645 119.594C343.645 116.864 343.645 114.134 344.741 111.676C345.837 109.219 348.303 107.035 350.769 107.035C352.688 107.035 354.606 108.4 356.25 109.219C360.908 111.677 366.389 111.404 370.773 108.673Z" fill="#3C444C"/>
<path d="M455.175 140.071C454.078 138.706 449.968 138.979 448.598 138.706C445.035 138.16 441.473 137.341 438.185 136.795C415.988 133.519 393.792 131.335 371.322 129.15C352.962 127.239 334.328 125.328 315.42 123.417C315.42 124.782 315.146 126.147 314.872 127.512L329.121 129.15C337.342 129.97 345.563 130.516 354.058 131.335C365.293 132.427 376.254 133.519 387.489 134.611C392.696 135.157 397.902 135.703 402.835 136.522C414.892 138.16 426.675 139.798 438.459 142.256C442.021 143.075 445.035 143.621 447.776 144.167C449.42 144.44 451.064 144.986 452.708 144.44C454.078 144.167 456.271 141.71 455.175 140.071Z" fill="#3C444C"/>
<path d="M331.039 150.718C331.587 143.62 332.135 136.248 332.958 129.15C332.958 128.058 333.232 126.965 332.958 125.873C332.958 124.508 332.136 123.143 331.039 122.87C330.491 122.87 329.943 122.87 329.395 123.143C327.477 123.689 325.285 124.508 324.737 126.419C324.463 127.239 325.011 128.058 325.011 128.877C327.203 137.067 322.819 146.077 324.189 154.541C325.833 162.185 330.765 154.541 331.039 150.718Z" fill="#EEC8A4"/>
<path d="M214.577 132.426C214.851 131.061 215.399 129.696 215.673 128.604C216.769 125.874 217.865 122.871 218.687 120.14C219.509 117.137 219.509 114.134 218.687 111.131C218.139 110.038 217.591 108.946 216.495 108.127C214.851 107.308 212.933 107.581 211.288 108.127C210.74 108.4 210.192 108.673 209.644 108.946C208 108.673 206.082 109.492 204.164 109.765C198.683 110.858 193.203 109.492 187.722 109.219C186.9 109.219 185.804 109.219 184.982 109.765C184.434 110.038 184.16 110.585 183.612 111.131C181.419 114.134 178.953 117.137 177.583 120.686C174.843 127.785 176.487 135.43 175.939 142.801C175.665 146.351 175.117 149.9 174.843 153.449C174.569 157.271 174.843 160.821 175.391 164.643C175.665 168.192 175.939 172.015 177.857 175.291C178.405 176.11 179.227 177.202 180.323 177.202C181.419 177.202 182.241 176.656 183.063 176.11C187.722 172.834 193.477 171.469 198.957 169.284C204.438 167.373 209.096 163.824 214.577 162.186C214.851 162.186 215.125 161.913 215.399 161.913C215.673 161.64 215.673 161.367 215.673 161.094C216.495 156.452 215.399 151.811 214.303 147.17C213.755 144.712 213.207 142.801 213.755 140.344C214.029 137.614 214.303 134.884 214.577 132.426Z" fill="#66637E"/>
<path d="M238.417 86.5586C231.293 95.8414 223.894 105.124 216.769 114.134C216.221 114.953 215.399 115.772 214.851 116.591C195.395 140.89 175.939 165.189 156.757 189.761C156.209 190.58 155.387 191.672 155.935 192.492C156.757 193.584 158.675 192.491 159.771 191.399C161.141 190.034 162.237 188.669 163.608 187.031C178.953 169.285 192.381 150.446 207.178 132.426C218.961 117.956 230.197 103.213 241.158 88.1967C239.788 87.9237 238.965 87.3777 238.417 86.5586Z" fill="#3C444C"/>
<path d="M118.941 213.514C117.571 215.698 116.474 218.156 116.2 220.613C115.926 225.8 120.037 230.442 124.969 231.807C129.902 233.172 135.383 232.08 140.041 229.895C149.906 225.254 157.579 215.971 160.319 205.323C160.867 202.593 161.415 199.863 161.689 196.86C161.963 193.856 165.252 182.663 160.593 181.571C156.483 180.478 147.714 186.212 144.426 188.396C133.464 194.676 125.243 203.139 118.941 213.514Z" fill="#F2D292"/>
<path d="M174.295 116.89C169.91 125.899 166.074 136.547 164.978 146.376C164.704 149.379 164.43 152.656 166.348 155.113C167.718 157.024 170.184 157.57 172.65 157.57C175.117 157.57 177.309 157.024 179.501 156.205C183.064 155.113 186.352 154.294 189.914 153.202C191.01 152.929 192.107 152.656 192.929 151.836C193.751 151.017 194.025 149.652 193.477 148.833C194.025 148.833 194.573 148.833 194.847 148.56C195.121 148.287 195.395 147.468 194.847 147.195C192.929 146.649 190.736 147.195 189.092 148.287C188.544 148.833 187.722 149.379 187.174 149.652C186.352 149.925 185.53 149.925 184.708 149.925C181.145 149.925 177.583 149.652 174.295 149.106C173.473 149.106 172.651 148.833 172.377 148.287C171.006 146.922 173.199 143.373 173.747 141.735C174.843 139.004 177.035 136.547 178.679 134.09C182.242 128.903 185.804 122.896 187.174 116.617C187.722 113.886 187.722 110.61 184.708 109.518C179.775 107.88 176.213 113.34 174.295 116.89Z" fill="#DCB99A"/>
<path d="M187.448 116.07C187.722 113.886 187.448 111.429 186.626 109.517C185.53 107.606 183.612 106.241 181.42 106.514C178.679 106.787 177.035 109.517 175.665 112.248C170.458 122.35 164.978 132.724 164.43 144.464C167.17 144.737 169.91 144.737 172.377 145.01C172.925 145.01 173.473 145.011 174.021 144.737C174.569 144.464 174.843 143.918 175.391 143.099C178.405 137.366 181.145 131.632 184.16 125.626C185.53 122.896 187.174 119.619 187.448 116.07Z" fill="#66637E"/>
<path d="M221.702 109.219C222.798 109.765 223.072 111.13 223.072 112.222C222.798 119.594 222.25 126.692 222.524 134.064C222.798 138.705 223.346 143.074 223.346 147.715C223.346 148.534 223.346 149.08 223.072 149.626C222.25 150.992 220.606 150.992 218.962 150.992C218.139 150.992 217.317 150.991 216.495 150.445C215.673 149.899 215.673 148.807 215.399 147.715C214.577 138.432 213.755 128.877 217.591 120.413C218.413 118.775 219.236 117.137 219.236 115.226C219.236 113.86 218.962 112.768 218.962 111.403C219.51 110.038 220.606 108.673 221.702 109.219Z" fill="#DCB99A"/>
<path d="M217.591 151.265C217.043 151.265 216.495 151.265 215.947 150.992C214.851 150.446 214.303 149.081 214.303 147.989C213.207 142.255 213.207 136.249 214.303 130.788C217.591 130.515 221.154 130.242 224.442 130.242C224.442 136.249 224.168 142.255 223.62 147.989C223.62 149.081 223.346 150.173 222.524 150.719C221.976 151.265 221.154 151.265 220.332 151.538C219.51 151.265 218.413 151.265 217.591 151.265Z" fill="#66637E"/>
<path d="M343.097 92.8379C344.193 95.2951 345.837 97.7524 346.385 100.483C346.659 102.667 346.111 105.124 346.659 107.581C347.481 109.765 350.495 111.403 352.139 109.765C353.784 105.397 350.769 101.029 349.125 96.6602C347.755 93.657 347.207 90.3807 347.207 87.1044C347.207 82.463 348.851 77.2757 353.236 75.9105C357.072 74.8184 361.182 77.0026 363.101 80.2788C365.019 83.5551 365.841 87.6505 366.389 91.4728C367.211 96.9333 367.759 102.121 368.581 107.581C368.307 107.854 368.307 107.035 368.581 107.035C368.855 107.035 369.129 107.581 369.129 107.854C369.403 108.946 369.403 110.311 369.677 111.404C372.144 108.946 374.61 106.489 377.076 103.759C377.35 103.486 377.624 103.213 377.898 102.667C378.446 101.848 378.446 100.756 378.172 99.9365C377.898 94.4761 377.076 89.0156 375.706 83.5551C374.062 76.7296 371.322 69.0849 364.745 65.8087C357.894 62.2594 348.851 65.2626 344.467 71.2691C339.808 77.2756 339.808 86.0123 343.097 92.8379Z" fill="#746458"/>
</svg>
