<?xml version="1.0" encoding="utf-8"?>
<!-- Generator: Adobe Illustrator 23.0.2, SVG Export Plug-In . SVG Version: 6.00 Build 0)  -->
<svg version="1.1" id="Layer_1" xmlns="http://www.w3.org/2000/svg" xmlns:xlink="http://www.w3.org/1999/xlink" x="0px" y="0px"
	 viewBox="0 0 1600 978" style="enable-background:new 0 0 1600 978;" xml:space="preserve">
<style type="text/css">
	.st0{fill:#F2F4F7;}
	.st1{fill:#FFFFFF;}

	@keyframes moveCloud1{
		from{
			transform: translateX(-20%);
		}
	
		to{
			transform: translateX(80%);
		}
	}

	@keyframes moveCloud2{
		from{
			transform: translateX(-40%);
		}
	
		to{
			transform: translateX(74%);
		}
	}

	@keyframes moveCloud3{
		from{
			transform: translateX(-80%);
		}
	
		to{
			transform: translateX(60%);
		}
	}

	#Cloud1{
		animation: moveCloud1 40s linear infinite;
	}

	#Cloud2{
		animation: moveCloud2 30s linear infinite;
	}

	#Cloud3{
		animation: moveCloud3 30s linear infinite;
	}
</style>
<path id="Cloud3" class="st0" d="M1271.4,83.5c-3.4,0-6.8-0.1-10.1-0.1c-2.8-0.1-5.6-0.1-8.4-0.1c-5,0-10.2-0.2-15.2-0.4
	c-2.5-0.1-4.8-0.2-7.2-0.3c-2-0.1-4-0.1-6.1-0.1c-5.6-0.1-11-0.1-16.7-1.3c-1-0.2-4.3-0.6-6.8-0.8c-1.6-0.1-2.9-0.2-3.8-0.3
	c-1.2,0.3-2.5,0.6-3.6,0.6c-3.4,0-6.4-1.3-9.1-4c-4.8-4.9-7.6-13.6-7.5-19.2c0.1-6,8.3-14.4,14.1-17.9c4.2-2.5,11.7-3.4,14.9-3.6
	c-1-6.3,1.2-13.2,6.3-19.6c8.2-10.4,22.2-17,33.6-15.8c10.4,1.1,20.1,7.7,25.8,17.7c4.4,7.6,5.8,15.9,4.2,22.8
	c1.5-0.6,3.4-0.9,5.6-0.9c3.9,0,8.1,0.8,10.1,1.6c8.3,3.1,12.4,7.6,16.9,14.6c3.5,5.3-0.2,15.3-4.3,20.6c-3.2,4.3-8.5,4.8-13.6,5.3
	c-1.5,0.1-3,0.3-4.5,0.6C1282.1,83,1277.2,83.3,1271.4,83.5z"/>
<path id="Cloud2" class="st0" d="M494.9,486.9c-2.3,0-4.8-0.1-7-0.1c-2-0.1-3.9-0.1-5.9-0.1c-3.5,0-7.1-0.2-10.6-0.3
	c-1.7-0.1-3.4-0.2-5-0.2c-1.4-0.1-2.8-0.1-4.2-0.1c-3.9-0.1-7.7-0.1-11.7-0.9c-0.7-0.2-3-0.4-4.8-0.5c-1.1-0.1-2-0.2-2.7-0.2
	c-0.9,0.2-1.7,0.4-2.5,0.4c-2.3,0-4.5-0.9-6.3-2.8c-3.4-3.4-5.3-9.5-5.2-13.4c0.1-4.2,5.8-10.1,9.9-12.5c3-1.7,8.1-2.3,10.4-2.5
	c-0.7-4.4,0.9-9.2,4.4-13.7c5.7-7.3,15.5-11.9,23.5-11c7.3,0.8,14,5.4,18,12.4c3.1,5.3,4.1,11.1,3,16c1-0.4,2.3-0.6,3.9-0.6
	c2.7,0,5.6,0.5,7,1.1c5.8,2.2,8.7,5.3,11.8,10.2c2.4,3.7-0.2,10.7-3,14.4c-2.3,3-6,3.4-9.5,3.7c-1,0.1-2.1,0.2-3.1,0.4
	C502.4,486.6,499,486.9,494.9,486.9z"/>
<path id="Cloud1" class="st0" d="M322.7,374.1c-3.4,0-6.8-0.1-10.1-0.1c-2.8-0.1-5.6-0.1-8.4-0.1c-5,0-10.2-0.2-15.2-0.4
	c-2.5-0.1-4.8-0.2-7.2-0.3c-2-0.1-4-0.1-6.1-0.1c-5.6-0.1-11-0.1-16.7-1.3c-1-0.2-4.3-0.6-6.8-0.8c-1.6-0.1-2.9-0.2-3.8-0.3
	c-1.2,0.3-2.5,0.6-3.6,0.6c-3.4,0-6.4-1.3-9.1-4c-4.8-4.9-7.6-13.6-7.5-19.2c0.1-6,8.3-14.4,14.1-17.9c4.3-2.5,11.7-3.4,14.9-3.6
	c-1-6.3,1.2-13.2,6.3-19.6c8.2-10.4,22.2-17,33.6-15.8c10.4,1.1,20.1,7.7,25.8,17.7c4.4,7.6,5.8,15.9,4.3,22.8
	c1.5-0.6,3.4-0.9,5.6-0.9c3.9,0,8.1,0.8,10.1,1.6c8.3,3.1,12.4,7.6,16.9,14.6c3.5,5.3-0.2,15.3-4.3,20.6c-3.2,4.3-8.5,4.8-13.6,5.3
	c-1.5,0.1-3,0.3-4.5,0.6C333.3,373.7,328.5,374,322.7,374.1z"/>
<path class="st0" d="M1236.9,649.2c4.6,1,9,2.6,10.4,6.4c1.4,3.8-0.9,8.2-4.4,11c-4.7,4.1-11.4,5.4-17.8,5.5c-5.4,0-10.4-1-15.3-2
	c-2.4-0.5-4.8-0.9-7.2-1.3c-7.9-1.3-15.4-0.7-23.3,2.3c-2.2,0.9-4.3,1.8-6.5,2.8c-4.3,1.9-8.6,3.8-13.1,5c-6,1.5-11.4,1.1-17.1,0.6
	c-1.5-0.1-3-0.2-4.5-0.3c-8.3-0.5-16.5,0.9-24.6,2.3c-0.5,0.1-1,0.2-1.5,0.3c-8.8,1.5-17.4,2.6-26,3.5c-17,1.7-33.9,2.7-50.8,2.7
	c-3.1,0-6.2-0.1-9.3-0.2c-5.6-0.1-11.1-0.2-16.7-0.2c-0.3,0-0.8,0.1-1.2,0.1s-0.8,0-1.2,0.1c0.1,0.1,0.2,0.2,0.2,0.2
	c0.1,0.1,0.2,0.2,0.3,0.3c6.5,5.6,2.3,17.2-7.5,20c-3.2,1-6.8,1.2-10.2,1.4c-5.4,0.3-10.6,0.7-14.1,3.8c-0.9,0.8-1.6,1.6-2.2,2.5
	c-0.9,1.3-1.9,2.5-3.4,3.4c-6.2,3.4-18.9,3.4-30.4,3.5c-6.2,0-12,0-16.3,0.6c-8.7,1.2-17.3,1.5-25.8,1.9c-8.2,0.4-16.4,0.7-24.7,1.8
	c-0.9,0.1-1.7,0.2-2.6,0.3c-6.9,0.9-14,1.7-20.3-0.2c-0.5-0.2-1-0.4-1.5-0.5c-2.2-0.9-4.6-1.7-7.3-1.5c-2.1,0.2-4.1,1.2-6,2.3
	c-0.8,0.4-1.6,0.9-2.5,1.3c-7.4,3.6-16.3,3-24.7,2.3c-0.7-0.1-1.4-0.1-2.2-0.2c-35.5-2.8-72.7,1.5-107.3,12.2
	c-2.5,0.8-5,1.6-7.6,2.4c-14.3,4.6-28.9,9.2-43.3,7.6c-4.8-0.5-9.2-1.8-13.7-3c-4.3-1.2-8.6-2.3-13.1-2.9c-4.3-0.5-8.9-0.5-13.4-0.5
	c-8.4,0-16.7,0-23.3-3.3c-7.5-3.6-11-11.2-10.4-18.6c0.4-2.9,1.2-5.7,2.3-8.3c-35.3,2.7-70.6,2.8-105.4,0c-4.7-0.4-9.5-0.9-14.3-1.3
	c-23.4-2.2-47.3-4.5-70.5-1.7c-4.8-0.6-9.4-1.3-13.7-2.3c-14.3-3.3-23-13.4-29-23.8c-7.1-12.5-7.2-24.8,2.4-37.8
	c0.9-1.1,1.7-2.3,2.6-3.4c1.2-1.6,2.4-3.3,3.8-5c23.7-12.9,52.3-22.2,70-22.4c4.5-0.1,9.1,0.1,13.8,0.3c16.1,0.6,32.4,1.2,44.6-7.5
	c2-1.5,3.7-3.2,5.5-4.8c1.5-1.5,3.1-2.9,4.8-4.3c8.2-6.5,18.8-10.2,29.3-13.6c23.8-7.9,47.9-16,71.7-24c5-1.7,10-3.3,15-3.2
	c6.8,0.2,12.2,3.4,17.6,6.6c5.7,3.4,11.3,6.7,18.4,6.4c6.3-0.2,12-3.3,17.6-6.3c0.7-0.4,1.4-0.7,2.1-1.1c16.9-9.1,42.1-13.2,52.7-1
	c1.5,1.7,2.6,3.6,3.7,5.5c1.2,2.2,2.4,4.3,4.3,6.1c5.5,5.5,15,7,23.8,8.3h0.3c0.1,0,0.2,0,0.4,0c0.1,0,0.2,0,0.4,0
	c3.1,0.3,6.1-1.8,8.7-3.7l0.1-0.1c7.8-11.4,22.7-19.5,39.5-16.7c9.2,1.6,14.6,6.1,19.3,11.9c0.2,0.3,0.5,0.6,0.7,1
	c1.5,1.9,3.2,4.2,6,4.5c2.4,0.2,5-0.4,7.6-1c2.4-0.6,4.9-1.1,7.2-1.1c15.8,0,34.8,15,26.9,27.8v0.3c0.4,1.5,0.6,3,0.5,4.6
	c1.3-0.6,2.5-1.2,3.7-1.8c0.5-0.2,1-0.5,1.4-0.7c0.2-0.1,0.3-0.2,0.4-0.2c0.2-0.1,0.3-0.2,0.5-0.1c1.4-12.1,17.1-22.6,32.2-21.1
	c-1.1-5,3.2-10.7,9.9-12.1c7.1-1.5,13.6,2.9,13.7,8.4c0.1-0.5,0.2-1,0.3-1.5c0.8-3.7,1.4-6.4,11.2-4.3c0.1,0,0.2,0,0.3,0
	c0.4,0,0.6,0.1,0.5,0.4c-1.4,6,9.4,5.7,14.2,4.6c0.6-0.2,1.2-0.3,1.9-0.5c4.8-1.3,10.3-2.7,14.5-0.6c1.3,0.7,2.2,1.7,3.1,2.7
	c1.1,1.2,2.2,2.4,4,3.1c3,1.3,6.7,0.8,9.9-0.3c3.9-1.2,7.4-3.1,10.9-5c2.4-1.3,4.7-2.5,7.2-3.6c5.6-2.4,11.8-3.8,18.1-4.3
	c12.6-0.9,23.8,2.3,32.8,8.6l0.2,0.2c2.5,1.8,5.3,3.7,8.8,4.4c3.4,0.6,7.1-0.1,10.2-1.1c1-0.3,2-0.6,3-0.9c4.6-1.4,9.3-2.8,13.9-1.8
	c5.9,1.3,8.1,5.5,10.3,9.8c1.8,3.5,3.6,7,7.5,9c5,2.6,11.3,2.8,17.5,3.1c4.6,0.2,9.3,0.4,13.4,1.5c4.6,1.3,8,3.7,9.8,7.2
	c1.2,2.1,1.8,4.2,2.4,6.4s1.2,4.4,2.4,6.4c4.7,8.5,15.4,5.4,25.5,2.4c4.3-1.2,8.4-2.5,11.9-2.7c12.1-1,23.8,3.6,29.7,11.5l0.2,0.2
	c1.9,2.5,3.6,4.8,7.2,6C1231.2,648.2,1234.1,648.7,1236.9,649.2L1236.9,649.2z"/>
<path class="st0" d="M1600,778.7c-2.3-0.4-4.7-0.5-7.3-0.4c-56.8,2.7-115.6,2.2-173.6,1.8c-25.3-0.2-50.4-0.4-75.2-0.3
	c-167.6,0.2-335.4,0.2-503,0c-119.2,0-238.5-0.2-357.8-0.4c-59.6-0.1-119.2-0.2-178.8-0.2c-35.3-0.1-70.7-0.2-106-0.2
	c-35.3-0.1-70.7-0.1-106-0.2c-15.8-0.1-33.3-0.6-51.4-1.2c-13.8-0.4-27.9-0.9-41.9-1.1V978c37.1,0.3,76.4-0.8,104.5-1.5l0,0
	c14.5-0.4,26-0.7,32.7-0.7h443.4h907c1.2,0,6.2,0,13.5,0.1c23.4,0.1,70.9,0.4,99.9,0.3L1600,778.7L1600,778.7z"/>
<path class="st1" d="M1600,750.4c-8.7-2-18.6-3.5-28.1-4.5c-45.9-5-57.8-8.1-63.4-24.8c-5.4-16-29.5-27.8-73.3-33.8
	c-38.7-5.2-81.2-4.8-122.5-4.3c-66.4,0.8-132.8,1.5-199.2,2.3c-66.4,0.8-132.7,1.5-199,2.3c-1.6,0-3.2,0-4.8,0.1
	c-1.6,0-3.2,0-4.8,0.1c-56.7,0.6-113.7,1.1-170.3-0.6c-28.4-0.9-56.6-2.3-84.8-3.7c-19.7-1-39.3-2-59.1-2.8
	c-167-6.7-338.4,0.5-496.5,20.7C61.8,705.8,28.5,711-1,717.8v71.5c6.7-0.1,13.2-0.2,19.5-0.1c52.9,0.9,105.6,1.7,158.5,2.3
	c101.6,1.3,203.3,2.1,305.1,1.8c178.6-0.6,357.2-2.1,535.9-3.8h0.2c181-1.6,362.2-3.2,541.9-10.9c13.2-0.6,27.9-1.7,39.9-3.8
	L1600,750.4L1600,750.4z"/>
<path class="st0" d="M-1,761c9.8,0.4,23.1-3.9,36.3-8.2c9.5-3.1,18.9-6.1,26.8-7.4c1.8-0.1,3.9-0.3,6-0.5c3.9-0.4,7.4-0.8,8.2-0.2
	c0.9,0.7,1.9-0.6,3-2.2c1.4-2,3.1-4.3,5.1-2.7c3.1,2.4,7.2,2,11.4,1.5c2.2-0.2,4.5-0.5,6.6-0.3c2.3,0.2,4.5,0.8,6.7,1.4
	c2.2,0.6,4.5,1.2,6.7,1.4c7.3,0.6,14.1-2.8,20.8-6.1c0.9-0.5,1.8-0.9,2.8-1.4c15.6-7.4,33-10.9,50.3-10.3c0.2,0,0.4,0,0.6,0
	c4.2,0.1,8.8,0.3,12.2-2.1c0.4-0.3,0.8-0.6,1.1-0.9c0.8-0.7,1.6-1.3,2.7-1.5c1.1-0.2,2.2,0.2,3.3,0.6c0.4,0.1,0.8,0.3,1.1,0.4
	c3.2,0.9,6.6,0.2,9.8-0.5c0.4-0.1,0.8-0.2,1.1-0.2c4-0.9,8-1.3,12-1.8s8-0.9,12-1.8c2-0.4,4.7-0.6,7.7-0.8c5.5-0.4,11.6-0.8,14.3-3
	c0.7-0.6,1.1-1.5,1.5-2.4c0.2-0.5,0.4-0.9,0.7-1.3c1.4-2,3.9-2.3,6.5-2.7c1.6-0.2,3.3-0.5,4.7-1.1c4.4-2,5.4-8.9,1.7-12.2l-0.3-0.3
	c0.2,0,0.4,0,0.6-0.1c0.2,0,0.4-0.1,0.6-0.1c2.1-0.1,4.1-0.2,6.2-0.3s4.2-0.1,6.2-0.3c8.1-0.6,16.2-1.6,24.2-3.1
	c4.1-0.8,8.1-1.7,12.2-2.8c4-1.1,8.1-2.3,12.2-2.3c0.8,0,1.6,0,2.4,0.1c2.7,0.1,5.4,0.2,8-0.9c2.1-0.8,3.9-2.1,5.8-3.4
	c1-0.7,1.9-1.3,2.9-1.9c3.4-2,6.9-2.6,10.9-2.1c1.2,0.1,2.5,0.4,3.7,0.6c2.5,0.4,4.9,0.9,7.4,0.7c3-0.1,6.1-1.1,7.9-3.8
	c1.1-2.1,1.8-4.8,0.9-7.1c-1-2.3-3.3-3.1-5.5-3.5c-0.5-0.1-0.9-0.2-1.4-0.3c-0.9-0.2-1.9-0.3-2.8-0.6c-1.8-0.7-3-2-4.1-3.5
	c-3.7-4.5-9.5-6.9-15.3-6c-1.7,0.3-3.5,1.1-5.4,2c-4.6,2.1-9.5,4.3-12.6-0.7c-0.6-1.1-1.1-2.3-1.6-3.5c-0.6-1.4-1.1-2.8-2-4
	c-1.3-2-3.1-3.4-5.4-4c-2.1-0.5-4.3-0.5-6.6-0.5c-3,0-6.1,0-8.8-1.3c-2.1-1.1-3.3-3.2-4.5-5.2c-1.4-2.5-2.9-4.9-5.7-5.6
	c-2.5-0.5-4.7,0.6-6.8,1.6c-0.3,0.2-0.7,0.3-1,0.5c-1.6,0.6-3.1,1.1-4.8,0.9c-1.7-0.3-3-1.2-4.4-2.3c-0.1-0.1-0.3-0.2-0.4-0.3
	c-4.8-3.5-10.6-5.1-16.6-4.1c-3,0.4-5.8,1.4-8.2,3.1c-1.2,0.8-2.3,1.7-3.4,2.6c-1.4,1.1-2.8,2.2-4.4,3.1c-1.4,0.7-3.1,1.1-4.7,0.6
	c-0.9-0.4-1.5-1.1-2.2-1.7c-0.5-0.6-1.1-1.1-1.8-1.5c-2.4-1.2-5,0-7.2,0.9c-0.1,0.1-0.3,0.1-0.4,0.2c-2.1,0.9-6.9,1.3-7.2-2
	c0-0.3-0.1-0.6-0.4-0.6c-4.9-1-4.9,0.6-4.9,2.8c0,0.3,0,0.6,0,0.9c-0.6-3.3-4.1-5.8-7.4-4.7c-3,1-4.5,4.5-3.5,7.5
	c-7.4-0.6-14,6.2-13.5,13.5c-0.1,0-0.3,0.1-0.4,0.3l0,0c-0.5,0.4-1.1,0.8-1.6,1.1c-0.2,0.1-0.4,0.3-0.6,0.4c-0.1-1-0.3-1.8-0.7-2.7
	c0,0,0-0.1-0.1-0.1c2.6-7.9-7.9-16.3-15.5-15.9c-1.2,0.1-2.3,0.5-3.4,0.9c-1.2,0.4-2.4,0.8-3.5,0.8c-1.4,0-2.3-1.2-3.1-2.2
	c-0.2-0.3-0.4-0.5-0.6-0.8c-2.8-3.3-6-5.8-10.4-6.5c-8.4-1.3-14.6,4.1-17.4,11.2l0,0c-1.1,1.3-2.3,2.6-3.8,2.6h-0.4h-0.3
	c-4.3-0.6-9-1.2-12.1-4.2c-1-1-1.8-2.2-2.6-3.5c-0.7-1.2-1.5-2.3-2.4-3.3c-6.2-6.9-18-3.8-25.2,2.1c-0.4,0.3-0.7,0.6-1.1,0.9
	c-2.3,1.9-4.7,3.8-7.6,4.1c-3.4,0.4-6.5-1.5-9.5-3.4c-2.9-1.8-5.7-3.5-8.9-3.4c-2.4,0-4.7,1.1-6.8,2.3c-5.4,2.8-10.7,5.5-16.1,8.2
	s-10.7,5.5-16.1,8.2c-0.1,0.1-0.3,0.1-0.4,0.2c-4.6,2.3-9.2,4.7-12.4,8.9c-0.6,0.7-1.1,1.5-1.6,2.3c-0.8,1.2-1.6,2.3-2.5,3.4
	c-5.1,5.5-13,5.6-20.8,5.7c-0.8,0-1.5,0-2.3,0V761H-1z"/>
<path class="st0" d="M1600,653.8c-0.5,0-1.1,0-1.7,0c-5,0.4-8.6,3.8-8.3,7.2c-10.9-2.2-23.3,3.6-25.4,11.4c-0.1-0.1-0.2,0-0.4,0.1
	c-0.1,0-0.2,0.1-0.3,0.1c-0.3,0.1-0.7,0.2-1.1,0.3c-0.9,0.3-1.9,0.6-2.9,0.9c0.2-1,0.2-2.1,0-3.1v-0.2c6.9-7.9-5.7-19.3-17.3-20.5
	c-1.7-0.2-3.6,0-5.4,0.2c-2,0.2-3.9,0.4-5.7,0.1c-2.1-0.4-3.1-2-4-3.4c-0.2-0.2-0.3-0.5-0.5-0.7c-2.9-4.2-6.6-7.6-13.2-9.4
	c-12.1-3.2-23.7,1-30.5,8h-0.1c-2.1,1-4.5,2.2-6.7,1.7c-0.1,0-0.2,0-0.3,0c-0.1,0-0.2,0-0.3,0l-0.2-0.1c-6.3-1.6-13.2-3.3-16.8-7.3
	c-1.2-1.3-1.9-2.9-2.6-4.4c-0.6-1.4-1.3-2.7-2.2-4c-6.8-8.9-25.6-8.1-38.8-3.5c-0.5,0.2-1.1,0.4-1.6,0.6c-4.3,1.5-8.8,3.1-13.4,2.8
	c-5.2-0.3-9.1-3-12.9-5.7c-3.7-2.5-7.4-5.1-12.3-5.7c-3.6-0.5-7.4,0.2-11.2,0.9c-18.2,3.5-36.5,6.9-54.7,10.3
	c-8,1.5-16.1,3.1-22.7,6.7c-1.4,0.8-2.6,1.6-3.9,2.5c-1.4,1-2.9,1.9-4.4,2.8c-9.7,4.8-21.6,3.1-33.3,1.5c-3.4-0.5-6.8-1-10.1-1.3
	c-13-1.2-34.8,2.7-53.3,9.4c-1.1,1-2.2,2-3.2,3c-0.7,0.7-1.5,1.4-2.2,2.1c-8.1,7.9-9.2,16-5,24.8c3.5,7.3,9,14.7,19.2,18
	c3.1,1,6.4,1.9,9.9,2.6c17.2,0,34.6,3.4,51.6,6.6c3.5,0.7,6.9,1.3,10.4,2c25.2,4.6,51.2,7.3,77.3,8.2c-1,1.7-1.9,3.5-2.4,5.3
	c-1,4.9,0.9,10.1,6.1,13.1c4.6,2.7,10.7,3.4,16.8,4c3.3,0.4,6.7,0.7,9.8,1.4c3.3,0.7,6.3,1.8,9.4,3c3.2,1.2,6.4,2.3,9.8,3
	c10.4,2.2,21.6,0.3,32.5-1.6c1.9-0.3,3.9-0.7,5.8-1c26.3-4.4,54-4.3,79.8,0.3c0.5,0.1,1,0.2,1.6,0.3c6.1,1.1,12.6,2.2,18.3,0.4
	c0.7-0.2,1.3-0.4,1.9-0.7c1.5-0.6,3-1.1,4.6-1c2,0.1,3.6,0.8,5.2,1.6c0.3,0.2,0.7,0.3,1,0.5c4.5,1.7,9.8,1.7,14.9,1.7
	c0.6,0,1.3,0,1.9,0c6.2,0,12.2,0.4,18.2,0.8c6.3,0.4,12.7,0.8,19.1,0.7c1.7,0,3.8,0.1,6,0.3v-97.6H1600z"/>
<path class="st0" d="M1287.7,629.3c0.6-3.4,0.8-4,0.8-3.9c5.4,0,16.2,0.2,16.9,0.9c0.6,0.7,1,6,1.1,8.6c-0.1,0.6-0.8,1.7-2.7,1.7
	h-0.8c-5.1,0.1-15.6,0.3-16.5,0C1285.4,636.2,1286.9,633.6,1287.7,629.3z"/>
<path class="st0" d="M1334.3,627l-3.8-8.1l-9-19.4l-0.6-1.3h3.1c3,0,6-0.9,8.8-1.7h0.1c0.1,0,0.8-0.1,0.7-0.3l-3.6-6.4l-9-19.4
	l-4.2-9h1.1l9.1,1.1c0.1,0,0.6-0.2,0.5-0.4c0,0-4.3-5.2-4.6-7.7c-0.3-2.5-7.3-15.8-7.3-15.8l-2.3-5.1h1.5l6.4-0.1
	c0.1,0,0.8-0.1,0.8-0.3c0,0-3.4-4.3-10.2-17.2c-6.7-12.9-7.5-21.6-10.1-28.4s-5.8-10.9-5.8-10.9c-0.1-0.2-0.9,0.1-0.9,0.2
	c0,0-5.2,18.2-12.3,28.4c-7.1,10.2-9.9,21.4-9.9,21.4l-3.1,7l0,0c0,0,0,0.1,0.1,0.1l7.6-0.1l-1.3,2.9c0,0-0.6,2.7-4.6,9.9
	c-4.1,7.2-5.9,10.2-5.9,10.2c-0.5,0.8-0.9,1.7-1.2,2.6c0,0,0,0.1-0.1,0.1c-0.1,0.2,0,0.3,0.2,0.3c0.1,0,0.1,0,0.2,0l10.8,1.8
	l-2.9,6.5l-9.1,20.3c0,0-2.4,3.9-4.1,5.8c-1.7,1.9-1.9,2.3-1.9,2.3c-0.4,0.8-0.6,0.6-0.7,1c0,0,0,0.1-0.1,0.1v0.1
	c0,0,0.1,0.1,0.2,0.1l9.6,0.8h5.8l-8.4,18.9l-3,6.8c-0.6,1-1,2.1-1.4,3.2c0,0,0,0.1-0.1,0.1v0.1v0.1c0,0.1,0.1,0.1,0.3,0.1
	c0,0,3-0.5,7.3-0.1s5.8-1.3,11.5-0.1c5.6,1.2,8.3,0.1,10.9,0.1c2.6,0.1,12.4-0.4,16.5-0.4c4.2,0,13.9,0.9,17.3,0.4s7.1-0.4,10.1-0.6
	h0.1C1333.8,627.4,1334.4,627.3,1334.3,627z"/>
<path class="st0" d="M1347.4,618.4c0.8-4.5,1-5.3,1-5.1c7,0,21.2,0.2,22.1,1.1c0.8,0.9,1.3,7.9,1.5,11.3c-0.2,0.8-1.1,2.3-3.5,2.3
	h-1c-6.7,0.2-20.3,0.5-21.5,0C1344.4,627.4,1346.4,624,1347.4,618.4z"/>
<path class="st0" d="M1408.4,615.4l-4.9-10.6l-11.8-25.4l-0.8-1.7h4c3.9,0,7.9-1.2,11.5-2.3h0.2c0.1,0,1-0.2,0.9-0.5l-4.7-8.4
	l-11.8-25.4l-5.4-11.7h1.4l11.9,1.5c0.2,0,0.8-0.3,0.7-0.6c0,0-5.6-6.8-6-10.1s-9.6-20.7-9.6-20.7l-3-6.7h2l8.3-0.1
	c0.1,0,1.1-0.2,1-0.4c0,0-4.5-5.7-13.3-22.5c-8.8-16.9-9.8-28.3-13.2-37.2c-3.4-8.9-7.7-14.2-7.7-14.2c-0.1-0.3-1.1,0.1-1.2,0.3
	c0,0-6.8,23.8-16.2,37.2c-9.3,13.4-13,28.1-13,28.1l-4.1,9.1c0,0,0,0,0,0.1s0,0.1,0.2,0.1l10-0.1l-1.7,3.8c0,0-0.8,3.5-6.1,12.9
	c-5.3,9.4-7.8,13.4-7.8,13.4c-0.6,1.1-1.1,2.2-1.5,3.4c0,0.1,0,0.1-0.1,0.1c-0.1,0.2,0,0.4,0.2,0.4c0.1,0,0.2,0,0.3,0l14.2,2.4
	l-3.8,8.5l-11.8,26.6c0,0-3.2,5.1-5.4,7.6c-2.2,2.5-2.4,3-2.4,3c-0.5,1-0.8,0.8-0.9,1.3c0,0.1-0.1,0.1-0.1,0.2v0.1
	c0,0,0.1,0.1,0.3,0.1l12.6,1.1l7.6-0.1l-11.1,24.8l-3.9,8.8c-0.7,1.3-1.4,2.7-1.9,4.2c0,0.1,0,0.1-0.1,0.2v0.1v0.1
	c0,0.1,0.1,0.2,0.3,0.2c0,0,4-0.6,9.6-0.1c5.7,0.6,7.6-1.7,15-0.1s10.9,0.1,14.3,0.2c3.4,0.1,16.2-0.6,21.6-0.5
	c5.5,0.1,18.3,1.2,22.7,0.5c4.4-0.7,9.3-0.5,13.2-0.8h0.1C1407.8,615.9,1408.6,615.8,1408.4,615.4z"/>
<path class="st0" d="M1494.8,636.3c0.6-3.4,0.8-3.9,0.8-3.8c5.3,0,16,0.2,16.6,0.8c0.6,0.7,1,5.9,1.1,8.4c-0.1,0.6-0.8,1.7-2.6,1.7
	h-0.8c-5,0.1-15.3,0.3-16.2,0C1492.5,643,1494,640.5,1494.8,636.3z"/>
<path class="st0" d="M1540.7,634l-3.7-7.9l-8.9-18.9l-0.6-1.3h3c3,0,5.9-0.9,8.7-1.7h0.1c0.1,0,0.7-0.1,0.7-0.3l-3.5-6.3l-8.9-18.9
	l-4.1-8.8h1.1l8.9,1.1c0.2,0,0.6-0.2,0.5-0.4c0,0-4.2-5.1-4.5-7.5c-0.3-2.5-7.2-15.4-7.2-15.4l-2.3-5h1.5l6.3-0.1
	c0.1,0,0.8-0.1,0.7-0.3c0,0-3.4-4.2-10-16.8s-7.4-21.1-10-27.8c-2.6-6.7-5.8-10.6-5.8-10.6c-0.1-0.2-0.8,0.1-0.9,0.2
	c0,0-5.1,17.8-12.2,27.8c-7,10-9.8,21-9.8,21l-3.1,6.8l0,0c0,0,0,0.1,0.1,0.1l7.5-0.1l-1.3,2.9c0,0-0.6,2.6-4.6,9.7s-5.9,10-5.9,10
	c-0.5,0.8-0.9,1.7-1.2,2.6c0,0,0,0.1-0.1,0.1c-0.1,0.2,0,0.3,0.2,0.3c0.1,0,0.1,0,0.2,0l10.7,1.8l-2.8,6.3l-8.9,19.9
	c0,0-2.4,3.8-4,5.7s-1.8,2.2-1.8,2.2c-0.4,0.7-0.6,0.6-0.7,1c0,0,0,0.1-0.1,0.1v0.1c0,0,0.1,0.1,0.2,0.1l9.5,0.8h5.7l-8.3,18.5
	l-3,6.6c-0.5,1-1,2-1.4,3.1c0,0,0,0.1-0.1,0.1v0.1v0.1c0,0.1,0.1,0.1,0.3,0.1c0,0,3-0.5,7.2-0.1c4.3,0.4,5.8-1.3,11.3-0.1
	c5.6,1.2,8.2,0.1,10.8,0.1c2.6,0.1,12.2-0.4,16.3-0.4c4.1,0,13.8,0.9,17.1,0.4c3.3-0.5,7-0.4,10-0.6h0.1
	C1540.2,634.4,1540.8,634.3,1540.7,634z"/>
<path class="st0" d="M821.3,602.5c0.4-2.4,0.5-2.8,0.5-2.7c3.8,0,11.5,0.1,11.9,0.6s0.7,4.2,0.8,6.1c-0.1,0.4-0.6,1.2-1.9,1.2h-0.5
	c-3.6,0.1-11,0.2-11.6,0C819.7,607.4,820.8,605.5,821.3,602.5z"/>
<path class="st0" d="M854.2,600.9l-2.6-5.7l-6.3-13.7l-0.4-0.9h2.2c2.1,0,4.3-0.6,6.2-1.2h0.1c0.1,0,0.5-0.1,0.5-0.2l-2.5-4.5
	l-6.3-13.7l-2.9-6.3h0.8l6.4,0.8c0.1,0,0.4-0.1,0.4-0.3c0,0-3-3.7-3.2-5.4c-0.2-1.8-5.2-11.1-5.2-11.1l-1.6-3.6h1.1h4.5
	c0.1,0,0.6-0.1,0.5-0.2c0,0-2.4-3.1-7.2-12.1c-4.8-9.1-5.3-15.2-7.1-20c-1.9-4.8-4.1-7.7-4.1-7.7c-0.1-0.1-0.6,0-0.7,0.1
	c0,0-3.7,12.8-8.7,20c-5,7.2-7,15.1-7,15.1l-2.2,4.9l0,0c0,0,0,0,0.1,0h5.4l-0.9,2.1c0,0-0.4,1.9-3.3,7c-2.9,5.1-4.2,7.2-4.2,7.2
	c-0.3,0.6-0.6,1.2-0.8,1.9v0.1c-0.1,0.1,0,0.2,0.1,0.2h0.1l7.6,1.3l-2,4.6l-6.4,14.3c0,0-1.7,2.7-2.9,4.1c-1.2,1.3-1.3,1.6-1.3,1.6
	c-0.3,0.5-0.4,0.4-0.5,0.7v0.1c0,0,0,0,0,0.1s0.1,0.1,0.2,0.1l6.8,0.6h4.1l-6,13.3l-2.1,4.8c-0.4,0.7-0.7,1.5-1,2.3v0.1
	c0,0,0,0,0,0.1c0,0,0,0,0,0.1s0,0.1,0.2,0.1c0,0,2.1-0.3,5.2,0c3.1,0.3,4.1-0.9,8.1-0.1c4,0.9,5.9,0.1,7.7,0.1s8.7-0.3,11.7-0.3
	c2.9,0,9.8,0.6,12.2,0.3c2.4-0.4,5-0.3,7.1-0.4h0.1C853.9,601.2,854.3,601.1,854.2,600.9z"/>
<path class="st0" d="M863.5,608.1c0.6-3.2,0.7-3.7,0.7-3.6c5,0,15,0.2,15.6,0.8s0.9,5.5,1.1,7.9c-0.1,0.5-0.8,1.6-2.5,1.6h-0.7
	c-4.7,0.1-14.4,0.3-15.3,0C861.4,614.4,862.8,612.1,863.5,608.1z"/>
<path class="st0" d="M906.7,606l-3.5-7.4l-8.3-17.8l-0.5-1.2h2.8c2.8,0,5.6-0.8,8.2-1.6h0.1c0.1,0,0.7-0.1,0.6-0.3l-3.3-5.9
	l-8.3-17.8l-3.8-8.2h1l8.4,1c0.1,0,0.6-0.2,0.5-0.4c0,0-4-4.8-4.2-7.1s-6.8-14.5-6.8-14.5l-2.1-4.7h1.4h5.9c0.1,0,0.8-0.1,0.7-0.3
	c0,0-3.2-4-9.4-15.8c-6.2-11.9-6.9-19.9-9.4-26.1c-2.4-6.3-5.4-10-5.4-10c-0.1-0.2-0.8,0-0.9,0.2c0,0-4.8,16.8-11.4,26.2
	c-6.6,9.4-9.2,19.7-9.2,19.7l-2.9,6.4l0,0c0,0,0,0,0.1,0l7.1-0.1l-1.2,2.7c0,0-0.5,2.5-4.3,9.1s-5.5,9.4-5.5,9.4
	c-0.4,0.8-0.8,1.6-1.1,2.4v0.1c-0.1,0.2,0,0.3,0.2,0.3c0.1,0,0.1,0,0.2,0l10,1.7l-2.7,6l-8.4,18.7c0,0-2.3,3.6-3.8,5.3
	s-1.7,2.1-1.7,2.1c-0.3,0.7-0.5,0.6-0.6,0.9c0,0,0,0.1-0.1,0.1c0,0,0,0,0,0.1c0,0,0.1,0.1,0.2,0.1l8.9,0.8h5.4l-7.8,17.4l-2.8,6.2
	c-0.5,0.9-1,1.9-1.3,2.9c0,0,0,0.1-0.1,0.1v0.1v0.1c0,0.1,0.1,0.1,0.2,0.1c0,0,2.8-0.4,6.8-0.1c4,0.4,5.4-1.2,10.6-0.1
	c5.2,1.1,7.7,0.1,10.1,0.1c2.4,0.1,11.5-0.4,15.3-0.3c3.9,0,12.9,0.8,16.1,0.3s6.6-0.4,9.4-0.6h0.1
	C906.2,606.4,906.8,606.2,906.7,606z"/>
<path class="st0" d="M945.9,595.9c0.4-2.3,0.5-2.7,0.5-2.6c3.6,0,11,0.1,11.4,0.6s0.7,4,0.8,5.8c-0.1,0.4-0.6,1.2-1.8,1.2h-0.5
	c-3.5,0.1-10.5,0.2-11.1,0C944.3,600.5,945.3,598.8,945.9,595.9z"/>
<path class="st0" d="M977.4,594.3l-2.5-5.4l-6.1-13l-0.4-0.9h2.1c2,0,4.1-0.6,6-1.2h0.1c0.1,0,0.5-0.1,0.4-0.2l-2.4-4.3l-6.1-13
	l-2.8-6h0.7l6.1,0.7c0.1,0,0.4-0.1,0.3-0.3c0,0-2.9-3.5-3.1-5.2c-0.2-1.7-4.9-10.6-4.9-10.6l-1.6-3.4h1h4.3c0.1,0,0.6-0.1,0.5-0.2
	c0,0-2.3-2.9-6.9-11.5c-4.6-8.6-5.1-14.4-6.8-19c-1.8-4.6-4-7.3-4-7.3c-0.1-0.1-0.6,0-0.6,0.1c0,0-3.5,12.2-8.3,19
	c-4.8,6.8-6.7,14.3-6.7,14.3l-2.1,4.7l0,0c0,0,0,0,0.1,0h5.2l-0.9,2c0,0-0.4,1.8-3.1,6.6c-2.7,4.8-4,6.9-4,6.9
	c-0.3,0.6-0.6,1.1-0.8,1.8v0.1c-0.1,0.1,0,0.2,0.1,0.2h0.1l7.3,1.2l-2,4.3l-6.1,13.6c0,0-1.7,2.6-2.8,3.9c-1.1,1.3-1.3,1.5-1.3,1.5
	c-0.3,0.5-0.4,0.4-0.5,0.7v0.1c0,0,0,0,0,0.1s0,0.1,0.2,0.1l6.5,0.6h3.9l-5.7,12.7l-2,4.5c-0.4,0.7-0.7,1.4-1,2.1v0.1c0,0,0,0,0,0.1
	c0,0,0,0,0,0.1s0,0.1,0.2,0.1c0,0,2-0.3,5,0c2.9,0.3,3.9-0.9,7.8-0.1c3.8,0.8,5.6,0.1,7.4,0.1c1.8,0,8.4-0.3,11.2-0.3
	s9.4,0.6,11.7,0.3c2.3-0.4,4.8-0.3,6.8-0.4h0.1C977.1,594.6,977.5,594.5,977.4,594.3z"/>
<path class="st0" d="M1114.6,621.1c0.3-1.5,0.3-1.8,0.3-1.7c2.4,0,7.4,0.1,7.7,0.4c0.3,0.3,0.5,2.7,0.5,3.8c0,0.3-0.4,0.8-1.2,0.8
	h-0.3c-2.3,0.1-7.1,0.2-7.5,0C1113.6,624.2,1114.3,623,1114.6,621.1z"/>
<path class="st0" d="M1135.9,620.1l-1.7-3.6l-4.1-8.6l-0.3-0.6h1.4c1.4,0,2.8-0.4,4-0.8h0.1c0,0,0.3-0.1,0.3-0.2l-1.6-2.9l-4.1-8.6
	l-1.9-4h0.5l4.1,0.5c0.1,0,0.3-0.1,0.2-0.2c0,0-1.9-2.3-2.1-3.4c-0.1-1.1-3.3-7-3.3-7l-1.1-2.3h0.7h2.9c0.1,0,0.4-0.1,0.4-0.1
	s-1.6-1.9-4.6-7.7c-3.1-5.7-3.4-9.6-4.6-12.7c-1.2-3-2.7-4.8-2.7-4.8c0-0.1-0.4,0-0.4,0.1c0,0-2.4,8.1-5.6,12.7
	c-3.2,4.6-4.5,9.6-4.5,9.6l-1.4,3.1l0,0c0,0,0,0,0.1,0h3.5l-0.6,1.3c0,0-0.3,1.2-2.1,4.4c-1.8,3.2-2.7,4.6-2.7,4.6
	c-0.2,0.4-0.4,0.8-0.5,1.2c0,0,0,0,0,0.1s0,0.1,0.1,0.1h0.1l4.9,0.8l-1.3,2.9l-4.1,9.1c0,0-1.1,1.7-1.9,2.6c-0.8,0.8-0.9,1-0.9,1
	c-0.2,0.3-0.3,0.3-0.3,0.4c0,0,0,0,0,0.1l0,0c0,0,0,0,0.1,0l4.4,0.4h2.6l-3.8,8.4l-1.4,3c-0.3,0.5-0.5,0.9-0.6,1.4c0,0,0,0,0,0.1
	l0,0l0,0c0,0,0,0.1,0.1,0.1c0,0,1.4-0.2,3.3,0c2,0.2,2.7-0.6,5.2,0c2.6,0.6,3.8,0,5,0.1c1.2,0,5.6-0.2,7.5-0.2s6.4,0.4,7.9,0.2
	s3.2-0.2,4.6-0.3l0,0C1135.7,620.3,1135.9,620.2,1135.9,620.1z"/>
<path class="st0" d="M1006.5,589.8c0.2-1.2,0.3-1.4,0.3-1.3c1.9,0,5.7,0.1,5.9,0.3s0.4,2.1,0.4,3c0,0.2-0.3,0.6-1,0.6h-0.3
	c-1.8,0-5.5,0.1-5.8,0C1005.7,592.1,1006.3,591.3,1006.5,589.8z"/>
<path class="st0" d="M1023,589l-1.3-2.8l-3.2-6.7l-0.2-0.4h1.1c1.1,0,2.1-0.3,3.1-0.6h0.1c0,0,0.3,0,0.2-0.1l-1.3-2.2l-3.2-6.7
	l-1.5-3.1h0.4l3.2,0.4c0,0,0.2-0.1,0.2-0.2c0,0-1.5-1.8-1.6-2.7s-2.6-5.5-2.6-5.5l-0.8-1.8h0.5h2.2c0,0,0.3,0,0.3-0.1
	c0,0-1.2-1.5-3.6-5.9c-2.4-4.4-2.6-7.5-3.6-9.8c-0.9-2.4-2.1-3.7-2.1-3.7c0-0.1-0.3,0-0.3,0.1c0,0-1.8,6.3-4.3,9.8s-3.5,7.4-3.5,7.4
	l-1.1,2.4l0,0l0,0h2.7l-0.5,1c0,0-0.2,0.9-1.6,3.4c-1.4,2.5-2.1,3.5-2.1,3.5c-0.2,0.3-0.3,0.6-0.4,0.9l0,0c0,0.1,0,0.1,0.1,0.1
	c0,0,0,0,0.1,0l3.8,0.6l-1,2.2l-3.2,7c0,0-0.9,1.3-1.4,2c-0.6,0.7-0.7,0.8-0.7,0.8c-0.1,0.3-0.2,0.2-0.2,0.3l0,0l0,0c0,0,0,0,0.1,0
	l3.4,0.3h2l-3,6.5l-1.1,2.3c-0.2,0.4-0.4,0.7-0.5,1.1l0,0l0,0l0,0c0,0,0,0,0.1,0c0,0,1.1-0.2,2.6,0c1.5,0.1,2.1-0.5,4.1,0
	c2,0.4,2.9,0,3.8,0c0.9,0,4.4-0.1,5.8-0.1c1.5,0,4.9,0.3,6.1,0.1c1.2-0.2,2.5-0.1,3.6-0.2l0,0C1022.8,589.1,1023,589.1,1023,589z"/>
<path class="st0" d="M70.1,632.7c0.5-2.8,0.6-3.3,0.6-3.1c4.4,0,13.4,0.1,13.9,0.7c0.5,0.6,0.8,4.9,0.9,7c-0.1,0.5-0.7,1.4-2.2,1.4
	h-0.6c-4.2,0.1-12.8,0.3-13.6,0C68.2,638.3,69.4,636.2,70.1,632.7z"/>
<path class="st0" d="M108.5,630.8l-3.1-6.6L98,608.5l-0.5-1h2.5c2.5,0,5-0.7,7.3-1.4h0.1c0.1,0,0.6-0.1,0.5-0.3l-2.9-5.2l-7.4-15.7
	l-3.4-7.3H95l7.5,0.9c0.1,0,0.5-0.2,0.4-0.4c0,0-3.5-4.2-3.8-6.3c-0.2-2-6-12.8-6-12.8l-1.9-4.2h1.2h5.2c0.1,0,0.7-0.1,0.6-0.3
	c0,0-2.8-3.5-8.4-14s-6.2-17.5-8.3-23.1c-2.2-5.5-4.8-8.8-4.8-8.8c-0.1-0.2-0.7,0-0.8,0.2c0,0-4.3,14.8-10.2,23.1
	c-5.9,8.3-8.2,17.4-8.2,17.4l-2.6,5.7l0,0c0,0,0,0,0.1,0h6.3l-1.1,2.4c0,0-0.5,2.2-3.8,8s-4.9,8.3-4.9,8.3c-0.4,0.7-0.7,1.4-1,2.1
	v0.1c-0.1,0.2,0,0.2,0.2,0.3c0.1,0,0.1,0,0.2,0l8.9,1.5l-2.4,5.3l-7.5,16.5c0,0-2,3.2-3.4,4.7S45,606,45,606
	c-0.3,0.6-0.5,0.5-0.6,0.8v0.1c0,0,0,0,0,0.1c0,0,0.1,0.1,0.2,0.1l7.9,0.7h4.8l-6.9,15.4l-2.5,5.5c-0.5,0.8-0.9,1.7-1.2,2.6v0.1
	c0,0,0,0,0,0.1v0.1c0,0.1,0.1,0.1,0.2,0.1c0,0,2.5-0.4,6.1,0c3.6,0.3,4.8-1.1,9.5-0.1c4.6,1,6.9,0.1,9,0.1s10.2-0.3,13.6-0.3
	s11.5,0.7,14.3,0.3s5.9-0.3,8.3-0.5h0.1C108.1,631.1,108.6,631,108.5,630.8z"/>
<path class="st0" d="M139.1,630.2c0.8-4.3,1-5,1-4.8c6.7,0,20.3,0.2,21.1,1.1c0.8,0.9,1.3,7.4,1.4,10.6c-0.2,0.7-1.1,2.1-3.4,2.1h-1
	c-6.4,0.2-19.4,0.4-20.6,0C136.3,638.7,138.2,635.5,139.1,630.2z"/>
<path class="st0" d="M197.4,627.3l-4.7-10l-11.2-24l-0.7-1.6h3.8c3.7,0,7.5-1.1,11-2.1h0.2c0.1,0,0.9-0.2,0.8-0.4l-4.5-7.9l-11.2-24
	l-5.2-11.1h1.3l11.3,1.4c0.2,0,0.8-0.2,0.6-0.6c0,0-5.4-6.4-5.7-9.5c-0.4-3.1-9.1-19.5-9.1-19.5l-2.9-6.3h1.9l8-0.1
	c0.1,0,1.1-0.2,0.9-0.4c0,0-4.3-5.4-12.7-21.3s-9.4-26.7-12.6-35.1s-7.3-13.4-7.3-13.4c-0.1-0.3-1.1,0.1-1.2,0.3
	c0,0-6.5,22.5-15.4,35.2c-8.9,12.6-12.4,26.5-12.4,26.5l-3.9,8.6c0,0,0,0,0,0.1s0,0.1,0.2,0.1l9.5-0.1l-1.6,3.6
	c0,0-0.7,3.3-5.8,12.2c-5.1,8.9-7.4,12.7-7.4,12.7c-0.6,1-1.1,2.1-1.5,3.3c0,0,0,0.1-0.1,0.1c-0.1,0.2,0,0.4,0.2,0.4
	c0.1,0,0.2,0,0.3,0l13.5,2.3l-3.6,8l-11.3,25.1c0,0-3.1,4.8-5.1,7.2s-2.3,2.8-2.3,2.8c-0.5,0.9-0.7,0.8-0.9,1.2c0,0.1,0,0.1-0.1,0.2
	v0.1c0,0,0.1,0.1,0.3,0.1l12,1l7.2-0.1l-10.5,23.4l-3.7,8.4c-0.7,1.3-1.3,2.6-1.8,4c0,0.1,0,0.1-0.1,0.2v0.1v0.1
	c0,0.1,0.1,0.2,0.3,0.2c0,0,3.8-0.6,9.2-0.1c5.4,0.5,7.3-1.6,14.4-0.1s10.4,0.1,13.6,0.2c3.2,0.1,15.5-0.5,20.7-0.5
	c5.2,0.1,17.4,1.1,21.7,0.5c4.2-0.7,8.9-0.5,12.7-0.8h0.1C196.8,627.9,197.6,627.7,197.4,627.3z"/>
</svg>
