<?xml version="1.0" encoding="utf-8"?>
<!-- Generator: Adobe Illustrator 23.0.1, SVG Export Plug-In . SVG Version: 6.00 Build 0)  -->
<svg version="1.1" id="Layer_1" xmlns="http://www.w3.org/2000/svg" xmlns:xlink="http://www.w3.org/1999/xlink" x="0px" y="0px"
	 viewBox="0 0 40 49" style="enable-background:new 0 0 40 49;" xml:space="preserve">
<style type="text/css">
	.st0{fill:#03A678;}
</style>
<title>Shape</title>
<desc>Created with Sketch.</desc>
<g id="Marketing">
	<g id="Marketing-FAQ-2" transform="translate(-700.000000, -1079.000000)">
		<g id="browse-by-topic" transform="translate(0.000000, 660.000000)">
			<g id="Group-28" transform="translate(150.000000, 184.000000)">
				<g id="Group-16" transform="translate(390.000000, 205.000000)">
					<path id="Shape" class="st0" d="M175,30c-2.2,0-4.1,1.7-4.3,3.9h-2.9c-0.6,0-1.1,0.5-1.1,1.1v1.1c-1.9,0-3.8,0-5.7,0
						c-0.5,0.1-1,0.6-1,1.1v35.1c0,0.6,0.5,1.1,1.1,1.1h18.2c1.9,3.3,5.5,5.6,9.6,5.6c6.1,0,11.1-5,11.1-11.1
						c0-5.8-4.4-10.5-10-11.1V37.2c0-0.6-0.5-1.1-1.1-1.1h-5.6V35c0-0.6-0.5-1.1-1.1-1.1h-2.9C179.1,31.7,177.2,30,175,30z
						 M175,32.2c1.3,0,2.2,1,2.2,2.2V35c0,0.6,0.5,1.1,1.1,1.1h2.8v2.2h-12.2v-2.2h2.8c0.6,0,1.1-0.5,1.1-1.1v-0.6
						C172.8,33.2,173.7,32.2,175,32.2z M162.2,38.4h4.4v1.1c0,0.6,0.5,1.1,1.1,1.1h14.4c0.6,0,1.1-0.5,1.1-1.1v-1.1h4.4v3.9h-25.6
						V38.4z M162.2,44.5h25.6v12.3c-1,0.1-1.9,0.3-2.8,0.7c-0.2-0.4-0.6-0.7-1.1-0.7c-3.6,0-7.1,0-10.7,0c-0.6,0-1.1,0.6-1.1,1.2
						c0,0.6,0.6,1.1,1.2,1.1h8.9c-1.4,1-2.5,2.4-3.2,3.9c-1.9,0-3.9,0-5.8,0c-0.6,0-1.1,0.6-1.1,1.2c0,0.6,0.6,1.1,1.2,1.1h4.8
						c-0.2,0.9-0.4,1.8-0.4,2.8c0,1.2,0.2,2.3,0.5,3.3h-16.1V44.5z M169.9,48.4c-0.2,0-0.5,0.2-0.6,0.3l-2,2l-0.3-0.3
						c-0.4-0.4-1.2-0.4-1.6,0c-0.4,0.4-0.4,1.2,0,1.6l1.1,1.1c0.4,0.4,1.2,0.4,1.6,0l2.8-2.8c0.3-0.3,0.4-0.9,0.2-1.3
						S170.3,48.3,169.9,48.4z M173.2,50.6c-0.6,0-1.1,0.6-1.1,1.2c0,0.6,0.6,1.1,1.2,1.1h10.6c0.6,0,1.1-0.5,1.1-1.1
						s-0.5-1.1-1.1-1.1C180.3,50.6,176.8,50.6,173.2,50.6z M169.9,54.5c-0.2,0-0.5,0.2-0.6,0.3l-2,2l-0.3-0.3
						c-0.4-0.4-1.2-0.4-1.6,0c-0.4,0.4-0.4,1.2,0,1.6l1.1,1.1c0.4,0.4,1.2,0.4,1.6,0l2.8-2.8c0.3-0.3,0.4-0.9,0.2-1.3
						S170.3,54.4,169.9,54.5z M188.9,59c4.9,0,8.9,4,8.9,8.9c0,4.9-4,8.9-8.9,8.9c-4.9,0-8.9-4-8.9-8.9C180,62.9,184,59,188.9,59z
						 M169.9,60.6c-0.2,0-0.5,0.2-0.6,0.3l-2,2l-0.3-0.3c-0.4-0.4-1.2-0.4-1.6,0c-0.4,0.4-0.4,1.2,0,1.6l1.1,1.1
						c0.4,0.4,1.2,0.4,1.6,0l2.8-2.8c0.3-0.3,0.4-0.9,0.2-1.3S170.3,60.5,169.9,60.6z M192.6,63.4c-0.2,0-0.5,0.2-0.6,0.3l-4.8,4.8
						l-1.4-1.4c-0.4-0.4-1.2-0.4-1.6,0c-0.4,0.4-0.4,1.2,0,1.6l2.2,2.2c0.4,0.4,1.2,0.4,1.6,0l5.6-5.6c0.3-0.3,0.4-0.9,0.2-1.3
						C193.6,63.6,193.1,63.3,192.6,63.4z"/>
				</g>
			</g>
		</g>
	</g>
</g>
</svg>
