<?xml version="1.0" encoding="utf-8"?>
<!-- Generator: Adobe Illustrator 23.0.1, SVG Export Plug-In . SVG Version: 6.00 Build 0)  -->
<svg version="1.1" id="Layer_1" xmlns="http://www.w3.org/2000/svg" xmlns:xlink="http://www.w3.org/1999/xlink" x="0px" y="0px"
	 viewBox="0 0 35 42" style="enable-background:new 0 0 35 42;" xml:space="preserve">
<style type="text/css">
	.st0{fill:none;stroke:#03A678;stroke-width:1.5;stroke-linecap:round;stroke-linejoin:round;}
	.st1{fill:none;stroke:#03A678;stroke-width:1.5;stroke-linecap:round;}
</style>
<title>finance shopping dollar bill</title>
<desc>Created with Sketch.</desc>
<g id="Marketing">
	<g id="Marketing-FAQ-2" transform="translate(-703.000000, -1287.000000)">
		<g id="browse-by-topic" transform="translate(0.000000, 660.000000)">
			<g id="Group-28" transform="translate(150.000000, 184.000000)">
				<g id="Group-11" transform="translate(390.000000, 410.000000)">
					<g id="finance-shopping-dollar-bill" transform="translate(164.000000, 34.000000)">
						<path id="Shape" class="st0" d="M22.7,40H1.8c-1,0-1.8-0.8-1.8-1.8V1.8C0,0.8,0.8,0,1.8,0h29.1c1,0,1.8,0.8,1.8,1.8v30.9
							L22.7,40z"/>
						<polyline class="st0" points="31.8,32.7 21.8,32.7 21.8,39.1 						"/>
						<g id="Group" transform="translate(12.000000, 10.000000)">
							<path class="st1" d="M7.8,4.7c0,0-0.9-2-3.3-2C0.8,2.7-0.8,8,3.6,9.5c6.8,2.3,4.3,7.8,1,7.8c-2.8,0-3.9-1.9-4.1-2.2"/>
							<path class="st1" d="M4.4,0.4l0.1,19.4"/>
						</g>
					</g>
				</g>
			</g>
		</g>
	</g>
</g>
</svg>
