<?xml version="1.0" encoding="utf-8"?>
<!-- Generator: Adobe Illustrator 23.0.1, SVG Export Plug-In . SVG Version: 6.00 Build 0)  -->
<svg version="1.1" id="Layer_1" xmlns="http://www.w3.org/2000/svg" xmlns:xlink="http://www.w3.org/1999/xlink" x="0px" y="0px"
	 viewBox="0 0 32 40" style="enable-background:new 0 0 32 40;" xml:space="preserve">
<style type="text/css">
	.st0{fill:#03A678;}
</style>
<title>Group 7</title>
<desc>Created with Sketch.</desc>
<g id="Marketing">
	<g id="Marketing-FAQ-2" transform="translate(-314.000000, -1288.000000)">
		<g id="browse-by-topic" transform="translate(0.000000, 660.000000)">
			<g id="Group-28" transform="translate(150.000000, 184.000000)">
				<g id="Group-12" transform="translate(0.000000, 410.000000)">
					<g id="Group-7" transform="translate(164.000000, 34.000000)">
						<path id="Rectangle-25" class="st0" d="M1.5,1.5v37h29V4.7l-3.3-3.2H1.5z M0,0h27.9L32,4.1V40H0V0z"/>
						<g id="Group-2" transform="translate(5.000000, 7.000000)">
							<path id="Line-3" class="st0" d="M1,10.8c-0.4,0-0.8-0.3-0.8-0.8S0.6,9.2,1,9.2h20c0.4,0,0.8,0.3,0.8,0.8s-0.3,0.8-0.8,0.8H1
								z"/>
							<path class="st0" d="M1,7.8C0.6,7.8,0.2,7.4,0.2,7S0.6,6.2,1,6.2h20c0.4,0,0.8,0.3,0.8,0.8S21.4,7.8,21,7.8H1z"/>
							<path class="st0" d="M1,4.8C0.6,4.8,0.2,4.4,0.2,4S0.6,3.2,1,3.2h20c0.4,0,0.8,0.3,0.8,0.8S21.4,4.8,21,4.8H1z"/>
							<path class="st0" d="M1,1.8C0.6,1.8,0.2,1.4,0.2,1S0.6,0.2,1,0.2h6.5c0.4,0,0.8,0.3,0.8,0.8S7.9,1.8,7.5,1.8H1z"/>
						</g>
						<g id="Group" transform="translate(5.000000, 26.000000)">
							<path class="st0" d="M1,8.8C0.6,8.8,0.2,8.4,0.2,8c0-0.4,0.3-0.8,0.8-0.8h20c0.4,0,0.8,0.3,0.8,0.8c0,0.4-0.3,0.8-0.8,0.8H1z
								"/>
							<g id="Group-3" transform="translate(1.000000, 0.000000)">
								<path id="Line" class="st0" d="M1.5,5.1c-0.3,0.3-0.8,0.3-1.1,0C0.2,4.8,0.2,4.3,0.5,4L4,0.5c0.3-0.3,0.8-0.3,1.1,0
									c0.3,0.3,0.3,0.8,0,1.1L1.5,5.1z"/>
								<path class="st0" d="M4,5.1c0.3,0.3,0.8,0.3,1.1,0c0.3-0.3,0.3-0.8,0-1.1L1.5,0.5c-0.3-0.3-0.8-0.3-1.1,0
									c-0.3,0.3-0.3,0.8,0,1.1L4,5.1z"/>
							</g>
						</g>
					</g>
				</g>
			</g>
		</g>
	</g>
</g>
</svg>
