<?xml version="1.0" encoding="utf-8"?>
<!-- Generator: Adobe Illustrator 23.0.1, SVG Export Plug-In . SVG Version: 6.00 Build 0)  -->
<svg version="1.1" id="Layer_1" xmlns="http://www.w3.org/2000/svg" xmlns:xlink="http://www.w3.org/1999/xlink" x="0px" y="0px"
	 viewBox="0 0 32 40" style="enable-background:new 0 0 32 40;" xml:space="preserve">
<style type="text/css">
	.st0{fill:#03A678;}
</style>
<title>Group 2</title>
<desc>Created with Sketch.</desc>
<g id="Marketing">
	<g id="Marketing-FAQ-2" transform="translate(-1094.000000, -1083.000000)">
		<g id="browse-by-topic" transform="translate(0.000000, 660.000000)">
			<g id="Group-28" transform="translate(150.000000, 184.000000)">
				<g id="Group-22" transform="translate(780.000000, 205.000000)">
					<g id="Group-2" transform="translate(164.000000, 34.000000)">
						<path id="Triangle-2" class="st0" d="M15.8,10.7l-1.3,0.1C5.3,11.6,1,20.2,1.7,37c0,0.7,0.6,1.2,1.2,1.2l26.2,0
							c0.7,0,1.2-0.5,1.2-1.2c0.7-16.8-3.7-25.4-12.9-26.2l-1.3-0.1l5-7c0.2-0.2,0.2-0.5,0.2-0.7c0-0.7-0.6-1.2-1.2-1.2h-8.2
							c-0.3,0-0.5,0.1-0.7,0.2c-0.6,0.4-0.7,1.2-0.3,1.7L15.8,10.7z M9.6,4.6c-0.9-1.2-0.6-3,0.6-3.8c0.5-0.3,1-0.5,1.6-0.5h8.2
							c1.5,0,2.8,1.2,2.8,2.8c0,0.6-0.2,1.1-0.5,1.6l-3.5,4.9c9.3,1.5,13.6,10.9,13,27.6c-0.1,1.5-1.3,2.6-2.7,2.6l-26.2,0
							c-1.5,0-2.7-1.2-2.7-2.6C-0.5,20.3,3.8,11,13.1,9.5L9.6,4.6z"/>
						<polygon id="Line" class="st0" points="13.2,10.8 13.2,9.2 18.8,9.2 18.8,10.8 						"/>
						<path id="Combined-Shape" class="st0" d="M17.1,18.5l0,5.8c2.5,1.2,3.7,3,3.5,5c-0.2,1.8-1.6,3.4-3.4,3.7l0,1.8
							c0,0.4-0.3,0.8-0.7,0.8s-0.8-0.3-0.8-0.7l0-1.8c-2-0.3-3.4-1.4-3.9-2.6c-0.2-0.4,0-0.8,0.4-1c0.4-0.2,0.8,0,1,0.4
							c0.3,0.7,1.2,1.4,2.5,1.7l0-6.2c-0.1,0-0.2-0.1-0.3-0.1c-4.7-1.6-3.8-7.4,0.3-8.1l0-1.7c0-0.4,0.3-0.8,0.7-0.8
							c0.4,0,0.8,0.3,0.8,0.7l0,1.7c1,0.1,1.8,0.5,2.4,1.1c0.5,0.4,0.8,0.9,0.9,1.2c0.2,0.4,0,0.8-0.4,1c-0.4,0.2-0.8,0-1-0.4
							c-0.1-0.2-0.3-0.5-0.6-0.8C18.1,18.9,17.7,18.7,17.1,18.5z M15.6,18.6c-2.4,0.6-2.8,4,0,5.1L15.6,18.6z M17.2,31.5
							c1-0.3,1.8-1.2,1.9-2.3c0.1-1.1-0.5-2.3-2-3.1L17.2,31.5z"/>
					</g>
				</g>
			</g>
		</g>
	</g>
</g>
</svg>
