<?xml version="1.0" encoding="utf-8"?>
<!-- Generator: Adobe Illustrator 23.0.1, SVG Export Plug-In . SVG Version: 6.00 Build 0)  -->
<svg version="1.1" id="Layer_1" xmlns="http://www.w3.org/2000/svg" xmlns:xlink="http://www.w3.org/1999/xlink" x="0px" y="0px"
	 viewBox="0 0 38 39" style="enable-background:new 0 0 38 39;" xml:space="preserve">
<style type="text/css">
	.st0{fill:#03A678;}
</style>
<title>Shape</title>
<desc>Created with Sketch.</desc>
<g id="Marketing">
	<g id="Marketing-FAQ-2" transform="translate(-1087.000000, -1289.000000)">
		<g id="browse-by-topic" transform="translate(0.000000, 660.000000)">
			<g id="Group-28" transform="translate(150.000000, 184.000000)">
				<g id="Group-10" transform="translate(780.000000, 410.000000)">
					<g id="Group-3" transform="translate(157.000000, 35.000000)">
						<path id="Shape" class="st0" d="M34.4,12.4c1.3-1.2,2.1-3,2.1-4.9c0-3.7-3-6.7-6.7-6.7s-6.7,3-6.7,6.7c0,1.9,0.8,3.7,2.1,4.9
							c-1.8,0.2-3.3,1.8-3.3,3.7v0.4c-0.7-0.3-1.5-0.4-2.3-0.4c-1.3,0-2.6,0.4-3.7,1.1c-0.6-1.1-1.6-1.8-2.9-2
							c1.3-1.2,2.1-3,2.1-4.9c0-3.7-3-6.7-6.7-6.7s-6.7,3-6.7,6.7c0,1.9,0.8,3.7,2.1,4.9C2,15.4,0.6,17,0.6,18.9v15.3
							c0,0.5,0.4,0.9,0.9,0.9s0.9-0.4,0.9-0.9V18.9c0-1,0.8-1.9,1.9-1.9h8.3c0.9,0,1.6,0.6,1.8,1.5c-1,1.2-1.6,2.7-1.6,4.3
							c0,1.9,0.8,3.7,2.1,4.9c-1.8,0.2-3.3,1.8-3.3,3.7v6c0,0.5,0.4,0.9,0.9,0.9s0.9-0.4,0.9-0.9v-6c0-1,0.8-1.9,1.9-1.9h8.3
							c1,0,1.9,0.8,1.9,1.9v6c0,0.5,0.4,0.9,0.9,0.9c0.5,0,0.9-0.4,0.9-0.9v-6c0-1.9-1.4-3.5-3.3-3.7c1.3-1.2,2.1-3,2.1-4.9
							c0-2.1-1-4-2.6-5.3c0,0,0,0,0-0.1v-1.4c0-1,0.8-1.9,1.9-1.9H34c1,0,1.9,0.8,1.9,1.9v15.3c0,0.5,0.4,0.9,0.9,0.9
							s0.9-0.4,0.9-0.9V16.1C37.7,14.2,36.3,12.6,34.4,12.4z M3.6,10.3c0-2.7,2.2-4.9,4.9-4.9s4.9,2.2,4.9,4.9s-2.2,4.9-4.9,4.9
							S3.6,13,3.6,10.3z M24.5,22.8c0,2.7-2.2,4.9-4.9,4.9s-4.9-2.2-4.9-4.9c0-1.2,0.4-2.3,1.2-3.1c0.2-0.1,0.3-0.2,0.4-0.4
							c0.9-0.8,2.1-1.3,3.3-1.3C22.3,18,24.5,20.1,24.5,22.8z M24.9,7.5c0-2.7,2.2-4.9,4.9-4.9s4.9,2.2,4.9,4.9s-2.2,4.9-4.9,4.9
							S24.9,10.2,24.9,7.5z"/>
					</g>
				</g>
			</g>
		</g>
	</g>
</g>
</svg>
