<?xml version="1.0" encoding="utf-8"?>
<!-- Generator: Adobe Illustrator 23.0.1, SVG Export Plug-In . SVG Version: 6.00 Build 0)  -->
<svg version="1.1" id="Layer_1" xmlns="http://www.w3.org/2000/svg" xmlns:xlink="http://www.w3.org/1999/xlink" x="0px" y="0px"
	 viewBox="0 0 40 48" style="enable-background:new 0 0 40 48;" xml:space="preserve">
<style type="text/css">
	.st0{fill-rule:evenodd;clip-rule:evenodd;fill:#03A678;}
</style>
<title>Fill 1</title>
<desc>Created with Sketch.</desc>
<g id="Marketing">
	<g id="Marketing-FAQ-2" transform="translate(-700.000000, -880.000000)">
		<g id="browse-by-topic" transform="translate(0.000000, 660.000000)">
			<g id="Group-28" transform="translate(150.000000, 184.000000)">
				<g id="Group-15" transform="translate(390.000000, 0.000000)">
					<path id="Fill-1" class="st0" d="M165.5,68.9c-1.9-2.4-1.6-6-1.3-7.6c2.3,0.3,4,1.3,5.3,2.8c2,2.4,2.2,5.9,2.1,7.5
						C168.8,71.5,166.8,70.6,165.5,68.9z M176.4,55.9c-2.2-0.2-3.9-0.9-4.9-2.2c-1.5-1.9-1.3-4.7-1.1-6.2c1.8,0.3,3.2,1.1,4.2,2.3
						C176.2,51.7,176.5,54.4,176.4,55.9z M185.6,41.1c1.2-1.5,3-2.5,5.3-2.8c0.3,1.6,0.5,5.1-1.3,7.6c-1.2,1.6-3.3,2.5-6.1,2.7v-0.3
						c0,0,0,0,0-0.1C183.5,46.4,183.8,43.3,185.6,41.1z M190.5,62.5c1.2-1.5,3-2.5,5.3-2.8c0.3,1.6,0.5,5.2-1.3,7.6
						c-1.2,1.6-3.3,2.5-6.1,2.7C188.3,68.4,188.5,65,190.5,62.5z M198.9,81.8h-10.6v-9.7c3.5-0.2,6.1-1.4,7.8-3.6
						c3.1-4.1,1.6-10.1,1.5-10.4c-0.1-0.5-0.6-0.8-1.1-0.8c-3.4,0.2-6,1.5-7.8,3.7c-1.9,2.3-2.5,5.2-2.6,7.3c0,0.1,0,0.2,0,0.3v0.7
						c0,0.1,0,0.2,0,0.3v12.1h-2.7V50.7c3.5-0.2,6.1-1.4,7.8-3.6c3.1-4.1,1.6-10.1,1.5-10.4c-0.1-0.5-0.6-0.8-1.1-0.8
						c-3.4,0.2-6,1.5-7.8,3.7c-2.5,3.1-2.7,7.1-2.6,9v33.1h-2.7V55.9c0,0,0,0,0,0c0-1.7-0.2-5-2.3-7.5c-1.6-1.9-3.8-3-6.7-3.2
						c-0.5,0-1,0.3-1.1,0.8c-0.1,0.2-1.4,5.4,1.3,9c1.4,1.9,3.7,2.9,6.6,3.1v23.8h-2.7v-8.7c0-0.1,0-0.1,0-0.2c0,0,0,0,0-0.1
						c0-0.2,0.8-6.1-2.5-10.1c-1.8-2.2-4.4-3.5-7.8-3.7c-0.5,0-1,0.3-1.1,0.8c-0.1,0.3-1.6,6.3,1.5,10.4c1.7,2.2,4.3,3.3,7.7,3.5v8
						h-10.5c-0.6,0-1.1,0.5-1.1,1.1c0,0.6,0.5,1.1,1.1,1.1h37.8c0.6,0,1.1-0.5,1.1-1.1C200,82.3,199.5,81.8,198.9,81.8L198.9,81.8z"
						/>
				</g>
			</g>
		</g>
	</g>
</g>
</svg>
