<?xml version="1.0" encoding="utf-8"?>
<!-- Generator: Adobe Illustrator 23.0.1, SVG Export Plug-In . SVG Version: 6.00 Build 0)  -->
<svg version="1.1" id="Layer_1" xmlns="http://www.w3.org/2000/svg" xmlns:xlink="http://www.w3.org/1999/xlink" x="0px" y="0px"
	 viewBox="0 0 50 55" style="enable-background:new 0 0 50 55;" xml:space="preserve">
<style type="text/css">
	.st0{fill-rule:evenodd;clip-rule:evenodd;fill:#03A678;}
	.st1{fill:#03A678;}
</style>
<title>Group 2</title>
<desc>Created with Sketch.</desc>
<g id="Marketing">
	<g id="Marketing-FAQ-2" transform="translate(-1085.000000, -876.000000)">
		<g id="browse-by-topic" transform="translate(0.000000, 660.000000)">
			<g id="Group-28" transform="translate(150.000000, 184.000000)">
				<g id="Group-26" transform="translate(780.000000, 0.000000)">
					<g transform="translate(155.000000, 32.000000)">
						<g id="Group-2" transform="translate(0.000000, 0.500000)">
							<path id="Fill-1" class="st0" d="M25.1,45.1l1.8-0.6c8.5-3.3,12.1-10.9,14-20.7l0.6-4.1l-1.2-1c-3.4-2.8-5.7-5.9-7.3-9.3
								l-0.4-0.9l-0.3,0.1c-2.6,0.5-4.4,0.7-7.3,0.7c-2.5,0-4.3-0.1-6.4-0.5L17,8.7l-0.4,0.9c-1.6,3.4-3.9,6.5-7.3,9.3l-1.2,1
								l0.7,4.1c1.9,9.8,6,17.4,14.6,20.7L25.1,45.1z M24.8,47.3C12,43.8,7.6,32.5,5.9,19.5c-0.1-0.4,0.1-0.8,0.4-1
								c4.6-3.3,7.3-7.2,9.1-11.4c0.2-0.5,0.7-0.7,1.2-0.7c3.2,0.6,5.2,0.9,8.3,0.9C28,7.3,29.8,7,33,6.4c0.5-0.1,1,0.2,1.2,0.7
								c1.8,4.2,4.4,8.1,9.1,11.4c0.3,0.2,0.5,0.6,0.4,1c-1.7,13-5.5,24.3-18.3,27.8H24.8z M25.2,51.5l2.5-0.8
								C39.2,46.3,44,36.1,46.5,23l0.9-5.6l-1.8-1.4c-4.5-3.6-7.5-7.8-9.6-12.2l-0.7-1.4l-0.7,0.1c-3.4,0.7-5.8,1-9.7,0.9
								c-3.3,0-5.7-0.2-8.5-0.7l-2.2-0.4l-0.6,1.4C11.5,8.1,8.5,12.3,4,15.9l-1.8,1.4L3.1,23c2.6,13.1,8,23.4,19.6,27.7L25.2,51.5z
								 M24.9,53.7C8.1,49,2.3,34.3,0,17c-0.1-0.4,0.1-0.8,0.4-1c6.2-4.4,9.8-9.6,12.2-15.3c0.2-0.4,0.7-0.7,1.2-0.6
								c4.3,0.8,6.9,1.2,11.1,1.2c4.2,0,6.5-0.4,10.8-1.2c0.5-0.1,1,0.2,1.2,0.6c2.4,5.7,6,10.9,12.2,15.3c0.3,0.2,0.5,0.6,0.4,1
								c-2.2,17.2-7.2,32-24.1,36.7H24.9L24.9,53.7z"/>
							<path id="Stroke-4" class="st1" d="M13.2,26.9c-0.5,0.5-1.2,0.6-1.8,0.1s-0.6-1.2-0.1-1.8l11.9-13.9c0.5-0.5,1.2-0.6,1.8-0.1
								c0.5,0.5,0.6,1.2,0.1,1.8L13.2,26.9z M16.2,33.6c-0.5,0.5-1.2,0.6-1.8,0.1c-0.5-0.5-0.6-1.2-0.1-1.8l9.7-11.1
								c0.5-0.5,1.2-0.6,1.8-0.1c0.5,0.5,0.6,1.2,0.1,1.8L16.2,33.6z M20.6,40.3c-0.5,0.5-1.3,0.5-1.8,0.1c-0.5-0.5-0.5-1.3-0.1-1.8
								l5.6-6.1c0.5-0.5,1.3-0.5,1.8-0.1c0.5,0.5,0.5,1.3,0.1,1.8L20.6,40.3z"/>
						</g>
					</g>
				</g>
			</g>
		</g>
	</g>
</g>
</svg>
