<svg width="458" height="406" viewBox="0 0 458 406" fill="none" xmlns="http://www.w3.org/2000/svg">
<path d="M80.177 322.787C70.1413 322.787 59.8483 323.572 53.9298 331.684C49.2979 338.226 48.2686 351.833 46.4674 359.422C45.6954 363.085 39.5196 401.814 35.4023 401.814C176.159 400.767 316.917 402.075 457.416 406C454.071 380.879 450.726 355.497 447.381 330.376C446.609 325.666 367.867 324.096 359.633 323.572C331.069 322.264 302.764 322.526 274.2 322.264C211.928 321.479 149.398 321.741 87.1248 322.526C84.8088 322.787 82.4929 322.787 80.177 322.787Z" fill="#03A678"/>
<path d="M173.072 51.9525C171.528 58.7561 167.153 65.2981 160.72 67.3915C155.574 69.2232 149.655 68.1765 145.023 65.5597C142.965 64.513 140.906 62.943 139.619 60.8496C138.075 58.7562 137.303 55.8777 136.789 53.2609C135.245 47.504 133.701 41.7472 132.414 35.9903C131.642 32.8502 130.87 29.4484 131.642 26.3083C132.414 22.9065 135.245 20.2898 138.333 18.7197C141.421 17.1497 145.023 16.6263 148.368 16.6263C153 16.3646 157.375 16.8879 161.749 17.9346C164.58 18.7197 167.668 19.7664 169.984 21.5982C173.844 24.7383 173.844 28.9251 173.844 33.3736C173.586 39.9155 174.358 45.934 173.072 51.9525Z" fill="#F4DDD6"/>
<path d="M122.636 23.9534C121.607 18.7199 124.694 12.9629 129.326 11.3929C131.9 10.3462 134.73 10.6079 137.046 9.29951C140.391 7.46778 142.45 3.54267 145.795 1.97262C146.31 1.71094 147.082 1.44925 147.596 1.71093C148.368 1.9726 148.883 2.49594 149.398 2.75761C155.316 6.68275 163.551 -0.120807 169.726 3.01931C172.557 4.32769 174.101 7.46777 175.645 10.3462C177.189 13.4863 178.733 16.6264 179.762 19.7666C180.791 23.1683 181.306 26.5701 183.107 29.7102C183.879 31.2803 185.166 32.327 185.938 33.897C188.769 38.6072 186.967 45.6725 182.078 48.2892C180.791 49.0743 179.505 49.5977 178.476 50.3827C176.932 51.9527 176.674 54.3078 175.645 56.4012C174.616 58.4946 172.3 60.0647 170.498 59.018C170.756 55.3545 170.756 51.4293 168.954 48.2892C168.44 47.2425 167.668 46.4575 167.153 45.4108C166.124 43.3174 166.639 40.7006 167.925 38.8689C165.609 39.3922 163.293 39.6539 160.977 40.1773C160.977 36.7755 160.463 32.8503 157.632 31.0186C155.831 29.9719 153.258 29.9719 151.199 30.2336C141.678 31.542 127.01 36.7755 122.636 23.9534Z" fill="#453C36"/>
<path d="M215.016 75.5031C214.501 77.3348 212.957 78.9049 211.413 79.9516C207.553 82.5683 201.377 83.8767 198.804 79.9516C197.775 78.3815 197.518 76.5498 197.518 74.7181C197.775 61.1109 211.413 51.6905 216.045 38.8684C220.162 28.1397 217.332 15.3176 209.097 7.46728C200.605 -0.644681 176.674 -5.35482 173.586 10.6074C172.3 16.8876 174.873 19.7661 180.791 18.4577C188.769 16.8876 195.974 18.7194 198.804 27.8781C200.605 34.1583 199.062 40.9618 197.003 46.9804C194.687 52.9989 191.599 59.0175 190.055 65.2977C188.511 71.5779 189.026 78.9049 193.143 83.8767C197.26 88.8486 204.723 90.4186 210.384 87.8019C213.472 86.4935 216.045 83.6151 216.56 80.475C217.074 78.3815 216.56 76.2881 215.273 74.7181C215.016 74.7181 215.016 75.2414 215.016 75.5031Z" fill="#453C36"/>
<path d="M211.928 71.8399C213.214 72.3632 214.244 73.1482 215.016 74.1949C214.758 72.6249 213.472 71.5782 211.928 71.8399Z" fill="#453C36"/>
<path d="M35.1451 94.0822C35.4024 94.0822 35.4024 94.0822 35.6598 94.0822C37.2037 94.3439 37.9757 94.3439 39.5196 94.8673C61.6496 96.699 87.6395 85.7086 103.851 97.2224C107.454 99.8391 112.343 99.5774 116.46 100.624C125.466 103.241 134.73 104.549 144.251 104.811C147.082 104.811 150.427 104.549 152.228 101.932C153 100.624 153.258 99.3157 153.515 97.7457C154.03 93.2972 153.772 88.5871 152.743 84.4002C152.486 83.6152 152.228 82.8301 151.714 82.5685C151.199 82.0451 150.427 82.0451 149.912 82.0451C143.737 81.5217 137.818 82.8301 131.642 83.3535C123.922 84.1385 116.203 83.6151 108.483 83.3535C102.05 83.0918 95.6166 83.0919 89.4408 83.0919C78.1185 83.0919 66.7962 83.3535 55.4738 84.1385C52.6433 84.4002 49.8127 84.4002 46.9821 84.6618C46.4674 84.6618 45.6955 84.6619 45.1808 84.9235C41.3209 85.1852 36.6891 85.1852 34.8878 85.4469C31.7999 85.7086 31.2852 85.9703 28.1973 85.4469C25.3667 85.1852 22.2788 84.4002 19.4483 85.9702C19.1909 86.2319 18.1616 86.7553 18.1616 87.2786C17.9043 87.5403 17.9043 88.587 17.9043 89.1104C17.9043 90.6804 18.1616 92.5122 19.4483 93.0355C20.7349 93.5589 22.5362 93.0355 23.5655 94.3439C23.8228 94.8672 24.0801 95.3906 24.5948 95.6523C25.1094 95.914 25.6241 95.3906 25.8814 95.1289C27.94 94.0822 29.2266 93.0355 31.2852 93.5589L35.1451 94.0822Z" fill="#F4DDD6"/>
<path d="M195.716 348.169C196.231 347.907 197.003 347.907 197.518 347.907C202.407 347.384 207.039 347.122 211.928 347.122C213.214 347.122 214.758 347.122 215.788 346.599C217.074 345.814 217.846 344.244 217.846 342.674C217.846 341.104 217.846 339.534 217.846 337.964C220.677 337.44 223.25 337.179 226.081 337.179C226.595 337.179 227.367 337.179 227.625 337.44C228.397 337.964 228.654 339.272 228.397 340.319C228.139 344.244 227.882 348.431 227.367 352.356C227.367 352.618 227.367 352.879 227.11 353.141C226.595 354.188 225.566 354.188 224.537 354.449C217.074 354.973 209.355 354.973 201.892 355.234C198.804 355.234 195.716 355.496 192.628 355.234C192.371 355.234 192.114 355.234 191.856 354.973C190.827 354.449 191.599 352.618 191.856 351.833C193.4 350.001 194.172 348.692 195.716 348.169Z" fill="#F4DDD6"/>
<path d="M258.761 59.2791C278.06 54.3073 291.956 48.2887 311.77 50.1205C314.086 50.3822 316.659 50.6438 318.461 52.2139C320.262 53.7839 321.291 56.6623 320.005 58.4941C318.461 60.5875 315.63 60.3258 313.314 60.5875C303.793 60.5875 300.705 61.6342 291.441 63.466C284.236 65.036 269.569 69.2229 262.364 70.0079C240.491 72.363 226.338 79.1665 205.495 86.2317C200.091 88.0635 194.43 88.3252 188.768 88.8485C186.453 89.1102 184.137 88.8485 182.335 87.5401C181.306 86.7551 180.534 85.4468 179.762 84.1384C178.99 82.3066 176.417 77.8581 176.931 76.0264C177.446 73.933 181.563 74.4563 183.879 74.1946C190.055 73.4096 195.974 72.6246 202.149 71.5779C214.501 69.7461 226.595 67.3911 238.69 64.5127C245.38 62.6809 252.071 61.1109 258.761 59.2791Z" fill="#F4DDD6"/>
<path d="M149.655 116.063C153 126.53 165.352 134.642 174.101 140.922C180.534 145.371 183.879 154.791 190.312 159.239C192.114 160.548 194.43 162.118 196.745 161.856C199.061 161.594 200.863 160.024 202.664 158.454C211.67 150.342 220.934 135.688 225.051 123.913C225.566 122.605 225.823 121.296 225.566 119.988C225.309 118.68 224.537 117.633 223.765 116.586C221.449 113.446 218.618 110.829 215.788 108.474C212.185 105.596 208.325 103.241 205.237 100.101C200.605 95.1288 198.032 88.0635 192.886 83.3533C188.254 79.1665 181.821 77.3347 176.931 72.8862C175.13 71.3162 173.586 69.2228 171.27 68.6995C169.469 68.4378 167.925 68.9611 166.124 69.4845C161.492 71.0545 157.117 73.1479 153 75.7647C146.567 79.4282 149.14 86.2318 148.626 93.0353C148.368 100.886 147.339 108.736 149.655 116.063Z" fill="#F2D292"/>
<path d="M204.723 168.659C208.84 170.229 212.957 170.491 217.332 170.491C223.25 170.753 229.426 170.491 235.344 169.968C238.432 169.706 241.52 169.183 244.093 167.351C246.924 164.996 248.211 161.332 249.24 157.669C249.755 155.837 250.269 154.005 250.012 152.174C249.755 149.295 247.439 146.94 245.895 144.323C243.579 140.398 242.549 135.688 241.005 131.501C239.462 127.053 237.146 122.604 233.028 120.773C228.397 118.418 222.735 119.988 218.876 123.128C214.758 126.268 211.928 130.716 209.354 134.903C206.781 139.09 203.951 143.538 201.377 147.725C199.319 150.865 195.459 156.361 195.974 160.286C196.231 164.734 201.377 167.613 204.723 168.659Z" fill="#3C444C"/>
<path d="M242.035 164.996C241.52 158.716 237.403 165.258 231.999 160.809C228.139 157.407 217.074 161.856 212.185 165.519C207.811 168.659 203.436 161.594 202.149 165.781C200.091 173.108 201.635 194.565 201.377 201.892C200.863 208.434 203.436 215.238 203.693 221.78C204.208 228.583 205.495 235.387 206.009 242.19C206.524 249.517 207.553 256.844 208.325 264.171C210.384 284.582 212.442 295.049 214.244 330.899C215.273 333.777 215.788 336.917 215.788 339.796C215.788 340.057 215.788 340.319 216.045 340.581C216.302 340.842 216.56 340.842 216.817 340.842C218.361 340.842 227.625 340.319 228.397 339.272C228.911 338.487 228.911 337.702 228.911 336.917C228.911 334.3 228.911 331.684 228.911 329.067C228.911 328.805 228.911 328.282 228.911 328.02C228.911 326.973 229.169 326.188 228.911 325.403C229.169 300.806 226.595 272.283 230.712 247.686C234.83 226.751 243.579 185.93 242.035 164.996Z" fill="#3C444C"/>
<path d="M305.852 159.763C312.542 159.501 319.49 158.978 326.18 157.931C328.496 157.408 331.07 156.885 332.356 155.053C333.385 153.483 333.643 151.389 333.386 149.558C332.871 123.39 327.724 97.4841 322.578 71.8398C319.233 72.1015 316.145 72.6249 312.799 72.8865C311.77 72.8865 310.741 73.1483 309.969 73.6716C308.94 74.4566 308.94 76.2884 308.94 77.5967C309.969 93.2973 306.881 109.26 309.712 124.698C310.226 126.792 310.484 129.147 308.94 130.717C307.396 132.549 304.565 132.287 302.249 131.764C289.125 129.932 289.64 129.147 276.517 129.932C266.481 130.455 255.93 131.502 246.924 127.315C243.579 125.745 240.491 123.39 237.146 121.82C233.8 120.25 229.426 119.988 226.338 122.082C224.537 123.39 223.507 125.222 222.736 127.054C217.589 139.876 224.279 161.595 240.491 162.903C251.813 163.95 264.165 161.856 275.487 161.333C287.839 160.81 294.015 160.286 305.852 159.763Z" fill="#3C444C"/>
<path d="M243.322 171.539C244.094 169.184 245.638 166.828 247.696 165.258C250.012 163.427 253.1 163.165 255.931 162.118C256.445 161.857 256.703 161.857 256.96 161.333C257.475 160.548 256.96 159.502 256.188 158.978C253.615 156.623 249.755 156.623 246.409 156.623C243.322 156.623 239.462 156.885 237.918 159.501C237.146 160.548 236.888 161.857 236.631 163.165C236.116 166.567 235.602 169.969 237.146 172.847C237.66 174.155 239.976 178.08 241.52 177.819C242.807 177.295 242.807 172.847 243.322 171.539Z" fill="#4E4E4E"/>
<path d="M318.461 48.8125C318.203 46.1957 317.689 43.3173 317.174 40.7005C317.174 40.1771 316.917 39.6538 316.659 39.3921C316.145 38.6071 313.829 36.5137 313.057 37.0371C312.285 37.5604 310.483 38.8688 310.226 39.6538C309.969 40.7005 309.969 41.4856 309.969 42.5323C309.969 44.6257 312.027 48.5508 311.255 50.3825C310.741 51.9526 309.454 53.5226 308.682 54.831C307.653 56.1394 306.881 57.4478 306.109 58.7561C305.08 60.3262 304.05 62.1579 304.822 63.728C305.337 64.7747 306.109 65.5598 307.138 66.0831C308.939 67.3915 310.483 68.9615 310.998 71.0549C311.255 71.84 311.255 72.8867 311.513 73.6717C311.77 74.4567 312.285 75.2417 313.057 75.7651C313.571 76.0268 314.086 76.0268 314.858 76.0268C316.659 76.0268 319.49 76.5501 321.034 75.7651C322.835 74.9801 321.548 72.625 321.291 71.0549C320.262 66.6064 319.747 61.8962 319.49 57.1861C318.975 54.3076 318.718 51.6909 318.461 48.8125Z" fill="#F4DDD6"/>
<path d="M137.046 274.9C136.789 274.638 136.274 274.376 135.759 274.376C112.857 268.619 88.1542 270.189 66.2815 278.825C65.2522 279.348 64.2229 279.61 63.4509 280.395C62.4216 281.442 62.1643 283.012 61.907 284.582C60.363 294.787 58.819 304.992 57.2751 315.198C57.0178 317.029 56.7604 319.385 58.3044 320.431C59.3337 321.216 60.6203 321.216 61.907 320.955C86.6102 319.646 111.056 318.076 135.759 316.768C136.789 316.768 137.818 316.506 138.59 315.983C139.362 315.198 139.362 314.151 139.105 313.104C138.59 300.806 137.818 288.768 137.303 276.47C137.303 275.946 137.303 275.423 137.046 274.9Z" fill="#D99250"/>
<path d="M58.5616 285.367C59.5909 289.292 64.7375 290.339 68.8547 290.339C74.7731 290.339 80.4343 289.292 86.3528 288.507C104.108 285.89 122.121 283.274 139.877 280.919C139.877 276.208 139.362 270.451 135.245 268.358C133.701 267.573 131.642 267.311 129.841 267.311C107.968 266.526 85.3235 266.003 65.7668 275.685C61.6496 277.517 57.275 281.18 58.5616 285.367Z" fill="#DB9D6B"/>
<path d="M70.3986 289.292C70.1412 291.386 70.1412 293.479 70.3986 295.573C70.3986 296.358 70.3986 297.143 70.6559 297.928C70.6559 298.189 70.6559 298.451 70.9132 298.713C71.1705 298.974 71.4279 298.974 71.4279 298.974C72.9718 298.974 74.2584 299.236 75.8024 299.236C77.3463 295.049 77.3463 290.077 75.8024 285.891C74.2584 286.676 72.7145 287.199 71.4279 287.984C71.1705 287.984 70.9132 288.246 70.6559 288.507C70.6559 288.769 70.3986 289.031 70.3986 289.292Z" fill="#544842"/>
<path d="M112.857 281.704C112.6 283.797 112.6 285.89 112.857 287.984C112.857 288.769 112.857 289.554 113.115 290.339C113.115 290.601 113.115 290.862 113.372 291.124C113.629 291.386 113.887 291.386 113.887 291.386C115.431 291.386 116.717 291.647 118.261 291.647C119.805 287.46 119.805 282.489 118.261 278.302C116.717 279.087 115.173 279.61 113.887 280.395C113.629 280.395 113.372 280.657 113.115 280.919C113.115 281.18 113.115 281.442 112.857 281.704Z" fill="#544842"/>
<path d="M134.215 279.871C133.701 283.797 136.017 287.722 139.362 289.292C140.134 289.553 140.649 289.815 141.421 289.815C144.251 290.077 146.824 288.507 148.883 286.675C149.398 286.152 149.912 285.628 150.17 285.105C150.427 284.058 149.655 282.75 148.626 282.488C147.596 281.965 146.31 282.227 145.28 282.488C144.766 282.488 143.994 282.75 143.479 282.75C142.707 282.488 142.192 281.965 141.678 281.442C140.649 280.395 139.877 279.086 138.59 278.301C137.303 277.516 135.502 277.516 134.73 278.825C134.473 278.825 134.215 279.348 134.215 279.871Z" fill="#544842"/>
<path d="M68.0827 276.208C53.4152 278.563 38.7476 282.75 25.1094 288.768C19.4482 291.124 14.0444 294.002 9.41252 297.927C4.78066 301.852 1.1781 307.347 0.406123 313.628C-0.108528 317.553 0.663444 321.74 3.2367 324.618C6.06728 327.758 10.4418 328.805 14.559 329.067C28.9693 330.113 42.8648 324.618 56.2458 319.123C56.7604 316.768 57.0177 314.151 57.5324 311.796C48.0113 318.861 35.917 320.955 24.0801 322.786C20.9922 323.31 18.1616 323.571 15.0737 323.31C12.2431 322.786 9.1552 321.216 7.86857 318.6C6.32462 315.721 6.83926 312.319 8.38321 309.441C9.92717 306.562 12.2431 304.469 14.8164 302.637C21.2495 297.404 28.1973 293.217 35.6597 289.292C39.5196 287.198 43.6368 285.367 48.0114 284.843C52.1286 284.582 56.2458 285.367 60.363 284.843C64.4802 283.797 68.5974 280.395 68.0827 276.208Z" fill="#544842"/>
<path d="M114.659 302.114C115.945 301.852 116.975 301.591 118.261 301.329C118.518 306.039 121.864 316.768 115.688 317.815C108.225 319.123 100.248 319.646 92.7859 320.17C88.6687 320.431 84.8088 320.693 80.6916 320.17C79.1476 319.908 77.6037 320.17 76.5744 318.861C75.5451 317.553 75.8024 313.628 76.0598 312.058C76.3171 309.441 77.6037 306.824 79.6623 305.516C81.2062 304.469 83.0075 304.208 84.8088 304.208C89.1833 303.684 93.3006 303.161 97.6751 302.899C101.278 302.637 104.88 302.899 108.483 302.637C110.284 302.637 112.6 302.376 114.659 302.114Z" fill="#EFE69B"/>
</svg>
