<svg width="300" height="269" viewBox="0 0 300 269" fill="none" xmlns="http://www.w3.org/2000/svg">
<path d="M235.764 247.344C285.003 207.954 311.86 139.021 293.955 96.0492C276.945 53.0777 207.117 -23.9127 100.584 8.31584C98.7931 9.21107 97.0026 9.21108 96.1074 10.1063C57.6121 34.2778 -5.95014 100.525 23.5927 176.621C40.6023 218.697 77.3069 250.925 124.755 263.459C129.231 264.354 133.707 265.249 138.183 266.145C155.195 269.547 164.147 268.83 177.574 268.83C200.85 266.145 220.545 258.983 235.764 247.344ZM27.415 163.304C4.13885 104.218 63.4674 34.2189 100.584 16.3353C207.885 -26.1381 277.623 74.5869 285.68 93.3869C307.084 136.193 279.973 207.537 221.471 247.344C205.357 259.878 167.249 267.885 111.601 251.771C75.7915 242.818 38.5923 208.013 27.415 163.304Z" fill="#3C444C"/>
<path d="M1.49993 178.641C3.01203 173.687 6.5608 168.207 11.7391 168.309C22.4446 168.519 37.8711 168.69 41.9999 168.055C48.4999 167.055 73.9999 167.055 83.4999 168.055C92.9999 169.055 120 169.318 127 168.318C134 167.318 155.5 168.318 164.5 168.318C173.5 168.318 188.5 167.055 207 167.055C225.5 167.055 244 168.318 258 167.055C264.769 166.444 274.812 166.658 283.379 167.042C292.489 167.45 298.5 175.522 298.5 184.641C298.5 187.641 299 193.141 298.5 198.641C297.489 209.758 288.772 219.146 277.61 219.334C275.931 219.362 274.219 219.432 272.5 219.555C258.5 220.555 244.5 219.555 229 221.055C220.362 221.891 198.5 218.141 187 219.555C175.5 220.969 165.781 220.391 152.5 221.055C122.5 222.555 122.5 219.555 94.9999 221.055C67.4999 222.555 50.9999 219.555 41.9999 221.055C37.4726 221.81 27.1253 221.805 17.959 221.614C8.58389 221.419 1.66618 213.447 1.03865 204.091C1.02646 203.909 1.01355 203.73 0.999896 203.555C0.499878 197.141 0.499878 197.141 0.499878 194.141C0.499878 191.141 -7.85589e-05 183.555 1.49993 178.641Z" fill="#3C444C"/>
<path d="M68.048 150.651V142.643C77.827 141.488 82.909 134.866 82.909 128.013C82.909 121.083 77.75 115.385 69.203 113.691L68.048 113.46V97.6746C72.745 98.9836 75.055 102.988 75.517 105.914L82.447 103.373C81.215 98.3676 77.519 92.0536 68.048 90.8216V82.6596H62.042V90.7446C53.418 91.8226 47.335 98.0596 47.335 105.375C47.335 112.921 52.263 117.772 60.117 119.389L62.042 119.774V135.867C55.959 134.789 53.033 130.015 52.571 125.087L45.256 127.397C46.103 134.173 51.339 141.565 62.042 142.643V150.651H68.048ZM75.363 128.398C75.363 131.94 73.053 134.943 68.048 135.867V121.006C73.053 122.161 75.363 125.164 75.363 128.398ZM54.958 105.067C54.958 101.294 57.576 98.2906 62.042 97.4436V112.074C56.806 111.073 54.958 108.301 54.958 105.067ZM97.78 109.687C97.703 108.917 97.626 108.147 97.626 107.454C97.626 101.756 100.706 97.2126 107.251 97.2126C113.565 97.2126 116.645 101.448 116.645 105.991C116.645 109.841 114.489 113.383 109.792 116.386L101.476 121.776C93.006 127.243 89.772 133.48 89.618 141.642H124.576V134.635H98.935C99.628 131.555 102.169 129.476 105.018 127.628L114.874 121.314C120.572 117.695 124.268 112.459 124.268 105.914C124.268 97.5976 118.108 90.5906 107.405 90.5906C96.471 90.5906 90.157 98.2136 90.157 106.761C90.157 107.377 90.157 108.07 90.234 108.763L97.78 109.687ZM132.792 136.714C132.792 139.717 135.102 142.027 138.105 142.027C141.108 142.027 143.495 139.717 143.495 136.714C143.495 133.711 141.108 131.324 138.105 131.324C135.102 131.324 132.792 133.711 132.792 136.714ZM165.956 118.465C167.265 118.003 168.805 117.695 170.345 117.695C175.273 117.695 180.509 120.467 180.509 127.012C180.509 132.017 176.813 136.252 169.96 136.252C163.954 136.252 159.18 132.094 158.872 125.472L151.48 127.166C151.942 135.328 158.487 142.874 170.037 142.874C181.664 142.874 188.132 135.251 188.132 126.858C188.132 116.617 180.047 111.689 172.732 111.689L186.977 98.5216V91.7456H153.097V98.6756H176.967L162.26 112.228L165.956 118.465ZM197.844 87.0486V141.642H216.94C226.95 141.642 233.803 135.405 233.803 126.781C233.803 120.698 230.184 115.154 223.947 113.614C228.721 111.843 232.109 107.685 232.109 101.833C232.109 93.2086 226.026 87.0486 215.631 87.0486H197.844ZM205.39 110.919V93.6706H214.476C220.713 93.6706 224.486 97.0586 224.486 102.218C224.486 107.3 220.867 110.919 214.784 110.919H205.39ZM205.39 135.02V117.387H216.17C222.792 117.387 226.103 121.083 226.103 126.319C226.103 131.632 221.945 135.02 215.862 135.02H205.39ZM256.901 87.0486H250.818V97.4436L241.424 94.1326L239.653 99.6766L249.201 102.834L243.118 110.842L247.815 114.384L253.821 106.068L260.212 114.461L264.909 110.919L258.595 102.834L268.143 99.6766L266.372 94.1326L256.901 97.3666V87.0486Z" fill="#3C444C"/>
<path d="M40.2581 183.954V206.642H48.1941C52.3541 206.642 55.2021 204.05 55.2021 200.466C55.2021 197.938 53.6981 195.634 51.1061 194.994C53.0901 194.258 54.4981 192.53 54.4981 190.098C54.4981 186.514 51.9701 183.954 47.6501 183.954H40.2581ZM43.3941 193.874V186.706H47.1701C49.7621 186.706 51.3301 188.114 51.3301 190.258C51.3301 192.37 49.8261 193.874 47.2981 193.874H43.3941ZM43.3941 203.89V196.562H47.8741C50.6261 196.562 52.0021 198.098 52.0021 200.274C52.0021 202.482 50.2741 203.89 47.7461 203.89H43.3941ZM73.0232 206.642V203.73H62.3672V196.786H72.0312V193.842H62.3672V186.866H73.0232V183.954H59.2312V206.642H73.0232ZM96.204 206.642V183.954H93.068V201.362L81.74 183.954H77.548V206.642H80.684V188.146L92.94 206.642H96.204ZM115.469 206.642V203.73H104.813V196.786H114.477V193.842H104.813V186.866H115.469V183.954H101.677V206.642H115.469ZM123.13 206.642V197.106H132.794V194.162H123.13V186.866H133.786V183.954H119.994V206.642H123.13ZM140.542 206.642V183.954H137.342V206.642H140.542ZM161.778 186.866V183.954H143.474V186.866H151.058V206.642H154.194V186.866H161.778ZM179.159 189.106C178.647 186.642 176.599 183.474 171.479 183.474C167.287 183.474 163.991 186.674 163.991 190.226C163.991 193.618 166.295 195.73 169.527 196.434L172.759 197.138C175.031 197.618 176.151 199.026 176.151 200.658C176.151 202.642 174.615 204.274 171.479 204.274C168.055 204.274 166.263 201.938 166.039 199.41L163.031 200.37C163.447 203.602 166.039 207.122 171.511 207.122C176.343 207.122 179.351 203.922 179.351 200.402C179.351 197.234 177.239 194.866 173.463 194.034L170.071 193.298C168.151 192.882 167.159 191.634 167.159 190.002C167.159 187.89 168.983 186.226 171.543 186.226C174.711 186.226 176.087 188.466 176.343 190.098L179.159 189.106ZM194.246 194.546V186.77H198.79C201.51 186.77 203.174 188.306 203.174 190.706C203.174 193.042 201.51 194.546 198.79 194.546H194.246ZM199.366 197.362C203.558 197.362 206.374 194.514 206.374 190.674C206.374 186.866 203.558 183.954 199.366 183.954H191.11V206.642H194.246V197.362H199.366ZM223.732 206.642H227.124L218.1 183.954H214.484L205.46 206.642H208.82L211.22 200.306H221.268L223.732 206.642ZM216.212 187.218L220.148 197.394H212.34L216.212 187.218ZM233.256 206.642V183.954H230.056V206.642H233.256ZM241.884 203.858V186.738H246.588C250.78 186.738 254.236 189.618 254.236 195.346C254.236 201.042 250.716 203.858 246.524 203.858H241.884ZM246.62 206.642C252.38 206.642 257.468 202.77 257.468 195.346C257.468 187.89 252.444 183.954 246.684 183.954H238.748V206.642H246.62Z" fill="white"/>
</svg>
