<svg data-name="Layer 1" xmlns="http://www.w3.org/2000/svg" xmlns:xlink="http://www.w3.org/1999/xlink" viewBox="0 0 566.9 597"><defs><linearGradient id="a" x1="439.57" y1="343.09" x2="408.81" y2="302.08" gradientTransform="translate(-109.39 -170)" gradientUnits="userSpaceOnUse"><stop offset="0"/><stop offset="1" stop-opacity="0"/></linearGradient><linearGradient id="i" x1="435.97" y1="657.63" x2="636.57" y2="657.63" xlink:href="#a"/><linearGradient id="c" x1="516.69" y1="595.71" x2="516.36" y2="625.87" gradientTransform="translate(-109.39 -170)" gradientUnits="userSpaceOnUse"><stop offset="0" stop-color="#68e1fd"/><stop offset="1" stop-color="#69b9eb"/></linearGradient><linearGradient id="b" x1="526.21" y1="672.46" x2="519.59" y2="649.52" gradientTransform="translate(-109.39 -170)" gradientUnits="userSpaceOnUse"><stop offset="0"/><stop offset=".84" stop-opacity="0"/></linearGradient><linearGradient id="j" x1="453.47" y1="612.99" x2="654.07" y2="612.99" xlink:href="#a"/><linearGradient id="d" x1="446.87" y1="624.96" x2="467.86" y2="653.47" gradientTransform="translate(0 -170)" gradientUnits="userSpaceOnUse"><stop offset=".32" stop-color="#fff" stop-opacity="0"/><stop offset="1" stop-color="#fff"/></linearGradient><linearGradient id="k" x1="576.04" y1="533.12" x2="553.1" y2="564" xlink:href="#a"/><linearGradient id="l" x1="585" y1="535.73" x2="529.49" y2="598.53" xlink:href="#b"/><linearGradient id="m" x1="568.56" y1="587.38" x2="595.47" y2="595.23" xlink:href="#a"/><linearGradient id="n" x1="505.05" y1="511.38" x2="504.71" y2="541.54" xlink:href="#c"/><linearGradient id="o" x1="426.09" y1="553.74" x2="583.17" y2="553.74" xlink:href="#c"/><linearGradient id="p" x1="446.67" y1="531.15" x2="647.25" y2="531.15" xlink:href="#a"/><linearGradient id="q" x1="470.86" y1="501.51" x2="498.18" y2="533.98" xlink:href="#d"/><linearGradient id="r" x1="434.9" y1="302.03" x2="418.15" y2="255.57" gradientTransform="matrix(1 0 0 -1 0 598)" xlink:href="#a"/><linearGradient id="s" x1="554.14" y1="465.79" x2="533.96" y2="503.35" xlink:href="#a"/><linearGradient id="t" x1="441.41" y1="488.99" x2="641.99" y2="488.99" xlink:href="#a"/><linearGradient id="u" x1="427.13" y1="495.75" x2="445.33" y2="528.26" xlink:href="#d"/><linearGradient id="v" x1="520.24" y1="453.65" x2="527.48" y2="492.25" xlink:href="#b"/><linearGradient id="w" x1="521.15" y1="469.6" x2="602.57" y2="458.5" xlink:href="#a"/><linearGradient id="x" x1="437.54" y1="444.18" x2="638.15" y2="444.18" xlink:href="#a"/><linearGradient id="y" x1="507.47" y1="377.82" x2="488.77" y2="447.18" xlink:href="#a"/><linearGradient id="z" x1="489.73" y1="402.61" x2="504.81" y2="456.89" gradientTransform="translate(-109.39 -170)" xlink:href="#d"/><linearGradient id="e" x1="492.12" y1="424.71" x2="587.9" y2="424.71" gradientTransform="translate(-109.39 -170)" gradientUnits="userSpaceOnUse"><stop offset="0" stop-color="#183866"/><stop offset="1" stop-color="#1a7fc1"/></linearGradient><linearGradient id="A" x1="186.48" y1="753.94" x2="186.42" y2="631.77" gradientTransform="translate(0 -170)" xlink:href="#e"/><linearGradient id="B" x1="469.61" y1="849.68" x2="421.73" y2="619.58" xlink:href="#a"/><linearGradient id="C" x1="178.08" y1="637.07" x2="147.33" y2="489.31" xlink:href="#a"/><linearGradient id="D" x1="407.98" y1="328.44" x2="405.73" y2="262.55" xlink:href="#a"/><linearGradient id="E" x1="499.58" y1="461.66" x2="545.68" y2="461.66" xlink:href="#a"/><linearGradient id="F" x1="158.69" y1="646.89" x2="187.07" y2="373.95" gradientUnits="userSpaceOnUse"><stop offset="0"/><stop offset=".07" stop-opacity=".84"/><stop offset="1" stop-opacity="0"/></linearGradient><linearGradient id="G" x1="462.76" y1="641.46" x2="495.08" y2="316.81" gradientTransform="translate(-109.39 -170)" gradientUnits="userSpaceOnUse"><stop offset="0" stop-color="#fff" stop-opacity="0"/><stop offset=".54" stop-color="#fff"/></linearGradient><linearGradient id="H" x1="379.08" y1="524.47" x2="407.19" y2="585.57" gradientTransform="translate(0 -170)" xlink:href="#a"/><linearGradient id="I" x1="428.64" y1="501.67" x2="456.74" y2="562.77" gradientTransform="translate(0 -170)" xlink:href="#a"/><linearGradient id="J" x1="550.23" y1="611.28" x2="546.58" y2="521.66" gradientTransform="translate(-109.39 -170)" gradientUnits="userSpaceOnUse"><stop offset="0" stop-color="#fff" stop-opacity="0"/><stop offset=".67" stop-color="#fff"/></linearGradient><linearGradient id="K" x1="519.57" y1="497.03" x2="592.89" y2="613.12" gradientTransform="rotate(10.41 1434.478 -113.794)" xlink:href="#a"/><linearGradient id="L" x1="559.38" y1="548.86" x2="583.81" y2="661.72" xlink:href="#a"/><linearGradient id="M" x1="569.27" y1="546.72" x2="593.7" y2="659.58" xlink:href="#a"/><linearGradient id="N" x1="526.01" y1="840.29" x2="478.12" y2="610.19" xlink:href="#a"/><linearGradient id="O" x1="325.17" y1="374.31" x2="266.04" y2="297.16" xlink:href="#a"/><linearGradient id="P" x1="368.15" y1="484.83" x2="414.25" y2="484.83" xlink:href="#a"/><linearGradient id="Q" x1="277.29" y1="388.59" x2="288.94" y2="451.34" xlink:href="#a"/><linearGradient id="R" x1="226" y1="874.28" x2="178.11" y2="644.18" xlink:href="#a"/><linearGradient id="S" x1="385.92" y1="872.18" x2="338.03" y2="642.08" xlink:href="#a"/><linearGradient id="T" x1="563.15" y1="344.79" x2="429.17" y2="315.4" xlink:href="#a"/><linearGradient id="U" x1="503.6" y1="370.71" x2="459.85" y2="308.5" xlink:href="#a"/><linearGradient id="g" x1="302.1" y1="318.26" x2="350.18" y2="318.26" gradientTransform="translate(-109.39 -170)" gradientUnits="userSpaceOnUse"><stop offset="0" stop-color="#ecc4d7"/><stop offset=".42" stop-color="#efd4d1"/><stop offset="1" stop-color="#f2eac9"/></linearGradient><linearGradient id="V" x1="321.97" y1="325.75" x2="455.71" y2="359.79" gradientTransform="rotate(73.74 404.14 174.602)" xlink:href="#a"/><linearGradient id="f" x1="422.6" y1="286.81" x2="110.2" y2="426.26" gradientTransform="rotate(73.74 393.198 169.902)" gradientUnits="userSpaceOnUse"><stop offset=".32" stop-color="#fff" stop-opacity="0"/><stop offset=".54" stop-color="#fff"/></linearGradient><linearGradient id="W" x1="324.28" y1="330.98" x2="463.88" y2="265.22" xlink:href="#f"/><linearGradient id="X" x1="323.41" y1="319.72" x2="284.92" y2="290.69" xlink:href="#a"/><linearGradient id="Y" x1="315.8" y1="297.62" x2="367.18" y2="375.68" gradientTransform="translate(-109.39 -170)" xlink:href="#d"/><linearGradient id="Z" x1="367.57" y1="345.2" x2="415.68" y2="345.2" xlink:href="#g"/><linearGradient id="aa" x1="286.98" y1="296.27" x2="288.87" y2="302.8" xlink:href="#g"/><linearGradient id="h" x1="473.58" y1="243.48" x2="495.88" y2="266.28" gradientTransform="translate(-109.39 -170)" gradientUnits="userSpaceOnUse"><stop offset="0" stop-color="#ecc4d7"/><stop offset="1" stop-color="#f2eac9"/></linearGradient><linearGradient id="ab" x1="448.9" y1="195.49" x2="491.18" y2="238.72" xlink:href="#h"/><linearGradient id="ac" x1="498.2" y1="228.87" x2="504.84" y2="228.87" xlink:href="#h"/></defs><path d="M86.21 153.19c-10 37.7-49.91 74.1-57.31 112.39-6.9 35.48 16.44 70.34 44.79 92.76S136 395.27 164 418.17c27.6 22.63 48.23 52.55 73.83 77.43s59.4 45.43 94.89 41.62c61.17-6.58 90.92-75.85 135.12-118.64 37.22-36 93.78-62.92 98.73-114.49 3-31.21-15.26-60.1-33.13-85.86-34.8-50.23-102-52.78-157.8-79.38-56.71-27.02-249.91-134.64-289.43 14.34z" fill="#00a678" opacity=".18" style="isolation:isolate"/><path d="M327.4 109.19l-27.06 25.18a18 18 0 0 1-13.89 4.78L239.54 135l-2.93 28.91s52.57 8.21 60.07 6 53.93-37.4 53.93-37.4l6.85-38.6c-9.85-.04-24 8.16-30.06 15.28z" fill="#00a678"/><path d="M327.4 109.19l-27.06 25.18a18 18 0 0 1-13.89 4.78L239.54 135l-2.93 28.91s52.57 8.21 60.07 6 53.93-37.4 53.93-37.4l6.85-38.6c-9.85-.04-24 8.16-30.06 15.28z" fill="#00a678"/><path d="M327.4 109.19l-27.06 25.18a18 18 0 0 1-13.89 4.78L239.54 135l-2.93 28.91s52.57 8.21 60.07 6 53.93-37.4 53.93-37.4l6.85-38.6c-9.85-.04-24 8.16-30.06 15.28z" fill="url(#a)"/><path d="M506.73 487.71c0 16.85-44.7 30.52-99.83 30.52s-99.83-13.67-99.83-30.52c0-1.62-.79-16.77 0-18.32 7.46-14.6 50-12.21 99.83-12.21 48.24 0 90.52-1.7 99.83 12.21 1.33 1.99 0 16.21 0 18.32z" fill="#00a678"/><path d="M506.73 487.71c0 16.85-44.7 30.52-99.83 30.52s-99.83-13.67-99.83-30.52c0-1.62-.79-16.77 0-18.32 7.46-14.6 50-12.21 99.83-12.21 48.24 0 90.52-1.7 99.83 12.21 1.33 1.99 0 16.21 0 18.32z" fill="url(#i)"/><ellipse cx="406.9" cy="469.39" rx="99.83" ry="30.52" fill="#00a678"/><path d="M486.42 464.38a7.73 7.73 0 0 1-1 3.69c-6 11.13-38.89 19.63-78.54 19.63s-72.51-8.5-78.54-19.63a7.73 7.73 0 0 1-1-3.69c0-12.89 35.61-23.33 79.52-23.33s79.56 10.44 79.56 23.33z" fill="url(#c)"/><path d="M485.44 468.07c-6 11.13-38.89 19.63-78.54 19.63s-72.51-8.5-78.54-19.63c6-11.13 38.89-19.65 78.54-19.65s72.52 8.52 78.54 19.65z" fill="#00a678"/><path d="M485.44 468.07c-6 11.13-38.89 19.63-78.54 19.63s-72.51-8.5-78.54-19.63c6-11.13 38.89-19.65 78.54-19.65s72.52 8.52 78.54 19.65z" fill="url(#b)"/><path d="M524.45 443.06c0 16.86-44.7 30.52-99.83 30.52s-99.83-13.66-99.83-30.52c0-1.62-.79-16.77 0-18.32 7.46-14.6 50-12.2 99.83-12.2 48.24 0 90.52-1.7 99.83 12.2 1.33 1.99 0 16.26 0 18.32z" fill="#00a678"/><path d="M524.45 443.06c0 16.86-44.7 30.52-99.83 30.52s-99.83-13.66-99.83-30.52c0-1.62-.79-16.77 0-18.32 7.46-14.6 50-12.2 99.83-12.2 48.24 0 90.52-1.7 99.83 12.2 1.33 1.99 0 16.26 0 18.32z" fill="url(#j)"/><ellipse cx="424.62" cy="424.74" rx="99.83" ry="30.52" fill="#00a678"/><ellipse cx="424.62" cy="424.74" rx="99.83" ry="30.52" fill="url(#d)"/><path d="M504.14 419.74a7.66 7.66 0 0 1-1 3.68c-6 11.13-38.9 19.64-78.55 19.64s-72.5-8.51-78.53-19.64a7.66 7.66 0 0 1-1-3.68c0-12.89 35.6-23.34 79.51-23.34s79.57 10.45 79.57 23.34z" fill="url(#k)"/><path d="M503.16 423.42c-6 11.13-38.9 19.64-78.55 19.64s-72.5-8.51-78.53-19.64c6-11.13 38.89-19.64 78.53-19.64s72.53 8.51 78.55 19.64z" fill="url(#l)"/><path d="M495.06 403.38c0 16.86-44.69 30.52-99.82 30.52s-99.83-13.66-99.83-30.52c0-1.61-.79-16.77 0-18.31 7.46-14.6 50-12.21 99.83-12.21 48.24 0 90.52-1.7 99.82 12.21 1.33 1.98 0 16.2 0 18.31z" fill="#00a678"/><path d="M495.06 403.38c0 16.86-44.69 30.52-99.82 30.52s-99.83-13.66-99.83-30.52c0-1.61-.79-16.77 0-18.31 7.46-14.6 50-12.21 99.83-12.21 48.24 0 90.52-1.7 99.82 12.21 1.33 1.98 0 16.2 0 18.31z" fill="url(#m)"/><ellipse cx="395.24" cy="385.07" rx="99.83" ry="30.52" fill="#00a678"/><path d="M474.76 380.06a7.66 7.66 0 0 1-1 3.68c-6 11.13-38.9 19.64-78.55 19.64s-72.5-8.51-78.53-19.64a7.66 7.66 0 0 1-1-3.68c0-12.89 35.61-23.33 79.52-23.33s79.56 10.44 79.56 23.33z" fill="url(#n)"/><path d="M473.78 383.74c-6 11.13-38.9 19.64-78.55 19.64s-72.5-8.51-78.53-19.64c6-11.13 38.88-19.64 78.53-19.64s72.53 8.51 78.55 19.64z" fill="url(#o)"/><path d="M513 361.22c0 16.85-44.7 30.52-99.83 30.52s-99.83-13.67-99.83-30.52c0-1.62-.79-16.77 0-18.32 7.46-14.6 50-12.2 99.83-12.2 48.24 0 90.52-1.7 99.83 12.2 1.29 1.99 0 16.21 0 18.32z" fill="#00a678"/><path d="M513 361.22c0 16.85-44.7 30.52-99.83 30.52s-99.83-13.67-99.83-30.52c0-1.62-.79-16.77 0-18.32 7.46-14.6 50-12.2 99.83-12.2 48.24 0 90.52-1.7 99.83 12.2 1.29 1.99 0 16.21 0 18.32z" fill="url(#p)"/><ellipse cx="413.13" cy="342.9" rx="99.83" ry="30.52" fill="#00a678"/><ellipse cx="448.21" cy="304.59" rx="99.83" ry="30.52" fill="url(#q)"/><path d="M498.71 339.49a7.73 7.73 0 0 1-1 3.69c-6 11.13-38.9 19.64-78.54 19.64s-72.46-8.51-78.46-19.64a7.73 7.73 0 0 1-1-3.69c0-12.88 35.6-23.33 79.52-23.33s79.48 10.44 79.48 23.33z" fill="url(#r)"/><path d="M497.77 343.27c-6 11.13-38.9 19.64-78.54 19.64s-72.52-8.51-78.52-19.64c6-11.13 38.89-19.64 78.54-19.64s72.46 8.51 78.52 19.64z" fill="url(#s)"/><path d="M513 319.06c0 16.85-44.7 30.52-99.83 30.52s-99.83-13.67-99.83-30.52c0-1.62-.79-16.77 0-18.32 7.46-14.6 50-12.2 99.83-12.2 48.24 0 90.52-1.71 99.83 12.2 1.29 1.99 0 16.26 0 18.32z" fill="#00a678"/><path d="M513 319.06c0 16.85-44.7 30.52-99.83 30.52s-99.83-13.67-99.83-30.52c0-1.62-.79-16.77 0-18.32 7.46-14.6 50-12.2 99.83-12.2 48.24 0 90.52-1.71 99.83 12.2 1.29 1.99 0 16.26 0 18.32z" fill="url(#t)"/><ellipse cx="413.13" cy="300.74" rx="99.83" ry="30.52" fill="#00a678"/><ellipse cx="413.13" cy="300.74" rx="99.83" ry="30.52" fill="url(#u)"/><path d="M492.61 295.73a7.73 7.73 0 0 1-1 3.69c-6 11.13-38.9 19.63-78.54 19.63s-72.46-8.5-78.46-19.63a7.73 7.73 0 0 1-1-3.69c0-12.89 35.6-23.33 79.52-23.33s79.48 10.44 79.48 23.33z" fill="url(#v)"/><path d="M491.67 299.42c-6 11.13-38.9 19.63-78.54 19.63s-72.52-8.5-78.52-19.63c6-11.13 38.89-19.65 78.54-19.65s72.46 8.52 78.52 19.65z" fill="url(#w)"/><path d="M486.27 274.26c0 16.85-44.7 30.52-99.83 30.52s-99.83-13.67-99.83-30.52c0-1.62-.79-16.77 0-18.32 7.46-14.6 50-12.21 99.83-12.21 48.24 0 90.52-1.7 99.83 12.21 1.34 1.99 0 16.21 0 18.32z" fill="#00a678"/><path d="M486.27 274.26c0 16.85-44.7 30.52-99.83 30.52s-99.83-13.67-99.83-30.52c0-1.62-.79-16.77 0-18.32 7.46-14.6 50-12.21 99.83-12.21 48.24 0 90.52-1.7 99.83 12.21 1.34 1.99 0 16.21 0 18.32z" fill="url(#x)"/><ellipse cx="386.44" cy="255.94" rx="99.83" ry="30.52" fill="#00a678"/><path d="M466 250.93a7.73 7.73 0 0 1-1 3.69c-6 11.13-38.89 19.63-78.54 19.63s-72.51-8.5-78.54-19.63a7.73 7.73 0 0 1-1-3.69c0-12.89 35.61-23.33 79.52-23.33S466 238 466 250.93z" fill="url(#y)"/><path d="M465 254.62c-6 11.13-38.89 19.63-78.54 19.63s-72.51-8.5-78.54-19.63c6-11.13 38.89-19.65 78.54-19.65S459 243.49 465 254.62z" fill="#00a678"/><path d="M465 254.62c-6 11.13-38.89 19.63-78.54 19.63s-72.51-8.5-78.54-19.63c6-11.13 38.89-19.65 78.54-19.65S459 243.49 465 254.62z" fill="url(#z)"/><path d="M425.83 230.72c3.13 1.56 5.69 4.83 5.31 8.32-.21 2-1.37 3.91-1.28 5.94.08 2.19 1.58 4.05 2.31 6.11 1.69 4.78-1 10.3-5.27 13.08a28.48 28.48 0 0 1-7 3.05 181.16 181.16 0 0 1-40.84 8.11c-7.36.59-14.82.74-21.94 2.69-4.53 1.24-8.85 3.19-13.39 4.44a7 7 0 0 1-3.43.32c-2.28-.53-3.62-3.15-3.37-5.49a10.3 10.3 0 0 1 3.4-6c3.67-3.57 8.42-5.74 12.71-8.54 5.5-3.58 10.24-8.19 15.26-12.44 4.38-3.7 9-7.14 13.59-10.57 5.63-4.2 11.32-8.43 17.63-11.5s17.78-1 16.68-1c.29 2.64 7.41 2.36 9.63 3.48z" opacity=".19" fill="url(#e)" style="isolation:isolate"/><path d="M333.61 198.87s-84.86-7.13-87.26 38.18l-6.46 10.59 46.72 26.62s-3.89-11.14 6.75-16.56 53.58-8.06 60.23-20.65-19.98-38.18-19.98-38.18z" fill="#25233a"/><path d="M348.27 210.05s-54.28 21.38-58.9 44.56-2.76 19.65-2.76 19.65l20 14.13 29.31-4.95s6-13.22 25.14-16.76 46.28-9.33 52.15-24.46 4.9-32.17 4.9-32.17z" fill="#3f3d56"/><ellipse cx="186.47" cy="560.54" rx="183.77" ry="36.46" opacity=".19" fill="url(#A)" style="isolation:isolate"/><path d="M323.71 557.51l-15.84 4.63a26.25 26.25 0 0 1-32.54-17.88 24.63 24.63 0 0 1-.63-2.67l-12.21-66.05 61.29-23.39 16.36 77.72a23.69 23.69 0 0 1-16.43 27.64z" fill="#00a678"/><path d="M323.71 557.51l-15.49-96.78 16.07-6.18 15.85 75.31a23.69 23.69 0 0 1-16.43 27.65z" fill="url(#B)"/><path d="M139.41 547.3L123 548.56a26.36 26.36 0 0 1-28.21-24.37c-.06-.88-.08-1.75-.06-2.63l1.55-67.16L161 444.21l.14 79.44a23.61 23.61 0 0 1-21.73 23.65z" fill="#00a678"/><path d="M144.23 496.35l-1 50.23s17.67-4.33 17.94-22.93c.25-16.8.74-41.56.74-41.56z" fill="url(#C)"/><path d="M369.73 357.71c-11.43 73.34-89.52 130.08-184.12 130.08S12.86 431.05 1.43 357.71c11.43-73.32 89.51-130.06 184.18-130.06s172.69 56.74 184.12 130.06z" fill="#00a678"/><path d="M369.76 357.71c-8.93 57.3-58.52 104.46-124.94 122.35 66.37-17.9 116-65.06 124.91-122.35-11.43-73.32-89.45-130.06-184.12-130.06S12.86 284.39 1.43 357.71A120.83 120.83 0 0 0 0 376.32C0 458.42 83.15 525 185.61 525s185.56-66.58 185.56-148.68a120.81 120.81 0 0 0-1.41-18.61zM14.56 397c-1.09-2.05-2.11-4.13-3.08-6.23q1.45 3.15 3.08 6.23c19.24 36.44 56.1 65.46 102 80.21-45.93-14.79-82.77-43.82-102-80.21zm107.89 82q3 .85 5.94 1.64c-2-.57-3.98-1.11-5.94-1.64zm110.24 4c2-.43 4.07-.88 6.09-1.37q-3.01.7-6.09 1.37zM373.11 277.07s8.56-32.1 42.3-29.25 29.9 50.46 0 76c0 .04-33-40.72-42.3-46.75z" fill="#00a678"/><path d="M373.11 277.35s8.56-32.1 42.3-29.25 29.9 50.46 0 76c0 .04-33-40.72-42.3-46.75z" fill="url(#D)"/><path d="M390.19 285.6s6-22.37 29.47-20.38 20.83 35.16 0 53c0-.02-22.99-28.42-29.47-32.62z" fill="#00a678"/><path d="M390.19 285.6s6-22.37 29.47-20.38 20.83 35.16 0 53c0-.02-22.99-28.42-29.47-32.62z" fill="url(#E)"/><path d="M372.37 376.7c0 82.1-83.09 148.68-185.56 148.68S1.2 458.8 1.2 376.7a121.86 121.86 0 0 1 1.43-18.6c11.43 73.28 89.49 130.07 184.18 130.07a226 226 0 0 0 67.09-10c8.54-6-2.57-36.76-2.81-37.45l16.14 8.39 15.46 17.73c47.5-23 81.08-62.58 88.27-108.72a120.23 120.23 0 0 1 1.41 18.58z" fill="url(#F)"/><path d="M482.09 393.84a115.18 115.18 0 0 1-10.7 48.59c-19 41-61.22 69.45-110.29 69.45a122.06 122.06 0 0 1-87.94-37 116.09 116.09 0 0 1-33.06-81.07c0-65.2 54.18-118 121-118s120.99 52.83 120.99 118.03z" fill="#00a678"/><path d="M482.09 393.84a115.18 115.18 0 0 1-10.7 48.59c-19 41-61.22 69.45-110.29 69.45a122.06 122.06 0 0 1-87.94-37 116.09 116.09 0 0 1-33.06-81.07c0-65.2 54.18-118 121-118s120.99 52.83 120.99 118.03z" fill="url(#G)"/><ellipse cx="386.56" cy="370.73" rx="8.79" ry="8.86" fill="#00a678"/><ellipse cx="443.21" cy="363.36" rx="8.79" ry="8.86" fill="#00a678"/><ellipse cx="386.56" cy="370.73" rx="8.79" ry="8.86" fill="url(#H)"/><ellipse cx="443.21" cy="363.36" rx="8.79" ry="8.86" fill="url(#I)"/><path d="M455.41 385.32l9.38 50.77a41.1 41.1 0 0 1-10.58 3.5C435.85 443 418.74 433.8 416 419s9.92-29.63 28.28-33.07a40.73 40.73 0 0 1 11.13-.61z" fill="#00a678"/><path d="M455.41 385.32l9.38 50.77a41.1 41.1 0 0 1-10.58 3.5C435.85 443 418.74 433.8 416 419s9.92-29.63 28.28-33.07a40.73 40.73 0 0 1 11.13-.61z" fill="url(#J)"/><ellipse cx="459.43" cy="410.87" rx="13.69" ry="25.89" transform="rotate(-10.41 459.442 410.881)" fill="#00a678"/><ellipse cx="459.43" cy="410.87" rx="13.69" ry="25.89" transform="rotate(-10.41 459.442 410.881)" fill="url(#K)"/><path d="M458.46 409.35c1.41 4.94 1.77 9.17.8 9.45s-2.91-3.49-4.32-8.43-1.77-9.16-.8-9.44 2.91 3.49 4.32 8.42z" fill="url(#L)"/><path d="M468.15 406.32c1.45 5 1.83 9.36.86 9.65s-2.93-3.58-4.37-8.63-1.83-9.37-.86-9.65 2.93 3.58 4.37 8.63z" fill="url(#M)"/><path d="M471.55 440.31l-.16 2.12c-19 41-61.22 69.45-110.29 69.45a122.06 122.06 0 0 1-87.94-37s9.25-13.34 77.1-1.9 121.29-32.67 121.29-32.67z" fill="url(#N)"/><path d="M308.79 304.5s-8.55-32.1-42.3-29.24-29.9 50.46 0 76c0 .04 33-40.72 42.3-46.76z" fill="#00a678"/><path d="M309.92 304.5s-8.55-32.1-42.3-29.24-29.9 50.46 0 76c0 .04 33-40.72 42.3-46.76z" fill="url(#O)"/><path d="M304.86 308.76s-6-22.36-29.47-20.37-20.83 35.15 0 53c0-.02 22.99-28.39 29.47-32.63z" fill="#00a678"/><path d="M304.86 308.76s-6-22.36-29.47-20.37-20.83 35.15 0 53c0-.02 22.99-28.39 29.47-32.63z" fill="url(#P)"/><path d="M252.61 268.07l-8.61 3.86-8.61 3.86c-50.35-30-95.44-29.48-119.12-26.11a104.36 104.36 0 0 0-17.38 3.77l25.11-10s14.51-6 53.44-3.79c49.35 2.84 75.17 28.41 75.17 28.41z" fill="#25233a"/><path d="M252.61 268.07l-8.61 3.86-21-14.47c-33.54-20.36-94.67-11.85-94.67-11.85l-12.11 4.07a104.36 104.36 0 0 0-17.38 3.77l25.11-10s14.51-6 53.44-3.79c49.4 2.84 75.22 28.41 75.22 28.41z" fill="#00a678"/><path d="M252.61 268.07l-8.61 3.86-21-14.47c-33.54-20.36-94.67-11.85-94.67-11.85l-12.11 4.07a104.36 104.36 0 0 0-17.38 3.77l25.11-10s14.51-6 53.44-3.79c49.4 2.84 75.22 28.41 75.22 28.41z" fill="url(#Q)"/><path d="M230.88 579.66l-16.42 1.65a26.34 26.34 0 0 1-28.73-23.71q-.12-1.29-.12-2.58v-67.23l64.5-11.7 2 79.42a23.61 23.61 0 0 1-21.23 24.15zM67.22 562.2l-16.41 1.64a26.35 26.35 0 0 1-28.76-23.7c-.08-.87-.12-1.75-.12-2.63V406.83l64.5 51.8.15 6.25L88.39 538a23.63 23.63 0 0 1-21.17 24.2z" fill="#00a678"/><path d="M67.22 562.2s3.8-82 9-91.08 10.39-6.24 10.39-6.24L88.42 538a23.64 23.64 0 0 1-21.2 24.2z" fill="url(#R)"/><path d="M230.88 579.66l2.34-98 16.92-3.12 1.91 77a23.61 23.61 0 0 1-21.17 24.12z" fill="url(#S)"/><path d="M330.94 159.46l-1.66 36.19s1.69 19.77 18.32 21.78 70.55-7.38 70.55-7.38 3.66-63.64 0-78.22-3.6-34.56-19.9-34.89c-8.17-.17-29.54-4.54-40.79-3a26.49 26.49 0 0 0-22.74 23.51c-1.11 10.46-2.47 24.69-3.78 42.01z" fill="#00a678"/><path d="M330.94 159.46l-1.66 36.19s1.69 19.77 18.32 21.78 70.55-7.38 70.55-7.38 3.66-63.64 0-78.22-3.6-34.56-19.9-34.89c-8.17-.17-29.54-4.54-40.79-3a26.49 26.49 0 0 0-22.74 23.51c-1.11 10.46-2.47 24.69-3.78 42.01z" fill="url(#T)"/><path d="M389.4 109.49c4.46-9.13 17.1-10.44 23-2.17 3.69 5.19 6.36 12.94 5.77 24.51-1.06 20.84-16.38 41-27.33 52.9a30.6 30.6 0 0 1-24.67 9.83L300.69 187l3-26 59.87 1.5z" fill="#00a678"/><path d="M389.4 109.49c4.46-9.13 17.1-10.44 23-2.17 3.69 5.19 6.36 12.94 5.77 24.51-1.06 20.84-16.38 41-27.33 52.9a30.6 30.6 0 0 1-24.67 9.83L300.69 187l3-26 59.87 1.5z" fill="#00a678"/><path d="M389.4 109.49c4.46-9.13 17.1-10.44 23-2.17 3.69 5.19 6.36 12.94 5.77 24.51-1.06 20.84-16.38 41-27.33 52.9a30.6 30.6 0 0 1-24.67 9.83L300.69 187l3-26 59.87 1.5z" fill="#00a678"/><path d="M389.4 109.49c4.46-9.13 17.1-10.44 23-2.17 3.69 5.19 6.36 12.94 5.77 24.51-1.06 20.84-16.38 41-27.33 52.9a30.6 30.6 0 0 1-24.67 9.83L300.69 187l3-26 59.87 1.5z" fill="url(#U)"/><path d="M199.07 142c-2.76 1.33-5.71 3.19-6.36 6.2a33.24 33.24 0 0 0 7.17-.73l-6.27 6.47a1.92 1.92 0 0 0-.71 1.22c0 1.05 1.43 1.36 2.47 1.27a56.52 56.52 0 0 0 10.33-1.78c.24 1.65-2.29 2.31-2.85 3.88-.5 1.38.84 2.85 2.27 3.13a10.36 10.36 0 0 0 4.31-.58c4.69-1.13 9.6-.47 14.42-.34s10-.43 13.73-3.51a5.89 5.89 0 0 0 1.94-2.55 8.41 8.41 0 0 0 .16-3.2c-.19-3 1.82-9.29.83-11.8-.94-2.35-5.25-4-7.49-4.37-13.79-2.31-28.88 4.29-33.95 6.69z" fill="url(#g)"/><ellipse cx="236.87" cy="162.14" rx="67.58" ry="50.82" transform="rotate(-73.74 236.876 162.137)" fill="#00a678"/><ellipse cx="236.87" cy="162.14" rx="67.58" ry="50.82" transform="rotate(-73.74 236.876 162.137)" fill="url(#V)"/><ellipse cx="227.63" cy="158.3" rx="67.58" ry="50.92" transform="rotate(-73.53 227.63 158.3)" fill="#00a678"/><ellipse cx="227.63" cy="158.3" rx="67.58" ry="50.92" transform="rotate(-73.53 227.63 158.3)" fill="url(#f)"/><ellipse cx="227.63" cy="158.3" rx="67.58" ry="50.92" transform="rotate(-73.53 227.63 158.3)" fill="url(#W)"/><path d="M260.92 168.44c-9.12 30.3-33.12 49.78-53.6 43.52-.72-.22-1.43-.47-2.12-.74-19-7.61-27.22-36.21-18.44-65.42 9.12-30.28 33.12-49.77 53.6-43.52a27.15 27.15 0 0 1 8.43 4.31c14.4 10.86 19.87 36.12 12.13 61.85z" fill="url(#X)"/><path d="M260.92 168.44c-9.12 30.3-33.12 49.78-53.6 43.52-.72-.22-1.43-.47-2.12-.74-14.39-10.86-19.87-36.12-12.13-61.85 9.13-30.29 33.12-49.78 53.6-43.52.72.22 1.43.47 2.12.74 14.4 10.86 19.87 36.12 12.13 61.85z" fill="#00a678"/><path d="M260.92 168.44c-9.12 30.3-33.12 49.78-53.6 43.52-.72-.22-1.43-.47-2.12-.74-14.39-10.86-19.87-36.12-12.13-61.85 9.13-30.29 33.12-49.78 53.6-43.52.72.22 1.43.47 2.12.74 14.4 10.86 19.87 36.12 12.13 61.85z" fill="url(#Y)"/><path d="M264.54 169c-2.76 1.33-5.7 3.19-6.36 6.2a33.24 33.24 0 0 0 7.17-.73l-6.24 6.42a2 2 0 0 0-.7 1.23c0 1 1.42 1.35 2.46 1.27a56.52 56.52 0 0 0 10.33-1.78c.24 1.65-2.29 2.31-2.85 3.88-.5 1.38.84 2.85 2.27 3.13a10.53 10.53 0 0 0 4.31-.58c4.69-1.14 9.6-.47 14.42-.35s10-.42 13.74-3.51a5.79 5.79 0 0 0 1.93-2.55 8.41 8.41 0 0 0 .16-3.2c-.19-3 1.82-9.29.83-11.79-.93-2.35-5.25-4-7.49-4.37-13.81-2.39-28.91 4.25-33.98 6.73z" fill="url(#Z)"/><path d="M187.4 124a97.74 97.74 0 0 1 1.25 9.79c.31 4.81-4.77 1.64-4.77 1.64s3 3.84 2.39 6-3.58 0-3.58 0 1.47 3.18 1.12 5.19-4.31.38-4.31.38 2.17 2.56 1.74 4.86-3.47 1.77-3.47 1.77-5.61-3.16-4-7.68-.83-11.56 1.83-12.9 4.34-7 7.16-7.59a22.94 22.94 0 0 0 4.64-1.46z" fill="url(#aa)"/><path d="M362.94 102.42a5.68 5.68 0 0 0 4.06.58 75.57 75.57 0 0 0 24.22-7.23c-2.71-7.4-1.56-15.59-2.21-23.46-.23-2.64-1-5.69-3.36-6.77-1.75-.79-3.79-.23-5.55.53a26.69 26.69 0 0 0-14.56 17c-1 3.3-.87 6.79-1.77 10.1-.77 2.57-3.99 6.96-.83 9.25z" fill="url(#h)"/><path d="M345.61 31.05s-6.43 34.92.53 45.48 17 13.34 27 5.91a91.45 91.45 0 0 0 17.08-17.3s6.33-.88 8.58-6.31-4.13-8.44-7.56-6.18 6.31-15.07 2.07-17.09-24.7-31.9-47.7-4.51z" fill="url(#ab)"/><path d="M370.35 2.08a26 26 0 0 0-10.15 1.06c-8.44 2.27-16.71 6.32-25.43 5.72-1.72-.12-3.7-.33-4.92.9a3.74 3.74 0 0 0-.2 4.44 10.66 10.66 0 0 0 3.49 3.19c-2 .95-2.16 4.06-.71 5.75s3.86 2.21 6.08 2.2c-1.94.44-2.31 3.43-.9 4.85s3.68 1.51 5.61 1a45.14 45.14 0 0 0 6.4-2.74c6-2.57 12.7-2.7 19.19-2.26 6.78.46 14.25 1.91 18.35 7.37a13.61 13.61 0 0 1 2.11 11.83c-1.29 4.34-4.8 8.25-4.17 12.74 3-.72 3.76-5.47 6.81-6.14 2.41-.54 4.49-.73 6.57 2.19.63.88 2.34-2.45 3-3.32 2.3-3.12 4.64-6.33 5.71-10.06a16.69 16.69 0 0 0-3.65-15.49 10.27 10.27 0 0 1-2.13-2.73 15.8 15.8 0 0 1-.57-3.61c-.59-3.56-3.56-6.17-6.39-8.39Q387.36 5 379.89 0c-1.09 2.7-.4 4.91-3 4.8-1.76-.07-4.41-2.44-6.54-2.72zM388.51 76.22a5.47 5.47 0 0 1-1.71-5.4 8.93 8.93 0 0 1 3.2-4.88 18.63 18.63 0 0 1 4.59-2.71c-.06 1.31-6.59 12.63-6.08 12.99z" fill="#3f3d56"/><path d="M390.3 57.93a4.18 4.18 0 0 1 .76-2.09 2.8 2.8 0 0 1 .93-.58 4 4 0 0 1 1.81-.42 1.77 1.77 0 0 1 1.52 1 2.26 2.26 0 0 1 .12 1 6.83 6.83 0 0 1-4.91 6 1.23 1.23 0 0 1-.76 0 1.21 1.21 0 0 1-.63-.7 2.58 2.58 0 0 1-.06-2.37c.46-.69 1.02-.94 1.22-1.84z" fill="url(#ac)"/></svg>