<?xml version="1.0" encoding="utf-8"?>
<!-- Generator: Adobe Illustrator 21.1.0, SVG Export Plug-In . SVG Version: 6.00 Build 0)  -->
<svg version="1.1" id="Layer_1" xmlns="http://www.w3.org/2000/svg" xmlns:xlink="http://www.w3.org/1999/xlink" x="0px" y="0px"
	 viewBox="0 0 120 116" style="enable-background:new 0 0 120 116;" xml:space="preserve">
<style type="text/css">
	.st0{fill:#DDE1E7;}
	.st1{fill:#3C444C;}
	.st2{fill:#03A678;}
</style>
<path class="st0" d="M116.5,43.6C110.2,20.3,91.6-5.7,48.9,1.1c0,0-26.5,6-38.8,24.1C-2.3,43.4-2.3,66.7,5.3,84.6
	c8.7,19.9,21.8,28.3,42,30.7c20.2,2.4,42.5-0.3,55.9-17.1C116.5,81.4,123.1,66.7,116.5,43.6z M111.3,61.5
	c-1.8,40.9-35.1,49.3-61.6,45.7C23.2,103.4,2.4,81.9,10.3,47C18.2,12.1,56.2,7.1,56.2,7.1C75.9,1.1,113.1,20.3,111.3,61.5z"/>
<path class="st0" d="M55.9,11.9v6.3c0,0.8,0.5,1.6,1.6,1.6c0.8,0,1.6-0.5,1.6-1.6v-6.3c0-0.8-0.5-1.6-1.6-1.6
	C56.7,10.3,55.9,11.1,55.9,11.9z"/>
<path class="st0" d="M55.9,99v5.2c0,0.8,0.5,1.6,1.6,1.6c0.8,0,1.6-0.5,1.6-1.6V99c0-0.8-0.5-1.6-1.6-1.6
	C56.7,97.4,55.9,98.2,55.9,99z"/>
<path class="st0" d="M101.1,63h7.1c0.8,0,1.6-0.8,1.6-1.6s-0.8-1.6-1.6-1.6h-7.1c-0.8,0-1.6,0.8-1.6,1.6
	C99.7,62.5,100.3,63,101.1,63z"/>
<path class="st0" d="M16.6,60.1h-5.2c-0.8,0-1.3,0.5-1.3,1.3c0,0.8,0.5,1.3,1.3,1.3h5.2c0.8,0,1.3-0.5,1.3-1.3
	C17.9,60.9,17.4,60.1,16.6,60.1z"/>
<path class="st1" d="M60.4,60.9L47.5,33.1c-0.3-0.8-1-1-1.8-0.8c-0.8,0.3-1,1-0.8,1.8L57.8,62c0.3,0.8,1,1,1.8,0.8
	C60.4,62.5,60.7,61.7,60.4,60.9z"/>
<path class="st2" d="M82.4,75.4L62,60.1l-1.6-32.8c0-1.6-1.3-2.9-3.1-2.9c-1.6,0-2.9,1.3-2.9,3.1l1.6,34.1c0,0.8,0.5,1.6,1.3,2.1
	l21.8,16c1.3,1,3.1,0.8,4.2-0.5C84,78,83.7,76.2,82.4,75.4z"/>
</svg>
