<svg width="131" height="100" viewBox="0 0 131 100" fill="none" xmlns="http://www.w3.org/2000/svg">
<path d="M32.2255 0.227129C29.0247 0.495496 21.2895 -0.0412375 21.2895 5.59447C21.2895 10.9618 21.2895 40.2138 23.6901 58.7311C23.6901 58.7311 23.4233 63.5617 15.1546 64.0985C7.1527 64.6352 1.2846 64.0985 1.2846 64.0985C1.2846 64.0985 -1.38272 67.0505 1.2846 70.5393C3.95191 74.028 17.822 87.9831 23.6901 92.0086C29.5582 96.0341 33.5591 98.4494 33.5591 98.4494C33.5591 98.4494 38.0936 101.938 41.5611 98.4494C45.0286 94.9607 60.4991 82.6158 63.9666 76.4433C67.4341 70.0025 71.4351 64.9036 71.4351 64.9036C71.4351 64.9036 74.3691 59.8046 64.5 60.8781C54.631 61.9515 47.6959 61.9515 47.6959 61.9515C47.6959 61.9515 45.2953 58.9995 45.2953 56.3158C45.2953 53.6322 46.0955 17.4026 44.2284 2.64243C43.9617 -0.0412377 36.4932 -0.309605 32.2255 0.227129Z" fill="#DDE1E7"/>
<path d="M107.711 98.9858C107.711 98.9858 110.378 99.2542 110.645 96.5705C110.912 93.8869 111.445 75.3696 110.645 61.6828C109.845 48.2645 109.311 41.5553 109.311 41.5553C109.311 41.5553 109.845 38.3349 112.779 37.7982C115.446 37.2614 126.115 36.9931 129.049 36.4563C131.983 35.9196 130.65 32.6992 129.049 30.5523C127.449 28.4053 117.313 17.1339 110.645 10.1564C104.243 3.17884 102.643 1.83701 102.643 1.83701C102.643 1.83701 99.7089 -0.309929 97.575 1.83701C95.4412 3.98394 90.9067 7.74108 87.4392 10.6931C83.9717 13.6452 75.9698 21.6962 72.2355 27.3319C68.2346 32.9676 63.4334 38.6033 72.2355 38.0665C81.0377 37.5298 82.6381 37.5298 87.1725 38.0665C87.1725 38.0665 89.3064 38.8716 89.8398 43.1655C90.3733 47.4594 91.4402 64.6349 90.9067 70.8073C90.3733 76.9798 89.3064 98.1807 92.2404 98.1807C95.1745 98.1807 107.711 98.9858 107.711 98.9858Z" fill="#03A678"/>
</svg>
