<svg width="75" height="145" viewBox="0 0 75 145" fill="none" xmlns="http://www.w3.org/2000/svg">
<path d="M22.2702 5.33923C23.645 2.58965 25.609 0.429238 28.7514 0.0364411C35.0363 -0.552755 39.5536 6.12482 41.9104 11.2312C44.8564 18.1051 43.8745 25.3719 43.0889 32.6386C42.1069 40.691 42.3032 48.7433 41.9104 56.5992C41.1248 74.8643 36.4111 92.3438 31.6975 110.02C31.3046 111.787 28.555 111.198 29.1442 109.43C30.3227 104.913 31.6975 100.396 32.8759 95.8789C34.6436 83.3094 36.2147 70.3471 33.6615 57.7776C32.0903 50.5109 28.9478 44.0297 26.1982 37.1558C24.8234 33.6206 23.645 29.889 22.663 26.1574C21.681 22.6223 20.699 18.8907 20.1098 15.1592C19.5206 11.624 20.5025 8.48161 22.2702 5.33923Z" fill="#03A678"/>
<path d="M31.1078 98.2361C32.0898 93.1298 33.2682 88.0234 34.8394 83.1134C35.8215 79.971 36.9998 76.6323 38.3747 73.4899C39.5531 69.3655 40.9279 65.0448 42.1064 60.9204C45.6416 49.5293 49.1768 37.7454 56.2472 27.9254C58.0149 25.5687 59.7825 23.2118 61.943 21.2478C63.907 19.4803 66.2638 17.9091 69.0134 18.1055C74.5127 18.6947 74.5127 25.1758 73.7271 29.3002C72.5487 35.585 69.2098 40.6913 65.0854 45.2085C60.3717 50.5113 55.2652 55.4212 50.3552 60.5276C47.8019 63.2771 45.0524 66.0268 43.0884 69.1692C41.1243 72.3115 39.7495 75.8467 38.3747 79.3819C37.5891 81.3459 36.9998 83.3098 36.4106 85.4702C36.2142 86.0594 36.0178 86.4522 36.0178 87.0414C34.643 92.1477 33.4646 97.2542 32.6789 102.557C32.4825 103.735 31.1078 103.735 30.5186 102.95C30.1258 102.95 29.7329 102.753 29.7329 102.36C30.3221 101.182 30.7149 99.6109 31.1078 98.2361Z" fill="#03A678"/>
<path d="M5.96844 38.3338C10.4857 35.7806 16.3778 37.5481 20.3058 40.1013C30.5187 46.7789 33.6611 59.7412 33.6611 71.3287C33.8575 79.1846 33.072 87.0406 32.2864 94.8965C31.6972 100.985 30.7152 106.877 29.5367 112.965C29.1439 115.126 28.7512 117.482 28.3584 119.643C28.162 121.018 26.0015 120.625 26.1979 119.25C27.5727 112.18 28.7511 105.109 29.5367 98.039C29.9295 94.3074 30.3224 90.5758 30.3224 86.8442C30.3224 83.5055 30.5187 79.7738 29.7331 76.4351C28.9475 73.0963 26.0015 70.7395 23.4483 68.5791C20.8951 66.4187 18.3418 64.2583 15.5922 62.4908C10.8786 59.3484 5.37929 56.5988 2.82605 51.2961C1.05843 46.9753 1.45119 40.8869 5.96844 38.3338Z" fill="#03A678"/>
<path d="M7.1473 41.2803C10.2897 43.6371 13.4323 46.1902 16.1819 49.1362C18.7351 51.6894 20.8955 54.6354 22.8595 57.385C25.0199 60.331 26.7876 63.4733 28.1624 66.8121C29.5372 70.3473 30.3229 74.2753 31.3049 78.0068C31.3049 78.3996 30.9121 78.3996 30.9121 78.2032C29.9301 74.668 29.3409 70.9364 27.966 67.4013C26.5912 63.8661 24.6272 60.7237 22.4668 57.5813C20.3064 54.6354 18.1459 51.6894 15.5927 48.9398C13.0395 46.1902 10.0933 43.8335 7.1473 41.2803C6.9509 41.2803 6.9509 41.2803 7.1473 41.2803Z" fill="white"/>
<path d="M18.1448 41.0841C18.5376 44.4229 18.734 47.9581 18.1448 51.2968C18.1448 51.4932 17.752 51.4932 17.752 51.2968C18.1448 47.9581 18.3411 44.6193 17.9483 41.2805C17.9483 40.8877 18.1448 40.8877 18.1448 41.0841Z" fill="white"/>
<path d="M24.4307 46.7791C24.4307 50.9035 24.2342 54.8315 23.8414 58.9559C23.8414 59.1523 23.4487 59.1523 23.4487 58.9559C23.8415 54.8315 24.2343 50.7071 24.4307 46.7791C24.2343 46.5827 24.4307 46.5827 24.4307 46.7791Z" fill="white"/>
<path d="M29.3403 55.4213C29.3403 55.2249 29.5366 55.4213 29.5366 55.4213C28.9474 58.5637 28.3583 61.5096 27.3763 64.652C27.3763 64.8484 26.787 64.8484 26.9834 64.652C27.7691 61.5096 28.5547 58.5637 29.3403 55.4213Z" fill="white"/>
<path d="M13.2348 56.9925C17.1629 59.5457 21.4837 61.3132 26.001 62.688C26.1974 62.688 26.1974 63.0809 26.001 63.0809C21.4837 61.7061 17.1628 59.7421 13.0384 57.1889C12.842 57.1889 13.0384 56.7961 13.2348 56.9925Z" fill="white"/>
<path d="M8.91493 50.1182C12.6466 51.8858 16.5747 53.2606 20.5027 54.439C20.6991 54.439 20.6991 54.8317 20.5027 54.8317C16.3783 53.6533 12.6466 52.0822 8.91493 50.1182C8.71852 50.1182 8.91493 50.1182 8.91493 50.1182Z" fill="white"/>
<path d="M5.77181 43.833C7.93224 44.6186 10.0926 45.2078 12.4494 45.6006C12.8422 45.6006 12.6458 46.1898 12.4494 45.9934C10.0926 45.4042 7.93224 44.815 5.77181 44.0294C5.57541 44.0294 5.57541 43.833 5.77181 43.833Z" fill="white"/>
<path d="M30.5194 7.10726C31.5014 25.1759 34.6439 43.2446 37.3935 61.1169C38.1791 65.8304 38.9647 70.7404 37.9827 75.454C37.9827 75.6504 37.3935 75.6504 37.5899 75.454C38.3755 70.9368 37.7864 66.616 37.1972 62.0989C36.6079 57.5817 35.8223 53.2609 35.0367 48.7437C33.6618 39.9058 32.4834 31.0679 31.5014 22.2299C30.9122 17.32 30.5194 12.2136 30.5194 7.10726C30.323 6.91086 30.5194 6.91086 30.5194 7.10726Z" fill="white"/>
<path d="M24.4299 9.66016C26.5903 12.8025 30.5183 15.3558 31.5004 19.0873C31.5004 19.2837 31.304 19.2837 31.304 19.0873C29.5364 15.7485 26.1975 13.1953 24.4299 9.66016C24.0371 9.66016 24.2335 9.66016 24.4299 9.66016Z" fill="#7A937D"/>
<path d="M23.6449 21.2474C26.7873 24.7826 29.7334 28.3178 33.0722 31.6566C33.2686 31.853 32.8758 32.0494 32.6794 31.853C29.3405 28.7106 26.1982 24.979 23.4485 21.2474C23.2521 21.2474 23.4485 21.051 23.6449 21.2474Z" fill="white"/>
<path d="M27.3762 35.388C29.5367 37.7448 32.0898 39.9051 34.4467 42.0655C34.6431 42.2619 34.4466 42.6548 34.0538 42.4584C31.5006 40.298 29.3402 37.9412 26.9834 35.5844C26.9834 35.388 27.1798 35.1916 27.3762 35.388Z" fill="white"/>
<path d="M33.661 38.1373C36.4107 35.5841 38.3747 32.4418 39.3568 28.9066C39.3568 28.7102 39.5531 28.9066 39.5531 28.9066C38.7675 32.4418 36.8035 35.7806 34.0539 38.3337C33.6611 38.5301 33.4646 38.3337 33.661 38.1373Z" fill="white"/>
<path d="M32.4833 26.9435C33.8581 25.7651 35.233 24.5867 36.215 23.0156C37.0006 21.8372 37.5897 20.6588 38.3754 19.6768C38.3754 19.6768 38.5718 19.6768 38.3754 19.6768C37.3933 20.8551 36.8042 22.4264 35.8221 23.8011C34.8401 24.9795 33.8581 26.1579 32.4833 27.1399C32.4833 27.5327 32.2869 27.1399 32.4833 26.9435Z" fill="white"/>
<path d="M30.9114 15.7488C31.8934 14.374 32.8754 12.8028 33.4646 11.2316C34.0539 10.0532 34.2503 8.48199 35.2323 7.5H35.4287C34.4467 8.67839 34.0539 10.6424 33.4646 12.2136C32.8754 13.5884 32.0899 14.7668 31.3043 15.9452C31.1079 16.1416 30.715 15.9452 30.9114 15.7488Z" fill="#7A937D"/>
<path d="M35.2329 49.3326C36.4113 48.3506 36.8041 46.7794 37.3933 45.4046C38.1789 43.8334 38.7682 42.0658 39.161 40.2982C39.161 40.1018 39.3573 40.2982 39.3573 40.2982C38.9645 42.0658 38.5717 43.8334 37.7861 45.4046C37.1969 46.7794 36.6077 48.3506 35.4293 49.3326C35.4293 49.7254 35.2329 49.529 35.2329 49.3326Z" fill="white"/>
<path d="M42.1069 65.2409C43.6782 62.0985 46.2313 59.1525 48.1954 56.403C50.7486 52.8678 53.1054 49.3326 55.2658 45.7974C59.7831 39.1198 64.1039 32.2459 68.4248 25.5684H68.6213C64.4968 32.4423 59.9795 39.1199 55.6586 45.9938C53.4982 49.3326 51.3378 52.475 49.1774 55.8137C47.0169 58.9561 44.0709 62.0985 42.4996 65.6337C42.4996 65.6337 42.1069 65.4373 42.1069 65.2409Z" fill="white"/>
<path d="M63.5143 22.4256C62.7287 26.9428 62.3359 31.6564 61.9431 36.1735C61.9431 36.3699 61.5503 36.3699 61.5503 36.1735C61.7467 31.46 62.3359 26.9428 63.1215 22.4256C63.3179 22.2292 63.5143 22.2292 63.5143 22.4256Z" fill="white"/>
<path d="M64.3004 32.4422C66.068 32.0494 67.6393 31.4602 69.2105 30.871C70.3889 30.2818 71.3709 29.4962 72.7457 29.2998C72.9421 29.2998 72.9421 29.4962 72.7457 29.4962C71.3709 29.6926 70.1924 30.6746 69.014 31.2638C67.6392 31.853 66.068 32.4422 64.4968 32.6386C64.104 32.6386 64.104 32.4422 64.3004 32.4422Z" fill="white"/>
<path d="M55.8547 33.2279C56.2475 36.7631 56.6403 40.4947 56.8367 44.0298C56.8367 44.2262 56.4439 44.4226 56.4439 44.0298C56.0511 40.4947 56.051 36.7631 55.6582 33.2279C55.6582 33.2279 55.8547 33.0315 55.8547 33.2279Z" fill="white"/>
<path d="M58.8012 40.8869C61.158 40.6905 63.7111 40.4941 66.068 40.4941C66.2644 40.4941 66.2644 40.6906 66.068 40.6906C63.7111 41.0833 61.158 41.2797 58.8012 41.2797C58.8012 41.0833 58.6048 40.8869 58.8012 40.8869Z" fill="white"/>
<path d="M51.7301 40.8871C51.1409 44.6187 50.9445 48.5467 51.3373 52.2783C51.3373 52.4746 50.9446 52.671 50.9446 52.2783C50.5518 48.5467 50.7481 44.6187 51.7301 40.8871C51.5337 40.6907 51.7301 40.8871 51.7301 40.8871Z" fill="white"/>
<path d="M53.1054 49.5288C54.2838 48.9396 55.6586 48.5468 56.8371 47.9576C57.8191 47.5648 58.801 46.9756 59.9794 46.9756C60.1758 46.9756 60.1758 47.172 59.9794 47.172C58.801 47.3684 57.6226 47.9576 56.6406 48.3504C55.4622 48.9396 54.2838 49.3324 53.1054 49.7252C53.1054 49.7252 52.909 49.5288 53.1054 49.5288Z" fill="white"/>
<path d="M0.469244 111.198C1.05845 119.054 2.04039 126.91 5.18283 133.784C6.55765 136.927 8.52172 139.873 10.8786 142.229C13.4318 144.586 16.9671 142.426 20.1095 143.408C28.7512 146.157 46.6238 145.372 54.6763 140.855C62.7288 136.338 59.9791 131.624 62.5324 121.411C64.3 114.537 66.0676 107.074 66.0676 99.8073C66.0676 93.1298 66.2641 86.4522 64.3 80.1674C63.9072 78.7927 63.318 77.4179 62.336 76.4359C61.354 75.2575 59.7828 74.8647 58.408 74.6683C54.6763 73.8827 50.7482 73.6863 46.8202 73.4899C41.9101 73.2935 35.4289 73.0971 30.5188 72.7043C24.4303 72.5079 19.913 72.1151 14.0209 72.5079C10.4857 72.7043 3.41526 71.9187 1.05843 76.2395C-0.709194 79.5782 0.469196 86.0595 0.665599 89.791C1.0584 96.8614 -0.119963 103.932 0.469244 111.198Z" fill="#DDE1E7"/>
</svg>
