<?xml version="1.0" encoding="utf-8"?>
<!-- Generator: Adobe Illustrator 21.1.0, SVG Export Plug-In . SVG Version: 6.00 Build 0)  -->
<svg version="1.1" id="Layer_1" xmlns="http://www.w3.org/2000/svg" xmlns:xlink="http://www.w3.org/1999/xlink" x="0px" y="0px"
	 viewBox="0 0 241 271" style="enable-background:new 0 0 241 271;" xml:space="preserve">
<style type="text/css">
	.st0{fill:#333350;}
	.st1{fill:#DDD2C7;}
	.st2{fill:#3C444C;}
	.st3{fill:#3D3F3F;}
	.st4{fill:#5B4C43;}
	.st5{fill:#EADDD0;}
	.st6{fill:#736357;}
	.st7{fill:#F2D292;}
	.st8{fill:#03A678;}
	.st9{fill:#4D4D4D;}
	.st10{fill:#534741;}
	.st11{fill:#B4C7BA;}
	.st12{opacity:0.37;fill:#3D3F3F;enable-background:new    ;}
</style>
<path class="st0" d="M206.9,136.5c3.8,0.1,9.5,0.3,11.3-2.1c1.8-2.6-1.3-5.8-3.4-7.8c-0.9-0.8,1.3-1.8,2.4-1c4,2.4,7.2,6.8,5.1,10.1
	c-2.3,3.7-10.4,4-16,3.4C203.9,138.6,204.5,136.5,206.9,136.5z"/>
<path class="st1" d="M216.8,128.8c1.4,2,1.6,5-0.1,6.7c-1.3,1.4-3.4,1.7-5.2,1.4c-1.8-0.3-3.5-1.1-5.2-2c-1-5.1-2.4-10.1-4-15
	c0.9-1.8,3.7-1.8,5.2-0.4c1.6,1.3,2.4,3.3,4,4.8C213,126,215.4,127,216.8,128.8z"/>
<path class="st2" d="M197.8,122.9c3.4,0,7.7-0.9,10.4-3c1.7-1.4-0.1-1.3-1.4-2.4c-1.1-1-1.8-2.3-2.4-3.5c-4-7.7-7.8-15.6-10.4-24
	c-0.7-2.3-1.3-4.5-2-6.9c-1.7-6.2-3.3-12.5-5-18.7c-1.3-4.7-3.5-8.9-4.8-13.5c-1-3.7-1.8-8.2-5.4-10.5c-1.7-1.1-3.7-1.7-5.7-2.3
	c-2.8-0.7-4.8-1-7.2,0.7c-2,1.4-3.7,3.5-4,6.1c-0.3,2.8,1.1,5.4,2.6,7.8C175.5,75.5,187.3,98.9,197.8,122.9z"/>
<path class="st3" d="M202.9,126.9c1.3,1.8,0.6,4.5,1.6,6.7c0.7,1.6,2.3,2.4,3.7,3.1c1.8,0.8,4,1.3,6,0.7c2-0.6,3.7-2.4,3.8-4.5
	c0-1.7-1-3.3-2-4.5c-1.4-1.7-2.8-3.4-4.4-5C209.3,125.6,206.2,127,202.9,126.9z M214.4,131.4c-0.4-0.4,0.3-1.1,0.7-0.7
	c0.6,0.6,1,1.3,1.3,2.1c0.1,0.3-0.1,0.6-0.3,0.6c-0.3,0.1-0.4-0.1-0.6-0.4C215.2,132.4,214.8,131.8,214.4,131.4z M213.4,132
	c0.1,0.7,0.6,1.4,1,2c0.4,0.6-0.4,1-0.8,0.6c-0.4-0.7-0.9-1.4-1-2.3C212.3,131.5,213.2,131.4,213.4,132z M211,132.8
	c0.4,0.6,0.9,1.1,1.1,1.8c0.3,0.6-0.6,1.1-0.9,0.6c-0.3-0.6-0.6-1.1-1-1.6C209.8,133.1,210.6,132.4,211,132.8z"/>
<path class="st1" d="M112,165.8c4.7-0.4,9.4,0.3,13.8,2c0.7,0.3,1.6,0.6,2,1.3c0.4,0.6,0.6,1.4,0.6,2.1c0.4,5.7,0.7,11.3,1.1,16.9
	c0.3,4.5,0.6,9.1,0.4,13.6c-0.3,4.3-1.8,8.1-2.3,12.3c-1,9.8-2.8,19.6-4.8,29.2c-1.6,0-3.1,0-4.7,0.1c0,0,0.6-12.2,0.6-12.9
	c0.1-2.8,1-5.5,1.1-8.5c0.1-3.3,0.1-6.7,0.1-9.9c0-3.3,0-6.7-0.7-9.9c-0.4-2-1.1-4-1.8-5.8c-3.5-9.6-7.2-19.1-10.8-28.8
	C108.2,166.5,110,166,112,165.8z"/>
<path class="st4" d="M129.9,102.3c0.6,0.7,1.1,2.1,1.1,3c-0.3,21.4,0.1,45.2-0.1,66.6c-8.1,1.1-16.4,1.1-24.5,0.3
	C95.7,145,84.9,117.1,85.2,87.9c14.5,5.2,29.1,10.5,43.5,15.7C129.7,104,129.4,101.5,129.9,102.3z"/>
<path class="st2" d="M186.6,64.3c-6.9,3.3-9.1,5.5-14.6,10.9c-3.8,3.8-7.4,8.1-11.2,11.9c-5.7,5.4-12.2,9.5-18.7,13.7
	c-2.1,1.4-4.4,2.8-6.8,3.3c-1.7,0.4-3.5,0.3-5.4,0c-16.4-2-30.6-11.8-46.9-9.4c1.8-20.6,24.2-32.2,40.4-43.1c2.7-1.8,5-3.5,7.8-5
	c3-1.4,6.1-2.7,9.2-3.8c6.1-2.3,12.5-4.1,18.9-5.5c8.4-1.7,16.6-1.1,21.8,6.5C184.9,49.6,186.9,57.4,186.6,64.3z"/>
<path class="st2" d="M177.8,267.5c20.7,14.7,57.4,0.6,62.7-24.2c3-13.6-4.8-28.3-14.3-37.6c-12.3-12-31.6-15-47.2-8.5
	c-7.1,3-11.9,8.1-15,14.3C155.2,229.2,161.9,256.1,177.8,267.5z M174.5,210.6c0.9-0.8,1.7-1.6,2.6-2.3c6.8,7.8,13.5,15.7,20,23.8
	c0,0,0,0-0.1,0.1c-0.4,0.4-0.9,0.9-1.1,1.3c-0.6,0.9-0.7,2-0.7,3l-26.2,0.1C166.9,227.5,168,217.7,174.5,210.6z M206.2,236.4
	c0-0.6,0-1.1-0.1-1.6c0-0.1-0.1-0.4-0.3-0.6l21.8-15.7c3.3,5.4,5.2,11.8,5.2,17.7L206.2,236.4z M197.8,202.5
	c1.1,9.2,2,18.6,2.7,28.1c-1.1,0-2.1,0.4-2.8,1c-6.5-8.1-13.2-16-20-23.7C183.2,204,190.4,202.4,197.8,202.5z M227.3,218l-21.8,15.7
	c-0.6-1-1.4-1.8-2.4-2.3c-0.6-0.3-1.3-0.6-1.8-0.7c-0.7-9.4-1.6-18.7-2.7-28.1c6.4,0.3,12.6,2,17.6,4.5
	C220.5,209.5,224.3,213.3,227.3,218z M218.9,259.1c-4.7-6.4-9.6-12.8-14.5-19c0.9-0.9,1.4-2,1.7-3.3l26.7-0.1c0,2.6-0.4,5-1.1,7.2
	C229.4,251,224.7,255.8,218.9,259.1z M177.2,254.7l20-14.3c1.1,1,2.6,1.4,4.1,1.3c0.4,7.4,0.7,14.7,0.9,22.1h0.6
	c-0.1-7.4-0.4-14.7-0.9-22.3c0.1,0,0.1,0,0.3,0c0.7-0.1,1.3-0.6,1.8-1c5,6.2,9.8,12.5,14.5,18.9c-8.4,4.4-19.1,5.4-28.4,4
	C184.7,262.5,180.5,259.1,177.2,254.7z M170,240.1c-0.3-1-0.6-2-0.9-3l26.2-0.1c0,0.3,0.1,0.4,0.1,0.7c0.3,0.9,0.7,1.7,1.3,2.3
	l-19.9,14.3c-1.1-1.6-2.1-3.1-3-4.7C172.1,246.3,170.8,243.1,170,240.1z"/>
<path class="st2" d="M24.2,268.3c22.8,11.1,56.6-9.1,57.7-34.3c0.6-13.9-9.5-27.1-20.4-34.7c-14.2-9.8-33.6-9.5-48.1-0.4
	C6.9,203,3,208.8,1.1,215.4C-4.4,234.4,6.8,259.8,24.2,268.3z M11.6,212.7c0.7-1,1.4-1.8,2.1-2.7c8.1,6.5,15.9,13.2,23.7,20
	c0,0,0,0,0,0.1c-0.4,0.4-0.7,0.9-0.9,1.6c-0.4,1-0.4,2-0.3,3.1l-26,4.5C6.8,230.7,6.2,220.8,11.6,212.7z M46.9,232.9
	c0-0.6-0.3-1-0.4-1.6c-0.1-0.1-0.1-0.4-0.3-0.6l18.9-19.1c4.1,4.8,7.1,10.6,8.1,16.6L46.9,232.9z M33,201c2.7,8.9,5.1,18,7.4,27.1
	c-1.1,0.1-2,0.7-2.7,1.6c-7.8-6.8-15.7-13.5-23.7-20C18.8,204.8,25.8,202,33,201z M64.6,211.2l-18.9,19.1c-0.7-0.9-1.7-1.6-2.8-1.8
	c-0.6-0.3-1.3-0.4-2-0.3c-2.3-9.1-4.7-18.1-7.4-27.2c6.4-0.9,12.8-0.3,18.1,1.4C56.6,204,61.1,207.1,64.6,211.2z M63.4,253.1
	c-5.7-5.5-11.6-10.9-17.4-16.3c0.7-1,1.1-2.3,1.1-3.4l26.2-4.7c0.4,2.4,0.4,5,0.1,7.4C72.4,243.4,68.6,249,63.4,253.1z M21.5,255.8
	l17.3-17.4c1.3,0.7,2.8,1,4.3,0.6c1.7,7.2,3.3,14.5,4.5,21.7l0.6-0.1c-1.4-7.2-3-14.5-4.7-21.7c0.1,0,0.1,0,0.3-0.1
	c0.7-0.3,1.1-0.7,1.7-1.3c6,5.2,11.8,10.6,17.4,16.2c-7.5,5.8-18,8.5-27.4,8.6C30.3,262.2,25.5,259.5,21.5,255.8z M11.9,242.7
	c-0.4-1-1-1.8-1.3-2.8l25.8-4.5c0,0.1,0.1,0.4,0.3,0.6c0.4,0.9,1,1.6,1.7,2l-17.2,17.4c-1.3-1.3-2.6-2.7-3.7-4.1
	C15.1,248.5,13.3,245.5,11.9,242.7z"/>
<path class="st2" d="M101.5,159.5c7.1,0.6,14.6,0,21.7-0.3c7.7-0.1,15.3-0.4,22.8-0.9c7.7-0.3,15.2-0.7,22.8-1.1
	c7.5-0.4,15.3-1.6,22.8-1.1c1.3,0,1.7,2.1,0.3,2.4c-7.1,1.4-14.7,1.6-22,2c-7.7,0.6-15.2,1-22.8,1.4c-7.7,0.4-15.2,0.7-22.8,1
	c-7.5,0.3-15.3-0.1-22.8,0.7C99,163.8,98.8,159.2,101.5,159.5z"/>
<path class="st2" d="M91.9,125.4c5.8,15.2,8.2,31.9,10.4,47.9c2.3,16.7,3.7,33.5,6.5,50c0.3,1.4-2,2.1-2.3,0.6
	c-3.1-16.2-5.1-32.5-7.4-48.8c-1.1-8.1-2.4-16.2-4.1-24.2c-1.7-8.4-4.1-16.4-6.7-24.7C87.8,124.2,91,123.5,91.9,125.4z"/>
<path class="st2" d="M41.1,233.4c6.4-13.3,15.3-24.7,24.1-35.9c9.9-12.6,19.7-25.4,30.1-37.6c1-1.3,2.6,0.6,1.6,1.8
	c-9.2,12.8-18.9,25.2-28.5,37.7c-8.8,11.3-17.7,22.7-24,36.1C43.4,238.3,40,236,41.1,233.4z"/>
<path class="st2" d="M36.6,230.6c5.7-1,11.6-1.3,17.4-1.8c6.4-0.7,12.8-1.3,19.1-1.8c12.3-1.1,24.8-2,37.3-2.3c1.7,0,1.6,2.4,0,2.6
	c-12.1,1-24.1,2-36.2,3c-6,0.6-12.1,1.1-18,1.7c-6.4,0.7-12.8,1.7-19.1,2.1C35,234.3,34.6,230.9,36.6,230.6z"/>
<path class="st2" d="M107.9,222.5c3-2.6,6.5-4.7,9.6-6.8c3.7-2.6,7.5-5.2,11.2-7.8c7.1-5,14.2-10.1,21.4-15
	c14.2-10.1,28.2-20.3,42.5-30.3c1.1-0.9,2.6,1.1,1.6,2c-13.6,10.5-27.5,20.6-41.3,30.8c-7.1,5.1-14.2,10.2-21.1,15.3
	c-3.4,2.4-6.8,4.8-10.2,7.2c-3.7,2.6-7.2,5.7-11.2,7.8C108.5,226.8,106.2,224.1,107.9,222.5z"/>
<path class="st2" d="M191.4,130c0-2,2.8-2,3.1,0c1.1,8.9,1.4,18.1,2,27.1c0.6,9.4,1.1,18.7,1.8,28.1c1.1,17.9,2.6,35.9,7.5,53
	c0.9,3.1-4,4.4-4.8,1.3c-5-17.3-6.2-35.4-7.1-53.3c-0.4-9.4-0.8-18.7-1.3-28.1C192,148.8,191.3,139.3,191.4,130z"/>
<path class="st0" d="M192.8,128.4c4.1-0.9,8.2-1.1,12.3-1.7c4.5-0.6,9.5-1.7,14.2-1.3c1.6,0.1,1.8,2.3,0.4,2.8
	c-4,1.4-8.8,1.7-12.9,2.3c-4.4,0.7-8.9,1.6-13.3,1.8C191,132.7,190.6,128.8,192.8,128.4z"/>
<path class="st0" d="M210.3,142c3.8,0.1,9.5,0.4,11.3-3.1c1.8-3.7-1.3-8.5-3.4-11.6c-0.9-1.3,1.3-2.7,2.4-1.6
	c4,3.5,7.2,9.9,5.1,14.7c-2.3,5.4-10.4,5.8-16,5C207.3,145.1,207.9,142,210.3,142z"/>
<path class="st2" d="M76.1,122.9c6.8,0.4,13.6,1,20.6,1.1c3.4,0.1,6.8,0,10.4,0c3.1,0,6.5-0.6,9.5,0.6c1.1,0.4,1.6,2.1,0.4,2.7
	c-2.7,1.4-5.8,1.3-8.8,1.6c-3.4,0.3-6.8,0.4-10.4,0.4c-7.2,0.1-14.5,0.1-21.7-0.6C72.4,128.4,72.4,122.6,76.1,122.9z"/>
<path class="st5" d="M113,209.3c-3.1-1.7-5.4-4.7-6.4-8.1c10.5-7.8,21.3-17,28.4-28.1c0.7-1.1,1.6-2.6,1.3-4
	c-0.1-1.4-1.1-2.4-2.1-3.4c-1.4-1.6-9.2-7.1-8.6-8.8c0.4-1.4,6-3.4,7.4-4.1c3-1.6,5-2.3,8.4-2.7c0.4,0,0.9-0.1,1.3,0
	c0.3,0.1,0.6,0.4,0.9,0.6c3.1,3.1,5.4,7.1,6.7,11.3c0.6,2,1.1,4,1,6.1c-0.4,6.8-7.1,10.6-11.8,14.6c-6.1,5.1-11.8,10.5-17.6,16
	C118.4,202.1,115,205.4,113,209.3z"/>
<path class="st6" d="M93.1,88.2c-2.8-1.3-6.2-0.1-7.8,2.6c-6.9,12.5-6.4,28.9,1.7,40.7c4.4,6.4,10.6,11.2,16.9,15.9
	c6.7,5.1,13.3,10.2,20,15.3c5-4.7,10.5-8.6,16.4-11.6c0.7-0.4,1.6-0.9,2-1.6c0.8-1.3,0.1-3.1-0.6-4.4c-3.5-6.8-7.8-13.5-10.4-20.7
	c-2.6-7.2-3.4-15.6-0.1-22.5C118.2,98.2,105.5,93.7,93.1,88.2z"/>
<path class="st7" d="M118.7,219.1c-0.1,1-0.9,1.7-3,1.6c-5.8-0.6-11.2-4.5-13.3-9.9c-0.4-1-0.7-1.8-1.1-2.7c-1-1.6-2.7-3-2.6-5
	c0.3-2,2.4-3,4.3-3.5c1.7-0.6,2.8-1.3,4,0.4c2.3,3,4.4,6.1,6.2,9.4c1.1,2.1,2.1,4.4,3.8,6.2C118,216.6,118.8,218,118.7,219.1z"/>
<path class="st7" d="M136,247c0.6,0.9,0.3,2-1.6,3c-5.1,3-11.8,2.7-16.7-0.4c-0.9-0.6-1.6-1.1-2.6-1.6c-1.7-0.9-4-1-4.8-2.6
	c-1-1.7,0.3-3.8,1.6-5.4c1-1.4,1.6-2.7,3.5-2c3.5,1.3,7.1,2.4,10.5,4.1c2.1,1.1,4.3,2.3,6.7,2.8C134,245.3,135.4,246.1,136,247z"/>
<path class="st2" d="M102.9,228.9c0.4-1.1,1.1-2.1,2.3-2.8c4-2.4,9.9-2.4,12.8,1.8c3,4.5,1.6,10.8-3.3,13.3c-2,1-4.8,2-7.1,1.6
	c-2.7-0.6-4.4-2.4-5.8-4.5C99.7,234.9,100.7,231.5,102.9,228.9z"/>
<path class="st2" d="M92.9,209.2c3.7,0.6,7.2,1.4,10.6,3c1.4,0.6,0.6,3-0.9,2.6c-3.4-1-6.8-2-10.4-2.3
	C90.2,212.3,90.7,208.9,92.9,209.2z"/>
<path class="st2" d="M103.5,212.5c3.1,5.7,5.5,11.8,7.9,17.7c0.7,1.8-2.3,2.8-3,1c-2.3-6-5-11.6-7.2-17.6
	C100.8,212.2,102.8,211.2,103.5,212.5z"/>
<path class="st2" d="M114.7,238.8c0.7,2.1,1,4.4,1.3,6.7c0.3,1.8-0.1,4.4,0.4,6.4c2.6-0.1,5.1-0.3,7.8-1c3-0.7,4.3,3.8,1.3,4.5
	c-3.5,0.9-7.2,1.4-10.8,0.6c-0.9-0.1-1.6-1.1-1.6-2c0.1-2.1-0.4-4.4-0.4-6.4c-0.1-2.7-0.6-5.2-1-7.9
	C111.4,237.7,114.1,236.8,114.7,238.8z"/>
<path class="st5" d="M212.7,138.8c1.4,2,1.6,5-0.1,6.7c-1.3,1.4-3.4,1.7-5.2,1.4c-1.8-0.3-3.5-1.1-5.2-2c-1-5.1-2.4-10.1-4-15
	c0.9-1.8,3.7-1.8,5.2-0.4c1.6,1.4,2.4,3.3,4,4.8C208.9,136.1,211.3,136.9,212.7,138.8z"/>
<path class="st5" d="M218.4,28.1c1.3,3.1-0.1,6.5-1.7,9.5c-1.6,3-3.3,5.8-5.8,7.9c-1.7,1.6-3.8,2.6-5.8,3.5
	c-2.6,1.3-5.5,2.3-8.1,3.7c-2.3,1.3-4,2.3-6.8,1.8c-0.7-0.1-1.3-0.3-2-0.7c-1.4-0.8-2-2.6-2.4-4.1c-0.7-2.6-2-5-1.7-7.7
	c0.3-2.6,2.4-4.5,3.3-6.8c0.7-2.1,0.7-4.3,2-6.2c0.7-1.1,1.7-2,2.7-2.8c5.1-4.1,12.3-4.7,18.7-3.3C213.8,23.7,217.1,25.1,218.4,28.1
	z"/>
<path class="st7" d="M184.6,39.5c-0.7-0.9-1.4-1.8-1.7-2.8c-0.7-2.1-0.6-4.5-0.1-6.8c0.4-2.7,1-8.5,3-10.5c2-2,7.1-1.6,9.5-0.8
	c2.8,0.7,5.5,2.8,6.5,5.7c-2.8,0.1-5.7,1.4-7.9,3.3c-2.1,1.7-4.4,3.8-5,6.5c-0.6,2.4,0,4.7-1.1,6.9C186.4,41,185.5,40.2,184.6,39.5z
	"/>
<path class="st8" d="M186,12.8c0.3,2.4,0,4.8-0.6,7.1c6.7,2.3,13.2,5,19.4,8.2c0.1-0.3,0.1-0.7,0.3-1c-2.4-0.4-4.1-2.3-5.7-4.1
	c-2.1-2.3-4.4-4.4-6.8-6.2C190.6,15.2,188.4,13.6,186,12.8z"/>
<path class="st8" d="M180.6,10.5c-0.9-0.7-1.7-1.7-1.3-2.7c0.3-0.9,1.4-1.3,2.3-1.4c2.3-0.4,4.5-0.4,6.8-0.6
	c1.7-0.1,3.5-0.4,5.2-0.7C204.9,4,216.4,9.1,223,18c0.6,0.9,1.1,1.6,1.6,2.4c1.1,2.6,1,5.2,0.4,7.9s-1.6,3.8-4.4,3.4
	c-2.4-0.3-4.4,0.3-6.8,0c-2.7-0.3-5.5-1.3-7.9-2.7c-4.1-1.6-7.5-6.5-10.9-9.4c-1.8-1.6-3.8-2.6-6-3.7c-2.7-1.4-5.1-3.4-7.7-5.1
	C181.1,10.9,180.8,10.8,180.6,10.5z"/>
<path class="st8" d="M226.4,32.5c-0.4-0.9-1-1.8-2-2.3c-2.7,1.3-6.1,1.7-9.2,1c-0.9-0.1-1.7-0.4-2.6-0.9c-1-0.6-1.7-1.4-2.4-2.3
	c-0.1-0.1-0.3-0.3-0.4-0.3c-0.3-0.1-0.6,0-0.7,0.3c-0.7,0.7-0.6,1.7,0,2.6c0.6,0.9,1.4,1.4,2.3,2c2,1.3,3.8,2.7,5.8,4
	c2.8,2,5.8,4,9.2,4.7c0.4,0.1,0.9,0.1,1.4,0.1c0.7-0.1,1.3-0.8,1.4-1.6c0.1-0.7-0.1-1.4-0.3-2.1C228.1,36,227.3,34.2,226.4,32.5z"/>
<path class="st9" d="M191.7,43.1c1.6-2.6,3-5.1,4.7-7.5c2-2.7,3.7-5.5,4.5-8.8c0.3-0.9,1.4-0.4,1.3,0.4c-0.7,4.4-3.7,7.8-6.2,11.2
	c-1.7,2.3-2.6,4.7-3.3,7.4c-0.6,2.1-1.7,8.4,1,9.5c1.1,0.6,0.1,2.3-1,1.7c-1.8-0.8-2.3-2.6-2.4-4.4C190,49.7,190.3,45.5,191.7,43.1z
	"/>
<path class="st9" d="M187,19.4c0-1.1,1.8-1.1,1.7,0c-0.7,7.5,2.7,15,4.5,22.1c0.1,0.7-0.9,1-1.1,0.3C189.8,34.7,186.7,27.1,187,19.4
	z"/>
<path class="st8" d="M67.2,64.5c-1.6-2.3-3.3-4.8-3-7.5c0.3-3.3,3-5.7,5.5-7.7c18.3-14.5,37.9-27.2,58.4-38c1.6-0.9,3.3-1.7,5.1-1.6
	c2.8,0.3,4.7,3,6.2,5.5c4.5,7.5,9.1,15,13.6,22.5c-13.9,15.9-30.2,29.5-48.2,40.4c-3.4,2-6.9,4-10.8,4.5c-5.7,0.9-11.5-1.6-15.9-5.2
	C73.9,74,70.5,69.2,67.2,64.5z"/>
<path class="st8" d="M156.5,37.3c-2.1,0.6-3,3.5-5.1,4c-2,0.4-3.7-1.3-5-2.8c-8.1-10.1-15.7-20.6-22.8-31.3c3.4-3.4,7.9-6,12.6-6.9
	c7.7,10.8,15,21.7,22,33c0.7,1.1,1.3,2.8,0.3,3.7C157.9,37.1,157.2,37.1,156.5,37.3z"/>
<path class="st10" d="M127.7,8.2c5.2,12.6,13.5,23.2,23.4,32.5c0.7,0.6-0.3,1.6-1,1c-10.8-8.5-19.1-20-24.5-32.6
	C125,7.7,127.2,6.8,127.7,8.2z"/>
<path class="st11" d="M154.3,38.1c10.4-1.1,21,0.4,28.5,8.2c6.2,6.4,9.6,18.7,1.8,25.4c-2.8,2.4-6.9-1.7-4.1-4.1
	c6.4-5.2,1.3-14.9-3.5-19.3c-6-5.5-15.2-6.7-22.8-6.4C151.7,42.1,151.8,38.4,154.3,38.1z"/>
<path class="st11" d="M111.3,79.2c5.7,8.8,14.5,13.3,25,13.5c10.5,0,22.5-5,29.2-13.2c1.4-1.7,4.1,0.4,3,2.3
	c-6.7,10.3-20.4,15.7-32.2,16.4c-11.6,0.6-24.8-5.2-30.5-15.7C103.9,78.8,109.2,75.7,111.3,79.2z"/>
<path class="st2" d="M193.8,132.8c4.3,0,8.5-1.4,11.8-4.1c-13.3-26.4-22.8-54.4-32.2-82.3c-3.5-0.1-7.2-0.3-10.5,1
	c-3.4,1.1-6.4,4-6.7,7.5c-0.3,2.8,1.1,5.4,2.6,7.8C171.6,85.5,183.2,108.9,193.8,132.8z"/>
<path class="st9" d="M199.2,137.1c1.3,1.8,0.6,4.5,1.6,6.7c0.7,1.6,2.3,2.4,3.7,3.1c1.8,0.9,4,1.3,6,0.7c2-0.6,3.7-2.4,3.8-4.5
	c0-1.7-1-3.3-2-4.5c-1.4-1.7-2.8-3.4-4.4-5C205.6,135.8,202.3,137.2,199.2,137.1z M210.7,141.6c-0.4-0.4,0.3-1.1,0.7-0.7
	c0.6,0.6,1,1.3,1.3,2.1c0.1,0.3-0.1,0.6-0.3,0.6c-0.3,0.1-0.4-0.1-0.6-0.4C211.5,142.6,211.1,142,210.7,141.6z M209.7,142.2
	c0.1,0.7,0.6,1.4,1,2c0.4,0.6-0.4,1-0.8,0.6c-0.4-0.7-0.9-1.4-1-2.3C208.6,141.7,209.6,141.5,209.7,142.2z M207.1,143
	c0.4,0.6,0.9,1.1,1.1,1.8c0.3,0.6-0.6,1.1-0.9,0.6c-0.3-0.6-0.6-1.1-1-1.6C206.2,143.3,206.7,142.6,207.1,143z"/>
<path class="st12" d="M211.8,20c4.5,2.1,5.4,7.5,5,12c-0.1,1-1.6,1-1.6,0c0.3-4.3,0.4-9.1-3.8-11.3C210.8,20.5,211.3,19.8,211.8,20z
	"/>
<path class="st12" d="M219.3,31.6c3.4-3,2.4-8.4,0.1-11.6c-0.3-0.4,0.4-1,0.7-0.6c3.3,4,3.7,9.2,0.6,13.3
	C219.9,33.9,218.4,32.5,219.3,31.6z"/>
</svg>
