<svg width="218" height="74" viewBox="0 0 218 74" fill="none" xmlns="http://www.w3.org/2000/svg">
<mask id="mask0" mask-type="alpha" maskUnits="userSpaceOnUse" x="0" y="0" width="218" height="73">
<path d="M0.0991211 72.7144V0H217.749V72.7144H0.0991211Z" fill="white"/>
</mask>
<g mask="url(#mask0)">
<path fill-rule="evenodd" clip-rule="evenodd" d="M213.572 56.5626V67.8023C213.572 68.1096 213.766 68.3961 213.974 68.6041L213.64 68.9762C213.431 68.7683 213.22 68.6041 212.789 68.6041H201.557V72.7141H217.749V56.5621H213.572V56.5626ZM11.488 23.0136H5.28921C4.98118 23.0136 4.70237 23.1982 4.50242 23.368L4.15934 23.0343C4.32929 22.8351 4.48516 22.6621 4.48516 22.2322V15.8588C4.48516 15.3993 4.32955 15.2263 4.15934 15.0271L4.50242 14.6934C4.7021 14.8926 4.98118 15.0774 5.28921 15.0774H11.1064C14.8542 15.0774 16.4976 16.5878 16.4976 18.9033C16.4976 21.4765 14.8539 23.0136 11.488 23.0136ZM4.15907 3.88173L4.50242 3.54799C4.7021 3.74718 4.98118 3.93206 5.28921 3.93206H10.6425C13.1696 3.93206 14.7514 5.16426 14.7514 7.49197C14.7514 9.88909 12.8788 11.0837 10.698 11.0837H5.28894C4.98092 11.0837 4.7021 11.2683 4.50242 11.4677L4.15934 11.1043C4.32929 10.9348 4.48516 10.7616 4.48516 10.3018V4.71344C4.48516 4.25388 4.32955 4.08092 4.15934 3.88173H4.15907ZM20.8912 19.0789C20.8912 15.9582 19.2157 13.3528 15.723 12.6618V12.176C17.8659 11.5138 19.175 9.23644 19.175 6.77151C19.1748 2.43552 16.2007 0 10.2686 0H0.0825195V26.9457H11.2352C16.6357 26.9457 20.8912 24.5947 20.8912 19.0789Z" fill="#1B1B44"/>
<path fill-rule="evenodd" clip-rule="evenodd" d="M32.0222 23.1821L31.6494 22.8483C31.8578 22.6404 32.0222 22.4298 32.0222 21.9991V0.00132437H27.5903V26.947H44.2723V22.7805H32.8262C32.5182 22.7805 32.2304 22.9739 32.0222 23.1821ZM66.7913 13.6818C66.7913 19.8587 65.0977 23.346 59.9996 23.346C54.9401 23.346 53.273 19.859 53.273 13.6818V0.0010595H48.8412V15.3389C48.8412 23.2462 53.3553 27.4415 60.0018 27.4415C66.6854 27.4415 71.2075 23.2464 71.2075 15.3389V0.00132437H66.7916V13.6821L66.7913 13.6818ZM96.1812 22.8687H84.2181C83.9101 22.8687 83.6313 23.0528 83.4321 23.2528L83.0885 22.8894C83.2611 22.7199 83.4151 22.5466 83.4151 22.0868V15.8164C83.4151 15.386 83.2611 15.2133 83.0906 15.0139L83.4343 14.6801C83.6334 14.8504 83.9122 15.0351 84.2202 15.0351H93.7239V10.8686H84.2202C83.9122 10.8686 83.6334 11.0535 83.4343 11.223L83.0909 10.8893C83.2609 10.6906 83.417 10.5176 83.417 10.0872V4.86124C83.417 4.40168 83.263 4.22898 83.093 4.05946L83.4382 3.69659C83.6395 3.89524 83.9162 4.07986 84.2242 4.07986H96.0115V0.00132437H78.9878V26.947H96.1868V22.8687H96.1812ZM107.626 4.11774L107.97 3.784C108.169 3.95352 108.448 4.13787 108.756 4.13787H112.607C116.038 4.13787 117.969 5.95914 117.969 8.90985C117.969 11.8314 116.038 13.6236 112.607 13.6236H108.751C108.443 13.6236 108.164 13.8079 107.965 14.0071L107.622 13.6733C107.792 13.4739 107.947 13.3012 107.947 12.8416V4.91925C107.947 4.48962 107.791 4.31692 107.621 4.11774H107.626ZM107.952 18.5711C107.952 18.1116 107.796 17.9386 107.626 17.7394L107.97 17.4057C108.169 17.6049 108.448 17.7898 108.756 17.7898H112.607C118.935 17.7898 122.43 14.0773 122.43 8.88097C122.428 3.61262 118.933 0.00238387 112.605 0.00238387H103.518V26.9481H107.95V18.5725L107.952 18.5711ZM133.441 12.2094C133.133 12.2094 132.854 12.394 132.655 12.5635L132.311 12.2298C132.481 12.0311 132.637 11.8582 132.637 11.4277V4.89011C132.637 4.43108 132.483 4.25812 132.313 4.08834L132.656 3.72546C132.855 3.92411 133.134 4.109 133.442 4.109H138.361C141.135 4.109 143.151 5.46992 143.151 8.16952C143.151 10.8686 141.135 12.2094 138.361 12.2094H133.436H133.441ZM148.608 26.947L140.987 17.219C140.644 16.77 140.274 16.5152 139.816 16.525V16.0562C144.239 15.6806 147.586 12.8671 147.586 8.10992C147.586 2.98725 143.614 0.0010595 138.346 0.0010595H128.2V26.9467H132.632V17.0219C132.632 16.5623 132.478 16.3896 132.308 16.2201L132.653 15.8572C132.852 16.0559 133.131 16.2387 133.439 16.2387H134.942L143.306 26.9449H148.607L148.608 26.947ZM155.292 26.947H159.724V0.00132437H155.29L155.292 26.947ZM185.649 18.1293C185.649 18.961 185.831 19.2471 186.042 19.5925L185.64 19.86L173.554 0.00211898H167.798V26.9478H172.145L172.116 7.37357C172.116 6.54187 171.934 6.2558 171.714 5.90087L172.116 5.63335L185.197 26.9462H189.96V0H185.643V18.128" fill="#1B1B44"/>
</g>
<mask id="mask1" mask-type="alpha" maskUnits="userSpaceOnUse" x="0" y="0" width="218" height="74">
<path d="M108.903 0H0.0991211V73.1485H217.707V0H108.903Z" fill="white"/>
</mask>
<g mask="url(#mask1)">
<path fill-rule="evenodd" clip-rule="evenodd" d="M204.429 3.81234L204.772 4.14555C204.602 4.34473 204.447 4.51717 204.447 4.94759V26.9454H208.876V4.94759C208.876 4.51717 208.72 4.34473 208.52 4.14555L208.892 3.81181C209.062 3.98133 209.341 4.16594 209.678 4.16594H217.703V0H195.549V4.16594H203.611C203.948 4.16594 204.227 3.98159 204.426 3.81207L204.429 3.81234ZM0.0991211 72.6691H4.51503V45.7245H0.0991211V72.6691ZM33.1489 63.8514C33.1489 64.6831 33.3305 64.97 33.5419 65.3154L33.1399 65.5818L21.0578 45.7242H15.3039V72.6691H19.6513L19.6221 53.0957C19.6221 52.2645 19.4397 51.9779 19.2198 51.623L19.6218 51.3568L32.7049 72.6693H37.4687V45.7261H33.151V63.8535L33.1489 63.8514ZM58.6534 49.1477C61.6354 49.1477 64.0518 50.2144 65.961 52.2891L68.9085 49.5021C66.3593 46.6513 62.8516 45.0668 58.6082 45.0668C50.65 45.0668 44.3966 51.294 44.3966 59.1316C44.3966 67.1944 50.7624 73.1673 58.5721 73.1673C62.7464 73.1673 66.209 71.7635 68.9122 68.879L66.0178 66.0316C64.0927 67.8327 61.5363 69.067 58.5695 69.067C53.1392 69.067 48.9224 64.89 48.9224 59.1687C48.9224 53.3627 53.195 49.1485 58.6545 49.1485L58.6534 49.1477ZM86.2838 68.9844C81.0651 68.9844 77.0244 64.7157 77.0244 59.1324C77.0244 53.6495 81.0094 49.2521 86.2838 49.2521C91.414 49.2521 95.4555 53.6198 95.4555 59.1335C95.4555 64.6296 91.499 68.9868 86.2838 68.9868V68.9844ZM86.2838 45.0678C78.392 45.0678 72.3897 51.4619 72.3897 59.1327C72.3897 66.9783 78.3914 73.1657 86.2832 73.1657C94.1166 73.1657 100.119 66.8591 100.119 59.13C100.119 51.3136 94.1175 45.0652 86.284 45.0652L86.2838 45.0678Z" fill="#1B1B44"/>
<path fill-rule="evenodd" clip-rule="evenodd" d="M120.973 57.4378C120.656 57.9273 120.656 58.3861 120.656 58.7288H120.138C120.138 58.3861 120.138 57.9358 119.851 57.4378L112.605 45.7251H106.644V72.6697H111.017V52.6161C111.017 51.987 110.806 51.6408 110.653 51.413L111.064 51.1463L118.193 62.9173H122.331L129.519 51.1489L129.929 51.4165C129.778 51.6442 129.576 51.9541 129.576 52.611V72.6753H133.949V45.7267H128.251L120.975 57.4394L120.973 57.4378ZM146.971 68.9774L146.629 68.6145C146.799 68.4442 146.955 68.2715 146.955 67.8119V61.5397C146.955 61.1095 146.8 60.9366 146.631 60.7371L146.974 60.4034C147.173 60.574 147.452 60.7583 147.76 60.7583H157.264V56.5918H147.76C147.452 56.5918 147.173 56.7762 146.974 56.9462L146.632 56.6125C146.802 56.4138 146.958 56.2406 146.958 55.8099V50.5845C146.958 50.1249 146.802 49.9522 146.632 49.7827L146.974 49.4193C147.173 49.6206 147.452 49.8034 147.76 49.8034H159.547V45.7269H142.518V72.67H159.717V68.5936H147.754C147.446 68.5936 147.167 68.779 146.968 68.9776" fill="#1B1B44"/>
</g>
</svg>
