<?xml version="1.0" encoding="utf-8"?>
<!-- Generator: Adobe Illustrator 23.0.2, SVG Export Plug-In . SVG Version: 6.00 Build 0)  -->
<svg version="1.1" id="Layer_1" xmlns="http://www.w3.org/2000/svg" xmlns:xlink="http://www.w3.org/1999/xlink" x="0px" y="0px"
	 viewBox="0 0 132.6 67.8" style="enable-background:new 0 0 132.6 67.8;" xml:space="preserve">
<style type="text/css">
	.st0{fill:#3C444C;}
</style>
<g>
	<path class="st0" d="M28.1,67.4l-0.2-0.1c-0.9-0.5-1.3-1.9-1.8-3.1L21.2,51h-4.7v0.3l0.3,0.1c0,0,0.2,0.1,0.3,0.2
		c0.3,0.2,0.5,0.5,0.2,1.3c-0.1,0.4-0.2,0.7-0.2,0.7s-3.9,10.5-3.9,10.6c-0.4,1.2-0.8,2.6-1.7,3.1l-0.3,0.1v0.4h5.3v-0.4l-0.4-0.2
		c-0.5-0.2-0.6-0.6-0.1-2.1l0.6-1.9h5.6c0.1,0.4,0.3,1,0.6,1.8s0.7,1.9,0.1,2.2l-0.3,0.1v0.4h5.7L28.1,67.4z M21.2,60.6h-3.8
		l1.9-5.2L21.2,60.6z"/>
	<path class="st0" d="M62.6,50.9v0.4l0.4,0.2c0.6,0.2,0.6,1.8,0.6,2.7v10.2c0,0.8,0,2.5-0.6,2.8l-0.4,0.2v0.4H68v-0.4l-0.4-0.2
		C67,66.9,67,65.3,67,64.4V54.2c0-1.4,0.2-2.6,0.6-2.8l0.4-0.2v-0.4L62.6,50.9L62.6,50.9z"/>
	<path class="st0" d="M42.3,50.9v0.4l0.4,0.2c0.6,0.2,0.6,1.8,0.6,2.7v10.2c0,0.8,0,2.5-0.6,2.8l-0.4,0.2v0.4h5.4v-0.4l-0.4-0.2
		c-0.6-0.3-0.6-1.9-0.6-2.8V54.2c0-1.4,0.2-2.6,0.6-2.8l0.4-0.2v-0.4h-5.4V50.9z"/>
	<g>
		<path class="st0" d="M101.8,54.2L101.8,54.2L101.8,54.2c0-0.9,0-2.5-0.6-2.7l-0.4-0.2v-0.4h5.4v0.4l-0.4,0.2
			c-0.4,0.2-0.6,1.4-0.6,2.8v10.2c0,0.8,0,2.5,0.6,2.8l0.4,0.2v0.4h-5.4v-0.4l0.4-0.2c0.6-0.2,0.6-1.9,0.6-2.8V54.2z"/>
	</g>
	<path class="st0" d="M12.1,49.5c-1.2-1.2-3.1-1.9-5.2-1.9H0l0,0V48l0.4,0.1c0.9,0.4,0.8,2.6,0.8,4.2c0,1.9,0,10.6,0,10.7v0.4
		c0,1.2,0,3.4-0.8,3.8L0,67.4v0.4h6.4v-0.4l-0.3-0.1C5,66.5,5,64.9,5,63.2v-3.6l0.7,0.2c0,0,1.1,0.4,2,0.4c3,0,6.1-2,6.1-6.5
		C13.7,52,13.1,50.6,12.1,49.5z M5.8,58.6H5.2H4.9V51c0.4,0,0.9-0.1,1.5-0.1c1.3,0,2.3,0.3,3,1c0.5,0.5,0.8,1.3,0.8,2.3
		C10.2,56.9,7.9,58.4,5.8,58.6z"/>
	<path class="st0" d="M40.5,63.2L40.5,63.2c-0.3,0.2-0.5,0.4-0.5,0.3c-1,0.6-2.6,1.4-4.3,1.4c-1.3,0-2.4-0.4-3.2-1.2
		c-1.1-1.1-1.6-2.7-1.6-4.7c0-3.1,1.8-5.2,4.4-5.2c1.2,0,2.5,0.4,3.6,1.2l0.3,0.2l0.6,0.4v-0.8v-3.3v-0.2l-0.5-0.1
		c-1.6-0.4-2.9-0.6-4.1-0.6c-2.3,0-4.2,0.8-5.7,2.3c-1.6,1.6-2.5,3.9-2.5,6.5c0,2.7,0.8,4.9,2.4,6.5c1.6,1.6,3.8,2.4,6.5,2.4
		c1.3,0,2.5-0.3,3.5-0.8h0.1l0.1-0.1l0.1-0.1l1.2-3.9h-0.4L40.5,63.2L40.5,63.2z"/>
	<path class="st0" d="M82.2,63.2l-0.5,0.3c-1,0.6-2.6,1.4-4.3,1.4c-1.3,0-2.4-0.4-3.2-1.2c-1.1-1.1-1.6-2.7-1.6-4.7
		c0-3.1,1.8-5.2,4.4-5.2c1.2,0,2.5,0.4,3.6,1.2l1,0.7v-4.1v-0.3l-0.5-0.1c-1.6-0.4-2.9-0.6-4.1-0.6c-2.3,0-4.2,0.8-5.7,2.3
		c-1.6,1.6-2.5,3.9-2.5,6.5c0,2.7,0.8,4.9,2.4,6.5s3.8,2.4,6.5,2.4c1.3,0,2.5-0.3,3.5-0.8l0.2-0.1l1.2-4.1h-0.4V63.2z"/>
	<path class="st0" d="M59.7,50.9h-4.5h-5.4v0.4l0.4,0.2c0.6,0.2,0.6,1.8,0.6,2.8v10.2c0,0.8,0,2.5-0.6,2.8l-0.4,0.2v0.4h5.4v-0.4
		l-0.4-0.2c-0.6-0.3-0.6-1.9-0.6-2.8v-3.4h3l0,0l0,0c0,0,1.3-0.1,1.5,0.4l0.1,0.2l0.4,0.1l0.2-4.5H59l-0.1,0.3
		c-0.1,0.4-1.3,0.5-1.6,0.4l0,0h-3c0-1.5,0-3.4,0-4.2h4c0.9,0,1.4,0.2,1.5,0.7l0.1,0.3h0.4l1-4C61.3,50.8,60,50.9,59.7,50.9z"/>
	<path class="st0" d="M118.1,50.9h-4.5h-5.4v0.4l0.4,0.2c0.6,0.2,0.6,1.8,0.6,2.8v10.2c0,0.8,0,2.5-0.6,2.8l-0.4,0.2v0.4h5.4v-0.4
		l-0.4-0.2c-0.6-0.3-0.6-1.9-0.6-2.8v-3.4h3l0,0l0,0c0,0,1.3-0.1,1.5,0.4l0.1,0.2l0.4,0.1l0.2-4.5h-0.4l-0.1,0.3
		c-0.1,0.4-1.3,0.5-1.6,0.4l0,0h-3c0-1.5,0-3.4,0-4.2h4c0.9,0,1.4,0.2,1.5,0.7l0.1,0.3h0.4l1-4C119.7,50.8,118.4,50.9,118.1,50.9z"
		/>
	<path class="st0" d="M132,63.7c-1,0.8-2.7,1.3-4.4,1.3c-1.7,0-2.5-0.2-2.5-0.2c0-0.1,0-0.2,0-0.3v-4h2.5c0,0,1.3,0,1.5,0.4l0.1,0.2
		l0.4,0.1l0.2-4.2h-0.4l-0.1,0.3c-0.1,0.4-1.2,0.4-1.6,0.4h-2.5c0-1.4,0-3.1,0-3.8h3.2c0.9,0,1.7,0,2,0.7l0.1,0.3h0.4l0.8-4
		c0,0-1.3,0.1-1.6,0.1h-9.3v0.3l0.4,0.2c0.6,0.2,0.6,1.8,0.6,2.8v10.2c0,0.8,0,2.4-0.5,2.8c-0.1,0.1-0.5,0.1-0.5,0.2v0.4h10.8l1-4.1
		L132,63.7L132,63.7z"/>
	<path class="st0" d="M99.7,62.7l-0.2,0.2c-1.4,1.3-3.1,1.9-4.9,1.9s-2.5-0.1-2.5-0.1s0-12.4,0-13.1c0-1.2,0-3.1,1-3.5l0.4-0.1v-0.4
		h-6.3V48l0.4,0.1c0.8,0.3,0.8,2.3,0.8,3.5v12.2c0,1.1,0,3.1-0.8,3.4l-0.4,0.2v0.4h11.2l1.8-5.1C100.2,62.7,99.7,62.7,99.7,62.7z"/>
</g>
<path class="st0" d="M104.1,39.8c0-0.4,0-0.7,0-1.1c-0.2,0-10.1,0.7-14.9,0.7c-6.4,0-15.5-0.1-15.5-0.1l-42.4-0.4c0-0.1,0-0.8,0-0.9
	l42.3-0.1c0,0,9.2,0.1,15.6,0.1c4.8,0,14.7,0,14.9,0c0-0.5-0.1-1.3-0.1-1.8c-0.2,0-10,0.8-14.7,0.8c-6.4,0-15.5-0.4-15.5-0.4H62.9
	l-14.3-0.4l-17-0.2c0-0.1,0.1-0.8,0.1-1c0.6,0.1,1.1,0.3,3.2,0.3c2.7,0,4-0.6,4-0.6s2,0.6,4.6,0.6c1.3,0,4-1.3,5.7-0.8
	c2.7,0.8,3.8-0.4,3.8-0.4s0.6,0.8,1.8,1.1c1,0.2,2.1-0.5,2.1-0.5s1.5,1.1,5.9,1.1c5.4,0,6.8-2.8,6.8-2.8h0.2c0,0-0.2,0.8,0.1,1.4
	c0.6,1.2,2.3,1.4,2.3,1.4c-0.2-3.4,1.3-5.6,1.3-5.6h0.2c0,0,0,0-0.2,0.7c-0.6,2.4,0.4,4.7,0.4,4.7l0.5-0.3c0,0-0.5-1.6,0-3.7
	s1.2-3.2,1.2-3.2h0.3c0,0-0.5,1.7-0.5,3c0,1.1,0.6,3.6,2.7,4.4c1.6,0.6,2.7-0.7,2.7-0.7S84.1,36,87,36c6.6,0,8.1-1.1,8.1-1.1
	s0.4,0.8,3.8,0.8c2,0,3.5-0.1,4.4-0.2c0.3,0,0.5-0.1,0.7-0.1c-0.1-0.6-0.2-1.1-0.3-1.7c-2.1-10.5-8.1-19.4-16.4-25.1l-0.5,1.3
	c8.1,5.4,14,13.8,15.8,23.7c-0.9,0.3-2.3,0.7-4,0.7c-2.6,0-3.2-0.8-3.2-0.8s-0.9,0.7-2.6,0.7c-1.5,0-2.7-1.1-2.7-1.1
	s-1.6,1.5-4.2,1.5c-3.3,0-4.9-2-5.5-2.9s-0.9-1.6-0.9-1.6h-0.3c0.1,0.4,0.1,0.8,0.3,1.2c0.4,1.2,0.7,1.6,0.9,1.9
	c0.1,0.2,0.3,0.6-0.2,0.8c-0.3,0.1-0.5-0.1-0.6-0.3c-0.2-0.2-0.7-1.1-1.1-2.3c-0.4-1.3-0.5-2.3-0.6-3h-0.2c-0.1,0.7-0.2,1.6-0.1,2.9
	c0.1,1.4,0.5,2.3,0.6,2.6c0,0,0.1,0.2,0.1,0.3c0.1,0.4-0.3,0.6-0.6,0.6c-0.3-0.1-0.6-0.4-0.7-0.6c-1.4-2.4,0.3-6.8,0.8-8.3
	c0.7-2.1,1-4,1-4s0.9-1.5,1.5-2.6c0.6-1.3,1.1-2.6,1.5-3c0.7-0.7,1.6-2.2,2.7-4.2c0.2-0.4,1.1-2.4,1.3-2.9c0.1-0.4,0.3-0.7,0.4-1.1
	c0.5-1.9,0.8-3.9,0.9-4.2c0-0.5-0.8-0.8-0.8-0.8s-0.7-0.3-1.2-0.3c-0.3,0-0.6,0.3-1,0.4c-0.4,0.2-0.6,0.1-0.6,0.1s-0.6-0.3-1-0.2
	c-0.3,0.1-0.6,0.4-0.9,0.5C81.1,3.8,81,3.7,81,3.7s-0.5-0.1-0.9,0c-0.3,0.1-0.7,0.3-1.3,0.8C74.7,3,70.2,2.1,65.5,2.1
	c-21,0-38,16.8-38.3,37.7c0,0.2,0,1.1,0,1.1h76.7C104.1,40.8,104.1,40,104.1,39.8z M55.2,32c-0.1-0.1,0-0.1-0.1-0.2
	c1-3.4,3.5-10.2,7.4-15.5c0.4,0.2,0.8,0.4,1.2,0.7C60.9,20.3,57.1,26.6,55.2,32z M57.6,33.2c0.8-3.1,2.7-9.6,7-15.6
	c0.4,0.3,0.8,0.5,1.2,0.7c-2.8,3.8-6.4,9.9-8,15C57.7,33.3,57.7,33.2,57.6,33.2z M60.6,34c-0.1,0-0.1,0-0.2,0
	c0.6-2.5,2.2-8.8,6.3-15.1c0.4,0.3,0.8,0.5,1.1,0.8C65,23.6,61.9,29.3,60.6,34z M63.5,33.9c-0.1,0-0.1,0-0.2,0
	c0.5-2.3,1.9-7.9,5.4-13.7c0.5,0.3,0.8,0.6,1.1,0.9C67.3,24.9,64.7,29.8,63.5,33.9z M73.6,23.7c-0.7,0-1.8-0.3-2.2-0.9
	c0.1,1.1,1.3,1.9,2.5,2v0.1C73.7,25,73.4,25,73.1,25c-1.4,0-2.6-1.2-2.6-2.6c0-0.2,0-0.4,0.1-0.6c1,0.8,3.4,2.1,4.7,0.3v0.1
	C75.1,23,74.4,23.7,73.6,23.7z M77.8,17.7c-0.1,0.5-0.4,0.7-0.6,0.8s-0.6,0.4-0.7,0.5c0,0.1-0.1,0-0.1,0s-0.2-0.1-0.3-0.2
	c0,0,0-0.1-0.1-0.1c0-0.1,0-0.2,0-0.2v-0.2V18c0,0-0.1-0.4,0-0.7c0.1-0.4,0.5-0.7,0.5-0.7l0.2,0.1c0,0-0.2,0.2-0.3,0.5
	c-0.1,0.2-0.1,0.6,0,0.9v0.2l0.1,0.1c0,0,0.1-0.1,0.2-0.1C76.9,18.1,77,18,77,18s-0.4-0.2-0.2-0.6c0.2-0.3,0.6-0.2,0.6-0.2
	c0.1-0.4,0.1-0.8,0.1-0.8l0.2,0.1C77.8,16.6,77.9,17.2,77.8,17.7z M79.8,4.8c0.4-0.2,0.7-0.4,1.1-0.6c0.4-0.1,0.8,0,1.1,0
	c0.3,0,0.8-0.5,1.1-0.5c0.3,0,0.5,0.1,0.7,0.2C84,4,84.9,3.4,85.1,3.4s0.7,0,0.6,0.6c-0.1,0.5-0.4,1.9-1.1,3.6
	c-0.2,0.5-0.5,1.1-0.7,1.7c-0.3,0.6-0.7,1.3-1.1,2c-1.7,2.7-3.3,2.1-6.6,3.6c-2.5,1.2-3.6,2-4,2.4c-0.2-0.1-0.4-0.3-0.6-0.4
	c0.5-0.4,1.5-1.2,3.7-2.3c2.3-1.2,6.1-2.8,6.9-4.1c0.1-0.1,0-0.2-0.1-0.3c-0.9,0.6-1.6,1-2,1.2c-3.7,1.9-5,2.4-6.7,3.2
	c-0.8,0.4-1.9,1.1-2.8,1.7c-0.2-0.1-0.4-0.3-0.6-0.4c0.7-0.6,1.7-1.3,2.9-1.9c1.7-0.8,3.1-1.5,7.1-3.9c0.4-0.2,2.4-1.4,3.9-2.5
	c0-0.1,0.1-0.3,0.1-0.4c-1.4,0.8-5.8,3.2-6.7,3.6c-3.7,1.9-3.6,1.8-5.2,2.6C71,14,70,14.7,69.3,15.2c-0.2-0.2-0.4-0.3-0.6-0.5
	c0.9-0.6,1.7-1.2,2.9-1.8c1.7-0.9,1.9-1.1,5.6-2.9c1.9-1,5.2-3.2,7-4.3c0-0.1,0-0.2,0.1-0.3c-1.9,1-7.1,3.8-8,4.2
	c-3.7,1.9-4.2,2-5.8,2.9c-1,0.5-1.9,1.1-2.5,1.6c-0.2-0.1-0.3-0.3-0.4-0.4c0.6-0.5,1.6-1.2,3.1-2c1.6-0.9,1.9-1.1,5.7-2.9
	c0.3-0.2,2.1-1.2,3.9-2.2c0.5-0.3,1.1-0.6,1.5-0.9c0.3-0.2,0.6-0.5,0.9-0.7l-0.2-0.1c-0.8,0.3-1.8,0.9-2.1,1
	c-1.9,1.1-4.5,2.2-5.2,2.6c-3.7,1.9-4.2,2-5.8,2.9c-0.9,0.5-1.9,1.1-2.6,1.7c-0.2-0.2-0.3-0.3-0.5-0.5c0.8-0.6,1.8-1.4,3.1-2
	c1.7-0.8,2-1,5.7-2.9c0.7-0.3,1.3-0.7,1.7-1C76.7,6.7,78.3,5.8,79.8,4.8z M67.3,3.8c3.6,0,7,0.5,10.3,1.5c-0.7,0.5-1.6,1-2.7,1.6
	c-4.2,2.1-4.8,2.3-6.6,3.2c-1.1,0.6-2.1,1.2-2.9,1.8l0,0c0,0-0.8-1-1.3-1.4s-1.5-0.6-1.8-0.7c-0.7-0.3-0.8-0.6-1.7-0.9
	c-0.8-0.3-1.3-0.1-1.9-0.2c-0.4-0.1-1-0.3-1.7-0.2c-0.4,0-1,0.3-1.5,0.4c-0.6,0-1.1-0.2-1.6-0.1c-0.4,0.1-1,0.5-1.7,0.7
	c-0.5,0.1-1,0-1.4,0.1s-1.1,0.7-1.5,0.9c-0.4,0.1-1.2,0.2-1.1,0.9c0.1,0.6,1.4,0.8,1.4,0.8s6,0.8,11.7,3.8c-0.8,1-1.6,2.2-2.4,3.4
	c-0.4-0.1-1.1-0.3-1.5-0.4c-0.6-0.1-1.3,0.2-1.6,0.2c-0.8,0-1-0.2-1.9-0.1c-0.7,0.1-0.8,0.3-1.4,0.5c-0.4,0.1-1-0.1-1.7,0.2
	c-0.4,0.1-1,0.8-1.4,0.9c-0.3,0.1-0.9,0.2-1.3,0.5c-0.3,0.3-0.3,0.6-1,1c-0.4,0.3-0.8,0.2-1.2,0.6c-0.2,0.2-0.3,0.7-1.1,1.2
	c-1,0.8-0.8,1.4-0.8,1.6c0.3,0.7,1.8,0,1.8,0s4.9-1.7,10.8-2c-1.5,3.1-2.8,6-3.5,7.9c-0.2,0.5-0.3,0.9-0.4,1.2c-0.1,0-0.1,0-0.1,0
	c-0.4-0.2-0.4-0.8-0.2-1.8c0.2-1.1,1.1-3.2,1.3-3.7h-0.3c-0.3,0.5-1.1,2.1-1.4,2.5c-0.3,0.6-0.4,0.8-1,2.1c-0.1,0.2-0.5,0.9-0.8,0.9
	s-0.6-0.2-0.6-0.4c0-0.1,0.2-0.4,0.3-0.5c0.8-1.2,1.3-2.5,1.5-3h-0.3c0,0-2.2,4.9-6.7,4.9c-1.6,0-3.2-0.7-3.2-0.7s-2.2,1-5.1,1
	c-2.3,0-3.7-0.4-4.2-0.7C34.9,16.6,49.1,3.8,67.3,3.8z"/>
</svg>
